<svg xmlns="http://www.w3.org/2000/svg" xmlns:xlink="http://www.w3.org/1999/xlink" width="1030" height="238.315" viewBox="0 0 1030 238.315">
  <defs>
    <radialGradient id="radial-gradient" cx="0.5" cy="0.5" r="0.5" gradientUnits="objectBoundingBox">
      <stop offset="0" stop-color="#3076b6"/>
      <stop offset="1" stop-color="#102d48"/>
    </radialGradient>
    <radialGradient id="radial-gradient-5" cx="0.5" cy="0.5" r="0.5" gradientUnits="objectBoundingBox">
      <stop offset="0" stop-color="#ffa031"/>
      <stop offset="1" stop-color="#805019"/>
    </radialGradient>
    <radialGradient id="radial-gradient-6" cx="0.5" cy="0.5" r="0.5" gradientUnits="objectBoundingBox">
      <stop offset="0" stop-color="#008b8a"/>
      <stop offset="1" stop-color="#004645"/>
    </radialGradient>
  </defs>
  <g id="Grupo_1024430" data-name="Grupo 1024430" transform="translate(-285 -14110)">
    <path id="Trazado_723866" data-name="Trazado 723866" d="M0,0H1030V238.316H0Z" transform="translate(285 14110)" fill="#e3f4ff"/>
    <g id="Grupo_1021161" data-name="Grupo 1021161" transform="translate(-9 1480)">
      <g id="Grupo_1021149" data-name="Grupo 1021149" transform="translate(-275 1314)">
        <text id="_-MgSO4" data-name="-MgSO4" transform="translate(619 11459)" fill="#205a8f" font-size="46" font-family="Roboto-Bold, Roboto" font-weight="700"><tspan x="0" y="0">-MgSO</tspan><tspan y="0" font-size="26.832" baseline-shift="-15.331800263311814">4</tspan></text>
      </g>
    </g>
    <g id="Grupo_1021164" data-name="Grupo 1021164" transform="translate(64.246)">
      <rect id="Rect치ngulo_348788" data-name="Rect치ngulo 348788" width="4.489" height="122.382" transform="translate(668.489 14286.855) rotate(180)"/>
      <rect id="Rect치ngulo_348789" data-name="Rect치ngulo 348789" width="4.489" height="122.382" transform="translate(607.297 14227.908) rotate(-90)"/>
      <ellipse id="Elipse_8538" data-name="Elipse 8538" cx="22" cy="22.5" rx="22" ry="22.5" transform="matrix(0.719, 0.695, -0.695, 0.719, 666.26, 14133.121)" fill="url(#radial-gradient)"/>
      <circle id="Elipse_8539" data-name="Elipse 8539" cx="22.5" cy="22.5" r="22.5" transform="matrix(0.719, 0.695, -0.695, 0.719, 726.49, 14192.988)" fill="url(#radial-gradient)"/>
      <circle id="Elipse_8548" data-name="Elipse 8548" cx="22.5" cy="22.5" r="22.5" transform="matrix(0.719, 0.695, -0.695, 0.719, 606.742, 14192.988)" fill="url(#radial-gradient)"/>
      <ellipse id="Elipse_8543" data-name="Elipse 8543" cx="22" cy="22.5" rx="22" ry="22.5" transform="matrix(0.719, 0.695, -0.695, 0.719, 666.26, 14257.035)" fill="url(#radial-gradient)"/>
      <circle id="Elipse_8540" data-name="Elipse 8540" cx="22.5" cy="22.5" r="22.5" transform="matrix(0.719, 0.695, -0.695, 0.719, 666.26, 14193.85)" fill="url(#radial-gradient-5)"/>
      <g id="Grupo_1021163" data-name="Grupo 1021163">
        <ellipse id="Elipse_8549" data-name="Elipse 8549" cx="22" cy="22.5" rx="22" ry="22.5" transform="matrix(0.719, 0.695, -0.695, 0.719, 567.014, 14269.035)" fill="url(#radial-gradient-6)"/>
        <text id="_" data-name="++" transform="translate(591.051 14312)" fill="#008b8a" font-size="26.832" font-family="Roboto-Bold, Roboto" font-weight="700" baseline-shift="15.331800263311814"><tspan x="0" y="0">++</tspan></text>
      </g>
    </g>
    <path id="Trazado_723867" data-name="Trazado 723867" d="M22.5,0A22.5,22.5,0,1,1,0,22.5,22.5,22.5,0,0,1,22.5,0Z" transform="matrix(0.719, 0.695, -0.695, 0.719, 1197.63, 14220.186)" fill="url(#radial-gradient)"/>
    <path id="Trazado_723868" data-name="Trazado 723868" d="M22.5,0A22.5,22.5,0,1,1,0,22.5,22.5,22.5,0,0,1,22.5,0Z" transform="matrix(0.719, 0.695, -0.695, 0.719, 1072.63, 14220.186)" fill="url(#radial-gradient-5)"/>
    <g id="Grupo_1021163-2" data-name="Grupo 1021163" transform="translate(379.246 -48.85)">
      <ellipse id="Elipse_8549-2" data-name="Elipse 8549" cx="22" cy="22.5" rx="22" ry="22.5" transform="matrix(0.719, 0.695, -0.695, 0.719, 567.014, 14269.035)" fill="url(#radial-gradient-6)"/>
    </g>
    <path id="Trazado_723869" data-name="Trazado 723869" d="M3.665-12.8,7.849-2.355,12.032-12.8h2.188V0H12.533V-4.983l.158-5.379L8.49,0H7.2L3.006-10.336l.167,5.353V0H1.485V-12.8ZM22.816,0a3.416,3.416,0,0,1-.229-1A3.628,3.628,0,0,1,19.881.176a3.357,3.357,0,0,1-2.307-.8,2.573,2.573,0,0,1-.9-2.017A2.688,2.688,0,0,1,17.8-4.944a5.325,5.325,0,0,1,3.177-.822h1.582v-.747a1.826,1.826,0,0,0-.51-1.358,2.049,2.049,0,0,0-1.5-.505,2.371,2.371,0,0,0-1.459.439A1.3,1.3,0,0,0,18.5-6.873H16.866a2.244,2.244,0,0,1,.505-1.375A3.449,3.449,0,0,1,18.743-9.3a4.613,4.613,0,0,1,1.9-.387,3.759,3.759,0,0,1,2.575.822A2.964,2.964,0,0,1,24.188-6.6v4.377a5.351,5.351,0,0,0,.334,2.083V0Zm-2.7-1.239a2.858,2.858,0,0,0,1.45-.4,2.392,2.392,0,0,0,.993-1.028V-4.614H21.287q-2.988,0-2.988,1.749a1.48,1.48,0,0,0,.51,1.2A1.959,1.959,0,0,0,20.118-1.239ZM26.35-4.834a5.589,5.589,0,0,1,1.028-3.538A3.289,3.289,0,0,1,30.1-9.686a3.271,3.271,0,0,1,2.716,1.23L32.9-9.51h1.485V-.229a3.869,3.869,0,0,1-1.094,2.909,4.038,4.038,0,0,1-2.94,1.063A4.891,4.891,0,0,1,28.336,3.3a3.465,3.465,0,0,1-1.5-1.2l.844-.976a3.18,3.18,0,0,0,2.558,1.292,2.491,2.491,0,0,0,1.85-.668,2.553,2.553,0,0,0,.664-1.881V-.949A3.342,3.342,0,0,1,30.085.176a3.248,3.248,0,0,1-2.7-1.345A5.876,5.876,0,0,1,26.35-4.834Zm1.635.185a4.264,4.264,0,0,0,.659,2.527,2.142,2.142,0,0,0,1.846.918,2.382,2.382,0,0,0,2.259-1.4V-6.943a2.41,2.41,0,0,0-2.241-1.362,2.161,2.161,0,0,0-1.854.923A4.644,4.644,0,0,0,27.984-4.649ZM38.373-9.51l.053,1.2a3.465,3.465,0,0,1,2.848-1.371q3.015,0,3.041,3.4V0H42.688V-6.293a2.189,2.189,0,0,0-.47-1.521,1.884,1.884,0,0,0-1.437-.492,2.347,2.347,0,0,0-1.389.422,2.865,2.865,0,0,0-.932,1.107V0H36.835V-9.51ZM50.713.176a4.155,4.155,0,0,1-3.146-1.27,4.714,4.714,0,0,1-1.213-3.4v-.3a5.707,5.707,0,0,1,.541-2.527,4.217,4.217,0,0,1,1.512-1.74,3.8,3.8,0,0,1,2.1-.628,3.562,3.562,0,0,1,2.883,1.222,5.289,5.289,0,0,1,1.028,3.5v.677H47.979A3.38,3.38,0,0,0,48.8-2.017a2.583,2.583,0,0,0,2,.866A2.832,2.832,0,0,0,52.26-1.5a3.666,3.666,0,0,0,1.046-.932l.993.773A3.993,3.993,0,0,1,50.713.176Zm-.2-8.525a2.169,2.169,0,0,0-1.652.716,3.482,3.482,0,0,0-.826,2.008H52.8v-.123a3.1,3.1,0,0,0-.668-1.92A2.042,2.042,0,0,0,50.511-8.35ZM61.84-2.522a1.2,1.2,0,0,0-.5-1.024,4.78,4.78,0,0,0-1.731-.628,8.186,8.186,0,0,1-1.96-.633,2.788,2.788,0,0,1-1.072-.879A2.1,2.1,0,0,1,56.232-6.9a2.467,2.467,0,0,1,.989-1.978,3.861,3.861,0,0,1,2.527-.809,3.974,3.974,0,0,1,2.624.835,2.652,2.652,0,0,1,1.006,2.136H61.743a1.468,1.468,0,0,0-.567-1.151,2.124,2.124,0,0,0-1.428-.483,2.223,2.223,0,0,0-1.389.387,1.217,1.217,0,0,0-.5,1.011.986.986,0,0,0,.466.888,5.731,5.731,0,0,0,1.683.571,8.77,8.77,0,0,1,1.973.65,2.878,2.878,0,0,1,1.121.91,2.237,2.237,0,0,1,.365,1.3,2.434,2.434,0,0,1-1.02,2.043A4.277,4.277,0,0,1,59.8.176a4.789,4.789,0,0,1-2.021-.4A3.288,3.288,0,0,1,56.4-1.358a2.722,2.722,0,0,1-.5-1.569h1.626a1.683,1.683,0,0,0,.655,1.3,2.54,2.54,0,0,0,1.613.479,2.622,2.622,0,0,0,1.481-.374A1.148,1.148,0,0,0,61.84-2.522ZM67.351,0H65.725V-9.51h1.626ZM65.593-12.032a.971.971,0,0,1,.242-.668.907.907,0,0,1,.716-.272.922.922,0,0,1,.721.272.96.96,0,0,1,.246.668.929.929,0,0,1-.246.659.938.938,0,0,1-.721.264.924.924,0,0,1-.716-.264A.938.938,0,0,1,65.593-12.032Zm3.929,7.189a5.617,5.617,0,0,1,.549-2.514A4.1,4.1,0,0,1,71.6-9.079a4.163,4.163,0,0,1,2.237-.606,4.01,4.01,0,0,1,3.142,1.345,5.174,5.174,0,0,1,1.2,3.577v.114a5.666,5.666,0,0,1-.532,2.492A4.038,4.038,0,0,1,76.126-.439a4.211,4.211,0,0,1-2.272.615,4,4,0,0,1-3.133-1.345,5.147,5.147,0,0,1-1.2-3.56Zm1.635.193a4.068,4.068,0,0,0,.734,2.54,2.349,2.349,0,0,0,1.964.958,2.335,2.335,0,0,0,1.969-.971,4.449,4.449,0,0,0,.729-2.72,4.061,4.061,0,0,0-.743-2.536,2.361,2.361,0,0,0-1.973-.971,2.335,2.335,0,0,0-1.942.958A4.416,4.416,0,0,0,71.156-4.649Z" transform="translate(909 14217.186)" fill="#12263f"/>
    <path id="Trazado_723870" data-name="Trazado 723870" d="M-17.648-3.349H-23.01L-24.214,0h-1.74l4.887-12.8h1.477L-14.7,0h-1.731ZM-22.5-4.729h4.351l-2.18-5.985Zm10.907,3.4h5.563V0h-7.55V-1.2l5.247-6.97H-13.5V-9.51h7.207v1.151ZM1.67-.94A3.454,3.454,0,0,1-1.116.176,2.956,2.956,0,0,1-3.432-.708a3.823,3.823,0,0,1-.8-2.615V-9.51H-2.61v6.144Q-2.61-1.2-.853-1.2A2.434,2.434,0,0,0,1.626-2.593V-9.51H3.252V0H1.705ZM6.521,0V-8.253h-1.5V-9.51h1.5v-.976a3.238,3.238,0,0,1,.817-2.364,3.088,3.088,0,0,1,2.312-.835,4.293,4.293,0,0,1,1.116.148l-.088,1.311A4.67,4.67,0,0,0,9.8-12.3a1.586,1.586,0,0,0-1.222.463,1.877,1.877,0,0,0-.431,1.327V-9.51h2.03v1.257H8.147V0ZM16.567-8.051a4.873,4.873,0,0,0-.8-.062A2.143,2.143,0,0,0,13.6-6.75V0H11.971V-9.51h1.582l.026,1.1a2.532,2.532,0,0,1,2.268-1.274,1.661,1.661,0,0,1,.721.123ZM21.841.176a4.155,4.155,0,0,1-3.146-1.27,4.714,4.714,0,0,1-1.213-3.4v-.3a5.707,5.707,0,0,1,.541-2.527,4.217,4.217,0,0,1,1.512-1.74,3.8,3.8,0,0,1,2.1-.628,3.562,3.562,0,0,1,2.883,1.222,5.289,5.289,0,0,1,1.028,3.5v.677H19.107a3.38,3.38,0,0,0,.822,2.272,2.583,2.583,0,0,0,2,.866A2.832,2.832,0,0,0,23.388-1.5a3.666,3.666,0,0,0,1.046-.932l.993.773A3.993,3.993,0,0,1,21.841.176Zm-.2-8.525a2.169,2.169,0,0,0-1.652.716,3.482,3.482,0,0,0-.826,2.008h4.764v-.123a3.1,3.1,0,0,0-.668-1.92A2.042,2.042,0,0,0,21.639-8.35Z" transform="translate(1074 14217.186)" fill="#12263f"/>
    <path id="Trazado_723871" data-name="Trazado 723871" d="M-21.419-5.985A7.916,7.916,0,0,1-22.052-2.7a4.793,4.793,0,0,1-1.793,2.14,4.933,4.933,0,0,1-2.707.738,4.891,4.891,0,0,1-2.681-.743,4.908,4.908,0,0,1-1.815-2.118,7.6,7.6,0,0,1-.664-3.186v-.923a7.822,7.822,0,0,1,.642-3.261,4.891,4.891,0,0,1,1.815-2.167,4.87,4.87,0,0,1,2.685-.751,4.961,4.961,0,0,1,2.711.743,4.784,4.784,0,0,1,1.806,2.153,7.955,7.955,0,0,1,.633,3.283ZM-23.1-6.812a5.738,5.738,0,0,0-.914-3.494,3.015,3.015,0,0,0-2.558-1.217,2.982,2.982,0,0,0-2.518,1.217,5.62,5.62,0,0,0-.945,3.379v.94A5.746,5.746,0,0,0-29.1-2.518a3,3,0,0,0,2.553,1.261,2.983,2.983,0,0,0,2.531-1.191A5.714,5.714,0,0,0-23.1-5.862Zm7.146.773,2.109-3.472h1.9l-3.111,4.7L-11.848,0h-1.881l-2.2-3.56L-18.123,0h-1.89L-16.8-4.808l-3.111-4.7h1.881ZM-8.455,0h-1.626V-9.51h1.626Zm-1.758-12.032a.971.971,0,0,1,.242-.668.907.907,0,0,1,.716-.272.922.922,0,0,1,.721.272.96.96,0,0,1,.246.668.929.929,0,0,1-.246.659.938.938,0,0,1-.721.264.924.924,0,0,1-.716-.264A.938.938,0,0,1-10.213-12.032Zm3.973,7.2A5.589,5.589,0,0,1-5.212-8.372,3.289,3.289,0,0,1-2.487-9.686,3.271,3.271,0,0,1,.229-8.455L.308-9.51H1.793V-.229A3.869,3.869,0,0,1,.7,2.681a4.038,4.038,0,0,1-2.94,1.063A4.891,4.891,0,0,1-4.254,3.3a3.465,3.465,0,0,1-1.5-1.2l.844-.976A3.18,3.18,0,0,0-2.355,2.417a2.491,2.491,0,0,0,1.85-.668A2.553,2.553,0,0,0,.158-.132V-.949A3.342,3.342,0,0,1-2.5.176a3.248,3.248,0,0,1-2.7-1.345A5.876,5.876,0,0,1-6.24-4.834Zm1.635.185a4.264,4.264,0,0,0,.659,2.527A2.142,2.142,0,0,0-2.1-1.2,2.382,2.382,0,0,0,.158-2.6V-6.943A2.41,2.41,0,0,0-2.083-8.306a2.161,2.161,0,0,0-1.854.923A4.644,4.644,0,0,0-4.605-4.649ZM8.191.176a4.155,4.155,0,0,1-3.146-1.27,4.714,4.714,0,0,1-1.213-3.4v-.3a5.707,5.707,0,0,1,.541-2.527,4.217,4.217,0,0,1,1.512-1.74,3.8,3.8,0,0,1,2.1-.628,3.562,3.562,0,0,1,2.883,1.222,5.289,5.289,0,0,1,1.028,3.5v.677H5.458A3.38,3.38,0,0,0,6.28-2.017a2.583,2.583,0,0,0,2,.866A2.832,2.832,0,0,0,9.738-1.5a3.666,3.666,0,0,0,1.046-.932l.993.773A3.993,3.993,0,0,1,8.191.176Zm-.2-8.525a2.169,2.169,0,0,0-1.652.716,3.482,3.482,0,0,0-.826,2.008h4.764v-.123a3.1,3.1,0,0,0-.668-1.92A2.042,2.042,0,0,0,7.989-8.35Zm7.33-1.16.053,1.2A3.465,3.465,0,0,1,18.22-9.686q3.015,0,3.041,3.4V0H19.635V-6.293a2.189,2.189,0,0,0-.47-1.521,1.884,1.884,0,0,0-1.437-.492,2.347,2.347,0,0,0-1.389.422,2.865,2.865,0,0,0-.932,1.107V0H13.781V-9.51Zm7.963,4.667a5.617,5.617,0,0,1,.549-2.514,4.1,4.1,0,0,1,1.529-1.723A4.163,4.163,0,0,1,27.6-9.686,4.01,4.01,0,0,1,30.74-8.341a5.174,5.174,0,0,1,1.2,3.577v.114a5.666,5.666,0,0,1-.532,2.492A4.038,4.038,0,0,1,29.887-.439a4.211,4.211,0,0,1-2.272.615,4,4,0,0,1-3.133-1.345,5.147,5.147,0,0,1-1.2-3.56Zm1.635.193a4.068,4.068,0,0,0,.734,2.54,2.349,2.349,0,0,0,1.964.958,2.335,2.335,0,0,0,1.969-.971,4.449,4.449,0,0,0,.729-2.72,4.061,4.061,0,0,0-.743-2.536A2.361,2.361,0,0,0,27.6-8.35a2.335,2.335,0,0,0-1.942.958A4.416,4.416,0,0,0,24.917-4.649Z" transform="translate(1198 14217.186)" fill="#12263f"/>
  </g>
</svg>
