<svg xmlns="http://www.w3.org/2000/svg" xmlns:xlink="http://www.w3.org/1999/xlink" width="69.579" height="69.579" viewBox="0 0 69.579 69.579">
  <defs>
    <clipPath id="clip-path">
      <rect id="Rectángulo_348375" data-name="Rectángulo 348375" width="69.579" height="69.579" fill="none"/>
    </clipPath>
  </defs>
  <g id="Grupo_1024417" data-name="Grupo 1024417" transform="translate(12999.577 11763.237)">
    <g id="Grupo_1024401" data-name="Grupo 1024401" transform="translate(-13238.577 -12184.237)">
      <g id="g9150" transform="translate(239 421)">
        <g id="g9152" transform="translate(0 0)">
          <g id="Grupo_1018717" data-name="Grupo 1018717">
            <g id="Grupo_1018716" data-name="Grupo 1018716" clip-path="url(#clip-path)">
              <g id="g9154" transform="translate(4.173 -0.295)">
                <g id="g9160" transform="translate(54.08 18.832)">
                  <path id="path9162" d="M566.437,182.059h-.01l-.41.241v7.1h6.224l.34-.29v-.91a6.162,6.162,0,0,0-6.144-6.144" transform="translate(-566.017 -182.059)" fill="#ffa90f"/>
                </g>
                <g id="g9164" transform="translate(13.395 1.034)">
                  <path id="path9166" d="M205.566,10.988l-.44-.989H174.969a2.279,2.279,0,0,0-2.279,2.279v3.933l.947.776H198.92l8.3,8.068V35.33h5.908l.657-.48V18.658l-1.025-.453Z" transform="translate(-172.69 -9.999)" fill="#62ddfc"/>
                </g>
                <g id="g9168" transform="translate(13.395 1.034)">
                  <path id="path9170" d="M179.758,12.277A2.279,2.279,0,0,1,182.037,10h-7.067a2.278,2.278,0,0,0-2.278,2.279V16.21l.947.776h7.067l-.947-.776Z" transform="translate(-172.691 -9.998)" fill="#00d2fc"/>
                </g>
                <g id="g9172" transform="translate(1.035 18.832)">
                  <path id="path9174" d="M59.358,182.059h-.126a6.046,6.046,0,0,0-6.028,6.028v1.026l.6.165h6.023v-6.831Z" transform="translate(-53.204 -182.059)" fill="#ffa90f"/>
                </g>
                <g id="g9176" transform="translate(45.83 1.034)">
                  <path id="path9178" d="M486.266,10V16.38a2.278,2.278,0,0,0,2.279,2.278h6.381Z" transform="translate(-486.266 -9.999)" fill="#00d2fc"/>
                </g>
                <g id="g9180" transform="translate(7.189 7.246)">
                  <path id="path9182" d="M145.664,71.357l-.531-1.3H114.976a2.279,2.279,0,0,0-2.279,2.279V88.692l.894.894h37.748l2.454-.894v-9.98l-1.279-.6Z" transform="translate(-112.697 -70.052)" fill="#dbedff"/>
                </g>
                <g id="g9184" transform="translate(7.189 7.246)">
                  <path id="path9186" d="M119.764,72.331a2.278,2.278,0,0,1,2.279-2.279h-7.067a2.278,2.278,0,0,0-2.278,2.279V88.692l.894.893h7.067l-.894-.893Z" transform="translate(-112.697 -70.052)" fill="#b5dcff"/>
                </g>
                <g id="g9188" transform="translate(39.625 7.246)">
                  <path id="path9190" d="M426.272,70.052v6.381a2.279,2.279,0,0,0,2.279,2.279h6.381Z" transform="translate(-426.272 -70.052)" fill="#b5dcff"/>
                </g>
                <g id="g9192" transform="translate(45.83 1.034)">
                  <path id="path9194" d="M489.99,16.379V13.722L486.266,10v6.381a2.278,2.278,0,0,0,2.279,2.279h3.724a2.278,2.278,0,0,1-2.279-2.279" transform="translate(-486.266 -9.998)" fill="#00c2fb"/>
                </g>
                <g id="g9196" transform="translate(39.625 7.246)">
                  <path id="path9198" d="M430,76.433V73.776l-3.724-3.724v6.381a2.279,2.279,0,0,0,2.279,2.279h3.724A2.278,2.278,0,0,1,430,76.433" transform="translate(-426.272 -70.052)" fill="#8bcaff"/>
                </g>
                <g id="g9200" transform="translate(1.035 25.886)">
                  <path id="path9202" d="M112.813,250.255H53.205v41.862a1.832,1.832,0,0,0,1.832,1.832h55.945a1.832,1.832,0,0,0,1.832-1.832Z" transform="translate(-53.205 -250.255)" fill="#ffd086"/>
                </g>
                <g id="g9204" transform="translate(1.035 25.886)">
                  <path id="path9206" d="M61.989,292.118V250.256H53.2v41.862a1.832,1.832,0,0,0,1.832,1.832h8.785a1.832,1.832,0,0,1-1.832-1.832" transform="translate(-53.204 -250.256)" fill="#ffc365"/>
                </g>
                <g id="g9208" transform="translate(30.839 44.14)">
                  <path id="path9210" d="M364.462,426.725H342.511a1.172,1.172,0,0,0-1.172,1.172v17.279a1.172,1.172,0,0,0,1.172,1.172h21.951a1.172,1.172,0,0,0,1.172-1.172V427.9a1.173,1.173,0,0,0-1.172-1.172" transform="translate(-341.339 -426.725)" fill="#dbedff"/>
                </g>
                <g id="g9212" transform="translate(30.84 44.14)">
                  <path id="path9214" d="M346.848,445.177V427.9a1.172,1.172,0,0,1,1.172-1.172h-5.508a1.172,1.172,0,0,0-1.172,1.172v17.279a1.172,1.172,0,0,0,1.172,1.172h5.508a1.172,1.172,0,0,1-1.172-1.172" transform="translate(-341.34 -426.726)" fill="#b5dcff"/>
                </g>
                <g id="g9216" transform="translate(0 17.798)">
                  <path id="Trazado_720286" data-name="Trazado 720286" d="M50.385,181.182H44.231a1.034,1.034,0,0,1-1.034-1.034v-1.026a7.07,7.07,0,0,1,7.062-7.062h.126a1.034,1.034,0,0,1,1.034,1.034v7.054A1.034,1.034,0,0,1,50.385,181.182Zm-5.119-2.069h4.085v-4.9A5,5,0,0,0,45.266,179.113Z" transform="translate(-43.197 -172.059)"/>
                </g>
                <g id="g9220" transform="translate(53.455 17.798)">
                  <path id="Trazado_720287" data-name="Trazado 720287" d="M567.164,181.182H561.01a1.034,1.034,0,0,1-1.034-1.034v-7.054a1.034,1.034,0,0,1,1.034-1.034h.009a7.187,7.187,0,0,1,7.179,7.179v.91A1.034,1.034,0,0,1,567.164,181.182Zm-5.119-2.069h4.083a5.119,5.119,0,0,0-4.083-4.882Z" transform="translate(-559.976 -172.059)" fill="#12263f"/>
                </g>
                <g id="g9224" transform="translate(12.36 0)">
                  <path id="Trazado_720288" data-name="Trazado 720288" d="M204.814,26.92h-6.206a1.034,1.034,0,0,1-1.034-1.034V16.333L189.52,8.28h-25.8a1.034,1.034,0,0,1-1.034-1.034V3.312A3.317,3.317,0,0,1,166,0h30.157a1.035,1.035,0,0,1,.731.3l8.659,8.659a1.035,1.035,0,0,1,.3.732V25.885A1.034,1.034,0,0,1,204.814,26.92Zm-5.171-2.069h4.137V10.121l-8.054-8.053H166a1.245,1.245,0,0,0-1.244,1.244v2.9h25.2a1.035,1.035,0,0,1,.731.3l8.659,8.66a1.034,1.034,0,0,1,.3.731Z" transform="translate(-162.684 0.001)"/>
                </g>
                <g id="g9228" transform="translate(6.154 6.212)">
                  <path id="Trazado_720289" data-name="Trazado 720289" d="M144.821,80.761h-41.1a1.034,1.034,0,0,1-1.034-1.034V63.365A3.317,3.317,0,0,1,106,60.052h30.157a1.035,1.035,0,0,1,.731.3l8.659,8.659a1.034,1.034,0,0,1,.3.731v9.98A1.034,1.034,0,0,1,144.821,80.761ZM104.76,78.692h39.026V70.174l-8.054-8.054H106a1.246,1.246,0,0,0-1.244,1.244Z" transform="translate(-102.691 -60.052)"/>
                </g>
                <g id="g9232" transform="translate(38.59 6.212)">
                  <path id="Trazado_720290" data-name="Trazado 720290" d="M425.96,70.78h-6.381a3.317,3.317,0,0,1-3.313-3.313V61.086a1.034,1.034,0,0,1,1.766-.731l8.659,8.659a1.034,1.034,0,0,1-.732,1.766Zm-7.625-7.2v3.884a1.246,1.246,0,0,0,1.244,1.244h3.884Z" transform="translate(-416.266 -60.052)"/>
                </g>
                <g id="g9236" transform="translate(44.795)">
                  <path id="Trazado_720291" data-name="Trazado 720291" d="M485.953,10.727h-6.381a3.317,3.317,0,0,1-3.313-3.313V1.033A1.034,1.034,0,0,1,478.025.3l8.659,8.659a1.034,1.034,0,0,1-.731,1.766Zm-7.625-7.2V7.414a1.245,1.245,0,0,0,1.244,1.244h3.884Z" transform="translate(-476.259 0.001)"/>
                </g>
                <g id="g9240" transform="translate(34.642 58.633)">
                  <path id="Trazado_720292" data-name="Trazado 720292" d="M393.759,568.9h-14.62a1.034,1.034,0,1,1,0-2.069h14.62a1.034,1.034,0,0,1,0,2.069Z" transform="translate(-378.105 -566.833)"/>
                </g>
                <g id="g9244" transform="translate(34.642 54.822)">
                  <path id="Trazado_720293" data-name="Trazado 720293" d="M393.759,532.066h-14.62a1.034,1.034,0,1,1,0-2.069h14.62a1.034,1.034,0,0,1,0,2.069Z" transform="translate(-378.105 -529.997)"/>
                </g>
                <g id="g9248" transform="translate(34.642 51.012)">
                  <path id="Trazado_720294" data-name="Trazado 720294" d="M393.759,495.231h-14.62a1.034,1.034,0,1,1,0-2.069h14.62a1.034,1.034,0,0,1,0,2.069Z" transform="translate(-378.105 -493.162)"/>
                </g>
                <g id="g9252" transform="translate(34.642 47.202)">
                  <path id="Trazado_720295" data-name="Trazado 720295" d="M393.759,458.4h-14.62a1.034,1.034,0,1,1,0-2.069h14.62a1.034,1.034,0,0,1,0,2.069Z" transform="translate(-378.105 -456.327)"/>
                </g>
                <g id="g9256" transform="translate(11.887 20.635)">
                  <path id="Trazado_720296" data-name="Trazado 720296" d="M187.607,201.557H159.152a1.034,1.034,0,1,1,0-2.069h28.455a1.034,1.034,0,1,1,0,2.069Z" transform="translate(-158.118 -199.488)"/>
                </g>
                <g id="g9260" transform="translate(11.887 16.825)">
                  <path id="Trazado_720297" data-name="Trazado 720297" d="M183.1,164.723h-23.95a1.034,1.034,0,0,1,0-2.069H183.1a1.034,1.034,0,0,1,0,2.069Z" transform="translate(-158.118 -162.654)"/>
                </g>
                <g id="g9264" transform="translate(29.804 43.106)">
                  <path id="Trazado_720298" data-name="Trazado 720298" d="M355.49,438.417H333.539a2.209,2.209,0,0,1-2.207-2.207V418.932a2.209,2.209,0,0,1,2.207-2.207H342.1a1.034,1.034,0,1,1,0,2.069h-8.562a.138.138,0,0,0-.138.138V436.21a.138.138,0,0,0,.138.138H355.49a.138.138,0,0,0,.138-.138V418.932a.138.138,0,0,0-.138-.138h-8.562a1.034,1.034,0,1,1,0-2.069h8.562a2.209,2.209,0,0,1,2.207,2.207V436.21A2.209,2.209,0,0,1,355.49,438.417Z" transform="translate(-331.332 -416.725)"/>
                </g>
                <g id="g9268" transform="translate(0 24.852)">
                  <path id="Trazado_720299" data-name="Trazado 720299" d="M102.009,286.018H46.064a2.869,2.869,0,0,1-2.866-2.866V241.29a1.034,1.034,0,0,1,1.034-1.034h59.609a1.034,1.034,0,0,1,1.034,1.034V259.6a1.034,1.034,0,1,1-2.069,0V242.325H45.267v40.827a.8.8,0,0,0,.8.8h55.945a.8.8,0,0,0,.8-.8V264.43a1.034,1.034,0,1,1,2.069,0v18.722A2.869,2.869,0,0,1,102.009,286.018Z" transform="translate(-43.198 -240.256)"/>
                </g>
              </g>
            </g>
          </g>
        </g>
      </g>
    </g>
  </g>
</svg>
