<svg xmlns="http://www.w3.org/2000/svg" width="69.3" height="68.455" viewBox="0 0 69.3 68.455">
  <g id="Grupo_1024418" data-name="Grupo 1024418" transform="translate(13015.228 12015.15)">
    <g id="Grupo_1024397" data-name="Grupo 1024397" transform="translate(-13024.577 -12024.923)">
      <g id="Grupo_1021169" data-name="Grupo 1021169" transform="translate(9.35 9.772)">
        <g id="Grupo_1021167" data-name="Grupo 1021167" transform="translate(1.015 1.015)">
          <path id="Trazado_722026" data-name="Trazado 722026" d="M14.729,355.242l5.424,9.4A6.776,6.776,0,0,1,14.285,374.8h0a6.776,6.776,0,0,1-5.868-10.164l5.424-9.4A.512.512,0,0,1,14.729,355.242Z" transform="translate(46.196 -308.376)" fill="#99e6fc"/>
          <path id="Trazado_722027" data-name="Trazado 722027" d="M7.5,374.6a6.945,6.945,0,0,0,1.692.207,6.776,6.776,0,0,0,5.869-10.163l-5.425-9.4a.513.513,0,0,0-.888,0L7.5,357.405l4.177,7.234A6.783,6.783,0,0,1,7.5,374.6Z" transform="translate(51.289 -308.378)" fill="#62dbfb"/>
          <rect id="Rectángulo_348790" data-name="Rectángulo 348790" width="6.091" height="12.072" transform="translate(31.424 4.665)" fill="#7ca1b1"/>
          <path id="Trazado_722028" data-name="Trazado 722028" d="M19.45,137.988v10.338h45.9a4.924,4.924,0,0,1,4.924,4.924v7.827a1.082,1.082,0,0,0,1.083,1.083h8.172a1.082,1.082,0,0,0,1.083-1.083V153.25A15.261,15.261,0,0,0,65.35,137.988Z" transform="translate(-14.962 -120.748)" fill="#7ca1b1"/>
          <path id="Trazado_722029" data-name="Trazado 722029" d="M34.712,153.25v7.827a1.082,1.082,0,0,1-1.083,1.083h3.384a1.082,1.082,0,0,0,1.083-1.083V153.25a15.261,15.261,0,0,0-15.262-15.262H19.45A15.261,15.261,0,0,1,34.712,153.25Z" transform="translate(27.554 -120.748)" fill="#678d98"/>
          <path id="Trazado_722030" data-name="Trazado 722030" d="M190.449,122.723h8.872a4.165,4.165,0,0,0,4.164-4.164v-11.51a4.165,4.165,0,0,0-4.164-4.164h-8.872a4.165,4.165,0,0,0-4.164,4.164v11.51A4.164,4.164,0,0,0,190.449,122.723Z" transform="translate(-160.417 -90.395)" fill="#bad6e5"/>
          <path id="Trazado_722031" data-name="Trazado 722031" d="M186.285,122.714h3.384a4.165,4.165,0,0,0,4.165-4.165V107.039a4.165,4.165,0,0,0-4.165-4.165h-3.384a4.165,4.165,0,0,1,4.165,4.165V118.55A4.165,4.165,0,0,1,186.285,122.714Z" transform="translate(-150.764 -90.387)" fill="#8abbd5"/>
          <path id="Trazado_722032" data-name="Trazado 722032" d="M382.443,133.353h3.676a2.165,2.165,0,0,0,2.166-2.166V119.626a2.165,2.165,0,0,0-2.166-2.166h-3.676a2.165,2.165,0,0,0-2.166,2.166v11.562A2.165,2.165,0,0,0,382.443,133.353Z" transform="translate(-371.471 -102.998)" fill="#bad6e5"/>
          <path id="Trazado_722033" data-name="Trazado 722033" d="M19.45,284.058v3.319a1.082,1.082,0,0,0,1.083,1.083H28.7a1.082,1.082,0,0,0,1.083-1.083v-3.319Z" transform="translate(35.862 -247.048)" fill="#bad6e5"/>
          <path id="Trazado_722034" data-name="Trazado 722034" d="M19.45,288.459h3.384a1.082,1.082,0,0,0,1.083-1.083v-3.319H20.533v3.319A1.082,1.082,0,0,1,19.45,288.459Z" transform="translate(41.733 -247.048)" fill="#8abbd5"/>
          <path id="Trazado_722035" data-name="Trazado 722035" d="M128,15.177l8.756,1.558a3.047,3.047,0,0,0,3.581-3h0a3.047,3.047,0,0,0-3.581-3L128,12.292Z" transform="translate(-89.375 -10.676)" fill="#7ca1b1"/>
          <path id="Trazado_722036" data-name="Trazado 722036" d="M284.666,12.291l-8.756-1.558a3.047,3.047,0,0,0-3.581,3h0a3.047,3.047,0,0,0,3.581,3l8.756-1.558V12.291Z" transform="translate(-253.242 -10.676)" fill="#7ca1b1"/>
          <path id="Trazado_722037" data-name="Trazado 722037" d="M213.538,16.728h7.015a1.624,1.624,0,0,0,1.624-1.624V12.236a1.624,1.624,0,0,0-1.624-1.624h-7.015a1.624,1.624,0,0,0-1.624,1.624V15.1A1.624,1.624,0,0,0,213.538,16.728Z" transform="translate(-182.577 -10.612)" fill="#bad6e5"/>
          <path id="Trazado_722038" data-name="Trazado 722038" d="M211.914,16.729H215.3a1.625,1.625,0,0,0,1.624-1.624V12.237a1.625,1.625,0,0,0-1.624-1.624h-3.384a1.625,1.625,0,0,1,1.624,1.624v2.868A1.625,1.625,0,0,1,211.914,16.729Z" transform="translate(-177.321 -10.613)" fill="#8abbd5"/>
          <path id="Trazado_722039" data-name="Trazado 722039" d="M421.232,113.091h7.635a1.949,1.949,0,0,0,1.949-1.949V91.626a1.949,1.949,0,0,0-1.949-1.949h-7.635a1.949,1.949,0,0,0-1.949,1.949v19.515A1.949,1.949,0,0,0,421.232,113.091Z" transform="translate(-419.283 -78.976)" fill="#7ca1b1"/>
          <path id="Trazado_722040" data-name="Trazado 722040" d="M419.282,113.094h3.384a1.949,1.949,0,0,0,1.949-1.949V91.629a1.949,1.949,0,0,0-1.949-1.949h-3.384a1.949,1.949,0,0,1,1.949,1.949v19.516A1.95,1.95,0,0,1,419.282,113.094Z" transform="translate(-413.081 -78.978)" fill="#678d98"/>
          <ellipse id="Elipse_8550" data-name="Elipse 8550" cx="13.443" cy="13.443" rx="13.443" ry="13.443" transform="translate(15.894 35.637)" fill="#99e6fc"/>
          <path id="Trazado_722041" data-name="Trazado 722041" d="M188.42,300.7a13.443,13.443,0,1,0,0-26.676,13.445,13.445,0,0,1,0,26.676Z" transform="translate(-160.774 -238.28)" fill="#62dbfb"/>
          <ellipse id="Elipse_8551" data-name="Elipse 8551" cx="2.04" cy="2.04" rx="2.04" ry="2.04" transform="translate(26.725 42.394)" fill="#bbec6c"/>
          <path id="Trazado_722042" data-name="Trazado 722042" d="M237.6,396.564a4.644,4.644,0,0,0,6.251-1.991,2.03,2.03,0,1,0-3.607-1.864.579.579,0,0,1-.78.248,2.03,2.03,0,0,0-1.864,3.607Z" transform="translate(-207.803 -340.043)" fill="#fe646f"/>
        </g>
        <g id="Grupo_1021168" data-name="Grupo 1021168" transform="translate(0 0)">
          <path id="Trazado_722043" data-name="Trazado 722043" d="M97.338,372.509a1.015,1.015,0,0,0,.78-1.664l-3.336-4.009a3.039,3.039,0,0,0-2.341-1.1H84.1a1.015,1.015,0,0,0,0,2.03h8.345a1.014,1.014,0,0,1,.781.367l3.336,4.008A1.013,1.013,0,0,0,97.338,372.509Z" transform="translate(-40.3 -316.658)"/>
          <path id="Trazado_722044" data-name="Trazado 722044" d="M7.785,369.331a7.791,7.791,0,0,0,6.747-11.686l-5.424-9.4h0a1.532,1.532,0,0,0-1.323-.764h0a1.531,1.531,0,0,0-1.322.764l-5.424,9.395a7.791,7.791,0,0,0,6.747,11.686Zm0-19.312,4.989,8.641A5.761,5.761,0,0,1,7.785,367.3,5.761,5.761,0,0,1,2.8,358.66Z" transform="translate(53.711 -300.876)"/>
          <path id="Trazado_722045" data-name="Trazado 722045" d="M220.845,56.7a1.015,1.015,0,0,0,1.015-1.015V49.313a1.015,1.015,0,1,0-2.03,0v6.372A1.015,1.015,0,0,0,220.845,56.7Z" transform="translate(-182.316 -42.182)"/>
          <path id="Trazado_722046" data-name="Trazado 722046" d="M265.845,56.7a1.015,1.015,0,0,0,1.015-1.015V49.313a1.015,1.015,0,0,0-2.03,0v6.372A1.015,1.015,0,0,0,265.845,56.7Z" transform="translate(-233.407 -42.182)"/>
          <path id="Trazado_722047" data-name="Trazado 722047" d="M306.885,132.518h9.056a1.015,1.015,0,1,0,0-2.03h-9.056a1.015,1.015,0,1,0,0,2.03Z" transform="translate(-289.057 -113.248)"/>
          <path id="Trazado_722048" data-name="Trazado 722048" d="M306.885,208.9h9.056a1.015,1.015,0,1,0,0-2.03h-9.056a1.015,1.015,0,1,0,0,2.03Z" transform="translate(-289.057 -179.29)"/>
          <path id="Trazado_722049" data-name="Trazado 722049" d="M26.29,156.69h8.172a2.1,2.1,0,0,0,2.1-2.1v-7.827a16.3,16.3,0,0,0-16.277-16.277H12.965a1.015,1.015,0,1,0,0,2.03h7.318A14.263,14.263,0,0,1,34.53,146.765v7.827a.067.067,0,0,1-.068.068H26.29a.067.067,0,0,1-.068-.068v-7.827a5.946,5.946,0,0,0-5.939-5.939H12.965a1.015,1.015,0,0,0,0,2.03h7.318a3.913,3.913,0,0,1,3.909,3.909v7.827A2.1,2.1,0,0,0,26.29,156.69Z" transform="translate(31.12 -113.248)"/>
          <path id="Trazado_722050" data-name="Trazado 722050" d="M183.96,117.249h8.872a5.186,5.186,0,0,0,5.18-5.18V100.558a5.186,5.186,0,0,0-5.18-5.18H183.96a5.186,5.186,0,0,0-5.18,5.18v2.355a1.015,1.015,0,0,0,2.03,0v-2.355a3.153,3.153,0,0,1,3.149-3.15h8.872a3.153,3.153,0,0,1,3.15,3.15v11.511a3.153,3.153,0,0,1-3.15,3.15H183.96a3.153,3.153,0,0,1-3.149-3.15V107.65a1.015,1.015,0,0,0-2.03,0v4.419A5.186,5.186,0,0,0,183.96,117.249Z" transform="translate(-152.911 -82.89)"/>
          <path id="Trazado_722051" data-name="Trazado 722051" d="M373.8,127.882h3.113a3.184,3.184,0,0,0,3.181-3.181V113.139a3.184,3.184,0,0,0-3.181-3.181H373.8a1.015,1.015,0,0,0,0,2.03h3.113a1.152,1.152,0,0,1,1.15,1.15V124.7a1.152,1.152,0,0,1-1.15,1.15H373.8a1.015,1.015,0,0,0,0,2.03Z" transform="translate(-361.246 -95.497)"/>
          <path id="Trazado_722052" data-name="Trazado 722052" d="M12.962,278.589H23.3a1.015,1.015,0,0,0,0-2.03H12.962a1.015,1.015,0,0,0,0,2.03Z" transform="translate(43.365 -239.549)"/>
          <path id="Trazado_722053" data-name="Trazado 722053" d="M129.838,11.314a4.063,4.063,0,0,0,0-8.126,4.093,4.093,0,0,0-.719.063l-7.784,1.384a1.015,1.015,0,0,0,.355,2L129.48,5.25a2.057,2.057,0,0,1,.362-.032,2.033,2.033,0,1,1-.363,4.034l-7.786-1.386a1.015,1.015,0,0,0-.356,2l7.787,1.386A4.088,4.088,0,0,0,129.838,11.314Z" transform="translate(-80.91 -3.178)"/>
          <path id="Trazado_722054" data-name="Trazado 722054" d="M283.976,11.315a4.072,4.072,0,0,0,.718-.063l6.712-1.195a1.015,1.015,0,0,0-.356-2l-6.713,1.2a2.032,2.032,0,1,1,0-4l6.713,1.194a1.015,1.015,0,0,0,.356-2l-6.713-1.194a4.063,4.063,0,1,0-.717,8.063Z" transform="translate(-260.832 -3.178)"/>
          <path id="Trazado_722055" data-name="Trazado 722055" d="M207.053,11.259h7.015a2.642,2.642,0,0,0,2.639-2.639V5.751a2.642,2.642,0,0,0-2.639-2.639h-7.015a2.642,2.642,0,0,0-2.639,2.639V8.619A2.642,2.642,0,0,0,207.053,11.259Zm7.015-6.116a.61.61,0,0,1,.609.609V8.619a.61.61,0,0,1-.609.609h-7.015a.61.61,0,0,1-.609-.609V5.751a.61.61,0,0,1,.609-.609Z" transform="translate(-175.077 -3.112)"/>
          <path id="Trazado_722056" data-name="Trazado 722056" d="M414.744,107.622h7.636a2.967,2.967,0,0,0,2.964-2.964V85.142a2.967,2.967,0,0,0-2.964-2.964h-7.636a2.967,2.967,0,0,0-2.964,2.964v13.49a1.015,1.015,0,1,0,2.03,0V85.142a.935.935,0,0,1,.934-.934h7.636a.935.935,0,0,1,.934.934v19.516a.935.935,0,0,1-.934.934h-7.636a.935.935,0,0,1-.934-.934v-1.288a1.015,1.015,0,1,0-2.03,0v1.288A2.967,2.967,0,0,0,414.744,107.622Z" transform="translate(-411.78 -71.477)"/>
          <path id="Trazado_722057" data-name="Trazado 722057" d="M41.018,462.1a1.011,1.011,0,0,0,.649-.235l.52-.433a1.015,1.015,0,0,0-1.3-1.56l-.52.433a1.015,1.015,0,0,0,.65,1.795Z" transform="translate(21.331 -397.85)"/>
          <path id="Trazado_722058" data-name="Trazado 722058" d="M41.648,412.644a1.015,1.015,0,0,0,.718-1.733l-.479-.479a1.015,1.015,0,1,0-1.435,1.436l.479.478A1.012,1.012,0,0,0,41.648,412.644Z" transform="translate(21.199 -355.046)"/>
          <path id="Trazado_722059" data-name="Trazado 722059" d="M68.012,447.95h.677a1.015,1.015,0,1,0,0-2.03h-.677a1.015,1.015,0,0,0,0,2.03Z" transform="translate(-9.474 -385.987)"/>
          <path id="Trazado_722060" data-name="Trazado 722060" d="M285.485,303.773a1.015,1.015,0,0,0,1.015-1.015v-2.285a1.015,1.015,0,1,0-2.03,0v2.285A1.015,1.015,0,0,0,285.485,303.773Z" transform="translate(-255.705 -259.349)"/>
          <path id="Trazado_722061" data-name="Trazado 722061" d="M285.485,350.8a1.015,1.015,0,0,0,1.015-1.015V347.5a1.015,1.015,0,1,0-2.03,0v2.283A1.015,1.015,0,0,0,285.485,350.8Z" transform="translate(-255.705 -300.013)"/>
          <path id="Trazado_722062" data-name="Trazado 722062" d="M253.535,333.438h2.283a1.015,1.015,0,0,0,0-2.03h-2.283a1.015,1.015,0,0,0,0,2.03Z" transform="translate(-221.714 -286.974)"/>
          <path id="Trazado_722063" data-name="Trazado 722063" d="M300.565,333.438h2.283a1.015,1.015,0,0,0,0-2.03h-2.283a1.015,1.015,0,0,0,0,2.03Z" transform="translate(-275.109 -286.974)"/>
          <path id="Trazado_722064" data-name="Trazado 722064" d="M262.894,312.463a1.012,1.012,0,0,0,.718-.3l1.615-1.615a1.015,1.015,0,1,0-1.436-1.435l-1.615,1.615a1.015,1.015,0,0,0,.718,1.733Z" transform="translate(-231.671 -267.442)"/>
          <path id="Trazado_722065" data-name="Trazado 722065" d="M296.144,345.713a1.012,1.012,0,0,0,.718-.3l1.615-1.615a1.015,1.015,0,0,0-1.436-1.435l-1.615,1.615a1.015,1.015,0,0,0,.718,1.733Z" transform="translate(-269.422 -296.191)"/>
          <path id="Trazado_722066" data-name="Trazado 722066" d="M264.509,345.713a1.015,1.015,0,0,0,.718-1.733l-1.615-1.615a1.015,1.015,0,0,0-1.436,1.435l1.615,1.615A1.012,1.012,0,0,0,264.509,345.713Z" transform="translate(-231.671 -296.191)"/>
          <path id="Trazado_722067" data-name="Trazado 722067" d="M297.759,312.463a1.015,1.015,0,0,0,.718-1.733l-1.615-1.615a1.015,1.015,0,1,0-1.436,1.435l1.615,1.615A1.012,1.012,0,0,0,297.759,312.463Z" transform="translate(-269.422 -267.442)"/>
          <path id="Trazado_722068" data-name="Trazado 722068" d="M272.45,322.445a3.056,3.056,0,1,0-3.056-3.056A3.059,3.059,0,0,0,272.45,322.445Zm0-4.081a1.025,1.025,0,1,1-1.025,1.025A1.027,1.027,0,0,1,272.45,318.364Z" transform="translate(-242.669 -273.94)"/>
          <path id="Trazado_722069" data-name="Trazado 722069" d="M195.377,295.334a14.459,14.459,0,1,0-14.459-14.459A14.475,14.475,0,0,0,195.377,295.334Zm0-26.887a12.428,12.428,0,1,1-12.428,12.428A12.442,12.442,0,0,1,195.377,268.447Z" transform="translate(-165.024 -230.78)"/>
          <path id="Trazado_722070" data-name="Trazado 722070" d="M233.226,391.6a5.661,5.661,0,0,0,5.032-3.057,3.046,3.046,0,0,0-5.2-3.148,3.046,3.046,0,0,0-2.42,5.574A5.619,5.619,0,0,0,233.226,391.6Zm2.328-5.471a1.016,1.016,0,0,1,.9,1.482,3.628,3.628,0,0,1-4.883,1.555h0a1.015,1.015,0,0,1,.932-1.8,1.594,1.594,0,0,0,2.147-.684,1.018,1.018,0,0,1,.9-.549Z" transform="translate(-200.295 -332.536)"/>
          <path id="Trazado_722071" data-name="Trazado 722071" d="M226.776,347.693a1.015,1.015,0,0,0,1.015-1.015V346a1.015,1.015,0,1,0-2.03,0v.677A1.015,1.015,0,0,0,226.776,347.693Z" transform="translate(-189.05 -298.714)"/>
          <path id="Trazado_722072" data-name="Trazado 722072" d="M344.974,350.4a1.015,1.015,0,0,0,.9-1.483l-.312-.6a1.015,1.015,0,1,0-1.8.936l.312.6A1.015,1.015,0,0,0,344.974,350.4Z" transform="translate(-323.202 -301.118)"/>
          <path id="Trazado_722073" data-name="Trazado 722073" d="M324.171,405.064a1.012,1.012,0,0,0,.718-.3l.478-.478a1.015,1.015,0,0,0-1.436-1.436l-.478.478a1.015,1.015,0,0,0,.718,1.733Z" transform="translate(-300.106 -348.492)"/>
        </g>
      </g>
    </g>
  </g>
</svg>
