<svg xmlns="http://www.w3.org/2000/svg" xmlns:xlink="http://www.w3.org/1999/xlink" width="88" height="88" viewBox="0 0 88 88">
  <defs>
    <clipPath id="clip-path">
      <rect id="Rectángulo_348375" data-name="Rectángulo 348375" width="59" height="59" transform="translate(0.25 0.25)" fill="none"/>
    </clipPath>
  </defs>
  <g id="Grupo_1013412" data-name="Grupo 1013412" transform="translate(-224 -409)">
    <path id="Trazado_710239" data-name="Trazado 710239" d="M44,0A44,44,0,1,1,0,44,44,44,0,0,1,44,0Z" transform="translate(224 409)" fill="#d2e1f1"/>
    <g id="g9150" transform="translate(238.75 420.75)">
      <g id="g9152" transform="translate(0 0)">
        <g id="Grupo_1018717" data-name="Grupo 1018717" transform="translate(0 0)">
          <g id="Grupo_1018716" data-name="Grupo 1018716" clip-path="url(#clip-path)">
            <g id="g9154" transform="translate(3.789 0)">
              <g id="g9160" transform="translate(45.857 15.969)">
                <path id="path9162" d="M566.373,182.059h-.008l-.348.2v6.023h5.277l.289-.246v-.771a5.225,5.225,0,0,0-5.21-5.21" transform="translate(-566.017 -182.059)" fill="#ffa90f"/>
              </g>
              <g id="g9164" transform="translate(11.358 0.877)">
                <path id="path9166" d="M200.567,10.837,200.194,10H174.622a1.932,1.932,0,0,0-1.932,1.932v3.335l.8.658h21.439l7.038,6.841v8.713h5.009l.557-.407V17.342l-.869-.384Z" transform="translate(-172.69 -9.999)" fill="#62ddfc"/>
              </g>
              <g id="g9168" transform="translate(11.358 0.877)">
                <path id="path9170" d="M178.684,11.93A1.932,1.932,0,0,1,180.616,10h-5.993a1.932,1.932,0,0,0-1.932,1.932v3.335l.8.658h5.993l-.8-.658Z" transform="translate(-172.691 -9.998)" fill="#00d2fc"/>
              </g>
              <g id="g9172" transform="translate(0.878 15.969)">
                <path id="path9174" d="M58.422,182.059h-.107A5.126,5.126,0,0,0,53.2,187.17v.87l.5.14h5.107v-5.792Z" transform="translate(-53.204 -182.059)" fill="#ffa90f"/>
              </g>
              <g id="g9176" transform="translate(38.862 0.877)">
                <path id="path9178" d="M486.266,10V15.41a1.932,1.932,0,0,0,1.932,1.932h5.411Z" transform="translate(-486.266 -9.999)" fill="#00d2fc"/>
              </g>
              <g id="g9180" transform="translate(6.096 6.144)">
                <path id="path9182" d="M140.651,71.159l-.45-1.107H114.629a1.932,1.932,0,0,0-1.932,1.932V85.858l.758.758h32.008l2.081-.758V77.395l-1.084-.506Z" transform="translate(-112.697 -70.052)" fill="#dbedff"/>
              </g>
              <g id="g9184" transform="translate(6.096 6.144)">
                <path id="path9186" d="M118.69,71.984a1.932,1.932,0,0,1,1.932-1.932h-5.993a1.932,1.932,0,0,0-1.932,1.932V85.858l.758.758h5.993l-.758-.758Z" transform="translate(-112.697 -70.052)" fill="#b5dcff"/>
              </g>
              <g id="g9188" transform="translate(33.6 6.144)">
                <path id="path9190" d="M426.272,70.052v5.411a1.932,1.932,0,0,0,1.932,1.932h5.411Z" transform="translate(-426.272 -70.052)" fill="#b5dcff"/>
              </g>
              <g id="g9192" transform="translate(38.862 0.877)">
                <path id="path9194" d="M489.424,15.409V13.156L486.266,10v5.411a1.932,1.932,0,0,0,1.932,1.932h3.158a1.932,1.932,0,0,1-1.932-1.932" transform="translate(-486.266 -9.998)" fill="#00c2fb"/>
              </g>
              <g id="g9196" transform="translate(33.6 6.144)">
                <path id="path9198" d="M429.43,75.463V73.21l-3.158-3.158v5.411a1.932,1.932,0,0,0,1.932,1.932h3.158a1.932,1.932,0,0,1-1.932-1.932" transform="translate(-426.272 -70.052)" fill="#8bcaff"/>
              </g>
              <g id="g9200" transform="translate(0.878 21.95)">
                <path id="path9202" d="M103.75,250.255H53.205v35.5a1.553,1.553,0,0,0,1.553,1.553H102.2a1.553,1.553,0,0,0,1.553-1.553Z" transform="translate(-53.205 -250.255)" fill="#ffd086"/>
              </g>
              <g id="g9204" transform="translate(0.878 21.95)">
                <path id="path9206" d="M60.654,285.753v-35.5H53.2v35.5a1.553,1.553,0,0,0,1.553,1.553h7.45a1.553,1.553,0,0,1-1.553-1.553" transform="translate(-53.204 -250.256)" fill="#ffc365"/>
              </g>
              <g id="g9208" transform="translate(26.15 37.429)">
                <path id="path9210" d="M360.947,426.725H342.333a.994.994,0,0,0-.994.994v14.651a.994.994,0,0,0,.994.994h18.613a.994.994,0,0,0,.994-.994V427.719a.994.994,0,0,0-.994-.994" transform="translate(-341.339 -426.725)" fill="#dbedff"/>
              </g>
              <g id="g9212" transform="translate(26.151 37.429)">
                <path id="path9214" d="M346.011,442.371V427.72a.994.994,0,0,1,.994-.994h-4.671a.994.994,0,0,0-.994.994v14.651a.994.994,0,0,0,.994.994h4.671a.994.994,0,0,1-.994-.994" transform="translate(-341.34 -426.726)" fill="#b5dcff"/>
              </g>
              <g id="g9216" transform="translate(0 15.092)">
                <path id="Trazado_720286" data-name="Trazado 720286" d="M49.292,179.795H44.074a.877.877,0,0,1-.877-.877v-.87a6,6,0,0,1,5.988-5.988h.107a.877.877,0,0,1,.877.877v5.982A.877.877,0,0,1,49.292,179.795Zm-4.341-1.754h3.464v-4.157A4.241,4.241,0,0,0,44.951,178.041Z" transform="translate(-43.197 -172.059)" fill="#12263f"/>
              </g>
              <g id="g9220" transform="translate(45.327 15.092)">
                <path id="Trazado_720287" data-name="Trazado 720287" d="M566.071,179.795h-5.218a.877.877,0,0,1-.877-.877v-5.982a.877.877,0,0,1,.877-.877h.008a6.094,6.094,0,0,1,6.087,6.087v.771A.877.877,0,0,1,566.071,179.795Zm-4.341-1.754h3.463a4.341,4.341,0,0,0-3.463-4.14Z" transform="translate(-559.976 -172.059)" fill="#12263f"/>
              </g>
              <g id="g9224" transform="translate(10.48 0)">
                <path id="Trazado_720288" data-name="Trazado 720288" d="M198.408,22.826h-5.262a.877.877,0,0,1-.877-.877v-8.1L185.44,7.021H163.561a.877.877,0,0,1-.877-.877V2.808A2.812,2.812,0,0,1,165.493,0h25.572a.877.877,0,0,1,.62.257L199.028,7.6a.877.877,0,0,1,.257.62v13.73A.877.877,0,0,1,198.408,22.826Zm-4.385-1.754h3.508V8.582L190.7,1.753H165.493a1.056,1.056,0,0,0-1.055,1.055V5.266H185.8a.877.877,0,0,1,.62.257l7.343,7.343a.877.877,0,0,1,.257.62Z" transform="translate(-162.684 0.001)" fill="#12263f"/>
              </g>
              <g id="g9228" transform="translate(5.218 5.267)">
                <path id="Trazado_720289" data-name="Trazado 720289" d="M138.415,77.612H103.568a.877.877,0,0,1-.877-.877V62.861a2.812,2.812,0,0,1,2.809-2.809h25.572a.877.877,0,0,1,.62.257l7.343,7.343a.877.877,0,0,1,.257.62v8.463A.877.877,0,0,1,138.415,77.612Zm-33.97-1.754h33.093V68.635l-6.829-6.829H105.5a1.056,1.056,0,0,0-1.055,1.055Z" transform="translate(-102.691 -60.052)" fill="#12263f"/>
              </g>
              <g id="g9232" transform="translate(32.722 5.267)">
                <path id="Trazado_720290" data-name="Trazado 720290" d="M424.486,69.149h-5.411a2.812,2.812,0,0,1-2.809-2.809V60.929a.877.877,0,0,1,1.5-.62l7.343,7.343a.877.877,0,0,1-.62,1.5Zm-6.466-6.1V66.34a1.056,1.056,0,0,0,1.055,1.055h3.293Z" transform="translate(-416.266 -60.052)" fill="#12263f"/>
              </g>
              <g id="g9236" transform="translate(37.984)">
                <path id="Trazado_720291" data-name="Trazado 720291" d="M484.479,9.1h-5.411a2.812,2.812,0,0,1-2.809-2.809V.876a.877.877,0,0,1,1.5-.62L485.1,7.6a.877.877,0,0,1-.62,1.5Zm-6.466-6.1V6.287a1.056,1.056,0,0,0,1.055,1.055h3.293Z" transform="translate(-476.259 0.001)" fill="#12263f"/>
              </g>
              <g id="g9240" transform="translate(29.375 49.718)">
                <path id="Trazado_720292" data-name="Trazado 720292" d="M391.379,568.587h-12.4a.877.877,0,1,1,0-1.754h12.4a.877.877,0,0,1,0,1.754Z" transform="translate(-378.105 -566.833)" fill="#12263f"/>
              </g>
              <g id="g9244" transform="translate(29.375 46.487)">
                <path id="Trazado_720293" data-name="Trazado 720293" d="M391.379,531.751h-12.4a.877.877,0,1,1,0-1.754h12.4a.877.877,0,0,1,0,1.754Z" transform="translate(-378.105 -529.997)" fill="#12263f"/>
              </g>
              <g id="g9248" transform="translate(29.375 43.256)">
                <path id="Trazado_720294" data-name="Trazado 720294" d="M391.379,494.916h-12.4a.877.877,0,1,1,0-1.754h12.4a.877.877,0,0,1,0,1.754Z" transform="translate(-378.105 -493.162)" fill="#12263f"/>
              </g>
              <g id="g9252" transform="translate(29.375 40.025)">
                <path id="Trazado_720295" data-name="Trazado 720295" d="M391.379,458.081h-12.4a.877.877,0,1,1,0-1.754h12.4a.877.877,0,0,1,0,1.754Z" transform="translate(-378.105 -456.327)" fill="#12263f"/>
              </g>
              <g id="g9256" transform="translate(10.08 17.497)">
                <path id="Trazado_720296" data-name="Trazado 720296" d="M183.124,201.242H159a.877.877,0,1,1,0-1.754h24.129a.877.877,0,1,1,0,1.754Z" transform="translate(-158.118 -199.488)" fill="#12263f"/>
              </g>
              <g id="g9260" transform="translate(10.08 14.267)">
                <path id="Trazado_720297" data-name="Trazado 720297" d="M179.3,164.408H159a.877.877,0,0,1,0-1.754H179.3a.877.877,0,0,1,0,1.754Z" transform="translate(-158.118 -162.654)" fill="#12263f"/>
              </g>
              <g id="g9264" transform="translate(25.273 36.552)">
                <path id="Trazado_720298" data-name="Trazado 720298" d="M351.817,435.119H333.2a1.873,1.873,0,0,1-1.871-1.871V418.6a1.873,1.873,0,0,1,1.871-1.871h7.26a.877.877,0,1,1,0,1.754H333.2a.117.117,0,0,0-.117.117v14.651a.117.117,0,0,0,.117.117h18.614a.117.117,0,0,0,.117-.117V418.6a.117.117,0,0,0-.117-.117h-7.26a.877.877,0,1,1,0-1.754h7.26a1.873,1.873,0,0,1,1.871,1.871v14.651A1.873,1.873,0,0,1,351.817,435.119Z" transform="translate(-331.332 -416.725)" fill="#12263f"/>
              </g>
              <g id="g9268" transform="translate(0 21.073)">
                <path id="Trazado_720299" data-name="Trazado 720299" d="M93.067,279.06H45.628a2.433,2.433,0,0,1-2.43-2.43v-35.5a.877.877,0,0,1,.877-.877H94.621a.877.877,0,0,1,.877.877v15.528a.877.877,0,0,1-1.754,0V242.01H44.952v34.62a.677.677,0,0,0,.676.676H93.067a.677.677,0,0,0,.676-.676V260.754a.877.877,0,1,1,1.754,0V276.63A2.433,2.433,0,0,1,93.067,279.06Z" transform="translate(-43.198 -240.256)" fill="#12263f"/>
              </g>
            </g>
          </g>
        </g>
      </g>
    </g>
  </g>
</svg>
