<svg xmlns="http://www.w3.org/2000/svg" width="72.329" height="66.618" viewBox="0 0 72.329 66.618">
  <g id="Grupo_1024420" data-name="Grupo 1024420" transform="translate(13356.461 11764.792)">
    <g id="Grupo_1024399" data-name="Grupo 1024399" transform="translate(-13591.461 -12186.73)">
      <g id="Grupo_1019786" data-name="Grupo 1019786" transform="translate(235 421.938)">
        <g id="Grupo_1019770" data-name="Grupo 1019770" transform="translate(1.063 30.08)">
          <path id="Trazado_721046" data-name="Trazado 721046" d="M23.939,238.17v-3.806a1.221,1.221,0,0,0-1.221-1.221h-4.3a1.221,1.221,0,0,0-1.221,1.221v3.806a7.516,7.516,0,0,1-3.56,6.352,13.045,13.045,0,1,0,13.87,0A7.527,7.527,0,0,1,23.939,238.17Z" transform="translate(-7.522 -233.143)" fill="#b3d8fb"/>
        </g>
        <g id="Grupo_1019771" data-name="Grupo 1019771" transform="translate(11.712 30.08)">
          <path id="Trazado_721047" data-name="Trazado 721047" d="M92.243,244.526a7.526,7.526,0,0,1-3.567-6.356v-3.806a1.221,1.221,0,0,0-1.221-1.221h-4.3a1.218,1.218,0,0,0-.245.025,1.221,1.221,0,0,1,.976,1.2v3.806a7.526,7.526,0,0,0,3.567,6.356A13.046,13.046,0,0,1,82.916,268.4a13.045,13.045,0,0,0,9.327-23.871Z" transform="translate(-82.909 -233.143)" fill="#89c6fc"/>
        </g>
        <g id="Grupo_1019772" data-name="Grupo 1019772" transform="translate(1.416 55.507)">
          <path id="Trazado_721048" data-name="Trazado 721048" d="M10.022,413.133a13.044,13.044,0,0,0,25.391,0Z" transform="translate(-10.022 -413.133)" fill="#ffa031"/>
        </g>
        <g id="Grupo_1019773" data-name="Grupo 1019773" transform="translate(11.722 55.507)">
          <path id="Trazado_721049" data-name="Trazado 721049" d="M93.274,413.133A13.061,13.061,0,0,1,82.98,422.96a13.035,13.035,0,0,0,15.085-9.827Z" transform="translate(-82.98 -413.133)" fill="#e6b700"/>
        </g>
        <g id="Grupo_1019774" data-name="Grupo 1019774" transform="translate(16.601 1.063)">
          <path id="Trazado_721050" data-name="Trazado 721050" d="M156.415,79.79,145.407,51.553a12.07,12.07,0,0,1-.824-4.384V28.956a1.221,1.221,0,0,0-1.221-1.221H131.2a1.221,1.221,0,0,0-1.221,1.221V47.169a12.07,12.07,0,0,1-.824,4.384L118.149,79.79a9.124,9.124,0,0,0,8.5,12.438h21.263A9.124,9.124,0,0,0,156.415,79.79Z" transform="translate(-117.517 -27.735)" fill="#b3d8fb"/>
        </g>
        <g id="Grupo_1019775" data-name="Grupo 1019775" transform="translate(35.675 1.063)">
          <path id="Trazado_721051" data-name="Trazado 721051" d="M272.357,79.79,261.35,51.553a12.07,12.07,0,0,1-.824-4.384V28.956a1.221,1.221,0,0,0-1.221-1.221h-6.771a1.221,1.221,0,0,1,1.221,1.221V47.169a12.07,12.07,0,0,0,.824,4.384L265.586,79.79a9.124,9.124,0,0,1-8.5,12.438h6.771A9.124,9.124,0,0,0,272.357,79.79Z" transform="translate(-252.533 -27.735)" fill="#89c6fc"/>
        </g>
        <g id="Grupo_1019776" data-name="Grupo 1019776" transform="translate(61.22 17.827)">
          <path id="Trazado_721052" data-name="Trazado 721052" d="M438.8,188.366h-4.065a1.372,1.372,0,0,1-1.372-1.372v-39.74a.848.848,0,0,1,.848-.848h5.114a.848.848,0,0,1,.848.848v39.74a1.372,1.372,0,0,1-1.372,1.372Z" transform="translate(-433.364 -146.407)" fill="#b3d8fb"/>
        </g>
        <g id="Grupo_1019777" data-name="Grupo 1019777" transform="translate(61.22 17.827)">
          <path id="Trazado_721053" data-name="Trazado 721053" d="M439.323,146.407h-2.343V183.8a1.376,1.376,0,0,1-1.376,1.376h-2.24v1.817a1.376,1.376,0,0,0,1.376,1.376H438.8a1.376,1.376,0,0,0,1.376-1.376V147.257a.85.85,0,0,0-.85-.85Z" transform="translate(-433.364 -146.407)" fill="#89c6fc"/>
        </g>
        <g id="Grupo_1019778" data-name="Grupo 1019778" transform="translate(57.982 52.066)">
          <path id="Trazado_721054" data-name="Trazado 721054" d="M417.084,388.776l-6.431,11.138a1.568,1.568,0,0,0,1.358,2.351h10.146a1.568,1.568,0,0,0,1.358-2.351Z" transform="translate(-410.441 -388.776)" fill="#b3d8fb"/>
        </g>
        <g id="Grupo_1019779" data-name="Grupo 1019779" transform="translate(62.923 52.066)">
          <path id="Trazado_721055" data-name="Trazado 721055" d="M453.543,399.907l-6.427-11.131-1.7,2.949,4.724,8.182a1.572,1.572,0,0,1-1.362,2.358h3.4a1.572,1.572,0,0,0,1.362-2.358Z" transform="translate(-445.414 -388.776)" fill="#89c6fc"/>
        </g>
        <g id="Grupo_1019780" data-name="Grupo 1019780" transform="translate(61.22 42.498)">
          <path id="Trazado_721056" data-name="Trazado 721056" d="M433.364,321.044v15.912a1.376,1.376,0,0,0,1.376,1.376H438.8a1.376,1.376,0,0,0,1.376-1.376V321.044Z" transform="translate(-433.364 -321.044)" fill="#27a2fb"/>
        </g>
        <g id="Grupo_1019781" data-name="Grupo 1019781" transform="translate(16.601 47.818)">
          <path id="Trazado_721057" data-name="Trazado 721057" d="M118.149,364a9.124,9.124,0,0,0,8.5,12.438h21.263a9.124,9.124,0,0,0,8.5-12.438l-2.066-5.3H120.215Z" transform="translate(-117.517 -358.704)" fill="#ae66d8"/>
        </g>
        <g id="Grupo_1019782" data-name="Grupo 1019782" transform="translate(16.601 47.818)">
          <path id="Trazado_721058" data-name="Trazado 721058" d="M118.149,364a9.124,9.124,0,0,0,8.5,12.438h21.263a9.124,9.124,0,0,0,8.5-12.438l-2.066-5.3H120.215Z" transform="translate(-117.517 -358.704)" fill="#4db1f0"/>
        </g>
        <g id="Grupo_1019783" data-name="Grupo 1019783" transform="translate(61.22 42.498)">
          <path id="Trazado_721059" data-name="Trazado 721059" d="M436.981,321.043v12.719a1.376,1.376,0,0,1-1.376,1.376h-2.24v1.817a1.376,1.376,0,0,0,1.376,1.376H438.8a1.376,1.376,0,0,0,1.376-1.376V321.043h-3.193Z" transform="translate(-433.364 -321.043)" fill="#0a81f9"/>
        </g>
        <g id="Grupo_1019784" data-name="Grupo 1019784" transform="translate(25.734 47.818)">
          <path id="Trazado_721060" data-name="Trazado 721060" d="M211.929,364l-2.066-5.3h-6.771l2.066,5.3a9.124,9.124,0,0,1-8.5,12.438h6.771A9.124,9.124,0,0,0,211.929,364Z" transform="translate(-182.164 -358.704)" fill="#006cb1"/>
        </g>
        <g id="Grupo_1019785" data-name="Grupo 1019785" transform="translate(0)">
          <path id="Trazado_721061" data-name="Trazado 721061" d="M417.98,184.786,415.1,179.8V162.3a1.063,1.063,0,1,0-2.125,0v1.252h-4.684V141.01h4.684v16.141a1.063,1.063,0,1,0,2.125,0V140.8a1.915,1.915,0,0,0-1.913-1.913h-5.109a1.915,1.915,0,0,0-1.913,1.913v39l-2.879,4.987a2.635,2.635,0,0,0,2.282,3.953H415.7a2.635,2.635,0,0,0,2.282-3.953Zm-5-19.105v14.85a.314.314,0,0,1-.313.313H408.6a.314.314,0,0,1-.314-.313v-14.85Zm3.164,20.678a.5.5,0,0,1-.441.255h-10.13a.51.51,0,0,1-.441-.765l1.967-3.407a2.425,2.425,0,0,0,1.51.528h4.057a2.424,2.424,0,0,0,1.51-.528l1.967,3.407a.5.5,0,0,1,0,.51Z" transform="translate(-346.008 -122.12)"/>
          <path id="Trazado_721062" data-name="Trazado 721062" d="M56.489,72.944,45.482,44.707a10.962,10.962,0,0,1-.752-4V22.5a2.286,2.286,0,0,0-2.284-2.284H30.286A2.286,2.286,0,0,0,28,22.5v5.612a1.063,1.063,0,0,0,2.125,0V22.5a.158.158,0,0,1,.158-.158h12.16a.158.158,0,0,1,.158.158V40.709a13.078,13.078,0,0,0,.9,4.77l8.377,21.489H36.238a1.063,1.063,0,1,0,0,2.125H52.707l1.8,4.623A8.062,8.062,0,0,1,47,84.706H25.735a8.062,8.062,0,0,1-7.511-10.99l1.8-4.623h9.581v9.212a1.063,1.063,0,1,0,2.125,0V73.112h4.951a1.063,1.063,0,1,0,0-2.125H31.732v-5.5H34a1.063,1.063,0,0,0,0-2.125H31.732V57.769h4.951a1.063,1.063,0,0,0,0-2.125H31.732V52.961a1.063,1.063,0,1,0-2.125,0V66.969H20.854L29.231,45.48a13.078,13.078,0,0,0,.9-4.77V33.042a1.063,1.063,0,1,0-2.125,0V40.71a10.962,10.962,0,0,1-.752,4l-6.13,15.726a6.408,6.408,0,0,1-2.579-5.113V51.515a2.286,2.286,0,0,0-2.284-2.284h-4.3a2.286,2.286,0,0,0-2.284,2.284v3.806a6.43,6.43,0,0,1-3.063,5.452,14.107,14.107,0,0,0,7.156,26.054q.167,0,.335,0a14.137,14.137,0,0,0,6.324-1.492,10.181,10.181,0,0,0,5.309,1.492H47a10.187,10.187,0,0,0,9.491-13.887ZM7.742,62.572A8.544,8.544,0,0,0,11.8,55.32V51.514a.158.158,0,0,1,.158-.158h4.3a.158.158,0,0,1,.158.158V55.32a8.547,8.547,0,0,0,3.908,7.155l-4.081,10.47a10.2,10.2,0,0,0-.5,1.713H2.286A11.956,11.956,0,0,1,7.742,62.572ZM13.817,84.7a12,12,0,0,1-10.979-7.92h12.71a10.186,10.186,0,0,0,2.992,7.074A12.005,12.005,0,0,1,13.817,84.7Z" transform="translate(0 -20.213)"/>
        </g>
      </g>
    </g>
  </g>
</svg>
