<svg xmlns="http://www.w3.org/2000/svg" xmlns:xlink="http://www.w3.org/1999/xlink" width="484.719" height="359.421" viewBox="0 0 484.719 359.421">
  <defs>
    <clipPath id="clip-path">
      <rect id="Rect치ngulo_348418" data-name="Rect치ngulo 348418" width="475.861" height="355.4" transform="translate(8.858 -3.145)" fill="none"/>
    </clipPath>
  </defs>
  <g id="Grupo_1019652" data-name="Grupo 1019652" transform="translate(0 3.145)">
    <g id="Grupo_1019502" data-name="Grupo 1019502">
      <g id="Grupo_1019488" data-name="Grupo 1019488">
        <path id="Trazado_720695" data-name="Trazado 720695" d="M128.131,90.729a3.732,3.732,0,0,1,.189.583c.117.42.277.992.482,1.725a25.018,25.018,0,0,0,.866,2.775,38.244,38.244,0,0,0,1.422,3.7l.948,2.162q.576,1.1,1.207,2.308a27.159,27.159,0,0,0,1.418,2.456c.53.829,1.015,1.732,1.66,2.575a55.455,55.455,0,0,0,24.284,19.838,52.35,52.35,0,0,0,9.229,2.9,95.266,95.266,0,0,0,10.2,1.4c6.995.691,14.586,1.064,21.847,3.99,7.25,2.907,13.575,8.187,19.043,14.25,5.443,6.1,10.229,12.677,13.118,19.906a37.074,37.074,0,0,1,2.629,11.087,43.183,43.183,0,0,1-.694,10.9c-1.3,7.009-3.722,13.338-5.783,19.268a91.477,91.477,0,0,0-4.594,16.805,34.972,34.972,0,0,0,.533,14.235,26.442,26.442,0,0,0,4.654,9.7,19.386,19.386,0,0,0,5.01,4.622c1.321.844,2.091,1.166,2.067,1.213a13.574,13.574,0,0,1-2.144-1.09,18.87,18.87,0,0,1-5.154-4.571,26.487,26.487,0,0,1-4.823-9.766,35.212,35.212,0,0,1-.648-14.412,90.973,90.973,0,0,1,4.534-16.929c2.04-5.946,4.423-12.257,5.694-19.19a42.691,42.691,0,0,0,.661-10.729,36.474,36.474,0,0,0-2.6-10.876c-2.85-7.109-7.591-13.632-13-19.685-5.424-6.015-11.665-11.219-18.772-14.078-7.11-2.88-14.635-3.276-21.646-3.983a95.153,95.153,0,0,1-10.265-1.445,52.77,52.77,0,0,1-9.331-2.971,55.521,55.521,0,0,1-24.386-20.163c-.641-.854-1.122-1.769-1.646-2.609a26.841,26.841,0,0,1-1.4-2.488l-1.186-2.335q-.486-1.149-.924-2.188a36.624,36.624,0,0,1-1.367-3.742,23.2,23.2,0,0,1-.8-2.805c-.175-.741-.312-1.32-.413-1.746A3.86,3.86,0,0,1,128.131,90.729Z" fill="#e0e0e0"/>
      </g>
      <g id="Grupo_1019489" data-name="Grupo 1019489">
        <path id="Trazado_720696" data-name="Trazado 720696" d="M171.711,68.02s.167.134.47.42l1.332,1.286c.572.579,1.227,1.345,2.028,2.226.728.942,1.638,1.978,2.491,3.271a47.142,47.142,0,0,1,5.3,9.933,47.864,47.864,0,0,1,3.222,14.552,49.064,49.064,0,0,1-.311,8.7,63.231,63.231,0,0,1-2.014,9.206c-1.788,6.26-4.4,12.708-6.186,19.756a50.031,50.031,0,0,0-1.549,11,47.643,47.643,0,0,0,1.165,11.514,53.768,53.768,0,0,0,10.591,21.766,60.823,60.823,0,0,0,18.8,15.36,73.964,73.964,0,0,0,21.441,7.461c7.153,1.312,14.1,1.674,20.535,2.652,6.429.939,12.388,2.555,17.283,5.225a38.785,38.785,0,0,1,11.427,9.545,37.9,37.9,0,0,1,7.9,16.446l.3,1.828c.062.412.075.625.075.625s-.062-.206-.147-.614c-.089-.438-.211-1.038-.366-1.808a42.479,42.479,0,0,0-2.212-6.724,39.905,39.905,0,0,0-5.86-9.5,38.6,38.6,0,0,0-11.357-9.352,51.765,51.765,0,0,0-17.129-5.082c-6.4-.948-13.35-1.287-20.567-2.591a74.33,74.33,0,0,1-21.655-7.491A61.352,61.352,0,0,1,187.689,182.1a54.332,54.332,0,0,1-10.718-22.063,48.212,48.212,0,0,1-1.165-11.685,50.613,50.613,0,0,1,1.593-11.143c1.818-7.107,4.456-13.546,6.256-19.762a63.07,63.07,0,0,0,2.038-9.114,48.862,48.862,0,0,0,.353-8.592A48.441,48.441,0,0,0,177.8,75.383c-.83-1.3-1.718-2.342-2.425-3.294-.78-.891-1.416-1.67-1.969-2.263-.544-.567-.967-1.01-1.278-1.333C171.844,68.19,171.711,68.02,171.711,68.02Z" fill="#e0e0e0"/>
      </g>
      <g id="Grupo_1019490" data-name="Grupo 1019490">
        <path id="Trazado_720697" data-name="Trazado 720697" d="M278.23,221.6a13.6,13.6,0,0,1-1.684,1.528c-1.11.952-2.757,2.282-4.826,3.882a198.07,198.07,0,0,1-34.748,21.421c-2.359,1.129-4.287,2-5.637,2.567a13.546,13.546,0,0,1-2.121.818,13.867,13.867,0,0,1,2-1.073l5.527-2.769c4.651-2.368,11-5.8,17.777-9.971s12.687-8.309,16.891-11.4l4.958-3.694A13.666,13.666,0,0,1,278.23,221.6Z" fill="#e0e0e0"/>
      </g>
      <g id="Grupo_1019491" data-name="Grupo 1019491">
        <path id="Trazado_720698" data-name="Trazado 720698" d="M266.715,212.629a10.153,10.153,0,0,1-1.684,1l-4.68,2.535c-3.946,2.147-9.354,5.191-15.192,8.778s-10.995,7.043-14.692,9.6l-4.375,3.032a10.2,10.2,0,0,1-1.65,1.051,10.213,10.213,0,0,1,1.483-1.277c.982-.788,2.431-1.891,4.246-3.222,3.628-2.664,8.756-6.193,14.61-9.795s11.318-6.579,15.332-8.614c2.007-1.019,3.646-1.815,4.792-2.335A10.1,10.1,0,0,1,266.715,212.629Z" fill="#e0e0e0"/>
      </g>
      <g id="Grupo_1019492" data-name="Grupo 1019492">
        <path id="Trazado_720699" data-name="Trazado 720699" d="M250.2,209.157a22,22,0,0,1-3.305,2.414c-2.1,1.4-5.038,3.282-8.34,5.266s-6.34,3.7-8.566,4.894a21.954,21.954,0,0,1-3.681,1.785,24.1,24.1,0,0,1,3.429-2.228l8.447-5.069,8.439-5.08A24.2,24.2,0,0,1,250.2,209.157Z" fill="#e0e0e0"/>
      </g>
      <g id="Grupo_1019493" data-name="Grupo 1019493">
        <path id="Trazado_720700" data-name="Trazado 720700" d="M234.827,190.924a14.1,14.1,0,0,1-2.507,1.831l-6.2,4.153-6.152,4.226a14.161,14.161,0,0,1-2.628,1.653,12.578,12.578,0,0,1,2.325-2.063c1.5-1.191,3.629-2.77,6.05-4.413s4.674-3.034,6.335-3.989A12.617,12.617,0,0,1,234.827,190.924Z" fill="#e0e0e0"/>
      </g>
      <g id="Grupo_1019494" data-name="Grupo 1019494">
        <path id="Trazado_720701" data-name="Trazado 720701" d="M233.586,174.679c.049.1-1.806,1.093-4.745,2.795s-6.939,4.15-11.178,7.122-7.9,5.911-10.494,8.1-4.162,3.595-4.239,3.514a5.9,5.9,0,0,1,.983-1.111c.663-.686,1.659-1.64,2.921-2.787a109.49,109.49,0,0,1,21.76-15.283c1.506-.8,2.742-1.41,3.612-1.8A5.864,5.864,0,0,1,233.586,174.679Z" fill="#e0e0e0"/>
      </g>
      <g id="Grupo_1019495" data-name="Grupo 1019495">
        <path id="Trazado_720702" data-name="Trazado 720702" d="M225.548,162.076c.114.164-7.4,5.6-16.79,12.147s-17.09,11.718-17.2,11.555,7.4-5.6,16.792-12.147S225.434,161.913,225.548,162.076Z" fill="#e0e0e0"/>
      </g>
      <g id="Grupo_1019496" data-name="Grupo 1019496">
        <path id="Trazado_720703" data-name="Trazado 720703" d="M219.141,147.87a8.514,8.514,0,0,1-1.443,1.072l-4.056,2.725c-3.428,2.294-8.141,5.493-13.263,9.144s-9.682,7.072-12.967,9.566l-3.9,2.947a8.536,8.536,0,0,1-1.483,1.016,8.626,8.626,0,0,1,1.307-1.234c.87-.761,2.153-1.831,3.758-3.131,3.209-2.6,7.73-6.088,12.862-9.751s9.9-6.8,13.4-8.986c1.751-1.094,3.181-1.959,4.183-2.534A8.654,8.654,0,0,1,219.141,147.87Z" fill="#e0e0e0"/>
      </g>
      <g id="Grupo_1019497" data-name="Grupo 1019497">
        <path id="Trazado_720704" data-name="Trazado 720704" d="M205.932,139.991c.114.163-6.269,4.788-14.254,10.329s-14.553,9.9-14.667,9.737,6.268-4.788,14.256-10.33S205.819,139.827,205.932,139.991Z" fill="#e0e0e0"/>
      </g>
      <g id="Grupo_1019498" data-name="Grupo 1019498">
        <path id="Trazado_720705" data-name="Trazado 720705" d="M192.05,132.076c.124.156-3.159,2.986-7.333,6.321s-7.659,5.914-7.783,5.758,3.158-2.985,7.333-6.321S191.926,131.92,192.05,132.076Z" fill="#e0e0e0"/>
      </g>
      <g id="Grupo_1019499" data-name="Grupo 1019499">
        <path id="Trazado_720706" data-name="Trazado 720706" d="M182.7,112.148a22.972,22.972,0,0,1-3.122,2.895c-2,1.7-4.827,3.984-8.04,6.384s-6.205,4.461-8.407,5.895a22.947,22.947,0,0,1-3.663,2.17,27.048,27.048,0,0,1,3.374-2.591c2.124-1.538,5.058-3.66,8.264-6.053s6.073-4.6,8.151-6.2A27.028,27.028,0,0,1,182.7,112.148Z" fill="#e0e0e0"/>
      </g>
      <g id="Grupo_1019500" data-name="Grupo 1019500">
        <path id="Trazado_720707" data-name="Trazado 720707" d="M186.729,98.609a8.632,8.632,0,0,1-1.421,1.11c-.94.678-2.322,1.626-4.047,2.773-3.449,2.294-8.292,5.348-13.763,8.515s-10.537,5.84-14.245,7.686c-1.854.924-3.365,1.649-4.421,2.126a8.708,8.708,0,0,1-1.67.678,8.568,8.568,0,0,1,1.544-.929l4.312-2.328c3.643-1.959,8.656-4.7,14.119-7.858s10.334-6.139,13.848-8.32l4.168-2.577A8.682,8.682,0,0,1,186.729,98.609Z" fill="#e0e0e0"/>
      </g>
      <g id="Grupo_1019501" data-name="Grupo 1019501">
        <path id="Trazado_720708" data-name="Trazado 720708" d="M180.3,84.13a10.121,10.121,0,0,1-1.56,1.19c-1.029.728-2.536,1.755-4.411,3.006-3.748,2.5-8.978,5.882-14.825,9.5s-11.209,6.791-15.121,9.029c-1.956,1.119-3.548,2.009-4.658,2.6a10.207,10.207,0,0,1-1.761.865,10.245,10.245,0,0,1,1.619-1.107l4.54-2.8,15-9.2L174.048,87.9l4.534-2.813A10.311,10.311,0,0,1,180.3,84.13Z" fill="#e0e0e0"/>
      </g>
    </g>
    <g id="Grupo_1019514" data-name="Grupo 1019514">
      <g id="Grupo_1019505" data-name="Grupo 1019505">
        <g id="Grupo_1019504" data-name="Grupo 1019504">
          <g id="Grupo_1019503" data-name="Grupo 1019503">
            <path id="Trazado_720709" data-name="Trazado 720709" d="M447.956,136.469c-.13.128-2.124-1.859-5.972-5.152-1.924-1.645-4.319-3.609-7.212-5.728a80.856,80.856,0,0,0-10.284-6.445,46.743,46.743,0,0,0-6.42-2.781,21.092,21.092,0,0,0-7.248-1.289,8.233,8.233,0,0,0-3.518.836,5.373,5.373,0,0,0-2.4,2.555,8.816,8.816,0,0,0-.721,3.8,19.283,19.283,0,0,0,.525,4.175,41,41,0,0,0,3.126,8.4,72.326,72.326,0,0,0,4.743,8.2,113.916,113.916,0,0,0,27.745,28.6,72.475,72.475,0,0,0,8.053,4.99,41.011,41.011,0,0,0,8.307,3.379,19.247,19.247,0,0,0,4.159.651,8.8,8.8,0,0,0,3.814-.606,5.373,5.373,0,0,0,2.627-2.325,8.257,8.257,0,0,0,.942-3.492,21.126,21.126,0,0,0-1.071-7.285,46.748,46.748,0,0,0-2.586-6.5,80.889,80.889,0,0,0-6.131-10.474c-2.031-2.956-3.921-5.409-5.507-7.381-3.175-3.945-5.1-6-4.968-6.124.055-.054.594.4,1.571,1.323s2.363,2.334,4.06,4.238,3.709,4.3,5.863,7.223a76.878,76.878,0,0,1,6.529,10.5,47.363,47.363,0,0,1,2.814,6.683,22.6,22.6,0,0,1,1.275,7.911,10.068,10.068,0,0,1-1.124,4.314,7.314,7.314,0,0,1-3.508,3.193,10.722,10.722,0,0,1-4.652.819,21.188,21.188,0,0,1-4.62-.671,42.583,42.583,0,0,1-8.78-3.48,73.113,73.113,0,0,1-8.326-5.092,113.277,113.277,0,0,1-28.314-29.184,73.288,73.288,0,0,1-4.836-8.474,42.578,42.578,0,0,1-3.213-8.88,21.208,21.208,0,0,1-.531-4.638,10.739,10.739,0,0,1,.959-4.624,7.322,7.322,0,0,1,3.3-3.411,10.077,10.077,0,0,1,4.346-.993,22.572,22.572,0,0,1,7.868,1.513,47.145,47.145,0,0,1,6.6,3.014,77.018,77.018,0,0,1,10.295,6.843c2.859,2.242,5.193,4.322,7.042,6.079s3.214,3.193,4.115,4.187A7.168,7.168,0,0,1,447.956,136.469Z" fill="#e0e0e0"/>
          </g>
        </g>
      </g>
      <g id="Grupo_1019508" data-name="Grupo 1019508">
        <g id="Grupo_1019507" data-name="Grupo 1019507">
          <g id="Grupo_1019506" data-name="Grupo 1019506">
            <path id="Trazado_720710" data-name="Trazado 720710" d="M422.257,142.886c.175.054-.6,2.665-1.63,7.458-.511,2.4-1.072,5.339-1.527,8.779a74.605,74.605,0,0,0-.648,11.72,42.315,42.315,0,0,0,.7,6.725,19.8,19.8,0,0,0,2.4,6.69,8.225,8.225,0,0,0,2.4,2.55,5.637,5.637,0,0,0,3.306.889,8.656,8.656,0,0,0,3.6-1.011,17.583,17.583,0,0,0,3.37-2.266,37.716,37.716,0,0,0,5.852-6.382,67.57,67.57,0,0,0,4.9-7.734A105.043,105.043,0,0,0,456.627,133.6a67.676,67.676,0,0,0,.456-9.148,37.748,37.748,0,0,0-1.1-8.59,17.572,17.572,0,0,0-1.446-3.8,8.654,8.654,0,0,0-2.354-2.9,5.622,5.622,0,0,0-3.214-1.18,8.2,8.2,0,0,0-3.43.7,19.768,19.768,0,0,0-5.816,4.083,42.313,42.313,0,0,0-4.45,5.091,74.664,74.664,0,0,0-6.231,9.947c-1.612,3.072-2.852,5.8-3.816,8.051-1.927,4.507-2.8,7.089-2.97,7.032a6.726,6.726,0,0,1,.4-1.948c.35-1.25.9-3.086,1.759-5.4s1.982-5.127,3.51-8.3A71.245,71.245,0,0,1,434,116.919a43.027,43.027,0,0,1,4.515-5.386,21.31,21.31,0,0,1,6.3-4.555,10.047,10.047,0,0,1,4.224-.906,7.574,7.574,0,0,1,4.325,1.518,10.588,10.588,0,0,1,2.944,3.51,19.45,19.45,0,0,1,1.662,4.214,39.289,39.289,0,0,1,1.246,9.074,68.309,68.309,0,0,1-.413,9.448,104.669,104.669,0,0,1-11.915,37.526,68.461,68.461,0,0,1-5.111,7.954,39.289,39.289,0,0,1-6.251,6.692,19.462,19.462,0,0,1-3.789,2.484,10.589,10.589,0,0,1-4.428,1.168,7.567,7.567,0,0,1-4.408-1.253,10.03,10.03,0,0,1-2.929-3.175,21.3,21.3,0,0,1-2.516-7.354,42.889,42.889,0,0,1-.582-7,71.12,71.12,0,0,1,.991-11.933c.579-3.471,1.272-6.419,1.918-8.8s1.245-4.206,1.68-5.429A6.756,6.756,0,0,1,422.257,142.886Z" fill="#e0e0e0"/>
          </g>
        </g>
      </g>
      <g id="Grupo_1019511" data-name="Grupo 1019511">
        <g id="Grupo_1019510" data-name="Grupo 1019510">
          <g id="Grupo_1019509" data-name="Grupo 1019509">
            <path id="Trazado_720711" data-name="Trazado 720711" d="M431.048,130.493c.046.177-2.584.888-7.2,2.538-2.306.826-5.1,1.9-8.269,3.321a74.64,74.64,0,0,0-10.307,5.616,42.248,42.248,0,0,0-5.351,4.132,19.773,19.773,0,0,0-4.428,5.558,8.2,8.2,0,0,0-.906,3.381,5.628,5.628,0,0,0,.983,3.28,8.654,8.654,0,0,0,2.751,2.524,17.529,17.529,0,0,0,3.7,1.674,37.735,37.735,0,0,0,8.507,1.618,67.487,67.487,0,0,0,9.156.1,105.054,105.054,0,0,0,37.35-9.4,67.557,67.557,0,0,0,8.018-4.425,37.647,37.647,0,0,0,6.727-5.455,17.524,17.524,0,0,0,2.467-3.227,8.648,8.648,0,0,0,1.227-3.527,5.624,5.624,0,0,0-.687-3.354,8.206,8.206,0,0,0-2.4-2.548,19.785,19.785,0,0,0-6.532-2.8,42.354,42.354,0,0,0-6.67-1.1,74.663,74.663,0,0,0-11.738-.065c-3.461.245-6.433.627-8.855.991-4.846.733-7.5,1.353-7.542,1.175a6.7,6.7,0,0,1,1.868-.682c1.248-.36,3.1-.854,5.521-1.348s5.4-1.012,8.9-1.38a71.112,71.112,0,0,1,11.971-.265,42.928,42.928,0,0,1,6.955,1,21.3,21.3,0,0,1,7.188,2.958,10.025,10.025,0,0,1,2.992,3.116,7.564,7.564,0,0,1,.985,4.476,10.584,10.584,0,0,1-1.435,4.349,19.465,19.465,0,0,1-2.709,3.632,39.314,39.314,0,0,1-7.061,5.834,68.464,68.464,0,0,1-8.252,4.62,104.649,104.649,0,0,1-38.18,9.613,68.458,68.458,0,0,1-9.454-.161,39.27,39.27,0,0,1-8.98-1.795,19.337,19.337,0,0,1-4.105-1.915,10.577,10.577,0,0,1-3.324-3.15,7.57,7.57,0,0,1-1.253-4.408,10.027,10.027,0,0,1,1.159-4.162,21.3,21.3,0,0,1,4.929-6.008,42.723,42.723,0,0,1,5.649-4.18,71.18,71.18,0,0,1,10.669-5.437c3.256-1.333,6.128-2.295,8.495-3s4.232-1.154,5.5-1.428A6.7,6.7,0,0,1,431.048,130.493Z" fill="#e0e0e0"/>
          </g>
        </g>
      </g>
      <g id="Grupo_1019513" data-name="Grupo 1019513">
        <g id="Grupo_1019512" data-name="Grupo 1019512">
          <path id="Trazado_720712" data-name="Trazado 720712" d="M444.555,146a7.185,7.185,0,1,1-8.722-5.213A7.185,7.185,0,0,1,444.555,146Z" fill="#e0e0e0"/>
        </g>
      </g>
    </g>
    <g id="Grupo_1019524" data-name="Grupo 1019524">
      <path id="Trazado_720713" data-name="Trazado 720713" d="M24.135,245.812h0a2.218,2.218,0,0,0,2.218,2.218H30.3v40.179L6.065,342.037a9.2,9.2,0,0,0,8.386,12.972H62.618A9.2,9.2,0,0,0,71,342.015L45.826,286.483V248.277H49.4a2.342,2.342,0,0,0,2.342-2.342h0a2.342,2.342,0,0,0-2.342-2.342H26.353A2.218,2.218,0,0,0,24.135,245.812Z" fill="#ebebeb"/>
      <g id="Grupo_1019523" data-name="Grupo 1019523">
        <path id="Trazado_720714" data-name="Trazado 720714" d="M99.948,356.276H59.189a8.485,8.485,0,0,1-8.486-8.485V277.783h64.224l-6.493,6.453v63.555A8.485,8.485,0,0,1,99.948,356.276Z" fill="#f5f5f5"/>
        <g id="Grupo_1019515" data-name="Grupo 1019515">
          <path id="Trazado_720715" data-name="Trazado 720715" d="M66.224,297.582c0,.2-3.354.361-7.492.361s-7.493-.162-7.493-.361,3.354-.361,7.493-.361S66.224,297.383,66.224,297.582Z" fill="#e0e0e0"/>
        </g>
        <g id="Grupo_1019516" data-name="Grupo 1019516">
          <path id="Trazado_720716" data-name="Trazado 720716" d="M57.891,289.252c0,.2-1.49.361-3.326.361s-3.326-.162-3.326-.361,1.489-.36,3.326-.36S57.891,289.053,57.891,289.252Z" fill="#e0e0e0"/>
        </g>
        <g id="Grupo_1019517" data-name="Grupo 1019517">
          <path id="Trazado_720717" data-name="Trazado 720717" d="M66.224,314.125c0,.2-3.354.36-7.492.36s-7.493-.161-7.493-.36,3.354-.361,7.493-.361S66.224,313.926,66.224,314.125Z" fill="#e0e0e0"/>
        </g>
        <g id="Grupo_1019518" data-name="Grupo 1019518">
          <path id="Trazado_720718" data-name="Trazado 720718" d="M57.891,305.8c0,.2-1.49.361-3.326.361s-3.326-.162-3.326-.361,1.489-.361,3.326-.361S57.891,305.6,57.891,305.8Z" fill="#e0e0e0"/>
        </g>
        <g id="Grupo_1019519" data-name="Grupo 1019519">
          <path id="Trazado_720719" data-name="Trazado 720719" d="M66.224,330.667c0,.2-3.354.361-7.492.361s-7.493-.161-7.493-.361,3.354-.36,7.493-.36S66.224,330.468,66.224,330.667Z" fill="#e0e0e0"/>
        </g>
        <g id="Grupo_1019520" data-name="Grupo 1019520">
          <path id="Trazado_720720" data-name="Trazado 720720" d="M57.891,322.338c0,.2-1.49.36-3.326.36s-3.326-.161-3.326-.36,1.489-.361,3.326-.361S57.891,322.138,57.891,322.338Z" fill="#e0e0e0"/>
        </g>
        <g id="Grupo_1019521" data-name="Grupo 1019521">
          <path id="Trazado_720721" data-name="Trazado 720721" d="M66.224,347.21c0,.2-3.354.361-7.492.361s-7.493-.162-7.493-.361,3.354-.361,7.493-.361S66.224,347.011,66.224,347.21Z" fill="#e0e0e0"/>
        </g>
        <g id="Grupo_1019522" data-name="Grupo 1019522">
          <path id="Trazado_720722" data-name="Trazado 720722" d="M57.891,338.88c0,.2-1.49.361-3.326.361s-3.326-.161-3.326-.361,1.489-.36,3.326-.36S57.891,338.681,57.891,338.88Z" fill="#e0e0e0"/>
        </g>
      </g>
    </g>
    <g id="Grupo_1019629" data-name="Grupo 1019629">
      <g id="Grupo_1019628" data-name="Grupo 1019628" clip-path="url(#clip-path)">
        <g id="Grupo_1019627" data-name="Grupo 1019627">
          <g id="Grupo_1019596" data-name="Grupo 1019596">
            <g id="Grupo_1019591" data-name="Grupo 1019591">
              <g id="Grupo_1019590" data-name="Grupo 1019590">
                <g id="Grupo_1019589" data-name="Grupo 1019589">
                  <g id="Grupo_1019535" data-name="Grupo 1019535">
                    <g id="Grupo_1019534" data-name="Grupo 1019534">
                      <g id="Grupo_1019533" data-name="Grupo 1019533">
                        <g id="Grupo_1019528" data-name="Grupo 1019528">
                          <g id="Grupo_1019527" data-name="Grupo 1019527">
                            <g id="Grupo_1019526" data-name="Grupo 1019526">
                              <g id="Grupo_1019525" data-name="Grupo 1019525">
                                <path id="Trazado_720723" data-name="Trazado 720723" d="M374.275,176.938l-59.818-2.744c-.338-6.346,2.9-45.615,2.9-45.615s-22.61-3.515-22.889-26.121,3.64-74.516,3.64-74.516h0c26.169-11.246,58.05-13.158,80.621,4.216l3.35,2.579Z" fill="#b78876"/>
                              </g>
                            </g>
                          </g>
                        </g>
                        <g id="Grupo_1019532" data-name="Grupo 1019532">
                          <g id="Grupo_1019531" data-name="Grupo 1019531">
                            <g id="Grupo_1019530" data-name="Grupo 1019530">
                              <g id="Grupo_1019529" data-name="Grupo 1019529">
                                <path id="Trazado_720724" data-name="Trazado 720724" d="M317.321,128.253s14.287,1.163,29.472-8.375c0,0-6.967,16.269-29.524,14.233Z" fill="#aa6550"/>
                              </g>
                            </g>
                          </g>
                        </g>
                      </g>
                    </g>
                  </g>
                  <g id="Grupo_1019545" data-name="Grupo 1019545">
                    <g id="Grupo_1019539" data-name="Grupo 1019539">
                      <g id="Grupo_1019538" data-name="Grupo 1019538">
                        <g id="Grupo_1019537" data-name="Grupo 1019537">
                          <g id="Grupo_1019536" data-name="Grupo 1019536">
                            <path id="Trazado_720725" data-name="Trazado 720725" d="M377.619,63.86c.385-.167,15.533-4.594,15.039,10.862S376.75,86.493,376.737,86.049,377.619,63.86,377.619,63.86Z" fill="#b78876"/>
                          </g>
                        </g>
                      </g>
                    </g>
                    <g id="Grupo_1019544" data-name="Grupo 1019544">
                      <g id="Grupo_1019543" data-name="Grupo 1019543">
                        <g id="Grupo_1019542" data-name="Grupo 1019542">
                          <g id="Grupo_1019541" data-name="Grupo 1019541">
                            <g id="Grupo_1019540" data-name="Grupo 1019540">
                              <path id="Trazado_720726" data-name="Trazado 720726" d="M381.645,80.344c.07-.047.264.2.712.421a2.693,2.693,0,0,0,2.011.105c1.652-.547,3.109-3.1,3.273-5.878a8.881,8.881,0,0,0-.63-3.879,3.111,3.111,0,0,0-1.959-2.131,1.371,1.371,0,0,0-1.613.687c-.221.425-.132.737-.215.76-.045.038-.323-.269-.179-.9a1.722,1.722,0,0,1,.639-.949,2.035,2.035,0,0,1,1.5-.346,3.785,3.785,0,0,1,2.736,2.486,9.146,9.146,0,0,1,.8,4.338c-.2,3.111-1.886,5.974-4.14,6.549a2.889,2.889,0,0,1-2.45-.488C381.661,80.719,381.591,80.371,381.645,80.344Z" fill="#aa6550"/>
                            </g>
                          </g>
                        </g>
                      </g>
                    </g>
                  </g>
                  <g id="Grupo_1019588" data-name="Grupo 1019588">
                    <g id="Grupo_1019587" data-name="Grupo 1019587">
                      <g id="Grupo_1019578" data-name="Grupo 1019578">
                        <g id="Grupo_1019577" data-name="Grupo 1019577">
                          <g id="Grupo_1019576" data-name="Grupo 1019576">
                            <g id="Grupo_1019555" data-name="Grupo 1019555">
                              <g id="Grupo_1019549" data-name="Grupo 1019549">
                                <g id="Grupo_1019548" data-name="Grupo 1019548">
                                  <g id="Grupo_1019547" data-name="Grupo 1019547">
                                    <g id="Grupo_1019546" data-name="Grupo 1019546">
                                      <path id="Trazado_720727" data-name="Trazado 720727" d="M303.092,63.373A3.227,3.227,0,0,0,306.2,66.63a3.087,3.087,0,0,0,3.327-2.911,3.23,3.23,0,0,0-3.109-3.259A3.09,3.09,0,0,0,303.092,63.373Z" fill="#263238"/>
                                    </g>
                                  </g>
                                </g>
                              </g>
                              <g id="Grupo_1019554" data-name="Grupo 1019554">
                                <g id="Grupo_1019553" data-name="Grupo 1019553">
                                  <g id="Grupo_1019552" data-name="Grupo 1019552">
                                    <g id="Grupo_1019551" data-name="Grupo 1019551">
                                      <g id="Grupo_1019550" data-name="Grupo 1019550">
                                        <path id="Trazado_720728" data-name="Trazado 720728" d="M302.387,59.743c.4.421,2.846-1.389,6.321-1.379,3.469-.041,6.019,1.746,6.4,1.321.185-.189-.223-.948-1.333-1.757a8.857,8.857,0,0,0-5.121-1.578,8.5,8.5,0,0,0-5.03,1.624C302.552,58.793,302.19,59.555,302.387,59.743Z" fill="#263238"/>
                                      </g>
                                    </g>
                                  </g>
                                </g>
                              </g>
                            </g>
                            <g id="Grupo_1019565" data-name="Grupo 1019565">
                              <g id="Grupo_1019559" data-name="Grupo 1019559">
                                <g id="Grupo_1019558" data-name="Grupo 1019558">
                                  <g id="Grupo_1019557" data-name="Grupo 1019557">
                                    <g id="Grupo_1019556" data-name="Grupo 1019556">
                                      <path id="Trazado_720729" data-name="Trazado 720729" d="M337.113,64.189a3.229,3.229,0,0,0,3.113,3.257,3.088,3.088,0,0,0,3.328-2.911,3.23,3.23,0,0,0-3.11-3.259A3.09,3.09,0,0,0,337.113,64.189Z" fill="#263238"/>
                                    </g>
                                  </g>
                                </g>
                              </g>
                              <g id="Grupo_1019564" data-name="Grupo 1019564">
                                <g id="Grupo_1019563" data-name="Grupo 1019563">
                                  <g id="Grupo_1019562" data-name="Grupo 1019562">
                                    <g id="Grupo_1019561" data-name="Grupo 1019561">
                                      <g id="Grupo_1019560" data-name="Grupo 1019560">
                                        <path id="Trazado_720730" data-name="Trazado 720730" d="M336.535,60.391c.4.422,2.85-1.388,6.321-1.379,3.47-.04,6.02,1.747,6.4,1.321.184-.188-.219-.948-1.334-1.756A8.853,8.853,0,0,0,342.8,57a8.514,8.514,0,0,0-5.031,1.624C336.7,59.442,336.339,60.2,336.535,60.391Z" fill="#263238"/>
                                      </g>
                                    </g>
                                  </g>
                                </g>
                              </g>
                            </g>
                            <g id="Grupo_1019570" data-name="Grupo 1019570">
                              <g id="Grupo_1019569" data-name="Grupo 1019569">
                                <g id="Grupo_1019568" data-name="Grupo 1019568">
                                  <g id="Grupo_1019567" data-name="Grupo 1019567">
                                    <g id="Grupo_1019566" data-name="Grupo 1019566">
                                      <path id="Trazado_720731" data-name="Trazado 720731" d="M323.927,86.155c.016-.2-2.143-.571-5.642-1.018-.887-.092-1.727-.268-1.876-.873a4.517,4.517,0,0,1,.592-2.63q1.251-3.219,2.623-6.755c3.644-9.617,6.281-17.525,5.892-17.668s-3.657,7.535-7.3,17.153q-1.316,3.558-2.513,6.795a5.13,5.13,0,0,0-.46,3.481,2.224,2.224,0,0,0,1.458,1.3,6.037,6.037,0,0,0,1.507.21C321.729,86.337,323.914,86.352,323.927,86.155Z" fill="#263238"/>
                                    </g>
                                  </g>
                                </g>
                              </g>
                            </g>
                            <g id="Grupo_1019575" data-name="Grupo 1019575">
                              <g id="Grupo_1019574" data-name="Grupo 1019574">
                                <g id="Grupo_1019573" data-name="Grupo 1019573">
                                  <g id="Grupo_1019572" data-name="Grupo 1019572">
                                    <g id="Grupo_1019571" data-name="Grupo 1019571">
                                      <path id="Trazado_720732" data-name="Trazado 720732" d="M334.151,88.558c-.565-.033-.572,3.738-3.8,6.414s-7.241,2.262-7.271,2.789c-.052.237.9.733,2.592.779a9.4,9.4,0,0,0,6.07-2.115,8.184,8.184,0,0,0,2.944-5.378C334.83,89.47,334.409,88.536,334.151,88.558Z" fill="#263238"/>
                                    </g>
                                  </g>
                                </g>
                              </g>
                            </g>
                          </g>
                        </g>
                      </g>
                      <g id="Grupo_1019582" data-name="Grupo 1019582">
                        <g id="Grupo_1019581" data-name="Grupo 1019581">
                          <g id="Grupo_1019580" data-name="Grupo 1019580">
                            <g id="Grupo_1019579" data-name="Grupo 1019579">
                              <path id="Trazado_720733" data-name="Trazado 720733" d="M335.638,46.777c.343.945,3.812.5,7.887.988,4.086.41,7.373,1.6,7.913.756.241-.406-.332-1.294-1.661-2.209a13.817,13.817,0,0,0-12.037-1.328C336.244,45.587,335.491,46.329,335.638,46.777Z" fill="#263238"/>
                            </g>
                          </g>
                        </g>
                      </g>
                      <g id="Grupo_1019586" data-name="Grupo 1019586">
                        <g id="Grupo_1019585" data-name="Grupo 1019585">
                          <g id="Grupo_1019584" data-name="Grupo 1019584">
                            <g id="Grupo_1019583" data-name="Grupo 1019583">
                              <path id="Trazado_720734" data-name="Trazado 720734" d="M303.664,49.689c.612.789,3-.03,5.883-.068,2.876-.14,5.314.53,5.875-.295.246-.4-.138-1.191-1.2-1.939a8.521,8.521,0,0,0-9.473.293C303.729,48.492,303.395,49.3,303.664,49.689Z" fill="#263238"/>
                            </g>
                          </g>
                        </g>
                      </g>
                    </g>
                  </g>
                </g>
              </g>
            </g>
            <path id="Trazado_720735" data-name="Trazado 720735" d="M378.723,17.029c-2.984-2.138-6.55-4.34-9.927-3.593C368.819,7.71,360.356,1,353.908-1.032c-7.547-2.379-17.486,1.3-25,3.79-4.739,1.571-9.461,3.763-14.448,3.557-3.345-.138-6.537-1.354-9.693-2.47s-6.441-2.158-9.781-1.93-6.778,2-8.046,5.1a6.135,6.135,0,0,0,2.157,7.171c-4.007-.876-8.734,1.978-9.333,6.144-.54,3.756,2.441,7.424,6.032,8.326a4.2,4.2,0,0,0-2.233,3.867c.268,2.715,2.73,4.69,5.228,5.787,6.375,2.8,13.81,1.906,20.409-.315s12.72-5.681,19.262-8.066,17.5-6.664,24.068-4.349A11.661,11.661,0,0,1,355,26.84h0l.123.1a17.6,17.6,0,0,1,6.539,11.376c.022.158.043.309.062.451.875,6.378.717,12.868,1.653,19.237s3.144,12.851,7.853,17.24c1.938,1.806,5.364,3.048,6.957.932a5.457,5.457,0,0,0,.8-2.922c1.192-15.4,5.4-29.067,5.37-45.172A13.576,13.576,0,0,0,378.723,17.029Z" fill="#263238"/>
            <g id="Grupo_1019592" data-name="Grupo 1019592">
              <path id="Trazado_720736" data-name="Trazado 720736" d="M364.667,14.485c-.042.071-1.027-.617-3.011-1.409a22.838,22.838,0,0,0-8.839-1.487,36.771,36.771,0,0,0-13.011,2.854c-4.717,1.833-9.61,4.534-14.942,7.016a75.179,75.179,0,0,1-29.141,6.97,67.814,67.814,0,0,1-9.117-.312c-1.073-.089-1.9-.233-2.46-.31a3.83,3.83,0,0,1-.849-.167,3.984,3.984,0,0,1,.866.023c.565.03,1.393.129,2.466.175a80.379,80.379,0,0,0,9.073.081A77.618,77.618,0,0,0,324.561,20.8c5.3-2.464,10.221-5.16,15-6.981a36.44,36.44,0,0,1,13.248-2.744,22.069,22.069,0,0,1,8.952,1.738,14.317,14.317,0,0,1,2.2,1.164A4,4,0,0,1,364.667,14.485Z" fill="#455a64"/>
            </g>
            <g id="Grupo_1019593" data-name="Grupo 1019593">
              <path id="Trazado_720737" data-name="Trazado 720737" d="M289.517,12.247a11.253,11.253,0,0,0,2.52,2.034,16.282,16.282,0,0,0,8.612,1.5A63.189,63.189,0,0,0,313.661,13.6a63.31,63.31,0,0,0,7.372-2.542c2.5-1.027,5-2.3,7.581-3.6,5.118-2.607,10.269-5,15.379-5.4A22.4,22.4,0,0,1,363.6,11.022,17.385,17.385,0,0,1,364.9,13.1a3.806,3.806,0,0,1,.365.77c-.071.041-.6-1.012-1.884-2.677a22.847,22.847,0,0,0-6.723-5.708,21.787,21.787,0,0,0-12.6-2.764c-4.952.421-10,2.769-15.115,5.378-2.572,1.3-5.1,2.581-7.635,3.613a62.215,62.215,0,0,1-7.467,2.529,60.788,60.788,0,0,1-13.168,2.052c-3.811.146-6.944-.615-8.771-1.767a8.415,8.415,0,0,1-1.888-1.577A3.652,3.652,0,0,1,289.517,12.247Z" fill="#455a64"/>
            </g>
            <g id="Grupo_1019594" data-name="Grupo 1019594">
              <path id="Trazado_720738" data-name="Trazado 720738" d="M383.1,46.723a6.3,6.3,0,0,1-1.715-.082,21.862,21.862,0,0,1-4.563-1.064,25.308,25.308,0,0,1-6.212-3.148,25.7,25.7,0,0,1-3.177-2.636,15.321,15.321,0,0,1-2.79-3.476,21.938,21.938,0,0,1-2.572-8.142,22.9,22.9,0,0,1,.16-6.964,16.446,16.446,0,0,1,1.485-4.454,6.373,6.373,0,0,1,.947-1.435,22.056,22.056,0,0,0-1.929,5.974,23.8,23.8,0,0,0,0,6.793,22.05,22.05,0,0,0,2.538,7.867,14.957,14.957,0,0,0,2.661,3.334,26.354,26.354,0,0,0,3.065,2.6,26.533,26.533,0,0,0,6,3.21A45.206,45.206,0,0,0,383.1,46.723Z" fill="#455a64"/>
            </g>
            <g id="Grupo_1019595" data-name="Grupo 1019595">
              <path id="Trazado_720739" data-name="Trazado 720739" d="M384.049,35.965a3.558,3.558,0,0,1-1.157-.261,24.622,24.622,0,0,1-3.016-1.146,31.6,31.6,0,0,1-4.189-2.325c-.756-.489-1.536-1.02-2.336-1.577a17.526,17.526,0,0,1-2.4-1.911,23.461,23.461,0,0,1-5.539-9.081,16.36,16.36,0,0,1-.727-3.154,3.3,3.3,0,0,1-.019-1.188c.123-.014.26,1.666,1.227,4.172a25.384,25.384,0,0,0,5.561,8.734,39.4,39.4,0,0,0,4.6,3.45A37.811,37.811,0,0,0,380.1,34.1C382.495,35.31,384.091,35.849,384.049,35.965Z" fill="#455a64"/>
            </g>
          </g>
          <g id="Grupo_1019601" data-name="Grupo 1019601">
            <g id="Grupo_1019600" data-name="Grupo 1019600">
              <g id="Grupo_1019599" data-name="Grupo 1019599">
                <g id="Grupo_1019598" data-name="Grupo 1019598">
                  <g id="Grupo_1019597" data-name="Grupo 1019597">
                    <path id="Trazado_720740" data-name="Trazado 720740" d="M250.019,397.5l4.16,108.6h91.289l-.367-31.111L355.824,506.1h94.535L419.982,398.653Z" fill="#455a64"/>
                  </g>
                </g>
              </g>
            </g>
          </g>
          <g id="Grupo_1019614" data-name="Grupo 1019614">
            <g id="Grupo_1019605" data-name="Grupo 1019605">
              <g id="Grupo_1019602" data-name="Grupo 1019602">
                <path id="Trazado_720741" data-name="Trazado 720741" d="M315.166,150.585h0c-2.311.278-4.034.787-7.88,1.241l-.751.091c-30.058,3.723-51.859,30.472-49.9,60.7l5.935,42.651S250.287,395.671,250.739,414.4H422.731l.138-78.609-.04-21.4-.946-58.04L445,193.5c-4.8-16.135-22.063-33.608-46.052-38.2-7.617-1.459-15.035-4.217-23.99-4.6l-.008.006c-16.817,13.284-42.657,12.758-59.783-.123Z" fill="#3076b6"/>
              </g>
              <g id="Grupo_1019603" data-name="Grupo 1019603">
                <path id="Trazado_720742" data-name="Trazado 720742" d="M374.109,201.336c0,.2-14.281.622-31.9.944s-31.914.421-31.917.222,14.277-.622,31.9-.944S374.106,201.137,374.109,201.336Z" fill="#3076b6"/>
              </g>
              <g id="Grupo_1019604" data-name="Grupo 1019604">
                <path id="Trazado_720743" data-name="Trazado 720743" d="M373.793,211.224c0,.2-14.362.039-32.064-.358s-32.056-.879-32.052-1.078,14.359-.039,32.068.357S373.8,211.024,373.793,211.224Z" fill="#3076b6"/>
              </g>
            </g>
            <path id="Trazado_720744" data-name="Trazado 720744" d="M103.414,127.082s68.852,82.554,74.3,87.229,86.571-44.248,86.571-44.248v.015c8.9-7.923,16.328-12.525,26.239-15.462.243-.08.4-.128.4-.128v.012a117.046,117.046,0,0,1,18.864-3.527c1.226-.145,2.351-.27,3.424-.388L302.266,342.568l.56.3s-.239.37-.632.962l-3.976,69.723-.069,0,8.657,92.551H235.34l12.77-123.454c.379-4.038.731-8.83,1.059-14.2l9.1-91.662,2.528-21.009s-69.812,27.867-93.317,26.769c-30.472-1.424-102.4-124.57-102.4-124.57Z" fill="#e8505b"/>
            <g id="Grupo_1019609" data-name="Grupo 1019609">
              <path id="Trazado_720745" data-name="Trazado 720745" d="M480.23,335.156,447.5,192.648c-4.8-16.134-22.062-33.607-46.052-38.2-7.617-1.459-17.087-3.48-26.041-3.859l-.4,151.047-2.775-.394-17.579,31.487,20.251,7.752-.15,57.027.542,16.047,12.82,92.554H451.07L425.318,365.782l.009-4.941,8.8,3.97a33.769,33.769,0,0,0,32.015-2.345,34.5,34.5,0,0,0,13.181-16.306A18.237,18.237,0,0,0,480.23,335.156Z" fill="#e8505b"/>
              <path id="Trazado_720746" data-name="Trazado 720746" d="M103.414,127.082s68.852,82.554,74.3,87.229,86.571-44.248,86.571-44.248v.015c8.9-7.923,16.328-12.525,26.239-15.462.243-.08.4-.128.4-.128v.012a117.046,117.046,0,0,1,18.864-3.527c1.226-.145,2.351-.27,3.424-.388L302.266,342.568l.56.3s-.239.37-.632.962l-3.976,69.723-.069,0,8.657,92.551H235.34l12.77-123.454c.379-4.038.731-8.83,1.059-14.2l9.1-91.662,2.528-21.009s-69.812,27.867-93.317,26.769c-30.472-1.424-102.4-124.57-102.4-124.57Z" fill="#e8e8e8"/>
              <path id="Trazado_720747" data-name="Trazado 720747" d="M480.23,335.156,447.5,192.648c-4.8-16.134-22.062-33.607-46.052-38.2-7.617-1.459-17.087-3.48-26.041-3.859l-.4,151.047-2.775-.394-17.579,31.487,20.251,7.752-.15,57.027.542,16.047,12.82,92.554H451.07L425.318,365.782l.009-4.941,8.8,3.97a33.769,33.769,0,0,0,32.015-2.345,34.5,34.5,0,0,0,13.181-16.306A18.237,18.237,0,0,0,480.23,335.156Z" fill="#e8e8e8"/>
              <g id="Grupo_1019606" data-name="Grupo 1019606">
                <path id="Trazado_720750" data-name="Trazado 720750" d="M387.494,302.1a1.131,1.131,0,0,1,.076-.293l.279-.845,1.127-3.258c.976-2.846,2.374-7,3.914-12.3a172.252,172.252,0,0,0,4.469-19.13,108.75,108.75,0,0,0,1.593-24.769l.392.319-13.574,1.99-1.69.248,1.452-.9c3.518-2.192,7.254-4.552,10.173-7.846a17.833,17.833,0,0,0,2.543-3.677,14.25,14.25,0,0,0,1.315-4.178,23.6,23.6,0,0,0-.827-8.606c-1.4-5.613-2.759-11.028-4.05-16.188-2.618-10.308-5.194-19.532-7.6-27.2s-4.636-13.787-6.249-17.984c-.8-2.1-1.451-3.722-1.888-4.822-.2-.523-.363-.938-.486-1.257a2.125,2.125,0,0,1-.143-.438,2.2,2.2,0,0,1,.21.409c.141.312.323.718.553,1.23.481,1.082,1.178,2.685,2.015,4.775,1.7,4.17,3.994,10.271,6.474,17.932s5.1,16.887,7.756,27.193c1.3,5.161,2.674,10.576,4.094,16.189a24.2,24.2,0,0,1,.851,8.869,14.944,14.944,0,0,1-1.382,4.4,18.516,18.516,0,0,1-2.646,3.831c-3.018,3.4-6.806,5.778-10.34,7.977l-.238-.657,13.577-1.965.373-.054.02.373a107.832,107.832,0,0,1-1.7,24.913,165.419,165.419,0,0,1-4.635,19.151c-1.6,5.286-3.064,9.429-4.109,12.252-.515,1.414-.949,2.491-1.233,3.222-.136.337-.246.608-.334.825A1.155,1.155,0,0,1,387.494,302.1Z" fill="#263238"/>
              </g>
              <g id="Grupo_1019607" data-name="Grupo 1019607">
                <path id="Trazado_720751" data-name="Trazado 720751" d="M428,306.942c-.2.02-2.136-16.975-4.328-37.954s-3.81-38.013-3.611-38.034,2.135,16.971,4.328,37.958S428.2,306.921,428,306.942Z" fill="#263238"/>
              </g>
              <g id="Grupo_1019608" data-name="Grupo 1019608">
                <path id="Trazado_720752" data-name="Trazado 720752" d="M429.427,362.69a1.669,1.669,0,0,1-.342-.106l-.984-.368-3.786-1.48-14.1-5.633-48.295-19.539-.293-.118.091-.305,7.056-23.612c1.067-3.561,2.12-7.075,3.114-10.394l.085-.285.295.031,61.232,6.381,18.217,1.974,4.914.566,1.273.164a2.05,2.05,0,0,1,.43.079,2.157,2.157,0,0,1-.437-.01l-1.279-.1-4.928-.44-18.239-1.755L372.2,301.594l.38-.253c-.993,3.319-2.045,6.834-3.11,10.395l-7.079,23.605-.2-.423,48.2,19.774,14.02,5.823,3.743,1.587.961.424A1.56,1.56,0,0,1,429.427,362.69Z" fill="#263238"/>
              </g>
            </g>
            <g id="Grupo_1019610" data-name="Grupo 1019610">
              <path id="Trazado_720753" data-name="Trazado 720753" d="M300.423,333.407a2.516,2.516,0,0,1-.219-.416c-.146-.312-.339-.725-.583-1.25-.49-1.111-1.284-2.722-2.153-4.869a180.373,180.373,0,0,1-6.626-18.569,190.207,190.207,0,0,1-7.551-65.555l.024-.389.386.056,11.745,1.709,1.831.267-.241.664a53.727,53.727,0,0,1-8.619-6.221,17.6,17.6,0,0,1-5.489-8.731c-.83-3.4-.174-6.816.559-9.947q1.167-4.722,2.422-9.184c3.347-11.9,7.067-22.383,10.31-31.12,3.261-8.733,6.059-15.727,7.989-20.559.965-2.382,1.72-4.244,2.249-5.551l.6-1.436a2.837,2.837,0,0,1,.228-.48,2.986,2.986,0,0,1-.16.507l-.536,1.462c-.5,1.318-1.212,3.2-2.123,5.6-1.851,4.862-4.576,11.883-7.773,20.632-3.18,8.752-6.845,19.238-10.148,31.123q-1.233,4.457-2.391,9.164c-.724,3.109-1.336,6.422-.541,9.627a16.911,16.911,0,0,0,5.291,8.369,53.364,53.364,0,0,0,8.509,6.131l1.492.917-1.733-.253-1.831-.267L283.6,243.125l.41-.333a193.144,193.144,0,0,0,7.3,65.375,196.453,196.453,0,0,0,6.407,18.606c.831,2.159,1.585,3.785,2.033,4.913.22.536.392.958.522,1.277A2.327,2.327,0,0,1,300.423,333.407Z" fill="#263238"/>
            </g>
            <rect id="Rect치ngulo_348417" data-name="Rect치ngulo 348417" width="26.691" height="8.97" transform="translate(410.156 259.645) rotate(180)" fill="#455a64"/>
            <g id="Grupo_1019611" data-name="Grupo 1019611">
              <path id="Trazado_720754" data-name="Trazado 720754" d="M452.522,300.581c-.039.125-1.528-.355-4-.677a27.75,27.75,0,0,0-18.563,4.209c-2.092,1.357-3.228,2.432-3.317,2.335-.035-.036.223-.329.724-.832a17.735,17.735,0,0,1,2.306-1.925A25.367,25.367,0,0,1,448.6,299.4a17.69,17.69,0,0,1,2.911.742A3.241,3.241,0,0,1,452.522,300.581Z" fill="#263238"/>
            </g>
            <g id="Grupo_1019612" data-name="Grupo 1019612">
              <path id="Trazado_720755" data-name="Trazado 720755" d="M271.078,184.69a6.982,6.982,0,0,1-.1,1.147q-.156,1.216-.418,3.266c-.376,2.907-.9,6.992-1.553,12.008-1.279,10.208-3.03,24.193-4.966,39.642-1.942,15.486-3.746,29.5-5.177,39.627-.711,5.064-1.327,9.157-1.781,11.981q-.346,2.037-.552,3.247a6.762,6.762,0,0,1-.241,1.124,6.979,6.979,0,0,1,.1-1.146l.418-3.266c.375-2.907.9-6.991,1.553-12.008,1.278-10.208,3.03-24.194,4.966-39.648,1.942-15.481,3.746-29.493,5.177-39.62.711-5.064,1.327-9.157,1.781-11.982q.345-2.037.552-3.247A6.8,6.8,0,0,1,271.078,184.69Z" fill="#263238"/>
            </g>
            <g id="Grupo_1019613" data-name="Grupo 1019613">
              <path id="Trazado_720756" data-name="Trazado 720756" d="M101.67,140.863c.045.06-.293.279-.7.836a4.788,4.788,0,0,0-.864,2.7,4.7,4.7,0,0,0,1.6,3.71,4.412,4.412,0,0,0,6.766-4.217,4.7,4.7,0,0,0-2.627-3.071,4.79,4.79,0,0,0-2.809-.415c-.678.121-1.024.328-1.058.261a1.989,1.989,0,0,1,.994-.534,4.718,4.718,0,0,1,3.077.22,5.137,5.137,0,0,1,3.071,3.39,4.138,4.138,0,0,1-.3,2.794,5.5,5.5,0,0,1-4.889,3.047,4.137,4.137,0,0,1-2.641-.959A5.137,5.137,0,0,1,99.6,144.38a4.713,4.713,0,0,1,1.157-2.859A1.994,1.994,0,0,1,101.67,140.863Z" fill="#263238"/>
            </g>
          </g>
          <g id="Grupo_1019617" data-name="Grupo 1019617">
            <path id="Trazado_720757" data-name="Trazado 720757" d="M373.04,298.289l7.179-34.914H287.653l4.693,78.221s71.963-.125,69.674.09Z" fill="#263238"/>
            <g id="Grupo_1019616" data-name="Grupo 1019616">
              <g id="Grupo_1019615" data-name="Grupo 1019615">
                <path id="Trazado_720758" data-name="Trazado 720758" d="M379.936,282.373h0a8.219,8.219,0,0,0-7.683,5.248c-1.282,3.337-3.157,7.236-5.237,8.371-3.842,2.1-10.477,3.768-13.969,2.059s-17.461-14.282-19.9-12.885-4.54,4.54-2.1,7.334,15.366,11.175,12.921,13.969-29.683-9.5-33.874-8.418-6.635,3.66-4.191,5.341,20.953,8.664,22,11.109c0,0-27.937-7.334-28.985-5.588s-2.794,4.54,0,5.588,26.89,7.333,28.985,8.381,9.317,3.143,10.77,3.143c.763,0,6.232,1.83,11.253,3.569a24.657,24.657,0,0,0,17.375-.465l2.828-1.153a11.09,11.09,0,0,0,6.887-10.934l-.572-9.526,3.048-7.859Z" fill="#b78876"/>
              </g>
            </g>
          </g>
          <g id="Grupo_1019626" data-name="Grupo 1019626">
            <g id="Grupo_1019619" data-name="Grupo 1019619">
              <path id="Trazado_720759" data-name="Trazado 720759" d="M98.535,131.533s-13.655-23.1-16.881-25.516S49.763,93.638,47.343,94.445s-36.849,7.277-32.816,11.31,28.035-.815,28.035-.815l3.257,1.561s-20.742,3.66-25.079,6.263c-3.992,2.4-2.529,7.307,1.274,6.85s21.816-4.254,22.9-3.53-19.578,5.2-21.788,6.557c-2.974,1.825-3.186,7.169.6,6.844,2.232-.191,21.7-5.564,21.7-5.564s-15.406,6.232-16.813,7.612c-2.3,2.259-.391,5.6,2.954,4.808,2.3-.547,13.164-5.95,16.243-6.675,0,0,2.9.725,5.614,6.52s17.143,17.257,17.143,17.257Z" fill="#b78876"/>
              <g id="Grupo_1019618" data-name="Grupo 1019618">
                <path id="Trazado_720760" data-name="Trazado 720760" d="M14.6,105.841c-.055.188,2.29,1.122,6.32,1.635a37.24,37.24,0,0,0,7.119.178c2.633-.338,5.51-.793,8.537-1.262L43,105.344l-.389-.03c8.564,2.894,14.84,4.767,14.965,4.424s-5.946-2.8-14.463-5.891l-.172-.062-.218.033-6.374.968-8.437,1.378a45.779,45.779,0,0,1-6.892.168C17.078,106.125,14.655,105.6,14.6,105.841Z" fill="#aa6550"/>
              </g>
            </g>
            <g id="Grupo_1019623" data-name="Grupo 1019623">
              <g id="Grupo_1019621" data-name="Grupo 1019621">
                <path id="Trazado_720761" data-name="Trazado 720761" d="M72.964,80.142h0a2.985,2.985,0,0,1-2.983,3.086H67.163v75.394a8.643,8.643,0,0,1-8.643,8.643h0a8.644,8.644,0,0,1-8.643-8.643V83.311l-2.685.032A3.042,3.042,0,0,1,44.115,80.3h0a3.042,3.042,0,0,1,3.041-3.042H69.981A2.984,2.984,0,0,1,72.964,80.142Z" fill="#f5f5f5"/>
                <g id="Grupo_1019620" data-name="Grupo 1019620">
                  <path id="Trazado_720762" data-name="Trazado 720762" d="M72.964,80.142c-.023,0-.019-.241-.149-.682a2.973,2.973,0,0,0-1.173-1.6,2.934,2.934,0,0,0-1.373-.491c-.538-.022-1.164,0-1.822,0l-4.567.036-12.5.065-3.772.015a3.292,3.292,0,0,0-1.8.35,2.876,2.876,0,0,0-1.23,1.368,2.807,2.807,0,0,0,1.062,3.422,3.083,3.083,0,0,0,1.967.436l2.262-.033.277,0v.278c.023,19.38.053,44.942.087,72.881a19.047,19.047,0,0,0,.241,4.384,8.132,8.132,0,0,0,2,3.7A8.306,8.306,0,0,0,56,166.512a8.285,8.285,0,0,0,10.187-4.73,9.491,9.491,0,0,0,.631-3.952q0-2.068,0-4.106c.017-10.857.033-20.991.048-30.121.075-18.2.134-32.383.167-40.375V83.1h.127c1.248-.009,2.378.062,3.29-.012a2.886,2.886,0,0,0,1.919-1.176,3.412,3.412,0,0,0,.592-1.77,2.632,2.632,0,0,1-.484,1.845,3.008,3.008,0,0,1-2,1.294c-.975.1-2.059.045-3.321.075l.128-.128c.033,7.992.092,22.175.168,40.375.014,9.13.03,19.264.048,30.121q0,2.037,0,4.106a10.21,10.21,0,0,1-.677,4.22A9,9,0,0,1,55.78,167.2a9.025,9.025,0,0,1-3.824-2.425,8.835,8.835,0,0,1-2.177-4.025,9.488,9.488,0,0,1-.263-2.3v-2.25c.034-27.939.064-53.5.087-72.881l.277.274-2.262.021a3.626,3.626,0,0,1-2.257-.534,3.316,3.316,0,0,1-1.234-4.053,3.353,3.353,0,0,1,1.455-1.6,3.769,3.769,0,0,1,2.03-.395l3.772.015,12.5.065,4.567.036c.667.013,1.264,0,1.842.033a3.074,3.074,0,0,1,1.444.558,2.988,2.988,0,0,1,1.161,1.7A2.116,2.116,0,0,1,72.964,80.142Z" fill="#263238"/>
                </g>
              </g>
              <path id="Trazado_720763" data-name="Trazado 720763" d="M58.616,164.449h0a6.466,6.466,0,0,0,6.465-6.466V107.774H52.15v50.209A6.466,6.466,0,0,0,58.616,164.449Z" fill="#3076b6"/>
              <g id="Grupo_1019622" data-name="Grupo 1019622">
                <path id="Trazado_720764" data-name="Trazado 720764" d="M52.52,83.447c0-.2,2.931-.36,6.546-.36s6.547.161,6.547.36-2.93.361-6.547.361S52.52,83.647,52.52,83.447Z" fill="#263238"/>
              </g>
              <path id="Trazado_720765" data-name="Trazado 720765" d="M65.081,107.774a2.259,2.259,0,0,0-1.874-1.942,8.666,8.666,0,0,0-3.285.174l-6.344.921a2.12,2.12,0,0,0-1.194.435.734.734,0,0,0,0,1.115" fill="#4db1f0"/>
              <circle id="Elipse_8486" data-name="Elipse 8486" cx="1.956" cy="1.956" r="1.956" transform="translate(58.919 113.206)" fill="#fff" opacity="0.21"/>
              <path id="Trazado_720766" data-name="Trazado 720766" d="M58.871,123.921a.978.978,0,1,0,.978-.978A.978.978,0,0,0,58.871,123.921Z" fill="#fff" opacity="0.21"/>
            </g>
            <g id="Grupo_1019625" data-name="Grupo 1019625">
              <path id="Trazado_720767" data-name="Trazado 720767" d="M95.528,129.86c-1.895,1.821-5.067,1.432-7.341.114s-4.036-3.367-6.209-4.845c-6.5-4.42-15.74-3.192-22.021-7.919-.875-.658-1.749-1.746-1.291-2.742.424-.922,1.661-1.047,2.677-1.039l26.036.194" fill="#b78876"/>
              <g id="Grupo_1019624" data-name="Grupo 1019624">
                <path id="Trazado_720768" data-name="Trazado 720768" d="M87.379,113.623a10.385,10.385,0,0,0-2.813-.31c-1.813-.1-4.435-.2-7.676-.294L65.5,112.775l-3.291-.049c-1.045.064-2.437-.317-3.808.857a2.193,2.193,0,0,0-.385,2.432,4.5,4.5,0,0,0,1.334,1.661,16.968,16.968,0,0,0,3.3,1.959c4.729,2.094,9.534,2.411,13.548,3.633a19.59,19.59,0,0,1,5.381,2.342c1.53,1,2.815,2.234,4.119,3.245,2.532,2.165,5.5,2.9,7.359,2.466,1.918-.4,2.531-1.458,2.466-1.461a7.611,7.611,0,0,1-2.549.889c-1.735.2-4.26-.543-6.612-2.707-1.217-1.024-2.464-2.312-4.094-3.453a20.208,20.208,0,0,0-5.677-2.632c-4.162-1.328-8.959-1.719-13.324-3.672a16.023,16.023,0,0,1-2.99-1.758c-.854-.664-1.283-1.575-.827-1.937.435-.471,1.632-.464,2.747-.446h3.291l11.389-.075c3.242-.042,5.866-.1,7.68-.178A10.39,10.39,0,0,0,87.379,113.623Z" fill="#aa6550"/>
              </g>
            </g>
          </g>
        </g>
      </g>
    </g>
    <g id="Grupo_1019630" data-name="Grupo 1019630">
      <path id="Trazado_720769" data-name="Trazado 720769" d="M484.719,354.642c0,.018-108.517.032-242.348.032C108.494,354.674,0,354.66,0,354.642s108.494-.033,242.371-.033C376.2,354.609,484.719,354.624,484.719,354.642Z" fill="#263238"/>
    </g>
    <g id="Grupo_1019651" data-name="Grupo 1019651">
      <g id="Grupo_1019634" data-name="Grupo 1019634">
        <g id="Grupo_1019632" data-name="Grupo 1019632">
          <path id="Trazado_720770" data-name="Trazado 720770" d="M124.271,195.522V198.7h4.415v28.788l-17.362,38.567a6.59,6.59,0,0,0,6.009,9.3h34.512a6.589,6.589,0,0,0,6-9.31l-18.033-39.789V198.877h4.239v-3.355Z" fill="#f5f5f5"/>
          <g id="Grupo_1019631" data-name="Grupo 1019631">
            <path id="Trazado_720771" data-name="Trazado 720771" d="M124.271,195.522s.1-.008.322-.012l.975-.013,3.834-.029,14.65-.068h.121v.122c0,1.033.006,2.174.009,3.355v.131h-.13l-4.239.01.141-.141c.012,7.678.028,16.968.045,27.375l-.016-.076L152.441,253.6q1.673,3.683,3.393,7.474l1.731,3.816a17.471,17.471,0,0,1,.818,1.981,6.749,6.749,0,0,1,.26,2.173,6.893,6.893,0,0,1-1.56,4.067,6.784,6.784,0,0,1-3.76,2.288l-.554.108-.562.039c-.381.035-.738.02-1.1.023h-6.621l-23.467,0-2.832,0a9.05,9.05,0,0,1-2.839-.3,6.788,6.788,0,0,1-4.292-9.073c.713-1.653,1.455-3.247,2.169-4.843l15.321-33.924-.014.065c.037-12.77.066-22.711.084-28.787l.075.075-4.415-.026h-.05V198.7c.012-1.074.022-1.869.028-2.412.009-.523.021-.767.021-.767s.012.268.021.8l.028,2.383-.049-.05,4.415-.026h.076v.076c.018,6.076.046,16.017.083,28.787v.034l-.014.032-15.238,33.961c-.709,1.592-1.456,3.2-2.156,4.833a6.366,6.366,0,0,0,4.03,8.5,8.644,8.644,0,0,0,2.715.283h2.832l23.467-.005H151.1c.363,0,.736.011,1.082-.023l.527-.035.517-.1a6.342,6.342,0,0,0,3.516-2.138,6.447,6.447,0,0,0,1.461-3.8,6.338,6.338,0,0,0-.24-2.032,17.32,17.32,0,0,0-.8-1.924q-.868-1.92-1.728-3.816l-3.385-7.478c-4.443-9.827-8.615-19.053-12.412-27.448l-.016-.037v-.04c.017-10.407.032-19.7.045-27.375v-.141h.141l4.239.01-.131.13c0-1.181.006-2.322.009-3.355l.122.121-14.578-.068-3.861-.029-1-.012C124.391,195.53,124.271,195.522,124.271,195.522Z" fill="#263238"/>
          </g>
        </g>
        <path id="Trazado_720772" data-name="Trazado 720772" d="M117.656,258.242a5.75,5.75,0,0,1,5.78-3.493h0a32.3,32.3,0,0,0,5.635.413c3.271-.292,6.09-2.295,9-3.819s6.518-2.586,9.391-1l7.3,14.484a5.047,5.047,0,0,1-4.506,7.318H119.4a5.047,5.047,0,0,1-4.65-7.008Z" fill="#4db1f0"/>
        <g id="Grupo_1019633" data-name="Grupo 1019633">
          <path id="Trazado_720773" data-name="Trazado 720773" d="M146.937,253.3a15.205,15.205,0,0,0-3.606,1.977c-1.028.757-2.164,1.775-3.511,2.828a11.684,11.684,0,0,1-4.98,2.5,13.934,13.934,0,0,1-5.564-.332c-1.664-.39-3.131-.811-4.373-1.142l-2.93-.823a5.4,5.4,0,0,1-1.059-.36,5.5,5.5,0,0,1,1.1.194l2.964.686c1.251.292,2.735.684,4.383,1.047a14,14,0,0,0,5.4.3,11.566,11.566,0,0,0,4.812-2.386c1.343-1.02,2.511-2.023,3.577-2.758a11.34,11.34,0,0,1,2.7-1.448,5.187,5.187,0,0,1,.8-.233C146.835,253.3,146.934,253.282,146.937,253.3Z" fill="#fafafa"/>
        </g>
      </g>
      <g id="Grupo_1019638" data-name="Grupo 1019638">
        <g id="Grupo_1019637" data-name="Grupo 1019637">
          <g id="Grupo_1019636" data-name="Grupo 1019636">
            <path id="Trazado_720774" data-name="Trazado 720774" d="M150.415,293.391c-1.057-4.527-4-8.791-8.319-10.521a2.345,2.345,0,0,0-2.4.051,2.57,2.57,0,0,0-.6,1.882l-.387,9.5a6.393,6.393,0,0,0-1.73-3.352c-.985-.813-2.755-.785-3.3.369-.434.91.065,1.958.4,2.91a8.769,8.769,0,0,1-2.408,9.2c-1.748,1.55-4.06,2.328-5.874,3.8a9.567,9.567,0,0,0,4.078,16.793h6.248c3.618-.073,7.846-3.582,10.109-6.407a28.321,28.321,0,0,0,4.73-10.22C152.133,302.9,151.471,297.917,150.415,293.391Z" fill="#e8505b"/>
            <g id="Grupo_1019635" data-name="Grupo 1019635" opacity="0.8">
              <path id="Trazado_720775" data-name="Trazado 720775" d="M150.415,293.391c-1.057-4.527-4-8.791-8.319-10.521a2.345,2.345,0,0,0-2.4.051,2.57,2.57,0,0,0-.6,1.882l-.387,9.5a6.393,6.393,0,0,0-1.73-3.352c-.985-.813-2.755-.785-3.3.369-.434.91.065,1.958.4,2.91a8.769,8.769,0,0,1-2.408,9.2c-1.748,1.55-4.06,2.328-5.874,3.8a9.567,9.567,0,0,0,4.078,16.793h6.248c3.618-.073,7.846-3.582,10.109-6.407a28.321,28.321,0,0,0,4.73-10.22C152.133,302.9,151.471,297.917,150.415,293.391Z" fill="#ffa031"/>
            </g>
          </g>
          <path id="Trazado_720776" data-name="Trazado 720776" d="M130.713,324.027c-2.721-1.389-4.186-5.145-4.188-7.377s1.694-4.664,3.512-5.959c2.1-1.5,5.067-1.638,6.837-3.518,1.348-1.433,1.664-3.528,2.564-5.278.528-1.028,1.466-2.039,2.619-1.955,1.384.1,2.139,1.651,2.444,3,.862,3.822,1.269,9.037-.063,11.841-1.681,3.539-3.84,7.9-8.319,9.242" fill="#ffa031"/>
          <path id="Trazado_720777" data-name="Trazado 720777" d="M145.842,292.139a1.858,1.858,0,0,0-1.079-.528h-.3a1.608,1.608,0,0,0-1.649,1.8,1.569,1.569,0,0,0,1.192,1.344,1.916,1.916,0,0,0,1.759-.533,1.608,1.608,0,0,0,.488-.97A1.445,1.445,0,0,0,145.842,292.139Z" fill="#ffa031"/>
        </g>
        <rect id="Rect치ngulo_348419" data-name="Rect치ngulo 348419" width="8.766" height="21.838" transform="translate(130.261 323.396)" fill="#455a64"/>
        <path id="Trazado_720778" data-name="Trazado 720778" d="M117.907,353.8h0a5.844,5.844,0,0,1,5.844-5.844h21.838a5.845,5.845,0,0,1,5.844,5.844H117.907Z" fill="#263238"/>
        <path id="Trazado_720779" data-name="Trazado 720779" d="M145.589,347.951h-22.3a3.075,3.075,0,0,1,3.075-3.075h16.148a3.076,3.076,0,0,1,3.076,3.075Z" fill="#455a64"/>
      </g>
      <g id="Grupo_1019642" data-name="Grupo 1019642">
        <g id="Grupo_1019639" data-name="Grupo 1019639">
          <path id="Trazado_720780" data-name="Trazado 720780" d="M175.313,205.542c0,.122-13.053.221-29.151.221s-29.154-.1-29.154-.221,13.05-.221,29.154-.221S175.313,205.42,175.313,205.542Z" fill="#263238"/>
        </g>
        <g id="Grupo_1019641" data-name="Grupo 1019641">
          <g id="Grupo_1019640" data-name="Grupo 1019640">
            <path id="Trazado_720781" data-name="Trazado 720781" d="M176.8,352.189c-.122,0-.221-35.275-.221-78.778,0-43.519.1-78.786.221-78.786s.222,35.267.222,78.786C177.023,316.914,176.924,352.189,176.8,352.189Z" fill="#263238"/>
          </g>
          <path id="Trazado_720782" data-name="Trazado 720782" d="M185.528,353.533a8.727,8.727,0,0,0-8.727-8.727h0a8.727,8.727,0,0,0-8.726,8.727Z" fill="#455a64"/>
        </g>
        <path id="Trazado_720783" data-name="Trazado 720783" d="M176.8,201.179a4.363,4.363,0,0,0-4.363,4.363h0A4.363,4.363,0,0,0,176.8,209.9Z" fill="#455a64"/>
      </g>
      <g id="Grupo_1019650" data-name="Grupo 1019650">
        <g id="Grupo_1019644" data-name="Grupo 1019644">
          <path id="Trazado_720784" data-name="Trazado 720784" d="M50.228,174.818l5.144,5.626a8.615,8.615,0,0,1,1.907,8.24l-19.429,66.1a12.534,12.534,0,0,0,12.025,16.068H86.446a13.259,13.259,0,0,0,12.667-17.178L78.835,188.11a8.61,8.61,0,0,1,2.042-8.537l4.606-4.755Z" fill="#f5f5f5"/>
          <g id="Grupo_1019643" data-name="Grupo 1019643">
            <path id="Trazado_720785" data-name="Trazado 720785" d="M50.228,174.818l35.255-.144h.341l-.237.245-3.5,3.63a24.608,24.608,0,0,0-1.768,1.927,8.316,8.316,0,0,0-1.239,2.34,8.488,8.488,0,0,0-.023,5.431q.856,2.757,1.753,5.643c2.388,7.694,4.983,16.055,7.743,24.951l8.731,28.172q.57,1.845,1.148,3.709.288.932.579,1.868c.2.62.386,1.25.532,1.906a13.747,13.747,0,0,1,.363,3.989l-.121,1-.062.5-.119.493-.24.987-.349.956a13.689,13.689,0,0,1-5.021,6.342,13.842,13.842,0,0,1-7.878,2.3l-29.2-.005-7.009,0a12.777,12.777,0,0,1-12.763-13.225c.044-.548.106-1.094.172-1.636.126-.531.239-1.067.374-1.59q.455-1.537.9-3.057.9-3.037,1.767-5.991l3.378-11.456c2.183-7.39,4.216-14.275,6.072-20.56s3.542-11.967,5.019-16.961q1.112-3.741,2.064-6.955c.158-.535.322-1.057.441-1.568a9.051,9.051,0,0,0,.195-1.53,8.608,8.608,0,0,0-.378-2.831,8.708,8.708,0,0,0-1.113-2.3,16.878,16.878,0,0,0-1.467-1.738l-2.4-2.671-1.941-2.172,2.031,2.171,2.418,2.6a16.158,16.158,0,0,1,1.483,1.725,8.711,8.711,0,0,1,1.558,5.228,9.28,9.28,0,0,1-.19,1.567c-.12.529-.281,1.049-.436,1.584q-.934,3.213-2.028,6.966c-1.46,5-3.121,10.69-4.957,16.979s-3.856,13.18-6.02,20.575q-1.625,5.547-3.357,11.462-.865,2.955-1.757,5.994c-.546,2.04-1.375,4.049-1.422,6.187a12.359,12.359,0,0,0,12.355,12.78l7.009,0,29.2,0a13.4,13.4,0,0,0,7.63-2.223,13.263,13.263,0,0,0,4.859-6.136l.339-.924.231-.955.116-.477.059-.486.119-.971a13.352,13.352,0,0,0-.35-3.859c-.139-.628-.322-1.254-.524-1.878s-.386-1.247-.578-1.869l-1.146-3.709c-3.038-9.843-5.952-19.28-8.7-28.181s-5.323-17.268-7.7-24.966q-.888-2.888-1.739-5.647a8.813,8.813,0,0,1,.041-5.636,8.609,8.609,0,0,1,1.293-2.424,24.509,24.509,0,0,1,1.8-1.95l3.516-3.618.1.244Z" fill="#263238"/>
          </g>
        </g>
        <g id="Grupo_1019645" data-name="Grupo 1019645">
          <path id="Trazado_720786" data-name="Trazado 720786" d="M26.312,350.041c-.122,0-.221-37.756-.221-84.319,0-46.579.1-84.327.221-84.327s.222,37.748.222,84.327C26.534,312.285,26.435,350.041,26.312,350.041Z" fill="#263238"/>
        </g>
        <g id="Grupo_1019646" data-name="Grupo 1019646">
          <path id="Trazado_720787" data-name="Trazado 720787" d="M102.421,191.519c0,.122-16.438.221-36.711.221S29,191.641,29,191.519,45.43,191.3,65.71,191.3,102.421,191.4,102.421,191.519Z" fill="#263238"/>
        </g>
        <path id="Trazado_720788" data-name="Trazado 720788" d="M84.832,215.6a22.4,22.4,0,0,1-10.952-.241c-3.439-.954-6.6-2.717-9.985-3.844s-7.257-1.562-10.411.107L41.868,253.72A10.648,10.648,0,0,0,52.133,267.2H84.915a10.649,10.649,0,0,0,10.277-13.439Z" fill="#4db1f0"/>
        <path id="Trazado_720789" data-name="Trazado 720789" d="M35.039,353.8a8.727,8.727,0,0,0-8.727-8.726h0a8.726,8.726,0,0,0-8.726,8.726Z" fill="#455a64"/>
        <path id="Trazado_720790" data-name="Trazado 720790" d="M26.312,197.509a5.522,5.522,0,0,0,5.522-5.522h0a5.522,5.522,0,0,0-5.522-5.522Z" fill="#455a64"/>
        <g id="Grupo_1019647" data-name="Grupo 1019647">
          <path id="Trazado_720791" data-name="Trazado 720791" d="M84.908,175.505a8.507,8.507,0,0,1-1.248.655,15.441,15.441,0,0,1-1.514.666c-.6.233-1.275.531-2.055.763-.771.257-1.619.531-2.55.749-.921.262-1.929.437-2.985.642a38.427,38.427,0,0,1-13.924-.178c-1.051-.232-2.053-.433-2.967-.718-.926-.242-1.767-.537-2.531-.814-.773-.252-1.44-.567-2.035-.815a15.463,15.463,0,0,1-1.5-.7,8.569,8.569,0,0,1-1.23-.687,8.639,8.639,0,0,1,1.3.531c.41.189.914.413,1.518.632s1.269.517,2.042.748c.765.256,1.6.531,2.525.755.909.268,1.9.453,2.946.672a40.273,40.273,0,0,0,13.782.176c1.047-.193,2.047-.352,2.963-.6.927-.2,1.772-.455,2.542-.691.78-.211,1.456-.486,2.062-.7s1.119-.415,1.533-.593A8.7,8.7,0,0,1,84.908,175.505Z" fill="#263238"/>
        </g>
        <g id="Grupo_1019648" data-name="Grupo 1019648" opacity="0.3">
          <path id="Trazado_720792" data-name="Trazado 720792" d="M56.369,263.121c-.01.125-.784.248-2.1-.211a8.826,8.826,0,0,1-4.3-3.841,11.562,11.562,0,0,1-1.407-3.8A17.028,17.028,0,0,1,48.4,250.7a69.322,69.322,0,0,1,2.063-9.873c3.453-13.687,6.731-24.658,7.323-24.508s-1.725,11.362-5.177,25.049a90.845,90.845,0,0,0-2.181,9.544,16.436,16.436,0,0,0-.049,4.081,10.753,10.753,0,0,0,.972,3.339,9.155,9.155,0,0,0,3.3,3.808C55.693,262.766,56.4,262.948,56.369,263.121Z" fill="#fff"/>
        </g>
        <g id="Grupo_1019649" data-name="Grupo 1019649">
          <path id="Trazado_720793" data-name="Trazado 720793" d="M83.7,221.71a6.226,6.226,0,0,1-1.1.526c-.721.306-1.771.739-3.108,1.181a18.966,18.966,0,0,1-4.854.972A12.46,12.46,0,0,1,71.7,224.2a15.49,15.49,0,0,1-3.013-.939c-1.989-.837-3.757-1.854-5.438-2.6a15.154,15.154,0,0,0-4.655-1.311,8.3,8.3,0,0,0-3.231.288c-.736.238-1.113.459-1.134.42-.008-.014.081-.076.259-.184a5.275,5.275,0,0,1,.819-.4,7.839,7.839,0,0,1,3.311-.437,14.825,14.825,0,0,1,4.794,1.249c1.715.734,3.493,1.741,5.445,2.562a15.514,15.514,0,0,0,2.926.921,12.314,12.314,0,0,0,2.838.212,19.787,19.787,0,0,0,4.78-.863c1.335-.4,2.4-.786,3.138-1.043A6.56,6.56,0,0,1,83.7,221.71Z" fill="#fafafa"/>
        </g>
      </g>
    </g>
  </g>
</svg>
