<svg xmlns="http://www.w3.org/2000/svg" width="181" height="181" viewBox="0 0 181 181">
  <g id="Grupo_1004758" data-name="Grupo 1004758" transform="translate(-399 -862)">
    <circle id="Elipse_8399" data-name="Elipse 8399" cx="90.5" cy="90.5" r="90.5" transform="translate(399 862)" fill="#fff"/>
    <g id="Grupo_1023058" data-name="Grupo 1023058" transform="translate(436.198 886.962)">
      <g id="Grupo_1023056" data-name="Grupo 1023056" transform="translate(1.562 5.6)">
        <path id="Trazado_723432" data-name="Trazado 723432" d="M330.921,61.781l-16.4-16.4a1.174,1.174,0,0,1,0-1.661l5.938-5.938a1.174,1.174,0,0,1,1.661,0l16.4,16.4a1.174,1.174,0,0,1,0,1.661l-5.938,5.938A1.174,1.174,0,0,1,330.921,61.781Z" transform="translate(-250.324 -32.047)" fill="#ffa031"/>
        <path id="Trazado_723433" data-name="Trazado 723433" d="M378.433,94.094l-6.246-6.246a1.174,1.174,0,0,1,0,1.661l-5.938,5.938a1.174,1.174,0,0,1-1.661,0l6.246,6.246a1.174,1.174,0,0,0,1.661,0l5.938-5.938A1.174,1.174,0,0,0,378.433,94.094Z" transform="translate(-290.238 -71.959)" fill="#fdc102"/>
        <path id="Trazado_723434" data-name="Trazado 723434" d="M376.943,30.742,366.407,20.206l6.486-6.486a7.45,7.45,0,0,1,10.536,0h0a7.45,7.45,0,0,1,0,10.536Z" transform="translate(-291.678 -11.538)" fill="#ffa031"/>
        <path id="Trazado_723435" data-name="Trazado 723435" d="M411.616,13.721h0a7.453,7.453,0,0,0-8.391-1.5,7.433,7.433,0,0,1,2.145,1.5h0a7.45,7.45,0,0,1,0,10.536l-3.363,3.363,3.123,3.123,6.486-6.486A7.45,7.45,0,0,0,411.616,13.721Z" transform="translate(-319.866 -11.539)" fill="#f6ab31"/>
        <path id="Trazado_723436" data-name="Trazado 723436" d="M198.447,89.667l-30.289,30.289A5.146,5.146,0,0,0,167.1,125.7a1.537,1.537,0,0,1-.295,1.726l-2.21,2.21a2.456,2.456,0,0,0,0,3.474l.942.942a2.456,2.456,0,0,0,3.474,0l2.21-2.21a1.537,1.537,0,0,1,1.726-.295,5.145,5.145,0,0,0,5.745-1.056L208.982,100.2Z" transform="translate(-131.317 -73.4)" fill="#f9efe9"/>
        <path id="Trazado_723437" data-name="Trazado 723437" d="M204.823,120.267l-30.289,30.289a5.146,5.146,0,0,1-5.745,1.056,1.537,1.537,0,0,0-1.726.295l-2.21,2.21a2.448,2.448,0,0,1-.772.521,2.456,2.456,0,0,0,.521,2.7l.942.942a2.456,2.456,0,0,0,3.474,0l2.21-2.21a1.537,1.537,0,0,1,1.726-.295,5.145,5.145,0,0,0,5.745-1.056l30.289-30.289Z" transform="translate(-131.323 -97.628)" fill="#f3e6df"/>
        <path id="Trazado_723438" data-name="Trazado 723438" d="M139.187,338.342a5.1,5.1,0,1,1-10.209,0c0-2.166,3.013-6.779,4.409-8.8a.845.845,0,0,1,1.391,0C136.174,331.562,139.187,336.176,139.187,338.342Z" transform="translate(-103.685 -263.04)" fill="#3076b6"/>
        <path id="Trazado_723439" data-name="Trazado 723439" d="M108.876,443.614H9.605A2.1,2.1,0,0,1,7.5,441.509V430.77a2.1,2.1,0,0,1,2.105-2.105h99.271a2.1,2.1,0,0,1,2.105,2.105v10.739A2.1,2.1,0,0,1,108.876,443.614Z" transform="translate(-7.5 -341.814)" fill="#f9efe9"/>
        <path id="Trazado_723440" data-name="Trazado 723440" d="M7.5,468.384v4.574a2.1,2.1,0,0,0,2.105,2.105h99.271a2.1,2.1,0,0,0,2.105-2.105v-4.574Z" transform="translate(-7.5 -373.263)" fill="#4db1f0"/>
      </g>
      <g id="Grupo_1023057" data-name="Grupo 1023057" transform="translate(0 4.038)">
        <path id="Trazado_723441" data-name="Trazado 723441" d="M102.938,439.237H3.667A3.671,3.671,0,0,1,0,435.57V424.832a3.671,3.671,0,0,1,3.667-3.667H75.042a1.562,1.562,0,0,1,0,3.123H3.667a.544.544,0,0,0-.543.543V435.57a.544.544,0,0,0,.543.543h99.271a.544.544,0,0,0,.543-.543V424.832a.544.544,0,0,0-.543-.543H82.746a1.562,1.562,0,0,1,0-3.123h20.192a3.671,3.671,0,0,1,3.667,3.667V435.57A3.671,3.671,0,0,1,102.938,439.237Z" transform="translate(0 -334.314)"/>
        <path id="Trazado_723442" data-name="Trazado 723442" d="M325.813,57.748a2.718,2.718,0,0,1-1.935-.8l-16.4-16.4a2.736,2.736,0,0,1,0-3.869l5.938-5.938a2.736,2.736,0,0,1,3.87,0l16.4,16.4a2.736,2.736,0,0,1,0,3.869l-5.938,5.938A2.716,2.716,0,0,1,325.813,57.748Zm.274-3.01h0ZM309.962,38.614l15.85,15.85,5.391-5.391-15.85-15.85Z" transform="translate(-242.825 -24.547)"/>
        <path id="Trazado_723443" data-name="Trazado 723443" d="M371,26.365a1.562,1.562,0,0,1-1.1-.457L359.365,15.372a1.561,1.561,0,0,1,0-2.208l6.486-6.486a9.011,9.011,0,1,1,12.744,12.744l-6.486,6.486A1.562,1.562,0,0,1,371,26.365Zm-8.327-12.1L371,22.595l5.382-5.382a5.888,5.888,0,0,0-8.327-8.327Z" transform="translate(-284.178 -4.038)"/>
        <path id="Trazado_723444" data-name="Trazado 723444" d="M161.337,153.388a4,4,0,0,1-2.841-1.175l-.942-.942a4.018,4.018,0,0,1,0-5.682l2.187-2.187,0-.006a6.743,6.743,0,0,1,1.377-7.489l24.242-24.242a1.562,1.562,0,1,1,2.209,2.208l-24.243,24.242a3.6,3.6,0,0,0-.736,4,3.081,3.081,0,0,1-.615,3.47l-2.21,2.21a.895.895,0,0,0,0,1.265l.942.942a.9.9,0,0,0,1.265,0l2.21-2.21a3.081,3.081,0,0,1,3.469-.615,3.6,3.6,0,0,0,4-.736l30.289-30.289a1.562,1.562,0,0,1,2.209,2.208l-30.289,30.289a6.743,6.743,0,0,1-7.489,1.377l-.006,0-2.187,2.187A4,4,0,0,1,161.337,153.388Z" transform="translate(-123.817 -88.894)"/>
        <path id="Trazado_723445" data-name="Trazado 723445" d="M128.144,339.069a6.674,6.674,0,0,1-6.666-6.666c0-1.926,1.576-5.186,4.686-9.689a2.407,2.407,0,0,1,3.961,0c3.109,4.5,4.686,7.763,4.686,9.689A6.674,6.674,0,0,1,128.144,339.069Zm0-13.712c-2.442,3.66-3.543,6.154-3.543,7.046a3.543,3.543,0,0,0,7.085,0C131.687,331.573,130.745,329.25,128.144,325.358Z" transform="translate(-96.185 -255.54)"/>
        <path id="Trazado_723446" data-name="Trazado 723446" d="M105.043,464.007H1.562a1.562,1.562,0,0,1,0-3.123H105.043a1.562,1.562,0,0,1,0,3.123Z" transform="translate(0 -365.763)"/>
      </g>
    </g>
  </g>
</svg>
