<svg xmlns="http://www.w3.org/2000/svg" width="400" height="263.312" viewBox="0 0 400 263.312">
  <g id="Grupo_1018714" data-name="Grupo 1018714" transform="translate(-31.934 -168.574)">
    <path id="Trazado_720227" data-name="Trazado 720227" d="M231.762,168.574c-4.643,0-9.544.146-14.568.436A244.734,244.734,0,0,0,185.422,173a231.933,231.933,0,0,0-32.682,8.814A218.779,218.779,0,0,0,124.066,194.2c-.314.162-.585.3-.854.448-3.183,1.683-6.3,3.428-9.3,5.2l-.493.295c-2.149,1.289-4.275,2.615-6.336,3.95-2.394,1.548-4.882,3.247-7.609,5.195-4.813,3.443-9.52,7.169-13.99,11.076-1.979,1.73-3.992,3.566-5.984,5.457-2.151,2.043-4.316,4.221-6.616,6.658a166.349,166.349,0,0,0-11.716,13.881,158.077,158.077,0,0,0-9.653,14.4c-1.244,2.089-2.5,4.352-3.85,6.918-1.514,2.885-2.98,5.959-4.479,9.4-1.085,2.482-2.165,5.214-3.3,8.353-1.033,2.848-2.006,5.894-2.977,9.309-.8,2.809-1.521,5.786-2.213,9.1-.688,3.288-1.258,6.739-1.74,10.552a133.493,133.493,0,0,0,4.245,53.56,137.989,137.989,0,0,0,4.964,14.214l.054.133.08.2c.876,2.1,1.8,4.2,2.772,6.264.831,1.774,1.774,3.664,2.883,5.777,1.857,3.541,3.924,7.088,6.317,10.845.088.139.162.253.235.37l.067.1.068.105q1.8,2.772,3.782,5.587c1.325,1.875,2.749,3.792,4.354,5.857l.33.424c1.624,2.057,3.3,4.092,5.007,6.07a.5.5,0,0,0,.126.966h.717l.727.827a.411.411,0,0,0,.628,0,.514.514,0,0,0,.128-.349.529.529,0,0,0-.128-.355l-.119-.133,113.915.01H393.678l-.051.051,0,0-.491.548-.479.535a.529.529,0,0,0-.129.354.535.535,0,0,0,.129.354.411.411,0,0,0,.311.144.418.418,0,0,0,.313-.144l.4-.439.4-.441.065-.079.042-.054,0,0q.221-.246.439-.5l.055-.057.066-.076.09-.1.042-.047,1.551-.045a.5.5,0,0,0,0-1h-.653l.08-.077c.047-.055.071-.085.1-.115l.651-.758.038-.054,0,.006.086-.1.329-.393.3-.359.074-.085c1.807-2.164,3.573-4.385,5.248-6.606l.21-.278.179-.24.084-.111.036-.053.143-.19.139-.185.512-.693a.594.594,0,0,0,.041-.062c1.944-2.666,3.8-5.379,5.524-8.062l.2-.317.346-.545.159-.253c.2-.311.364-.581.53-.85.306-.5.59-.965.873-1.433l.082-.131.073-.123.135-.223.131-.218c.829-1.4,1.55-2.652,2.225-3.863.932-1.664,1.9-3.494,2.958-5.593,1.71-3.388,3.314-6.95,4.9-10.888l.076-.185.114-.291a.409.409,0,0,0,.023-.068c.642-1.631,1.267-3.3,1.859-4.958.692-1.941,1.371-4.029,2.136-6.571a134.7,134.7,0,0,0,3.563-15.151,133.372,133.372,0,0,0,.494-42.862,134.468,134.468,0,0,0-3.357-15.741,136.9,136.9,0,0,0-4.58-13.691,141.463,141.463,0,0,0-6.472-14.137q-1.131-2.146-2.359-4.318c-.87-1.536-1.832-3.153-3.03-5.09-2.1-3.394-4.438-6.834-7.148-10.516-2.239-3.04-4.7-6.122-7.532-9.42-2.65-3.09-5.522-6.176-8.779-9.438a184.238,184.238,0,0,0-17.232-15.133,195.589,195.589,0,0,0-19.99-13.583l-.135-.08c-4.336-2.562-8.77-4.979-13.208-7.2-4.246-2.127-8.815-4.215-13.577-6.206a225.585,225.585,0,0,0-29.422-9.923l-.071-.019-.06-.018-.316-.082-.309-.08c-3.987-1.028-8.051-1.967-12.112-2.8-3.6-.739-7.406-1.416-11.628-2.068-6.674-1.03-13.675-1.793-20.807-2.27-.091-.007-.16-.012-.226-.015-5.184-.332-10.445-.508-15.64-.524-.228,0-.458,0-.686,0M41.244,284.3l0-.024.029-.046q-.1.258-.2.516c.049-.133.1-.267.147-.4l.011-.031h0v0l.009-.023Z" transform="translate(0)" fill="#e1f1fb"/>
    <g id="Grupo_1018709" data-name="Grupo 1018709" transform="translate(61.276 168.574)">
      <path id="Trazado_720228" data-name="Trazado 720228" d="M109.082,176.442c-.231,0-.463,0-.693.015a19.068,19.068,0,0,0-10.682,4.11,18.772,18.772,0,0,0-6.453,9.024,13.549,13.549,0,0,0-.323,6.92c.063.282.136.565.217.841a11.722,11.722,0,0,0-2.758-.328c-.267,0-.539.007-.811.03-3.8.267-7.629,2.375-10.8,5.932a27.569,27.569,0,0,0-3.846,5.657,30.3,30.3,0,0,0-2.46,6.515,25.11,25.11,0,0,0-.774,6.661,17.011,17.011,0,0,0,1.2,6.091,13.122,13.122,0,0,0,1.456,2.663,12.026,12.026,0,0,0,2.073,2.238,13.915,13.915,0,0,0,6.117,2.842c.194.04.388.077.586.11a22.185,22.185,0,0,0-1.416,9.835,24.887,24.887,0,0,0,1.515,6.926,24.62,24.62,0,0,0,3.333,6.006,24.309,24.309,0,0,0,2.049,2.412,20.457,20.457,0,0,0,2.185,1.925,16.272,16.272,0,0,0,4.6,2.456,14.962,14.962,0,0,0,4.892.795,17.739,17.739,0,0,0,4.763-.666,23.954,23.954,0,0,0,9-5,31.183,31.183,0,0,0,6.9-8.512,29.242,29.242,0,0,0,2.919-7.482,71.588,71.588,0,0,0,8.4-30.886A67.253,67.253,0,0,0,129.7,200.1,41.683,41.683,0,0,0,126.41,188.8a25.975,25.975,0,0,0-2.933-4.883,21.35,21.35,0,0,0-1.885-2.156,19.669,19.669,0,0,0-2.171-1.859,17.845,17.845,0,0,0-5.166-2.626,16.845,16.845,0,0,0-5.174-.832" transform="translate(-63.609 -169.06)" fill="#792013"/>
      <path id="Trazado_720229" data-name="Trazado 720229" d="M85.872,244.2a.367.367,0,0,0-.348.374,18.86,18.86,0,0,0,.719,5.178,16.362,16.362,0,0,0,2.038,4.457,16.965,16.965,0,0,0,7.008,6.055,14.141,14.141,0,0,0,4.339,1.271,15.087,15.087,0,0,0,2.346.1,13.658,13.658,0,0,0,2.352-.315,10.57,10.57,0,0,0,2.074-.674,12.764,12.764,0,0,0,2.17-1.209,13.66,13.66,0,0,0,1.971-1.7,15.2,15.2,0,0,0,1.719-2.2,14.129,14.129,0,0,0,.928-1.634,15.768,15.768,0,0,0,.831-2.184,1.156,1.156,0,0,0-2.144-.813c-.315.681-.663,1.348-1.023,2a17.64,17.64,0,0,1-1.019,1.658,14.466,14.466,0,0,1-2.176,2.38,12.768,12.768,0,0,1-2.426,1.553,12.632,12.632,0,0,1-2.863.9,12.264,12.264,0,0,1-2.925.094,15.321,15.321,0,0,1-3.584-.827,15.831,15.831,0,0,1-3.313-1.8,15.216,15.216,0,0,1-4.915-5.97l.03.069a15.455,15.455,0,0,1-1.213-3.851c.007.033.01.066.018.1a16.764,16.764,0,0,1-.22-2.671.363.363,0,0,0-.361-.349h-.013m6.675,12.674c.037.026.073.053.109.08ZM87.631,250.9c-.007-.015-.014-.029-.022-.044.008.015.015.029.022.044" transform="translate(-64.587 -173.246)" fill="#63190e"/>
      <path id="Trazado_720230" data-name="Trazado 720230" d="M106.2,245.132a12.134,12.134,0,0,1-.759,1.263A9.558,9.558,0,0,1,103.953,248a9.005,9.005,0,0,1-1.706,1.09c-.3.137-.614.257-.932.364a8.6,8.6,0,0,1-1.079.262,6.545,6.545,0,0,1-1.574.046l.088.011a6.934,6.934,0,0,1-1.661-.356l.029.012c-.129-.05-.257-.1-.385-.156a.261.261,0,0,0-.344.1.254.254,0,0,0,.106.344,11.409,11.409,0,0,0,1.43.531,7.1,7.1,0,0,0,1.575.261,7.25,7.25,0,0,0,3.1-.492,9.5,9.5,0,0,0,2.653-1.616,12.24,12.24,0,0,0,2.28-2.561.711.711,0,0,0,.054-.586.771.771,0,0,0-.362-.44.742.742,0,0,0-.354-.087.765.765,0,0,0-.676.4" transform="translate(-65.257 -173.279)" fill="#63190e"/>
      <path id="Trazado_720231" data-name="Trazado 720231" d="M77.655,214.163a19.114,19.114,0,0,0-1.419,4.385,18.588,18.588,0,0,0-.267,2.332,15.64,15.64,0,0,0,.04,2.418,9.582,9.582,0,0,0,1.536,4.377,8.289,8.289,0,0,0,1.565,1.715,9.177,9.177,0,0,0,2.24,1.392,1.026,1.026,0,0,0,.751.07.97.97,0,0,0,.634-1.222,1,1,0,0,0-.7-.652c-.187-.06-.372-.12-.559-.189a7.426,7.426,0,0,1-1.363-.721,7.625,7.625,0,0,1-1.214-1.132A9.016,9.016,0,0,1,77.86,225.3a11.592,11.592,0,0,1-.83-2.726,12.943,12.943,0,0,1-.1-3.271,17.153,17.153,0,0,1,.906-4.112l0,.009.006-.016.02-.053-.01.029q.142-.37.3-.729a.285.285,0,0,0-.114-.378.279.279,0,0,0-.129-.03.267.267,0,0,0-.248.145m1.272,12.814.037.046-.037-.046m1.055,1.006c.033.023.066.044.1.068l-.1-.068m-2.149-12.8,0,.007.011-.031-.009.024" transform="translate(-63.995 -171.382)" fill="#63190e"/>
      <path id="Trazado_720232" data-name="Trazado 720232" d="M171.191,168.574c-2.011,0-4.042.093-6.037.275a63.409,63.409,0,0,0-12.979,2.573,51.178,51.178,0,0,0-11.443,5.1,48.884,48.884,0,0,0-5.469,3.885,55.337,55.337,0,0,0-5.184,4.8,54.145,54.145,0,0,0-8.243,11.257,50.229,50.229,0,0,0-4.949,12.917,45.693,45.693,0,0,0-1.045,13.864,45.046,45.046,0,0,0,10.766,25.766,42.108,42.108,0,0,0,5.037,4.915,37.99,37.99,0,0,0,5.8,3.929,33.923,33.923,0,0,0,5.166,2.317.71.71,0,0,0,.331.472.646.646,0,0,0,.343.091,1.616,1.616,0,0,0,.205-.017,74.812,74.812,0,0,0,13.354-3.6c1.142-.385,2.283-.768,3.425-1.138,1.542-.5,2.9-.9,4.159-1.242,1.123-.3,2.257-.581,3.387-.858l.506-.124c2.336-.573,4.679-1.123,7.022-1.674l.831-.2,1.366-.319c10.1-2.36,20.536-4.8,30.425-8.451,3.24-1.2,6.311-2.5,9.13-3.86a.531.531,0,0,0,.144.063.684.684,0,0,0,.189.026.732.732,0,0,0,.688-.524c.515-1.6,1.057-3.2,1.6-4.8,1.284-3.786,2.611-7.7,3.544-11.659a50.942,50.942,0,0,0,1.246-8.267c.149-2.2.236-4.319.257-6.311A61.59,61.59,0,0,0,223.55,194a30.9,30.9,0,0,0-2.072-6.28,19.27,19.27,0,0,0-3.751-5.452,14.861,14.861,0,0,0-4.511-3.136,16.114,16.114,0,0,0-2.468-.861,20.485,20.485,0,0,0-2.711-.494,32.461,32.461,0,0,0-3.981-.209c-.494,0-.993.007-1.488.015-.3,0-.6.012-.9.021l-.454.012c-5.946-4.548-13.786-7.523-22.665-8.6a61.065,61.065,0,0,0-7.364-.436" transform="translate(-66.452 -168.574)" fill="#792013"/>
      <path id="Trazado_720233" data-name="Trazado 720233" d="M131.465,185c-.964.758-1.9,1.55-2.8,2.386-.923.861-1.8,1.773-2.635,2.715a40.584,40.584,0,0,0-4.511,6.1,41.034,41.034,0,0,0-3.273,6.857c-.435,1.194-.813,2.411-1.147,3.639s-.6,2.467-.832,3.716a59.794,59.794,0,0,0-.942,16.382,37.805,37.805,0,0,0,1.6,8.029,34.961,34.961,0,0,0,3.383,7.279,39.449,39.449,0,0,0,5.7,7.315.346.346,0,0,0,.433.015.352.352,0,0,0,.084-.494,42.241,42.241,0,0,1-3.108-3.841,37.822,37.822,0,0,1-2.565-4.156l.066.121a38.752,38.752,0,0,1-3.449-9.06c.011.055.026.111.037.165a43.725,43.725,0,0,1-1.1-11.445c0,.059,0,.114,0,.173a58.03,58.03,0,0,1,.81-7.854,57.106,57.106,0,0,1,1.693-7.25c-.008.032-.017.062-.026.093a53.083,53.083,0,0,1,5.7-12.426c-.025.037-.047.074-.073.111a37.289,37.289,0,0,1,2.58-3.574,33.5,33.5,0,0,1,3.085-3.279c.5-.463,1.023-.91,1.558-1.335a.234.234,0,0,0,.055-.326.247.247,0,0,0-.2-.1.206.206,0,0,0-.129.044m-12.611,20.985c.011-.035.022-.068.032-.1-.01.034-.022.068-.032.1" transform="translate(-66.415 -169.586)" fill="#63190e"/>
      <path id="Trazado_720234" data-name="Trazado 720234" d="M226.295,218.9a10.889,10.889,0,0,0-4.241,1c-.11.048-.216.1-.323.147a.771.771,0,0,0-.407.467.919.919,0,0,0,.052.719.854.854,0,0,0,.363.359,24.331,24.331,0,0,0-1.031,9.983,25.193,25.193,0,0,0,1.207,5.837,21.42,21.42,0,0,0,1.117,2.769,17.389,17.389,0,0,0,1.543,2.512,10.9,10.9,0,0,0,1.8,1.93c.184.154.368.3.558.443l-.107.04c-.254.131-.507.263-.753.41a1.413,1.413,0,0,0-.694,1.549,1.437,1.437,0,0,0,1.362,1.074,1.319,1.319,0,0,0,.321-.04A7.317,7.317,0,0,0,229.3,247a13.02,13.02,0,0,0,1.2-.9,11.12,11.12,0,0,0,1.662-1.837,15.408,15.408,0,0,0,2.226-4.518,23.276,23.276,0,0,0,1-5.32,23.849,23.849,0,0,0-.209-5.408,17.447,17.447,0,0,0-1.422-4.8,10.242,10.242,0,0,0-2.616-3.529,8.257,8.257,0,0,0-1.945-1.215,7.529,7.529,0,0,0-2.892-.576" transform="translate(-72.932 -171.683)" fill="#f0bea9"/>
      <path id="Trazado_720235" data-name="Trazado 720235" d="M227.93,222.835a6.235,6.235,0,0,0-1.506.48,7.966,7.966,0,0,0-2.7,2.085,9.449,9.449,0,0,0-.982,1.422,9.168,9.168,0,0,0-.733,1.686,6.692,6.692,0,0,0-.257,3.313.572.572,0,0,0,.169.356.537.537,0,0,0,.385.136.53.53,0,0,0,.356-.173.506.506,0,0,0,.136-.381,6.552,6.552,0,0,1-.053-1.314,8.878,8.878,0,0,1,.426-2,9.889,9.889,0,0,1,1.064-2.083h0a9.527,9.527,0,0,1,1.532-1.711c-.026.025-.055.047-.081.073a6.651,6.651,0,0,1,1.367-.909l-.081.037a5.833,5.833,0,0,1,1.3-.442,4.909,4.909,0,0,1,1.088-.071c-.026,0-.052,0-.077-.007.04,0,.077.007.117.007a.3.3,0,0,0,.216-.04.286.286,0,0,0,.129-.187.291.291,0,0,0-.227-.344c-.181-.013-.36-.022-.539-.022a5.861,5.861,0,0,0-1.044.091m-4.766,5.611c-.008.024-.018.05-.027.074.008-.025.018-.05.027-.074" transform="translate(-72.997 -171.921)" fill="#da8c67"/>
      <path id="Trazado_720236" data-name="Trazado 720236" d="M193.676,186.63c-1.121,0-2.286.045-3.464.136a64.427,64.427,0,0,0-10.773,1.773,86.54,86.54,0,0,0-10.106,3.17,76.209,76.209,0,0,0-8.419,3.761,43.338,43.338,0,0,0-9.268,6.5,33.643,33.643,0,0,0-7.661,10.4,32.846,32.846,0,0,0-2.043,5.793,35.849,35.849,0,0,0-.949,6.067,45.49,45.49,0,0,0,.967,12.569,65.45,65.45,0,0,0,4.15,12.705c.913,2.112,1.93,4.208,3.023,6.234a66.233,66.233,0,0,0,4.359,6.735l.906,1.266a57.617,57.617,0,0,1,6.47,10.552l0-.013c.011.028.023.053.023.053.143.347.274.684.4,1.025a.758.758,0,0,0,.33.426,1.147,1.147,0,0,0,.108.052c.109.241.219.491.325.738a27.491,27.491,0,0,1,1.725,6.647l.016.105a35.576,35.576,0,0,1-.016,9.1l.04-.186a28.6,28.6,0,0,1-1.791,6.8h0a18.95,18.95,0,0,1-2.278,4,14.466,14.466,0,0,1-1.813,1.926.643.643,0,0,0-.209.468.744.744,0,0,0,.208.543.7.7,0,0,0,.3.178,143.981,143.981,0,0,0,9.363,12.037,129.644,129.644,0,0,0,11.237,11.49,97.6,97.6,0,0,0,12.568,9.662,71.408,71.408,0,0,0,6.609,3.749,18.23,18.23,0,0,0,2.383,1.019,10.54,10.54,0,0,0,2.014.451,7.043,7.043,0,0,0,.913.059,6.486,6.486,0,0,0,2.4-.445,7.112,7.112,0,0,0,2.668-1.9,11.7,11.7,0,0,0,1.892-3,22.945,22.945,0,0,0,1.316-3.853,39.606,39.606,0,0,0,.825-4.318c.206-1.452.368-2.978.494-4.662.206-2.743.278-5.449.323-8.67l.014-1.156c.013-1.157.026-2.314.07-3.47.036-.961.077-1.919.118-2.879.14-3.238.285-6.588.186-9.887a.711.711,0,0,0-1.174-.542,16.8,16.8,0,0,1-3.263-.932.42.42,0,0,0-.042-.019h0l-.008,0h0a15.809,15.809,0,0,1-3.242-1.894,17.573,17.573,0,0,1-2.989-3.022,21.688,21.688,0,0,1-2.612-4.524l-.074-.145.008,0a27.482,27.482,0,0,1-1.758-6.583,28.8,28.8,0,0,1-.25-3.843,48.23,48.23,0,0,0,6.95-2.4,43.907,43.907,0,0,0,6.191-3.272,32.519,32.519,0,0,0,5.576-4.429,28.219,28.219,0,0,0,4.216-5.409,28.514,28.514,0,0,0,2.731-6.1,34.146,34.146,0,0,0,1.3-13.523,58.415,58.415,0,0,0-1.323-7.588c-.555-2.394-1.228-4.934-2.18-8.231-.535-1.851-1.09-3.7-1.645-5.541-.767-2.548-1.561-5.185-2.285-7.8a101.1,101.1,0,0,1-2.921-13.65l0,.19c-.1-.919-.205-1.835-.293-2.755a.758.758,0,0,0-.208-.5.712.712,0,0,0-.3-.178,17.3,17.3,0,0,0-1.974-3.52,16.153,16.153,0,0,0-1.522-1.788,16.681,16.681,0,0,0-1.741-1.522,20.176,20.176,0,0,0-8.408-3.593,33.964,33.964,0,0,0-6.716-.63" transform="translate(-68.008 -169.69)" fill="#f6cfbe"/>
      <path id="Trazado_720237" data-name="Trazado 720237" d="M190.211,186.739a65.151,65.151,0,0,0-10.778,1.782,84.562,84.562,0,0,0-10.108,3.174,74.234,74.234,0,0,0-8.418,3.759,43.4,43.4,0,0,0-9.272,6.5,33.553,33.553,0,0,0-7.663,10.412,32.533,32.533,0,0,0-2.044,5.791,35.916,35.916,0,0,0-.954,6.076,45.8,45.8,0,0,0,.968,12.579q.45,2.155,1.1,4.351.787-.22,1.572-.445c-.007,0-.013,0-.018,0l.024-.007a.187.187,0,0,1,.035-.011l-.008,0a126.051,126.051,0,0,0,30.584-13.062l-.054.033q1.561-.957,3.086-1.971,1.237-.83,2.459-1.682c1.693-1.184,3.364-2.393,5-3.651a81.28,81.28,0,0,0,9.665-8.569l-.044.044a39.541,39.541,0,0,0,6.023-8.064.053.053,0,0,0-.009.012c.209-.385.407-.777.6-1.177a.251.251,0,0,1,.22-.15.2.2,0,0,1,.039,0h.012a.226.226,0,0,1,.154.058A30.139,30.139,0,0,0,205.7,205.2l-.048-.037a24.76,24.76,0,0,0,2.745,1.649,23.529,23.529,0,0,0,2.741,1.2h-.01a21.132,21.132,0,0,0,2.467.7,18.777,18.777,0,0,0,2.4.363c-.022,0-.043,0-.066,0,.15.011.3.022.451.029-.682-2.932-1.177-5.6-1.521-8.173l-.038.188c-.029-.547-.083-1.089-.143-1.635l-.11-1.117a.786.786,0,0,0-.213-.521.71.71,0,0,0-.308-.175,17.072,17.072,0,0,0-1.967-3.522,16.478,16.478,0,0,0-1.521-1.788,17.764,17.764,0,0,0-1.745-1.522,20.3,20.3,0,0,0-8.415-3.6,34.081,34.081,0,0,0-6.721-.63c-1.066,0-2.232.048-3.463.135M201.349,203.8a.206.206,0,0,1-.015.029.206.206,0,0,0,.015-.029" transform="translate(-68.006 -169.688)" fill="#f0bea9"/>
      <path id="Trazado_720238" data-name="Trazado 720238" d="M173.433,282.235a.038.038,0,0,0,.01.015l0-.008s0,.008.007.008a42.914,42.914,0,0,0,9.133,6.358c-.019-.008-.037-.019-.055-.025a38.074,38.074,0,0,0,9.445,3.463l-.063-.011a30.213,30.213,0,0,0,3.676.55,27.294,27.294,0,0,0,3.46.055h0a.044.044,0,0,1,.022,0h.023c.737-.048,1.469-.125,2.194-.238a28.731,28.731,0,0,1-.791-3.786,28.445,28.445,0,0,1-.25-3.845q.232-.058.464-.12c-.539.1-1.084.175-1.63.23-.414.041-.829.075-1.247.094q-1.659.213-3.334.3a53.863,53.863,0,0,1-7.546-.121,55.113,55.113,0,0,1-7.425-1.129,43.142,43.142,0,0,1-6.168-1.854c.025.022.052.044.074.066" transform="translate(-70.014 -175.592)" fill="#da8c67"/>
      <path id="Trazado_720239" data-name="Trazado 720239" d="M200.763,293.327l-.023,0h0a.183.183,0,0,1,.047,0Z" transform="translate(-71.705 -176.281)" fill="#da8c67"/>
      <path id="Trazado_720240" data-name="Trazado 720240" d="M190.96,182.371c-1.9,0-3.9.1-6.111.315a71.606,71.606,0,0,0-26.384,7.708,55.736,55.736,0,0,0-11.238,7.785,45.784,45.784,0,0,0-8.67,10.466,30.673,30.673,0,0,0-1.855,3.64,42.619,42.619,0,0,0-1.6,4.289,36.651,36.651,0,0,0-1.118,4.5,25.154,25.154,0,0,0-.436,4.462c0,3.124.777,5.447,2.323,6.9a6.078,6.078,0,0,0,3.263,1.542,9.36,9.36,0,0,0,1.425.107,14.047,14.047,0,0,0,3.46-.485.687.687,0,0,0,.457-.386,77.636,77.636,0,0,0,7.793-1.795c2.164-.626,4.433-1.411,7.141-2.47a97.063,97.063,0,0,0,13.092-6.3,80.939,80.939,0,0,0,22.186-18.521,66.5,66.5,0,0,0,6.191-8.907,25.475,25.475,0,0,0,2.646,3.462,26.163,26.163,0,0,0,4.674,4.084,17.909,17.909,0,0,0,5.471,2.552,12.913,12.913,0,0,0,3.235.425,11.117,11.117,0,0,0,2.6-.3.747.747,0,0,0,.471-.286.734.734,0,0,0,.129-.524.628.628,0,0,0-.037-.138.62.62,0,0,0-.033-.153,48.17,48.17,0,0,0-5.308-10.678,28.507,28.507,0,0,0-3.329-4.03,23.6,23.6,0,0,0-3.9-3.135,25.585,25.585,0,0,0-9.785-3.6,40.887,40.887,0,0,0-6.756-.521" transform="translate(-67.554 -169.426)" fill="#792013"/>
      <path id="Trazado_720241" data-name="Trazado 720241" d="M201.19,193.628c-.271.583-.556,1.162-.854,1.729l.055-.1a51.671,51.671,0,0,1-7.9,10.982l.016-.017c-.009.01-.019.021-.029.03l-.008.008,0,0a90.008,90.008,0,0,1-18.549,14.607l.019-.011c-1.481.912-2.975,1.806-4.494,2.657-1.725.964-3.488,1.869-5.274,2.716a82.359,82.359,0,0,1-11.192,4.361c-2.236.672-4.5,1.244-6.788,1.69-1.158.227-2.323.417-3.488.579-1.257.176-2.518.26-3.787.315.1,0,.194-.011.29-.015-.96.037-1.917.059-2.874.136a1.117,1.117,0,0,0-.531.242,1.147,1.147,0,0,0-.165,1.613,1.117,1.117,0,0,0,.788.414,56.456,56.456,0,0,0,8.946-1.052,77.5,77.5,0,0,0,8.319-2.078,83.128,83.128,0,0,0,15.679-6.644,94.638,94.638,0,0,0,12.842-8.51,84.4,84.4,0,0,0,11.159-10.453,54.033,54.033,0,0,0,8.6-12.912.415.415,0,0,0-.389-.559.446.446,0,0,0-.4.274m-8.718,12.63,0,0,.013-.013Z" transform="translate(-67.667 -170.105)" fill="#63190e"/>
      <path id="Trazado_720242" data-name="Trazado 720242" d="M204.985,195.236a.428.428,0,0,0-.154.572,20.705,20.705,0,0,0,8.386,8.554,18.644,18.644,0,0,0,5.629,1.906,19.355,19.355,0,0,0,2.986.275,17.64,17.64,0,0,0,3.233-.282.676.676,0,0,0,.429-.326.688.688,0,0,0-.257-.942.72.72,0,0,0-.516-.069c-.363.064-.724.119-1.089.165a18.8,18.8,0,0,1-4.621,0l.15.022a18.081,18.081,0,0,1-4.343-1.173c.044.019.088.037.129.055a18.952,18.952,0,0,1-4.034-2.3l.013.01-.021-.016-.082-.061.04.029a19.665,19.665,0,0,1-3.52-3.483c.007.007.013.016.021.023a20.8,20.8,0,0,1-1.807-2.8.413.413,0,0,0-.367-.21.419.419,0,0,0-.205.053m5.92,6.449.007.006-.049-.038c.013.011.027.022.041.032" transform="translate(-71.955 -170.218)" fill="#63190e"/>
      <path id="Trazado_720243" data-name="Trazado 720243" d="M188.567,193.7q-.419.55-.847,1.094l0-.006-.01.013-.045.056.012-.016A82.776,82.776,0,0,1,171.9,209.662c.051-.04.106-.077.158-.117a57.387,57.387,0,0,1-12.512,7.058l.106-.039-.183.07-.063.024.04-.016c-.3.114-.6.224-.9.327-.41.144-.832.261-1.246.4a1.212,1.212,0,0,0-.689.513,1.123,1.123,0,0,0,.388,1.54,1.078,1.078,0,0,0,.846.125c.594-.209,1.169-.466,1.744-.711.594-.253,1.18-.517,1.763-.784q1.727-.808,3.379-1.752a69.236,69.236,0,0,0,6.659-4.383,67.993,67.993,0,0,0,6.252-5.164c1.96-1.84,3.863-3.739,5.67-5.729q3.061-3.364,5.812-6.985a.326.326,0,0,0-.114-.45.313.313,0,0,0-.161-.047.377.377,0,0,0-.29.16m-29.118,22.94.023-.008.077-.031-.1.039m28.232-21.8.033-.04.006-.007c-.013.015-.025.031-.038.048" transform="translate(-68.969 -170.117)" fill="#63190e"/>
      <path id="Trazado_720244" data-name="Trazado 720244" d="M310.346,259.63a1.975,1.975,0,0,0-.21.008,2.161,2.161,0,0,0-.879.273,2.883,2.883,0,0,0-.761.614,3.657,3.657,0,0,0-.463.677,5.824,5.824,0,0,0-.407.919,16.213,16.213,0,0,0-.715,4.721,41.556,41.556,0,0,0,.154,5.179q.087,1.033.235,2.06a13.187,13.187,0,0,0,.261,1.374,19.107,19.107,0,0,0,2.761,5.868,45.089,45.089,0,0,0,4.076,5l.567.627a43.442,43.442,0,0,1,5.285,6.656,18.475,18.475,0,0,1,1.487,3.22.727.727,0,0,0,.936.375.726.726,0,0,0,.375-.935c-.166-.48-.351-.949-.55-1.393l.124.009a.691.691,0,0,0,.472-.275.775.775,0,0,0,.142-.526,55.863,55.863,0,0,0-.6-7.928,47.43,47.43,0,0,0-1.7-7.251,53.355,53.355,0,0,0-2.811-7c-.547-1.134-1.151-2.3-1.848-3.575a16.5,16.5,0,0,1-.768-1.713l-.181-.453a28.67,28.67,0,0,0-1.916-4.141A6.721,6.721,0,0,0,312,260.275a2.975,2.975,0,0,0-.806-.486,2.175,2.175,0,0,0-.85-.159" transform="translate(-78.263 -174.2)" fill="#f6cfbe"/>
      <path id="Trazado_720245" data-name="Trazado 720245" d="M326.021,265.385a.782.782,0,0,0-.533.144.714.714,0,0,0-.123,1,.828.828,0,0,0,.215.186,7.773,7.773,0,0,0-.162,1.539,14.737,14.737,0,0,0,.111,2.166,16.68,16.68,0,0,0,1.2,4.481,9.679,9.679,0,0,0,2.436,3.525,5.15,5.15,0,0,0,1.708.985,4.7,4.7,0,0,0,1.4.242.6.6,0,0,0,.129.29.72.72,0,0,0,.464.267h.042a.694.694,0,0,0,.493-.147,5.944,5.944,0,0,0,.509-.554,3.824,3.824,0,0,0,.368-.618,3.1,3.1,0,0,0,.312-1.294,3.654,3.654,0,0,0-.691-2.226l.115-.064a2.748,2.748,0,0,0,.739-.783,3.435,3.435,0,0,0,.448-1.12,3.981,3.981,0,0,0,.034-1.279,5.653,5.653,0,0,0-1-2.566,6.632,6.632,0,0,0-.843-.994,10.894,10.894,0,0,0-2.3-1.71,11.79,11.79,0,0,0-2.56-1.074,8.951,8.951,0,0,0-2.513-.4" transform="translate(-79.395 -174.555)" fill="#f6cfbe"/>
      <path id="Trazado_720246" data-name="Trazado 720246" d="M322.24,257.711a2.466,2.466,0,0,0-.618.073,2.872,2.872,0,0,0-.922.408,3.119,3.119,0,0,0-.706.687,5.765,5.765,0,0,0-.918,1.851,14.95,14.95,0,0,0-.531,2.314c-.15.928-.233,1.879-.313,2.8-.038.443-.077.886-.124,1.329-.033.321-.079.639-.124.957l-.044.311-.158,1.114-.158,1.115c-.168,1.213-.353,2.652-.451,4.142a26.863,26.863,0,0,0,.029,4.113,20.745,20.745,0,0,0,.84,4.21c.138.447.295.888.451,1.327l.117.329.109.308c.173.491.344.979.514,1.474.485,1.4.847,2.552,1.14,3.623l-.009-.112a25.712,25.712,0,0,1,.881,5.537.718.718,0,0,0-.1.165.749.749,0,0,0,0,.556l.075.213a14.289,14.289,0,0,1-.214,2.293.651.651,0,0,0,.123.507.722.722,0,0,0,.485.3.744.744,0,0,0,.1.007.724.724,0,0,0,.7-.615c.022-.121.04-.239.059-.36a10.886,10.886,0,0,0,1.3,1.413,15.972,15.972,0,0,0,4.521,2.878,16.439,16.439,0,0,0,2.556.862,12.534,12.534,0,0,0,2.5.367q.243.011.487.011a9.051,9.051,0,0,0,1.938-.2,7.934,7.934,0,0,0,1.156-.357,5.707,5.707,0,0,0,.818-.4c-.153.428-.306.864-.478,1.289a.717.717,0,0,0,.383.932.694.694,0,0,0,.269.054.715.715,0,0,0,.662-.436,27.3,27.3,0,0,0,1.635-7.747c.114-1.33.173-2.625.173-3.849a15.224,15.224,0,0,0-.359-3.231,15.519,15.519,0,0,0-.939-2.875,18.709,18.709,0,0,0-1.393-2.564,43.684,43.684,0,0,0-3.357-4.4l-.125-.15a42.817,42.817,0,0,1-3.987-5.368,21.49,21.49,0,0,1-1.051-2.048,10.952,10.952,0,0,1-.583-1.578c-.275-1.06-.472-2.16-.662-3.224-.081-.447-.16-.894-.246-1.339a31.192,31.192,0,0,0-1.375-5.286,5.678,5.678,0,0,0-2.639-3.4,3.846,3.846,0,0,0-1.033-.3,2.519,2.519,0,0,0-.4-.029" transform="translate(-78.895 -174.081)" fill="#f6cfbe"/>
      <path id="Trazado_720247" data-name="Trazado 720247" d="M317.519,271.2c-.121.931-.238,1.861-.319,2.8a20.355,20.355,0,0,0-.052,2.83,11.756,11.756,0,0,0,1.514,5.42.414.414,0,0,0,.22.19.394.394,0,0,0,.3-.018.388.388,0,0,0,.172-.517,14.249,14.249,0,0,1-.869-2.015c.011.033.026.066.037.1a15.331,15.331,0,0,1-.487-1.965A17.781,17.781,0,0,1,317.8,276c0,.033,0,.062,0,.1a26.964,26.964,0,0,1,.179-4.867.235.235,0,0,0-.216-.249h-.021a.237.237,0,0,0-.233.216" transform="translate(-78.895 -174.901)" fill="#da8c67"/>
      <path id="Trazado_720248" data-name="Trazado 720248" d="M327.861,264.723a.234.234,0,0,0-.187.275,52.409,52.409,0,0,0,1.223,5.339A30.335,30.335,0,0,0,330.684,275a29.3,29.3,0,0,0,2.594,4.325c.572.795,1.192,1.554,1.829,2.294.322.373.645.74.956,1.117.348.418.678.847.986,1.3l-.007-.012c.2.3.384.613.553.932a.235.235,0,1,0,.421-.208,11.943,11.943,0,0,0-1.092-1.682c-.429-.561-.894-1.1-1.338-1.646-.433-.531-.839-1.085-1.242-1.638s-.794-1.106-1.175-1.671a32.976,32.976,0,0,1-1.981-3.361,27.516,27.516,0,0,1-1.528-3.662c.007.023.015.04.022.063a45.054,45.054,0,0,1-1.546-6.242.234.234,0,0,0-.23-.188.249.249,0,0,0-.045,0" transform="translate(-79.547 -174.514)" fill="#da8c67"/>
      <path id="Trazado_720249" data-name="Trazado 720249" d="M308.051,298.634c-.986,2.812-2.089,5.67-3.347,8.668-.014.037-.033.073-.047.114-3.508,8.286-7.671,16.4-11.7,24.251q-1.649,3.21-3.288,6.428c-2.957,5.842-5.12,10.353-7.018,14.638l-.209-.169-.436-.546q-1.379-1.71-2.734-3.434l-.92-1.173c-.612-.784-1.223-1.569-1.839-2.346-1.767-2.218-3.647-4.5-5.747-6.978-3.4-4.02-7.092-8.2-11.966-13.568l-.327-.362a99.708,99.708,0,0,0-10.914-10.826,37.009,37.009,0,0,0-6.527-4.281,29.453,29.453,0,0,0-8.037-2.6,57.106,57.106,0,0,0-8.371-.706c-.894-.023-1.788-.037-2.68-.055-1.865-.029-3.793-.062-5.68-.173a50.409,50.409,0,0,1-5.86-.418c-1.334-.11-2.668-.25-3.995-.44a.714.714,0,0,0-.044.308c.1,2.042.117,4.171.048,6.33v.007l0,.144-.008,0a103.533,103.533,0,0,1-1.591,14.267,118.045,118.045,0,0,1-3.386,13.978.186.186,0,0,0-.011.063s0,.044,0,.044v0c-.26.781-.516,1.565-.781,2.342a142.551,142.551,0,0,1-13.138-9.027c-3.97-3.053-8.045-6.473-12.831-10.764-4.028-3.614-8.034-7.388-11.908-11.035l-3.027-2.851a.606.606,0,0,0-.421-.139,19.527,19.527,0,0,1-1.595,1.583c-.2.173-.4.338-.6.5-.267.235-.539.462-.817.677-.084.063-.165.125-.25.187-.277.244-.576.486-.9.729l-.006,0c-.028.021-.055.042-.084.062l-.034.025h0l-.016.013c-.014.011-.029.026-.027.031s-.029.034-.029.034l-.281.188c-.844.631-1.7,1.257-2.591,1.813a15.215,15.215,0,0,1-1.7.928l-.117.053c-.19.132-.38.266-.571.405a19.174,19.174,0,0,0-1.874,1.565,27.039,27.039,0,0,0-5.589,7.579,47.842,47.842,0,0,0-1.95,4.387c-.627,1.587-1.217,3.24-1.806,5.047a102.5,102.5,0,0,0-2.833,10.719c-2.665,12.663-3.8,38.522-3.8,38.522s-.172,3.911-.264,5.86a237.059,237.059,0,0,1-2.661,28.209l.037-.1a85.2,85.2,0,0,1-3.643,14.542,1.366,1.366,0,0,0,.92,1.315c5.124-.322,10.434-.479,16.287-.479q2.4,0,4.8.033c.367,0,.733.008,1.1.015a1.486,1.486,0,0,0,.169.007h.242l.633.011.63.011q1.375.027,2.745.066c3.163.084,6.619.2,10.57.367q4.568.187,9.133.4c4,.179,8,.358,12.006.509,3.943.143,7.392.241,10.544.3q2.618.049,5.233.062l1.682,0c1.118,0,2.236,0,3.354.019.172,0,.344,0,.512.008,1.481.025,2.9.058,4.314.091,2.741.063,5.578.132,8.367.132.436,0,.873,0,1.313-.008a75.181,75.181,0,0,0,13.86-1.154.714.714,0,0,0,.469-.257.725.725,0,0,0,.161-.5.7.7,0,0,0,.165-.8,53.558,53.558,0,0,1-2.064-5.706,39.756,39.756,0,0,1-1.612-9.865,31.316,31.316,0,0,1,.813-7.719l.018-.11.008,0a29.938,29.938,0,0,1,1.422-4.2,38,38,0,0,1,1.869-3.723c1.111-1.965,2.375-3.937,3.6-5.839,1.433-2.236,2.917-4.545,4.2-6.927a35.66,35.66,0,0,0,2.884-6.977l.058-.221.063-.22a94,94,0,0,0,18.082,11.145,52.892,52.892,0,0,0,14.059,4.247,39.32,39.32,0,0,0,5.655.425c.242,0,.48,0,.721-.008a33.1,33.1,0,0,0,5.981-.666,30,30,0,0,0,10.57-4.435,32.678,32.678,0,0,0,4.585-3.745,37.64,37.64,0,0,0,4.061-4.717,44.5,44.5,0,0,0,3.489-5.622,73.628,73.628,0,0,0,3.034-6.733,137.5,137.5,0,0,0,5.068-15.227,199.971,199.971,0,0,0,5.927-32.717c.634-6.219,1.011-12.5,1.121-18.676a14.583,14.583,0,0,1-1.646-.019,19.306,19.306,0,0,1-2.9-.414,28.339,28.339,0,0,1-5.493-1.866c-.89-.4-1.774-.831-2.643-1.283-.831-.433-1.656-.879-2.459-1.359a28.618,28.618,0,0,1-3.932-2.767c-.341.85-.671,1.7-1.011,2.554m-24.636,55.139.175.179c.653.825,1.287,1.624,1.9,2.408q-1.029-1.286-2.078-2.588" transform="translate(-67.043 -176.452)" fill="#008b8a"/>
      <path id="Trazado_720250" data-name="Trazado 720250" d="M251.667,359.474a59.041,59.041,0,0,1,1.788,7.994,50.909,50.909,0,0,1,.583,8.249,43.738,43.738,0,0,1-.831,8.086c-.213,1.05-.452,2.1-.739,3.133q.483-1.274.842-2.525l.058-.22.063-.22a92.628,92.628,0,0,0,18.061,11.156,52.8,52.8,0,0,0,14.062,4.251,39.346,39.346,0,0,0,5.658.425c.232,0,.463,0,.693-.007a33.532,33.532,0,0,0,6.014-.667,30.038,30.038,0,0,0,10.573-4.439,33.005,33.005,0,0,0,4.589-3.749,38.191,38.191,0,0,0,4.064-4.716c.766-1.045,1.492-2.144,2.192-3.314a52.519,52.519,0,0,1-25.369,2.918,51.636,51.636,0,0,1-14.092-3.973A52.4,52.4,0,0,1,273.2,378.3a57.145,57.145,0,0,1-6.23-4.555,65.873,65.873,0,0,1-5.641-5.325c-1.748-1.854-3.409-3.793-4.981-5.8a129.513,129.513,0,0,1-7.461-10.707,63.508,63.508,0,0,1,2.781,7.562" transform="translate(-74.68 -179.901)" fill="#008b8a"/>
      <path id="Trazado_720251" data-name="Trazado 720251" d="M152.044,380.332a45.121,45.121,0,0,1-4.02,6.252c-1.382,1.811-2.863,3.541-4.409,5.216-1.576,1.7-3.207,3.353-4.852,4.991-2.628,2.613-5.291,5.2-7.8,7.923-.427,5.895-1.047,11.923-2.061,17.889l.073-.088a88.354,88.354,0,0,1-3.676,14.527,1.384,1.384,0,0,0,.938,1.342c5.083-.323,10.412-.48,16.287-.48.6,0,1.194,0,1.792,0,.477-5.449,1.121-10.881,1.9-16.294.85-5.96,1.847-11.9,2.924-17.819q.412-2.254.832-4.508c.173-.909.363-1.817.557-2.723.45-2.115.905-4.229,1.271-6.359l0,0c.274-1.626.5-3.272.622-4.921a27.6,27.6,0,0,0-.022-4.742v0h0q-.039-.364-.091-.726c-.087.172-.174.342-.265.513" transform="translate(-67.042 -181.625)" fill="#008b8a"/>
      <path id="Trazado_720252" data-name="Trazado 720252" d="M150.012,372.186h0l0,0h0" transform="translate(-68.571 -181.153)" fill="#2bb6a4"/>
      <path id="Trazado_720253" data-name="Trazado 720253" d="M140.467,396.758a55.89,55.89,0,0,1-9.023,8.708.659.659,0,0,0-.205.488.709.709,0,0,0,.209.506.692.692,0,0,0,.487.205.747.747,0,0,0,.506-.209,55.579,55.579,0,0,0,9.023-8.708.761.761,0,0,0,.205-.488.705.705,0,0,0-.208-.506.7.7,0,0,0-.488-.205h-.013a.655.655,0,0,0-.493.209" transform="translate(-67.411 -182.659)" fill="#2bb6a4"/>
      <path id="Trazado_720254" data-name="Trazado 720254" d="M246.526,349.528a43.48,43.48,0,0,1,1.91,3.965c-.011-.022-.019-.043-.03-.066a50.694,50.694,0,0,1,3.4,12.856l-.022-.154a48.72,48.72,0,0,1,.068,12.6c.007-.058.012-.114.021-.173a40.043,40.043,0,0,1-2.7,10.028c-.953,2.22-2.119,4.35-3.271,6.472-1.165,2.144-2.36,4.266-3.5,6.421a51.624,51.624,0,0,0-5.245,13.087,30.437,30.437,0,0,0-.663,5.171,29.2,29.2,0,0,0,.356,5.629c.143.946.341,1.88.575,2.8.267,1.052.605,2.082.953,3.112.344,1.011.7,2.019,1.11,3.009a10.7,10.7,0,0,0,1.8,3.192,1.174,1.174,0,0,0,1.844-.238,1.213,1.213,0,0,0,.117-.905,8.193,8.193,0,0,0-.539-1.469c-.19-.436-.4-.865-.612-1.294-.413-.837-.835-1.669-1.209-2.525a27.884,27.884,0,0,1-1.144-3.518,29.937,29.937,0,0,1-.653-3.282A28.1,28.1,0,0,1,239.1,417a37.42,37.42,0,0,1,2.574-8.929c1.883-4.436,4.313-8.6,6.6-12.837a57.609,57.609,0,0,0,3.273-6.725,32.791,32.791,0,0,0,1.767-6.99,47.727,47.727,0,0,0-.279-14.952,54.928,54.928,0,0,0-4.431-14c-.52-1.11-1.081-2.2-1.675-3.273a.207.207,0,0,0-.186-.115.239.239,0,0,0-.218.35m-5.732,81.306c.023.051.044.1.065.15l-.065-.15" transform="translate(-73.913 -179.732)" fill="#239486"/>
      <g id="Grupo_1018707" data-name="Grupo 1018707" transform="translate(47.824 55.609)">
        <rect id="Rectángulo_348373" data-name="Rectángulo 348373" width="39.947" height="61.189" rx="4.007" transform="translate(0 12.154) rotate(-17.713)" fill="#04293e"/>
        <path id="Trazado_720255" data-name="Trazado 720255" d="M151.684,228.9l18.572,58.149a3.759,3.759,0,0,0,1.769-4.434l-16.33-51.126A3.757,3.757,0,0,0,151.684,228.9Z" transform="translate(-116.498 -227.909)" fill="#021621"/>
        <path id="Trazado_720256" data-name="Trazado 720256" d="M150.536,234.141a1.255,1.255,0,1,1-1.578-.813A1.256,1.256,0,0,1,150.536,234.141Z" transform="translate(-116.276 -228.18)" fill="#021621"/>
        <path id="Trazado_720257" data-name="Trazado 720257" d="M151.675,237.707a1.255,1.255,0,1,1-1.578-.814A1.255,1.255,0,0,1,151.675,237.707Z" transform="translate(-116.346 -228.4)" fill="#021621"/>
        <path id="Trazado_720258" data-name="Trazado 720258" d="M152.813,241.272a1.255,1.255,0,1,1-1.577-.813A1.255,1.255,0,0,1,152.813,241.272Z" transform="translate(-116.417 -228.621)" fill="#021621"/>
      </g>
      <path id="Trazado_720259" data-name="Trazado 720259" d="M138.553,399.612a.316.316,0,0,1,.033-.037.152.152,0,0,0-.033.037" transform="translate(-67.863 -182.846)" fill="#2fc3b0"/>
      <g id="Grupo_1018708" data-name="Grupo 1018708" transform="translate(0 91.805)">
        <path id="Trazado_720260" data-name="Trazado 720260" d="M141.259,266.424c-.088,0-.176,0-.265.008a11.23,11.23,0,0,0-3.213.737,29.159,29.159,0,0,0-3.5,1.506,32.412,32.412,0,0,0-6.192,4.165c-.661.554-1.338,1.163-2.012,1.815a20.621,20.621,0,0,0-.039-2.578,10.36,10.36,0,0,0-.433-2.435,3.007,3.007,0,0,0-1.184-1.717,1.729,1.729,0,0,0-.918-.258,2,2,0,0,0-1.152.38,5.839,5.839,0,0,0-1.612,2,20.265,20.265,0,0,0-1.078,2.369c-.415,1.046-.735,1.914-1,2.731a84.652,84.652,0,0,0-2.768,12.214q-.187,1.07-.376,2.135a66.321,66.321,0,0,1-3.107,12.213.725.725,0,0,0-.3.766q-.225.54-.472,1.086a.662.662,0,0,0,.052.551.712.712,0,0,0,.412.345.7.7,0,0,0,.212.031.735.735,0,0,0,.342-.083.719.719,0,0,0,.308-.344,16.589,16.589,0,0,0,6.313,6.165,14.853,14.853,0,0,0,4.911,1.628,12.893,12.893,0,0,0,1.888.136,14.489,14.489,0,0,0,3.227-.371c-.088.3-.161.612-.231.927a.77.77,0,0,0,.023.538.727.727,0,0,0,.413.372.706.706,0,0,0,.535-.026.69.69,0,0,0,.375-.409,27.759,27.759,0,0,1,2.322-6.5l.006-.011-.013.008.013-.008a.15.15,0,0,0,.015-.047s.011-.042.011-.042a41.206,41.206,0,0,1,2.771-4.454,42.081,42.081,0,0,1,3.2-3.939h0l.026-.03-.008.006c.009-.012.019-.025.017-.027s.024-.038.023-.038c1.011-1.074,2.059-2.145,3.074-3.181.749-.765,1.5-1.529,2.232-2.3a43.5,43.5,0,0,0,4.875-5.923,12.439,12.439,0,0,0,1.24-2.238,3.14,3.14,0,0,0,.242-1.478,1.532,1.532,0,0,0-.645-1.066,2.169,2.169,0,0,0-1.2-.346c-.062,0-.125,0-.187,0a10.07,10.07,0,0,0-3.075.663,36.414,36.414,0,0,0-3.838,1.573c-.252.117-.5.238-.751.359l.573-.46c.7-.592,1.409-1.185,2.1-1.79,1.322-1.154,2.361-2.141,3.273-3.1a18.674,18.674,0,0,0,1.349-1.573,9.825,9.825,0,0,0,1.024-1.566,2.92,2.92,0,0,0,.12-2.877,2.739,2.739,0,0,0-1.372-.988,6.4,6.4,0,0,0-2.15-.36h-.209a11.218,11.218,0,0,0-2.549.337l-.113.028c.1-.215.273-.475.431-.739a4.721,4.721,0,0,0,.731-2.277,2.176,2.176,0,0,0-.214-.964,1.977,1.977,0,0,0-.674-.762,3.086,3.086,0,0,0-1.823-.471" transform="translate(-66.197 -266.424)" fill="#f6cfbe"/>
        <path id="Trazado_720261" data-name="Trazado 720261" d="M143.2,271.671c-2.257,1.081-4.559,2.085-6.721,3.361a23.156,23.156,0,0,0-2.987,2.074,17.514,17.514,0,0,0-2.7,2.818.36.36,0,1,0,.589.414c.3-.389.607-.762.933-1.126h0a19.776,19.776,0,0,1,2.081-1.961,23.791,23.791,0,0,1,2.362-1.683l-.017.008A68.476,68.476,0,0,1,143.4,272.1a.234.234,0,0,0,.114-.311.237.237,0,0,0-.214-.135.224.224,0,0,0-.1.022m-6.448,3.9a.489.489,0,0,0,.05-.032l-.05.032" transform="translate(-67.38 -266.747)" fill="#da8c67"/>
        <path id="Trazado_720262" data-name="Trazado 720262" d="M141.88,285.128c-.586.374-1.158.769-1.715,1.192a15.67,15.67,0,0,0-1.671,1.495.328.328,0,0,0-.111.217.311.311,0,0,0,.07.223.323.323,0,0,0,.216.114.335.335,0,0,0,.282-.132c.087-.105.175-.209.265-.312a13.438,13.438,0,0,1,1.4-1.314,16.556,16.556,0,0,1,1.565-1.122.217.217,0,0,0,.084-.16.235.235,0,0,0-.054-.169.231.231,0,0,0-.161-.084h-.014a.265.265,0,0,0-.155.054" transform="translate(-67.853 -267.576)" fill="#da8c67"/>
        <path id="Trazado_720263" data-name="Trazado 720263" d="M126.35,275.428a.266.266,0,0,0-.154.1c-.48.556-.953,1.117-1.407,1.7a21.457,21.457,0,0,0-1.334,1.957.265.265,0,0,0,.062.359.277.277,0,0,0,.194.04.227.227,0,0,0,.117-.055.266.266,0,0,0,.081-.113c.026-.048.048-.1.074-.15a.468.468,0,0,1-.03.062c.161-.3.338-.589.524-.872.22-.33.458-.645.7-.961.451-.583.931-1.14,1.407-1.7a.233.233,0,0,0-.058-.327.216.216,0,0,0-.129-.04.225.225,0,0,0-.044,0" transform="translate(-66.928 -266.98)" fill="#da8c67"/>
        <path id="Trazado_720264" data-name="Trazado 720264" d="M105.565,307.021a357.744,357.744,0,0,0-21,30.679c-3.834,6.356-7.256,12.681-10.17,18.8a155.471,155.471,0,0,0-7.788,19.512c-1.04,3.276-1.733,5.827-2.254,8.261a53.915,53.915,0,0,0-1.008,6.945,44.959,44.959,0,0,0,0,7.055,32.276,32.276,0,0,0,1.228,6.681,27.312,27.312,0,0,0,1.162,3.137,23,23,0,0,0,1.583,2.906,19.482,19.482,0,0,0,4.435,4.875,21.167,21.167,0,0,0,6.37,3.349,27.22,27.22,0,0,0,4.468,1.052,26.221,26.221,0,0,0,3.928.29c.392,0,.781-.008,1.169-.026,7.217-.285,13.942-3.4,18.991-6.087,1.643-.873,3.255-1.788,4.475-2.488,1.451-.828,2.954-1.686,4.4-2.58l.473-.3a.249.249,0,0,1,.136-.194c.447-.235.883-.494,1.308-.766l.034-.023-.019.011.019-.011a.225.225,0,0,1,.081-.2c1.964-1.459,3.877-2.984,5.749-4.556.594-.527,1.192-1.048,1.8-1.55a.4.4,0,0,1,.059-.037c1.814-1.565,3.6-3.17,5.358-4.794.791-.908,1.642-1.759,2.507-2.6.527-.521,1.058-1.038,1.575-1.569.675-.755,1.345-1.517,2.02-2.276a.261.261,0,0,1,.154-.095.23.23,0,0,1,.172.037.187.187,0,0,1,.059.062c.154-.165.3-.333.454-.5,1.146-1.341,2.246-2.72,3.343-4.1q.67-.958,1.294-1.947a.221.221,0,0,1,.19-.1.232.232,0,0,1,.119.03l.056-.07a.2.2,0,0,1,.044-.11l.286-.352a.228.228,0,0,1-.04-.308c.414-.612.858-1.2,1.308-1.781a.241.241,0,0,1-.1-.038.235.235,0,0,1-.059-.326c.279-.4.55-.8.825-1.2a.522.522,0,0,1,0-.077,1.8,1.8,0,0,0-.01-.245l-.008-.1-.023-.535-.037-.828-.018-.418a87.265,87.265,0,0,1,.04-8.792c.1-1.511.252-3.02.465-4.487.187-1.3.421-2.605.648-3.874l.125-.7c.484-2.734,1.044-5.72,1.708-9.129.752-3.834,1.532-7.66,2.313-11.489q.671-3.266,1.327-6.531c.311-1.536.528-2.712.7-3.816.191-1.179.352-2.367.513-3.551l.052-.392.04-.293c.348-2.536.707-5.156,1.246-7.7h-.008l-.029.088a35.81,35.81,0,0,1,1.726-5.721.7.7,0,0,0-.161-.733.652.652,0,0,0,.129-.536.715.715,0,0,0-.294-.458.731.731,0,0,0-.3-.121c-.528.572-1.074,1.125-1.657,1.646a14.919,14.919,0,0,1-2.254,1.69,29.093,29.093,0,0,1-2.39,1.7,60.39,60.39,0,0,1-10.914,5.005l-.813.309c-1.627.612-3.313,1.242-4.951,1.917-.971.392-1.917.806-2.811,1.223-.62.294-1.232.6-1.84.917.084-.682.158-1.375.227-2.063q.369-3.579.692-7.158c.008-.444.023-.884.048-1.323a1.033,1.033,0,0,0,0-.107.608.608,0,0,0-.348-.187,25.777,25.777,0,0,1-5.27-1.352l.083.051a33.068,33.068,0,0,1-7.312-4.017,56.129,56.129,0,0,1-5.735-4.856.7.7,0,0,0-.227-.143c-1.279,1.51-2.58,2.994-3.87,4.493" transform="translate(-63.208 -268.655)" fill="#008b8a"/>
        <path id="Trazado_720265" data-name="Trazado 720265" d="M129.861,313.911c-.037.367-.114.73-.161,1.1s-.091.733-.131,1.1c-.084.8-.154,1.6-.22,2.4q-.2,2.3-.381,4.614c-.246,3.082-.483,6.164-.744,9.246-.465,5.52-1,11.039-1.884,16.507a150.275,150.275,0,0,1-5.032,21.477l0,0q-1.151,3.593-2.483,7.127-1.381,3.634-3,7.176A103.582,103.582,0,0,1,108.62,397.9l.007-.012c-1.34,2.061-2.759,4.069-4.276,6a.235.235,0,1,0,.356.308,94.709,94.709,0,0,0,8.227-12.421,120.527,120.527,0,0,0,6.586-13.978,149.52,149.52,0,0,0,4.988-14.759q2.09-7.393,3.47-14.952c.972-5.339,1.642-10.734,2.2-16.133q.462-4.426.763-8.866.148-2.226.245-4.453c.034-.758.063-1.513.081-2.272.008-.366.011-.737.008-1.106,0-.184,0-.367-.008-.55,0-.246-.025-.492-.022-.737a.746.746,0,0,0-.121-.334.7.7,0,0,0-.458-.293.623.623,0,0,0-.111-.009.7.7,0,0,0-.7.577m-21.235,83.977c.009-.016.02-.031.03-.047a.3.3,0,0,0-.03.047" transform="translate(-65.747 -269.322)" fill="#239486"/>
        <path id="Trazado_720266" data-name="Trazado 720266" d="M152.645,375.08c-.242.462-.469.934-.707,1.4s-.473.909-.711,1.364c-.479.9-.975,1.784-1.48,2.667q-1.506,2.612-3.181,5.116c.029-.039.054-.08.084-.12a95.441,95.441,0,0,1-7.894,10.2c-1.441,1.619-2.936,3.181-4.464,4.713s-3.094,3.007-4.71,4.435l.04-.033c-.971.854-1.95,1.7-2.947,2.529s-2.012,1.646-3.042,2.444q-3.172,2.463-6.494,4.725a.234.234,0,0,0-.062.326.239.239,0,0,0,.326.067c2.089-1.419,4.16-2.87,6.19-4.377q3-2.226,5.879-4.614c.938-.781,1.861-1.583,2.774-2.4s1.836-1.653,2.73-2.5q2.677-2.546,5.135-5.3a90.339,90.339,0,0,0,7.41-9.444q1.7-2.49,3.226-5.091c.513-.875,1.011-1.767,1.495-2.661.513-.956,1.016-1.921,1.481-2.9a.608.608,0,0,0-.268-.807.6.6,0,0,0-.263-.061.622.622,0,0,0-.547.332m-23.1,29.8c.01-.01.022-.02.033-.029a.32.32,0,0,0-.033.029" transform="translate(-66.534 -273.116)" fill="#239486"/>
      </g>
      <path id="Trazado_720267" data-name="Trazado 720267" d="M161.016,308.2a1.189,1.189,0,0,0,.066,1.657,240.955,240.955,0,0,0,31.878,27.582q4.326,3.135,8.775,6.1c.068.056.134.111.2.166a1.188,1.188,0,0,0,1.657-.066,1.175,1.175,0,0,0-.066-1.657c-.5-.407-1.049-.748-1.58-1.107-.59-.392-1.173-.792-1.759-1.191q-1.661-1.139-3.306-2.3c.081.059.165.117.246.176a243.263,243.263,0,0,1-32.222-27.143q-1.126-1.132-2.235-2.283a1.048,1.048,0,0,0-.766-.311,1.226,1.226,0,0,0-.891.376" transform="translate(-69.232 -177.177)" fill="#239486"/>
      <path id="Trazado_720268" data-name="Trazado 720268" d="M211.578,304.15a1.18,1.18,0,0,0-.748.469,1.228,1.228,0,0,0-.2.887q.1,1.248.147,2.5a85.693,85.693,0,0,1-2.5,22.042c.022-.1.047-.206.069-.308-.953,4.082-2.107,8.11-3.379,12.1a1.194,1.194,0,0,0,.678,1.513,1.179,1.179,0,0,0,1.513-.677,142.05,142.05,0,0,0,4.687-18.431,75.47,75.47,0,0,0,1.1-19.142,1.125,1.125,0,0,0-.469-.748,1.179,1.179,0,0,0-.686-.22,1.15,1.15,0,0,0-.2.018" transform="translate(-71.962 -176.949)" fill="#239486"/>
      <path id="Trazado_720269" data-name="Trazado 720269" d="M187.148,258.048l0,0,0,0-.039.132a14,14,0,0,0,.315,5.938,8.568,8.568,0,0,0,1.277,2.662,6.258,6.258,0,0,0,3.868,2.5,5.157,5.157,0,0,0,1.131.121c.232,0,.459-.015.687-.037A6.7,6.7,0,0,0,197.5,268.1a9.711,9.711,0,0,0,2.38-2.521,12.2,12.2,0,0,0,1.574-3.436,9.378,9.378,0,0,0,.231-.995.719.719,0,0,0-.019-.308,52.189,52.189,0,0,1-7.315-.7,29.608,29.608,0,0,1-7.2-2.086l-.008,0" transform="translate(-70.851 -174.102)" fill="#021621"/>
      <path id="Trazado_720270" data-name="Trazado 720270" d="M196.193,225.507a.4.4,0,0,0-.278.128.322.322,0,0,0-.087.242c.161,1.9.373,3.609.649,5.234a26.515,26.515,0,0,0,1.451,5.389,14.333,14.333,0,0,0,1.13,2.263,5.886,5.886,0,0,0,.7.935,6.837,6.837,0,0,0,.863.756,18.428,18.428,0,0,0,1.934,1.223,17.925,17.925,0,0,1,1.877,1.177,5.286,5.286,0,0,1,.747.717,3.611,3.611,0,0,1,.354.595,3.342,3.342,0,0,1,.142.529,3.5,3.5,0,0,1,0,.595,3.84,3.84,0,0,1-.208.745,4.946,4.946,0,0,1-.577.954,8.066,8.066,0,0,1-1.161,1.15,10.7,10.7,0,0,1-2.1,1.252c-.249.1-.5.183-.761.256a.965.965,0,0,0,.255,1.894.877.877,0,0,0,.259-.039,7.588,7.588,0,0,0,1.949-.926,9.491,9.491,0,0,0,1.922-1.632,6.116,6.116,0,0,0,1.766-4.328,3.7,3.7,0,0,0-.68-1.925,5.686,5.686,0,0,0-1.607-1.453,17.85,17.85,0,0,0-1.691-.95,14.669,14.669,0,0,1-2.055-1.2,4.64,4.64,0,0,1-.8-.809,13.288,13.288,0,0,1-1.524-2.7,29.28,29.28,0,0,1-1.849-7.316c-.1-.744-.188-1.565-.253-2.386a.378.378,0,0,0-.365-.368" transform="translate(-71.402 -172.091)" fill="#da8c67"/>
      <path id="Trazado_720271" data-name="Trazado 720271" d="M187.615,262.621q-.279,0-.556.014a13.027,13.027,0,0,0,.366,1.771,8.617,8.617,0,0,0,1.276,2.66,6.445,6.445,0,0,0,2.261,1.943,6.282,6.282,0,0,0,1.609.559,5.034,5.034,0,0,0,1.129.122c.235,0,.462-.015.689-.037a6.582,6.582,0,0,0,2.965-1.166l-.052-.087a14.66,14.66,0,0,0-.872-1.295,11.963,11.963,0,0,0-1-1.138,13.342,13.342,0,0,0-1.146-1.024,11.554,11.554,0,0,0-1.224-.831,12.53,12.53,0,0,0-1.371-.686.387.387,0,0,0,.04.023,10.889,10.889,0,0,0-1.319-.454,12,12,0,0,0-1.4-.286c.022,0,.044.007.062.011a10.772,10.772,0,0,0-1.393-.1Zm4.116.828a.109.109,0,0,0,.015,0,.109.109,0,0,1-.015,0" transform="translate(-70.86 -174.384)" fill="#f68677"/>
      <path id="Trazado_720272" data-name="Trazado 720272" d="M175.077,238.407a1.618,1.618,0,0,0-.233.019c-.66.121-1.191.729-1.5,1.71a7.641,7.641,0,0,0-.117,3.479c.44,2.466,1.765,4.325,3.08,4.325a1.623,1.623,0,0,0,.233-.019c.661-.121,1.193-.729,1.5-1.71a7.585,7.585,0,0,0,.117-3.479c-.444-2.466-1.769-4.325-3.084-4.325" transform="translate(-69.997 -172.888)" fill="#021621"/>
      <path id="Trazado_720273" data-name="Trazado 720273" d="M211.626,229.89a1.516,1.516,0,0,0-.225.019c-.643.118-1.158.706-1.451,1.655a7.318,7.318,0,0,0-.114,3.369c.433,2.386,1.716,4.185,2.984,4.185a1.507,1.507,0,0,0,.225-.018c.641-.118,1.155-.706,1.449-1.656a7.3,7.3,0,0,0,.114-3.365c-.429-2.389-1.711-4.189-2.982-4.189" transform="translate(-72.258 -172.362)" fill="#021621"/>
      <path id="Trazado_720274" data-name="Trazado 720274" d="M205.476,207.963c-2.41,0-4.094.656-4.29,1.672-.272,1.461,2.539,3.22,6.267,3.921a16.282,16.282,0,0,0,2.969.29c2.409,0,4.092-.656,4.287-1.671a1.392,1.392,0,0,0-.283-1.052c-.814-1.2-3.218-2.349-5.98-2.87a16.227,16.227,0,0,0-2.97-.29" transform="translate(-71.732 -171.008)" fill="#792013"/>
    </g>
    <g id="Grupo_1018710" data-name="Grupo 1018710" transform="translate(200.279 325.654)">
      <path id="Trazado_720275" data-name="Trazado 720275" d="M217.444,424.289h59.391a6.079,6.079,0,0,1,0,12.158H217.444a6.079,6.079,0,0,1,0-12.158" transform="translate(-211.365 -341.453)" fill="#96a0a5"/>
      <path id="Trazado_720276" data-name="Trazado 720276" d="M257.221,431.254l132.3-.959,23.96-86.827a5.9,5.9,0,0,0-5.688-7.47H288.852a9.952,9.952,0,0,0-9.652,7.532Z" transform="translate(-214.198 -335.998)" fill="#96a0a5"/>
      <path id="Trazado_720277" data-name="Trazado 720277" d="M263.257,431.254l127.509-.959,23.092-86.827a5.859,5.859,0,0,0-5.482-7.47H293.743a9.664,9.664,0,0,0-9.3,7.532Z" transform="translate(-214.571 -335.998)" fill="#e7eaef"/>
      <path id="Trazado_720278" data-name="Trazado 720278" d="M313.589,430.876l-50.332.378,21.184-87.724a9.664,9.664,0,0,1,9.3-7.532H397.21C393.389,355.214,377.3,407.723,313.589,430.876Z" transform="translate(-214.571 -335.998)" fill="#fff"/>
      <path id="Trazado_720279" data-name="Trazado 720279" d="M351.283,366.249c4.594.748,7.477,6.578,6.43,13.01s-5.626,11.05-10.221,10.3-7.478-6.576-6.431-13.009,5.627-11.05,10.223-10.3" transform="translate(-219.365 -337.862)" fill="#c9d5dc"/>
      <path id="Trazado_720280" data-name="Trazado 720280" d="M338.281,362.637c1.7.277,2.771,2.437,2.383,4.822s-2.084,4.1-3.788,3.819-2.77-2.438-2.382-4.821,2.084-4.1,3.787-3.819" transform="translate(-218.967 -337.642)" fill="#c9d5dc"/>
    </g>
    <path id="Trazado_720281" data-name="Trazado 720281" d="M416.009,436.225H61.56c-2.024,0-3.709,2.774-3.709,6.1s1.685,6.1,3.709,6.1h354.45c2.024,0,3.708-2.774,3.708-6.1s-1.684-6.1-3.708-6.1" transform="translate(-1.601 -16.536)" fill="#3076b6"/>
    <g id="Grupo_1018712" data-name="Grupo 1018712" transform="translate(339.073 280.398)">
      <g id="Grupo_1018711" data-name="Grupo 1018711" transform="translate(0 5.722)">
        <path id="Trazado_720282" data-name="Trazado 720282" d="M396.5,293.861H361.965a2.7,2.7,0,0,0-2.667,2.666v25.7a2.7,2.7,0,0,0,2.667,2.666H396.5a2.7,2.7,0,0,0,2.667-2.666v-25.7a2.7,2.7,0,0,0-2.667-2.666" transform="translate(-359.298 -293.861)" fill="#4db1f0"/>
        <path id="Trazado_720283" data-name="Trazado 720283" d="M360.293,294.535l-.01.01a.254.254,0,0,0-.048.039c-.107.1-.208.207-.307.318l-.061.069a28.411,28.411,0,0,0,1.437,4.489,26.647,26.647,0,0,0,1.587,3.2,24.661,24.661,0,0,0,2.025,2.952,21.53,21.53,0,0,0,3.705,3.662l-.032.007-.032.023-.072.054-.088.072-.064.051-.029.028-.031.022-.069.054c-.2.162-.385.321-.567.482l-.05.043-.067.06-.049.044-.038.032-.03.028-.049.045-.083.076-.069.065c-.224.209-.441.42-.654.635a24.723,24.723,0,0,0-5.051,7.612,28.391,28.391,0,0,0-1.662,5.168l.126.153.128.137.115.107.054.051a30.494,30.494,0,0,1,1.63-5.2,25.612,25.612,0,0,1,3.258-5.619,21.868,21.868,0,0,1,3.2-3.349c.1-.087.207-.174.312-.258l.044-.037.039-.031.028-.023.068-.053.028-.022.028-.022.036-.033.027-.021.031-.024a.415.415,0,0,0,.062-.047c.359.275.766.553,1.2.825a17.5,17.5,0,0,0,6.71,2.478,16.582,16.582,0,0,0,2.359.169,16.825,16.825,0,0,0,4.763-.691A17.5,17.5,0,0,0,387.4,311a18.917,18.917,0,0,0,2.3-1.46c0,.021.023.041.049.062l.035.027c.253.2.513.407.8.648l.048.041.038.034.049.043.047.04.248.221.276.255.024.023.025.023a22.448,22.448,0,0,1,1.957,2.111c.119.147.237.3.354.446a25.6,25.6,0,0,1,1.651,2.442,27.19,27.19,0,0,1,1.591,3.154v-.069a31.418,31.418,0,0,1,1.538,4.919l.027.125a1.46,1.46,0,0,0,.251-.288c.038-.054.075-.111.112-.168.01-.017.02-.036.029-.053l.02-.034a27.787,27.787,0,0,0-3.134-7.889,25.449,25.449,0,0,0-2-2.882c-.035-.045-.057-.072-.081-.1a23.058,23.058,0,0,0-1.879-2.031l-.094-.089c-.087-.083-.175-.164-.266-.247l-.084-.078-.06-.053-.032-.023-.023-.024-.025-.023-.1-.086-.1-.083-.06-.052c-.237-.2-.463-.386-.692-.566l-.114-.087.15-.127a22.544,22.544,0,0,0,4.794-5.3,26.748,26.748,0,0,0,3.084-6.472c.227-.694.435-1.436.617-2.2a2.339,2.339,0,0,0-.291-.382l-.114-.114a31.334,31.334,0,0,1-1.518,4.712,25.533,25.533,0,0,1-3.262,5.638,21.874,21.874,0,0,1-3.841,3.87,18.9,18.9,0,0,1-4.039,2.38,17.146,17.146,0,0,1-4.2,1.158l-.034,0a16.32,16.32,0,0,1-2.134.138,16.792,16.792,0,0,1-2.148-.139,17.079,17.079,0,0,1-4.248-1.171l.047.048a20.2,20.2,0,0,1-4.059-2.416,22.008,22.008,0,0,1-3.855-3.885,25.728,25.728,0,0,1-3.239-5.594,28.171,28.171,0,0,1-1.526-4.824Z" transform="translate(-359.331 -293.903)" fill="#3076b6"/>
      </g>
      <path id="Trazado_720284" data-name="Trazado 720284" d="M398.681,287.762a7.282,7.282,0,1,0,7.281,7.281,7.289,7.289,0,0,0-7.281-7.281" transform="translate(-361.281 -287.762)" fill="#fba92d"/>
    </g>
    <g id="Grupo_1018713" data-name="Grupo 1018713" transform="translate(238.19 207.316)">
      <rect id="Rectángulo_348374" data-name="Rectángulo 348374" width="130.414" height="46.799" rx="6.236" transform="translate(0 0)" fill="#ffa031"/>
      <path id="Trazado_720285" data-name="Trazado 720285" d="M382.186,217.355v-1.637a5.851,5.851,0,0,0-5.851-5.851H257.622a5.851,5.851,0,0,0-5.85,5.851v1.637Z" transform="translate(-251.772 -209.867)" fill="#239486"/>
      <line id="Línea_2541" data-name="Línea 2541" x2="111.906" transform="translate(8.114 14.947)" fill="none" stroke="#fff" stroke-linecap="round" stroke-miterlimit="10" stroke-width="1.265"/>
      <line id="Línea_2542" data-name="Línea 2542" x2="111.906" transform="translate(8.114 27.144)" fill="none" stroke="#fff" stroke-linecap="round" stroke-miterlimit="10" stroke-width="1.265"/>
      <line id="Línea_2543" data-name="Línea 2543" x2="111.906" transform="translate(8.114 39.341)" fill="none" stroke="#fff" stroke-linecap="round" stroke-miterlimit="10" stroke-width="1.265"/>
    </g>
  </g>
</svg>
