<svg xmlns="http://www.w3.org/2000/svg" xmlns:xlink="http://www.w3.org/1999/xlink" width="611" height="465.006" viewBox="0 0 611 465.006">
  <defs>
    <clipPath id="clip-path">
      <path id="Trazado_723241" data-name="Trazado 723241" d="M908.6,228.669h27.5v310H908.6v-310Z" transform="translate(-908.6 -228.669)" fill="#12263f" clip-rule="evenodd"/>
    </clipPath>
    <clipPath id="clip-path-2">
      <rect id="Rectángulo_349151" data-name="Rectángulo 349151" width="27.502" height="310" fill="#12263f"/>
    </clipPath>
  </defs>
  <g id="Grupo_1024435" data-name="Grupo 1024435" transform="translate(-495 -3442)">
    <path id="Trazado_723893" data-name="Trazado 723893" transform="translate(1059.896 3907.006)"/>
    <path id="Trazado_723874" data-name="Trazado 723874" d="M0,160.527,83.882,0" transform="translate(641.994 3479.402)" fill="none" stroke="#3d6696" stroke-width="2"/>
    <path id="Trazado_723865" data-name="Trazado 723865" d="M0,0,97.107,19.6" transform="translate(871.924 3479.402)" fill="none" stroke="#4774ab" stroke-width="2"/>
    <path id="Trazado_723866" data-name="Trazado 723866" d="M0,0,93.534,101.153" transform="translate(871.924 3479.402)" fill="none" stroke="#4774ab" stroke-width="2"/>
    <path id="Trazado_723877" data-name="Trazado 723877" d="M0,0,60.734,192.162" transform="translate(641.994 3639.93)" fill="none" stroke="#3d6696" stroke-width="2"/>
    <path id="Trazado_723885" data-name="Trazado 723885" d="M0,82.158,114.687,0" transform="translate(848.777 3749.935)" fill="none" stroke="#4774ab" stroke-width="2"/>
    <path id="Trazado_723880" data-name="Trazado 723880" d="M0,166.878,116.681,0" transform="translate(848.777 3665.215)" fill="none" stroke="#4774ab" stroke-width="2"/>
    <path id="Trazado_723891" data-name="Trazado 723891" d="M0,0,120.254,0" transform="translate(848.777 3832.092)" fill="none" stroke="#4774ab" stroke-width="2"/>
    <path id="Trazado_723238" data-name="Trazado 723238" d="M943.286,212.472c12.393,0,50.493,1.674,50.493,3.74V394.2c0,2.066,10.048,3.74,22.442,3.74-12.393,0-22.442,1.674-22.442,3.74V579.677c0,2.066-63.386,3.74-75.78,3.74" transform="translate(-66.457 3262.217)" fill="none" stroke="#4db1f0" stroke-linejoin="round" stroke-width="2"/>
    <path id="Trazado_723239" data-name="Trazado 723239" d="M901.1,231.869h60.724v295.7H901.1v-295.7Z" transform="translate(-86.739 3285.496)" fill="#fff" fill-rule="evenodd"/>
    <path id="Trazado_723240" data-name="Trazado 723240" d="M901.1,231.869h60.724v295.7H901.1v-295.7Z" transform="translate(-86.739 3285.496)" fill="#e8e8e8" stroke="#a1a1a1" stroke-miterlimit="8" stroke-width="0.75"/>
    <g id="Grupo_1022927" data-name="Grupo 1022927" transform="translate(830.862 3510.324)">
      <g id="Grupo_1022926" data-name="Grupo 1022926" clip-path="url(#clip-path)">
        <g id="Grupo_1022923" data-name="Grupo 1022923">
          <g id="Grupo_1022922" data-name="Grupo 1022922" clip-path="url(#clip-path-2)">
            <text id="Según_su_finalidad" data-name="Según su finalidad" transform="translate(15.319 243.136) rotate(-90)" fill="#12263f" font-size="16" font-family="Arial-BoldMT, Arial" font-weight="700"><tspan x="0" y="0">Según su finalidad</tspan></text>
          </g>
        </g>
        <g id="Grupo_1022925" data-name="Grupo 1022925">
          <g id="Grupo_1022924" data-name="Grupo 1022924" clip-path="url(#clip-path-2)">
            <text id="_" data-name=" " transform="translate(12.319 67.124) rotate(-90)" fill="#12263f" font-size="12" font-family="Arial-BoldMT, Arial" font-weight="700"><tspan x="0" y="0"> </tspan></text>
          </g>
        </g>
      </g>
    </g>
    <path id="Trazado_723242" data-name="Trazado 723242" d="M3.32,0H142.77a3.32,3.32,0,0,1,3.32,3.32v66.4a3.32,3.32,0,0,1-3.32,3.32H3.32A3.32,3.32,0,0,1,0,69.725V3.32A3.32,3.32,0,0,1,3.32,0Z" transform="translate(496 3603.391)" fill="#3076b6"/>
    <path id="Trazado_723878" data-name="Trazado 723878" d="M3.32,0H142.77a3.32,3.32,0,0,1,3.32,3.32v66.4a3.32,3.32,0,0,1-3.32,3.32H3.32A3.32,3.32,0,0,1,0,69.725V3.32A3.32,3.32,0,0,1,3.32,0Z" transform="translate(496 3603.391)" fill="none" stroke="#fff" stroke-width="2"/>
    <path id="Trazado_723881" data-name="Trazado 723881" d="M-33.344-11.375l2.922,8.25,2.906-8.25h3.078V0h-2.352V-3.109l.234-5.367L-29.625,0h-1.609L-34.3-8.469l.234,5.359V0h-2.344V-11.375ZM-18.648.156A4.15,4.15,0,0,1-21.676-.984a4.054,4.054,0,0,1-1.168-3.039v-.219a5.106,5.106,0,0,1,.492-2.277,3.612,3.612,0,0,1,1.395-1.547A3.914,3.914,0,0,1-18.9-8.609a3.508,3.508,0,0,1,2.73,1.094,4.444,4.444,0,0,1,1,3.1v.922h-5.383a2.1,2.1,0,0,0,.66,1.328,2,2,0,0,0,1.395.5,2.437,2.437,0,0,0,2.039-.945l1.109,1.242A3.389,3.389,0,0,1-16.727-.246,4.511,4.511,0,0,1-18.648.156Zm-.258-6.945A1.411,1.411,0,0,0-20-6.334a2.357,2.357,0,0,0-.535,1.3h3.141v-.181A1.681,1.681,0,0,0-17.8-6.377,1.456,1.456,0,0,0-18.906-6.789Zm4.664,2.5a5.094,5.094,0,0,1,.887-3.148A2.877,2.877,0,0,1-10.93-8.609a2.589,2.589,0,0,1,2.039.922V-12h2.266V0H-8.664l-.109-.9A2.657,2.657,0,0,1-10.945.156,2.869,2.869,0,0,1-13.34-1.02,5.258,5.258,0,0,1-14.242-4.289Zm2.258.161A3.355,3.355,0,0,0-11.57-2.3a1.348,1.348,0,0,0,1.2.636,1.51,1.51,0,0,0,1.477-.887V-5.9a1.489,1.489,0,0,0-1.461-.887Q-11.984-6.789-11.984-4.128ZM-2.492,0H-4.758V-8.453h2.266Zm-2.4-10.641a1.112,1.112,0,0,1,.34-.836,1.277,1.277,0,0,1,.926-.328,1.28,1.28,0,0,1,.922.328,1.105,1.105,0,0,1,.344.836,1.108,1.108,0,0,1-.348.844,1.283,1.283,0,0,1-.918.328A1.283,1.283,0,0,1-4.543-9.8,1.108,1.108,0,0,1-4.891-10.641ZM-.984-4.3A5.013,5.013,0,0,1-.5-6.547,3.546,3.546,0,0,1,.895-8.07a4.069,4.069,0,0,1,2.113-.539A3.849,3.849,0,0,1,5.8-7.562,4.2,4.2,0,0,1,7.008-4.719l.016.578A4.418,4.418,0,0,1,5.938-1.02,3.775,3.775,0,0,1,3.023.156,3.793,3.793,0,0,1,.105-1.016,4.5,4.5,0,0,1-.984-4.2Zm2.258.16A3.16,3.16,0,0,0,1.727-2.3a1.5,1.5,0,0,0,1.3.638A1.5,1.5,0,0,0,4.3-2.294a3.457,3.457,0,0,0,.461-2.015A3.128,3.128,0,0,0,4.3-6.14a1.5,1.5,0,0,0-1.3-.649,1.474,1.474,0,0,0-1.281.646A3.516,3.516,0,0,0,1.273-4.144ZM12.992-2.336a.727.727,0,0,0-.41-.652,4.659,4.659,0,0,0-1.316-.426Q8.25-4.047,8.25-5.977a2.323,2.323,0,0,1,.934-1.879,3.766,3.766,0,0,1,2.441-.754,4.053,4.053,0,0,1,2.574.758,2.388,2.388,0,0,1,.965,1.969H12.906a1.092,1.092,0,0,0-.312-.8A1.322,1.322,0,0,0,11.617-7a1.351,1.351,0,0,0-.883.258.814.814,0,0,0-.312.656.7.7,0,0,0,.355.605,3.657,3.657,0,0,0,1.2.4A9.8,9.8,0,0,1,13.4-4.7,2.336,2.336,0,0,1,15.188-2.43,2.2,2.2,0,0,1,14.2-.559a4.28,4.28,0,0,1-2.562.715A4.47,4.47,0,0,1,9.746-.223,3.166,3.166,0,0,1,8.453-1.262a2.414,2.414,0,0,1-.469-1.426h2.141a1.179,1.179,0,0,0,.445.922,1.766,1.766,0,0,0,1.109.32,1.635,1.635,0,0,0,.98-.246A.766.766,0,0,0,12.992-2.336Zm7.281-1.953a5.094,5.094,0,0,1,.887-3.148,2.877,2.877,0,0,1,2.426-1.172,2.589,2.589,0,0,1,2.039.922V-12h2.266V0H25.852l-.109-.9A2.657,2.657,0,0,1,23.57.156,2.869,2.869,0,0,1,21.176-1.02,5.258,5.258,0,0,1,20.273-4.289Zm2.258.161A3.355,3.355,0,0,0,22.945-2.3a1.348,1.348,0,0,0,1.2.636,1.51,1.51,0,0,0,1.477-.887V-5.9a1.489,1.489,0,0,0-1.461-.887Q22.531-6.789,22.531-4.128Zm11,4.285A4.15,4.15,0,0,1,30.5-.984a4.054,4.054,0,0,1-1.168-3.039v-.219a5.106,5.106,0,0,1,.492-2.277,3.612,3.612,0,0,1,1.395-1.547,3.914,3.914,0,0,1,2.059-.543,3.508,3.508,0,0,1,2.73,1.094,4.444,4.444,0,0,1,1,3.1v.922H31.625a2.1,2.1,0,0,0,.66,1.328,2,2,0,0,0,1.395.5,2.437,2.437,0,0,0,2.039-.945l1.109,1.242A3.389,3.389,0,0,1,35.453-.246,4.511,4.511,0,0,1,33.531.156Zm-.258-6.945a1.411,1.411,0,0,0-1.09.455,2.357,2.357,0,0,0-.535,1.3h3.141v-.181a1.681,1.681,0,0,0-.406-1.165A1.456,1.456,0,0,0,33.273-6.789ZM-21.711,22.336a1.481,1.481,0,0,0,1.016-.344,1.2,1.2,0,0,0,.406-.914h2.117a2.9,2.9,0,0,1-.469,1.574A3.093,3.093,0,0,1-19.9,23.762a3.949,3.949,0,0,1-1.77.395A3.67,3.67,0,0,1-24.531,23a4.56,4.56,0,0,1-1.047-3.184v-.148a4.508,4.508,0,0,1,1.039-3.117,3.627,3.627,0,0,1,2.852-1.164,3.555,3.555,0,0,1,2.543.9,3.2,3.2,0,0,1,.973,2.4h-2.117a1.551,1.551,0,0,0-.406-1.072,1.354,1.354,0,0,0-1.031-.412,1.36,1.36,0,0,0-1.191.575,3.333,3.333,0,0,0-.4,1.866v.235a3.375,3.375,0,0,0,.4,1.878A1.377,1.377,0,0,0-21.711,22.336Zm9.891.8a2.831,2.831,0,0,1-2.312,1.016,2.67,2.67,0,0,1-2.074-.781,3.335,3.335,0,0,1-.73-2.289V15.547h2.258v5.467q0,1.322,1.2,1.322a1.63,1.63,0,0,0,1.578-.8V15.547h2.266V24h-2.125ZM-5.547,24H-7.812V12h2.266ZM-.984,13.469v2.078H.461V17.2H-.984v4.219a1.007,1.007,0,0,0,.18.672.9.9,0,0,0,.688.2,3.6,3.6,0,0,0,.664-.055v1.711a4.648,4.648,0,0,1-1.367.2,2.156,2.156,0,0,1-2.422-2.4V17.2H-4.477V15.547h1.234V13.469ZM4.1,24H1.836V15.547H4.1ZM1.7,13.359a1.112,1.112,0,0,1,.34-.836,1.277,1.277,0,0,1,.926-.328,1.28,1.28,0,0,1,.922.328,1.193,1.193,0,0,1,0,1.68,1.283,1.283,0,0,1-.918.328,1.283,1.283,0,0,1-.918-.328A1.108,1.108,0,0,1,1.7,13.359Zm7.422,7.883,1.57-5.7h2.359L10.2,24H8.047L5.2,15.547H7.555ZM13.578,19.7a5.013,5.013,0,0,1,.484-2.242,3.546,3.546,0,0,1,1.395-1.523,4.069,4.069,0,0,1,2.113-.539,3.849,3.849,0,0,1,2.793,1.047,4.2,4.2,0,0,1,1.207,2.844l.016.578A4.418,4.418,0,0,1,20.5,22.98a3.775,3.775,0,0,1-2.914,1.176,3.793,3.793,0,0,1-2.918-1.172,4.5,4.5,0,0,1-1.09-3.187Zm2.258.16a3.16,3.16,0,0,0,.453,1.843,1.628,1.628,0,0,0,2.578.008,3.457,3.457,0,0,0,.461-2.015,3.128,3.128,0,0,0-.461-1.831,1.5,1.5,0,0,0-1.3-.649,1.474,1.474,0,0,0-1.281.646A3.516,3.516,0,0,0,15.836,19.856Z" transform="translate(569.044 3632.161)" fill="#fff"/>
    <path id="Trazado_723888" data-name="Trazado 723888" d="M3.31,0H142.56a3.31,3.31,0,0,1,3.31,3.31V69.515a3.31,3.31,0,0,1-3.31,3.31H3.31A3.31,3.31,0,0,1,0,69.515V3.31A3.31,3.31,0,0,1,3.31,0Z" transform="translate(703 3815)" fill="#008b8a"/>
    <path id="Trazado_723889" data-name="Trazado 723889" d="M3.31,0H142.56a3.31,3.31,0,0,1,3.31,3.31V69.515a3.31,3.31,0,0,1-3.31,3.31H3.31A3.31,3.31,0,0,1,0,69.515V3.31A3.31,3.31,0,0,1,3.31,0Z" transform="translate(702.813 3815.485)" fill="none" stroke="#fff" stroke-width="2"/>
    <path id="Trazado_723892" data-name="Trazado 723892" d="M9.945-3.789A4.025,4.025,0,0,1,8.59-.9,4.76,4.76,0,0,1,5.367.156,4.28,4.28,0,0,1,1.926-1.316,6.038,6.038,0,0,1,.672-5.359v-.7A6.819,6.819,0,0,1,1.25-8.945,4.332,4.332,0,0,1,2.9-10.863a4.629,4.629,0,0,1,2.5-.668A4.637,4.637,0,0,1,8.57-10.477,4.326,4.326,0,0,1,9.961-7.516H7.617A2.376,2.376,0,0,0,7-9.113a2.271,2.271,0,0,0-1.605-.5,1.991,1.991,0,0,0-1.754.84,4.707,4.707,0,0,0-.6,2.605V-5.3a5.038,5.038,0,0,0,.559,2.7,1.954,1.954,0,0,0,1.762.852,2.314,2.314,0,0,0,1.621-.5A2.241,2.241,0,0,0,7.6-3.789ZM10.984-4.3a5.013,5.013,0,0,1,.484-2.242A3.546,3.546,0,0,1,12.863-8.07a4.069,4.069,0,0,1,2.113-.539A3.849,3.849,0,0,1,17.77-7.562a4.2,4.2,0,0,1,1.207,2.844l.016.578A4.418,4.418,0,0,1,17.906-1.02,3.775,3.775,0,0,1,14.992.156a3.793,3.793,0,0,1-2.918-1.172A4.5,4.5,0,0,1,10.984-4.2Zm2.258.16A3.16,3.16,0,0,0,13.7-2.3a1.5,1.5,0,0,0,1.3.638,1.5,1.5,0,0,0,1.281-.63,3.457,3.457,0,0,0,.461-2.015,3.128,3.128,0,0,0-.461-1.831,1.5,1.5,0,0,0-1.3-.649,1.474,1.474,0,0,0-1.281.646A3.516,3.516,0,0,0,13.242-4.144ZM22.5-8.453l.07.945A2.971,2.971,0,0,1,25-8.609,2.255,2.255,0,0,1,27.242-7.32a2.9,2.9,0,0,1,2.539-1.289,2.521,2.521,0,0,1,2.047.8A3.681,3.681,0,0,1,32.5-5.4V0H30.234V-5.4a1.616,1.616,0,0,0-.281-1.053,1.245,1.245,0,0,0-.992-.333,1.409,1.409,0,0,0-1.406.971L27.563,0H25.3V-5.4a1.6,1.6,0,0,0-.289-1.065,1.257,1.257,0,0,0-.984-.329,1.463,1.463,0,0,0-1.391.8V0H20.383V-8.453Zm19.344,4.3a5.07,5.07,0,0,1-.887,3.129A2.843,2.843,0,0,1,38.563.156a2.633,2.633,0,0,1-2.07-.891V3.25H34.234v-11.7h2.094l.078.828a2.654,2.654,0,0,1,2.141-.984,2.862,2.862,0,0,1,2.43,1.156,5.207,5.207,0,0,1,.867,3.188Zm-2.258-.172a3.345,3.345,0,0,0-.418-1.826,1.36,1.36,0,0,0-1.215-.643,1.478,1.478,0,0,0-1.461.815V-2.5a1.5,1.5,0,0,0,1.477.839Q39.586-1.664,39.586-4.321ZM45.625,0H43.359V-12h2.266Zm5.75.156A4.15,4.15,0,0,1,48.348-.984,4.054,4.054,0,0,1,47.18-4.023v-.219a5.106,5.106,0,0,1,.492-2.277,3.612,3.612,0,0,1,1.395-1.547,3.914,3.914,0,0,1,2.059-.543,3.508,3.508,0,0,1,2.73,1.094,4.444,4.444,0,0,1,1,3.1v.922H49.469a2.1,2.1,0,0,0,.66,1.328,2,2,0,0,0,1.395.5,2.437,2.437,0,0,0,2.039-.945l1.109,1.242A3.389,3.389,0,0,1,53.3-.246,4.511,4.511,0,0,1,51.375.156Zm-.258-6.945a1.411,1.411,0,0,0-1.09.455,2.357,2.357,0,0,0-.535,1.3h3.141v-.181a1.681,1.681,0,0,0-.406-1.165A1.456,1.456,0,0,0,51.117-6.789Zm7.406-1.664V.461a3.024,3.024,0,0,1-.742,2.176,2.821,2.821,0,0,1-2.141.777,4.591,4.591,0,0,1-1.117-.133V1.492a4.238,4.238,0,0,0,.711.07q1.023,0,1.023-1.086v-8.93Zm-2.445-2.187a1.112,1.112,0,0,1,.34-.836,1.277,1.277,0,0,1,.926-.328,1.277,1.277,0,0,1,.926.328,1.112,1.112,0,0,1,.34.836,1.108,1.108,0,0,1-.348.844,1.283,1.283,0,0,1-.918.328,1.283,1.283,0,0,1-.918-.328A1.108,1.108,0,0,1,56.078-10.641ZM59.938-4.3a5.013,5.013,0,0,1,.484-2.242A3.546,3.546,0,0,1,61.816-8.07a4.069,4.069,0,0,1,2.113-.539,3.849,3.849,0,0,1,2.793,1.047A4.2,4.2,0,0,1,67.93-4.719l.016.578A4.418,4.418,0,0,1,66.859-1.02,3.775,3.775,0,0,1,63.945.156a3.793,3.793,0,0,1-2.918-1.172A4.5,4.5,0,0,1,59.938-4.2Zm2.258.16A3.16,3.16,0,0,0,62.648-2.3a1.5,1.5,0,0,0,1.3.638,1.5,1.5,0,0,0,1.281-.63,3.457,3.457,0,0,0,.461-2.015,3.128,3.128,0,0,0-.461-1.831,1.5,1.5,0,0,0-1.3-.649,1.474,1.474,0,0,0-1.281.646A3.516,3.516,0,0,0,62.2-4.144ZM73.914-2.336a.727.727,0,0,0-.41-.652,4.659,4.659,0,0,0-1.316-.426q-3.016-.633-3.016-2.562a2.323,2.323,0,0,1,.934-1.879,3.766,3.766,0,0,1,2.441-.754,4.053,4.053,0,0,1,2.574.758,2.388,2.388,0,0,1,.965,1.969H73.828a1.092,1.092,0,0,0-.312-.8A1.322,1.322,0,0,0,72.539-7a1.351,1.351,0,0,0-.883.258.814.814,0,0,0-.312.656.7.7,0,0,0,.355.605,3.657,3.657,0,0,0,1.2.4A9.8,9.8,0,0,1,74.32-4.7,2.336,2.336,0,0,1,76.109-2.43a2.2,2.2,0,0,1-.992,1.871,4.28,4.28,0,0,1-2.562.715,4.47,4.47,0,0,1-1.887-.379,3.166,3.166,0,0,1-1.293-1.039,2.414,2.414,0,0,1-.469-1.426h2.141a1.179,1.179,0,0,0,.445.922,1.766,1.766,0,0,0,1.109.32,1.635,1.635,0,0,0,.98-.246A.766.766,0,0,0,73.914-2.336Z" transform="translate(737 3857)" fill="#fff"/>
    <path id="Trazado_723868" data-name="Trazado 723868" d="M3.31,0H142.78a3.31,3.31,0,0,1,3.31,3.31V69.515a3.31,3.31,0,0,1-3.31,3.31H3.31A3.31,3.31,0,0,1,0,69.515V3.31A3.31,3.31,0,0,1,3.31,0Z" transform="translate(726 3443)" fill="#008b8a"/>
    <path id="Trazado_723869" data-name="Trazado 723869" d="M3.31,0H142.78a3.31,3.31,0,0,1,3.31,3.31V69.515a3.31,3.31,0,0,1-3.31,3.31H3.31A3.31,3.31,0,0,1,0,69.515V3.31A3.31,3.31,0,0,1,3.31,0Z" transform="translate(725.915 3443)" fill="none" stroke="#fff" stroke-width="2"/>
    <path id="Trazado_723870" data-name="Trazado 723870" d="M6.914-2.984A1.2,1.2,0,0,0,6.445-4a6.148,6.148,0,0,0-1.687-.75,11.963,11.963,0,0,1-1.93-.777A3.153,3.153,0,0,1,.891-8.352,2.747,2.747,0,0,1,1.41-10,3.389,3.389,0,0,1,2.9-11.125a5.616,5.616,0,0,1,2.184-.406,5.112,5.112,0,0,1,2.172.441,3.458,3.458,0,0,1,1.48,1.246,3.261,3.261,0,0,1,.527,1.828H6.922A1.534,1.534,0,0,0,6.43-9.23a2.023,2.023,0,0,0-1.383-.434A2.162,2.162,0,0,0,3.711-9.3a1.146,1.146,0,0,0-.477.957,1.1,1.1,0,0,0,.559.93,6.311,6.311,0,0,0,1.645.7A7.106,7.106,0,0,1,8.352-5.219,2.972,2.972,0,0,1,9.266-3,2.737,2.737,0,0,1,8.148-.684a4.891,4.891,0,0,1-3.008.84A5.808,5.808,0,0,1,2.75-.324,3.783,3.783,0,0,1,1.105-1.641,3.371,3.371,0,0,1,.539-3.578H2.891q0,1.883,2.25,1.883a2.189,2.189,0,0,0,1.3-.34A1.106,1.106,0,0,0,6.914-2.984ZM13.086,0H10.82V-8.453h2.266Zm-2.4-10.641a1.112,1.112,0,0,1,.34-.836,1.277,1.277,0,0,1,.926-.328,1.28,1.28,0,0,1,.922.328,1.105,1.105,0,0,1,.344.836,1.108,1.108,0,0,1-.348.844,1.283,1.283,0,0,1-.918.328,1.283,1.283,0,0,1-.918-.328A1.108,1.108,0,0,1,10.688-10.641Zm6.336,2.188.07.977a2.951,2.951,0,0,1,2.43-1.133,2.453,2.453,0,0,1,2,.789A3.682,3.682,0,0,1,22.2-5.461V0H19.938V-5.419a1.47,1.47,0,0,0-.312-1.045,1.4,1.4,0,0,0-1.039-.325,1.553,1.553,0,0,0-1.43.814V0H14.9V-8.453Zm9.586-2.078v2.078h1.445V-6.8H26.609v4.219a1.007,1.007,0,0,0,.18.672.9.9,0,0,0,.688.2,3.6,3.6,0,0,0,.664-.055V-.047a4.648,4.648,0,0,1-1.367.2,2.156,2.156,0,0,1-2.422-2.4V-6.8H23.117V-8.453h1.234v-2.078ZM33.2.156A4.15,4.15,0,0,1,30.176-.984a4.054,4.054,0,0,1-1.168-3.039v-.219A5.106,5.106,0,0,1,29.5-6.52a3.612,3.612,0,0,1,1.395-1.547,3.914,3.914,0,0,1,2.059-.543,3.508,3.508,0,0,1,2.73,1.094,4.444,4.444,0,0,1,1,3.1v.922H31.3a2.1,2.1,0,0,0,.66,1.328,2,2,0,0,0,1.395.5,2.437,2.437,0,0,0,2.039-.945L36.5-1.367A3.389,3.389,0,0,1,35.125-.246,4.511,4.511,0,0,1,33.2.156Zm-.258-6.945a1.411,1.411,0,0,0-1.09.455,2.357,2.357,0,0,0-.535,1.3h3.141v-.181a1.681,1.681,0,0,0-.406-1.165A1.456,1.456,0,0,0,32.945-6.789Zm.2-5.211h2.461L33.445-9.578H31.609Zm7.516,1.469v2.078h1.445V-6.8H40.664v4.219a1.007,1.007,0,0,0,.18.672.9.9,0,0,0,.688.2,3.6,3.6,0,0,0,.664-.055V-.047a4.648,4.648,0,0,1-1.367.2,2.156,2.156,0,0,1-2.422-2.4V-6.8H37.172V-8.453h1.234v-2.078ZM45.75,0H43.484V-8.453H45.75Zm-2.4-10.641a1.112,1.112,0,0,1,.34-.836,1.277,1.277,0,0,1,.926-.328,1.28,1.28,0,0,1,.922.328,1.105,1.105,0,0,1,.344.836,1.108,1.108,0,0,1-.348.844,1.283,1.283,0,0,1-.918.328A1.283,1.283,0,0,1,43.7-9.8,1.108,1.108,0,0,1,43.352-10.641Zm7.773,8.977a1.481,1.481,0,0,0,1.016-.344,1.2,1.2,0,0,0,.406-.914h2.117A2.9,2.9,0,0,1,54.2-1.348,3.093,3.093,0,0,1,52.934-.238a3.949,3.949,0,0,1-1.77.395A3.67,3.67,0,0,1,48.3-1,4.56,4.56,0,0,1,47.258-4.18v-.148A4.508,4.508,0,0,1,48.3-7.445a3.627,3.627,0,0,1,2.852-1.164,3.555,3.555,0,0,1,2.543.9,3.2,3.2,0,0,1,.973,2.4H52.547a1.551,1.551,0,0,0-.406-1.072,1.354,1.354,0,0,0-1.031-.412,1.36,1.36,0,0,0-1.191.575,3.333,3.333,0,0,0-.4,1.866v.235a3.375,3.375,0,0,0,.4,1.878A1.377,1.377,0,0,0,51.125-1.664ZM55.6-4.3a5.013,5.013,0,0,1,.484-2.242A3.546,3.546,0,0,1,57.48-8.07a4.069,4.069,0,0,1,2.113-.539,3.849,3.849,0,0,1,2.793,1.047,4.2,4.2,0,0,1,1.207,2.844l.016.578A4.418,4.418,0,0,1,62.523-1.02,3.775,3.775,0,0,1,59.609.156a3.793,3.793,0,0,1-2.918-1.172A4.5,4.5,0,0,1,55.6-4.2Zm2.258.16A3.16,3.16,0,0,0,58.313-2.3a1.5,1.5,0,0,0,1.3.638,1.5,1.5,0,0,0,1.281-.63,3.457,3.457,0,0,0,.461-2.015,3.128,3.128,0,0,0-.461-1.831,1.5,1.5,0,0,0-1.3-.649,1.474,1.474,0,0,0-1.281.646A3.516,3.516,0,0,0,57.859-4.144ZM69.578-2.336a.727.727,0,0,0-.41-.652,4.659,4.659,0,0,0-1.316-.426q-3.016-.633-3.016-2.562a2.323,2.323,0,0,1,.934-1.879,3.766,3.766,0,0,1,2.441-.754,4.053,4.053,0,0,1,2.574.758,2.388,2.388,0,0,1,.965,1.969H69.492a1.092,1.092,0,0,0-.312-.8A1.322,1.322,0,0,0,68.2-7a1.351,1.351,0,0,0-.883.258.814.814,0,0,0-.312.656.7.7,0,0,0,.355.605,3.657,3.657,0,0,0,1.2.4,9.8,9.8,0,0,1,1.422.379A2.336,2.336,0,0,1,71.773-2.43a2.2,2.2,0,0,1-.992,1.871,4.28,4.28,0,0,1-2.562.715,4.47,4.47,0,0,1-1.887-.379,3.166,3.166,0,0,1-1.293-1.039,2.414,2.414,0,0,1-.469-1.426h2.141a1.179,1.179,0,0,0,.445.922,1.766,1.766,0,0,0,1.109.32,1.635,1.635,0,0,0,.98-.246A.766.766,0,0,0,69.578-2.336Z" transform="translate(763 3485)" fill="#fff"/>
    <path id="Trazado_723863" data-name="Trazado 723863" d="M3.32,0H142.77a3.32,3.32,0,0,1,3.32,3.32v66.4a3.32,3.32,0,0,1-3.32,3.32H3.32A3.32,3.32,0,0,1,0,69.725V3.32A3.32,3.32,0,0,1,3.32,0Z" transform="translate(958.91 3456.421)" fill="none" stroke="#fff" stroke-width="2"/>
    <path id="Trazado_723871" data-name="Trazado 723871" d="M3.32,0H142.77a3.32,3.32,0,0,1,3.32,3.32v66.4a3.32,3.32,0,0,1-3.32,3.32H3.32A3.32,3.32,0,0,1,0,69.725V3.32A3.32,3.32,0,0,1,3.32,0Z" transform="translate(958.91 3540.467)" fill="none" stroke="#fff" stroke-width="2"/>
    <path id="Trazado_723875" data-name="Trazado 723875" d="M3.31,0H142.78a3.31,3.31,0,0,1,3.31,3.31V69.515a3.31,3.31,0,0,1-3.31,3.31H3.31A3.31,3.31,0,0,1,0,69.515V3.31A3.31,3.31,0,0,1,3.31,0Z" transform="translate(958.91 3624.512)" fill="none" stroke="#fff" stroke-width="2"/>
    <path id="Trazado_723882" data-name="Trazado 723882" d="M3.32,0H142.77a3.32,3.32,0,0,1,3.32,3.32v66.4a3.32,3.32,0,0,1-3.32,3.32H3.32A3.32,3.32,0,0,1,0,69.725V3.32A3.32,3.32,0,0,1,3.32,0Z" transform="translate(958.91 3708.338)" fill="none" stroke="#fff" stroke-width="2"/>
    <path id="Trazado_723886" data-name="Trazado 723886" d="M3.32,0H142.77a3.32,3.32,0,0,1,3.32,3.32v66.4a3.32,3.32,0,0,1-3.32,3.32H3.32A3.32,3.32,0,0,1,0,69.725V3.32A3.32,3.32,0,0,1,3.32,0Z" transform="translate(958.91 3792.383)" fill="none" stroke="#fff" stroke-width="2"/>
    <path id="Trazado_723864" data-name="Trazado 723864" d="M3.32,0H142.77a3.32,3.32,0,0,1,3.32,3.32v66.4a3.32,3.32,0,0,1-3.32,3.32H3.32A3.32,3.32,0,0,1,0,69.725V3.32A3.32,3.32,0,0,1,3.32,0Z" transform="translate(958.91 3456.421)" fill="#cbfafa"/>
    <path id="Trazado_723867" data-name="Trazado 723867" d="M7.75-5.258H2.82v4.031H8.547V0H1.32V-11.375H8.469v1.227H2.82v3.664H7.75Zm3.8-3.2L11.6-7.391a3.08,3.08,0,0,1,2.531-1.219q2.68,0,2.7,3.023V0H15.391V-5.594a1.946,1.946,0,0,0-.418-1.352A1.675,1.675,0,0,0,13.7-7.383a2.086,2.086,0,0,0-1.234.375,2.546,2.546,0,0,0-.828.984V0H10.188V-8.453ZM23.1-7.156a4.331,4.331,0,0,0-.711-.055A1.9,1.9,0,0,0,20.461-6V0H19.016V-8.453h1.406l.023.977a2.251,2.251,0,0,1,2.016-1.133A1.477,1.477,0,0,1,23.1-8.5ZM26,0H24.555V-8.453H26ZM24.438-10.7a.863.863,0,0,1,.215-.594.807.807,0,0,1,.637-.242.819.819,0,0,1,.641.242.854.854,0,0,1,.219.594.826.826,0,0,1-.219.586.834.834,0,0,1-.641.234.821.821,0,0,1-.637-.234A.834.834,0,0,1,24.438-10.7Zm3.523,6.4a4.961,4.961,0,0,1,.914-3.152,2.962,2.962,0,0,1,2.453-1.16A2.96,2.96,0,0,1,33.7-7.6l.063-.852h1.328V3.25H33.641V-.781a3.033,3.033,0,0,1-2.328.938,2.915,2.915,0,0,1-2.441-1.191,5.072,5.072,0,0,1-.91-3.16Zm1.445.164a3.761,3.761,0,0,0,.613,2.281,1.951,1.951,0,0,0,1.652.828,2.164,2.164,0,0,0,1.969-1.141V-6.3a2.171,2.171,0,0,0-1.953-1.117,1.965,1.965,0,0,0-1.664.832A4.094,4.094,0,0,0,29.406-4.133Zm13.219,3.3a3.07,3.07,0,0,1-2.477.992A2.628,2.628,0,0,1,38.09-.629a3.4,3.4,0,0,1-.715-2.324v-5.5H38.82v5.461q0,1.922,1.563,1.922a2.163,2.163,0,0,0,2.2-1.234V-8.453h1.445V0H42.656Zm7.109.992a3.693,3.693,0,0,1-2.8-1.129,4.19,4.19,0,0,1-1.078-3.02v-.266A5.073,5.073,0,0,1,46.34-6.5a3.748,3.748,0,0,1,1.344-1.547,3.378,3.378,0,0,1,1.871-.559,3.166,3.166,0,0,1,2.563,1.086,4.7,4.7,0,0,1,.914,3.109v.6H47.3a3,3,0,0,0,.73,2.02,2.3,2.3,0,0,0,1.777.77,2.517,2.517,0,0,0,1.3-.312,3.259,3.259,0,0,0,.93-.828l.883.688A3.55,3.55,0,0,1,49.734.156Zm-.18-7.578a1.928,1.928,0,0,0-1.469.637A3.1,3.1,0,0,0,47.352-5h4.234v-.109a2.753,2.753,0,0,0-.594-1.707A1.815,1.815,0,0,0,49.555-7.422Zm8.539,6.4a2.082,2.082,0,0,0,1.352-.469,1.649,1.649,0,0,0,.641-1.172h1.367a2.621,2.621,0,0,1-.5,1.383,3.293,3.293,0,0,1-1.23,1.047,3.55,3.55,0,0,1-1.629.391A3.482,3.482,0,0,1,55.348-1a4.59,4.59,0,0,1-1.02-3.152v-.242a5.089,5.089,0,0,1,.453-2.2,3.451,3.451,0,0,1,1.3-1.492,3.7,3.7,0,0,1,2-.531,3.39,3.39,0,0,1,2.363.852,3.043,3.043,0,0,1,1,2.211H60.086a1.992,1.992,0,0,0-.621-1.348,1.932,1.932,0,0,0-1.379-.527,2.023,2.023,0,0,0-1.707.793,3.724,3.724,0,0,0-.605,2.293v.273a3.65,3.65,0,0,0,.6,2.25A2.033,2.033,0,0,0,58.094-1.023ZM64.648,0H63.2V-8.453h1.445ZM63.086-10.7a.863.863,0,0,1,.215-.594.807.807,0,0,1,.637-.242.819.819,0,0,1,.641.242.854.854,0,0,1,.219.594.826.826,0,0,1-.219.586.834.834,0,0,1-.641.234.821.821,0,0,1-.637-.234A.834.834,0,0,1,63.086-10.7Zm3.523,6.4a4.952,4.952,0,0,1,.922-3.129,2.915,2.915,0,0,1,2.414-1.184A2.932,2.932,0,0,1,72.3-7.594V-12h1.445V0H72.414l-.07-.906A2.943,2.943,0,0,1,69.93.156a2.887,2.887,0,0,1-2.395-1.2,5.008,5.008,0,0,1-.926-3.141Zm1.445.164a3.749,3.749,0,0,0,.594,2.25,1.92,1.92,0,0,0,1.641.813A2.109,2.109,0,0,0,72.3-2.3V-6.187a2.125,2.125,0,0,0-1.992-1.2,1.929,1.929,0,0,0-1.656.82A4.128,4.128,0,0,0,68.055-4.133ZM75.6-4.3a4.993,4.993,0,0,1,.488-2.234A3.643,3.643,0,0,1,77.449-8.07a3.7,3.7,0,0,1,1.988-.539,3.565,3.565,0,0,1,2.793,1.2A4.6,4.6,0,0,1,83.3-4.234v.1a5.036,5.036,0,0,1-.473,2.215A3.589,3.589,0,0,1,81.473-.391a3.743,3.743,0,0,1-2.02.547,3.556,3.556,0,0,1-2.785-1.2A4.575,4.575,0,0,1,75.6-4.2Zm1.453.172a3.616,3.616,0,0,0,.652,2.258,2.088,2.088,0,0,0,1.746.852,2.075,2.075,0,0,0,1.75-.863A3.955,3.955,0,0,0,81.852-4.3a3.61,3.61,0,0,0-.66-2.254,2.1,2.1,0,0,0-1.754-.863,2.075,2.075,0,0,0-1.727.852A3.925,3.925,0,0,0,77.055-4.133ZM90.031-2.242a1.064,1.064,0,0,0-.441-.91,4.249,4.249,0,0,0-1.539-.559,7.277,7.277,0,0,1-1.742-.562,2.479,2.479,0,0,1-.953-.781,1.869,1.869,0,0,1-.309-1.078,2.193,2.193,0,0,1,.879-1.758,3.432,3.432,0,0,1,2.246-.719,3.532,3.532,0,0,1,2.332.742,2.357,2.357,0,0,1,.895,1.9H89.945a1.3,1.3,0,0,0-.5-1.023,1.888,1.888,0,0,0-1.27-.43,1.976,1.976,0,0,0-1.234.344,1.082,1.082,0,0,0-.445.9.877.877,0,0,0,.414.789,5.1,5.1,0,0,0,1.5.508,7.8,7.8,0,0,1,1.754.578,2.558,2.558,0,0,1,1,.809,1.988,1.988,0,0,1,.324,1.152A2.163,2.163,0,0,1,90.57-.527a3.8,3.8,0,0,1-2.352.684,4.257,4.257,0,0,1-1.8-.359,2.922,2.922,0,0,1-1.223-1A2.42,2.42,0,0,1,84.758-2.6H86.2a1.5,1.5,0,0,0,.582,1.152,2.258,2.258,0,0,0,1.434.426,2.331,2.331,0,0,0,1.316-.332A1.02,1.02,0,0,0,90.031-2.242Z" transform="translate(985.955 3496.442)" fill="#12263f"/>
    <path id="Trazado_723872" data-name="Trazado 723872" d="M3.32,0H142.77a3.32,3.32,0,0,1,3.32,3.32v66.4a3.32,3.32,0,0,1-3.32,3.32H3.32A3.32,3.32,0,0,1,0,69.725V3.32A3.32,3.32,0,0,1,3.32,0Z" transform="translate(958.91 3540.467)" fill="#cbfafa"/>
    <path id="Trazado_723873" data-name="Trazado 723873" d="M4.672-5.07A7.053,7.053,0,0,1,1.863-6.434a2.6,2.6,0,0,1-.879-2,2.751,2.751,0,0,1,1.074-2.223,4.269,4.269,0,0,1,2.793-.879,4.66,4.66,0,0,1,2.09.453,3.436,3.436,0,0,1,1.422,1.25,3.2,3.2,0,0,1,.5,1.742H7.359A2.08,2.08,0,0,0,6.7-9.713,2.669,2.669,0,0,0,4.852-10.3a2.732,2.732,0,0,0-1.73.489A1.632,1.632,0,0,0,2.5-8.458,1.468,1.468,0,0,0,3.09-7.28,5.785,5.785,0,0,0,5.1-6.4a9.316,9.316,0,0,1,2.219.88A3.367,3.367,0,0,1,8.5-4.4a2.861,2.861,0,0,1,.387,1.508A2.658,2.658,0,0,1,7.813-.676,4.6,4.6,0,0,1,4.93.156,5.347,5.347,0,0,1,2.742-.293a3.681,3.681,0,0,1-1.566-1.23A3,3,0,0,1,.625-3.3H2.133a1.959,1.959,0,0,0,.762,1.629,3.207,3.207,0,0,0,2.035.6,2.948,2.948,0,0,0,1.82-.484,1.573,1.573,0,0,0,.633-1.32A1.545,1.545,0,0,0,6.8-4.168,6.755,6.755,0,0,0,4.672-5.07ZM14.094.156A3.693,3.693,0,0,1,11.3-.973a4.19,4.19,0,0,1-1.078-3.02v-.266A5.073,5.073,0,0,1,10.7-6.5a3.748,3.748,0,0,1,1.344-1.547,3.378,3.378,0,0,1,1.871-.559,3.166,3.166,0,0,1,2.563,1.086,4.7,4.7,0,0,1,.914,3.109v.6H11.664a3,3,0,0,0,.73,2.02,2.3,2.3,0,0,0,1.777.77,2.517,2.517,0,0,0,1.3-.312,3.259,3.259,0,0,0,.93-.828l.883.688A3.55,3.55,0,0,1,14.094.156Zm-.18-7.578a1.928,1.928,0,0,0-1.469.637A3.1,3.1,0,0,0,11.711-5h4.234v-.109a2.753,2.753,0,0,0-.594-1.707A1.815,1.815,0,0,0,13.914-7.422ZM20.633,0H19.188V-12h1.445Zm5.82.156a3.693,3.693,0,0,1-2.8-1.129,4.19,4.19,0,0,1-1.078-3.02v-.266a5.073,5.073,0,0,1,.48-2.246A3.748,3.748,0,0,1,24.4-8.051a3.378,3.378,0,0,1,1.871-.559,3.166,3.166,0,0,1,2.563,1.086,4.7,4.7,0,0,1,.914,3.109v.6H24.023a3,3,0,0,0,.73,2.02,2.3,2.3,0,0,0,1.777.77,2.517,2.517,0,0,0,1.3-.312,3.259,3.259,0,0,0,.93-.828l.883.688A3.55,3.55,0,0,1,26.453.156Zm-.18-7.578a1.928,1.928,0,0,0-1.469.637A3.1,3.1,0,0,0,24.07-5H28.3v-.109a2.753,2.753,0,0,0-.594-1.707A1.815,1.815,0,0,0,26.273-7.422Zm8.539,6.4a2.082,2.082,0,0,0,1.352-.469A1.649,1.649,0,0,0,36.8-2.664h1.367a2.621,2.621,0,0,1-.5,1.383,3.293,3.293,0,0,1-1.23,1.047,3.55,3.55,0,0,1-1.629.391A3.482,3.482,0,0,1,32.066-1a4.59,4.59,0,0,1-1.02-3.152v-.242a5.089,5.089,0,0,1,.453-2.2,3.451,3.451,0,0,1,1.3-1.492,3.7,3.7,0,0,1,2-.531,3.39,3.39,0,0,1,2.363.852,3.043,3.043,0,0,1,1,2.211H36.8a1.992,1.992,0,0,0-.621-1.348A1.932,1.932,0,0,0,34.8-7.422a2.023,2.023,0,0,0-1.707.793,3.724,3.724,0,0,0-.605,2.293v.273a3.65,3.65,0,0,0,.6,2.25A2.033,2.033,0,0,0,34.813-1.023ZM41.758-10.5v2.047h1.578v1.117H41.758v5.249a1.173,1.173,0,0,0,.211.763.888.888,0,0,0,.719.254,3.5,3.5,0,0,0,.688-.094V0a4.215,4.215,0,0,1-1.109.155A1.8,1.8,0,0,1,40.8-.43a2.517,2.517,0,0,1-.492-1.664V-7.336H38.773V-8.453h1.539V-10.5ZM46.594,0H45.148V-8.453h1.445ZM45.031-10.7a.863.863,0,0,1,.215-.594.807.807,0,0,1,.637-.242.819.819,0,0,1,.641.242.854.854,0,0,1,.219.594.826.826,0,0,1-.219.586.834.834,0,0,1-.641.234.821.821,0,0,1-.637-.234A.834.834,0,0,1,45.031-10.7ZM51.7-1.961l2.094-6.492h1.477L52.234,0h-1.1L48.07-8.453h1.477ZM56.156-4.3a4.993,4.993,0,0,1,.488-2.234A3.643,3.643,0,0,1,58-8.07a3.7,3.7,0,0,1,1.988-.539,3.565,3.565,0,0,1,2.793,1.2,4.6,4.6,0,0,1,1.066,3.18v.1a5.036,5.036,0,0,1-.473,2.215A3.589,3.589,0,0,1,62.027-.391a3.743,3.743,0,0,1-2.02.547,3.556,3.556,0,0,1-2.785-1.2A4.575,4.575,0,0,1,56.156-4.2Zm1.453.172a3.616,3.616,0,0,0,.652,2.258,2.088,2.088,0,0,0,1.746.852,2.075,2.075,0,0,0,1.75-.863A3.955,3.955,0,0,0,62.406-4.3a3.61,3.61,0,0,0-.66-2.254,2.1,2.1,0,0,0-1.754-.863,2.075,2.075,0,0,0-1.727.852A3.925,3.925,0,0,0,57.609-4.133ZM70.586-2.242a1.064,1.064,0,0,0-.441-.91,4.249,4.249,0,0,0-1.539-.559,7.277,7.277,0,0,1-1.742-.562,2.479,2.479,0,0,1-.953-.781A1.869,1.869,0,0,1,65.6-6.133a2.193,2.193,0,0,1,.879-1.758,3.432,3.432,0,0,1,2.246-.719,3.532,3.532,0,0,1,2.332.742,2.357,2.357,0,0,1,.895,1.9H70.5A1.3,1.3,0,0,0,70-6.992a1.888,1.888,0,0,0-1.27-.43,1.976,1.976,0,0,0-1.234.344,1.082,1.082,0,0,0-.445.9.877.877,0,0,0,.414.789,5.1,5.1,0,0,0,1.5.508,7.8,7.8,0,0,1,1.754.578,2.558,2.558,0,0,1,1,.809,1.988,1.988,0,0,1,.324,1.152,2.163,2.163,0,0,1-.906,1.816,3.8,3.8,0,0,1-2.352.684,4.257,4.257,0,0,1-1.8-.359,2.922,2.922,0,0,1-1.223-1A2.42,2.42,0,0,1,65.313-2.6h1.445a1.5,1.5,0,0,0,.582,1.152,2.258,2.258,0,0,0,1.434.426,2.331,2.331,0,0,0,1.316-.332A1.02,1.02,0,0,0,70.586-2.242Z" transform="translate(995.955 3580.426)" fill="#12263f"/>
    <path id="Trazado_723876" data-name="Trazado 723876" d="M3.31,0H142.78a3.31,3.31,0,0,1,3.31,3.31V69.515a3.31,3.31,0,0,1-3.31,3.31H3.31A3.31,3.31,0,0,1,0,69.515V3.31A3.31,3.31,0,0,1,3.31,0Z" transform="translate(958.91 3624.512)" fill="#cbfafa"/>
    <path id="Trazado_723879" data-name="Trazado 723879" d="M1.32,0V-11.375H4.531a5.169,5.169,0,0,1,2.625.656A4.438,4.438,0,0,1,8.918-8.852,6.078,6.078,0,0,1,9.547-6.07v.727a6.1,6.1,0,0,1-.621,2.82A4.369,4.369,0,0,1,7.152-.664,5.5,5.5,0,0,1,4.469,0Zm1.5-10.148v8.922H4.4A3.434,3.434,0,0,0,7.1-2.306a4.458,4.458,0,0,0,.965-3.073v-.665a4.529,4.529,0,0,0-.91-3.014A3.239,3.239,0,0,0,4.57-10.148ZM13.156,0H11.711V-8.453h1.445ZM11.594-10.7a.863.863,0,0,1,.215-.594.807.807,0,0,1,.637-.242.819.819,0,0,1,.641.242.854.854,0,0,1,.219.594.826.826,0,0,1-.219.586.834.834,0,0,1-.641.234.821.821,0,0,1-.637-.234A.834.834,0,0,1,11.594-10.7ZM16.18,0V-7.336H14.844V-8.453H16.18V-9.32a2.878,2.878,0,0,1,.727-2.1,2.745,2.745,0,0,1,2.055-.742,3.816,3.816,0,0,1,.992.132l-.078,1.165a4.151,4.151,0,0,0-.781-.07,1.41,1.41,0,0,0-1.086.411,1.669,1.669,0,0,0-.383,1.18v.893h1.8v1.117h-1.8V0Zm8.164.156a3.693,3.693,0,0,1-2.8-1.129,4.19,4.19,0,0,1-1.078-3.02v-.266a5.073,5.073,0,0,1,.48-2.246,3.748,3.748,0,0,1,1.344-1.547,3.378,3.378,0,0,1,1.871-.559,3.166,3.166,0,0,1,2.563,1.086,4.7,4.7,0,0,1,.914,3.109v.6H21.914a3,3,0,0,0,.73,2.02,2.3,2.3,0,0,0,1.777.77,2.517,2.517,0,0,0,1.3-.312,3.259,3.259,0,0,0,.93-.828l.883.688A3.55,3.55,0,0,1,24.344.156Zm-.18-7.578a1.928,1.928,0,0,0-1.469.637A3.1,3.1,0,0,0,21.961-5H26.2v-.109A2.753,2.753,0,0,0,25.6-6.816,1.815,1.815,0,0,0,24.164-7.422Zm9.234.266a4.331,4.331,0,0,0-.711-.055A1.9,1.9,0,0,0,30.758-6V0H29.313V-8.453h1.406l.023.977a2.251,2.251,0,0,1,2.016-1.133A1.477,1.477,0,0,1,33.4-8.5ZM38.086.156a3.693,3.693,0,0,1-2.8-1.129,4.19,4.19,0,0,1-1.078-3.02v-.266a5.073,5.073,0,0,1,.48-2.246,3.748,3.748,0,0,1,1.344-1.547,3.378,3.378,0,0,1,1.871-.559,3.166,3.166,0,0,1,2.563,1.086,4.7,4.7,0,0,1,.914,3.109v.6H35.656a3,3,0,0,0,.73,2.02,2.3,2.3,0,0,0,1.777.77,2.517,2.517,0,0,0,1.3-.312,3.259,3.259,0,0,0,.93-.828l.883.688A3.55,3.55,0,0,1,38.086.156Zm-.18-7.578a1.928,1.928,0,0,0-1.469.637A3.1,3.1,0,0,0,35.7-5h4.234v-.109a2.753,2.753,0,0,0-.594-1.707A1.815,1.815,0,0,0,37.906-7.422Zm6.516-1.031.047,1.063A3.08,3.08,0,0,1,47-8.609q2.68,0,2.7,3.023V0H48.258V-5.594a1.946,1.946,0,0,0-.418-1.352,1.675,1.675,0,0,0-1.277-.437,2.086,2.086,0,0,0-1.234.375,2.546,2.546,0,0,0-.828.984V0H43.055V-8.453Zm10.852,7.43a2.082,2.082,0,0,0,1.352-.469,1.649,1.649,0,0,0,.641-1.172h1.367a2.621,2.621,0,0,1-.5,1.383A3.293,3.293,0,0,1,56.9-.234a3.55,3.55,0,0,1-1.629.391A3.482,3.482,0,0,1,52.527-1a4.59,4.59,0,0,1-1.02-3.152v-.242a5.089,5.089,0,0,1,.453-2.2,3.451,3.451,0,0,1,1.3-1.492,3.7,3.7,0,0,1,2-.531,3.39,3.39,0,0,1,2.363.852,3.043,3.043,0,0,1,1,2.211H57.266a1.992,1.992,0,0,0-.621-1.348,1.932,1.932,0,0,0-1.379-.527,2.023,2.023,0,0,0-1.707.793,3.724,3.724,0,0,0-.605,2.293v.273a3.65,3.65,0,0,0,.6,2.25A2.033,2.033,0,0,0,55.273-1.023ZM61.828,0H60.383V-8.453h1.445ZM60.266-10.7a.863.863,0,0,1,.215-.594.807.807,0,0,1,.637-.242.819.819,0,0,1,.641.242.854.854,0,0,1,.219.594.826.826,0,0,1-.219.586.834.834,0,0,1-.641.234.821.821,0,0,1-.637-.234A.834.834,0,0,1,60.266-10.7ZM69.359,0a3.036,3.036,0,0,1-.2-.891A3.225,3.225,0,0,1,66.75.156,2.984,2.984,0,0,1,64.7-.551a2.288,2.288,0,0,1-.8-1.793,2.39,2.39,0,0,1,1-2.051,4.733,4.733,0,0,1,2.824-.73h1.406v-.664A1.623,1.623,0,0,0,68.68-7a1.821,1.821,0,0,0-1.336-.449,2.108,2.108,0,0,0-1.3.391,1.151,1.151,0,0,0-.523.945H64.07a2,2,0,0,1,.449-1.223,3.066,3.066,0,0,1,1.219-.934,4.1,4.1,0,0,1,1.691-.344,3.342,3.342,0,0,1,2.289.73,2.635,2.635,0,0,1,.859,2.012v3.891a4.757,4.757,0,0,0,.3,1.852V0Zm-2.4-1.1a2.54,2.54,0,0,0,1.289-.352,2.127,2.127,0,0,0,.883-.914V-4.1H68q-2.656,0-2.656,1.555A1.316,1.316,0,0,0,65.8-1.484,1.742,1.742,0,0,0,66.961-1.1ZM74.414,0H72.969V-12h1.445Zm5.82.156a3.693,3.693,0,0,1-2.8-1.129,4.19,4.19,0,0,1-1.078-3.02v-.266A5.073,5.073,0,0,1,76.84-6.5a3.748,3.748,0,0,1,1.344-1.547,3.378,3.378,0,0,1,1.871-.559,3.166,3.166,0,0,1,2.563,1.086,4.7,4.7,0,0,1,.914,3.109v.6H77.8a3,3,0,0,0,.73,2.02,2.3,2.3,0,0,0,1.777.77,2.517,2.517,0,0,0,1.3-.312,3.259,3.259,0,0,0,.93-.828l.883.688A3.55,3.55,0,0,1,80.234.156Zm-.18-7.578a1.928,1.928,0,0,0-1.469.637A3.1,3.1,0,0,0,77.852-5h4.234v-.109a2.753,2.753,0,0,0-.594-1.707A1.815,1.815,0,0,0,80.055-7.422Zm10.07,5.18a1.064,1.064,0,0,0-.441-.91,4.249,4.249,0,0,0-1.539-.559A7.277,7.277,0,0,1,86.4-4.273a2.479,2.479,0,0,1-.953-.781,1.869,1.869,0,0,1-.309-1.078,2.193,2.193,0,0,1,.879-1.758,3.432,3.432,0,0,1,2.246-.719,3.532,3.532,0,0,1,2.332.742,2.357,2.357,0,0,1,.895,1.9H90.039a1.3,1.3,0,0,0-.5-1.023,1.888,1.888,0,0,0-1.27-.43,1.976,1.976,0,0,0-1.234.344,1.082,1.082,0,0,0-.445.9A.877.877,0,0,0,87-5.391a5.1,5.1,0,0,0,1.5.508A7.8,7.8,0,0,1,90.25-4.3a2.558,2.558,0,0,1,1,.809,1.988,1.988,0,0,1,.324,1.152,2.163,2.163,0,0,1-.906,1.816,3.8,3.8,0,0,1-2.352.684,4.257,4.257,0,0,1-1.8-.359,2.922,2.922,0,0,1-1.223-1A2.42,2.42,0,0,1,84.852-2.6H86.3a1.5,1.5,0,0,0,.582,1.152,2.258,2.258,0,0,0,1.434.426,2.331,2.331,0,0,0,1.316-.332A1.02,1.02,0,0,0,90.125-2.242Z" transform="translate(985.955 3664.393)" fill="#12263f"/>
    <path id="Trazado_723883" data-name="Trazado 723883" d="M3.32,0H142.77a3.32,3.32,0,0,1,3.32,3.32v66.4a3.32,3.32,0,0,1-3.32,3.32H3.32A3.32,3.32,0,0,1,0,69.725V3.32A3.32,3.32,0,0,1,3.32,0Z" transform="translate(958.91 3708.338)" fill="#cbfafa"/>
    <path id="Trazado_723884" data-name="Trazado 723884" d="M4.672-5.07A7.053,7.053,0,0,1,1.863-6.434a2.6,2.6,0,0,1-.879-2,2.751,2.751,0,0,1,1.074-2.223,4.269,4.269,0,0,1,2.793-.879,4.66,4.66,0,0,1,2.09.453,3.436,3.436,0,0,1,1.422,1.25,3.2,3.2,0,0,1,.5,1.742H7.359A2.08,2.08,0,0,0,6.7-9.713,2.669,2.669,0,0,0,4.852-10.3a2.732,2.732,0,0,0-1.73.489A1.632,1.632,0,0,0,2.5-8.458,1.468,1.468,0,0,0,3.09-7.28,5.785,5.785,0,0,0,5.1-6.4a9.316,9.316,0,0,1,2.219.88A3.367,3.367,0,0,1,8.5-4.4a2.861,2.861,0,0,1,.387,1.508A2.658,2.658,0,0,1,7.813-.676,4.6,4.6,0,0,1,4.93.156,5.347,5.347,0,0,1,2.742-.293a3.681,3.681,0,0,1-1.566-1.23A3,3,0,0,1,.625-3.3H2.133a1.959,1.959,0,0,0,.762,1.629,3.207,3.207,0,0,0,2.035.6,2.948,2.948,0,0,0,1.82-.484,1.573,1.573,0,0,0,.633-1.32A1.545,1.545,0,0,0,6.8-4.168,6.755,6.755,0,0,0,4.672-5.07ZM14.094.156A3.693,3.693,0,0,1,11.3-.973a4.19,4.19,0,0,1-1.078-3.02v-.266A5.073,5.073,0,0,1,10.7-6.5a3.748,3.748,0,0,1,1.344-1.547,3.378,3.378,0,0,1,1.871-.559,3.166,3.166,0,0,1,2.563,1.086,4.7,4.7,0,0,1,.914,3.109v.6H11.664a3,3,0,0,0,.73,2.02,2.3,2.3,0,0,0,1.777.77,2.517,2.517,0,0,0,1.3-.312,3.259,3.259,0,0,0,.93-.828l.883.688A3.55,3.55,0,0,1,14.094.156Zm-.18-7.578a1.928,1.928,0,0,0-1.469.637A3.1,3.1,0,0,0,11.711-5h4.234v-.109a2.753,2.753,0,0,0-.594-1.707A1.815,1.815,0,0,0,13.914-7.422ZM20.633,0H19.188V-12h1.445Zm5.82.156a3.693,3.693,0,0,1-2.8-1.129,4.19,4.19,0,0,1-1.078-3.02v-.266a5.073,5.073,0,0,1,.48-2.246A3.748,3.748,0,0,1,24.4-8.051a3.378,3.378,0,0,1,1.871-.559,3.166,3.166,0,0,1,2.563,1.086,4.7,4.7,0,0,1,.914,3.109v.6H24.023a3,3,0,0,0,.73,2.02,2.3,2.3,0,0,0,1.777.77,2.517,2.517,0,0,0,1.3-.312,3.259,3.259,0,0,0,.93-.828l.883.688A3.55,3.55,0,0,1,26.453.156Zm-.18-7.578a1.928,1.928,0,0,0-1.469.637A3.1,3.1,0,0,0,24.07-5H28.3v-.109a2.753,2.753,0,0,0-.594-1.707A1.815,1.815,0,0,0,26.273-7.422Zm8.539,6.4a2.082,2.082,0,0,0,1.352-.469A1.649,1.649,0,0,0,36.8-2.664h1.367a2.621,2.621,0,0,1-.5,1.383,3.293,3.293,0,0,1-1.23,1.047,3.55,3.55,0,0,1-1.629.391A3.482,3.482,0,0,1,32.066-1a4.59,4.59,0,0,1-1.02-3.152v-.242a5.089,5.089,0,0,1,.453-2.2,3.451,3.451,0,0,1,1.3-1.492,3.7,3.7,0,0,1,2-.531,3.39,3.39,0,0,1,2.363.852,3.043,3.043,0,0,1,1,2.211H36.8a1.992,1.992,0,0,0-.621-1.348A1.932,1.932,0,0,0,34.8-7.422a2.023,2.023,0,0,0-1.707.793,3.724,3.724,0,0,0-.605,2.293v.273a3.65,3.65,0,0,0,.6,2.25A2.033,2.033,0,0,0,34.813-1.023ZM41.758-10.5v2.047h1.578v1.117H41.758v5.249a1.173,1.173,0,0,0,.211.763.888.888,0,0,0,.719.254,3.5,3.5,0,0,0,.688-.094V0a4.215,4.215,0,0,1-1.109.155A1.8,1.8,0,0,1,40.8-.43a2.517,2.517,0,0,1-.492-1.664V-7.336H38.773V-8.453h1.539V-10.5ZM46.594,0H45.148V-8.453h1.445ZM45.031-10.7a.863.863,0,0,1,.215-.594.807.807,0,0,1,.637-.242.819.819,0,0,1,.641.242.854.854,0,0,1,.219.594.826.826,0,0,1-.219.586.834.834,0,0,1-.641.234.821.821,0,0,1-.637-.234A.834.834,0,0,1,45.031-10.7ZM51.7-1.961l2.094-6.492h1.477L52.234,0h-1.1L48.07-8.453h1.477ZM56.156-4.3a4.993,4.993,0,0,1,.488-2.234A3.643,3.643,0,0,1,58-8.07a3.7,3.7,0,0,1,1.988-.539,3.565,3.565,0,0,1,2.793,1.2,4.6,4.6,0,0,1,1.066,3.18v.1a5.036,5.036,0,0,1-.473,2.215A3.589,3.589,0,0,1,62.027-.391a3.743,3.743,0,0,1-2.02.547,3.556,3.556,0,0,1-2.785-1.2A4.575,4.575,0,0,1,56.156-4.2Zm1.453.172a3.616,3.616,0,0,0,.652,2.258,2.088,2.088,0,0,0,1.746.852,2.075,2.075,0,0,0,1.75-.863A3.955,3.955,0,0,0,62.406-4.3a3.61,3.61,0,0,0-.66-2.254,2.1,2.1,0,0,0-1.754-.863,2.075,2.075,0,0,0-1.727.852A3.925,3.925,0,0,0,57.609-4.133ZM70.586-2.242a1.064,1.064,0,0,0-.441-.91,4.249,4.249,0,0,0-1.539-.559,7.277,7.277,0,0,1-1.742-.562,2.479,2.479,0,0,1-.953-.781A1.869,1.869,0,0,1,65.6-6.133a2.193,2.193,0,0,1,.879-1.758,3.432,3.432,0,0,1,2.246-.719,3.532,3.532,0,0,1,2.332.742,2.357,2.357,0,0,1,.895,1.9H70.5A1.3,1.3,0,0,0,70-6.992a1.888,1.888,0,0,0-1.27-.43,1.976,1.976,0,0,0-1.234.344,1.082,1.082,0,0,0-.445.9.877.877,0,0,0,.414.789,5.1,5.1,0,0,0,1.5.508,7.8,7.8,0,0,1,1.754.578,2.558,2.558,0,0,1,1,.809,1.988,1.988,0,0,1,.324,1.152,2.163,2.163,0,0,1-.906,1.816,3.8,3.8,0,0,1-2.352.684,4.257,4.257,0,0,1-1.8-.359,2.922,2.922,0,0,1-1.223-1A2.42,2.42,0,0,1,65.313-2.6h1.445a1.5,1.5,0,0,0,.582,1.152,2.258,2.258,0,0,0,1.434.426,2.331,2.331,0,0,0,1.316-.332A1.02,1.02,0,0,0,70.586-2.242Zm10.3-2H77.07v-1.18h3.813ZM.742,19.7a4.952,4.952,0,0,1,.922-3.129,2.915,2.915,0,0,1,2.414-1.184A2.932,2.932,0,0,1,6.43,16.406V12H7.875V24H6.547l-.07-.906a2.943,2.943,0,0,1-2.414,1.063,2.887,2.887,0,0,1-2.395-1.2,5.008,5.008,0,0,1-.926-3.141Zm1.445.164a3.749,3.749,0,0,0,.594,2.25,1.92,1.92,0,0,0,1.641.813A2.108,2.108,0,0,0,6.43,21.7V17.813a2.125,2.125,0,0,0-1.992-1.2,1.929,1.929,0,0,0-1.656.82A4.128,4.128,0,0,0,2.188,19.867ZM11.688,24H10.242V15.547h1.445ZM10.125,13.3a.863.863,0,0,1,.215-.594.807.807,0,0,1,.637-.242.819.819,0,0,1,.641.242.854.854,0,0,1,.219.594.826.826,0,0,1-.219.586.834.834,0,0,1-.641.234.821.821,0,0,1-.637-.234A.834.834,0,0,1,10.125,13.3ZM14.711,24V16.664H13.375V15.547h1.336V14.68a2.878,2.878,0,0,1,.727-2.1,2.745,2.745,0,0,1,2.055-.742,3.816,3.816,0,0,1,.992.132l-.078,1.165a4.151,4.151,0,0,0-.781-.07,1.41,1.41,0,0,0-1.086.411,1.669,1.669,0,0,0-.383,1.18v.893h1.8v1.117h-1.8V24Zm8.164.156a3.693,3.693,0,0,1-2.8-1.129A4.19,4.19,0,0,1,19,20.008v-.266a5.073,5.073,0,0,1,.48-2.246,3.748,3.748,0,0,1,1.344-1.547,3.378,3.378,0,0,1,1.871-.559,3.166,3.166,0,0,1,2.563,1.086,4.7,4.7,0,0,1,.914,3.109v.6H20.445a3,3,0,0,0,.73,2.02,2.3,2.3,0,0,0,1.777.77,2.517,2.517,0,0,0,1.3-.312,3.259,3.259,0,0,0,.93-.828l.883.688A3.55,3.55,0,0,1,22.875,24.156Zm-.18-7.578a1.928,1.928,0,0,0-1.469.637A3.1,3.1,0,0,0,20.492,19h4.234v-.109a2.753,2.753,0,0,0-.594-1.707A1.815,1.815,0,0,0,22.7,16.578Zm9.234.266a4.331,4.331,0,0,0-.711-.055A1.9,1.9,0,0,0,29.289,18v6H27.844V15.547H29.25l.023.977a2.251,2.251,0,0,1,2.016-1.133,1.477,1.477,0,0,1,.641.109Zm4.688,7.313a3.693,3.693,0,0,1-2.8-1.129,4.19,4.19,0,0,1-1.078-3.02v-.266a5.073,5.073,0,0,1,.48-2.246,3.748,3.748,0,0,1,1.344-1.547,3.378,3.378,0,0,1,1.871-.559A3.166,3.166,0,0,1,39,16.477a4.7,4.7,0,0,1,.914,3.109v.6H34.188a3,3,0,0,0,.73,2.02,2.3,2.3,0,0,0,1.777.77,2.517,2.517,0,0,0,1.3-.312,3.259,3.259,0,0,0,.93-.828l.883.688A3.55,3.55,0,0,1,36.617,24.156Zm-.18-7.578a1.928,1.928,0,0,0-1.469.637A3.1,3.1,0,0,0,34.234,19h4.234v-.109a2.753,2.753,0,0,0-.594-1.707A1.815,1.815,0,0,0,36.438,16.578Zm6.516-1.031L43,16.609a3.08,3.08,0,0,1,2.531-1.219q2.68,0,2.7,3.023V24H46.789V18.406a1.946,1.946,0,0,0-.418-1.352,1.675,1.675,0,0,0-1.277-.437,2.086,2.086,0,0,0-1.234.375,2.546,2.546,0,0,0-.828.984V24H41.586V15.547ZM53.8,22.977a2.082,2.082,0,0,0,1.352-.469,1.649,1.649,0,0,0,.641-1.172h1.367a2.621,2.621,0,0,1-.5,1.383,3.293,3.293,0,0,1-1.23,1.047,3.55,3.55,0,0,1-1.629.391A3.482,3.482,0,0,1,51.059,23a4.59,4.59,0,0,1-1.02-3.152v-.242a5.089,5.089,0,0,1,.453-2.2,3.451,3.451,0,0,1,1.3-1.492,3.7,3.7,0,0,1,2-.531,3.39,3.39,0,0,1,2.363.852,3.043,3.043,0,0,1,1,2.211H55.8a1.992,1.992,0,0,0-.621-1.348,1.932,1.932,0,0,0-1.379-.527,2.023,2.023,0,0,0-1.707.793,3.724,3.724,0,0,0-.605,2.293v.273a3.65,3.65,0,0,0,.6,2.25A2.033,2.033,0,0,0,53.8,22.977ZM60.359,24H58.914V15.547h1.445ZM58.8,13.3a.863.863,0,0,1,.215-.594.807.807,0,0,1,.637-.242.819.819,0,0,1,.641.242.854.854,0,0,1,.219.594.826.826,0,0,1-.219.586.834.834,0,0,1-.641.234.821.821,0,0,1-.637-.234A.834.834,0,0,1,58.8,13.3ZM67.891,24a3.036,3.036,0,0,1-.2-.891,3.225,3.225,0,0,1-2.406,1.047,2.984,2.984,0,0,1-2.051-.707,2.287,2.287,0,0,1-.8-1.793,2.39,2.39,0,0,1,1-2.051,4.733,4.733,0,0,1,2.824-.73h1.406v-.664A1.623,1.623,0,0,0,67.211,17a1.821,1.821,0,0,0-1.336-.449,2.108,2.108,0,0,0-1.3.391,1.151,1.151,0,0,0-.523.945H62.6a2,2,0,0,1,.449-1.223,3.066,3.066,0,0,1,1.219-.934,4.1,4.1,0,0,1,1.691-.344,3.342,3.342,0,0,1,2.289.73,2.635,2.635,0,0,1,.859,2.012v3.891a4.757,4.757,0,0,0,.3,1.852V24Zm-2.4-1.1a2.54,2.54,0,0,0,1.289-.352,2.127,2.127,0,0,0,.883-.914V19.9H66.531q-2.656,0-2.656,1.555a1.316,1.316,0,0,0,.453,1.063A1.742,1.742,0,0,0,65.492,22.9ZM72.945,24H71.5V12h1.445Zm5.82.156a3.693,3.693,0,0,1-2.8-1.129,4.19,4.19,0,0,1-1.078-3.02v-.266a5.073,5.073,0,0,1,.48-2.246,3.748,3.748,0,0,1,1.344-1.547,3.378,3.378,0,0,1,1.871-.559,3.166,3.166,0,0,1,2.563,1.086,4.7,4.7,0,0,1,.914,3.109v.6H76.336a3,3,0,0,0,.73,2.02,2.3,2.3,0,0,0,1.777.77,2.517,2.517,0,0,0,1.3-.312,3.259,3.259,0,0,0,.93-.828l.883.688A3.55,3.55,0,0,1,78.766,24.156Zm-.18-7.578a1.928,1.928,0,0,0-1.469.637A3.1,3.1,0,0,0,76.383,19h4.234v-.109a2.753,2.753,0,0,0-.594-1.707A1.815,1.815,0,0,0,78.586,16.578Zm10.07,5.18a1.064,1.064,0,0,0-.441-.91,4.249,4.249,0,0,0-1.539-.559,7.277,7.277,0,0,1-1.742-.562,2.478,2.478,0,0,1-.953-.781,1.869,1.869,0,0,1-.309-1.078,2.193,2.193,0,0,1,.879-1.758,3.432,3.432,0,0,1,2.246-.719,3.532,3.532,0,0,1,2.332.742,2.357,2.357,0,0,1,.895,1.9H88.57a1.3,1.3,0,0,0-.5-1.023,1.888,1.888,0,0,0-1.27-.43,1.976,1.976,0,0,0-1.234.344,1.082,1.082,0,0,0-.445.9.877.877,0,0,0,.414.789,5.1,5.1,0,0,0,1.5.508,7.8,7.8,0,0,1,1.754.578,2.558,2.558,0,0,1,1,.809,1.988,1.988,0,0,1,.324,1.152,2.163,2.163,0,0,1-.906,1.816,3.8,3.8,0,0,1-2.352.684,4.257,4.257,0,0,1-1.8-.359,2.922,2.922,0,0,1-1.223-1,2.42,2.42,0,0,1-.441-1.395h1.445a1.5,1.5,0,0,0,.582,1.152,2.258,2.258,0,0,0,1.434.426,2.331,2.331,0,0,0,1.316-.332A1.02,1.02,0,0,0,88.656,21.758Z" transform="translate(986.955 3735.622)" fill="#12263f"/>
    <path id="Trazado_723887" data-name="Trazado 723887" d="M3.32,0H142.77a3.32,3.32,0,0,1,3.32,3.32v66.4a3.32,3.32,0,0,1-3.32,3.32H3.32A3.32,3.32,0,0,1,0,69.725V3.32A3.32,3.32,0,0,1,3.32,0Z" transform="translate(958.91 3792.383)" fill="#cbfafa"/>
    <path id="Trazado_723890" data-name="Trazado 723890" d="M7.75-5.258H2.82v4.031H8.547V0H1.32V-11.375H8.469v1.227H2.82v3.664H7.75ZM11.758,0H10.313V-12h1.445Zm5.82.156a3.693,3.693,0,0,1-2.8-1.129A4.19,4.19,0,0,1,13.7-3.992v-.266a5.073,5.073,0,0,1,.48-2.246,3.748,3.748,0,0,1,1.344-1.547A3.378,3.378,0,0,1,17.4-8.609a3.166,3.166,0,0,1,2.563,1.086,4.7,4.7,0,0,1,.914,3.109v.6H15.148a3,3,0,0,0,.73,2.02,2.3,2.3,0,0,0,1.777.77,2.517,2.517,0,0,0,1.3-.312,3.259,3.259,0,0,0,.93-.828l.883.688A3.55,3.55,0,0,1,17.578.156ZM17.4-7.422a1.928,1.928,0,0,0-1.469.637A3.1,3.1,0,0,0,15.2-5H19.43v-.109a2.753,2.753,0,0,0-.594-1.707A1.815,1.815,0,0,0,17.4-7.422Zm8.539,6.4a2.082,2.082,0,0,0,1.352-.469,1.649,1.649,0,0,0,.641-1.172H29.3a2.621,2.621,0,0,1-.5,1.383,3.293,3.293,0,0,1-1.23,1.047,3.55,3.55,0,0,1-1.629.391A3.482,3.482,0,0,1,23.191-1a4.59,4.59,0,0,1-1.02-3.152v-.242a5.089,5.089,0,0,1,.453-2.2,3.451,3.451,0,0,1,1.3-1.492,3.7,3.7,0,0,1,2-.531,3.39,3.39,0,0,1,2.363.852,3.043,3.043,0,0,1,1,2.211H27.93a1.992,1.992,0,0,0-.621-1.348,1.932,1.932,0,0,0-1.379-.527,2.023,2.023,0,0,0-1.707.793,3.724,3.724,0,0,0-.605,2.293v.273a3.65,3.65,0,0,0,.6,2.25A2.033,2.033,0,0,0,25.938-1.023ZM32.883-10.5v2.047h1.578v1.117H32.883v5.249a1.173,1.173,0,0,0,.211.763.888.888,0,0,0,.719.254,3.5,3.5,0,0,0,.688-.094V0a4.215,4.215,0,0,1-1.109.155A1.8,1.8,0,0,1,31.93-.43a2.517,2.517,0,0,1-.492-1.664V-7.336H29.9V-8.453h1.539V-10.5ZM37.719,0H36.273V-8.453h1.445ZM36.156-10.7a.863.863,0,0,1,.215-.594.807.807,0,0,1,.637-.242.819.819,0,0,1,.641.242.854.854,0,0,1,.219.594.826.826,0,0,1-.219.586.834.834,0,0,1-.641.234.821.821,0,0,1-.637-.234A.834.834,0,0,1,36.156-10.7ZM42.82-1.961l2.094-6.492h1.477L43.359,0h-1.1L39.2-8.453h1.477ZM47.281-4.3a4.993,4.993,0,0,1,.488-2.234A3.643,3.643,0,0,1,49.129-8.07a3.7,3.7,0,0,1,1.988-.539,3.565,3.565,0,0,1,2.793,1.2,4.6,4.6,0,0,1,1.066,3.18v.1A5.036,5.036,0,0,1,54.5-1.918,3.589,3.589,0,0,1,53.152-.391a3.743,3.743,0,0,1-2.02.547,3.556,3.556,0,0,1-2.785-1.2A4.575,4.575,0,0,1,47.281-4.2Zm1.453.172a3.616,3.616,0,0,0,.652,2.258,2.088,2.088,0,0,0,1.746.852,2.075,2.075,0,0,0,1.75-.863A3.955,3.955,0,0,0,53.531-4.3a3.61,3.61,0,0,0-.66-2.254,2.1,2.1,0,0,0-1.754-.863,2.075,2.075,0,0,0-1.727.852A3.925,3.925,0,0,0,48.734-4.133ZM61.711-2.242a1.064,1.064,0,0,0-.441-.91,4.249,4.249,0,0,0-1.539-.559,7.277,7.277,0,0,1-1.742-.562,2.479,2.479,0,0,1-.953-.781,1.869,1.869,0,0,1-.309-1.078,2.193,2.193,0,0,1,.879-1.758,3.432,3.432,0,0,1,2.246-.719,3.532,3.532,0,0,1,2.332.742,2.357,2.357,0,0,1,.895,1.9H61.625a1.3,1.3,0,0,0-.5-1.023,1.888,1.888,0,0,0-1.27-.43,1.976,1.976,0,0,0-1.234.344,1.082,1.082,0,0,0-.445.9.877.877,0,0,0,.414.789,5.1,5.1,0,0,0,1.5.508,7.8,7.8,0,0,1,1.754.578,2.558,2.558,0,0,1,1,.809,1.988,1.988,0,0,1,.324,1.152A2.163,2.163,0,0,1,62.25-.527,3.8,3.8,0,0,1,59.9.156,4.257,4.257,0,0,1,58.1-.2a2.922,2.922,0,0,1-1.223-1A2.42,2.42,0,0,1,56.438-2.6h1.445a1.5,1.5,0,0,0,.582,1.152,2.258,2.258,0,0,0,1.434.426,2.331,2.331,0,0,0,1.316-.332A1.02,1.02,0,0,0,61.711-2.242Z" transform="translate(999.955 3832.377)" fill="#12263f"/>
  </g>
</svg>
