<svg xmlns="http://www.w3.org/2000/svg" width="400.001" height="259.001" viewBox="0 0 400.001 259.001">
  <g id="Grupo_1019682" data-name="Grupo 1019682" transform="translate(-179.999 -11696)">
    <path id="Trazado_720937" data-name="Trazado 720937" d="M231.762,168.574c-4.643,0-9.544.143-14.568.427a249.619,249.619,0,0,0-31.773,3.9,235.81,235.81,0,0,0-32.682,8.633,221.219,221.219,0,0,0-28.674,12.139c-.314.159-.585.3-.854.438-3.183,1.649-6.3,3.358-9.3,5.1l-.493.289c-2.149,1.263-4.275,2.561-6.336,3.869-2.394,1.516-4.882,3.18-7.609,5.088-4.813,3.373-9.52,7.022-13.99,10.848C83.507,221,81.494,222.8,79.5,224.65c-2.151,2-4.316,4.134-6.616,6.521a163.827,163.827,0,0,0-11.716,13.6,154.652,154.652,0,0,0-9.653,14.1c-1.244,2.047-2.5,4.263-3.85,6.775-1.514,2.826-2.98,5.836-4.479,9.2-1.085,2.431-2.165,5.107-3.3,8.181-1.033,2.79-2.006,5.773-2.977,9.118-.8,2.751-1.521,5.667-2.213,8.915-.688,3.22-1.258,6.6-1.74,10.335a128.206,128.206,0,0,0,4.245,52.46,133.3,133.3,0,0,0,4.964,13.922l.054.13.08.191c.876,2.059,1.8,4.113,2.772,6.135.831,1.738,1.774,3.589,2.883,5.658,1.857,3.468,3.924,6.943,6.317,10.622.088.136.162.248.235.362l.067.1.068.1q1.8,2.715,3.782,5.472c1.325,1.837,2.749,3.714,4.354,5.737l.33.415c1.624,2.014,3.3,4.008,5.007,5.946a.49.49,0,0,0,.126.946h.717l.727.81a.417.417,0,0,0,.628,0,.5.5,0,0,0,.128-.342.512.512,0,0,0-.128-.347l-.119-.13,113.915.01H393.678l-.051.05,0,0-.491.537-.479.524a.512.512,0,0,0-.129.346.518.518,0,0,0,.129.346.414.414,0,0,0,.311.141.421.421,0,0,0,.313-.141l.4-.43.4-.432.065-.077.042-.053,0,0q.221-.241.439-.487l.055-.056.066-.074.09-.1.042-.046,1.551-.044a.491.491,0,0,0,0-.978h-.653l.08-.075c.047-.054.071-.084.1-.113l.651-.743.038-.053,0,.006.086-.1.329-.385.3-.352.074-.084c1.807-2.119,3.573-4.3,5.248-6.47l.21-.272.179-.235.084-.108.036-.052.143-.187.139-.181.512-.679a.581.581,0,0,0,.041-.061c1.944-2.612,3.8-5.268,5.524-7.9l.2-.311.346-.534.159-.248c.2-.305.364-.569.53-.833.306-.491.59-.946.873-1.4l.082-.129.073-.12.135-.219.131-.213c.829-1.374,1.55-2.6,2.225-3.783.932-1.63,1.9-3.422,2.958-5.478,1.71-3.318,3.314-6.808,4.9-10.664l.076-.181.114-.285a.4.4,0,0,0,.023-.066c.642-1.6,1.267-3.231,1.859-4.856.692-1.9,1.371-3.946,2.136-6.436a129.659,129.659,0,0,0,3.563-14.84A127.986,127.986,0,0,0,430.439,308a129.359,129.359,0,0,0-3.357-15.418,132.179,132.179,0,0,0-4.58-13.41,137.207,137.207,0,0,0-6.472-13.847q-1.131-2.1-2.359-4.229c-.87-1.5-1.832-3.089-3.03-4.985-2.1-3.324-4.438-6.694-7.148-10.3-2.239-2.977-4.7-6-7.532-9.226-2.65-3.026-5.522-6.049-8.779-9.244A183.122,183.122,0,0,0,369.95,212.52a195.849,195.849,0,0,0-19.99-13.3l-.135-.078c-4.336-2.51-8.77-4.877-13.208-7.051-4.246-2.083-8.815-4.129-13.577-6.079a228.871,228.871,0,0,0-29.422-9.719l-.071-.018-.06-.017-.316-.08-.309-.078c-3.987-1.007-8.051-1.927-12.112-2.743-3.6-.724-7.406-1.387-11.628-2.025-6.674-1.009-13.675-1.756-20.807-2.223-.091-.007-.16-.012-.226-.015-5.184-.325-10.445-.5-15.64-.513-.228,0-.458,0-.686,0M41.244,281.925l0-.024.029-.045q-.1.252-.2.505c.049-.13.1-.262.147-.393l.011-.03h0v0l.009-.023Z" transform="translate(148.065 11527.426)" fill="#e1f1fb"/>
    <g id="Grupo_1019681" data-name="Grupo 1019681" transform="translate(115.929 11566.71)">
      <g id="Grupo_1019653" data-name="Grupo 1019653" transform="translate(64.072 376.33)">
        <path id="Trazado_720794" data-name="Trazado 720794" d="M464.071,370.28a5.993,5.993,0,0,1-5.98,5.98H70.052a5.987,5.987,0,0,1-5.98-5.98v-.033a5.8,5.8,0,0,1,.559-2.481,5.879,5.879,0,0,1,1.2-1.711,5.946,5.946,0,0,1,4.225-1.755H458.091a5.994,5.994,0,0,1,5.98,5.98Z" transform="translate(-64.072 -364.3)" fill="#3076b6"/>
        <path id="Trazado_720795" data-name="Trazado 720795" d="M463.479,367.766a5.875,5.875,0,0,1-1.2,1.71,5.944,5.944,0,0,1-4.225,1.755H70.019a5.973,5.973,0,0,1-5.421-3.465,5.879,5.879,0,0,1,1.2-1.711,5.946,5.946,0,0,1,4.225-1.755H458.058A5.974,5.974,0,0,1,463.479,367.766Z" transform="translate(-64.039 -364.3)" fill="#3076b6"/>
      </g>
      <g id="Grupo_1019658" data-name="Grupo 1019658" transform="translate(268.654 308.424)">
        <g id="Grupo_1019655" data-name="Grupo 1019655">
          <path id="Trazado_720796" data-name="Trazado 720796" d="M290.254,368.336H263.983a7.468,7.468,0,0,1-7.122-9.743l10.963-34.449a55.017,55.017,0,0,0,2.593-16.69v-3.97h-.249a1.528,1.528,0,1,1,0-3.055h13.9a1.528,1.528,0,1,1,0,3.055h-.249v3.97a54.985,54.985,0,0,0,2.594,16.69l10.963,34.449A7.473,7.473,0,0,1,290.254,368.336Z" transform="translate(-256.501 -300.428)" fill="#b8e8f4"/>
          <path id="Trazado_720797" data-name="Trazado 720797" d="M290.254,368.336H263.983a7.393,7.393,0,0,1-4.311-1.364,7.547,7.547,0,0,1-2.275-2.578h0a7.392,7.392,0,0,1-.533-5.8l10.963-34.449a55.016,55.016,0,0,0,2.593-16.69v-3.97h-.249a1.532,1.532,0,0,1-1.528-1.528,1.528,1.528,0,0,1,1.528-1.528h13.9a1.507,1.507,0,0,1,.774.214,1.525,1.525,0,0,1-.774,2.842h-.249v3.97a54.985,54.985,0,0,0,2.594,16.69l10.963,34.449A7.473,7.473,0,0,1,290.254,368.336Z" transform="translate(-256.502 -300.428)" fill="#ebf6f7"/>
          <path id="Trazado_720798" data-name="Trazado 720798" d="M290.2,368.323H263.93a7.393,7.393,0,0,1-4.311-1.364,7.547,7.547,0,0,1-2.275-2.578l1.9.493,13.607,1.626,21.631-2.119v-7.788l-4.055-15.921s-6.885-22.024-7.08-27.938-.443-9.463-.443-9.463l-12.542.225-1.12.02c.26-.008.641-.02,1.12-.031,3.919-.109,14.179-.424,14.537-.781a2.089,2.089,0,0,0-.113-2.076,1.525,1.525,0,0,1-.774,2.842h-.249v3.97a54.985,54.985,0,0,0,2.594,16.69l10.963,34.449A7.473,7.473,0,0,1,290.2,368.323Z" transform="translate(-256.448 -300.415)" fill="#414042" opacity="0.19" style="mix-blend-mode: multiply;isolation: isolate"/>
          <path id="Trazado_720799" data-name="Trazado 720799" d="M289.365,365.156H264.72a7.012,7.012,0,0,1-6.683-9.137l4.58-14.384a14.6,14.6,0,0,1,8.095.26c4.261,1.551,11.752-2.749,19.695-3.6l5.641,17.725A7.011,7.011,0,0,1,289.365,365.156Z" transform="translate(-256.426 -298.037)" fill="#3076b6"/>
          <g id="Grupo_1019654" data-name="Grupo 1019654" transform="translate(3.639 44.431)">
            <path id="Trazado_720800" data-name="Trazado 720800" d="M266.758,356.069a3.417,3.417,0,1,1-3.417-3.417A3.417,3.417,0,0,1,266.758,356.069Z" transform="translate(-259.924 -341.561)" fill="#414042" opacity="0.19" style="mix-blend-mode: multiply;isolation: isolate"/>
            <circle id="Elipse_8487" data-name="Elipse 8487" cx="0.742" cy="0.742" r="0.742" transform="translate(2.675 7.143)" fill="#414042" opacity="0.19" style="mix-blend-mode: multiply;isolation: isolate"/>
            <circle id="Elipse_8488" data-name="Elipse 8488" cx="1.741" cy="1.741" r="1.741" transform="translate(2.957 0.742)" fill="#414042" opacity="0.19" style="mix-blend-mode: multiply;isolation: isolate"/>
            <circle id="Elipse_8489" data-name="Elipse 8489" cx="1.084" cy="1.084" r="1.084" transform="translate(7.428 7.182)" fill="#414042" opacity="0.19" style="mix-blend-mode: multiply;isolation: isolate"/>
            <path id="Trazado_720801" data-name="Trazado 720801" d="M287.512,343.961a1.741,1.741,0,1,1-1.741-1.741A1.742,1.742,0,0,1,287.512,343.961Z" transform="translate(-258.402 -342.22)" fill="#414042" opacity="0.19" style="mix-blend-mode: multiply;isolation: isolate"/>
            <path id="Trazado_720802" data-name="Trazado 720802" d="M287.151,348.4a.742.742,0,1,1-.742-.742A.743.743,0,0,1,287.151,348.4Z" transform="translate(-258.298 -341.876)" fill="#414042" opacity="0.19" style="mix-blend-mode: multiply;isolation: isolate"/>
            <path id="Trazado_720803" data-name="Trazado 720803" d="M272.433,346.3a1.741,1.741,0,1,1-1.741-1.741A1.742,1.742,0,0,1,272.433,346.3Z" transform="translate(-259.354 -342.073)" fill="#414042" opacity="0.19" style="mix-blend-mode: multiply;isolation: isolate"/>
            <circle id="Elipse_8490" data-name="Elipse 8490" cx="3.417" cy="3.417" r="3.417" transform="translate(16.954 8.266)" fill="#414042" opacity="0.19" style="mix-blend-mode: multiply;isolation: isolate"/>
            <path id="Trazado_720804" data-name="Trazado 720804" d="M275.521,350.1a1.741,1.741,0,1,1-1.741-1.741A1.742,1.742,0,0,1,275.521,350.1Z" transform="translate(-259.159 -341.832)" fill="#414042" opacity="0.19" style="mix-blend-mode: multiply;isolation: isolate"/>
            <circle id="Elipse_8491" data-name="Elipse 8491" cx="1.084" cy="1.084" r="1.084" transform="translate(18.392 3.797)" fill="#414042" opacity="0.19" style="mix-blend-mode: multiply;isolation: isolate"/>
            <circle id="Elipse_8492" data-name="Elipse 8492" cx="1.084" cy="1.084" r="1.084" transform="translate(24.247 15.757)" fill="#414042" opacity="0.19" style="mix-blend-mode: multiply;isolation: isolate"/>
            <circle id="Elipse_8493" data-name="Elipse 8493" cx="1.084" cy="1.084" r="1.084" transform="translate(24.543 7.182)" fill="#414042" opacity="0.19" style="mix-blend-mode: multiply;isolation: isolate"/>
            <circle id="Elipse_8494" data-name="Elipse 8494" cx="1.084" cy="1.084" r="1.084" transform="translate(11.628 16.841)" fill="#414042" opacity="0.19" style="mix-blend-mode: multiply;isolation: isolate"/>
            <path id="Trazado_720805" data-name="Trazado 720805" d="M275,343.9a.742.742,0,1,1-.742-.742A.742.742,0,0,1,275,343.9Z" transform="translate(-259.066 -342.161)" fill="#414042" opacity="0.19" style="mix-blend-mode: multiply;isolation: isolate"/>
            <path id="Trazado_720806" data-name="Trazado 720806" d="M273.977,354.473a.742.742,0,1,1-.742-.742A.741.741,0,0,1,273.977,354.473Z" transform="translate(-259.13 -341.493)" fill="#414042" opacity="0.19" style="mix-blend-mode: multiply;isolation: isolate"/>
            <path id="Trazado_720807" data-name="Trazado 720807" d="M281.186,343.259a.742.742,0,1,1-.742-.742A.742.742,0,0,1,281.186,343.259Z" transform="translate(-258.675 -342.201)" fill="#414042" opacity="0.19" style="mix-blend-mode: multiply;isolation: isolate"/>
          </g>
          <path id="Trazado_720808" data-name="Trazado 720808" d="M297.376,358.592l-10.963-34.449a54.985,54.985,0,0,1-2.594-16.69v-3.97h.249a1.527,1.527,0,0,0,.265-3.032c.509.3.664.742.549,1.652-.155,1.178-13,1.089-15.653,1.054a1.508,1.508,0,0,0,.941.326h.249v3.97a55.017,55.017,0,0,1-2.593,16.69l-10.963,34.449a7.468,7.468,0,0,0,7.122,9.743h26.271A7.473,7.473,0,0,0,297.376,358.592Zm-27.184,6.2c-6.559.5-10.341-1.058-12.2-2.236a2.3,2.3,0,0,1-.921-2.717l5.625-15.811s5.136-17.282,6.812-22.308c1.244-3.733,1.24-11.882,1.155-15.836a2.215,2.215,0,0,1,2.192-2.262l6.882-.082a2.223,2.223,0,0,1,2.243,2.123c1.182,25.387,7.931,40.091,10.294,50.257C294.705,366.364,280.378,364,270.192,364.789Z" transform="translate(-256.501 -300.427)" fill="#414042" opacity="0.19" style="mix-blend-mode: multiply;isolation: isolate"/>
          <path id="Trazado_720809" data-name="Trazado 720809" d="M261.74,357.034l8.428-28.631a41.991,41.991,0,0,0,1.707-11.851V308.38a1.024,1.024,0,0,1,1.024-1.024h0a1.023,1.023,0,0,1,1.023,1.024v10.405a41.943,41.943,0,0,1-.688,7.57l-5.872,32.018a2.893,2.893,0,0,1-3.815,2.2h0A2.894,2.894,0,0,1,261.74,357.034Z" transform="translate(-256.178 -299.99)" fill="#fff" opacity="0.52" style="mix-blend-mode: soft-light;isolation: isolate"/>
          <path id="Trazado_720810" data-name="Trazado 720810" d="M279.2,306.893v9.073a19.874,19.874,0,0,0,.528,4.551l8.836,37.537a1.7,1.7,0,0,1-1.657,2.092h0a1.7,1.7,0,0,1-1.677-1.411l-6.7-38.538a19.831,19.831,0,0,1-.282-4.076l.314-9.239a.318.318,0,0,1,.318-.306h0A.318.318,0,0,1,279.2,306.893Z" transform="translate(-255.128 -300.04)" fill="#fff" opacity="0.52" style="mix-blend-mode: soft-light;isolation: isolate"/>
          <path id="Trazado_720811" data-name="Trazado 720811" d="M268.961,358.484,273.54,328.2a.827.827,0,0,1,.816-.7h0a.826.826,0,0,1,.819.937l-4.093,30.284a.826.826,0,0,1-.819.715h-.487A.825.825,0,0,1,268.961,358.484Z" transform="translate(-255.715 -298.718)" fill="#fff" opacity="0.52" style="mix-blend-mode: soft-light;isolation: isolate"/>
          <path id="Trazado_720812" data-name="Trazado 720812" d="M281.972,302H269.75a.369.369,0,0,1-.369-.37h0a.368.368,0,0,1,.369-.369h12.222a.369.369,0,0,1,.37.369h0A.37.37,0,0,1,281.972,302Z" transform="translate(-255.688 -300.375)" fill="#fff" opacity="0.52" style="mix-blend-mode: soft-light;isolation: isolate"/>
        </g>
        <g id="Grupo_1019657" data-name="Grupo 1019657" transform="translate(47.516)">
          <path id="Trazado_720813" data-name="Trazado 720813" d="M334.947,368.336h-26.27a7.468,7.468,0,0,1-7.123-9.743l10.964-34.449a55.016,55.016,0,0,0,2.593-16.69v-3.97h-.249a1.528,1.528,0,0,1,0-3.055h13.9a1.528,1.528,0,1,1,0,3.055h-.249v3.97a55.016,55.016,0,0,0,2.593,16.69l10.963,34.449A7.472,7.472,0,0,1,334.947,368.336Z" transform="translate(-301.195 -300.428)" fill="#b8e8f4"/>
          <path id="Trazado_720814" data-name="Trazado 720814" d="M334.947,368.336h-26.27a7.394,7.394,0,0,1-4.312-1.364,7.555,7.555,0,0,1-2.274-2.578h0a7.4,7.4,0,0,1-.533-5.8l10.964-34.449a55.017,55.017,0,0,0,2.593-16.69v-3.97h-.249a1.532,1.532,0,0,1-1.528-1.528,1.527,1.527,0,0,1,1.528-1.528h13.9a1.508,1.508,0,0,1,.774.214,1.526,1.526,0,0,1-.774,2.842h-.249v3.97a55.016,55.016,0,0,0,2.593,16.69l10.963,34.449A7.472,7.472,0,0,1,334.947,368.336Z" transform="translate(-301.195 -300.428)" fill="#ebf6f7"/>
          <path id="Trazado_720815" data-name="Trazado 720815" d="M334.894,368.323h-26.27a7.394,7.394,0,0,1-4.312-1.364,7.555,7.555,0,0,1-2.274-2.578l1.9.493,13.607,1.626,21.632-2.119v-7.788l-4.055-15.921s-6.885-22.024-7.08-27.938-.443-9.463-.443-9.463l-12.542.225-1.12.02c.26-.008.641-.02,1.12-.031,3.919-.109,14.178-.424,14.537-.781a2.091,2.091,0,0,0-.113-2.076,1.526,1.526,0,0,1-.774,2.842h-.249v3.97a55.016,55.016,0,0,0,2.593,16.69l10.963,34.449A7.472,7.472,0,0,1,334.894,368.323Z" transform="translate(-301.142 -300.415)" fill="#414042" opacity="0.19" style="mix-blend-mode: multiply;isolation: isolate"/>
          <path id="Trazado_720816" data-name="Trazado 720816" d="M334.06,364.786H309.412a7.009,7.009,0,0,1-6.679-9.141l2.874-9.019a10.039,10.039,0,0,1,7.621-.876c2.207.666,4.138,2.086,6.367,2.674,3.184.821,6.534-.156,9.684-1.132a34.917,34.917,0,0,0,7.8-3.138l3.661,11.492A7.009,7.009,0,0,1,334.06,364.786Z" transform="translate(-301.119 -297.667)" fill="#4db1f0"/>
          <g id="Grupo_1019656" data-name="Grupo 1019656" transform="translate(3.639 45.431)">
            <path id="Trazado_720817" data-name="Trazado 720817" d="M311.452,356.069a3.417,3.417,0,1,1-3.417-3.417A3.417,3.417,0,0,1,311.452,356.069Z" transform="translate(-304.618 -342.561)" fill="#414042" opacity="0.19" style="mix-blend-mode: multiply;isolation: isolate"/>
            <path id="Trazado_720818" data-name="Trazado 720818" d="M308.618,349.681a.742.742,0,1,1-.742-.742A.743.743,0,0,1,308.618,349.681Z" transform="translate(-304.459 -342.795)" fill="#414042" opacity="0.19" style="mix-blend-mode: multiply;isolation: isolate"/>
            <circle id="Elipse_8495" data-name="Elipse 8495" cx="1.084" cy="1.084" r="1.084" transform="translate(7.428 6.182)" fill="#414042" opacity="0.19" style="mix-blend-mode: multiply;isolation: isolate"/>
            <circle id="Elipse_8496" data-name="Elipse 8496" cx="0.742" cy="0.742" r="0.742" transform="translate(27.368 4.783)" fill="#414042" opacity="0.19" style="mix-blend-mode: multiply;isolation: isolate"/>
            <path id="Trazado_720819" data-name="Trazado 720819" d="M327.4,353.412a3.417,3.417,0,1,1-3.417-3.417A3.417,3.417,0,0,1,327.4,353.412Z" transform="translate(-303.611 -342.728)" fill="#414042" opacity="0.19" style="mix-blend-mode: multiply;isolation: isolate"/>
            <path id="Trazado_720820" data-name="Trazado 720820" d="M320.215,350.1a1.741,1.741,0,1,1-1.741-1.741A1.742,1.742,0,0,1,320.215,350.1Z" transform="translate(-303.853 -342.832)" fill="#414042" opacity="0.19" style="mix-blend-mode: multiply;isolation: isolate"/>
            <circle id="Elipse_8497" data-name="Elipse 8497" cx="1.084" cy="1.084" r="1.084" transform="translate(24.247 14.757)" fill="#414042" opacity="0.19" style="mix-blend-mode: multiply;isolation: isolate"/>
            <path id="Trazado_720821" data-name="Trazado 720821" d="M329.871,350.059a1.084,1.084,0,1,1-1.084-1.084A1.084,1.084,0,0,1,329.871,350.059Z" transform="translate(-303.16 -342.793)" fill="#414042" opacity="0.19" style="mix-blend-mode: multiply;isolation: isolate"/>
            <circle id="Elipse_8498" data-name="Elipse 8498" cx="1.084" cy="1.084" r="1.084" transform="translate(11.628 15.842)" fill="#414042" opacity="0.19" style="mix-blend-mode: multiply;isolation: isolate"/>
            <path id="Trazado_720822" data-name="Trazado 720822" d="M319.645,343.858a.743.743,0,0,1-.742.742" transform="translate(-303.716 -343.116)" fill="#ebf6f7"/>
            <path id="Trazado_720823" data-name="Trazado 720823" d="M318.9,343.16" transform="translate(-303.716 -343.16)" fill="#414042" opacity="0.19" style="mix-blend-mode: multiply;isolation: isolate"/>
            <path id="Trazado_720824" data-name="Trazado 720824" d="M318.671,354.473a.742.742,0,1,1-.742-.742A.742.742,0,0,1,318.671,354.473Z" transform="translate(-303.824 -342.492)" fill="#414042" opacity="0.19" style="mix-blend-mode: multiply;isolation: isolate"/>
          </g>
          <path id="Trazado_720825" data-name="Trazado 720825" d="M342.069,358.592l-10.963-34.449a55.016,55.016,0,0,1-2.593-16.69v-3.97h.249a1.528,1.528,0,0,0,.265-3.032c.509.3.664.742.548,1.652-.155,1.178-13,1.089-15.652,1.054a1.508,1.508,0,0,0,.941.326h.249v3.97a55.016,55.016,0,0,1-2.593,16.69l-10.964,34.449a7.468,7.468,0,0,0,7.123,9.743h26.27A7.472,7.472,0,0,0,342.069,358.592Zm-27.183,6.2c-6.559.5-10.342-1.058-12.2-2.236a2.3,2.3,0,0,1-.922-2.717l5.626-15.811s5.135-17.282,6.811-22.308c1.245-3.733,1.241-11.882,1.156-15.836a2.214,2.214,0,0,1,2.192-2.262l6.882-.082a2.223,2.223,0,0,1,2.243,2.123c1.181,25.387,7.931,40.091,10.295,50.257C339.4,366.364,325.072,364,314.886,364.789Z" transform="translate(-301.195 -300.427)" fill="#414042" opacity="0.1" style="mix-blend-mode: multiply;isolation: isolate"/>
          <path id="Trazado_720826" data-name="Trazado 720826" d="M306.434,357.034l8.427-28.631a41.991,41.991,0,0,0,1.707-11.851V308.38a1.024,1.024,0,0,1,1.024-1.024h0a1.024,1.024,0,0,1,1.024,1.024v10.405a41.947,41.947,0,0,1-.689,7.57l-5.871,32.018a2.893,2.893,0,0,1-3.815,2.2h0A2.893,2.893,0,0,1,306.434,357.034Z" transform="translate(-300.872 -299.99)" fill="#fff" style="mix-blend-mode: soft-light;isolation: isolate"/>
          <path id="Trazado_720827" data-name="Trazado 720827" d="M323.9,306.893v9.073a19.874,19.874,0,0,0,.528,4.551l8.835,37.537a1.7,1.7,0,0,1-1.656,2.092h0a1.7,1.7,0,0,1-1.677-1.411l-6.7-38.538a19.982,19.982,0,0,1-.282-4.076l.315-9.239a.316.316,0,0,1,.317-.306h0A.318.318,0,0,1,323.9,306.893Z" transform="translate(-299.822 -300.04)" fill="#fff" style="mix-blend-mode: soft-light;isolation: isolate"/>
          <path id="Trazado_720828" data-name="Trazado 720828" d="M313.654,358.484l4.58-30.284a.826.826,0,0,1,.816-.7h0a.826.826,0,0,1,.818.937l-4.092,30.284a.826.826,0,0,1-.819.715h-.487A.826.826,0,0,1,313.654,358.484Z" transform="translate(-300.409 -298.718)" fill="#fff" style="mix-blend-mode: soft-light;isolation: isolate"/>
          <path id="Trazado_720829" data-name="Trazado 720829" d="M326.666,302H314.444a.37.37,0,0,1-.37-.37h0a.369.369,0,0,1,.37-.369h12.222a.369.369,0,0,1,.37.369h0A.37.37,0,0,1,326.666,302Z" transform="translate(-300.382 -300.375)" fill="#fff" opacity="0.52" style="mix-blend-mode: soft-light;isolation: isolate"/>
        </g>
      </g>
      <g id="Grupo_1019668" data-name="Grupo 1019668" transform="translate(165.532 173.82)">
        <g id="Grupo_1019662" data-name="Grupo 1019662" transform="translate(0 79.753)">
          <g id="Grupo_1019659" data-name="Grupo 1019659" transform="translate(0 3.325)">
            <path id="Trazado_720830" data-name="Trazado 720830" d="M178.763,254.367a2.465,2.465,0,0,1-.029.374L164.3,369.357a2.409,2.409,0,0,1-4.785-.223,2.1,2.1,0,0,1,.023-.521L173.972,254a2.4,2.4,0,0,1,2.627-2.02l.123.014A2.409,2.409,0,0,1,178.763,254.367Z" transform="translate(-159.504 -251.963)" fill="#a4b8c7"/>
            <path id="Trazado_720831" data-name="Trazado 720831" d="M176.6,252.124a2.465,2.465,0,0,1-.029.374L162.138,367.113a2.407,2.407,0,0,1-2.627,2.02,2.1,2.1,0,0,1,.023-.521L173.972,254a2.4,2.4,0,0,1,2.627-2.02A1.341,1.341,0,0,1,176.6,252.124Z" transform="translate(-159.504 -251.963)" fill="#b8cfe0"/>
          </g>
          <g id="Grupo_1019660" data-name="Grupo 1019660" transform="translate(66.085 3.323)">
            <path id="Trazado_720832" data-name="Trazado 720832" d="M238.885,371.368a2.408,2.408,0,0,1-2.485-1.224,2.309,2.309,0,0,1-.271-.788L221.693,254.741a2.564,2.564,0,0,1-.029-.379,2.406,2.406,0,0,1,1.636-2.272,2.629,2.629,0,0,1,.4-.1A2.4,2.4,0,0,1,226.455,254l14.437,114.616A2.411,2.411,0,0,1,238.885,371.368Z" transform="translate(-221.664 -251.961)" fill="#a4b8c7"/>
            <path id="Trazado_720833" data-name="Trazado 720833" d="M236.4,370.137a2.309,2.309,0,0,1-.271-.788L221.693,254.733a2.564,2.564,0,0,1-.029-.379,2.406,2.406,0,0,1,1.636-2.272,2.4,2.4,0,0,1,.27.787l14.438,114.61A2.413,2.413,0,0,1,236.4,370.137Z" transform="translate(-221.664 -251.953)" fill="#b8cfe0"/>
          </g>
          <g id="Grupo_1019661" data-name="Grupo 1019661" transform="translate(9.175)">
            <path id="Trazado_720834" data-name="Trazado 720834" d="M233.871,252.762a3.935,3.935,0,0,1-3.932,3.932H172.066a3.929,3.929,0,0,1,0-7.859h57.874c.141,0,.284.01.422.023A3.928,3.928,0,0,1,233.871,252.762Z" transform="translate(-168.134 -248.835)" fill="#a4b8c7"/>
            <path id="Trazado_720835" data-name="Trazado 720835" d="M230.679,250.405a3.935,3.935,0,0,1-3.927,3.926H168.874c-.142,0-.285-.01-.422-.023a3.93,3.93,0,0,1,3.614-5.473h57.874c.141,0,.284.01.422.023A3.9,3.9,0,0,1,230.679,250.405Z" transform="translate(-168.134 -248.835)" fill="#b8cfe0"/>
            <path id="Trazado_720836" data-name="Trazado 720836" d="M226.692,252.757H181.176a1.9,1.9,0,0,1-1.9-1.9h0a1.9,1.9,0,0,1,1.9-1.9h45.516a1.9,1.9,0,0,1,1.9,1.9h0A1.9,1.9,0,0,1,226.692,252.757Z" transform="translate(-167.431 -248.828)" fill="#d8eff6"/>
          </g>
        </g>
        <g id="Grupo_1019664" data-name="Grupo 1019664" transform="translate(16.577)">
          <path id="Trazado_720837" data-name="Trazado 720837" d="M216.272,256.665H184.224a9.112,9.112,0,0,1-8.689-11.886l13.374-42.028a67.091,67.091,0,0,0,3.164-20.36v-4.843h-.3a1.864,1.864,0,0,1,0-3.728h16.956a1.864,1.864,0,0,1,0,3.728h-.3v4.843a67.09,67.09,0,0,0,3.163,20.36l13.376,42.028A9.117,9.117,0,0,1,216.272,256.665Z" transform="translate(-175.096 -173.82)" fill="#b8e8f4"/>
          <path id="Trazado_720838" data-name="Trazado 720838" d="M216.272,256.665H184.224a9.021,9.021,0,0,1-5.26-1.665,9.209,9.209,0,0,1-2.775-3.145h0a9.024,9.024,0,0,1-.65-7.076l13.374-42.028a67.091,67.091,0,0,0,3.164-20.36v-4.843h-.3a1.871,1.871,0,0,1-1.864-1.865,1.864,1.864,0,0,1,1.864-1.864h16.956a1.85,1.85,0,0,1,.944.26,1.862,1.862,0,0,1-.944,3.468h-.3v4.843a67.09,67.09,0,0,0,3.163,20.36l13.376,42.028A9.117,9.117,0,0,1,216.272,256.665Z" transform="translate(-175.096 -173.82)" fill="#ebf6f7"/>
          <path id="Trazado_720839" data-name="Trazado 720839" d="M216.207,256.65H184.159a9.021,9.021,0,0,1-5.26-1.665,9.209,9.209,0,0,1-2.775-3.145l2.32.6,16.6,1.983,26.39-2.585v-9.5l-4.947-19.422s-8.4-26.869-8.637-34.083-.54-11.545-.54-11.545l-15.3.275-1.366.023c.318-.01.783-.023,1.366-.037,4.781-.133,17.3-.518,17.733-.954a2.551,2.551,0,0,0-.137-2.533,1.862,1.862,0,0,1-.944,3.468h-.3v4.843a67.09,67.09,0,0,0,3.163,20.36L224.9,244.764A9.117,9.117,0,0,1,216.207,256.65Z" transform="translate(-175.032 -173.805)" fill="#414042" opacity="0.19" style="mix-blend-mode: multiply;isolation: isolate"/>
          <path id="Trazado_720840" data-name="Trazado 720840" d="M215.188,252.785H185.123a8.554,8.554,0,0,1-8.153-11.146l5.588-17.548a17.81,17.81,0,0,1,9.875.318c5.2,1.892,14.338-3.353,24.027-4.392l6.882,21.622A8.553,8.553,0,0,1,215.188,252.785Z" transform="translate(-175.004 -170.902)" fill="#008b8a"/>
          <g id="Grupo_1019663" data-name="Grupo 1019663" transform="translate(4.439 54.204)">
            <circle id="Elipse_8499" data-name="Elipse 8499" cx="4.168" cy="4.168" r="4.168" transform="translate(0 13.531)" fill="#414042" opacity="0.19" style="mix-blend-mode: multiply;isolation: isolate"/>
            <path id="Trazado_720841" data-name="Trazado 720841" d="M184.152,233.906a.905.905,0,1,1-.9-.9A.9.9,0,0,1,184.152,233.906Z" transform="translate(-179.078 -224.287)" fill="#414042" opacity="0.19" style="mix-blend-mode: multiply;isolation: isolate"/>
            <circle id="Elipse_8500" data-name="Elipse 8500" cx="2.124" cy="2.124" r="2.124" transform="translate(3.607 0.905)" fill="#414042" opacity="0.19" style="mix-blend-mode: multiply;isolation: isolate"/>
            <circle id="Elipse_8501" data-name="Elipse 8501" cx="1.323" cy="1.323" r="1.323" transform="translate(9.062 8.761)" fill="#414042" opacity="0.19" style="mix-blend-mode: multiply;isolation: isolate"/>
            <circle id="Elipse_8502" data-name="Elipse 8502" cx="2.124" cy="2.124" r="2.124" transform="translate(31.263)" fill="#414042" opacity="0.19" style="mix-blend-mode: multiply;isolation: isolate"/>
            <path id="Trazado_720842" data-name="Trazado 720842" d="M212.487,232.345a.905.905,0,1,1-.9-.9A.9.9,0,0,1,212.487,232.345Z" transform="translate(-177.289 -224.385)" fill="#414042" opacity="0.19" style="mix-blend-mode: multiply;isolation: isolate"/>
            <circle id="Elipse_8503" data-name="Elipse 8503" cx="2.124" cy="2.124" r="2.124" transform="translate(11.707 3.03)" fill="#414042" opacity="0.19" style="mix-blend-mode: multiply;isolation: isolate"/>
            <circle id="Elipse_8504" data-name="Elipse 8504" cx="4.168" cy="4.168" r="4.168" transform="translate(20.682 10.084)" fill="#414042" opacity="0.19" style="mix-blend-mode: multiply;isolation: isolate"/>
            <circle id="Elipse_8505" data-name="Elipse 8505" cx="2.124" cy="2.124" r="2.124" transform="translate(15.712 7.96)" fill="#414042" opacity="0.19" style="mix-blend-mode: multiply;isolation: isolate"/>
            <circle id="Elipse_8506" data-name="Elipse 8506" cx="1.323" cy="1.323" r="1.323" transform="translate(22.436 4.633)" fill="#414042" opacity="0.19" style="mix-blend-mode: multiply;isolation: isolate"/>
            <circle id="Elipse_8507" data-name="Elipse 8507" cx="1.323" cy="1.323" r="1.323" transform="translate(29.58 19.222)" fill="#414042" opacity="0.19" style="mix-blend-mode: multiply;isolation: isolate"/>
            <circle id="Elipse_8508" data-name="Elipse 8508" cx="1.323" cy="1.323" r="1.323" transform="translate(29.941 8.761)" fill="#414042" opacity="0.19" style="mix-blend-mode: multiply;isolation: isolate"/>
            <circle id="Elipse_8509" data-name="Elipse 8509" cx="1.323" cy="1.323" r="1.323" transform="translate(14.185 20.545)" fill="#414042" opacity="0.19" style="mix-blend-mode: multiply;isolation: isolate"/>
            <path id="Trazado_720843" data-name="Trazado 720843" d="M197.658,226.857a.905.905,0,1,1-.906-.906A.9.9,0,0,1,197.658,226.857Z" transform="translate(-178.225 -224.732)" fill="#414042" opacity="0.19" style="mix-blend-mode: multiply;isolation: isolate"/>
            <path id="Trazado_720844" data-name="Trazado 720844" d="M196.416,239.753a.905.905,0,1,1-.9-.9A.9.9,0,0,1,196.416,239.753Z" transform="translate(-178.304 -223.918)" fill="#414042" opacity="0.19" style="mix-blend-mode: multiply;isolation: isolate"/>
            <path id="Trazado_720845" data-name="Trazado 720845" d="M205.211,226.072a.905.905,0,1,1-.9-.906A.9.9,0,0,1,205.211,226.072Z" transform="translate(-177.748 -224.782)" fill="#414042" opacity="0.19" style="mix-blend-mode: multiply;isolation: isolate"/>
          </g>
          <path id="Trazado_720846" data-name="Trazado 720846" d="M224.961,244.778,211.586,202.75a67.09,67.09,0,0,1-3.163-20.36v-4.843h.3a1.864,1.864,0,0,0,.322-3.7c.622.37.811.906.669,2.016-.189,1.437-15.855,1.328-19.094,1.285a1.843,1.843,0,0,0,1.147.4h.3v4.843a67.091,67.091,0,0,1-3.164,20.36l-13.374,42.028a9.112,9.112,0,0,0,8.689,11.886h32.048A9.117,9.117,0,0,0,224.961,244.778Zm-33.163,7.56c-8,.617-12.616-1.29-14.887-2.727a2.806,2.806,0,0,1-1.125-3.316l6.864-19.289s6.265-21.082,8.31-27.215c1.517-4.553,1.513-14.5,1.409-19.319a2.7,2.7,0,0,1,2.675-2.76l8.395-.1a2.712,2.712,0,0,1,2.737,2.59c1.442,30.971,9.676,48.909,12.559,61.311C221.7,254.259,204.224,251.374,191.8,252.338Z" transform="translate(-175.096 -173.818)" fill="#414042" opacity="0.19" style="mix-blend-mode: multiply;isolation: isolate"/>
          <path id="Trazado_720847" data-name="Trazado 720847" d="M181.488,242.877l10.28-34.928a51.2,51.2,0,0,0,2.084-14.458v-9.97a1.248,1.248,0,0,1,1.248-1.248h0a1.248,1.248,0,0,1,1.249,1.248v12.693a51.253,51.253,0,0,1-.84,9.236l-7.163,39.06a3.531,3.531,0,0,1-4.654,2.69h0A3.529,3.529,0,0,1,181.488,242.877Z" transform="translate(-174.702 -173.286)" fill="#fff" opacity="0.52" style="mix-blend-mode: soft-light;isolation: isolate"/>
          <path id="Trazado_720848" data-name="Trazado 720848" d="M202.791,181.708v11.068a24.228,24.228,0,0,0,.645,5.552l10.778,45.793a2.076,2.076,0,0,1-2.021,2.553h0a2.075,2.075,0,0,1-2.046-1.721l-8.17-47.015a24.273,24.273,0,0,1-.343-4.972l.383-11.271a.387.387,0,0,1,.387-.374h0A.387.387,0,0,1,202.791,181.708Z" transform="translate(-173.421 -173.346)" fill="#fff" opacity="0.52" style="mix-blend-mode: soft-light;isolation: isolate"/>
          <path id="Trazado_720849" data-name="Trazado 720849" d="M190.295,244.646l5.588-36.945a1.006,1.006,0,0,1,1-.857h0a1.007,1.007,0,0,1,1,1.142l-4.993,36.946a1.007,1.007,0,0,1-1,.872h-.594A1.008,1.008,0,0,1,190.295,244.646Z" transform="translate(-174.137 -171.734)" fill="#fff" opacity="0.52" style="mix-blend-mode: soft-light;isolation: isolate"/>
          <path id="Trazado_720850" data-name="Trazado 720850" d="M206.17,175.739H191.259a.451.451,0,0,1-.451-.451h0a.451.451,0,0,1,.451-.452H206.17a.451.451,0,0,1,.451.452h0A.451.451,0,0,1,206.17,175.739Z" transform="translate(-174.104 -173.756)" fill="#fff" opacity="0.52" style="mix-blend-mode: soft-light;isolation: isolate"/>
        </g>
        <g id="Grupo_1019667" data-name="Grupo 1019667" transform="translate(16.917 119.524)">
          <g id="Grupo_1019665" data-name="Grupo 1019665" transform="translate(0 33.698)">
            <path id="Trazado_720851" data-name="Trazado 720851" d="M226.52,342.991l-5.623,18.62a7.727,7.727,0,0,1-7.326,5.493l-12.379.125-12.379-.125a7.745,7.745,0,0,1-7.326-5.493l-5.623-18.62a10.389,10.389,0,0,1,5.6-12.443l6.963-3.217a7.058,7.058,0,0,0,2.711-2.191,4.1,4.1,0,0,0,.077-4.6,1.7,1.7,0,0,1-.234-1.016,1.782,1.782,0,0,1,1.8-1.582h16.829a1.926,1.926,0,0,1,.269.022,1.968,1.968,0,0,1,.528.157,1.695,1.695,0,0,1,.771,2.419,4.1,4.1,0,0,0,.075,4.6,7.074,7.074,0,0,0,2.711,2.191l6.963,3.217A10.388,10.388,0,0,1,226.52,342.991Z" transform="translate(-175.416 -317.94)" fill="#ebf6f7"/>
            <path id="Trazado_720852" data-name="Trazado 720852" d="M226.018,342.98,220.4,361.6a7.727,7.727,0,0,1-7.326,5.493l-12.379.125-12.379-.125a7.7,7.7,0,0,1-4.955-1.864s11.572-.045,18.616-2.017,17.716-12.343,18.473-12.872S223.59,337.6,223.59,337.6s-.87-8.007-13.142-10.507c-4.01-.717-14.611-.68-14.611-.68l-.014-.206s13.4.488,13.567-1.649-1.42-3.217-4.865-2.97l-.036-.247s6.963.457,5.413-3.23a1.695,1.695,0,0,1,.771,2.419,4.1,4.1,0,0,0,.075,4.6,7.074,7.074,0,0,0,2.711,2.191l6.963,3.217A10.388,10.388,0,0,1,226.018,342.98Z" transform="translate(-174.915 -317.929)" fill="#414042" opacity="0.19" style="mix-blend-mode: multiply;isolation: isolate"/>
            <path id="Trazado_720853" data-name="Trazado 720853" d="M224.011,342.1l-5.1,16.882a7.011,7.011,0,0,1-6.64,4.983l-11.224.112-11.224-.112a7.01,7.01,0,0,1-6.639-4.983l-5.1-16.882a9.346,9.346,0,0,1-.247-4.423,98.289,98.289,0,0,1,21.61.717,59.691,59.691,0,0,0,24.5-1.949A9.4,9.4,0,0,1,224.011,342.1Z" transform="translate(-175.273 -316.772)" fill="#e6e7e8"/>
            <path id="Trazado_720854" data-name="Trazado 720854" d="M226.52,342.991l-5.623,18.62a7.727,7.727,0,0,1-7.326,5.493l-12.379.125-12.379-.125a7.734,7.734,0,0,1-7.326-5.493l-5.623-18.62a10.389,10.389,0,0,1,5.6-12.443l6.963-3.217a7.058,7.058,0,0,0,2.711-2.191,4.1,4.1,0,0,0,.077-4.6,1.7,1.7,0,0,1-.232-1.033,1.786,1.786,0,0,1,1.8-1.565h.394s-2.33.775-1.479,2.254,1.457,5.637-1.59,6.7c0,0-15.543,6.227-13.571,13.687,0,0,5.64,23.1,8.669,24.155s34.04,1.549,38.084-22.152c1.35-7.909-14.32-16.889-29.341-15.685a.5.5,0,0,1-.543-.5h0a.5.5,0,0,1,.525-.5c2.768.134,15.521.609,15.317-2.075-.2-2.72-11.016-2.088-13.11-1.939a.336.336,0,0,1-.358-.328h0a.336.336,0,0,1,.352-.344c2.423.108,16.181.566,13.744-3.253a1.753,1.753,0,0,1,1.532,1.56,1.709,1.709,0,0,1-.233,1.016,4.1,4.1,0,0,0,.075,4.6,7.074,7.074,0,0,0,2.711,2.191l6.963,3.217A10.388,10.388,0,0,1,226.52,342.991Z" transform="translate(-175.416 -317.94)" fill="#414042" opacity="0.19" style="mix-blend-mode: multiply;isolation: isolate"/>
            <path id="Trazado_720855" data-name="Trazado 720855" d="M184.038,358.755c-.626-3.023-2.112-9.418-3.366-14.738a13.287,13.287,0,0,1,5.03-13.727h0a1.465,1.465,0,0,1,2.221,1.748l-1.386,3.277a13.3,13.3,0,0,0-.855,7.451l2.637,15.18a2.179,2.179,0,0,1-2.146,2.552h0A2.179,2.179,0,0,1,184.038,358.755Z" transform="translate(-175.107 -317.179)" fill="#fff" opacity="0.75" style="mix-blend-mode: soft-light;isolation: isolate"/>
            <path id="Trazado_720856" data-name="Trazado 720856" d="M215.354,335.329c1.159,3.524,4.138,16.378-10.725,24.057a1.285,1.285,0,0,1-1.589-.33h0a1.273,1.273,0,0,1,.288-1.866c3.316-2.194,12.231-9.312,10.327-21.433a.886.886,0,0,1,.5-.946h0A.876.876,0,0,1,215.354,335.329Z" transform="translate(-173.69 -316.88)" fill="#fff" opacity="0.75" style="mix-blend-mode: soft-light;isolation: isolate"/>
            <path id="Trazado_720857" data-name="Trazado 720857" d="M204.986,324.452H193.7a.852.852,0,0,1-.853-.852h0a.853.853,0,0,1,.853-.853h11.283a.852.852,0,0,1,.852.853h0A.852.852,0,0,1,204.986,324.452Z" transform="translate(-174.315 -317.636)" fill="#fff" opacity="0.75" style="mix-blend-mode: soft-light;isolation: isolate"/>
            <path id="Trazado_720858" data-name="Trazado 720858" d="M204.06,320.356H192.777a.852.852,0,0,1-.853-.852h0a.852.852,0,0,1,.853-.852H204.06a.852.852,0,0,1,.852.852h0A.851.851,0,0,1,204.06,320.356Z" transform="translate(-174.374 -317.895)" fill="#fff" opacity="0.75" style="mix-blend-mode: soft-light;isolation: isolate"/>
          </g>
          <g id="Grupo_1019666" data-name="Grupo 1019666" transform="translate(15.017)">
            <path id="Trazado_720859" data-name="Trazado 720859" d="M198.953,293.674a7.866,7.866,0,0,1-.691,1.651c-1.4,2.518-3.714,4.522-5.295,6.974a11.169,11.169,0,0,0-1.292,9.517l-2.135-2.126c.174.173.207,1.284.3,1.583a9.177,9.177,0,0,0,.773,1.693,26.258,26.258,0,0,0,1.918,2.856c2.955,3.922,9.445,4.5,13.482,2,4.263-2.645,1.571-7.858,3.549-11.585a7.661,7.661,0,0,0-3.385,4.844c.132-.624-.533-1.8-.44-2.6a6.229,6.229,0,0,1,1-2.3c1.828-3.552,1.056-9.19-2-11.867a5.694,5.694,0,0,1-3.08,6.63c1.935-.84,1-5.425.742-6.945-.5-2.931-2.242-6.444-5.113-7.749.405.184.939,2.137,1.178,2.613A6.491,6.491,0,0,1,198.953,293.674Z" transform="translate(-189.541 -286.244)" fill="#ffab36"/>
            <path id="Trazado_720860" data-name="Trazado 720860" d="M196.026,316.971c-1.9-.64-3.784-1.928-3.4-3.92.12-.627.509-1.171.689-1.784.413-1.41-.475-2.768-.452-4.178.034-2.037,1.687-3.468,2.825-4.98,1.635-2.172,3.735-4.83,4.637-7.414.215,2.582-1.314,4.467-1.6,6.851a1.541,1.541,0,0,0,.591,1.488c1.432.916,1.857-.764,2.765-1.436a1.01,1.01,0,0,1,1.054-.141c1.047.571.245,3.356.135,4.238a13.9,13.9,0,0,0-.245,4.556,2.387,2.387,0,0,0,1.051,1.593c.954.55,1.988.069,2.9-.273a15.033,15.033,0,0,1-.256,1.783,3.224,3.224,0,0,1-.88,1.314,9.9,9.9,0,0,1-7.518,2.776A9.223,9.223,0,0,1,196.026,316.971Z" transform="translate(-189.35 -285.71)" fill="#ffc452"/>
            <path id="Trazado_720861" data-name="Trazado 720861" d="M195.863,314.271a1.224,1.224,0,0,1-.049-.218c-.2-1.539.757-2.812.416-4.465a16.106,16.106,0,0,1-.745-3.447c.014-.71.566-2.6,1.5-1.38.231.3.409.693.773.8.742.217,1.206-.94,1.971-1.05.7-.1,1.007.626,1.011,1.192a14.016,14.016,0,0,1-.723,2.694,2.682,2.682,0,0,0,.3,1.932,4.634,4.634,0,0,0,1.261,1.128,2.827,2.827,0,0,1,1.107,1.258c.869,2.486-4.141,3.147-5.586,2.658A1.911,1.911,0,0,1,195.863,314.271Z" transform="translate(-189.166 -285.1)" fill="#ffdb77"/>
          </g>
        </g>
      </g>
      <g id="Grupo_1019676" data-name="Grupo 1019676" transform="translate(257.192 209.873)">
        <g id="Grupo_1019669" data-name="Grupo 1019669" transform="translate(57.37)">
          <path id="Trazado_720862" data-name="Trazado 720862" d="M313.531,211.213a2.014,2.014,0,0,0-.816,1.662v67.769a5.706,5.706,0,0,1-11.1,1.85l-.007-.007a5.707,5.707,0,0,1-.252-1.077,5.36,5.36,0,0,1-.051-.765V212.875a2.034,2.034,0,0,0-.817-1.662,1.85,1.85,0,0,1-.556-.628,1.924,1.924,0,0,1-.224-1.235,1.979,1.979,0,0,1,1.987-1.618h10.634a2.2,2.2,0,0,1,.535.065,2,2,0,0,1,1.322,1.12,1.5,1.5,0,0,1,.131.434A1.935,1.935,0,0,1,313.531,211.213Z" transform="translate(-299.682 -207.731)" fill="#ebf6f7"/>
          <path id="Trazado_720863" data-name="Trazado 720863" d="M311.957,260.592V275.82a5.081,5.081,0,0,1-9.889,1.647l-.007-.007a5.053,5.053,0,0,1-.224-.961,5.29,5.29,0,0,1-.044-.678v-15.33a10.192,10.192,0,0,1,5.086.195A8.24,8.24,0,0,0,311.957,260.592Z" transform="translate(-299.549 -204.414)" fill="#6ab0d9"/>
          <path id="Trazado_720864" data-name="Trazado 720864" d="M313.516,211.209a2.014,2.014,0,0,0-.817,1.662v67.769a5.707,5.707,0,0,1-11.363.765,5.355,5.355,0,0,1-.051-.765v-1.314c0,1.2,2.212,2.369,3.1,2.827,1.6.825,3.434.939,4.77-.448,2.675-2.778,2.291-7.491,2.477-11.023.315-5.977.286-11.975.209-17.958-.15-11.76-.61-23.516-1.2-35.261l-.016-.323a4.341,4.341,0,0,0-8.676.224v.094c.282,12.577.946,49.723-.664,58.941V212.871a2.034,2.034,0,0,0-.817-1.662,1.85,1.85,0,0,1-.556-.628c1.712.2,11.826,1.207,12.931-2.789a1.958,1.958,0,0,1,1.452,1.553A1.935,1.935,0,0,1,313.516,211.209Z" transform="translate(-299.668 -207.727)" fill="#414042" opacity="0.19" style="mix-blend-mode: multiply;isolation: isolate"/>
          <path id="Trazado_720865" data-name="Trazado 720865" d="M313.416,211.142a2.014,2.014,0,0,0-.817,1.662v67.769a5.706,5.706,0,0,1-11.1,1.85c.238.223,5.939,5.4,8.929.318,3.048-5.195,1.524-12.946,1.647-14.167.108-1.077-.072-44.674-.116-54.679a1.928,1.928,0,0,0-2.016-1.921c-2.679.115-7.166.217-7.823-.419-.131-.123,10.554,1.068,11.948-2.71a1.5,1.5,0,0,1,.131.434A1.935,1.935,0,0,1,313.416,211.142Z" transform="translate(-299.568 -207.661)" fill="#414042" opacity="0.19" style="mix-blend-mode: multiply;isolation: isolate"/>
          <rect id="Rectángulo_348420" data-name="Rectángulo 348420" width="2.442" height="34.431" rx="1.148" transform="translate(4.139 20.53)" fill="#fff" opacity="0.75" style="mix-blend-mode: soft-light;isolation: isolate"/>
          <rect id="Rectángulo_348421" data-name="Rectángulo 348421" width="2.442" height="6.594" rx="1.148" transform="translate(4.139 56.305)" fill="#fff" opacity="0.75" style="mix-blend-mode: soft-light;isolation: isolate"/>
          <rect id="Rectángulo_348422" data-name="Rectángulo 348422" width="8.73" height="0.916" transform="translate(2.216 0.361)" fill="#fff" opacity="0.75" style="mix-blend-mode: soft-light;isolation: isolate"/>
        </g>
        <g id="Grupo_1019670" data-name="Grupo 1019670" transform="translate(41.275)">
          <path id="Trazado_720866" data-name="Trazado 720866" d="M298.391,211.213a2.014,2.014,0,0,0-.816,1.662v67.769a5.705,5.705,0,0,1-11.1,1.85l-.007-.007a5.705,5.705,0,0,1-.253-1.077,5.364,5.364,0,0,1-.05-.765V212.875a2.034,2.034,0,0,0-.817-1.662,1.854,1.854,0,0,1-.557-.628,1.924,1.924,0,0,1-.223-1.235,1.979,1.979,0,0,1,1.986-1.618h10.635a2.2,2.2,0,0,1,.534.065,2,2,0,0,1,1.323,1.12,1.5,1.5,0,0,1,.13.434A1.931,1.931,0,0,1,298.391,211.213Z" transform="translate(-284.543 -207.731)" fill="#ebf6f7"/>
          <path id="Trazado_720867" data-name="Trazado 720867" d="M296.817,247.771v28.948a5.081,5.081,0,0,1-9.889,1.647l-.007-.007a4.972,4.972,0,0,1-.223-.961,5.1,5.1,0,0,1-.044-.678V246.052a6.983,6.983,0,0,1,3.518.737A14.57,14.57,0,0,0,296.817,247.771Z" transform="translate(-284.41 -205.312)" fill="#008b8a"/>
          <path id="Trazado_720868" data-name="Trazado 720868" d="M298.376,211.209a2.014,2.014,0,0,0-.816,1.662v67.769a5.707,5.707,0,0,1-11.363.765,5.364,5.364,0,0,1-.05-.765v-1.314c0,1.2,2.212,2.369,3.1,2.827,1.6.825,3.434.939,4.769-.448,2.675-2.778,2.292-7.491,2.477-11.023.315-5.977.287-11.975.211-17.958-.151-11.76-.61-23.516-1.2-35.261-.005-.107-.012-.216-.017-.323a4.341,4.341,0,0,0-8.675.224v.094c.282,12.577.946,49.723-.664,58.941V212.871a2.034,2.034,0,0,0-.817-1.662,1.854,1.854,0,0,1-.557-.628c1.713.2,11.827,1.207,12.931-2.789a1.955,1.955,0,0,1,1.452,1.553A1.931,1.931,0,0,1,298.376,211.209Z" transform="translate(-284.528 -207.727)" fill="#414042" opacity="0.19" style="mix-blend-mode: multiply;isolation: isolate"/>
          <path id="Trazado_720869" data-name="Trazado 720869" d="M298.276,211.142a2.014,2.014,0,0,0-.816,1.662v67.769a5.705,5.705,0,0,1-11.1,1.85c.238.223,5.938,5.4,8.928.318,3.049-5.195,1.525-12.946,1.647-14.167.108-1.077-.072-44.674-.115-54.679a1.928,1.928,0,0,0-2.016-1.921c-2.68.115-7.167.217-7.824-.419-.13-.123,10.554,1.068,11.949-2.71a1.5,1.5,0,0,1,.13.434A1.931,1.931,0,0,1,298.276,211.142Z" transform="translate(-284.428 -207.661)" fill="#414042" opacity="0.19" style="mix-blend-mode: multiply;isolation: isolate"/>
          <path id="Trazado_720870" data-name="Trazado 720870" d="M289.657,261.473h0a1.221,1.221,0,0,1-1.22-1.222V228.263a1.221,1.221,0,0,1,1.22-1.221h0a1.221,1.221,0,0,1,1.222,1.221v31.989A1.221,1.221,0,0,1,289.657,261.473Z" transform="translate(-284.297 -206.511)" fill="#fff" opacity="0.75" style="mix-blend-mode: soft-light;isolation: isolate"/>
          <path id="Trazado_720871" data-name="Trazado 720871" d="M289.657,267.286h0a1.221,1.221,0,0,1-1.22-1.222v-4.152a1.221,1.221,0,0,1,1.22-1.222h0a1.221,1.221,0,0,1,1.222,1.222v4.152A1.222,1.222,0,0,1,289.657,267.286Z" transform="translate(-284.297 -204.386)" fill="#fff" opacity="0.75" style="mix-blend-mode: soft-light;isolation: isolate"/>
        </g>
        <g id="Grupo_1019671" data-name="Grupo 1019671" transform="translate(91.453)">
          <path id="Trazado_720872" data-name="Trazado 720872" d="M345.589,211.213a2.014,2.014,0,0,0-.816,1.662v67.769a5.706,5.706,0,0,1-11.1,1.85l-.007-.007a5.705,5.705,0,0,1-.253-1.077,5.364,5.364,0,0,1-.05-.765V212.875a2.034,2.034,0,0,0-.816-1.662,1.839,1.839,0,0,1-.556-.628,1.917,1.917,0,0,1-.224-1.235,1.979,1.979,0,0,1,1.987-1.618h10.634a2.2,2.2,0,0,1,.535.065,2,2,0,0,1,1.322,1.12,1.5,1.5,0,0,1,.13.434A1.932,1.932,0,0,1,345.589,211.213Z" transform="translate(-331.74 -207.731)" fill="#ebf6f7"/>
          <path id="Trazado_720873" data-name="Trazado 720873" d="M344.015,247.771v28.948a5.082,5.082,0,0,1-9.891,1.647l-.006-.007a4.977,4.977,0,0,1-.224-.961,5.3,5.3,0,0,1-.044-.678V246.052a6.981,6.981,0,0,1,3.518.737A14.572,14.572,0,0,0,344.015,247.771Z" transform="translate(-331.607 -205.312)" fill="#008b8a"/>
          <path id="Trazado_720874" data-name="Trazado 720874" d="M345.574,211.209a2.014,2.014,0,0,0-.816,1.662v67.769a5.708,5.708,0,0,1-11.364.765,5.364,5.364,0,0,1-.05-.765v-1.314c0,1.2,2.212,2.369,3.1,2.827,1.6.825,3.434.939,4.77-.448,2.675-2.778,2.291-7.491,2.477-11.023.314-5.977.286-11.975.209-17.958-.151-11.76-.61-23.516-1.2-35.261-.005-.107-.012-.216-.016-.323a4.341,4.341,0,0,0-8.676.224v.094c.282,12.577.946,49.723-.664,58.941V212.871a2.034,2.034,0,0,0-.816-1.662,1.839,1.839,0,0,1-.556-.628c1.712.2,11.825,1.207,12.931-2.789a1.955,1.955,0,0,1,1.451,1.553A1.932,1.932,0,0,1,345.574,211.209Z" transform="translate(-331.725 -207.727)" fill="#414042" opacity="0.19" style="mix-blend-mode: multiply;isolation: isolate"/>
          <path id="Trazado_720875" data-name="Trazado 720875" d="M345.474,211.142a2.014,2.014,0,0,0-.816,1.662v67.769a5.706,5.706,0,0,1-11.1,1.85c.238.223,5.938,5.4,8.928.318,3.049-5.195,1.525-12.946,1.648-14.167.108-1.077-.072-44.674-.116-54.679A1.928,1.928,0,0,0,342,211.974c-2.68.115-7.166.217-7.824-.419-.13-.123,10.555,1.068,11.949-2.71a1.5,1.5,0,0,1,.13.434A1.932,1.932,0,0,1,345.474,211.142Z" transform="translate(-331.625 -207.661)" fill="#414042" opacity="0.19" style="mix-blend-mode: multiply;isolation: isolate"/>
          <path id="Trazado_720876" data-name="Trazado 720876" d="M336.855,261.473h0a1.221,1.221,0,0,1-1.222-1.222V228.263a1.221,1.221,0,0,1,1.222-1.221h0a1.221,1.221,0,0,1,1.22,1.221v31.989A1.221,1.221,0,0,1,336.855,261.473Z" transform="translate(-331.494 -206.511)" fill="#fff" opacity="0.75" style="mix-blend-mode: soft-light;isolation: isolate"/>
          <path id="Trazado_720877" data-name="Trazado 720877" d="M336.855,267.286h0a1.222,1.222,0,0,1-1.222-1.222v-4.152a1.221,1.221,0,0,1,1.222-1.222h0a1.221,1.221,0,0,1,1.22,1.222v4.152A1.221,1.221,0,0,1,336.855,267.286Z" transform="translate(-331.494 -204.386)" fill="#fff" opacity="0.75" style="mix-blend-mode: soft-light;isolation: isolate"/>
        </g>
        <g id="Grupo_1019672" data-name="Grupo 1019672" transform="translate(25.704)">
          <path id="Trazado_720878" data-name="Trazado 720878" d="M283.746,211.213a2.014,2.014,0,0,0-.817,1.662v67.769a5.706,5.706,0,0,1-11.1,1.85l-.006-.007a5.629,5.629,0,0,1-.253-1.077,5.36,5.36,0,0,1-.051-.765V212.875a2.034,2.034,0,0,0-.816-1.662,1.85,1.85,0,0,1-.556-.628,1.923,1.923,0,0,1-.224-1.235,1.979,1.979,0,0,1,1.987-1.618h10.634a2.2,2.2,0,0,1,.535.065,2,2,0,0,1,1.322,1.12,1.506,1.506,0,0,1,.131.434A1.935,1.935,0,0,1,283.746,211.213Z" transform="translate(-269.897 -207.731)" fill="#ebf6f7"/>
          <path id="Trazado_720879" data-name="Trazado 720879" d="M282.175,224.6v53.5a5.081,5.081,0,0,1-9.889,1.647l-.007-.007a4.974,4.974,0,0,1-.223-.961A4.221,4.221,0,0,1,272,278.1V224.729a10.756,10.756,0,0,1,5.844-.312A13.567,13.567,0,0,0,282.175,224.6Z" transform="translate(-269.764 -206.694)" fill="#ffa031"/>
          <path id="Trazado_720880" data-name="Trazado 720880" d="M283.731,211.209a2.014,2.014,0,0,0-.817,1.662v67.769a5.707,5.707,0,0,1-11.363.765,5.36,5.36,0,0,1-.051-.765v-1.314c0,1.2,2.212,2.369,3.1,2.827,1.6.825,3.434.939,4.77-.448,2.675-2.778,2.291-7.491,2.477-11.023.315-5.977.287-11.975.209-17.958-.15-11.76-.61-23.516-1.2-35.261l-.016-.323a4.341,4.341,0,0,0-8.676.224v.094c.282,12.577.946,49.723-.664,58.941V212.871a2.034,2.034,0,0,0-.816-1.662,1.85,1.85,0,0,1-.556-.628c1.712.2,11.825,1.207,12.931-2.789a1.958,1.958,0,0,1,1.452,1.553A1.935,1.935,0,0,1,283.731,211.209Z" transform="translate(-269.883 -207.727)" fill="#414042" opacity="0.19" style="mix-blend-mode: multiply;isolation: isolate"/>
          <path id="Trazado_720881" data-name="Trazado 720881" d="M283.631,211.142a2.014,2.014,0,0,0-.817,1.662v67.769a5.706,5.706,0,0,1-11.1,1.85c.239.223,5.939,5.4,8.929.318,3.048-5.195,1.525-12.946,1.647-14.167.108-1.077-.072-44.674-.116-54.679a1.927,1.927,0,0,0-2.015-1.921c-2.68.115-7.167.217-7.824-.419-.131-.123,10.554,1.068,11.948-2.71a1.506,1.506,0,0,1,.131.434A1.935,1.935,0,0,1,283.631,211.142Z" transform="translate(-269.783 -207.661)" fill="#414042" opacity="0.19" style="mix-blend-mode: multiply;isolation: isolate"/>
          <path id="Trazado_720882" data-name="Trazado 720882" d="M275.012,261.473h0a1.222,1.222,0,0,1-1.222-1.222V228.263a1.221,1.221,0,0,1,1.222-1.221h0a1.221,1.221,0,0,1,1.221,1.221v31.989A1.221,1.221,0,0,1,275.012,261.473Z" transform="translate(-269.651 -206.511)" fill="#fff" opacity="0.75" style="mix-blend-mode: soft-light;isolation: isolate"/>
          <path id="Trazado_720883" data-name="Trazado 720883" d="M275.012,267.286h0a1.222,1.222,0,0,1-1.222-1.222v-4.152a1.222,1.222,0,0,1,1.222-1.222h0a1.221,1.221,0,0,1,1.221,1.222v4.152A1.221,1.221,0,0,1,275.012,267.286Z" transform="translate(-269.651 -204.386)" fill="#fff" opacity="0.75" style="mix-blend-mode: soft-light;isolation: isolate"/>
        </g>
        <g id="Grupo_1019673" data-name="Grupo 1019673" transform="translate(74.008)">
          <path id="Trazado_720884" data-name="Trazado 720884" d="M329.181,211.213a2.014,2.014,0,0,0-.816,1.662v67.769a5.706,5.706,0,0,1-11.1,1.85l-.007-.007a5.708,5.708,0,0,1-.253-1.077,5.364,5.364,0,0,1-.05-.765V212.875a2.034,2.034,0,0,0-.816-1.662,1.85,1.85,0,0,1-.556-.628,1.923,1.923,0,0,1-.224-1.235,1.979,1.979,0,0,1,1.987-1.618h10.634a2.2,2.2,0,0,1,.535.065,2,2,0,0,1,1.322,1.12,1.5,1.5,0,0,1,.13.434A1.932,1.932,0,0,1,329.181,211.213Z" transform="translate(-315.332 -207.731)" fill="#ebf6f7"/>
          <path id="Trazado_720885" data-name="Trazado 720885" d="M327.61,224.6v53.5a5.081,5.081,0,0,1-9.889,1.647l-.007-.007a5.057,5.057,0,0,1-.224-.961,4.218,4.218,0,0,1-.05-.678V224.729a10.756,10.756,0,0,1,5.844-.312A13.564,13.564,0,0,0,327.61,224.6Z" transform="translate(-315.199 -206.694)" fill="#ffab36"/>
          <path id="Trazado_720886" data-name="Trazado 720886" d="M329.166,211.209a2.014,2.014,0,0,0-.816,1.662v67.769a5.708,5.708,0,0,1-11.364.765,5.364,5.364,0,0,1-.05-.765v-1.314c0,1.2,2.212,2.369,3.1,2.827,1.6.825,3.434.939,4.77-.448,2.675-2.778,2.291-7.491,2.477-11.023.315-5.977.286-11.975.209-17.958-.151-11.76-.61-23.516-1.2-35.261l-.016-.323a4.341,4.341,0,0,0-8.676.224v.094c.282,12.577.946,49.723-.664,58.941V212.871a2.034,2.034,0,0,0-.816-1.662,1.85,1.85,0,0,1-.556-.628c1.712.2,11.826,1.207,12.931-2.789a1.955,1.955,0,0,1,1.451,1.553A1.932,1.932,0,0,1,329.166,211.209Z" transform="translate(-315.318 -207.727)" fill="#414042" opacity="0.19" style="mix-blend-mode: multiply;isolation: isolate"/>
          <path id="Trazado_720887" data-name="Trazado 720887" d="M329.066,211.142a2.014,2.014,0,0,0-.816,1.662v67.769a5.706,5.706,0,0,1-11.1,1.85c.238.223,5.938,5.4,8.929.318,3.048-5.195,1.523-12.946,1.647-14.167.108-1.077-.072-44.674-.116-54.679a1.928,1.928,0,0,0-2.016-1.921c-2.68.115-7.166.217-7.824-.419-.13-.123,10.555,1.068,11.949-2.71a1.5,1.5,0,0,1,.13.434A1.932,1.932,0,0,1,329.066,211.142Z" transform="translate(-315.218 -207.661)" fill="#414042" opacity="0.19" style="mix-blend-mode: multiply;isolation: isolate"/>
          <path id="Trazado_720888" data-name="Trazado 720888" d="M320.447,261.473h0a1.221,1.221,0,0,1-1.222-1.222V228.263a1.221,1.221,0,0,1,1.222-1.221h0a1.221,1.221,0,0,1,1.221,1.221v31.989A1.221,1.221,0,0,1,320.447,261.473Z" transform="translate(-315.086 -206.511)" fill="#fff" opacity="0.75" style="mix-blend-mode: soft-light;isolation: isolate"/>
          <path id="Trazado_720889" data-name="Trazado 720889" d="M320.447,267.286h0a1.222,1.222,0,0,1-1.222-1.222v-4.152a1.221,1.221,0,0,1,1.222-1.222h0a1.221,1.221,0,0,1,1.221,1.222v4.152A1.221,1.221,0,0,1,320.447,267.286Z" transform="translate(-315.086 -204.386)" fill="#fff" opacity="0.75" style="mix-blend-mode: soft-light;isolation: isolate"/>
        </g>
        <g id="Grupo_1019674" data-name="Grupo 1019674" transform="translate(9.748)">
          <path id="Trazado_720890" data-name="Trazado 720890" d="M268.738,211.213a2.014,2.014,0,0,0-.817,1.662v67.769a5.706,5.706,0,0,1-11.1,1.85l-.007-.007a5.71,5.71,0,0,1-.253-1.077,5.355,5.355,0,0,1-.05-.765V212.875a2.034,2.034,0,0,0-.817-1.662,1.839,1.839,0,0,1-.556-.628,1.917,1.917,0,0,1-.224-1.235,1.979,1.979,0,0,1,1.987-1.618h10.634a2.2,2.2,0,0,1,.535.065,2,2,0,0,1,1.322,1.12,1.5,1.5,0,0,1,.13.434A1.933,1.933,0,0,1,268.738,211.213Z" transform="translate(-254.889 -207.731)" fill="#ebf6f7"/>
          <path id="Trazado_720891" data-name="Trazado 720891" d="M267.163,243.935v33.043a5.082,5.082,0,0,1-9.891,1.647l-.006-.006a5.01,5.01,0,0,1-.224-.961,5.307,5.307,0,0,1-.044-.679V242.9c1.3-.571,3.251-.767,6.046.39A8.386,8.386,0,0,0,267.163,243.935Z" transform="translate(-254.756 -205.539)" fill="#4db1f0"/>
          <path id="Trazado_720892" data-name="Trazado 720892" d="M268.723,211.209a2.014,2.014,0,0,0-.817,1.662v67.769a5.708,5.708,0,0,1-11.364.765,5.355,5.355,0,0,1-.05-.765v-1.314c0,1.2,2.212,2.369,3.1,2.827,1.6.825,3.434.939,4.77-.448,2.675-2.778,2.291-7.491,2.477-11.023.314-5.977.286-11.975.209-17.958-.151-11.76-.61-23.516-1.2-35.261-.005-.107-.012-.216-.016-.323a4.341,4.341,0,0,0-8.676.224v.094c.282,12.577.946,49.723-.664,58.941V212.871a2.034,2.034,0,0,0-.817-1.662,1.839,1.839,0,0,1-.556-.628c1.712.2,11.825,1.207,12.931-2.789a1.955,1.955,0,0,1,1.451,1.553A1.933,1.933,0,0,1,268.723,211.209Z" transform="translate(-254.874 -207.727)" fill="#414042" opacity="0.19" style="mix-blend-mode: multiply;isolation: isolate"/>
          <path id="Trazado_720893" data-name="Trazado 720893" d="M268.623,211.142a2.014,2.014,0,0,0-.817,1.662v67.769a5.706,5.706,0,0,1-11.1,1.85c.238.223,5.938,5.4,8.928.318,3.049-5.195,1.525-12.946,1.648-14.167.108-1.077-.072-44.674-.116-54.679a1.928,1.928,0,0,0-2.016-1.921c-2.68.115-7.166.217-7.824-.419-.13-.123,10.555,1.068,11.949-2.71a1.5,1.5,0,0,1,.13.434A1.933,1.933,0,0,1,268.623,211.142Z" transform="translate(-254.774 -207.661)" fill="#414042" opacity="0.19" style="mix-blend-mode: multiply;isolation: isolate"/>
          <path id="Trazado_720894" data-name="Trazado 720894" d="M260,261.473h0a1.221,1.221,0,0,1-1.22-1.222V228.263a1.221,1.221,0,0,1,1.22-1.221h0a1.221,1.221,0,0,1,1.222,1.221v31.989A1.221,1.221,0,0,1,260,261.473Z" transform="translate(-254.643 -206.511)" fill="#fff" opacity="0.75" style="mix-blend-mode: soft-light;isolation: isolate"/>
          <path id="Trazado_720895" data-name="Trazado 720895" d="M260,267.286h0a1.221,1.221,0,0,1-1.22-1.222v-4.152a1.221,1.221,0,0,1,1.22-1.222h0a1.221,1.221,0,0,1,1.222,1.222v4.152A1.222,1.222,0,0,1,260,267.286Z" transform="translate(-254.643 -204.386)" fill="#fff" opacity="0.75" style="mix-blend-mode: soft-light;isolation: isolate"/>
          <rect id="Rectángulo_348423" data-name="Rectángulo 348423" width="8.73" height="0.916" transform="translate(1.575 0.782)" fill="#fff" opacity="0.75" style="mix-blend-mode: soft-light;isolation: isolate"/>
        </g>
        <g id="Grupo_1019675" data-name="Grupo 1019675" transform="translate(0 25.625)">
          <path id="Trazado_720896" data-name="Trazado 720896" d="M355.693,232.159a3.253,3.253,0,0,0-1.424-.325H249.022a3.305,3.305,0,0,0-3.3,3.294V370.27a1.59,1.59,0,0,0,.087.521,1.65,1.65,0,0,0,3.215-.521V273.531a5.673,5.673,0,0,1,5.671-5.678h93.9a5.683,5.683,0,0,1,5.678,5.678V370.27a1.562,1.562,0,0,0,.087.521,1.637,1.637,0,0,0,1.56,1.127,1.653,1.653,0,0,0,1.647-1.648V235.128A3.282,3.282,0,0,0,355.693,232.159ZM354.269,259a5.673,5.673,0,0,1-5.678,5.671h-93.9A5.673,5.673,0,0,1,249.022,259V243.861a5.673,5.673,0,0,1,5.671-5.678h93.9a5.683,5.683,0,0,1,5.678,5.678Z" transform="translate(-245.72 -231.834)" fill="#a4b8c7"/>
          <path id="Trazado_720897" data-name="Trazado 720897" d="M355.693,232.159a3.253,3.253,0,0,0-1.424-.325H249.022a3.305,3.305,0,0,0-3.3,3.294V370.27a1.59,1.59,0,0,0,.087.521,1.269,1.269,0,0,0,.282.029,1.616,1.616,0,0,0,1.163-.484,1.642,1.642,0,0,0,.484-1.163v-96.74a5.679,5.679,0,0,1,5.678-5.678h93.891a8.18,8.18,0,0,1,6.964,6.777V370.27a1.562,1.562,0,0,0,.087.521,1.156,1.156,0,0,0,.274.029,1.652,1.652,0,0,0,1.647-1.647V234.029A3.268,3.268,0,0,0,355.693,232.159ZM354.269,259a5.673,5.673,0,0,1-5.678,5.671h-93.9a8.177,8.177,0,0,1-6.957-6.775V242.763a5.678,5.678,0,0,1,5.678-5.677h93.891a8.177,8.177,0,0,1,6.964,6.775Z" transform="translate(-245.72 -231.834)" fill="#b8cfe0"/>
          <path id="Trazado_720898" data-name="Trazado 720898" d="M316.246,234.557H252.237a.687.687,0,0,1-.687-.687h0a.687.687,0,0,1,.687-.687h64.009a.686.686,0,0,1,.687.687h0A.687.687,0,0,1,316.246,234.557Z" transform="translate(-245.352 -231.749)" fill="#d8eff6"/>
          <path id="Trazado_720899" data-name="Trazado 720899" d="M330.7,234.557H314.77a.687.687,0,0,1-.687-.687h0a.687.687,0,0,1,.687-.687H330.7a.686.686,0,0,1,.687.687h0A.686.686,0,0,1,330.7,234.557Z" transform="translate(-241.403 -231.749)" fill="#d8eff6"/>
          <path id="Trazado_720900" data-name="Trazado 720900" d="M317.624,264.531H253.616a.686.686,0,0,1-.687-.687h0a.687.687,0,0,1,.687-.687h64.008a.687.687,0,0,1,.687.687h0A.686.686,0,0,1,317.624,264.531Z" transform="translate(-245.265 -229.856)" fill="#d8eff6"/>
          <path id="Trazado_720901" data-name="Trazado 720901" d="M332.081,264.531H316.148a.686.686,0,0,1-.687-.687h0a.687.687,0,0,1,.687-.687h15.934a.687.687,0,0,1,.687.687h0A.686.686,0,0,1,332.081,264.531Z" transform="translate(-241.315 -229.856)" fill="#d8eff6"/>
        </g>
      </g>
      <g id="Grupo_1019678" data-name="Grupo 1019678" transform="translate(357.403 261.159)">
        <path id="Trazado_720902" data-name="Trazado 720902" d="M402.04,292.766l-1.235,1.812a7.969,7.969,0,0,0-1.383,4.488V356.39a12.627,12.627,0,0,1-12.631,12.625h-29.1a12.541,12.541,0,0,1-6.014-1.526,12.75,12.75,0,0,1-2.271-1.579,12.276,12.276,0,0,1-1.721-1.828,12.452,12.452,0,0,1-1.1-1.695.828.828,0,0,0-.063-.121c-.011-.021-.027-.042-.037-.069a12.513,12.513,0,0,1-1.415-5.808V305.027a16.205,16.205,0,0,0-4.4-11.1,2.5,2.5,0,0,1-.169-3.248v-.005a2.473,2.473,0,0,1,2.006-.992h57.9a1.968,1.968,0,0,1,1.632,3.088Z" transform="translate(-339.978 -253.842)" fill="#ebf6f7"/>
        <g id="Grupo_1019677" data-name="Grupo 1019677" transform="translate(10.245)">
          <path id="Trazado_720903" data-name="Trazado 720903" d="M399.323,276.48l-43.879,89.8a3.071,3.071,0,0,1-5.518-2.7l43.879-89.8a3.071,3.071,0,0,1,4.107-1.411,2.83,2.83,0,0,1,.7.476,2.976,2.976,0,0,1,.854,1.285A3.056,3.056,0,0,1,399.323,276.48Z" transform="translate(-349.614 -254.955)" fill="#d1d3d4"/>
          <path id="Trazado_720904" data-name="Trazado 720904" d="M398.569,272.849l-43.45,88.922a3.068,3.068,0,0,1-4.107,1.411,2.8,2.8,0,0,1-.7-.476l43.449-88.922a3.071,3.071,0,0,1,4.107-1.411A2.83,2.83,0,0,1,398.569,272.849Z" transform="translate(-349.57 -254.955)" fill="#e6e7e8"/>
          <path id="Trazado_720905" data-name="Trazado 720905" d="M406.63,265.077c-.079.162-.164.314-.255.468l-9.965,16.764a3.467,3.467,0,0,1-4.5,1.343l-2.79-1.362a2.842,2.842,0,0,1-1.48-3.349,2.3,2.3,0,0,1,.083-.235l7.31-18.7a6.334,6.334,0,1,1,11.6,5.073Z" transform="translate(-347.22 -255.971)" fill="#15bebd"/>
          <path id="Trazado_720906" data-name="Trazado 720906" d="M405.44,261.906c-.079.162-.164.314-.255.469l-9.965,16.763a3.466,3.466,0,0,1-4.5,1.34l-2.793-1.365a1.868,1.868,0,0,1-.295-.171,2.286,2.286,0,0,1,.083-.235l7.31-18.7a6.337,6.337,0,0,1,11.03-1.413A6.31,6.31,0,0,1,405.44,261.906Z" transform="translate(-347.213 -255.971)" fill="#008b8a"/>
          <path id="Trazado_720907" data-name="Trazado 720907" d="M400.514,260.769a2.517,2.517,0,1,1-1.156-3.366A2.516,2.516,0,0,1,400.514,260.769Z" transform="translate(-346.702 -255.897)" fill="#fff" opacity="0.75" style="mix-blend-mode: soft-light;isolation: isolate"/>
          <path id="Trazado_720908" data-name="Trazado 720908" d="M356.937,350.051h0a.476.476,0,0,1-.219-.636l24.955-51.072a.474.474,0,0,1,.636-.218h0a.473.473,0,0,1,.218.635l-24.954,51.073A.475.475,0,0,1,356.937,350.051Z" transform="translate(-349.169 -253.312)" fill="#fff" opacity="0.75" style="mix-blend-mode: soft-light;isolation: isolate"/>
        </g>
        <path id="Trazado_720909" data-name="Trazado 720909" d="M401.582,292.766l-1.235,1.812a7.969,7.969,0,0,0-1.383,4.488V356.39a12.627,12.627,0,0,1-12.631,12.625h-29.1a12.564,12.564,0,0,1-8.285-3.1,12.276,12.276,0,0,1-1.721-1.828c3.026-.027,6.173-.18,6.559-.206,8.079-.485,16.338-1.748,23.9-4.742,7.371-2.925,14.1-7.83,15.551-16.126.966-5.523.776-11.491,1.05-17.1a80.37,80.37,0,0,0-.074-12.768c-.781-6.949-4-12.325-11.151-13.92a31.025,31.025,0,0,0-7.219-.618c-10.866.169-17.9-.565-22.3-1.394a.8.8,0,0,1,.189-1.589c14.173.7,45.507,1.431,44.821-5.94h1.4A1.974,1.974,0,0,1,401.582,292.766Z" transform="translate(-339.52 -253.842)" fill="#414042" opacity="0.1" style="mix-blend-mode: multiply;isolation: isolate"/>
        <path id="Trazado_720910" data-name="Trazado 720910" d="M345.069,356.331V304.968a16.205,16.205,0,0,0-4.4-11.1,2.5,2.5,0,0,1-.169-3.248,4.469,4.469,0,0,0,2.159,4.177c2.5,1.521,2.814,8.828,2.946,17,.138,8.09-.237,47.766.882,50.349A12.513,12.513,0,0,1,345.069,356.331Z" transform="translate(-339.978 -253.783)" fill="#414042" opacity="0.19" style="mix-blend-mode: multiply;isolation: isolate"/>
        <path id="Trazado_720911" data-name="Trazado 720911" d="M401.345,292.755l-1.235,1.812a7.952,7.952,0,0,0-1.383,4.482V356.38A12.626,12.626,0,0,1,386.1,369H357a12.541,12.541,0,0,1-6.014-1.526c13.539.047,43.685-1.8,45.465-18.286,2.276-21.148,3.881-51.4-4.953-52.075a194.842,194.842,0,0,0-20.62-.02.373.373,0,0,1-.391-.373h0a.371.371,0,0,1,.4-.372c3.423.305,27.6,2.142,29.648-6.511A1.976,1.976,0,0,1,401.345,292.755Z" transform="translate(-339.283 -253.832)" fill="#414042" opacity="0.1" style="mix-blend-mode: multiply;isolation: isolate"/>
        <path id="Trazado_720912" data-name="Trazado 720912" d="M376.144,293.63H346.23a1.463,1.463,0,0,1-1.464-1.464h0a1.464,1.464,0,0,1,1.464-1.465h29.914a1.464,1.464,0,0,1,1.464,1.465h0A1.463,1.463,0,0,1,376.144,293.63Z" transform="translate(-339.676 -253.777)" fill="#fff"/>
        <path id="Trazado_720913" data-name="Trazado 720913" d="M385.1,293.437h-6.939a1.282,1.282,0,0,1-1.282-1.282h0a1.282,1.282,0,0,1,1.282-1.283H385.1a1.283,1.283,0,0,1,1.283,1.283h0A1.283,1.283,0,0,1,385.1,293.437Z" transform="translate(-337.648 -253.767)" fill="#fff" opacity="0.75" style="mix-blend-mode: soft-light;isolation: isolate"/>
        <path id="Trazado_720914" data-name="Trazado 720914" d="M347.23,302.68V354.6a4.535,4.535,0,0,0,4.534,4.534h0a4.535,4.535,0,0,0,4.515-4.961L351.4,302.483a2.09,2.09,0,0,0-2.081-1.893h0A2.09,2.09,0,0,0,347.23,302.68Z" transform="translate(-339.52 -253.153)" fill="#fff" style="mix-blend-mode: soft-light;isolation: isolate"/>
        <path id="Trazado_720915" data-name="Trazado 720915" d="M353.387,302.587l4.877,47.754a1.976,1.976,0,0,0,2.486,1.705h0a1.977,1.977,0,0,0,1.437-2.179l-6.649-47.539a1.083,1.083,0,0,0-1.71-.726h0A1.083,1.083,0,0,0,353.387,302.587Z" transform="translate(-339.132 -253.102)" fill="#fff" style="mix-blend-mode: soft-light;isolation: isolate"/>
        <path id="Trazado_720916" data-name="Trazado 720916" d="M378.008,302.946V351.8a1.812,1.812,0,0,0,2.878,1.464,36.567,36.567,0,0,0,3.8-3.129,10.014,10.014,0,0,0,2.936-8.7l-5.757-38.771a1.941,1.941,0,0,0-2.373-1.6h0A1.941,1.941,0,0,0,378.008,302.946Z" transform="translate(-337.577 -253.127)" fill="#fff" style="mix-blend-mode: soft-light;isolation: isolate"/>
      </g>
      <g id="Grupo_1019680" data-name="Grupo 1019680" transform="translate(91.368 258.272)">
        <path id="Trazado_720917" data-name="Trazado 720917" d="M148.425,371.315H102.754a12.986,12.986,0,0,1-12.383-16.938l19.06-59.892a95.627,95.627,0,0,0,4.509-29.017v-6.9h-.433a2.656,2.656,0,1,1,0-5.313h24.163a2.656,2.656,0,0,1,0,5.313h-.433v6.9a95.626,95.626,0,0,0,4.508,29.017l19.061,59.892A12.991,12.991,0,0,1,148.425,371.315Z" transform="translate(-89.746 -253.255)" fill="#b8e8f4"/>
        <path id="Trazado_720918" data-name="Trazado 720918" d="M148.425,371.315H102.754a12.849,12.849,0,0,1-7.5-2.373,13.11,13.11,0,0,1-3.954-4.481H91.3a12.86,12.86,0,0,1-.926-10.084l19.06-59.892a95.627,95.627,0,0,0,4.509-29.017v-6.9h-.433a2.665,2.665,0,0,1-2.657-2.656,2.657,2.657,0,0,1,2.657-2.657h24.163a2.625,2.625,0,0,1,.459.04,2.541,2.541,0,0,1,.886.332,2.652,2.652,0,0,1-1.345,4.94h-.433v6.9a95.626,95.626,0,0,0,4.508,29.017l19.061,59.892A12.991,12.991,0,0,1,148.425,371.315Z" transform="translate(-89.746 -253.255)" fill="#ebf6f7"/>
        <path id="Trazado_720919" data-name="Trazado 720919" d="M148.332,371.293H102.661a12.849,12.849,0,0,1-7.5-2.373,13.11,13.11,0,0,1-3.954-4.481l3.305.859,23.656,2.825,37.608-3.684V350.9l-7.05-27.678s-11.97-38.29-12.308-48.57-.771-16.451-.771-16.451l-21.8.392-1.947.034c.453-.014,1.115-.034,1.947-.054,6.813-.189,24.649-.737,25.271-1.359.541-.541.555-2.291-.2-3.609a2.652,2.652,0,0,1-1.345,4.94h-.433v6.9a95.626,95.626,0,0,0,4.508,29.017l19.061,59.892A12.991,12.991,0,0,1,148.332,371.293Z" transform="translate(-89.654 -253.233)" fill="#414042" opacity="0.19" style="mix-blend-mode: multiply;isolation: isolate"/>
        <path id="Trazado_720920" data-name="Trazado 720920" d="M146.88,365.786H104.035A12.19,12.19,0,0,1,92.416,349.9l7.962-25.008c3.819-.865,9.064-1.366,14.072.453,7.408,2.7,20.433-4.779,34.242-6.26L158.5,349.9A12.189,12.189,0,0,1,146.88,365.786Z" transform="translate(-89.615 -249.097)" fill="#ffa031"/>
        <g id="Grupo_1019679" data-name="Grupo 1019679" transform="translate(6.326 77.246)">
          <path id="Trazado_720921" data-name="Trazado 720921" d="M107.578,349.989a5.94,5.94,0,1,1-5.941-5.94A5.941,5.941,0,0,1,107.578,349.989Z" transform="translate(-95.697 -324.767)" fill="#414042" opacity="0.19" style="mix-blend-mode: multiply;isolation: isolate"/>
          <circle id="Elipse_8510" data-name="Elipse 8510" cx="1.29" cy="1.29" r="1.29" transform="translate(4.65 12.418)" fill="#414042" opacity="0.19" style="mix-blend-mode: multiply;isolation: isolate"/>
          <path id="Trazado_720922" data-name="Trazado 720922" d="M106.587,330.153a3.027,3.027,0,1,1-3.028-3.027A3.027,3.027,0,0,1,106.587,330.153Z" transform="translate(-95.392 -325.835)" fill="#414042" opacity="0.19" style="mix-blend-mode: multiply;isolation: isolate"/>
          <path id="Trazado_720923" data-name="Trazado 720923" d="M111.613,339.541a1.885,1.885,0,1,1-1.885-1.885A1.884,1.884,0,0,1,111.613,339.541Z" transform="translate(-94.93 -325.17)" fill="#414042" opacity="0.19" style="mix-blend-mode: multiply;isolation: isolate"/>
          <path id="Trazado_720924" data-name="Trazado 720924" d="M143.657,328.939a3.027,3.027,0,1,1-3.027-3.027A3.027,3.027,0,0,1,143.657,328.939Z" transform="translate(-93.05 -325.912)" fill="#414042" opacity="0.19" style="mix-blend-mode: multiply;isolation: isolate"/>
          <circle id="Elipse_8511" data-name="Elipse 8511" cx="1.29" cy="1.29" r="1.29" transform="translate(47.579 10.053)" fill="#414042" opacity="0.19" style="mix-blend-mode: multiply;isolation: isolate"/>
          <path id="Trazado_720925" data-name="Trazado 720925" d="M117.444,333a3.027,3.027,0,1,1-3.028-3.027A3.028,3.028,0,0,1,117.444,333Z" transform="translate(-94.706 -325.656)" fill="#414042" opacity="0.19" style="mix-blend-mode: multiply;isolation: isolate"/>
          <path id="Trazado_720926" data-name="Trazado 720926" d="M135.3,345.369a5.94,5.94,0,1,1-5.941-5.94A5.94,5.94,0,0,1,135.3,345.369Z" transform="translate(-93.946 -325.058)" fill="#414042" opacity="0.19" style="mix-blend-mode: multiply;isolation: isolate"/>
          <path id="Trazado_720927" data-name="Trazado 720927" d="M122.812,339.609a3.027,3.027,0,1,1-3.028-3.028A3.028,3.028,0,0,1,122.812,339.609Z" transform="translate(-94.367 -325.238)" fill="#414042" opacity="0.19" style="mix-blend-mode: multiply;isolation: isolate"/>
          <path id="Trazado_720928" data-name="Trazado 720928" d="M129.541,334.007a1.885,1.885,0,1,1-1.885-1.885A1.885,1.885,0,0,1,129.541,334.007Z" transform="translate(-93.798 -325.52)" fill="#414042" opacity="0.19" style="mix-blend-mode: multiply;isolation: isolate"/>
          <path id="Trazado_720929" data-name="Trazado 720929" d="M139.116,353.563a1.885,1.885,0,1,1-1.885-1.885A1.885,1.885,0,0,1,139.116,353.563Z" transform="translate(-93.193 -324.285)" fill="#414042" opacity="0.19" style="mix-blend-mode: multiply;isolation: isolate"/>
          <path id="Trazado_720930" data-name="Trazado 720930" d="M139.6,339.541a1.884,1.884,0,1,1-1.884-1.885A1.884,1.884,0,0,1,139.6,339.541Z" transform="translate(-93.162 -325.17)" fill="#414042" opacity="0.19" style="mix-blend-mode: multiply;isolation: isolate"/>
          <path id="Trazado_720931" data-name="Trazado 720931" d="M118.481,355.336a1.885,1.885,0,1,1-1.885-1.885A1.885,1.885,0,0,1,118.481,355.336Z" transform="translate(-94.496 -324.173)" fill="#414042" opacity="0.19" style="mix-blend-mode: multiply;isolation: isolate"/>
          <circle id="Elipse_8512" data-name="Elipse 8512" cx="1.29" cy="1.29" r="1.29" transform="translate(25.112 1.737)" fill="#414042" opacity="0.19" style="mix-blend-mode: multiply;isolation: isolate"/>
          <circle id="Elipse_8513" data-name="Elipse 8513" cx="1.29" cy="1.29" r="1.29" transform="translate(23.231 21.277)" fill="#414042" opacity="0.19" style="mix-blend-mode: multiply;isolation: isolate"/>
          <circle id="Elipse_8514" data-name="Elipse 8514" cx="1.29" cy="1.29" r="1.29" transform="translate(36.556 0.548)" fill="#414042" opacity="0.19" style="mix-blend-mode: multiply;isolation: isolate"/>
        </g>
        <path id="Trazado_720932" data-name="Trazado 720932" d="M160.807,354.375l-19.061-59.892a95.626,95.626,0,0,1-4.508-29.017v-6.9h.433a2.656,2.656,0,0,0,.459-5.272c.886.527,1.156,1.292.954,2.874-.271,2.048-22.6,1.892-27.213,1.831a2.625,2.625,0,0,0,1.636.568h.433v6.9a95.627,95.627,0,0,1-4.509,29.017l-19.06,59.892a12.986,12.986,0,0,0,12.383,16.938h45.671A12.991,12.991,0,0,0,160.807,354.375Zm-47.259,10.774c-11.4.879-17.979-1.838-21.217-3.887a4,4,0,0,1-1.6-4.724l9.78-27.489s8.928-30.045,11.842-38.784c2.162-6.488,2.156-20.655,2.007-27.529a3.851,3.851,0,0,1,3.811-3.934l11.964-.142a3.864,3.864,0,0,1,3.9,3.691c2.055,44.136,13.789,69.7,17.9,87.373C156.163,367.886,131.256,363.776,113.548,365.149Z" transform="translate(-89.746 -253.253)" fill="#414042" opacity="0.19" style="mix-blend-mode: multiply;isolation: isolate"/>
        <path id="Trazado_720933" data-name="Trazado 720933" d="M98.853,351.666l14.65-49.775a72.977,72.977,0,0,0,2.969-20.6V267.081a1.779,1.779,0,0,1,1.78-1.78h0a1.779,1.779,0,0,1,1.779,1.78v18.089a73.05,73.05,0,0,1-1.2,13.161l-10.207,55.665A5.031,5.031,0,0,1,102,357.827h0A5.032,5.032,0,0,1,98.853,351.666Z" transform="translate(-89.184 -252.494)" fill="#fff" opacity="0.52" style="mix-blend-mode: soft-light;isolation: isolate"/>
        <path id="Trazado_720934" data-name="Trazado 720934" d="M129.213,264.5v15.773a34.552,34.552,0,0,0,.919,7.913l15.36,65.259a2.959,2.959,0,0,1-2.88,3.637h0a2.958,2.958,0,0,1-2.915-2.453l-11.644-67a34.545,34.545,0,0,1-.489-7.086l.545-16.061a.553.553,0,0,1,.552-.534h0A.552.552,0,0,1,129.213,264.5Z" transform="translate(-87.359 -252.58)" fill="#fff" opacity="0.52" style="mix-blend-mode: soft-light;isolation: isolate"/>
        <path id="Trazado_720935" data-name="Trazado 720935" d="M111.4,354.187l7.963-52.65a1.434,1.434,0,0,1,1.419-1.221h0a1.435,1.435,0,0,1,1.423,1.627l-7.117,52.651a1.435,1.435,0,0,1-1.423,1.243h-.846A1.436,1.436,0,0,1,111.4,354.187Z" transform="translate(-88.38 -250.283)" fill="#fff" opacity="0.52" style="mix-blend-mode: soft-light;isolation: isolate"/>
        <path id="Trazado_720936" data-name="Trazado 720936" d="M134.027,255.988H112.779a.642.642,0,0,1-.642-.642h0a.642.642,0,0,1,.642-.643h21.248a.642.642,0,0,1,.642.642h0A.642.642,0,0,1,134.027,255.988Z" transform="translate(-88.332 -253.164)" fill="#fff" opacity="0.52" style="mix-blend-mode: soft-light;isolation: isolate"/>
      </g>
    </g>
  </g>
</svg>
