<svg xmlns="http://www.w3.org/2000/svg" width="469.596" height="375.389" viewBox="0 0 469.596 375.389">
  <g id="Grupo_1015474" data-name="Grupo 1015474" transform="translate(-1246.993 -2464.784)">
    <g id="Grupo_1015453" data-name="Grupo 1015453" transform="translate(1246.993 2464.784)">
      <path id="Trazado_718146" data-name="Trazado 718146" d="M1604.709,2464.784v167.944a29.85,29.85,0,0,0,3.217,13.481l4.893,9.667a5.357,5.357,0,0,0,.376.629v20.635h8.311v-20.585a5.3,5.3,0,0,0,.411-.68l4.893-9.667a29.85,29.85,0,0,0,3.218-13.481V2464.784Z" transform="translate(-1494.26 -2464.784)" fill="#e6f1ff" opacity="0.6"/>
      <path id="Trazado_718147" data-name="Trazado 718147" d="M1622.207,2656.51a2.886,2.886,0,0,1-2.62-1.611l-4.893-9.667a27.821,27.821,0,0,1-2.984-12.5V2464.784h21v167.944a27.824,27.824,0,0,1-2.984,12.5l-4.893,9.667A2.887,2.887,0,0,1,1622.207,2656.51Z" transform="translate(-1499.099 -2464.784)" fill="#cbd7f7" opacity="0.6"/>
      <path id="Trazado_718148" data-name="Trazado 718148" d="M1611.709,2489.295v160.376a27.821,27.821,0,0,0,2.984,12.5l4.893,9.667a2.937,2.937,0,0,0,5.241,0l4.893-9.667a27.824,27.824,0,0,0,2.984-12.5V2489.295Z" transform="translate(-1499.099 -2481.727)" fill="#4db1f0"/>
      <path id="Trazado_718149" data-name="Trazado 718149" d="M1618.574,2477.806v160.11a27.387,27.387,0,0,0,6.165,17.366V2477.806Z" transform="translate(-1503.844 -2473.785)" fill="#fff" opacity="0.2"/>
      <path id="Trazado_718150" data-name="Trazado 718150" d="M1542.668,2886.458h14.917c2,0,3.09,3.5,5.331,3.1a83.941,83.941,0,0,1,22.68,0,1.765,1.765,0,0,0,2.125-1.668v-9.021a1.712,1.712,0,0,0-1.38-1.655,65.2,65.2,0,0,0-12.085-.915,62.251,62.251,0,0,0-12.085.915c-2.4.546-2.83,3.094-4.586,3.094h-14.917C1541.052,2880.307,1541.052,2886.458,1542.668,2886.458Z" transform="translate(-1450.537 -2749.239)" fill="#e07b3f"/>
      <g id="Grupo_1015435" data-name="Grupo 1015435" transform="translate(0 83.56)">
        <g id="Grupo_1015434" data-name="Grupo 1015434" transform="translate(0 277.24)">
          <rect id="Rectángulo_348101" data-name="Rectángulo 348101" width="142.124" height="7.294" transform="translate(3.625)" fill="#424d5e"/>
          <path id="Trazado_718151" data-name="Trazado 718151" d="M1273.172,3660.6h97.016l1.237,3.647h24.942l-3.625-7.294H1250.618l-3.625,7.294h24.942Z" transform="translate(-1246.993 -3649.654)" fill="#363f4d"/>
          <path id="Trazado_718152" data-name="Trazado 718152" d="M1466.605,3656.949H1433.67l-.84,7.294h34.616Z" transform="translate(-1375.45 -3649.654)" fill="#363f4d"/>
        </g>
        <rect id="Rectángulo_348102" data-name="Rectángulo 348102" width="3.647" height="277.239" transform="translate(36.541)" fill="#d7e3f7"/>
      </g>
      <g id="Grupo_1015441" data-name="Grupo 1015441" transform="translate(85.073 214.698)">
        <g id="Grupo_1015436" data-name="Grupo 1015436">
          <rect id="Rectángulo_348103" data-name="Rectángulo 348103" width="26.868" height="1.544" rx="0.772" transform="translate(24.601)" fill="#f2f8ff"/>
          <path id="Trazado_718153" data-name="Trazado 718153" d="M1573.216,3236.16v-71.022H1547.9v71.022a31.159,31.159,0,0,1-6.459,18.994c-9.475,12.323-18.917,27.158-18.917,37.351,0,5.273,1.131,9.282,3.171,12.328a15.076,15.076,0,0,0,12.565,6.553h44.6a15.076,15.076,0,0,0,12.565-6.553c2.039-3.046,3.17-7.055,3.17-12.328,0-10.192-9.442-25.028-18.917-37.351A31.156,31.156,0,0,1,1573.216,3236.16Z" transform="translate(-1522.521 -3163.594)" fill="#e6f1ff" opacity="0.6"/>
          <path id="Trazado_718154" data-name="Trazado 718154" d="M1543.1,3309.224a12.863,12.863,0,0,1-10.769-5.593c-1.888-2.82-2.805-6.459-2.805-11.126,0-7.86,6.386-20.32,18.469-36.033a33.5,33.5,0,0,0,6.907-20.312v-71.022h21v71.022a33.5,33.5,0,0,0,6.907,20.312c12.082,15.714,18.469,28.174,18.469,36.033,0,4.667-.917,8.306-2.8,11.125a12.864,12.864,0,0,1-10.769,5.594Z" transform="translate(-1527.36 -3163.594)" fill="#cbd7f7" opacity="0.6"/>
          <path id="Trazado_718155" data-name="Trazado 718155" d="M1529.521,3530.235c0,4.667.918,8.306,2.805,11.126a12.863,12.863,0,0,0,10.769,5.593h44.6a12.864,12.864,0,0,0,10.769-5.594c1.888-2.819,2.8-6.459,2.8-11.125,0-5.185-2.781-12.374-8.143-21.177h-55.463q-2.14,3.513-3.728,6.677C1531.019,3521.545,1529.521,3526.43,1529.521,3530.235Z" transform="translate(-1527.36 -3401.325)" fill="#4db1f0"/>
          <path id="Trazado_718156" data-name="Trazado 718156" d="M1597.782,3448.15" transform="translate(-1574.544 -3359.223)" fill="#4db1f0"/>
          <path id="Trazado_718157" data-name="Trazado 718157" d="M1551.113,3460.172l14.41-21.3s13.961-8.339,28.873-1.359l16.315,24.789" transform="translate(-1542.285 -3349.944)" fill="#4db1f0"/>
        </g>
        <g id="Grupo_1015440" data-name="Grupo 1015440" transform="translate(11.294 112.356)">
          <path id="Trazado_718158" data-name="Trazado 718158" d="M1585.937,3609.577a.89.89,0,1,1-.89-.89A.89.89,0,0,1,1585.937,3609.577Z" transform="translate(-1576.421 -3582.549)" fill="#fff"/>
          <g id="Grupo_1015437" data-name="Grupo 1015437" transform="translate(0 12.565)">
            <path id="Trazado_718159" data-name="Trazado 718159" d="M1561.19,3568.905a2.089,2.089,0,1,1,2.089-2.089A2.091,2.091,0,0,1,1561.19,3568.905Zm0-3.56a1.471,1.471,0,1,0,1.472,1.471A1.473,1.473,0,0,0,1561.19,3565.345Z" transform="translate(-1559.101 -3564.727)" fill="#fff"/>
          </g>
          <g id="Grupo_1015438" data-name="Grupo 1015438" transform="translate(17.11 22.269)">
            <path id="Trazado_718160" data-name="Trazado 718160" d="M1616.605,3600.334a2.089,2.089,0,1,1,2.089-2.089A2.091,2.091,0,0,1,1616.605,3600.334Zm0-3.561a1.471,1.471,0,1,0,1.472,1.472A1.473,1.473,0,0,0,1616.605,3596.773Z" transform="translate(-1614.516 -3596.156)" fill="#fff"/>
          </g>
          <circle id="Elipse_8402" data-name="Elipse 8402" cx="0.89" cy="0.89" r="0.89" transform="translate(19.199 13.764)" fill="#fff"/>
          <g id="Grupo_1015439" data-name="Grupo 1015439" transform="translate(11.943 2.644)">
            <path id="Trazado_718161" data-name="Trazado 718161" d="M1600.609,3538.248a2.827,2.827,0,1,1,2.827-2.827A2.83,2.83,0,0,1,1600.609,3538.248Zm0-5.037a2.21,2.21,0,1,0,2.209,2.21A2.212,2.212,0,0,0,1600.609,3533.211Z" transform="translate(-1597.782 -3532.594)" fill="#fff"/>
          </g>
          <path id="Trazado_718162" data-name="Trazado 718162" d="M1580.463,3524.856a.825.825,0,1,1-.825-.825A.825.825,0,0,1,1580.463,3524.856Z" transform="translate(-1572.727 -3524.031)" fill="#fff"/>
        </g>
        <path id="Trazado_718163" data-name="Trazado 718163" d="M1566.035,3176.351v67.213c0,16.152-6.94,21.362-13.654,30.394s-11.452,18.757-10.993,27.673c0,0,16.994-2.455,24.647-16.28s6.784-32.582,6.784-42.481v-66.519Z" transform="translate(-1535.541 -3171.345)" fill="#fff" opacity="0.2"/>
      </g>
      <g id="Grupo_1015449" data-name="Grupo 1015449" transform="translate(25.99 122.61)">
        <g id="Grupo_1015445" data-name="Grupo 1015445" transform="translate(13.022 3.041)">
          <g id="Grupo_1015443" data-name="Grupo 1015443" transform="translate(0 3.966)">
            <g id="Grupo_1015442" data-name="Grupo 1015442" transform="translate(0 3.515)">
              <path id="Trazado_718164" data-name="Trazado 718164" d="M1375.2,2899.669h62.524a1.853,1.853,0,0,0,0-3.705H1375.2a1.853,1.853,0,0,0,0,3.705Z" transform="translate(-1373.344 -2895.964)" fill="#d7e3f7"/>
            </g>
            <path id="Trazado_718165" data-name="Trazado 718165" d="M1539.744,2887.713h15.82c2,0,3.09-3.5,5.331-3.1a83.915,83.915,0,0,0,22.68,0,1.765,1.765,0,0,1,2.125,1.668v9.021a1.711,1.711,0,0,1-1.38,1.655,65.179,65.179,0,0,1-12.085.915,62.232,62.232,0,0,1-12.085-.915c-2.4-.546-2.83-3.094-4.586-3.094h-15.82C1538.128,2893.864,1538.128,2887.713,1539.744,2887.713Z" transform="translate(-1487.528 -2884.581)" fill="#fa9d46"/>
          </g>
          <g id="Grupo_1015444" data-name="Grupo 1015444" transform="translate(53.812)">
            <path id="Trazado_718166" data-name="Trazado 718166" d="M1554.672,2885.566l-1.077,0a5.969,5.969,0,0,0,0,11.938h1.077Z" transform="translate(-1547.626 -2881.292)" fill="#29303b"/>
            <circle id="Elipse_8403" data-name="Elipse 8403" cx="5.969" cy="5.969" r="5.969" transform="translate(1.077 4.269)" fill="#363f4d"/>
            <circle id="Elipse_8404" data-name="Elipse 8404" cx="2.569" cy="2.569" r="2.569" transform="translate(3.955 12.148) rotate(-76.717)" fill="#29303b"/>
            <path id="Trazado_718167" data-name="Trazado 718167" d="M1568.626,2881.973h-1.36l-.435-9.068a1.116,1.116,0,0,1,1.115-1.17h0a19.246,19.246,0,0,1,2.733.576Z" transform="translate(-1560.9 -2871.735)" fill="#29303b"/>
            <path id="Trazado_718168" data-name="Trazado 718168" d="M1573.273,2883.221h-1.36l.987-8.705a1.1,1.1,0,0,1,1.092-.975h0a1.1,1.1,0,0,1,1.075,1.33Z" transform="translate(-1564.414 -2872.983)" fill="#424d5e"/>
            <path id="Trazado_718169" data-name="Trazado 718169" d="M1568.626,2904.893h-1.36l-.435,9.068a1.116,1.116,0,0,0,1.115,1.17h0a19.239,19.239,0,0,0,2.733-.576Z" transform="translate(-1560.9 -2894.655)" fill="#29303b"/>
            <path id="Trazado_718170" data-name="Trazado 718170" d="M1573.273,2904.893h-1.36l.987,8.706a1.1,1.1,0,0,0,1.092.975h0a1.1,1.1,0,0,0,1.075-1.33Z" transform="translate(-1564.414 -2894.655)" fill="#424d5e"/>
            <circle id="Elipse_8405" data-name="Elipse 8405" cx="2.569" cy="2.569" r="2.569" transform="translate(5.408 12.148) rotate(-76.717)" fill="#424d5e"/>
          </g>
        </g>
        <g id="Grupo_1015448" data-name="Grupo 1015448">
          <circle id="Elipse_8406" data-name="Elipse 8406" cx="12.375" cy="12.375" r="12.375" fill="#424d5e"/>
          <g id="Grupo_1015447" data-name="Grupo 1015447" transform="translate(1.398 3.152)">
            <path id="Trazado_718171" data-name="Trazado 718171" d="M1356,2872.094h-3.821l0,.006a1.874,1.874,0,0,0-1.3.5,6.216,6.216,0,0,1-3.94,1.771,4.145,4.145,0,0,1-1.936-2.281h-3.8l0,.007a1.764,1.764,0,0,0-1.076.338,11.048,11.048,0,0,0-4.423,7.673,1.819,1.819,0,0,0,1.312,1.915,5.856,5.856,0,0,1,4.205,7.326,1.8,1.8,0,0,0,1.011,2.061l.015.007a10.983,10.983,0,0,0,4.521.927h3.778Z" transform="translate(-1335.696 -2872.093)" fill="#29303b"/>
            <g id="Grupo_1015446" data-name="Grupo 1015446" transform="translate(3.821 0)">
              <path id="Trazado_718172" data-name="Trazado 718172" d="M1365.047,2884.78a6.156,6.156,0,0,1,3.65-2.751,1.829,1.829,0,0,0,1.31-1.937,11.04,11.04,0,0,0-4.414-7.65,1.833,1.833,0,0,0-2.338.163,5.851,5.851,0,0,1-8.417,0,1.831,1.831,0,0,0-2.335-.165,11.047,11.047,0,0,0-4.423,7.673,1.819,1.819,0,0,0,1.312,1.915,5.856,5.856,0,0,1,4.205,7.326,1.8,1.8,0,0,0,1.011,2.061l.015.006a11,11,0,0,0,8.846,0,1.809,1.809,0,0,0,1.027-2.07A6.165,6.165,0,0,1,1365.047,2884.78Z" transform="translate(-1348.071 -2872.093)" fill="#363f4d"/>
              <circle id="Elipse_8407" data-name="Elipse 8407" cx="3.173" cy="3.173" r="3.173" transform="translate(7.803 6.049)" fill="#29303b"/>
            </g>
          </g>
        </g>
      </g>
      <rect id="Rectángulo_348104" data-name="Rectángulo 348104" width="26.093" height="10.702" transform="translate(109.674 163.862)" fill="#fa9d46"/>
      <g id="Grupo_1015452" data-name="Grupo 1015452" transform="translate(120.362 155.016)">
        <circle id="Elipse_8408" data-name="Elipse 8408" cx="12.375" cy="12.375" r="12.375" transform="translate(0 24.43) rotate(-80.783)" fill="#424d5e"/>
        <g id="Grupo_1015451" data-name="Grupo 1015451" transform="translate(3.22 4.974)">
          <path id="Trazado_718173" data-name="Trazado 718173" d="M1667.55,2982.953h-3.821l0,.006a1.873,1.873,0,0,0-1.3.5,6.216,6.216,0,0,1-3.94,1.771,4.143,4.143,0,0,1-1.936-2.28h-3.8l0,.006a1.768,1.768,0,0,0-1.077.338,11.048,11.048,0,0,0-4.423,7.673,1.819,1.819,0,0,0,1.312,1.915,5.856,5.856,0,0,1,4.205,7.326,1.8,1.8,0,0,0,1.011,2.061l.015.007a10.987,10.987,0,0,0,4.521.928h3.778Z" transform="translate(-1647.243 -2982.952)" fill="#29303b"/>
          <g id="Grupo_1015450" data-name="Grupo 1015450" transform="translate(3.821)">
            <path id="Trazado_718174" data-name="Trazado 718174" d="M1676.594,2995.638a6.155,6.155,0,0,1,3.65-2.752,1.829,1.829,0,0,0,1.31-1.937,11.042,11.042,0,0,0-4.414-7.65,1.833,1.833,0,0,0-2.338.163,5.852,5.852,0,0,1-8.417,0,1.832,1.832,0,0,0-2.335-.165,11.048,11.048,0,0,0-4.423,7.673,1.82,1.82,0,0,0,1.312,1.915,5.856,5.856,0,0,1,4.205,7.326,1.8,1.8,0,0,0,1.011,2.061l.015.007a11,11,0,0,0,8.845,0,1.808,1.808,0,0,0,1.027-2.07A6.166,6.166,0,0,1,1676.594,2995.638Z" transform="translate(-1659.618 -2982.951)" fill="#363f4d"/>
            <circle id="Elipse_8409" data-name="Elipse 8409" cx="3.173" cy="3.173" r="3.173" transform="translate(7.803 6.049)" fill="#29303b"/>
          </g>
        </g>
      </g>
      <rect id="Rectángulo_348105" data-name="Rectángulo 348105" width="5.235" height="30.314" transform="translate(120.369 187.229)" fill="#4db1f0"/>
      <rect id="Rectángulo_348106" data-name="Rectángulo 348106" width="5.235" height="7.472" transform="translate(120.369 219.704)" fill="#4db1f0"/>
      <rect id="Rectángulo_348107" data-name="Rectángulo 348107" width="5.235" height="7.472" transform="translate(120.369 229.338)" fill="#4db1f0"/>
      <rect id="Rectángulo_348108" data-name="Rectángulo 348108" width="5.235" height="7.472" transform="translate(120.369 241.935)" fill="#4db1f0"/>
    </g>
    <g id="Grupo_1015473" data-name="Grupo 1015473" transform="translate(1555.444 2464.784)">
      <path id="Trazado_718175" data-name="Trazado 718175" d="M2449.009,2464.784v167.944a29.852,29.852,0,0,0,3.218,13.481l4.893,9.667a5.339,5.339,0,0,0,.375.629v20.635h8.311v-20.585a5.338,5.338,0,0,0,.411-.68l4.893-9.667a29.848,29.848,0,0,0,3.217-13.481V2464.784Z" transform="translate(-2338.56 -2464.784)" fill="#e6f1ff" opacity="0.6"/>
      <path id="Trazado_718176" data-name="Trazado 718176" d="M2466.507,2656.51a2.886,2.886,0,0,1-2.62-1.611l-4.893-9.667a27.824,27.824,0,0,1-2.985-12.5V2464.784h21v167.944a27.824,27.824,0,0,1-2.984,12.5l-4.893,9.667A2.886,2.886,0,0,1,2466.507,2656.51Z" transform="translate(-2343.399 -2464.784)" fill="#cbd7f7" opacity="0.6"/>
      <path id="Trazado_718177" data-name="Trazado 718177" d="M2456.009,2948.232v18.674a27.824,27.824,0,0,0,2.985,12.5l4.893,9.667a2.937,2.937,0,0,0,5.241,0l4.893-9.667a27.824,27.824,0,0,0,2.984-12.5v-18.674Z" transform="translate(-2343.399 -2798.962)" fill="#4db1f0"/>
      <path id="Trazado_718178" data-name="Trazado 718178" d="M2462.874,2477.806v160.11a27.386,27.386,0,0,0,6.166,17.366V2477.806Z" transform="translate(-2348.144 -2473.785)" fill="#fff" opacity="0.2"/>
      <path id="Trazado_718179" data-name="Trazado 718179" d="M2386.969,2886.458h14.917c2,0,3.091,3.5,5.331,3.1a83.941,83.941,0,0,1,22.68,0,1.765,1.765,0,0,0,2.125-1.668v-9.021a1.711,1.711,0,0,0-1.38-1.655,65.2,65.2,0,0,0-12.085-.915,62.251,62.251,0,0,0-12.085.915c-2.4.546-2.83,3.094-4.586,3.094h-14.917C2385.353,2880.307,2385.353,2886.458,2386.969,2886.458Z" transform="translate(-2294.838 -2749.239)" fill="#e07b3f"/>
      <g id="Grupo_1015455" data-name="Grupo 1015455" transform="translate(0 83.56)">
        <g id="Grupo_1015454" data-name="Grupo 1015454" transform="translate(0 277.24)">
          <rect id="Rectángulo_348109" data-name="Rectángulo 348109" width="142.124" height="7.294" transform="translate(3.625)" fill="#424d5e"/>
          <path id="Trazado_718180" data-name="Trazado 718180" d="M2117.473,3660.6h97.016l1.237,3.647h24.942l-3.625-7.294H2094.919l-3.625,7.294h24.942Z" transform="translate(-2091.293 -3649.654)" fill="#363f4d"/>
          <path id="Trazado_718181" data-name="Trazado 718181" d="M2310.906,3656.949H2277.97l-.84,7.294h34.616Z" transform="translate(-2219.751 -3649.654)" fill="#363f4d"/>
        </g>
        <rect id="Rectángulo_348110" data-name="Rectángulo 348110" width="3.647" height="277.239" transform="translate(36.541)" fill="#d7e3f7"/>
      </g>
      <g id="Grupo_1015461" data-name="Grupo 1015461" transform="translate(85.073 214.698)">
        <g id="Grupo_1015456" data-name="Grupo 1015456">
          <rect id="Rectángulo_348111" data-name="Rectángulo 348111" width="26.868" height="1.544" rx="0.772" transform="translate(24.601)" fill="#f2f8ff"/>
          <path id="Trazado_718182" data-name="Trazado 718182" d="M2417.517,3236.16v-71.022H2392.2v71.022a31.158,31.158,0,0,1-6.459,18.994c-9.475,12.323-18.917,27.158-18.917,37.351,0,5.273,1.131,9.282,3.171,12.328a15.075,15.075,0,0,0,12.565,6.553h44.6a15.075,15.075,0,0,0,12.565-6.553c2.039-3.046,3.171-7.055,3.171-12.328,0-10.192-9.442-25.028-18.917-37.351A31.156,31.156,0,0,1,2417.517,3236.16Z" transform="translate(-2366.822 -3163.594)" fill="#e6f1ff" opacity="0.6"/>
          <path id="Trazado_718183" data-name="Trazado 718183" d="M2387.4,3309.224a12.864,12.864,0,0,1-10.769-5.593c-1.887-2.82-2.805-6.459-2.805-11.126,0-7.86,6.386-20.32,18.469-36.033a33.5,33.5,0,0,0,6.907-20.312v-71.022h21v71.022a33.5,33.5,0,0,0,6.907,20.312c12.083,15.714,18.469,28.174,18.469,36.033,0,4.667-.917,8.306-2.805,11.125a12.863,12.863,0,0,1-10.769,5.594Z" transform="translate(-2371.661 -3163.594)" fill="#cbd7f7" opacity="0.6"/>
          <path id="Trazado_718184" data-name="Trazado 718184" d="M2373.822,3530.235c0,4.667.918,8.306,2.805,11.126a12.864,12.864,0,0,0,10.769,5.593H2432a12.863,12.863,0,0,0,10.769-5.594c1.888-2.819,2.805-6.459,2.805-11.125,0-5.185-2.781-12.374-8.143-21.177h-55.463q-2.141,3.513-3.728,6.677C2375.32,3521.545,2373.822,3526.43,2373.822,3530.235Z" transform="translate(-2371.661 -3401.325)" fill="#dd9292"/>
          <path id="Trazado_718185" data-name="Trazado 718185" d="M2442.083,3448.15" transform="translate(-2418.845 -3359.223)" fill="#4db1f0"/>
          <path id="Trazado_718186" data-name="Trazado 718186" d="M2395.414,3460.172l14.41-21.3s13.961-8.339,28.873-1.359l14.573,21.059" transform="translate(-2386.586 -3349.944)" fill="#dd9292"/>
          <path id="Trazado_718187" data-name="Trazado 718187" d="M2440.546,3248.351h21v45.329a32.1,32.1,0,0,0,6.907,20.311h-34.81s5.434-4.628,6.907-20.311Z" transform="translate(-2413.009 -3221.114)" fill="#dd9292"/>
        </g>
        <g id="Grupo_1015460" data-name="Grupo 1015460" transform="translate(11.294 112.356)">
          <path id="Trazado_718188" data-name="Trazado 718188" d="M2430.238,3609.577a.89.89,0,1,1-.89-.89A.89.89,0,0,1,2430.238,3609.577Z" transform="translate(-2420.721 -3582.549)" fill="#fff"/>
          <g id="Grupo_1015457" data-name="Grupo 1015457" transform="translate(0 12.565)">
            <path id="Trazado_718189" data-name="Trazado 718189" d="M2405.49,3568.905a2.089,2.089,0,1,1,2.089-2.089A2.092,2.092,0,0,1,2405.49,3568.905Zm0-3.56a1.471,1.471,0,1,0,1.472,1.471A1.473,1.473,0,0,0,2405.49,3565.345Z" transform="translate(-2403.401 -3564.727)" fill="#fff"/>
          </g>
          <g id="Grupo_1015458" data-name="Grupo 1015458" transform="translate(17.11 22.269)">
            <path id="Trazado_718190" data-name="Trazado 718190" d="M2460.906,3600.334a2.089,2.089,0,1,1,2.089-2.089A2.091,2.091,0,0,1,2460.906,3600.334Zm0-3.561a1.471,1.471,0,1,0,1.471,1.472A1.473,1.473,0,0,0,2460.906,3596.773Z" transform="translate(-2458.817 -3596.156)" fill="#fff"/>
          </g>
          <circle id="Elipse_8410" data-name="Elipse 8410" cx="0.89" cy="0.89" r="0.89" transform="translate(19.199 13.764)" fill="#fff"/>
          <g id="Grupo_1015459" data-name="Grupo 1015459" transform="translate(11.944 2.644)">
            <path id="Trazado_718191" data-name="Trazado 718191" d="M2444.91,3538.248a2.827,2.827,0,1,1,2.827-2.827A2.83,2.83,0,0,1,2444.91,3538.248Zm0-5.037a2.21,2.21,0,1,0,2.209,2.21A2.212,2.212,0,0,0,2444.91,3533.211Z" transform="translate(-2442.083 -3532.594)" fill="#fff"/>
          </g>
          <path id="Trazado_718192" data-name="Trazado 718192" d="M2424.764,3524.856a.825.825,0,1,1-.825-.825A.825.825,0,0,1,2424.764,3524.856Z" transform="translate(-2417.027 -3524.031)" fill="#fff"/>
        </g>
        <path id="Trazado_718193" data-name="Trazado 718193" d="M2410.335,3176.351v67.213c0,16.152-6.94,21.362-13.654,30.394s-11.452,18.757-10.993,27.673c0,0,16.994-2.455,24.647-16.28s6.784-32.582,6.784-42.481v-66.519Z" transform="translate(-2379.842 -3171.345)" fill="#fff" opacity="0.2"/>
      </g>
      <g id="Grupo_1015469" data-name="Grupo 1015469" transform="translate(25.99 122.61)">
        <g id="Grupo_1015465" data-name="Grupo 1015465" transform="translate(13.022 3.041)">
          <g id="Grupo_1015463" data-name="Grupo 1015463" transform="translate(0 3.966)">
            <g id="Grupo_1015462" data-name="Grupo 1015462" transform="translate(0 3.515)">
              <path id="Trazado_718194" data-name="Trazado 718194" d="M2219.5,2899.669h62.524a1.853,1.853,0,0,0,0-3.705H2219.5a1.853,1.853,0,0,0,0,3.705Z" transform="translate(-2217.645 -2895.964)" fill="#d7e3f7"/>
            </g>
            <path id="Trazado_718195" data-name="Trazado 718195" d="M2384.044,2887.713h15.82c2,0,3.091-3.5,5.331-3.1a83.918,83.918,0,0,0,22.681,0,1.765,1.765,0,0,1,2.125,1.668v9.021a1.711,1.711,0,0,1-1.38,1.655,65.182,65.182,0,0,1-12.085.915,62.231,62.231,0,0,1-12.085-.915c-2.4-.546-2.83-3.094-4.586-3.094h-15.82C2382.429,2893.864,2382.429,2887.713,2384.044,2887.713Z" transform="translate(-2331.829 -2884.581)" fill="#fa9d46"/>
          </g>
          <g id="Grupo_1015464" data-name="Grupo 1015464" transform="translate(53.811)">
            <path id="Trazado_718196" data-name="Trazado 718196" d="M2398.972,2885.566l-1.077,0a5.969,5.969,0,1,0,0,11.938h1.077Z" transform="translate(-2391.926 -2881.292)" fill="#29303b"/>
            <circle id="Elipse_8411" data-name="Elipse 8411" cx="5.969" cy="5.969" r="5.969" transform="translate(1.077 4.269)" fill="#363f4d"/>
            <circle id="Elipse_8412" data-name="Elipse 8412" cx="2.569" cy="2.569" r="2.569" transform="translate(3.955 12.148) rotate(-76.717)" fill="#29303b"/>
            <path id="Trazado_718197" data-name="Trazado 718197" d="M2412.927,2881.973h-1.36l-.435-9.068a1.116,1.116,0,0,1,1.115-1.17h0a19.26,19.26,0,0,1,2.733.576Z" transform="translate(-2405.201 -2871.735)" fill="#29303b"/>
            <path id="Trazado_718198" data-name="Trazado 718198" d="M2417.574,2883.221h-1.36l.987-8.705a1.1,1.1,0,0,1,1.093-.975h0a1.1,1.1,0,0,1,1.075,1.33Z" transform="translate(-2408.715 -2872.983)" fill="#424d5e"/>
            <path id="Trazado_718199" data-name="Trazado 718199" d="M2412.927,2904.893h-1.36l-.435,9.068a1.116,1.116,0,0,0,1.115,1.17h0a19.253,19.253,0,0,0,2.733-.576Z" transform="translate(-2405.201 -2894.655)" fill="#29303b"/>
            <path id="Trazado_718200" data-name="Trazado 718200" d="M2417.574,2904.893h-1.36l.987,8.706a1.1,1.1,0,0,0,1.093.975h0a1.1,1.1,0,0,0,1.075-1.33Z" transform="translate(-2408.715 -2894.655)" fill="#424d5e"/>
            <circle id="Elipse_8413" data-name="Elipse 8413" cx="2.569" cy="2.569" r="2.569" transform="translate(5.408 12.148) rotate(-76.717)" fill="#424d5e"/>
          </g>
        </g>
        <g id="Grupo_1015468" data-name="Grupo 1015468">
          <circle id="Elipse_8414" data-name="Elipse 8414" cx="12.375" cy="12.375" r="12.375" fill="#424d5e"/>
          <g id="Grupo_1015467" data-name="Grupo 1015467" transform="translate(1.398 3.152)">
            <path id="Trazado_718201" data-name="Trazado 718201" d="M2200.3,2872.094h-3.821l0,.006a1.873,1.873,0,0,0-1.3.5,6.218,6.218,0,0,1-3.94,1.771,4.144,4.144,0,0,1-1.936-2.281h-3.8l0,.007a1.766,1.766,0,0,0-1.077.338,11.048,11.048,0,0,0-4.423,7.673,1.818,1.818,0,0,0,1.312,1.915,5.856,5.856,0,0,1,4.2,7.326,1.8,1.8,0,0,0,1.01,2.061l.015.007a10.984,10.984,0,0,0,4.521.927h3.778Z" transform="translate(-2179.997 -2872.093)" fill="#29303b"/>
            <g id="Grupo_1015466" data-name="Grupo 1015466" transform="translate(3.821 0)">
              <path id="Trazado_718202" data-name="Trazado 718202" d="M2209.348,2884.78a6.156,6.156,0,0,1,3.65-2.751,1.829,1.829,0,0,0,1.31-1.937,11.041,11.041,0,0,0-4.414-7.65,1.833,1.833,0,0,0-2.338.163,5.851,5.851,0,0,1-8.417,0,1.832,1.832,0,0,0-2.335-.165,11.047,11.047,0,0,0-4.423,7.673,1.819,1.819,0,0,0,1.312,1.915,5.856,5.856,0,0,1,4.205,7.326,1.8,1.8,0,0,0,1.01,2.061l.015.006a11,11,0,0,0,8.846,0,1.808,1.808,0,0,0,1.027-2.07A6.165,6.165,0,0,1,2209.348,2884.78Z" transform="translate(-2192.372 -2872.093)" fill="#363f4d"/>
              <circle id="Elipse_8415" data-name="Elipse 8415" cx="3.173" cy="3.173" r="3.173" transform="translate(7.803 6.049)" fill="#29303b"/>
            </g>
          </g>
        </g>
      </g>
      <rect id="Rectángulo_348112" data-name="Rectángulo 348112" width="26.093" height="10.702" transform="translate(109.674 163.862)" fill="#fa9d46"/>
      <g id="Grupo_1015472" data-name="Grupo 1015472" transform="translate(120.362 155.016)">
        <circle id="Elipse_8416" data-name="Elipse 8416" cx="12.375" cy="12.375" r="12.375" transform="translate(0 24.43) rotate(-80.783)" fill="#424d5e"/>
        <g id="Grupo_1015471" data-name="Grupo 1015471" transform="translate(3.22 4.974)">
          <path id="Trazado_718203" data-name="Trazado 718203" d="M2511.851,2982.953h-3.821l0,.006a1.873,1.873,0,0,0-1.3.5,6.218,6.218,0,0,1-3.94,1.771,4.144,4.144,0,0,1-1.937-2.28h-3.8l0,.006a1.766,1.766,0,0,0-1.076.338,11.048,11.048,0,0,0-4.423,7.673,1.819,1.819,0,0,0,1.311,1.915,5.856,5.856,0,0,1,4.206,7.326,1.8,1.8,0,0,0,1.01,2.061l.015.007a10.988,10.988,0,0,0,4.521.928h3.778Z" transform="translate(-2491.544 -2982.952)" fill="#29303b"/>
          <g id="Grupo_1015470" data-name="Grupo 1015470" transform="translate(3.821)">
            <path id="Trazado_718204" data-name="Trazado 718204" d="M2520.9,2995.638a6.156,6.156,0,0,1,3.65-2.752,1.829,1.829,0,0,0,1.311-1.937,11.042,11.042,0,0,0-4.414-7.65,1.833,1.833,0,0,0-2.338.163,5.852,5.852,0,0,1-8.417,0,1.832,1.832,0,0,0-2.335-.165,11.048,11.048,0,0,0-4.423,7.673,1.819,1.819,0,0,0,1.311,1.915,5.856,5.856,0,0,1,4.206,7.326,1.8,1.8,0,0,0,1.01,2.061l.015.007a11,11,0,0,0,8.846,0,1.808,1.808,0,0,0,1.027-2.07A6.166,6.166,0,0,1,2520.9,2995.638Z" transform="translate(-2503.919 -2982.951)" fill="#363f4d"/>
            <circle id="Elipse_8417" data-name="Elipse 8417" cx="3.173" cy="3.173" r="3.173" transform="translate(7.803 6.049)" fill="#29303b"/>
          </g>
        </g>
      </g>
      <rect id="Rectángulo_348113" data-name="Rectángulo 348113" width="4.709" height="42.108" transform="translate(120.895 187.229)" fill="#4db1f0"/>
    </g>
  </g>
</svg>
