<svg xmlns="http://www.w3.org/2000/svg" width="181" height="181" viewBox="0 0 181 181">
  <g id="Grupo_1004760" data-name="Grupo 1004760" transform="translate(-1020 -862)">
    <g id="Grupo_1004759" data-name="Grupo 1004759" transform="translate(621)">
      <circle id="Elipse_8399" data-name="Elipse 8399" cx="90.5" cy="90.5" r="90.5" transform="translate(399 862)" fill="#fff"/>
    </g>
    <g id="Grupo_1023074" data-name="Grupo 1023074" transform="translate(1053 895)">
      <g id="Grupo_1023067" data-name="Grupo 1023067" transform="translate(13.885 13.885)">
        <path id="Trazado_723447" data-name="Trazado 723447" d="M111.532,61.817A49.522,49.522,0,0,0,78.927,74l9.66,9.66a3.482,3.482,0,0,1-4.925,4.925L74,78.927a49.715,49.715,0,1,0,37.53-17.11Z" transform="translate(-61.817 -61.817)" fill="#efe2dd"/>
        <g id="Grupo_1023059" data-name="Grupo 1023059" transform="translate(43.819)">
          <path id="Trazado_723448" data-name="Trazado 723448" d="M262.8,61.817a50.235,50.235,0,0,0-5.9.349,49.649,49.649,0,0,1,32.8,18.16,41.168,41.168,0,0,1,0,62.412,49.65,49.65,0,0,1-32.8,18.16,49.716,49.716,0,1,0,5.9-99.081Z" transform="translate(-256.908 -61.817)" fill="#e1d3ce"/>
        </g>
        <path id="Trazado_723449" data-name="Trazado 723449" d="M140.848,99.625a41.037,41.037,0,0,0-26.568,9.731l3.622,3.622a3.482,3.482,0,0,1-4.925,4.925l-3.622-3.622a41.2,41.2,0,1,0,31.492-14.655Z" transform="translate(-91.133 -91.133)" fill="#fff"/>
        <path id="Trazado_723450" data-name="Trazado 723450" d="M160.233,124.625a35.461,35.461,0,0,0-22.626,8.112,3.478,3.478,0,0,1-4.87,4.87,35.608,35.608,0,1,0,27.5-12.982Z" transform="translate(-110.518 -110.518)" fill="#d8ecfe"/>
        <g id="Grupo_1023060" data-name="Grupo 1023060" transform="translate(46.164 14.107)">
          <path id="Trazado_723451" data-name="Trazado 723451" d="M270.9,124.625q-1.8,0-3.552.176a35.61,35.61,0,0,1,0,70.864q1.753.173,3.552.176a35.608,35.608,0,0,0,0-71.216Z" transform="translate(-267.345 -124.625)" fill="#c4e2ff"/>
        </g>
        <g id="Grupo_1023062" data-name="Grupo 1023062" transform="translate(40.47 37.893)">
          <path id="Trazado_723452" data-name="Trazado 723452" d="M255.016,230.524a12.954,12.954,0,0,0-6.8,1.917,4.918,4.918,0,0,1-5.715,7.519,13.018,13.018,0,1,0,12.515-9.436Z" transform="translate(-241.998 -230.524)" fill="#3076b6"/>
          <g id="Grupo_1023061" data-name="Grupo 1023061" transform="translate(9.434)">
            <path id="Trazado_723453" data-name="Trazado 723453" d="M287.583,230.524a13.016,13.016,0,0,0-3.584.5,13.017,13.017,0,0,1,0,25.028,13.018,13.018,0,1,0,3.584-25.532Z" transform="translate(-283.999 -230.524)" fill="#4db1f0"/>
          </g>
        </g>
        <g id="Grupo_1023063" data-name="Grupo 1023063" transform="translate(21.56 42.262)">
          <circle id="Elipse_8561" data-name="Elipse 8561" cx="3.864" cy="3.864" r="3.864" fill="#4db1f0"/>
        </g>
        <g id="Grupo_1023065" data-name="Grupo 1023065" transform="translate(66.386 65.282)">
          <path id="Trazado_723455" data-name="Trazado 723455" d="M371.306,355.116c-3.731-3.259-8.913-3.574-11.882-.606-3.039,3.039-2.638,8.4.841,12.146A35.788,35.788,0,0,0,371.306,355.116Z" transform="translate(-357.378 -352.465)" fill="#3076b6"/>
        </g>
        <g id="Grupo_1023066" data-name="Grupo 1023066" transform="translate(66.957 65.341)">
          <path id="Trazado_723456" data-name="Trazado 723456" d="M359.922,363.084a11.044,11.044,0,0,0,2.316,3.776,35.785,35.785,0,0,0,11.041-11.54,10.558,10.558,0,0,0-5.7-2.592A35.712,35.712,0,0,1,359.922,363.084Z" transform="translate(-359.922 -352.728)" fill="#4db1f0"/>
        </g>
      </g>
      <g id="Grupo_1023072" data-name="Grupo 1023072" transform="translate(1.685 1.684)">
        <g id="Grupo_1023068" data-name="Grupo 1023068" transform="translate(50.012 50.012)">
          <circle id="Elipse_8562" data-name="Elipse 8562" cx="4.923" cy="4.923" r="4.923" fill="#e1d3ce"/>
        </g>
        <g id="Grupo_1023069" data-name="Grupo 1023069" transform="translate(52.576 50.014)">
          <path id="Trazado_723457" data-name="Trazado 723457" d="M247.419,231.609a4.923,4.923,0,0,0-5.839-.838,4.917,4.917,0,0,1,0,8.639,4.922,4.922,0,0,0,5.839-7.8Z" transform="translate(-241.58 -230.169)" fill="#cdbfba"/>
        </g>
        <g id="Grupo_1023070" data-name="Grupo 1023070">
          <path id="Trazado_723458" data-name="Trazado 723458" d="M41.546,46.469,8.52,13.444a3.482,3.482,0,0,1,4.925-4.925L46.47,41.545a3.482,3.482,0,0,1-4.925,4.925Z" transform="translate(-7.501 -7.499)" fill="#b9acac"/>
        </g>
        <g id="Grupo_1023071" data-name="Grupo 1023071" transform="translate(1.175 0.002)">
          <path id="Trazado_723459" data-name="Trazado 723459" d="M50.527,41.552,17.5,8.527a3.479,3.479,0,0,0-4.769-.14c.052.046.106.091.155.14L45.914,41.552a3.482,3.482,0,0,1,0,4.925c-.05.05-.1.094-.155.14a3.48,3.48,0,0,0,4.769-5.065Z" transform="translate(-12.733 -7.509)" fill="#9e9797"/>
        </g>
      </g>
      <g id="Grupo_1023073" data-name="Grupo 1023073" transform="translate(0 0)">
        <path id="Trazado_723460" data-name="Trazado 723460" d="M99.945,27.255a51.394,51.394,0,0,0-68.851-3.467L8.82,1.513A5.167,5.167,0,1,0,1.513,8.82l9.91,9.91a1.685,1.685,0,1,0,2.382-2.382L3.9,6.438A1.8,1.8,0,0,1,6.438,3.9L39.463,36.921a1.8,1.8,0,0,1-2.542,2.542L19.365,21.907a1.685,1.685,0,1,0-2.382,2.382l6.8,6.8a51.4,51.4,0,0,0,.092,65.13,1.685,1.685,0,0,0,2.6-2.14,48.026,48.026,0,0,1-.3-60.595l3.66,3.66a42.962,42.962,0,1,0,7.307-7.307l-3.66-3.66a48.028,48.028,0,1,1-1.736,73.373,1.685,1.685,0,0,0-2.235,2.521A51.4,51.4,0,0,0,99.945,27.255Zm-61.753,16.1a5.174,5.174,0,0,0,2.259-.523L50.91,53.293a6.6,6.6,0,0,0,2.013,8.8,14.684,14.684,0,0,0,.915,8.451,1.685,1.685,0,0,0,3.1-1.319,11.34,11.34,0,0,1-.786-6.022c.155.011.311.018.467.018A6.594,6.594,0,0,0,60.592,61.9a1.685,1.685,0,0,0,2.7.239l1.14-1.287a1.685,1.685,0,0,0-1.365-2.8,6.651,6.651,0,0,0-.222-3.647,11.334,11.334,0,1,1-1.431,20.031A1.685,1.685,0,0,0,59.637,77.3a14.7,14.7,0,1,0,1.268-25.707,6.621,6.621,0,0,0-7.613-.682L42.834,40.452a5.134,5.134,0,0,0,.262-3.879A33.917,33.917,0,0,1,93.65,79.327c-4.2-2.62-9.4-2.429-12.525.694-3.258,3.258-3.351,8.619-.464,12.89A33.918,33.918,0,0,1,36.576,43.094a5.206,5.206,0,0,0,1.616.262ZM54.329,54.329a3.238,3.238,0,1,1,0,4.58,3.228,3.228,0,0,1,0-4.58Zm37.61,27.9A34.2,34.2,0,0,1,83.48,91.07c-2.026-2.955-2.082-6.557.028-8.667C85.532,80.379,89.034,80.369,91.939,82.224ZM63.6,24.061A39.589,39.589,0,1,1,32.243,39.549l1.588,1.588a37.29,37.29,0,1,0,7.307-7.307l-1.588-1.588A39.534,39.534,0,0,1,63.6,24.061Z" transform="translate(0 0)"/>
        <path id="Trazado_723461" data-name="Trazado 723461" d="M270.23,301.879a1.685,1.685,0,0,0,2.522-2.234l-1.14-1.287a1.685,1.685,0,0,0-2.522,2.234Z" transform="translate(-208.322 -230.904)"/>
        <path id="Trazado_723462" data-name="Trazado 723462" d="M312.734,262.533a1.685,1.685,0,1,0,2.522-2.234l-1.14-1.287a1.685,1.685,0,1,0-2.522,2.234Z" transform="translate(-241.279 -200.396)"/>
        <path id="Trazado_723463" data-name="Trazado 723463" d="M311.737,302.024a1.685,1.685,0,0,0,2.378-.144l1.14-1.287a1.685,1.685,0,1,0-2.522-2.234l-1.14,1.287A1.685,1.685,0,0,0,311.737,302.024Z" transform="translate(-241.278 -230.905)"/>
        <path id="Trazado_723464" data-name="Trazado 723464" d="M290.552,284.351h1.612a1.685,1.685,0,0,0,0-3.369h-1.612a1.685,1.685,0,0,0,0,3.369Z" transform="translate(-223.985 -217.871)"/>
        <path id="Trazado_723465" data-name="Trazado 723465" d="M155.856,253.575a5.549,5.549,0,1,0-5.549-5.549A5.555,5.555,0,0,0,155.856,253.575Zm0-7.729a2.18,2.18,0,1,1-2.18,2.18A2.182,2.182,0,0,1,155.856,245.846Z" transform="translate(-116.547 -188.014)"/>
        <path id="Trazado_723466" data-name="Trazado 723466" d="M173.567,327.655a1.684,1.684,0,0,0,1.446,1.893l2.9.388.388,2.9a1.685,1.685,0,0,0,1.446,1.446l2.9.387.388,2.9a1.684,1.684,0,0,0,1.446,1.447l2.9.387.387,2.9a1.684,1.684,0,1,0,3.339-.446l-.557-4.172a1.684,1.684,0,0,0-1.446-1.447l-2.9-.387-.388-2.9a1.684,1.684,0,0,0-1.446-1.446l-2.9-.387-.388-2.9a1.685,1.685,0,0,0-1.446-1.446l-4.175-.559a1.684,1.684,0,0,0-1.893,1.446Z" transform="translate(-134.57 -252.928)"/>
        <path id="Trazado_723467" data-name="Trazado 723467" d="M326.957,184.511a1.685,1.685,0,0,0,3.249-.894l-1.092-3.966a1.685,1.685,0,0,0-1.177-1.177l-3.045-.838-.839-3.045a1.684,1.684,0,0,0-1.177-1.177l-3.045-.838-.84-3.046a1.685,1.685,0,0,0-1.176-1.176l-3.969-1.094a1.685,1.685,0,0,0-.9,3.248l3.047.84.84,3.047a1.684,1.684,0,0,0,1.177,1.176l3.045.838.839,3.045a1.684,1.684,0,0,0,1.177,1.177l3.044.838Z" transform="translate(-241.7 -129.644)"/>
        <path id="Trazado_723468" data-name="Trazado 723468" d="M252.3,163.825h-3.221a1.685,1.685,0,0,0,0,3.369H252.3a1.685,1.685,0,0,0,0-3.369Z" transform="translate(-191.825 -127.028)"/>
        <path id="Trazado_723469" data-name="Trazado 723469" d="M387.492,289.633a1.684,1.684,0,0,0,1.685,1.685h3.22a1.685,1.685,0,1,0,0-3.369h-3.22A1.685,1.685,0,0,0,387.492,289.633Z" transform="translate(-300.458 -223.272)"/>
        <path id="Trazado_723470" data-name="Trazado 723470" d="M297.252,381.151h3.22a1.685,1.685,0,0,0,0-3.369h-3.22a1.685,1.685,0,0,0,0,3.369Z" transform="translate(-229.18 -292.929)"/>
      </g>
    </g>
  </g>
</svg>
