<svg xmlns="http://www.w3.org/2000/svg" width="88" height="88" viewBox="0 0 88 88">
  <g id="Grupo_1013412" data-name="Grupo 1013412" transform="translate(-224 -409)">
    <path id="Trazado_710239" data-name="Trazado 710239" d="M44,0A44,44,0,1,1,0,44,44,44,0,0,1,44,0Z" transform="translate(224 409)" fill="#d2e1f1"/>
    <g id="Grupo_1019786" data-name="Grupo 1019786" transform="translate(235 401.725)">
      <g id="Grupo_1019770" data-name="Grupo 1019770" transform="translate(0.911 45.997)">
        <path id="Trazado_721046" data-name="Trazado 721046" d="M21.595,237.452V234.19a1.047,1.047,0,0,0-1.047-1.047H16.861a1.047,1.047,0,0,0-1.047,1.047v3.263a6.443,6.443,0,0,1-3.052,5.445,11.182,11.182,0,1,0,11.889,0A6.452,6.452,0,0,1,21.595,237.452Z" transform="translate(-7.522 -233.143)" fill="#b3d8fb"/>
      </g>
      <g id="Grupo_1019771" data-name="Grupo 1019771" transform="translate(10.04 45.997)">
        <path id="Trazado_721047" data-name="Trazado 721047" d="M90.91,242.9a6.451,6.451,0,0,1-3.057-5.448V234.19a1.047,1.047,0,0,0-1.047-1.047H83.119a1.044,1.044,0,0,0-.21.021,1.047,1.047,0,0,1,.836,1.025v3.262A6.451,6.451,0,0,0,86.8,242.9a11.183,11.183,0,0,1-3.888,20.462A11.182,11.182,0,0,0,90.91,242.9Z" transform="translate(-82.909 -233.143)" fill="#89c6fc"/>
      </g>
      <g id="Grupo_1019772" data-name="Grupo 1019772" transform="translate(1.214 67.793)">
        <path id="Trazado_721048" data-name="Trazado 721048" d="M10.022,413.133a11.182,11.182,0,0,0,21.765,0Z" transform="translate(-10.022 -413.133)" fill="#ffa031"/>
      </g>
      <g id="Grupo_1019773" data-name="Grupo 1019773" transform="translate(10.048 67.793)">
        <path id="Trazado_721049" data-name="Trazado 721049" d="M91.8,413.133a11.2,11.2,0,0,1-8.824,8.423,11.173,11.173,0,0,0,12.931-8.423Z" transform="translate(-82.98 -413.133)" fill="#e6b700"/>
      </g>
      <g id="Grupo_1019774" data-name="Grupo 1019774" transform="translate(14.231 21.124)">
        <path id="Trazado_721050" data-name="Trazado 721050" d="M150.86,72.356l-9.436-24.2a10.346,10.346,0,0,1-.707-3.758V28.782a1.047,1.047,0,0,0-1.047-1.047H129.248a1.047,1.047,0,0,0-1.047,1.047V44.393a10.346,10.346,0,0,1-.707,3.758l-9.436,24.2a7.821,7.821,0,0,0,7.287,10.662h18.227A7.821,7.821,0,0,0,150.86,72.356Z" transform="translate(-117.517 -27.735)" fill="#b3d8fb"/>
      </g>
      <g id="Grupo_1019775" data-name="Grupo 1019775" transform="translate(30.58 21.124)">
        <path id="Trazado_721051" data-name="Trazado 721051" d="M269.526,72.356l-9.436-24.2a10.347,10.347,0,0,1-.707-3.758V28.782a1.047,1.047,0,0,0-1.047-1.047h-5.8a1.047,1.047,0,0,1,1.047,1.047V44.393a10.347,10.347,0,0,0,.707,3.758l9.436,24.2a7.821,7.821,0,0,1-7.287,10.662h5.8A7.821,7.821,0,0,0,269.526,72.356Z" transform="translate(-252.533 -27.735)" fill="#89c6fc"/>
      </g>
      <g id="Grupo_1019776" data-name="Grupo 1019776" transform="translate(52.478 35.494)">
        <path id="Trazado_721052" data-name="Trazado 721052" d="M438.025,182.374H434.54a1.176,1.176,0,0,1-1.176-1.176V147.134a.727.727,0,0,1,.727-.727h4.384a.727.727,0,0,1,.727.727V181.2a1.176,1.176,0,0,1-1.176,1.176Z" transform="translate(-433.364 -146.407)" fill="#b3d8fb"/>
      </g>
      <g id="Grupo_1019777" data-name="Grupo 1019777" transform="translate(52.478 35.494)">
        <path id="Trazado_721053" data-name="Trazado 721053" d="M438.472,146.407h-2.008v32.051a1.18,1.18,0,0,1-1.18,1.18h-1.921v1.557a1.18,1.18,0,0,0,1.18,1.18h3.478a1.18,1.18,0,0,0,1.18-1.18V147.136a.729.729,0,0,0-.729-.729Z" transform="translate(-433.364 -146.407)" fill="#89c6fc"/>
      </g>
      <g id="Grupo_1019778" data-name="Grupo 1019778" transform="translate(49.702 64.844)">
        <path id="Trazado_721054" data-name="Trazado 721054" d="M416.135,388.776l-5.512,9.548a1.344,1.344,0,0,0,1.164,2.016h8.7a1.344,1.344,0,0,0,1.164-2.016Z" transform="translate(-410.441 -388.776)" fill="#b3d8fb"/>
      </g>
      <g id="Grupo_1019779" data-name="Grupo 1019779" transform="translate(53.937 64.844)">
        <path id="Trazado_721055" data-name="Trazado 721055" d="M452.382,398.317l-5.509-9.541-1.459,2.527,4.049,7.014a1.348,1.348,0,0,1-1.167,2.022h2.919a1.348,1.348,0,0,0,1.167-2.022Z" transform="translate(-445.414 -388.776)" fill="#89c6fc"/>
      </g>
      <g id="Grupo_1019780" data-name="Grupo 1019780" transform="translate(52.478 56.642)">
        <path id="Trazado_721056" data-name="Trazado 721056" d="M433.364,321.044v13.64a1.18,1.18,0,0,0,1.18,1.18h3.478a1.18,1.18,0,0,0,1.18-1.18v-13.64Z" transform="translate(-433.364 -321.044)" fill="#27a2fb"/>
      </g>
      <g id="Grupo_1019781" data-name="Grupo 1019781" transform="translate(14.231 61.202)">
        <path id="Trazado_721057" data-name="Trazado 721057" d="M118.059,363.247a7.821,7.821,0,0,0,7.287,10.662h18.227a7.821,7.821,0,0,0,7.287-10.662l-1.771-4.543H119.83Z" transform="translate(-117.517 -358.704)" fill="#ae66d8"/>
      </g>
      <g id="Grupo_1019782" data-name="Grupo 1019782" transform="translate(14.231 61.202)">
        <path id="Trazado_721058" data-name="Trazado 721058" d="M118.059,363.247a7.821,7.821,0,0,0,7.287,10.662h18.227a7.821,7.821,0,0,0,7.287-10.662l-1.771-4.543H119.83Z" transform="translate(-117.517 -358.704)" fill="#4db1f0"/>
      </g>
      <g id="Grupo_1019783" data-name="Grupo 1019783" transform="translate(52.478 56.642)">
        <path id="Trazado_721059" data-name="Trazado 721059" d="M436.464,321.043v10.9a1.18,1.18,0,0,1-1.18,1.18h-1.921v1.557a1.18,1.18,0,0,0,1.18,1.18h3.478a1.18,1.18,0,0,0,1.18-1.18v-13.64h-2.737Z" transform="translate(-433.364 -321.043)" fill="#0a81f9"/>
      </g>
      <g id="Grupo_1019784" data-name="Grupo 1019784" transform="translate(22.059 61.202)">
        <path id="Trazado_721060" data-name="Trazado 721060" d="M207.678,363.247l-1.771-4.543h-5.8l1.771,4.543a7.821,7.821,0,0,1-7.287,10.662h5.8A7.821,7.821,0,0,0,207.678,363.247Z" transform="translate(-182.164 -358.704)" fill="#006cb1"/>
      </g>
      <g id="Grupo_1019785" data-name="Grupo 1019785" transform="translate(0 20.213)">
        <path id="Trazado_721061" data-name="Trazado 721061" d="M415.831,178.231l-2.468-4.275v-15a.911.911,0,1,0-1.822,0v1.073h-4.015V140.707h4.015v13.836a.911.911,0,1,0,1.822,0V140.525a1.641,1.641,0,0,0-1.64-1.64h-4.38a1.641,1.641,0,0,0-1.64,1.64v33.432l-2.468,4.275a2.259,2.259,0,0,0,1.956,3.388h8.683a2.259,2.259,0,0,0,1.956-3.388Zm-4.29-16.377v12.729a.269.269,0,0,1-.269.269h-3.478a.269.269,0,0,1-.269-.269V161.854Zm2.712,17.725a.429.429,0,0,1-.378.218h-8.683a.437.437,0,0,1-.378-.655l1.686-2.921a2.078,2.078,0,0,0,1.295.452h3.478a2.078,2.078,0,0,0,1.295-.452l1.686,2.921a.43.43,0,0,1,0,.437Z" transform="translate(-354.137 -124.515)"/>
        <path id="Trazado_721062" data-name="Trazado 721062" d="M48.422,65.414l-9.436-24.2a9.4,9.4,0,0,1-.644-3.427V22.17a1.96,1.96,0,0,0-1.957-1.957H25.961A1.96,1.96,0,0,0,24,22.17v4.81a.911.911,0,0,0,1.822,0V22.17a.136.136,0,0,1,.136-.136H36.384a.136.136,0,0,1,.136.136V37.782a11.21,11.21,0,0,0,.769,4.089l7.181,18.42H31.063a.911.911,0,1,0,0,1.822H45.18l1.545,3.962a6.91,6.91,0,0,1-6.438,9.42H22.059a6.91,6.91,0,0,1-6.439-9.42l1.545-3.962h8.213v7.9a.911.911,0,1,0,1.822,0V65.558h4.244a.911.911,0,0,0,0-1.822H27.2V59.018h1.944a.911.911,0,0,0,0-1.822H27.2V52.405h4.244a.911.911,0,1,0,0-1.822H27.2v-2.3a.911.911,0,0,0-1.822,0V60.292h-7.5l7.181-18.42a11.21,11.21,0,0,0,.769-4.089V31.21a.911.911,0,1,0-1.822,0v6.573a9.4,9.4,0,0,1-.644,3.427L18.1,54.69a5.493,5.493,0,0,1-2.21-4.383V47.044a1.96,1.96,0,0,0-1.957-1.957H10.25a1.96,1.96,0,0,0-1.957,1.957v3.263a5.512,5.512,0,0,1-2.626,4.674A12.093,12.093,0,0,0,11.8,77.314q.143,0,.287,0a12.118,12.118,0,0,0,5.421-1.279,8.727,8.727,0,0,0,4.55,1.279H40.286a8.732,8.732,0,0,0,8.136-11.9ZM6.636,56.523a7.324,7.324,0,0,0,3.478-6.216V47.044a.136.136,0,0,1,.136-.136h3.687a.136.136,0,0,1,.136.136v3.262a7.326,7.326,0,0,0,3.35,6.133l-3.5,8.974a8.745,8.745,0,0,0-.428,1.468H1.959A10.249,10.249,0,0,1,6.636,56.523Zm5.208,18.97A10.282,10.282,0,0,1,2.433,68.7h10.9a8.731,8.731,0,0,0,2.565,6.064A10.291,10.291,0,0,1,11.844,75.493Z" transform="translate(0 -20.213)"/>
      </g>
    </g>
  </g>
</svg>
