<svg xmlns="http://www.w3.org/2000/svg" width="57.312" height="65.883" viewBox="0 0 57.312 65.883">
  <g id="Grupo_1022905" data-name="Grupo 1022905" transform="translate(-33.305 0)" opacity="0.5">
    <path id="Trazado_723232" data-name="Trazado 723232" d="M91.082,312.658,78.4,311.179a16.294,16.294,0,0,0-3.174-3.1,8.952,8.952,0,0,0,.987-.234l3.529-1.052a.969.969,0,0,0-.554-1.857l-3.529,1.052a7.07,7.07,0,0,1-4.88-.312l-6.729-2.984c0-.006,0-.012,0-.018a7.008,7.008,0,0,0-6.832-7.179,11.1,11.1,0,0,1-8.415-4.184,7.008,7.008,0,1,0-10.955,8.742c.353.443.727.879,1.109,1.3a.969.969,0,0,0,1.43-1.308c-.353-.386-.7-.789-1.024-1.2a5.07,5.07,0,1,1,7.926-6.325,13.03,13.03,0,0,0,9.882,4.913,5.07,5.07,0,1,1-.251,10.137,23.028,23.028,0,0,1-13.44-4.7.969.969,0,1,0-1.172,1.543,24.955,24.955,0,0,0,14.564,5.1l.178,0a6.95,6.95,0,0,0,3.962-1.231l7.294,2.929a21.062,21.062,0,0,0,5.407,1.375l3.627.423.028.039,2.713,3.946a.969.969,0,1,0,1.6-1.1l-1.78-2.589,10.956,1.278a.969.969,0,0,0,.225-1.925Zm-22.051-3.248-6.458-2.594a6.932,6.932,0,0,0,1.144-2.152L70,307.448h0l1.36.6a14.355,14.355,0,0,1,4.145,2.789l-1.56-.182a19.117,19.117,0,0,1-4.91-1.248Z" transform="translate(-2.627 -251.529)" fill="#008b8a"/>
    <path id="Trazado_723233" data-name="Trazado 723233" d="M288.795,247.993a3.895,3.895,0,0,0-7.2.059,12.879,12.879,0,0,0,7.107,16.769,3.892,3.892,0,0,0,2.047.241h0a3.9,3.9,0,0,0,.875-7.462,5.088,5.088,0,0,1-2.808-6.626,3.869,3.869,0,0,0-.024-2.981Zm2.105,11.4a1.957,1.957,0,1,1-1.468,3.628,10.941,10.941,0,0,1-6.037-14.246,1.957,1.957,0,1,1,3.628,1.468A7.026,7.026,0,0,0,290.9,259.4Z" transform="translate(-215.518 -214.011)" fill="#008b8a"/>
    <path id="Trazado_723234" data-name="Trazado 723234" d="M36.973,13.706a10.192,10.192,0,0,0,.757,3.563c.059.144.122.286.188.427l-2.394,1.154a.969.969,0,0,0-.452,1.293,1.011,1.011,0,0,0,1.294.452l2.531-1.22a10.254,10.254,0,0,0,2.405,2.4,1.941,1.941,0,0,1,.164.132l-1.665.8A.969.969,0,0,0,39.348,24a1.011,1.011,0,0,0,1.294.452l1.478-.712a10.279,10.279,0,0,0,.672,3.984L40.365,28.9a.969.969,0,0,0-.452,1.294,1.011,1.011,0,0,0,1.294.452l2.441-1.176A10.19,10.19,0,0,0,44.989,31.2l-1.621,2.325a.969.969,0,0,0,.241,1.349,1.012,1.012,0,0,0,1.349-.241l1.51-2.165a10.392,10.392,0,0,0,2.667,1.355c.084.028.168.053.252.08l-1.021,2.891a.969.969,0,0,0,.591,1.236,1.014,1.014,0,0,0,1.236-.591L51.3,34.3a10.088,10.088,0,0,0,2.642-.042l.849,3.356a.969.969,0,0,0,.939.732,1.008,1.008,0,0,0,.94-1.207L55.823,33.8c.24-.084.478-.173.712-.275a10.537,10.537,0,0,0,1.427-.755l2.088,2.744a.982.982,0,0,0,1.358.184.969.969,0,0,0,.184-1.358l-2.1-2.755a10.157,10.157,0,0,0,1.625-1.958l3.074,1.064a1.014,1.014,0,0,0,1.232-.6.969.969,0,0,0-.6-1.232l-2.817-.975c.031-.077.063-.152.092-.23a10.374,10.374,0,0,0,.638-3.034l2.642.168.063,0a.969.969,0,0,0,.061-1.936l-2.845-.181a10.267,10.267,0,0,0-.522-2.117L64.6,19.369a.969.969,0,0,0-.841-1.746L61.311,18.8a10.323,10.323,0,0,0-2.7-3.008l1.5-.722a.969.969,0,0,0-.841-1.746l-1.683.811a1.96,1.96,0,0,1,0-.237,10.292,10.292,0,0,0-.381-3.349l2.552-1.23a.969.969,0,0,0-.841-1.746L56.5,8.741a10.276,10.276,0,0,0-2.518-3.226l1.666-2.16a.969.969,0,0,0-1.535-1.183L52.394,4.4A10.451,10.451,0,0,0,49.06,3.2l.492-2A.969.969,0,1,0,47.67.738L47.1,3.048a10.2,10.2,0,0,0-3.386.638l-.915-1.9a.969.969,0,0,0-1.746.841l.912,1.893a10.218,10.218,0,0,0-2.628,2.266l-2.159-1a.969.969,0,0,0-.811,1.76l1.872.863A10.354,10.354,0,0,0,37.1,11.77l-2.807-.044a.969.969,0,1,0-.03,1.938Zm6.369-7.734A8.382,8.382,0,0,1,55.651,13.8a4.005,4.005,0,0,0,1.658,3.441A8.38,8.38,0,1,1,44.064,23.6,3.943,3.943,0,0,0,42.422,20.2a8.381,8.381,0,0,1,.919-14.224Z" transform="translate(0 0)" fill="#008b8a"/>
    <path id="Trazado_723235" data-name="Trazado 723235" d="M323.439,135.458a.969.969,0,0,0-1.041.891,14.251,14.251,0,0,1-8.806,12.1,1.974,1.974,0,0,1-.447.124,1.957,1.957,0,0,1-1.034-3.747,10.351,10.351,0,0,0,4.754-15.2,1.957,1.957,0,0,1,3.282-2.133,14.124,14.124,0,0,1,2.023,4.987.969.969,0,1,0,1.9-.375,16.056,16.056,0,0,0-2.3-5.668,3.895,3.895,0,0,0-6.532,4.245c.094.145.182.293.267.443l-.13-.013a8.4,8.4,0,0,1-6.474-4.531,3.895,3.895,0,1,0-6.939,3.54,16.246,16.246,0,0,0,10.017,8.231.969.969,0,0,0,.527-1.865,14.3,14.3,0,0,1-8.818-7.247,1.957,1.957,0,1,1,3.486-1.779,10.338,10.338,0,0,0,7.966,5.574,10.51,10.51,0,0,0,1.17.075,8.576,8.576,0,0,1,.181.876,8.374,8.374,0,0,1-5.116,9.046,3.9,3.9,0,0,0,1.465,7.5,3.91,3.91,0,0,0,1.482-.291,16.189,16.189,0,0,0,10-13.743.968.968,0,0,0-.891-1.041Z" transform="translate(-233.716 -108.441)" fill="#008b8a"/>
  </g>
</svg>
