<svg xmlns="http://www.w3.org/2000/svg" xmlns:xlink="http://www.w3.org/1999/xlink" width="505" height="238.315" viewBox="0 0 505 238.315">
  <defs>
    <radialGradient id="radial-gradient" cx="0.5" cy="0.5" r="0.5" gradientTransform="matrix(1, 0, 0, -1, 0, 1)" gradientUnits="objectBoundingBox">
      <stop offset="0" stop-color="#3076b6"/>
      <stop offset="1" stop-color="#183b5b"/>
    </radialGradient>
    <radialGradient id="radial-gradient-3" cx="0.5" cy="0.5" r="0.5" gradientUnits="objectBoundingBox">
      <stop offset="0" stop-color="#ffa031"/>
      <stop offset="1" stop-color="#805019"/>
    </radialGradient>
    <radialGradient id="radial-gradient-4" gradientTransform="matrix(1, 0, 0, 1, 0, 0)" xlink:href="#radial-gradient"/>
  </defs>
  <g id="Grupo_1024428" data-name="Grupo 1024428" transform="translate(-810 -12630)">
    <rect id="Rectángulo_348784" data-name="Rectángulo 348784" width="505" height="238.316" transform="translate(810 12630)" fill="#e3f4ff"/>
    <g id="Grupo_1021161" data-name="Grupo 1021161" transform="translate(-9)">
      <g id="Grupo_1021149" data-name="Grupo 1021149" transform="translate(-275 1314)">
        <text id="PO" transform="translate(1125 11448)" fill="#205a8f" font-size="46" font-family="Roboto-Bold, Roboto" font-weight="700"><tspan x="0" y="0">PO</tspan></text>
        <text id="_3-" data-name="3-" transform="translate(1188 11425)" fill="#3076b6" font-size="23" font-family="Roboto-Bold, Roboto" font-weight="700"><tspan x="0" y="0">3-</tspan></text>
        <text id="_4" data-name="4" transform="translate(1186 11462)" fill="#3076b6" font-size="23" font-family="Roboto-Bold, Roboto" font-weight="700"><tspan x="0" y="0">4</tspan></text>
      </g>
      <g id="Grupo_1021160" data-name="Grupo 1021160" transform="translate(-16 1.667)">
        <text id="O" transform="translate(1049.432 12678.333)" fill="#008b8a" font-size="46" font-family="Roboto-Bold, Roboto" font-weight="700"><tspan x="0" y="0">O</tspan></text>
        <text id="O-" transform="translate(1070 12849.983)" fill="#008b8a" font-size="46" font-family="Roboto-Bold, Roboto" font-weight="700"><tspan x="0" y="0">O</tspan><tspan y="0" font-size="26.832" baseline-shift="15.331800263311814">-</tspan></text>
        <text id="O--2" data-name="O-" transform="translate(1113.57 12809)" fill="#008b8a" font-size="46" font-family="Roboto-Bold, Roboto" font-weight="700"><tspan x="0" y="0">O</tspan><tspan y="0" font-size="26.832" baseline-shift="15.331800263311814">-</tspan></text>
        <text id="O--3" data-name="O-" transform="translate(978 12807.777)" fill="#008b8a" font-size="46" font-family="Roboto-Bold, Roboto" font-weight="700"><tspan x="0" y="0">O</tspan><tspan y="0" font-size="26.832" baseline-shift="15.331800263311814">-</tspan></text>
        <text id="P" transform="translate(1051.432 12767.468)" fill="#d57e18" font-size="46" font-family="Roboto-Bold, Roboto" font-weight="700"><tspan x="0" y="0">P</tspan></text>
        <g id="Grupo_1021146" data-name="Grupo 1021146" transform="translate(1054.412 12685.45)">
          <rect id="Rectángulo_348782" data-name="Rectángulo 348782" width="9.158" height="45.66" transform="translate(0 0)"/>
          <rect id="Rectángulo_348783" data-name="Rectángulo 348783" width="9.158" height="45.66" transform="translate(14.882 0)"/>
        </g>
        <g id="Grupo_1021157" data-name="Grupo 1021157" transform="translate(1017.492 12784.245) rotate(-124)">
          <rect id="Rectángulo_348782-2" data-name="Rectángulo 348782" width="4.579" height="45.66" transform="translate(7 0)"/>
        </g>
        <path id="Trazado_722020" data-name="Trazado 722020" d="M-4115.65,1070.5l14,44.65,9.3-6.3Z" transform="translate(5174 11700)"/>
        <path id="Trazado_722021" data-name="Trazado 722021" d="M-4115.65,1070.5l14,44.65,9.3-6.3Z" transform="translate(3594.773 9338.484) rotate(-39)" opacity="0.5"/>
      </g>
      <g id="Grupo_1021159" data-name="Grupo 1021159" transform="translate(7.81 36.227)">
        <path id="Sustracción_4" data-name="Sustracción 4" d="M25.267,0a25.757,25.757,0,0,0-9.835,1.928A25.238,25.238,0,0,0,7.4,7.186a24.427,24.427,0,0,0-5.415,7.8,23.961,23.961,0,0,0-.1,18.87,27.939,27.939,0,0,0,8.3,4.311,53.3,53.3,0,0,0,16.183,2.521c.24,0,.483.006.724.006a44.846,44.846,0,0,0,20.787-5.2,23.954,23.954,0,0,0,.667-20.5,24.427,24.427,0,0,0-5.415-7.8A25.238,25.238,0,0,0,35.1,1.928,25.757,25.757,0,0,0,25.267,0Z" transform="translate(1231.439 12652.984) rotate(42)" fill="url(#radial-gradient)"/>
        <path id="Sustracción_5" data-name="Sustracción 5" d="M25.355,0a25.743,25.743,0,0,0-9.87,1.944,25.315,25.315,0,0,0-8.059,5.3,24.628,24.628,0,0,0-5.434,7.862,24.259,24.259,0,0,0-.1,19.024,27.994,27.994,0,0,0,8.33,4.346,53.259,53.259,0,0,0,16.239,2.541c.24,0,.485.006.726.006a44.836,44.836,0,0,0,20.86-5.246,24.251,24.251,0,0,0,.669-20.672,24.629,24.629,0,0,0-5.434-7.862,25.315,25.315,0,0,0-8.059-5.3A25.743,25.743,0,0,0,25.355,0Z" transform="translate(1193.754 12777.201) rotate(-140)" fill="url(#radial-gradient)"/>
        <ellipse id="Elipse_8540" data-name="Elipse 8540" cx="38.922" cy="37.969" rx="38.922" ry="37.969" transform="translate(1174.41 12674.073)" fill="url(#radial-gradient-3)"/>
        <path id="Sustracción_2" data-name="Sustracción 2" d="M34.738,56.206a35.269,35.269,0,0,1-13.521-2.663A34.683,34.683,0,0,1,10.174,46.28,33.742,33.742,0,0,1,2.73,35.508,33.236,33.236,0,0,1,2.594,9.445,38.352,38.352,0,0,1,14.007,3.49,72.966,72.966,0,0,1,36.255.008C36.584,0,36.919,0,37.25,0A61.426,61.426,0,0,1,65.829,7.188a33.224,33.224,0,0,1,.916,28.321A33.742,33.742,0,0,1,59.3,46.28a34.683,34.683,0,0,1-11.042,7.263A35.269,35.269,0,0,1,34.738,56.206Z" transform="translate(1226.342 12681.647) rotate(131)" fill="url(#radial-gradient-4)"/>
        <path id="Sustracción_3" data-name="Sustracción 3" d="M34.737,0A35.269,35.269,0,0,0,21.216,2.663,34.683,34.683,0,0,0,10.174,9.926,33.742,33.742,0,0,0,2.73,20.7a33.236,33.236,0,0,0-.136,26.063,38.352,38.352,0,0,0,11.413,5.955A72.966,72.966,0,0,0,36.255,56.2c.329.006.664.008,1,.008a61.426,61.426,0,0,0,28.579-7.188A33.224,33.224,0,0,0,66.745,20.7,33.742,33.742,0,0,0,59.3,9.926,34.683,34.683,0,0,0,48.259,2.663,35.269,35.269,0,0,0,34.737,0Z" transform="translate(1286.037 12729.003) rotate(130)" fill="url(#radial-gradient)"/>
      </g>
    </g>
  </g>
</svg>
