<svg xmlns="http://www.w3.org/2000/svg" xmlns:xlink="http://www.w3.org/1999/xlink" width="504.959" height="334.833" viewBox="0 0 504.959 334.833">
  <defs>
    <clipPath id="clip-path">
      <path id="Trazado_718431" data-name="Trazado 718431" d="M10802.181,6958.748l-32.559,17.65c-4.593-1.881-6.062-4.535-4.326-7.979,2.289-5.3,21.734-18.588,32.56-17.651C10802.48,6950.677,10802.635,6954.45,10802.181,6958.748Z" fill="none"/>
    </clipPath>
  </defs>
  <g id="Grupo_1015746" data-name="Grupo 1015746" transform="translate(-10637.533 -6833.021)">
    <g id="Grupo_1015743" data-name="Grupo 1015743">
      <g id="Grupo_1015479" data-name="Grupo 1015479">
        <circle id="Elipse_8418" data-name="Elipse 8418" cx="126.995" cy="126.995" r="126.995" transform="translate(10666.298 6843.731)" fill="#c5cfdb"/>
      </g>
      <g id="Grupo_1015480" data-name="Grupo 1015480">
        <path id="Trazado_718205" data-name="Trazado 718205" d="M10666.3,6970.726a126.969,126.969,0,0,0,66.815,111.855V6858.872A126.967,126.967,0,0,0,10666.3,6970.726Z" fill="#b5c1cb"/>
      </g>
      <g id="Grupo_1015508" data-name="Grupo 1015508">
        <g id="Grupo_1015482" data-name="Grupo 1015482">
          <g id="Grupo_1015481" data-name="Grupo 1015481">
            <path id="Trazado_718206" data-name="Trazado 718206" d="M10904.531,6950.982l-146.193-42.443,23.286-64.808c16.512-1.312,34.862,0,48.284,3.469,31.815,8.224,62.106,33.638,81.322,67.584Z" fill="#fff"/>
          </g>
        </g>
        <g id="Grupo_1015484" data-name="Grupo 1015484">
          <g id="Grupo_1015483" data-name="Grupo 1015483">
            <path id="Trazado_718207" data-name="Trazado 718207" d="M10814,6933.623l28.515-82.306,5.843,1.73-19.4,84.054Z" fill="#c5cfdb"/>
          </g>
        </g>
        <g id="Grupo_1015486" data-name="Grupo 1015486">
          <g id="Grupo_1015485" data-name="Grupo 1015485">
            <path id="Trazado_718208" data-name="Trazado 718208" d="M10770.674,6866.618c7.549,1.295,121.341,22.7,121.341,22.7l-3.476-4.192-114.072-29.778Z" fill="#c5cfdb"/>
          </g>
        </g>
        <g id="Grupo_1015488" data-name="Grupo 1015488">
          <g id="Grupo_1015487" data-name="Grupo 1015487">
            <path id="Trazado_718209" data-name="Trazado 718209" d="M10914.451,6945.57l-153.988-43.5.742-1.705,153.747,43.427Z" fill="#c5cfdb"/>
          </g>
        </g>
        <g id="Grupo_1015490" data-name="Grupo 1015490">
          <g id="Grupo_1015489" data-name="Grupo 1015489">
            <path id="Trazado_718210" data-name="Trazado 718210" d="M10903.553,6906.454l-137.853-29.778.391-1.8,136.229,29.428Z" fill="#c5cfdb"/>
          </g>
        </g>
        <g id="Grupo_1015492" data-name="Grupo 1015492">
          <g id="Grupo_1015491" data-name="Grupo 1015491">
            <path id="Trazado_718211" data-name="Trazado 718211" d="M10913.433,6926.955l-148.546-37.093.685-1.728,146.7,36.631Z" fill="#c5cfdb"/>
          </g>
        </g>
        <g id="Grupo_1015494" data-name="Grupo 1015494">
          <g id="Grupo_1015493" data-name="Grupo 1015493">
            <path id="Trazado_718212" data-name="Trazado 718212" d="M10874.966,6870.652l-95.507-21.74.8-1.708,90.248,20.543Z" fill="#c5cfdb"/>
          </g>
        </g>
        <g id="Grupo_1015507" data-name="Grupo 1015507">
          <g id="Grupo_1015496" data-name="Grupo 1015496">
            <g id="Grupo_1015495" data-name="Grupo 1015495">
              <path id="Trazado_718213" data-name="Trazado 718213" d="M10860.657,6946.484l-12.3-4.2.781-27.5,25.823,6.191Z" fill="#c5cfdb"/>
            </g>
          </g>
          <g id="Grupo_1015498" data-name="Grupo 1015498">
            <g id="Grupo_1015497" data-name="Grupo 1015497">
              <path id="Trazado_718214" data-name="Trazado 718214" d="M10862.579,6919.38l-1.831-.221,3.93-27.792.45,1.109Z" fill="#c5cfdb"/>
            </g>
          </g>
          <g id="Grupo_1015500" data-name="Grupo 1015500">
            <g id="Grupo_1015499" data-name="Grupo 1015499">
              <path id="Trazado_718215" data-name="Trazado 718215" d="M10856.682,6917.956l.988-17.093.922-.022.065,18.692Z" fill="#c5cfdb"/>
            </g>
          </g>
          <g id="Grupo_1015502" data-name="Grupo 1015502">
            <g id="Grupo_1015501" data-name="Grupo 1015501">
              <path id="Trazado_718216" data-name="Trazado 718216" d="M10831.151,6902.209c13.808-9.766,20.5-5.309,27.44-1.369C10852.747,6905.034,10845.421,6907.554,10831.151,6902.209Z" fill="#c5cfdb"/>
            </g>
          </g>
          <g id="Grupo_1015504" data-name="Grupo 1015504">
            <g id="Grupo_1015503" data-name="Grupo 1015503">
              <path id="Trazado_718217" data-name="Trazado 718217" d="M10851.353,6869.2c16.32,8.9,14.3,14.513,13.775,23.276C10858.161,6888.735,10852.982,6885.872,10851.353,6869.2Z" fill="#c5cfdb"/>
            </g>
          </g>
          <g id="Grupo_1015506" data-name="Grupo 1015506">
            <g id="Grupo_1015505" data-name="Grupo 1015505">
              <path id="Trazado_718218" data-name="Trazado 718218" d="M10862.67,6907.657c9.837-15.061,18.2-13.269,26.607-12.089C10885.136,6902,10878.876,6907.361,10862.67,6907.657Z" fill="#c5cfdb"/>
            </g>
          </g>
        </g>
      </g>
      <g id="Grupo_1015571" data-name="Grupo 1015571">
        <g id="Grupo_1015527" data-name="Grupo 1015527">
          <g id="Grupo_1015509" data-name="Grupo 1015509">
            <rect id="Rectángulo_348114" data-name="Rectángulo 348114" width="22.111" height="94.559" transform="translate(10776.92 6927.757)" fill="#a15c5c"/>
          </g>
          <g id="Grupo_1015510" data-name="Grupo 1015510">
            <rect id="Rectángulo_348115" data-name="Rectángulo 348115" width="11.055" height="94.559" transform="translate(10776.92 6927.757)" fill="#f3d3b5"/>
          </g>
          <g id="Grupo_1015511" data-name="Grupo 1015511">
            <path id="Trazado_718219" data-name="Trazado 718219" d="M10793.073,6901.235a7.126,7.126,0,0,0-5.1-2.393c-5.115,0-9.264,6.473-9.264,14.458a21.293,21.293,0,0,0,.909,6.211Q10790.149,6915.457,10793.073,6901.235Z" fill="#f3d3b5"/>
          </g>
          <g id="Grupo_1015512" data-name="Grupo 1015512">
            <path id="Trazado_718220" data-name="Trazado 718220" d="M10793.073,6901.235q-2.917,14.231-13.453,18.276c1.49,4.872,4.666,8.246,8.354,8.246,5.116,0,9.264-6.472,9.264-14.457C10797.238,6908.256,10795.581,6903.822,10793.073,6901.235Z" fill="#a15c5c"/>
          </g>
          <g id="Grupo_1015513" data-name="Grupo 1015513">
            <rect id="Rectángulo_348116" data-name="Rectángulo 348116" width="93.914" height="5.816" transform="translate(10688.926 6927.757)" fill="#a15c5c"/>
          </g>
          <g id="Grupo_1015514" data-name="Grupo 1015514">
            <rect id="Rectángulo_348117" data-name="Rectángulo 348117" width="88.743" height="5.816" transform="translate(10702.218 6933.573) rotate(90)" fill="#a15c5c"/>
          </g>
          <g id="Grupo_1015515" data-name="Grupo 1015515">
            <rect id="Rectángulo_348118" data-name="Rectángulo 348118" width="2.908" height="88.743" transform="translate(10696.402 6933.573)" fill="#f3d3b5"/>
          </g>
          <g id="Grupo_1015516" data-name="Grupo 1015516">
            <path id="Trazado_718221" data-name="Trazado 718221" d="M10699.311,6936.481l-2.908-2.908h2.908Z" fill="#a15c5c"/>
          </g>
          <g id="Grupo_1015517" data-name="Grupo 1015517">
            <rect id="Rectángulo_348119" data-name="Rectángulo 348119" width="88.743" height="5.816" transform="translate(10724.878 6933.573) rotate(90)" fill="#a15c5c"/>
          </g>
          <g id="Grupo_1015518" data-name="Grupo 1015518">
            <rect id="Rectángulo_348120" data-name="Rectángulo 348120" width="2.908" height="88.743" transform="translate(10719.063 6933.573)" fill="#f3d3b5"/>
          </g>
          <g id="Grupo_1015519" data-name="Grupo 1015519">
            <path id="Trazado_718222" data-name="Trazado 718222" d="M10721.97,6936.481l-2.907-2.908h2.907Z" fill="#a15c5c"/>
          </g>
          <g id="Grupo_1015520" data-name="Grupo 1015520">
            <rect id="Rectángulo_348121" data-name="Rectángulo 348121" width="88.743" height="5.816" transform="translate(10747.537 6933.573) rotate(90)" fill="#a15c5c"/>
          </g>
          <g id="Grupo_1015521" data-name="Grupo 1015521">
            <rect id="Rectángulo_348122" data-name="Rectángulo 348122" width="2.908" height="88.743" transform="translate(10741.722 6933.573)" fill="#f3d3b5"/>
          </g>
          <g id="Grupo_1015522" data-name="Grupo 1015522">
            <path id="Trazado_718223" data-name="Trazado 718223" d="M10744.63,6936.481l-2.908-2.908h2.908Z" fill="#a15c5c"/>
          </g>
          <g id="Grupo_1015523" data-name="Grupo 1015523">
            <rect id="Rectángulo_348123" data-name="Rectángulo 348123" width="88.743" height="5.816" transform="translate(10770.197 6933.573) rotate(90)" fill="#a15c5c"/>
          </g>
          <g id="Grupo_1015524" data-name="Grupo 1015524">
            <rect id="Rectángulo_348124" data-name="Rectángulo 348124" width="2.908" height="88.743" transform="translate(10764.382 6933.573)" fill="#f3d3b5"/>
          </g>
          <g id="Grupo_1015525" data-name="Grupo 1015525">
            <path id="Trazado_718224" data-name="Trazado 718224" d="M10767.29,6936.481l-2.908-2.908h2.908Z" fill="#a15c5c"/>
          </g>
          <g id="Grupo_1015526" data-name="Grupo 1015526">
            <path id="Trazado_718225" data-name="Trazado 718225" d="M10778.712,6933.573l9.263,9.263v-9.944l-5.135-5.135Z" fill="#a15c5c"/>
          </g>
        </g>
        <g id="Grupo_1015532" data-name="Grupo 1015532">
          <g id="Grupo_1015528" data-name="Grupo 1015528">
            <path id="Trazado_718226" data-name="Trazado 718226" d="M10688.439,7022.317H10676.1a72.843,72.843,0,0,1-9.771-36.441v-58.118h22.111Z" fill="#f3d3b5"/>
          </g>
          <g id="Grupo_1015529" data-name="Grupo 1015529">
            <rect id="Rectángulo_348125" data-name="Rectángulo 348125" width="11.055" height="94.559" transform="translate(10677.87 6927.757)" fill="#a15c5c"/>
          </g>
          <g id="Grupo_1015530" data-name="Grupo 1015530">
            <path id="Trazado_718227" data-name="Trazado 718227" d="M10682.968,6901.235a7.124,7.124,0,0,0-5.1-2.393c-5.116,0-9.263,6.473-9.263,14.458a21.326,21.326,0,0,0,.907,6.211Q10680.045,6915.457,10682.968,6901.235Z" fill="#f3d3b5"/>
          </g>
          <g id="Grupo_1015531" data-name="Grupo 1015531">
            <path id="Trazado_718228" data-name="Trazado 718228" d="M10682.968,6901.235q-2.915,14.231-13.453,18.276c1.49,4.872,4.666,8.246,8.355,8.246,5.116,0,9.264-6.472,9.264-14.457C10687.134,6908.256,10685.476,6903.822,10682.968,6901.235Z" fill="#a15c5c"/>
          </g>
        </g>
        <g id="Grupo_1015539" data-name="Grupo 1015539">
          <g id="Grupo_1015535" data-name="Grupo 1015535" opacity="0.29">
            <g id="Grupo_1015533" data-name="Grupo 1015533">
              <path id="Trazado_718229" data-name="Trazado 718229" d="M10787.975,6927.757h-99.049v5.816h7.477v88.743h5.815v-88.743h16.845v88.743h5.815v-88.743h16.844v88.743h5.816v-88.743h16.844v88.743h5.815v-88.743h6.723v88.743h22.11v-94.559Z" fill="#ab72ac"/>
            </g>
            <g id="Grupo_1015534" data-name="Grupo 1015534">
              <path id="Trazado_718230" data-name="Trazado 718230" d="M10787.975,6927.757c5.116,0,9.264-6.472,9.264-14.457,0-5.044-1.657-9.478-4.165-12.065a7.126,7.126,0,0,0-5.1-2.393c-5.115,0-9.263,6.473-9.263,14.458a21.293,21.293,0,0,0,.908,6.211C10781.11,6924.383,10784.286,6927.757,10787.975,6927.757Z" fill="#ab72ac"/>
            </g>
          </g>
          <g id="Grupo_1015538" data-name="Grupo 1015538" opacity="0.29">
            <g id="Grupo_1015536" data-name="Grupo 1015536">
              <path id="Trazado_718231" data-name="Trazado 718231" d="M10688.439,6927.757h-22.111v60.373a59.124,59.124,0,0,0,10.886,34.187h11.712v-94.56Z" fill="#ab72ac"/>
            </g>
            <g id="Grupo_1015537" data-name="Grupo 1015537">
              <path id="Trazado_718232" data-name="Trazado 718232" d="M10677.87,6927.757c5.116,0,9.264-6.472,9.264-14.457,0-5.044-1.658-9.478-4.166-12.065a7.122,7.122,0,0,0-5.1-2.393c-5.116,0-9.263,6.473-9.263,14.458a21.326,21.326,0,0,0,.907,6.211C10671,6924.383,10674.181,6927.757,10677.87,6927.757Z" fill="#ab72ac"/>
            </g>
          </g>
        </g>
        <g id="Grupo_1015570" data-name="Grupo 1015570">
          <g id="Grupo_1015546" data-name="Grupo 1015546">
            <g id="Grupo_1015540" data-name="Grupo 1015540">
              <rect id="Rectángulo_348126" data-name="Rectángulo 348126" width="7.718" height="0.922" transform="translate(10681.207 6927.296)" fill="#fff"/>
            </g>
            <g id="Grupo_1015541" data-name="Grupo 1015541">
              <rect id="Rectángulo_348127" data-name="Rectángulo 348127" width="0.922" height="93.882" transform="translate(10688.465 6928.435)" fill="#632b2b"/>
            </g>
            <g id="Grupo_1015542" data-name="Grupo 1015542">
              <rect id="Rectángulo_348128" data-name="Rectángulo 348128" width="0.922" height="42.174" transform="translate(10677.409 6980.143)" fill="#632b2b"/>
            </g>
            <g id="Grupo_1015543" data-name="Grupo 1015543">
              <rect id="Rectángulo_348129" data-name="Rectángulo 348129" width="0.922" height="16.027" transform="translate(10677.409 6951.808)" fill="#632b2b"/>
            </g>
            <g id="Grupo_1015544" data-name="Grupo 1015544">
              <path id="Trazado_718233" data-name="Trazado 718233" d="M10677.893,6928.216l-.088-.918a8.255,8.255,0,0,0,6.089-3.82c2.817-4.121,3.431-10.691,1.6-17.146l.887-.251c1.9,6.711,1.24,13.576-1.727,17.917A9.148,9.148,0,0,1,10677.893,6928.216Z" fill="#632b2b"/>
            </g>
            <g id="Grupo_1015545" data-name="Grupo 1015545">
              <rect id="Rectángulo_348130" data-name="Rectángulo 348130" width="9.23" height="0.922" transform="translate(10675.787 6927.297)" fill="#632b2b"/>
            </g>
          </g>
          <g id="Grupo_1015569" data-name="Grupo 1015569">
            <g id="Grupo_1015547" data-name="Grupo 1015547">
              <rect id="Rectángulo_348131" data-name="Rectángulo 348131" width="0.922" height="88.744" transform="translate(10695.941 6933.573)" fill="#fff"/>
            </g>
            <g id="Grupo_1015548" data-name="Grupo 1015548">
              <rect id="Rectángulo_348132" data-name="Rectángulo 348132" width="99.05" height="0.922" transform="translate(10688.926 6927.296)" fill="#fff"/>
            </g>
            <g id="Grupo_1015549" data-name="Grupo 1015549">
              <rect id="Rectángulo_348133" data-name="Rectángulo 348133" width="0.922" height="88.744" transform="translate(10718.602 6933.573)" fill="#fff"/>
            </g>
            <g id="Grupo_1015550" data-name="Grupo 1015550">
              <rect id="Rectángulo_348134" data-name="Rectángulo 348134" width="0.922" height="88.744" transform="translate(10695.941 6933.573)" fill="#fff"/>
            </g>
            <g id="Grupo_1015551" data-name="Grupo 1015551">
              <rect id="Rectángulo_348135" data-name="Rectángulo 348135" width="0.922" height="88.744" transform="translate(10741.261 6933.573)" fill="#fff"/>
            </g>
            <g id="Grupo_1015552" data-name="Grupo 1015552">
              <rect id="Rectángulo_348136" data-name="Rectángulo 348136" width="0.922" height="88.744" transform="translate(10763.921 6933.573)" fill="#fff"/>
            </g>
            <g id="Grupo_1015553" data-name="Grupo 1015553">
              <rect id="Rectángulo_348137" data-name="Rectángulo 348137" width="0.922" height="88.744" transform="translate(10776.459 6933.573)" fill="#fff"/>
            </g>
            <g id="Grupo_1015554" data-name="Grupo 1015554">
              <rect id="Rectángulo_348138" data-name="Rectángulo 348138" width="0.922" height="94.56" transform="translate(10798.569 6927.757)" fill="#632b2b"/>
            </g>
            <g id="Grupo_1015555" data-name="Grupo 1015555">
              <rect id="Rectángulo_348139" data-name="Rectángulo 348139" width="0.922" height="5.816" transform="translate(10782.379 6927.757)" fill="#632b2b"/>
            </g>
            <g id="Grupo_1015556" data-name="Grupo 1015556">
              <rect id="Rectángulo_348140" data-name="Rectángulo 348140" width="0.922" height="43.159" transform="translate(10787.514 6979.158)" fill="#632b2b"/>
            </g>
            <g id="Grupo_1015557" data-name="Grupo 1015557">
              <rect id="Rectángulo_348141" data-name="Rectángulo 348141" width="0.922" height="31.005" transform="translate(10787.514 6939.365)" fill="#632b2b"/>
            </g>
            <g id="Grupo_1015558" data-name="Grupo 1015558">
              <rect id="Rectángulo_348142" data-name="Rectángulo 348142" width="0.922" height="7.27" transform="translate(10787.514 6927.757)" fill="#632b2b"/>
            </g>
            <g id="Grupo_1015559" data-name="Grupo 1015559">
              <rect id="Rectángulo_348143" data-name="Rectángulo 348143" width="10.299" height="0.922" transform="translate(10719.063 6933.112)" fill="#632b2b"/>
            </g>
            <g id="Grupo_1015560" data-name="Grupo 1015560">
              <rect id="Rectángulo_348144" data-name="Rectángulo 348144" width="12.782" height="0.922" transform="translate(10741.722 6933.112)" fill="#632b2b"/>
            </g>
            <g id="Grupo_1015561" data-name="Grupo 1015561">
              <rect id="Rectángulo_348145" data-name="Rectángulo 348145" width="18.458" height="0.922" transform="translate(10764.382 6933.112)" fill="#632b2b"/>
            </g>
            <g id="Grupo_1015562" data-name="Grupo 1015562">
              <path id="Trazado_718234" data-name="Trazado 718234" d="M10779.17,6919.614c-1.683-7.38-.582-14.574,2.8-18.33a8.288,8.288,0,0,1,7.442-2.738l-.112.916a7.4,7.4,0,0,0-6.646,2.439c-3.192,3.54-4.209,10.412-2.59,17.508Z" fill="#fff"/>
            </g>
            <g id="Grupo_1015563" data-name="Grupo 1015563">
              <path id="Trazado_718235" data-name="Trazado 718235" d="M10788.018,6928.216l-.086-.918a8.234,8.234,0,0,0,5.825-3.707c2.86-4.021,3.636-10.215,2.077-16.568l.895-.22c1.623,6.61.793,13.086-2.221,17.322A9.136,9.136,0,0,1,10788.018,6928.216Z" fill="#632b2b"/>
            </g>
            <g id="Grupo_1015564" data-name="Grupo 1015564">
              <rect id="Rectángulo_348146" data-name="Rectángulo 348146" width="7.529" height="0.922" transform="translate(10787.975 6927.296)" fill="#632b2b"/>
            </g>
            <g id="Grupo_1015565" data-name="Grupo 1015565">
              <rect id="Rectángulo_348147" data-name="Rectángulo 348147" width="0.922" height="88.744" transform="translate(10695.941 6933.573)" fill="#fff"/>
            </g>
            <g id="Grupo_1015566" data-name="Grupo 1015566">
              <path id="Trazado_718236" data-name="Trazado 718236" d="M10772.2,6925.524c-1.3,0-2.6-.109-3.886-.216-.556-.046-1.108-.092-1.659-.129-2.758-.186-5.57-.141-8.289-.1-1.743.028-3.545.058-5.32.025a10.605,10.605,0,0,1-3.1-.385c-.321-.1-.644-.235-.955-.362a3.8,3.8,0,0,0-2.543-.446l-.121.041a1.1,1.1,0,0,1-.776.063,1.35,1.35,0,0,1-.556-.519,2.3,2.3,0,0,0-.2-.256.687.687,0,0,0-.554-.237,2.88,2.88,0,0,0-1.705,1.2l-.2.241-.169-.265a1.028,1.028,0,0,0-1.059-.525,2.2,2.2,0,0,0-.6.28l-.165.1c-1.934,1.094-9.519.02-11.02-.207l.069-.456c3.278.5,9.228,1.107,10.724.262l.158-.092a2.577,2.577,0,0,1,.729-.333,1.428,1.428,0,0,1,1.366.486,3.024,3.024,0,0,1,1.852-1.148,1.146,1.146,0,0,1,.9.376,2.882,2.882,0,0,1,.246.306,1.048,1.048,0,0,0,.352.362.736.736,0,0,0,.456-.069l.134-.045a4.189,4.189,0,0,1,2.856.458c.3.124.618.253.921.35a10.221,10.221,0,0,0,2.964.363c1.768.033,3.566,0,5.306-.025,2.729-.045,5.551-.09,8.327.1.553.037,1.108.084,1.666.13,2.992.249,6.085.506,8.922-.648-1.342-1.245-2.156-3.494-2.485-6.856-.659-6.735-.294-11.5,1.054-13.765l.4.235c-1.3,2.186-1.641,6.848-.991,13.485.339,3.466,1.19,5.685,2.6,6.785l.3.235-.349.157A13.393,13.393,0,0,1,10772.2,6925.524Z" fill="#fff"/>
            </g>
            <g id="Grupo_1015567" data-name="Grupo 1015567">
              <path id="Trazado_718237" data-name="Trazado 718237" d="M10804.84,6936.323a41.772,41.772,0,0,1-.349-11.66l-7.065-.392.214-.332a17.512,17.512,0,0,0,2.412-12.776c-.192-.962-.472-1.925-.741-2.856-.276-.958-.564-1.949-.761-2.948l.452-.089c.193.979.477,1.96.752,2.908s.553,1.914.75,2.9a17.985,17.985,0,0,1-2.268,12.781l6.769.376-.028.243a41.279,41.279,0,0,0,.318,11.771Z" fill="#632b2b"/>
            </g>
            <g id="Grupo_1015568" data-name="Grupo 1015568">
              <rect id="Rectángulo_348148" data-name="Rectángulo 348148" width="21.17" height="0.922" transform="translate(10688.926 6933.112)" fill="#632b2b"/>
            </g>
          </g>
        </g>
      </g>
      <g id="Grupo_1015647" data-name="Grupo 1015647">
        <g id="Grupo_1015580" data-name="Grupo 1015580">
          <g id="Grupo_1015572" data-name="Grupo 1015572">
            <path id="Trazado_718238" data-name="Trazado 718238" d="M10786.447,7097.722h13.491a115.339,115.339,0,0,0,99.271-56.618l4.552-7.695h-220.937A115.637,115.637,0,0,0,10786.447,7097.722Z" fill="#f3d3b5"/>
          </g>
          <g id="Grupo_1015573" data-name="Grupo 1015573">
            <path id="Trazado_718239" data-name="Trazado 718239" d="M10879.176,7058.7c-78.095,21.662-76.6-9.449-125.213,14.7l-1.058-34.609h145.577Z" fill="#a15c5c"/>
          </g>
          <g id="Grupo_1015574" data-name="Grupo 1015574">
            <path id="Trazado_718240" data-name="Trazado 718240" d="M10682.825,7033.409h74.916l64.283,64.313h-31.248a122.756,122.756,0,0,1-107.951-64.313Z" fill="#a15c5c"/>
          </g>
          <g id="Grupo_1015575" data-name="Grupo 1015575" opacity="0.29">
            <path id="Trazado_718241" data-name="Trazado 718241" d="M10781.978,7097.722h22.467a108.844,108.844,0,0,0,99.317-64.313h-220.937A108.59,108.59,0,0,0,10781.978,7097.722Z" fill="#ab72ac"/>
          </g>
          <g id="Grupo_1015576" data-name="Grupo 1015576">
            <path id="Trazado_718242" data-name="Trazado 718242" d="M10891.289,7055.427h-143.317v-28.52h159.278C10904.105,7035.194,10898.357,7044.941,10891.289,7055.427Z" fill="#d7d7e0"/>
          </g>
          <g id="Grupo_1015577" data-name="Grupo 1015577">
            <path id="Trazado_718243" data-name="Trazado 718243" d="M10904.875,7033.858s-1.519-.1-2.272-.149c-129.636-8.368-128.8,15.627-154.632-2.467v24.186s5.854,3.876,16.473,3.876,21.032-3.876,27.317-3.876,20.579,3.623,30.6,5.332c5.623.959,38-.838,65.327-2.6l1.143-.074Z" fill="#fff"/>
          </g>
          <g id="Grupo_1015578" data-name="Grupo 1015578">
            <path id="Trazado_718244" data-name="Trazado 718244" d="M10865.891,7059.493l-28.243,1.534c-6.235-5.042-5.863-24.908,1.677-32.448l26.566-1.714Z" fill="#d7d7e0"/>
          </g>
          <g id="Grupo_1015579" data-name="Grupo 1015579">
            <path id="Trazado_718245" data-name="Trazado 718245" d="M10747.73,7025.776c8.85,7.161,18.071,12.649,27.4,9.378,1.7-1.1,3.6-3.324,2.222-5.866,19.214,4.8,45.693,3.255,64.6.474l-9.2-7.445C10795.365,7020.962,10766.584,7018.754,10747.73,7025.776Z" fill="#bdbdd5"/>
          </g>
        </g>
        <g id="Grupo_1015581" data-name="Grupo 1015581">
          <path id="Trazado_718246" data-name="Trazado 718246" d="M10710.743,6976.566c33.084-17.606,63.167-13.211,91.637,3.016,11.07,17.988,12.959,30.133-2.916,42.735-27.949,5.493-52.9,9.224-80.718,4.591Z" fill="#fff"/>
        </g>
        <g id="Grupo_1015582" data-name="Grupo 1015582">
          <path id="Trazado_718247" data-name="Trazado 718247" d="M10816.23,7010.68l-36.554,3.164c8.429-3.692,8.133-6.213-13.407-5.884-7.963.118-7.963.118-15.378-4.884-7.66-5.624-3.894-13.133,8.391-13.826,10.29,20.073,34.423,7.568,40.182-3.091Z" fill="#d7d7e0"/>
        </g>
        <g id="Grupo_1015583" data-name="Grupo 1015583">
          <path id="Trazado_718248" data-name="Trazado 718248" d="M10827.438,6978.888a30.032,30.032,0,0,1,7.176-13.027c7.3-7.3,16.834-6.879,27.05-5.342,25.159,3.784,12.491,66.389,12.491,66.389-39.162,4-75.82,6.141-101.383,0,6.553-11.4,13.863-11.4,28.741-16.617C10810.055,7008.717,10821.681,6983.1,10827.438,6978.888Z" fill="#ffd14b" fill-rule="evenodd"/>
        </g>
        <g id="Grupo_1015584" data-name="Grupo 1015584">
          <path id="Trazado_718249" data-name="Trazado 718249" d="M10772.772,7026.908c6.553-11.4,13.863-11.4,28.741-16.617,10.609-.578,20.167-27.194,25.925-31.4a30.032,30.032,0,0,1,7.176-13.027C10829.188,7020.492,10812.474,7035.154,10772.772,7026.908Z" fill="#eabb47" fill-rule="evenodd"/>
        </g>
        <g id="Grupo_1015585" data-name="Grupo 1015585">
          <path id="Trazado_718250" data-name="Trazado 718250" d="M10827.438,6978.888c-5.758,4.209-10.371-1.068-16.558-5.372l-8.5,22.655c4,5.58,7.2,11-.866,14.12C10807.7,7017.4,10822.358,7010.68,10827.438,6978.888Z" fill="#f1dbdb" fill-rule="evenodd"/>
        </g>
        <g id="Grupo_1015586" data-name="Grupo 1015586">
          <path id="Trazado_718251" data-name="Trazado 718251" d="M10807.033,7014.247a8.556,8.556,0,0,1-6.562-3.048l2.085-1.816a5.952,5.952,0,0,0,6.44,1.81c6.018-1.723,13.664-11.172,17.075-32.523l2.73.437c-3.07,19.22-10.189,32.209-19.044,34.745A9.884,9.884,0,0,1,10807.033,7014.247Z" fill="#b7841d"/>
        </g>
        <g id="Grupo_1015633" data-name="Grupo 1015633">
          <g id="Grupo_1015587" data-name="Grupo 1015587">
            <path id="Trazado_718252" data-name="Trazado 718252" d="M10799.887,6950.6c-15.279-.119-28.79,2.943-34.825,19.43,2.2,8.962,11.672,18.976,17.478,24.664a7.42,7.42,0,0,0,.563.641,27.548,27.548,0,0,0,3.773,4.591c5.817,5.764,7.481,9.144,18.553,3.05.126-.07.241-.144.364-.215.168-.087.332-.168.5-.263,5.157-2.838,6.777-5.678,7.154-8.7a20.07,20.07,0,0,0,1-9.567s-1.314-4.431-1.976-5.978h0Z" fill="#f1dede"/>
          </g>
          <g id="Grupo_1015590" data-name="Grupo 1015590" opacity="0.42">
            <g id="Grupo_1015589" data-name="Grupo 1015589">
              <g id="Grupo_1015588" data-name="Grupo 1015588" clip-path="url(#clip-path)">
                <path id="Trazado_718253" data-name="Trazado 718253" d="M10791.954,6949.831l-28.393,15.392v-15.392Z" fill="#505099"/>
                <path id="Trazado_718254" data-name="Trazado 718254" d="M10792.105,6949.831l-28.544,15.474v-.082l28.393-15.392Z" fill="#505099"/>
                <path id="Trazado_718255" data-name="Trazado 718255" d="M10792.257,6949.831l-28.7,15.556v-.082l28.544-15.474Z" fill="#515199"/>
                <path id="Trazado_718256" data-name="Trazado 718256" d="M10792.408,6949.831l-28.847,15.639v-.083l28.7-15.556Z" fill="#52519a"/>
                <path id="Trazado_718257" data-name="Trazado 718257" d="M10792.56,6949.831l-29,15.721v-.082l28.847-15.639Z" fill="#53529a"/>
                <path id="Trazado_718258" data-name="Trazado 718258" d="M10792.712,6949.831l-29.15,15.8v-.082l29-15.721Z" fill="#54539a"/>
                <path id="Trazado_718259" data-name="Trazado 718259" d="M10792.863,6949.831l-29.3,15.885v-.082l29.15-15.8Z" fill="#54549a"/>
                <path id="Trazado_718260" data-name="Trazado 718260" d="M10793.015,6949.831l-29.453,15.967v-.083l29.3-15.885Z" fill="#55549b"/>
                <path id="Trazado_718261" data-name="Trazado 718261" d="M10793.166,6949.831l-29.6,16.049v-.082l29.453-15.967Z" fill="#56559b"/>
                <path id="Trazado_718262" data-name="Trazado 718262" d="M10793.317,6949.831l-29.756,16.131v-.082l29.6-16.049Z" fill="#57569b"/>
                <path id="Trazado_718263" data-name="Trazado 718263" d="M10793.47,6949.831l-29.908,16.213v-.082l29.756-16.131Z" fill="#58579c"/>
                <path id="Trazado_718264" data-name="Trazado 718264" d="M10793.621,6949.831l-30.06,16.3v-.083l29.908-16.213Z" fill="#59579c"/>
                <path id="Trazado_718265" data-name="Trazado 718265" d="M10793.772,6949.831l-30.211,16.378v-.082l30.06-16.3Z" fill="#5a589c"/>
                <path id="Trazado_718266" data-name="Trazado 718266" d="M10793.924,6949.831l-30.362,16.46v-.082l30.211-16.378Z" fill="#5b599c"/>
                <path id="Trazado_718267" data-name="Trazado 718267" d="M10794.075,6949.831l-30.514,16.542v-.083l30.362-16.46Z" fill="#5c599d"/>
                <path id="Trazado_718268" data-name="Trazado 718268" d="M10794.228,6949.831l-30.666,16.625v-.082l30.514-16.542Z" fill="#5c599d"/>
                <path id="Trazado_718269" data-name="Trazado 718269" d="M10794.379,6949.831l-30.817,16.707v-.082l30.666-16.625Z" fill="#5d5a9d"/>
                <path id="Trazado_718270" data-name="Trazado 718270" d="M10794.53,6949.831l-30.969,16.789v-.082l30.817-16.707Z" fill="#5e5b9d"/>
                <path id="Trazado_718271" data-name="Trazado 718271" d="M10794.682,6949.831l-31.12,16.871v-.083l30.969-16.789Z" fill="#5f5b9e"/>
                <path id="Trazado_718272" data-name="Trazado 718272" d="M10794.833,6949.831l-31.271,16.953v-.082l31.12-16.871Z" fill="#605c9e"/>
                <path id="Trazado_718273" data-name="Trazado 718273" d="M10794.985,6949.831l-31.424,17.035v-.082l31.271-16.953Z" fill="#615d9e"/>
                <path id="Trazado_718274" data-name="Trazado 718274" d="M10795.137,6949.831l-31.575,17.117v-.082l31.424-17.035Z" fill="#625e9f"/>
                <path id="Trazado_718275" data-name="Trazado 718275" d="M10795.288,6949.831l-31.727,17.2v-.083l31.575-17.117Z" fill="#625e9f"/>
                <path id="Trazado_718276" data-name="Trazado 718276" d="M10795.439,6949.831l-31.878,17.282v-.082l31.727-17.2Z" fill="#635f9f"/>
                <path id="Trazado_718277" data-name="Trazado 718277" d="M10795.591,6949.831l-32.029,17.364v-.082l31.878-17.282Z" fill="#64609f"/>
                <path id="Trazado_718278" data-name="Trazado 718278" d="M10795.743,6949.831l-32.182,17.446v-.083l32.029-17.364Z" fill="#6561a0"/>
                <path id="Trazado_718279" data-name="Trazado 718279" d="M10795.895,6949.831l-32.333,17.528v-.082l32.182-17.446Z" fill="#6661a0"/>
                <path id="Trazado_718280" data-name="Trazado 718280" d="M10796.046,6949.831l-32.484,17.61v-.082l32.333-17.528Z" fill="#6762a0"/>
                <path id="Trazado_718281" data-name="Trazado 718281" d="M10796.2,6949.831l-32.636,17.692v-.082l32.484-17.61Z" fill="#6863a1"/>
                <path id="Trazado_718282" data-name="Trazado 718282" d="M10796.349,6949.831l-32.787,17.775v-.083l32.636-17.692Z" fill="#6963a1"/>
                <path id="Trazado_718283" data-name="Trazado 718283" d="M10796.5,6949.831l-32.939,17.857v-.082l32.787-17.775Z" fill="#6964a1"/>
                <path id="Trazado_718284" data-name="Trazado 718284" d="M10796.652,6949.831l-33.091,17.939v-.082l32.939-17.857Z" fill="#6a65a1"/>
                <path id="Trazado_718285" data-name="Trazado 718285" d="M10796.8,6949.831l-33.242,18.021v-.082l33.091-17.939Z" fill="#6b66a2"/>
                <path id="Trazado_718286" data-name="Trazado 718286" d="M10796.955,6949.831l-33.394,18.1v-.083l33.242-18.021Z" fill="#6c66a2"/>
                <path id="Trazado_718287" data-name="Trazado 718287" d="M10797.106,6949.831l-33.545,18.186v-.082l33.394-18.1Z" fill="#6d67a2"/>
                <path id="Trazado_718288" data-name="Trazado 718288" d="M10797.259,6949.831l-33.7,18.268v-.082l33.545-18.186Z" fill="#6e68a3"/>
                <path id="Trazado_718289" data-name="Trazado 718289" d="M10797.41,6949.831l-33.849,18.35v-.083l33.7-18.268Z" fill="#6f69a3"/>
                <path id="Trazado_718290" data-name="Trazado 718290" d="M10797.562,6949.831l-34,18.432v-.082l33.849-18.35Z" fill="#7069a3"/>
                <path id="Trazado_718291" data-name="Trazado 718291" d="M10797.713,6949.831l-34.151,18.514v-.082l34-18.432Z" fill="#716aa4"/>
                <path id="Trazado_718292" data-name="Trazado 718292" d="M10797.864,6949.831l-34.3,18.6v-.082l34.151-18.514Z" fill="#726ba4"/>
                <path id="Trazado_718293" data-name="Trazado 718293" d="M10798.017,6949.831l-34.455,18.679v-.083l34.3-18.6Z" fill="#736ca5"/>
                <path id="Trazado_718294" data-name="Trazado 718294" d="M10798.168,6949.831l-34.606,18.761v-.082l34.455-18.679Z" fill="#736ca5"/>
                <path id="Trazado_718295" data-name="Trazado 718295" d="M10798.319,6949.831l-34.758,18.843v-.082l34.606-18.761Z" fill="#746da5"/>
                <path id="Trazado_718296" data-name="Trazado 718296" d="M10798.471,6949.831l-34.909,18.925v-.082l34.758-18.843Z" fill="#756ea6"/>
                <path id="Trazado_718297" data-name="Trazado 718297" d="M10798.622,6949.831l-35.061,19.007v-.083l34.909-18.925Z" fill="#766ea6"/>
                <path id="Trazado_718298" data-name="Trazado 718298" d="M10798.774,6949.831l-35.213,19.089v-.082l35.061-19.007Z" fill="#776ea6"/>
                <path id="Trazado_718299" data-name="Trazado 718299" d="M10798.926,6949.831,10763.562,6969v-.082l35.213-19.089Z" fill="#786fa7"/>
                <path id="Trazado_718300" data-name="Trazado 718300" d="M10799.077,6949.831l-35.516,19.254V6969l35.364-19.171Z" fill="#7970a7"/>
                <path id="Trazado_718301" data-name="Trazado 718301" d="M10799.229,6949.831l-35.667,19.336v-.082l35.516-19.254Z" fill="#7a70a7"/>
                <path id="Trazado_718302" data-name="Trazado 718302" d="M10799.38,6949.831l-35.818,19.418v-.082l35.667-19.336Z" fill="#7b71a7"/>
                <path id="Trazado_718303" data-name="Trazado 718303" d="M10799.532,6949.831l-35.971,19.5v-.082l35.818-19.418Z" fill="#7c72a8"/>
                <path id="Trazado_718304" data-name="Trazado 718304" d="M10799.684,6949.831l-36.122,19.583v-.083l35.971-19.5Z" fill="#7d73a8"/>
                <path id="Trazado_718305" data-name="Trazado 718305" d="M10799.835,6949.831l-36.273,19.665v-.082l36.122-19.583Z" fill="#7d73a8"/>
                <path id="Trazado_718306" data-name="Trazado 718306" d="M10799.986,6949.831l-36.425,19.747v-.082l36.273-19.665Z" fill="#7e74a9"/>
                <path id="Trazado_718307" data-name="Trazado 718307" d="M10800.138,6949.831l-36.576,19.829v-.082l36.425-19.747Z" fill="#7f75a9"/>
                <path id="Trazado_718308" data-name="Trazado 718308" d="M10800.29,6949.831l-36.729,19.911v-.083l36.576-19.829Z" fill="#8075a9"/>
                <path id="Trazado_718309" data-name="Trazado 718309" d="M10800.441,6949.831l-36.88,19.993v-.082l36.729-19.911Z" fill="#8076a9"/>
                <path id="Trazado_718310" data-name="Trazado 718310" d="M10800.593,6949.831l-37.031,20.075v-.082l36.88-19.993Z" fill="#8177aa"/>
                <path id="Trazado_718311" data-name="Trazado 718311" d="M10800.744,6949.831l-37.183,20.158v-.083l37.031-20.075Z" fill="#8278aa"/>
                <path id="Trazado_718312" data-name="Trazado 718312" d="M10800.9,6949.831l-37.334,20.24v-.082l37.183-20.158Z" fill="#8378aa"/>
                <path id="Trazado_718313" data-name="Trazado 718313" d="M10801.048,6949.831l-37.486,20.322v-.082l37.334-20.24Z" fill="#8479ab"/>
                <path id="Trazado_718314" data-name="Trazado 718314" d="M10801.2,6949.831l-37.638,20.4v-.082l37.486-20.322Z" fill="#857aab"/>
                <path id="Trazado_718315" data-name="Trazado 718315" d="M10801.351,6949.831l-37.789,20.486v-.083l37.638-20.4Z" fill="#867bab"/>
                <path id="Trazado_718316" data-name="Trazado 718316" d="M10801.5,6949.831l-37.94,20.568v-.082l37.789-20.486Z" fill="#867bab"/>
                <path id="Trazado_718317" data-name="Trazado 718317" d="M10801.653,6949.831l-38.092,20.65v-.082l37.94-20.568Z" fill="#877cac"/>
                <path id="Trazado_718318" data-name="Trazado 718318" d="M10801.806,6949.831l-38.244,20.733v-.083l38.092-20.65Z" fill="#887dac"/>
                <path id="Trazado_718319" data-name="Trazado 718319" d="M10801.957,6949.831l-38.4,20.815v-.082l38.244-20.733Z" fill="#897eac"/>
                <path id="Trazado_718320" data-name="Trazado 718320" d="M10802.108,6949.831l-38.547,20.9v-.082l38.4-20.815Z" fill="#8a7eac"/>
                <path id="Trazado_718321" data-name="Trazado 718321" d="M10802.26,6949.831l-38.7,20.979v-.082l38.547-20.9Z" fill="#8b7fad"/>
                <path id="Trazado_718322" data-name="Trazado 718322" d="M10802.412,6949.831l-38.851,21.062v-.083l38.7-20.979Z" fill="#8c80ad"/>
                <path id="Trazado_718323" data-name="Trazado 718323" d="M10802.563,6949.831l-39,21.144v-.082l38.851-21.062Z" fill="#8d80ad"/>
                <path id="Trazado_718324" data-name="Trazado 718324" d="M10802.635,6949.875l-39.073,21.182v-.082l39-21.144h.071Z" fill="#8e80ae"/>
                <path id="Trazado_718325" data-name="Trazado 718325" d="M10802.635,6949.957l-39.073,21.182v-.082l39.073-21.182Z" fill="#8f81ae"/>
                <path id="Trazado_718326" data-name="Trazado 718326" d="M10802.635,6950.039l-39.073,21.183v-.083l39.073-21.182Z" fill="#9082ae"/>
                <path id="Trazado_718327" data-name="Trazado 718327" d="M10802.635,6950.121l-39.073,21.182v-.082l39.073-21.183Z" fill="#9082ae"/>
                <path id="Trazado_718328" data-name="Trazado 718328" d="M10802.635,6950.2l-39.073,21.182v-.082l39.073-21.182Z" fill="#9183af"/>
                <path id="Trazado_718329" data-name="Trazado 718329" d="M10802.635,6950.285l-39.073,21.183v-.083l39.073-21.182Z" fill="#9284af"/>
                <path id="Trazado_718330" data-name="Trazado 718330" d="M10802.635,6950.368l-39.073,21.182v-.082l39.073-21.183Z" fill="#9385af"/>
                <path id="Trazado_718331" data-name="Trazado 718331" d="M10802.635,6950.45l-39.073,21.182v-.082l39.073-21.182Z" fill="#9485b0"/>
                <path id="Trazado_718332" data-name="Trazado 718332" d="M10802.635,6950.532l-39.073,21.182v-.082l39.073-21.182Z" fill="#9586b0"/>
                <path id="Trazado_718333" data-name="Trazado 718333" d="M10802.635,6950.614l-39.073,21.183v-.083l39.073-21.182Z" fill="#9687b0"/>
                <path id="Trazado_718334" data-name="Trazado 718334" d="M10802.635,6950.7l-39.073,21.182v-.082l39.073-21.183Z" fill="#9788b0"/>
                <path id="Trazado_718335" data-name="Trazado 718335" d="M10802.635,6950.778l-39.073,21.182v-.082l39.073-21.182Z" fill="#9888b1"/>
                <path id="Trazado_718336" data-name="Trazado 718336" d="M10802.635,6950.86l-39.073,21.182v-.082l39.073-21.182Z" fill="#9989b1"/>
                <path id="Trazado_718337" data-name="Trazado 718337" d="M10802.635,6950.942l-39.073,21.183v-.083l39.073-21.182Z" fill="#9a8ab1"/>
                <path id="Trazado_718338" data-name="Trazado 718338" d="M10802.635,6951.025l-39.073,21.182v-.082l39.073-21.183Z" fill="#9a8ab2"/>
                <path id="Trazado_718339" data-name="Trazado 718339" d="M10802.635,6951.107l-39.073,21.182v-.082l39.073-21.182Z" fill="#9b8bb2"/>
                <path id="Trazado_718340" data-name="Trazado 718340" d="M10802.635,6951.189l-39.073,21.183v-.083l39.073-21.182Z" fill="#9c8cb2"/>
                <path id="Trazado_718341" data-name="Trazado 718341" d="M10802.635,6951.271l-39.073,21.182v-.082l39.073-21.183Z" fill="#9d8db2"/>
                <path id="Trazado_718342" data-name="Trazado 718342" d="M10802.635,6951.354l-39.073,21.182v-.082l39.073-21.182Z" fill="#9f8db3"/>
                <path id="Trazado_718343" data-name="Trazado 718343" d="M10802.635,6951.436l-39.073,21.182v-.082l39.073-21.182Z" fill="#a08eb3"/>
                <path id="Trazado_718344" data-name="Trazado 718344" d="M10802.635,6951.518l-39.073,21.183v-.083l39.073-21.182Z" fill="#a18fb3"/>
                <path id="Trazado_718345" data-name="Trazado 718345" d="M10802.635,6951.6l-39.073,21.182v-.082l39.073-21.183Z" fill="#a290b3"/>
                <path id="Trazado_718346" data-name="Trazado 718346" d="M10802.635,6951.682l-39.073,21.182v-.082l39.073-21.182Z" fill="#a390b4"/>
                <path id="Trazado_718347" data-name="Trazado 718347" d="M10802.635,6951.764l-39.073,21.182v-.082l39.073-21.182Z" fill="#a491b4"/>
                <path id="Trazado_718348" data-name="Trazado 718348" d="M10802.635,6951.846l-39.073,21.183v-.083l39.073-21.182Z" fill="#a592b4"/>
                <path id="Trazado_718349" data-name="Trazado 718349" d="M10802.635,6951.929l-39.073,21.182v-.082l39.073-21.183Z" fill="#a592b5"/>
                <path id="Trazado_718350" data-name="Trazado 718350" d="M10802.635,6952.011l-39.073,21.182v-.082l39.073-21.182Z" fill="#a693b5"/>
                <path id="Trazado_718351" data-name="Trazado 718351" d="M10802.635,6952.093l-39.073,21.183v-.083l39.073-21.182Z" fill="#a794b5"/>
                <path id="Trazado_718352" data-name="Trazado 718352" d="M10802.635,6952.175l-39.073,21.182v-.082l39.073-21.183Z" fill="#a895b5"/>
                <path id="Trazado_718353" data-name="Trazado 718353" d="M10802.635,6952.257l-39.073,21.182v-.082l39.073-21.182Z" fill="#a995b6"/>
                <path id="Trazado_718354" data-name="Trazado 718354" d="M10802.635,6952.339l-39.073,21.182v-.082l39.073-21.182Z" fill="#aa96b6"/>
                <path id="Trazado_718355" data-name="Trazado 718355" d="M10802.635,6952.421l-39.073,21.183v-.083l39.073-21.182Z" fill="#ab97b6"/>
                <path id="Trazado_718356" data-name="Trazado 718356" d="M10802.635,6952.5l-39.073,21.182v-.082l39.073-21.183Z" fill="#ac98b7"/>
                <path id="Trazado_718357" data-name="Trazado 718357" d="M10802.635,6952.586l-39.073,21.182v-.082l39.073-21.182Z" fill="#ad98b7"/>
                <path id="Trazado_718358" data-name="Trazado 718358" d="M10802.635,6952.668l-39.073,21.182v-.082l39.073-21.182Z" fill="#ae99b7"/>
                <path id="Trazado_718359" data-name="Trazado 718359" d="M10802.635,6952.75l-39.073,21.182v-.083l39.073-21.182Z" fill="#af9ab7"/>
                <path id="Trazado_718360" data-name="Trazado 718360" d="M10802.635,6952.833l-39.073,21.182v-.082l39.073-21.182Z" fill="#b09bb8"/>
                <path id="Trazado_718361" data-name="Trazado 718361" d="M10802.635,6952.915l-39.073,21.182v-.082l39.073-21.182Z" fill="#b19bb8"/>
                <path id="Trazado_718362" data-name="Trazado 718362" d="M10802.635,6953l-39.073,21.183v-.083l39.073-21.182Z" fill="#b29cb8"/>
                <path id="Trazado_718363" data-name="Trazado 718363" d="M10802.635,6953.079l-39.073,21.182v-.082l39.073-21.183Z" fill="#b39db9"/>
                <path id="Trazado_718364" data-name="Trazado 718364" d="M10802.635,6953.161l-39.073,21.182v-.082l39.073-21.182Z" fill="#b39db9"/>
                <path id="Trazado_718365" data-name="Trazado 718365" d="M10802.635,6953.243l-39.073,21.182v-.082l39.073-21.182Z" fill="#b49eb9"/>
                <path id="Trazado_718366" data-name="Trazado 718366" d="M10802.635,6953.325l-39.073,21.183v-.083l39.073-21.182Z" fill="#b59fba"/>
                <path id="Trazado_718367" data-name="Trazado 718367" d="M10802.635,6953.408l-39.073,21.182v-.082l39.073-21.183Z" fill="#b6a0bb"/>
                <path id="Trazado_718368" data-name="Trazado 718368" d="M10802.635,6953.49l-39.073,21.182v-.082l39.073-21.182Z" fill="#b7a0bb"/>
                <path id="Trazado_718369" data-name="Trazado 718369" d="M10802.635,6953.572l-39.073,21.182v-.082l39.073-21.182Z" fill="#b8a1bb"/>
                <path id="Trazado_718370" data-name="Trazado 718370" d="M10802.635,6953.654l-39.073,21.182v-.083l39.073-21.182Z" fill="#b9a2bb"/>
                <path id="Trazado_718371" data-name="Trazado 718371" d="M10802.635,6953.736l-39.073,21.182v-.082l39.073-21.182Z" fill="#baa2bc"/>
                <path id="Trazado_718372" data-name="Trazado 718372" d="M10802.635,6953.818,10763.562,6975v-.082l39.073-21.182Z" fill="#bba2bc"/>
                <path id="Trazado_718373" data-name="Trazado 718373" d="M10802.635,6953.9l-39.073,21.183V6975l39.073-21.182Z" fill="#bca3bc"/>
                <path id="Trazado_718374" data-name="Trazado 718374" d="M10802.635,6953.983l-39.073,21.182v-.082l39.073-21.183Z" fill="#bda4bd"/>
                <path id="Trazado_718375" data-name="Trazado 718375" d="M10802.635,6954.065l-39.073,21.182v-.082l39.073-21.182Z" fill="#bea5bd"/>
                <path id="Trazado_718376" data-name="Trazado 718376" d="M10802.635,6954.147l-39.073,21.182v-.082l39.073-21.182Z" fill="#bfa5bd"/>
                <path id="Trazado_718377" data-name="Trazado 718377" d="M10802.635,6954.229l-39.073,21.183v-.083l39.073-21.182Z" fill="#c0a6bd"/>
                <path id="Trazado_718378" data-name="Trazado 718378" d="M10802.635,6954.312l-39.073,21.182v-.082l39.073-21.183Z" fill="#c1a7be"/>
                <path id="Trazado_718379" data-name="Trazado 718379" d="M10802.635,6954.394l-39.073,21.182v-.082l39.073-21.182Z" fill="#c1a7be"/>
                <path id="Trazado_718380" data-name="Trazado 718380" d="M10802.635,6954.476l-39.073,21.182v-.082l39.073-21.182Z" fill="#c2a8be"/>
                <path id="Trazado_718381" data-name="Trazado 718381" d="M10802.635,6954.558l-39.07,21.18,0-.007v-.074l39.073-21.182Z" fill="#c3a9bf"/>
                <path id="Trazado_718382" data-name="Trazado 718382" d="M10802.635,6954.64,10763.6,6975.8l-.034-.063,39.07-21.18Z" fill="#c4aabf"/>
                <path id="Trazado_718383" data-name="Trazado 718383" d="M10802.635,6954.722l-39,21.143-.035-.063,39.036-21.162Z" fill="#c5aabf"/>
                <path id="Trazado_718384" data-name="Trazado 718384" d="M10802.635,6954.8l-38.967,21.125-.034-.063,39-21.143Z" fill="#c6abbf"/>
                <path id="Trazado_718385" data-name="Trazado 718385" d="M10802.635,6954.887l-38.933,21.105-.034-.063,38.967-21.125Z" fill="#c7acc0"/>
                <path id="Trazado_718386" data-name="Trazado 718386" d="M10802.635,6954.969l-38.9,21.087-.034-.063,38.933-21.105Z" fill="#c8adc0"/>
                <path id="Trazado_718387" data-name="Trazado 718387" d="M10802.635,6955.051l-38.863,21.068-.035-.063,38.9-21.087Z" fill="#c9adc0"/>
                <path id="Trazado_718388" data-name="Trazado 718388" d="M10802.635,6955.133l-38.829,21.05-.034-.063,38.863-21.068Z" fill="#caaec1"/>
                <path id="Trazado_718389" data-name="Trazado 718389" d="M10802.635,6955.215l-38.795,21.031-.034-.063,38.829-21.05Z" fill="#cbafc1"/>
                <path id="Trazado_718390" data-name="Trazado 718390" d="M10802.635,6955.3l-38.761,21.012-.034-.063,38.795-21.031Z" fill="#ccafc1"/>
                <path id="Trazado_718391" data-name="Trazado 718391" d="M10802.635,6955.379l-38.726,20.994-.035-.063,38.761-21.012Z" fill="#cdb0c1"/>
                <path id="Trazado_718392" data-name="Trazado 718392" d="M10802.635,6955.462l-38.621,20.937h-.091l-.014-.025,38.726-20.994Z" fill="#ceb2c2"/>
                <path id="Trazado_718393" data-name="Trazado 718393" d="M10802.635,6955.544l-38.47,20.854h-.151l38.621-20.937Z" fill="#cfb3c2"/>
                <path id="Trazado_718394" data-name="Trazado 718394" d="M10802.635,6955.626l-38.317,20.772h-.152l38.47-20.854Z" fill="#d0b3c2"/>
                <path id="Trazado_718395" data-name="Trazado 718395" d="M10802.635,6955.708l-38.166,20.69h-.151l38.317-20.772Z" fill="#d1b4c2"/>
                <path id="Trazado_718396" data-name="Trazado 718396" d="M10802.635,6955.791l-38.015,20.608h-.151l38.166-20.69Z" fill="#d2b5c3"/>
                <path id="Trazado_718397" data-name="Trazado 718397" d="M10802.635,6955.873l-37.863,20.526h-.151l38.015-20.608Z" fill="#d3b6c3"/>
                <path id="Trazado_718398" data-name="Trazado 718398" d="M10802.635,6955.955l-37.712,20.444h-.151l37.863-20.526Z" fill="#d3b6c3"/>
                <path id="Trazado_718399" data-name="Trazado 718399" d="M10802.635,6956.037l-37.56,20.362h-.152l37.712-20.444Z" fill="#d5b7c4"/>
                <path id="Trazado_718400" data-name="Trazado 718400" d="M10802.635,6956.119l-37.408,20.279h-.151l37.56-20.362Z" fill="#d6b8c4"/>
                <path id="Trazado_718401" data-name="Trazado 718401" d="M10802.635,6956.2l-37.257,20.2h-.151l37.408-20.279Z" fill="#d7b9c4"/>
                <path id="Trazado_718402" data-name="Trazado 718402" d="M10802.635,6956.283l-37.105,20.115h-.151l37.257-20.2Z" fill="#d7b9c4"/>
                <path id="Trazado_718403" data-name="Trazado 718403" d="M10802.635,6956.366l-36.954,20.033h-.151l37.105-20.115Z" fill="#d8bac5"/>
                <path id="Trazado_718404" data-name="Trazado 718404" d="M10802.635,6956.448l-36.8,19.951h-.152l36.954-20.033Z" fill="#d9bbc5"/>
                <path id="Trazado_718405" data-name="Trazado 718405" d="M10802.635,6956.53l-36.65,19.869h-.151l36.8-19.951Z" fill="#dabbc5"/>
                <path id="Trazado_718406" data-name="Trazado 718406" d="M10802.635,6956.612l-36.5,19.787h-.151l36.65-19.869Z" fill="#dbbcc6"/>
                <path id="Trazado_718407" data-name="Trazado 718407" d="M10802.635,6956.694l-36.348,19.7h-.151l36.5-19.787Z" fill="#dcbdc6"/>
                <path id="Trazado_718408" data-name="Trazado 718408" d="M10802.635,6956.776l-36.2,19.622h-.151l36.348-19.7Z" fill="#ddbec6"/>
                <path id="Trazado_718409" data-name="Trazado 718409" d="M10802.635,6956.858l-36.044,19.54h-.152l36.2-19.622Z" fill="#debec6"/>
                <path id="Trazado_718410" data-name="Trazado 718410" d="M10802.635,6956.94l-35.893,19.458h-.151l36.044-19.54Z" fill="#dfbfc7"/>
                <path id="Trazado_718411" data-name="Trazado 718411" d="M10802.635,6957.023l-35.741,19.375h-.151l35.893-19.458Z" fill="#e0c0c7"/>
                <path id="Trazado_718412" data-name="Trazado 718412" d="M10802.635,6957.1l-35.59,19.293h-.151l35.741-19.375Z" fill="#e1c1c7"/>
                <path id="Trazado_718413" data-name="Trazado 718413" d="M10802.635,6957.187,10767.2,6976.4h-.151l35.59-19.293Z" fill="#e2c1c8"/>
                <path id="Trazado_718414" data-name="Trazado 718414" d="M10802.635,6957.27l-35.286,19.129h-.152l35.438-19.211Z" fill="#e3c2c8"/>
                <path id="Trazado_718415" data-name="Trazado 718415" d="M10802.635,6957.352,10767.5,6976.4h-.151l35.286-19.129Z" fill="#e4c3c8"/>
                <path id="Trazado_718416" data-name="Trazado 718416" d="M10802.635,6957.434l-34.983,18.965h-.151l35.135-19.047Z" fill="#e5c3c8"/>
                <path id="Trazado_718417" data-name="Trazado 718417" d="M10802.635,6957.516,10767.8,6976.4h-.151l34.983-18.965Z" fill="#e6c4c9"/>
                <path id="Trazado_718418" data-name="Trazado 718418" d="M10802.635,6957.6l-34.68,18.8h-.152l34.832-18.883Z" fill="#e7c5ca"/>
                <path id="Trazado_718419" data-name="Trazado 718419" d="M10802.635,6957.68l-34.528,18.718h-.151l34.68-18.8Z" fill="#e8c6ca"/>
                <path id="Trazado_718420" data-name="Trazado 718420" d="M10802.635,6957.762l-34.377,18.636h-.151l34.528-18.718Z" fill="#e8c6ca"/>
                <path id="Trazado_718421" data-name="Trazado 718421" d="M10802.635,6957.844l-34.226,18.554h-.151l34.377-18.636Z" fill="#e9c7cb"/>
                <path id="Trazado_718422" data-name="Trazado 718422" d="M10802.635,6957.927l-34.074,18.472h-.151l34.226-18.554Z" fill="#eac8cb"/>
                <path id="Trazado_718423" data-name="Trazado 718423" d="M10802.635,6958.009l-33.922,18.39h-.152l34.074-18.472Z" fill="#ecc9cb"/>
                <path id="Trazado_718424" data-name="Trazado 718424" d="M10802.635,6958.091l-33.771,18.308h-.151l33.922-18.39Z" fill="#ecc9cc"/>
                <path id="Trazado_718425" data-name="Trazado 718425" d="M10802.635,6958.173l-33.619,18.225h-.151l33.771-18.308Z" fill="#edcacc"/>
                <path id="Trazado_718426" data-name="Trazado 718426" d="M10802.635,6958.255l-33.468,18.143h-.151l33.619-18.225Z" fill="#eecbcc"/>
                <path id="Trazado_718427" data-name="Trazado 718427" d="M10802.635,6958.337l-33.316,18.061h-.151l33.468-18.143Z" fill="#efcccc"/>
                <path id="Trazado_718428" data-name="Trazado 718428" d="M10802.635,6958.419l-33.164,17.979h-.152l33.316-18.061Z" fill="#f0cccd"/>
                <path id="Trazado_718429" data-name="Trazado 718429" d="M10802.635,6958.5l-33.013,17.9h-.151l33.164-17.979Z" fill="#f1cdcd"/>
                <path id="Trazado_718430" data-name="Trazado 718430" d="M10769.622,6976.4l33.013-17.9v17.9Z" fill="#f1cdcd"/>
              </g>
            </g>
          </g>
          <g id="Grupo_1015592" data-name="Grupo 1015592">
            <g id="Grupo_1015591" data-name="Grupo 1015591">
              <ellipse id="Elipse_8419" data-name="Elipse 8419" cx="2.315" cy="6.557" rx="2.315" ry="6.557" transform="translate(10773.04 6989.194) rotate(-45.219)" fill="#f1cdcd"/>
            </g>
          </g>
          <g id="Grupo_1015593" data-name="Grupo 1015593">
            <path id="Trazado_718432" data-name="Trazado 718432" d="M10808.231,6972.162c-2.175-.52-7.93-7.258-8.34-9.88l-.942-7.5c-7.381,6.87-19.624,1.992-31.4,12.049-12.263,1.727,6.148-39.969,36.794-18l4.665,19.085Z" fill="#623d3d"/>
          </g>
          <g id="Grupo_1015594" data-name="Grupo 1015594">
            <path id="Trazado_718433" data-name="Trazado 718433" d="M10778.927,6991.038c.213-2.381-5.435-12.468-7.431-14.217l-4.9-4.142c-2.354-1.994-.463-5.223,3.145-7.546,0,0-4.967-3.166-7.623,1.785a6.871,6.871,0,0,0,1.619,8.619l10.481,11.528Z" fill="#623d3d"/>
          </g>
          <g id="Grupo_1015595" data-name="Grupo 1015595">
            <path id="Trazado_718434" data-name="Trazado 718434" d="M10796.879,7006.639l-.2-.9c7.25-1.607,12.3-4.693,15.014-9.175,3.313-5.474,2.326-11.761,1.443-15.02l.891-.242c.921,3.4,1.944,9.971-1.545,15.739C10809.635,7001.747,10804.385,7004.976,10796.879,7006.639Z" fill="#d0918d"/>
          </g>
          <g id="Grupo_1015597" data-name="Grupo 1015597">
            <g id="Grupo_1015596" data-name="Grupo 1015596">
              <path id="Trazado_718435" data-name="Trazado 718435" d="M10809.4,6976.221c1.52,4.055,3.067,5.7,4.485,5.129s2.511-5.08.991-9.135-3.672-7.027-6.5-5.549C10807.022,6967.375,10807.876,6972.166,10809.4,6976.221Z" fill="#f1dede"/>
            </g>
          </g>
          <g id="Grupo_1015598" data-name="Grupo 1015598">
            <path id="Trazado_718436" data-name="Trazado 718436" d="M10794.1,6986.292a2.423,2.423,0,0,1-1.159-.3c-1.906-1.025-3.614-8-3.8-8.793l.9-.214c.675,2.837,2.18,7.569,3.343,8.2,1.411.758,2.761-1.018,2.774-1.036l.738.551A3.839,3.839,0,0,1,10794.1,6986.292Z" fill="#d0918d"/>
          </g>
          <g id="Grupo_1015599" data-name="Grupo 1015599">
            <path id="Trazado_718437" data-name="Trazado 718437" d="M10804.715,6987.845c-2.963-.823-6.2.128-9.766,3.288l1.767,1.826C10798.535,6992.271,10801.077,6989.328,10804.715,6987.845Z" fill="#fff"/>
          </g>
          <g id="Grupo_1015600" data-name="Grupo 1015600">
            <path id="Trazado_718438" data-name="Trazado 718438" d="M10795.243,6991.487l-.588-.709c4.361-3.621,7.892-4.616,11.8-3.329l-.288.876C10802.549,6987.134,10799.385,6988.05,10795.243,6991.487Z" fill="#d0918d"/>
          </g>
          <g id="Grupo_1015601" data-name="Grupo 1015601">
            <path id="Trazado_718439" data-name="Trazado 718439" d="M10796.795,6993.424a1.075,1.075,0,0,1-.138-.008l.118-.915c.325.041,1.213-.672,2-1.3,1.8-1.435,4.259-3.4,7.484-3.772l.105.916c-2.962.34-5.306,2.211-7.016,3.576C10798.231,6992.815,10797.467,6993.424,10796.795,6993.424Z" fill="#d0918d"/>
          </g>
          <g id="Grupo_1015602" data-name="Grupo 1015602">
            <path id="Trazado_718440" data-name="Trazado 718440" d="M10806.294,6989.057a3.162,3.162,0,0,0-.2-.578,1.825,1.825,0,0,1,.064-1.925l.77.508c-.248.376-.179.586.019,1.067a4.071,4.071,0,0,1,.247.747Z" fill="#d0918d"/>
          </g>
          <g id="Grupo_1015603" data-name="Grupo 1015603">
            <path id="Trazado_718441" data-name="Trazado 718441" d="M10799.6,6995.087l-.859-.333c.838-2.172,2.705-2.662,4.236-2.846l.11.916C10801.168,6993.054,10800.125,6993.731,10799.6,6995.087Z" fill="#d0918d"/>
          </g>
          <g id="Grupo_1015604" data-name="Grupo 1015604">
            <path id="Trazado_718442" data-name="Trazado 718442" d="M10795.3,6995.59c-.095-.282-.918-.644-1.979-.57l-.064-.919c1.221-.089,2.612.3,2.917,1.192Z" fill="#d0918d"/>
          </g>
          <g id="Grupo_1015605" data-name="Grupo 1015605">
            <rect id="Rectángulo_348149" data-name="Rectángulo 348149" width="1.555" height="0.922" transform="matrix(0.756, -0.654, 0.654, 0.756, 10795.624, 6984.567)" fill="#776161"/>
          </g>
          <g id="Grupo_1015606" data-name="Grupo 1015606">
            <path id="Trazado_718443" data-name="Trazado 718443" d="M10792.767,6987.512a1.8,1.8,0,0,1-1.284-.877,2.393,2.393,0,0,1,.1-2.038l.854.346a1.646,1.646,0,0,0-.142,1.265.948.948,0,0,0,.672.4Z" fill="#d0918d"/>
          </g>
          <g id="Grupo_1015607" data-name="Grupo 1015607">
            <path id="Trazado_718444" data-name="Trazado 718444" d="M10798.278,6983.775a2,2,0,0,0-.61-1.456,1.44,1.44,0,0,0-1.137-.367l-.083-.918a2.364,2.364,0,0,1,1.84.6,2.935,2.935,0,0,1,.912,2.132Z" fill="#d0918d"/>
          </g>
          <g id="Grupo_1015608" data-name="Grupo 1015608">
            <path id="Trazado_718445" data-name="Trazado 718445" d="M10793.886,6974.268c.693,1.076,1.433.371,2.313-.2s1.566-.781.874-1.857a1.934,1.934,0,1,0-3.187,2.053Z"/>
          </g>
          <g id="Grupo_1015609" data-name="Grupo 1015609">
            <path id="Trazado_718446" data-name="Trazado 718446" d="M10796.517,6970.807a.953.953,0,1,1-1.316-.285A.953.953,0,0,1,10796.517,6970.807Z" fill="#f1cdcd"/>
          </g>
          <g id="Grupo_1015610" data-name="Grupo 1015610">
            <ellipse id="Elipse_8420" data-name="Elipse 8420" cx="1.895" cy="2.154" rx="1.895" ry="2.154" transform="matrix(0.841, -0.542, 0.542, 0.841, 10780.41, 6979.544)"/>
          </g>
          <g id="Grupo_1015611" data-name="Grupo 1015611">
            <path id="Trazado_718447" data-name="Trazado 718447" d="M10784.075,6977.688a.954.954,0,1,1-1.318-.285A.954.954,0,0,1,10784.075,6977.688Z" fill="#f1cdcd"/>
          </g>
          <g id="Grupo_1015612" data-name="Grupo 1015612">
            <path id="Trazado_718448" data-name="Trazado 718448" d="M10788.687,6971.09l-1.149-1.44a10.981,10.981,0,0,1,5.561-2.092c1.888-.306,3.249-.527,4.158-2.054l1.584.942c-1.348,2.267-3.431,2.6-5.446,2.932A9.349,9.349,0,0,0,10788.687,6971.09Z" fill="#623d3d"/>
          </g>
          <g id="Grupo_1015613" data-name="Grupo 1015613">
            <path id="Trazado_718449" data-name="Trazado 718449" d="M10792.745,6974.808l-.907-.164a4.561,4.561,0,0,1,6.323-4.073l-.227.894a3.666,3.666,0,0,0-5.189,3.343Z" fill="#d0918d"/>
          </g>
          <g id="Grupo_1015614" data-name="Grupo 1015614">
            <path id="Trazado_718450" data-name="Trazado 718450" d="M10780.5,6981.606l-.907-.162a4.548,4.548,0,0,1,6.324-4.073l-.229.893a3.654,3.654,0,0,0-5.187,3.342Z" fill="#d0918d"/>
          </g>
          <g id="Grupo_1015615" data-name="Grupo 1015615">
            <path id="Trazado_718451" data-name="Trazado 718451" d="M10775.743,6977.893l-1.225-1.378c3.085-2.74,5.507-6.449,6.023-9.228l1.812.338C10781.759,6970.824,10779.164,6974.855,10775.743,6977.893Z" fill="#623d3d"/>
          </g>
          <g id="Grupo_1015616" data-name="Grupo 1015616">
            <path id="Trazado_718452" data-name="Trazado 718452" d="M10812.024,6978.353l-.458-2.109.095-.157a1.555,1.555,0,0,0,.089-1.611.954.954,0,0,0-.845-.5l-.289.015-.141-.253c-1.646-3-2.035-5.351-1.016-6.137.277-.213,1.055-.581,2.3.6l-.636.668c-.53-.5-.955-.652-1.1-.541-.314.242-.444,1.765,1.14,4.736a1.912,1.912,0,0,1,1.378.934,2.423,2.423,0,0,1,0,2.4l.382,1.76Z" fill="#d0918d"/>
          </g>
          <g id="Grupo_1015617" data-name="Grupo 1015617">
            <rect id="Rectángulo_348150" data-name="Rectángulo 348150" width="0.922" height="7.656" transform="matrix(0.753, -0.658, 0.658, 0.753, 10778.579, 6991.341)" fill="#d0918d"/>
          </g>
          <g id="Grupo_1015618" data-name="Grupo 1015618">
            <rect id="Rectángulo_348151" data-name="Rectángulo 348151" width="8.032" height="0.922" transform="matrix(0.671, -0.741, 0.741, 0.671, 10798.607, 6954.477)"/>
          </g>
          <g id="Grupo_1015619" data-name="Grupo 1015619">
            <path id="Trazado_718453" data-name="Trazado 718453" d="M10787.955,6975.293c-1.642-.6-2.7-1.973-3.244-4.207l.9-.217c.469,1.937,1.314,3.068,2.662,3.558Z" fill="#d0918d"/>
          </g>
          <g id="Grupo_1015620" data-name="Grupo 1015620">
            <path id="Trazado_718454" data-name="Trazado 718454" d="M10798.042,6980.66l-.553-.738c2.442-1.828,4.8-2.507,7.008-2.018l-.2.9C10802.338,6978.37,10800.291,6978.976,10798.042,6980.66Z" fill="#d0918d"/>
          </g>
          <g id="Grupo_1015621" data-name="Grupo 1015621">
            <path id="Trazado_718455" data-name="Trazado 718455" d="M10767.717,6967.017c-2.405-.034-3.785-.806-4.1-2.3l.9-.192c.08.378.324,1.526,3.213,1.566Z"/>
          </g>
          <g id="Grupo_1015622" data-name="Grupo 1015622">
            <path id="Trazado_718456" data-name="Trazado 718456" d="M10769.03,6963.17l-.782-.489c4.246-6.791,10.219-7.623,16-8.427,5.207-.725,10.591-1.475,15-6.508l.693.608c-4.641,5.291-10.2,6.064-15.571,6.813C10778.548,6955.977,10773.048,6956.743,10769.03,6963.17Z"/>
          </g>
          <g id="Grupo_1015623" data-name="Grupo 1015623">
            <path id="Trazado_718457" data-name="Trazado 718457" d="M10799.915,6948.381l-.642-.662a31.548,31.548,0,0,0,3.15-4.023l.755.53A32.15,32.15,0,0,1,10799.915,6948.381Z" fill="#623d3d"/>
          </g>
          <g id="Grupo_1015624" data-name="Grupo 1015624">
            <path id="Trazado_718458" data-name="Trazado 718458" d="M10768.2,6945.3c-7.221,9.188-7.956,14.829-2.325,16.988Z" fill="#623d3d"/>
          </g>
          <g id="Grupo_1015625" data-name="Grupo 1015625">
            <path id="Trazado_718459" data-name="Trazado 718459" d="M10765.713,6962.721a7.122,7.122,0,0,1-2.573-1.6l.647-.656a6.2,6.2,0,0,0,2.248,1.392Z"/>
          </g>
          <g id="Grupo_1015626" data-name="Grupo 1015626">
            <path id="Trazado_718460" data-name="Trazado 718460" d="M10791.383,6949.824l-.509-.768a13.458,13.458,0,0,0,6.267-9.751l.914.12A14.343,14.343,0,0,1,10791.383,6949.824Z" fill="#623d3d"/>
          </g>
          <g id="Grupo_1015627" data-name="Grupo 1015627">
            <path id="Trazado_718461" data-name="Trazado 718461" d="M10794.984,6999.626a2.008,2.008,0,0,1-.647-2.46l.876.287c-.279.856.022,1.214.316,1.43Z" fill="#fff"/>
          </g>
          <g id="Grupo_1015628" data-name="Grupo 1015628">
            <rect id="Rectángulo_348152" data-name="Rectángulo 348152" width="6.887" height="1.844" transform="translate(10792.604 6975.426) rotate(-28.454)" fill="#bb88b2"/>
          </g>
          <g id="Grupo_1015629" data-name="Grupo 1015629">
            <rect id="Rectángulo_348153" data-name="Rectángulo 348153" width="5.598" height="1.843" transform="translate(10781.103 6983.479) rotate(-28.468)" fill="#bb88b2"/>
          </g>
          <g id="Grupo_1015630" data-name="Grupo 1015630">
            <path id="Trazado_718462" data-name="Trazado 718462" d="M10794.061,6994.759c-.293-1.2.993-2.358,1.873-2.8l.417.822c-.768.389-1.529,1.21-1.394,1.764Z" fill="#d0918d"/>
          </g>
          <g id="Grupo_1015631" data-name="Grupo 1015631">
            <path id="Trazado_718463" data-name="Trazado 718463" d="M10769.876,6950.906l-.679-.624c6.473-7.036,14.06-9.543,23.187-7.664l-.185.9C10783.412,6941.715,10776.111,6944.129,10769.876,6950.906Z" fill="#fff"/>
          </g>
          <g id="Grupo_1015632" data-name="Grupo 1015632">
            <path id="Trazado_718464" data-name="Trazado 718464" d="M10775.793,6951.25a5.724,5.724,0,0,1-1.107-5.24c1.027-3.133,5.172-5.858,12.671-8.333l.288.875c-7.1,2.344-11.167,4.95-12.083,7.745a4.792,4.792,0,0,0,.982,4.418Z" fill="#623d3d"/>
          </g>
        </g>
        <g id="Grupo_1015634" data-name="Grupo 1015634">
          <path id="Trazado_718465" data-name="Trazado 718465" d="M10792.9,7026.219a67.024,67.024,0,0,1-11.537-1.068l.159-.908c18.97,3.321,32.431-.935,41.147-13.011l.747.539C10816.481,7021.383,10806.244,7026.219,10792.9,7026.219Z" fill="#b7841d"/>
        </g>
        <g id="Grupo_1015635" data-name="Grupo 1015635">
          <path id="Trazado_718466" data-name="Trazado 718466" d="M10796.534,7019.126a34.5,34.5,0,0,1-10.878-1.711l.288-.876c7.6,2.5,15.969,2.185,25.565-.977l.288.876A48.793,48.793,0,0,1,10796.534,7019.126Z" fill="#b7841d"/>
        </g>
        <g id="Grupo_1015636" data-name="Grupo 1015636">
          <path id="Trazado_718467" data-name="Trazado 718467" d="M10772.772,7026.908q3.538,4.121,2.358,8.246c-8.262,1.774-13.354-2.361-18.4-6.575Z" fill="#fff"/>
        </g>
        <g id="Grupo_1015637" data-name="Grupo 1015637">
          <path id="Trazado_718468" data-name="Trazado 718468" d="M10771.373,7036.029c-6.439,0-10.915-3.737-14.939-7.1l.591-.707c4.792,4,9.742,8.136,17.735,6.536.624-2.522-.143-5-2.338-7.553l.7-.6c2.455,2.861,3.28,5.779,2.453,8.674l-.076.265-.271.058A18.261,18.261,0,0,1,10771.373,7036.029Z" fill="#bdbdd5"/>
        </g>
        <g id="Grupo_1015638" data-name="Grupo 1015638">
          <path id="Trazado_718469" data-name="Trazado 718469" d="M10773.187,7027.107l-.829-.4c4.667-9.689,14.905-12.979,22.2-14.611l.2.9C10787.651,7014.587,10777.681,7017.779,10773.187,7027.107Z" fill="#bdbdd5"/>
        </g>
        <g id="Grupo_1015639" data-name="Grupo 1015639">
          <path id="Trazado_718470" data-name="Trazado 718470" d="M10745.044,7029.464c-5.022,0-10.154-.226-15.351-.677l.079-.918a168.468,168.468,0,0,0,26.923.25l.067.919C10752.94,7029.322,10749.026,7029.464,10745.044,7029.464Z" fill="#d2c7bd"/>
        </g>
        <g id="Grupo_1015640" data-name="Grupo 1015640">
          <path id="Trazado_718471" data-name="Trazado 718471" d="M10759.762,7021.612c-4.905,0-11.434-1.557-21.856-5.774l.346-.854c21.018,8.5,25.58,6.158,33.859,1.906a67.914,67.914,0,0,1,19.561-7.051l.183.9a67.05,67.05,0,0,0-19.321,6.967C10768.3,7019.882,10764.933,7021.612,10759.762,7021.612Z" fill="#bdbdd5"/>
        </g>
        <g id="Grupo_1015641" data-name="Grupo 1015641">
          <path id="Trazado_718472" data-name="Trazado 718472" d="M10769.522,7028.692a5.48,5.48,0,0,1-3.771-1.459l.652-.651a4.593,4.593,0,0,0,3.118,1.188h0a4.053,4.053,0,0,0,2.92-1.188l.651.651a4.949,4.949,0,0,1-3.57,1.459Z" fill="#bdbdd5"/>
        </g>
        <g id="Grupo_1015642" data-name="Grupo 1015642">
          <path id="Trazado_718473" data-name="Trazado 718473" d="M10757.062,7029.058a3.329,3.329,0,0,1-.391-.022l.116-.915c1.133.14,4-.616,4.677-1.529l.743.546C10761.334,7028.323,10758.524,7029.058,10757.062,7029.058Z" fill="#bdbdd5"/>
        </g>
        <g id="Grupo_1015643" data-name="Grupo 1015643">
          <path id="Trazado_718474" data-name="Trazado 718474" d="M10765.966,7008.377a24.728,24.728,0,0,1-13.348-3.454,12.751,12.751,0,0,1-6.155-10.246l.92-.054a11.865,11.865,0,0,0,5.735,9.526c6.261,4.044,16.727,4.363,26.042.8l.329.86A38.179,38.179,0,0,1,10765.966,7008.377Z" fill="#bdbdd5"/>
        </g>
        <g id="Grupo_1015644" data-name="Grupo 1015644">
          <path id="Trazado_718475" data-name="Trazado 718475" d="M10781.35,7057.029l-23.608-23.62-9.771-2.167v24.185C10759.378,7061.027,10770.287,7060.207,10781.35,7057.029Z" fill="#bdbdd5"/>
        </g>
        <g id="Grupo_1015645" data-name="Grupo 1015645">
          <path id="Trazado_718476" data-name="Trazado 718476" d="M10790.889,7047.876a74.359,74.359,0,0,1-11.637-.982l.146-.91c15.484,2.458,27.44.254,36.552-6.741l.562.731C10809.626,7045.259,10801.178,7047.876,10790.889,7047.876Z" fill="#bdbdd5"/>
        </g>
        <g id="Grupo_1015646" data-name="Grupo 1015646">
          <path id="Trazado_718477" data-name="Trazado 718477" d="M10758.115,7043.962l-.238-.891a103.716,103.716,0,0,1,35.447-3.694c8.626.4,13.832.649,21.013-5.666l.608.692c-7.46,6.561-13.113,6.3-21.664,5.894A102.941,102.941,0,0,0,10758.115,7043.962Z" fill="#bdbdd5"/>
        </g>
      </g>
      <g id="Grupo_1015673" data-name="Grupo 1015673">
        <g id="Grupo_1015648" data-name="Grupo 1015648">
          <path id="Trazado_718478" data-name="Trazado 718478" d="M10758,7095.258v-84.967h-87.737C10682.913,7051.435,10716.4,7083.67,10758,7095.258Z" fill="#a15c5c"/>
        </g>
        <g id="Grupo_1015649" data-name="Grupo 1015649">
          <path id="Trazado_718479" data-name="Trazado 718479" d="M10763.464,7017.4h-90.295l-2.91-7.1h93.205Z" fill="#a15c5c"/>
        </g>
        <g id="Grupo_1015650" data-name="Grupo 1015650">
          <path id="Trazado_718480" data-name="Trazado 718480" d="M10695.583,7017.4h-23.31l-2.015-7.1h25.324Z" fill="#f3d3b5"/>
        </g>
        <g id="Grupo_1015651" data-name="Grupo 1015651">
          <path id="Trazado_718481" data-name="Trazado 718481" d="M10698.795,7020.492V7059.3c-12.614-14.64-18.093-20.44-25.246-38.812Z" fill="#f3d3b5"/>
        </g>
        <g id="Grupo_1015652" data-name="Grupo 1015652">
          <path id="Trazado_718482" data-name="Trazado 718482" d="M10714.128,7073.4l-7.295-6.134v-44.945h7.295Z" fill="#a15c5c"/>
        </g>
        <g id="Grupo_1015653" data-name="Grupo 1015653">
          <path id="Trazado_718483" data-name="Trazado 718483" d="M10704.943,7065.6l-2.115-2.021v-43.088h2.115Z" fill="#632b2b"/>
        </g>
        <g id="Grupo_1015654" data-name="Grupo 1015654">
          <path id="Trazado_718484" data-name="Trazado 718484" d="M10753.963,7092.713l-2.115-.846v-71.375h2.115Z" fill="#f3d3b5"/>
        </g>
        <g id="Grupo_1015655" data-name="Grupo 1015655">
          <path id="Trazado_718485" data-name="Trazado 718485" d="M10758,7020.492h-83.146l-1.681-3.1H10758Z" fill="#632b2b"/>
        </g>
        <g id="Grupo_1015656" data-name="Grupo 1015656">
          <path id="Trazado_718486" data-name="Trazado 718486" d="M10672.534,7017.4h26.261v3.1h-25.1Z" fill="#a15c5c"/>
        </g>
        <g id="Grupo_1015659" data-name="Grupo 1015659">
          <g id="Grupo_1015657" data-name="Grupo 1015657">
            <circle id="Elipse_8421" data-name="Elipse 8421" cx="2.753" cy="2.753" r="2.753" transform="translate(10729.733 7027.952)" fill="#632b2b"/>
          </g>
          <g id="Grupo_1015658" data-name="Grupo 1015658">
            <circle id="Elipse_8422" data-name="Elipse 8422" cx="2.753" cy="2.753" r="2.753" transform="translate(10728.041 7026.908)" fill="#f3d3b5"/>
          </g>
        </g>
        <g id="Grupo_1015662" data-name="Grupo 1015662">
          <g id="Grupo_1015660" data-name="Grupo 1015660">
            <circle id="Elipse_8423" data-name="Elipse 8423" cx="2.753" cy="2.753" r="2.753" transform="translate(10729.327 7063.036) rotate(-80.783)" fill="#632b2b"/>
          </g>
          <g id="Grupo_1015661" data-name="Grupo 1015661">
            <circle id="Elipse_8424" data-name="Elipse 8424" cx="2.753" cy="2.753" r="2.753" transform="translate(10728.041 7056.963)" fill="#f3d3b5"/>
          </g>
        </g>
        <g id="Grupo_1015663" data-name="Grupo 1015663">
          <path id="Trazado_718487" data-name="Trazado 718487" d="M10702.828,7063.58l-4.033-4.276v-38.812h4.033Z" fill="#a15c5c"/>
        </g>
        <g id="Grupo_1015664" data-name="Grupo 1015664">
          <path id="Trazado_718488" data-name="Trazado 718488" d="M10758,7095.258l-4.033-2.545v-72.221H10758Z" fill="#a15c5c"/>
        </g>
        <g id="Grupo_1015665" data-name="Grupo 1015665">
          <rect id="Rectángulo_348154" data-name="Rectángulo 348154" width="46.904" height="0.922" transform="translate(10704.943 7050.778)" fill="#632b2b"/>
        </g>
        <g id="Grupo_1015666" data-name="Grupo 1015666" opacity="0.29">
          <path id="Trazado_718489" data-name="Trazado 718489" d="M10763.464,7010.292h-93.205c12.654,41.143,46.139,73.378,87.737,84.966V7017.4h5.468Z" fill="#ab72ac"/>
        </g>
        <g id="Grupo_1015667" data-name="Grupo 1015667">
          <rect id="Rectángulo_348155" data-name="Rectángulo 348155" width="93.204" height="0.922" transform="translate(10670.259 7009.831)" fill="#fff"/>
        </g>
        <g id="Grupo_1015668" data-name="Grupo 1015668">
          <rect id="Rectángulo_348156" data-name="Rectángulo 348156" width="0.922" height="77.861" transform="translate(10757.535 7017.397)" fill="#632b2b"/>
        </g>
        <g id="Grupo_1015669" data-name="Grupo 1015669">
          <rect id="Rectángulo_348157" data-name="Rectángulo 348157" width="90.295" height="0.922" transform="translate(10673.169 7016.936)" fill="#632b2b"/>
        </g>
        <g id="Grupo_1015670" data-name="Grupo 1015670">
          <rect id="Rectángulo_348158" data-name="Rectángulo 348158" width="0.922" height="7.105" transform="translate(10763.003 7010.292)" fill="#632b2b"/>
        </g>
        <g id="Grupo_1015671" data-name="Grupo 1015671">
          <path id="Trazado_718490" data-name="Trazado 718490" d="M10762.166,7095.128l-.457-.062a14.859,14.859,0,0,0,.24-2.841c0-.386-.01-.915.012-1.866.052-2.257-.105-4.772-1.675-6.311l-.491-.482.683.089a5.613,5.613,0,0,0,2.427-.035,1.825,1.825,0,0,0,1.308-1.463,8.093,8.093,0,0,1-4.263-3.087l-.3-.421.511.059a.327.327,0,0,0,.27-.081,1.58,1.58,0,0,0,.393-.994,48.588,48.588,0,0,0-.55-10.181l.458-.057a48.96,48.96,0,0,1,.551,10.278,2.034,2.034,0,0,1-.561,1.311.81.81,0,0,1-.182.114,7.753,7.753,0,0,0,3.96,2.664l.155.044.013.161a2.2,2.2,0,0,1-1.624,2.092,4.915,4.915,0,0,1-2.02.128c1.306,1.662,1.443,4.037,1.394,6.183-.021.942-.015,1.467-.011,1.849A15.254,15.254,0,0,1,10762.166,7095.128Z" fill="#632b2b"/>
        </g>
        <g id="Grupo_1015672" data-name="Grupo 1015672">
          <path id="Trazado_718491" data-name="Trazado 718491" d="M10760.081,7064.007a26.146,26.146,0,0,1-.312-6.453l.387-11.123.461.016-.386,11.123a25.79,25.79,0,0,0,.3,6.34Z" fill="#632b2b"/>
        </g>
      </g>
      <g id="Grupo_1015674" data-name="Grupo 1015674">
        <path id="Trazado_718492" data-name="Trazado 718492" d="M10936.8,6910.092a156.423,156.423,0,0,0-65.506-74.223h-156.01a155.726,155.726,0,1,0,221.516,74.223Zm-174.482,183.826-.452-.115q-1.715-.435-3.412-.919c-.154-.044-.308-.087-.461-.133s-.307-.088-.46-.133q-1.8-.527-3.573-1.1-1.061-.345-2.115-.708a126.767,126.767,0,0,1-37.72-20.773q-3.766-3.007-7.295-6.288-.952-.885-1.889-1.792-1.071-1.038-2.116-2.1-2.067-2.1-4.033-4.286a127.364,127.364,0,0,1-10.579-13.5q-1.78-2.615-3.428-5.321-.965-1.578-1.88-3.184l-.057-.1-.012-.021q-.359-.628-.71-1.265-.513-.925-1.011-1.861t-.981-1.88c-.162-.315-.321-.63-.479-.947q-.476-.948-.935-1.907c-.153-.319-.306-.64-.456-.961q-.454-.962-.888-1.933c-.056-.124-.112-.247-.166-.371h0v0q-.4-.906-.793-1.821c-.1-.244-.209-.49-.309-.736q-.4-.945-.778-1.9c-.012-.026-.022-.052-.032-.078-.051-.128-.1-.255-.151-.383-.062-.153-.122-.307-.181-.46-.021-.05-.04-.1-.059-.15q-.388-1-.76-2-.186-.5-.367-1.006c-.236-.652-.465-1.308-.69-1.966-.122-.353-.24-.706-.357-1.061-.053-.154-.1-.307-.151-.46h0c-.05-.154-.1-.307-.15-.461-.122-.38-.241-.76-.36-1.141-.089-.278-.176-.558-.26-.837-.049-.161-.1-.322-.146-.485-.064-.211-.129-.423-.19-.634-.021-.071-.042-.142-.062-.213-.091-.308-.18-.618-.27-.929-.095-.336-.19-.673-.282-1.011-.008-.026-.016-.052-.022-.079-.089-.321-.175-.641-.261-.963l-.017-.063q-.135-.5-.265-1.011v-.006c-.082-.315-.161-.63-.24-.945-.018-.07-.033-.139-.052-.21-.078-.315-.156-.632-.23-.95s-.15-.63-.223-.946c-.016-.07-.033-.138-.048-.208-.069-.3-.136-.6-.2-.9q-.125-.561-.244-1.127-.111-.532-.221-1.067c-.055-.269-.108-.536-.16-.805-.031-.151-.06-.3-.089-.454q-.17-.88-.326-1.764c-.021-.121-.043-.243-.063-.364-.055-.306-.106-.612-.157-.917-.043-.255-.084-.509-.125-.764l-.029-.18q-.053-.325-.1-.651c-.016-.093-.03-.184-.042-.277-.025-.157-.049-.314-.071-.471-.031-.2-.061-.409-.09-.614-.072-.51-.144-1.02-.209-1.533-.027-.2-.053-.4-.078-.606s-.05-.4-.073-.6c-.044-.358-.086-.715-.126-1.074-.026-.246-.054-.491-.08-.738s-.055-.517-.079-.776c-.021-.2-.041-.406-.06-.608-.036-.368-.069-.738-.1-1.107q-.04-.424-.071-.85c-.007-.067-.011-.135-.016-.2-.055-.671-.1-1.343-.143-2.017-.006-.1-.012-.191-.018-.288q-.029-.478-.054-.959c-.019-.344-.035-.689-.051-1.034,0-.085-.008-.168-.011-.251-.013-.32-.025-.639-.036-.958-.021-.558-.036-1.118-.048-1.677l-.008-.378a.558.558,0,0,0,0-.057c0-.175,0-.349-.006-.525-.007-.272-.01-.545-.011-.818,0-.353,0-.706,0-1.06s0-.706,0-1.06c0-.273,0-.545.011-.817,0-.176,0-.351.006-.525a.558.558,0,0,0,0-.057l.008-.378q.018-.842.048-1.678c.011-.318.023-.636.036-.954,0-.085.007-.169.011-.254q.023-.517.051-1.035c.017-.314.034-.628.054-.94.006-.108.012-.215.019-.321.041-.668.089-1.337.142-2l.016-.206c.021-.271.044-.541.067-.811.032-.383.066-.763.1-1.144q.028-.3.06-.607c.024-.26.052-.521.08-.78.023-.227.049-.453.074-.68.041-.376.084-.753.131-1.128.023-.2.048-.4.073-.6s.051-.4.078-.6q.138-1.062.294-2.115c.027-.185.054-.37.083-.554l.028-.189c.035-.23.07-.459.107-.688.011-.071.022-.141.034-.212.039-.244.079-.489.12-.733q.073-.438.148-.876c.027-.153.054-.3.081-.456q.152-.855.316-1.7c.029-.154.059-.308.09-.463q.078-.4.16-.8.1-.5.2-.992.127-.6.262-1.205c.061-.277.122-.551.187-.827.02-.094.042-.187.063-.281.072-.316.147-.631.223-.947s.152-.634.23-.949c.019-.071.034-.141.052-.21.079-.315.158-.631.24-.946v-.005q.129-.508.265-1.011l.017-.063c.086-.322.172-.642.261-.963.007-.027.015-.053.022-.079.092-.339.188-.675.282-1.011.081-.285.163-.569.247-.851q.207-.708.421-1.41c.084-.279.171-.559.26-.837.112-.365.229-.729.346-1.093.086-.268.174-.535.262-.8q.207-.618.415-1.235c.109-.318.218-.635.33-.951s.217-.618.328-.925h0c.01-.029.02-.056.03-.084.116-.324.234-.649.354-.972l.05-.135v0q.353-.951.723-1.9c.112-.287.225-.575.34-.863.026-.066.051-.132.079-.2q.382-.959.782-1.908.614-1.474,1.271-2.931.434-.97.887-1.931l0-.009q.223-.48.452-.954.458-.959.935-1.907.236-.475.479-.947.482-.946.981-1.88t1.011-1.861q1.282-2.314,2.658-4.569c.095-.16.192-.318.29-.478q1.515-2.457,3.138-4.843a126.911,126.911,0,0,1,93.212-55.106q5.858-.544,11.865-.549a126.627,126.627,0,0,1,48.528,9.6q2.974,1.23,5.873,2.607a126.913,126.913,0,0,1,18.575,10.842q1.906,1.337,3.758,2.745a127.774,127.774,0,0,1,16.622,15.1q1.989,2.157,3.881,4.406a127.3,127.3,0,0,1,10.9,15.072q.668,1.079,1.311,2.17a126.4,126.4,0,0,1,7.368,14.551q.8,1.875,1.545,3.781.409,1.046.8,2.1a126.767,126.767,0,0,1,7.835,44.016v.172a128.053,128.053,0,0,1-1.037,16.125q-.718,5.624-1.923,11.085-.111.507-.228,1.013-.542,2.379-1.175,4.724c-.039.144-.077.287-.117.432s-.086.311-.128.467q-.416,1.5-.871,2.989-.6,1.983-1.267,3.937-.516,1.517-1.068,3.014c-.024.067-.051.135-.074.2q-.415,1.113-.849,2.218-1.731,4.419-3.784,8.673c-.182.378-.365.756-.553,1.131q-.406.829-.829,1.649-.611,1.191-1.246,2.369-.68,1.26-1.387,2.5c-.063.115-.13.229-.2.343q-1,1.748-2.056,3.46l0,0q-3.04,4.932-6.5,9.559-3.35,4.473-7.079,8.634-1.311,1.466-2.669,2.89a127.367,127.367,0,0,1-36.479,26.678,126.062,126.062,0,0,1-29.421,10.051,128.064,128.064,0,0,1-57.026-1.128Z" fill="#fff"/>
      </g>
      <g id="Grupo_1015711" data-name="Grupo 1015711">
        <g id="Grupo_1015675" data-name="Grupo 1015675">
          <path id="Trazado_718493" data-name="Trazado 718493" d="M10822.459,7030.626c6.13-3.98,22.069-39.862,34.748-43.818l8.513,41.771C10849.072,7029.429,10833.529,7030.2,10822.459,7030.626Z" fill="#eabb47" fill-rule="evenodd"/>
        </g>
        <g id="Grupo_1015677" data-name="Grupo 1015677">
          <g id="Grupo_1015676" data-name="Grupo 1015676">
            <path id="Trazado_718494" data-name="Trazado 718494" d="M10866.311,6961.541c21.421.42,33.084,1.58,53.978,9.358.532,43.126-25.071,94.132-75.429,115.867,0,0-11.231-27.05-3.362-54.684,4.126-14.49-16.794-19.742-10.88-28.168C10834.988,6997.686,10872.844,7000.454,10866.311,6961.541Z" fill="#a5e3f0" fill-rule="evenodd"/>
          </g>
        </g>
        <g id="Grupo_1015678" data-name="Grupo 1015678">
          <path id="Trazado_718495" data-name="Trazado 718495" d="M10878.678,6961.961c-3.793-.209-7.85-.332-12.366-.42,6.532,38.913-31.323,36.145-35.694,42.373-5.91,8.419,14.97,13.671,10.888,28.134,24.546-7.454,40.282,2.354,61.163,3.106,9.393-15.211,14.393-32.319,16.584-48.131C10911,6974.81,10893.72,6966.328,10878.678,6961.961Z" fill="#88c9d1"/>
        </g>
        <g id="Grupo_1015679" data-name="Grupo 1015679">
          <path id="Trazado_718496" data-name="Trazado 718496" d="M10858.162,6960.042c16,1.712,25.6,9.877,35.41,16.662,16.348,11.308,31.858,26.238,26.209,41.021-26.237-11.136-45.623-16.988-63.09-25.359Z" fill="#ffd14b" fill-rule="evenodd"/>
        </g>
        <g id="Grupo_1015680" data-name="Grupo 1015680">
          <path id="Trazado_718497" data-name="Trazado 718497" d="M10856.94,6986.892c4.972-1,14.341,6.751,25.4,10.738,1.424.513,19.351-1.3,20.946.717,2.165,2.742-5.948,4.087-4.929,3.918,23.6-3.917,22.19,12.909,21.426,15.46-24.574-9.43-47.43-18.387-63.09-25.36Z" fill="#eabb47" fill-rule="evenodd"/>
        </g>
        <g id="Grupo_1015697" data-name="Grupo 1015697">
          <g id="Grupo_1015681" data-name="Grupo 1015681">
            <path id="Trazado_718498" data-name="Trazado 718498" d="M10839.335,7020.638l-3.5,0c-3.914-8.279-3.6-4.956,1.114-7.727l2.913-3.4c4.563,1.582,12.2-1.506,12.2-1.506l39.233-.37c9.419-1.971,15.235-2.885,19.042-1.817,4.07,1.142,7.878,3.049,9.3,9.859.848,4.047-1.8,8.185-3.175,9.89-3.105,3.846-10.112,2.951-13.084,2.821-14.069-.615-39.148-5.979-44.462-5.319C10855.624,7023.339,10839.335,7020.638,10839.335,7020.638Z" fill="#f1dbdb"/>
          </g>
          <g id="Grupo_1015682" data-name="Grupo 1015682">
            <path id="Trazado_718499" data-name="Trazado 718499" d="M10916.459,7025.576c-3.106,3.846-10.112,2.951-13.084,2.821-14.069-.615-39.148-5.979-44.462-5.319C10877.248,7022.171,10907.119,7027.092,10916.459,7025.576Z" fill="#eebebe"/>
          </g>
          <g id="Grupo_1015683" data-name="Grupo 1015683">
            <path id="Trazado_718500" data-name="Trazado 718500" d="M10919.634,7015.687c-1.425-6.81-5.232-8.718-9.3-9.86-3.807-1.068-9.623-.154-19.042,1.817l-39.233.37C10888.4,7010.68,10911.488,7020.887,10919.634,7015.687Z" fill="#fbf2f2"/>
          </g>
          <g id="Grupo_1015684" data-name="Grupo 1015684">
            <path id="Trazado_718501" data-name="Trazado 718501" d="M10891.384,7008.1l-.188-.9c9.768-2.044,15.428-2.885,19.26-1.81l-.249.887C10906.56,7005.248,10901.006,7006.082,10891.384,7008.1Z" fill="#d0918d"/>
          </g>
          <g id="Grupo_1015685" data-name="Grupo 1015685">
            <path id="Trazado_718502" data-name="Trazado 718502" d="M10858.913,7023.078l-16.477,3.8c-.268.012-3.889.868-4.8-.914-1.094-2.149-.6-2.95-1.3-3.278,0,0-2.368-.724-2.93-1.873-.774-1.581-.158-3.254-.612-3.993s-2.521-1.608-2.77-2.452a4.1,4.1,0,0,1,0-2.249,4.22,4.22,0,0,0-.736-1.649l-.661-.755c-.906-1.471-.806-5.592,4.128-4.673,11.156,2.079,14.209,2.673,24.452,1.509C10857.207,7006.549,10858.945,7012.086,10858.913,7023.078Z" fill="#f1dbdb"/>
          </g>
          <g id="Grupo_1015686" data-name="Grupo 1015686">
            <path id="Trazado_718503" data-name="Trazado 718503" d="M10828.235,7009.955a4.025,4.025,0,0,1,.094-4.1c.586-.855,1.844-1.77,4.511-1.273l-.169.907c-1.723-.322-2.963-.015-3.582.888a3.143,3.143,0,0,0-.07,3.089Z" fill="#d0918d"/>
          </g>
          <g id="Grupo_1015687" data-name="Grupo 1015687">
            <path id="Trazado_718504" data-name="Trazado 718504" d="M10848.669,7007.593c-4.73,0-8.582-.717-15.722-2.048l-.276-.051.169-.907.276.052c11,2.048,13.951,2.6,24.038,1.452l.1.916A75.8,75.8,0,0,1,10848.669,7007.593Z" fill="#d0918d"/>
          </g>
          <g id="Grupo_1015688" data-name="Grupo 1015688">
            <path id="Trazado_718505" data-name="Trazado 718505" d="M10840.335,7027.545c-1.6,0-2.64-.459-3.106-1.374a8.685,8.685,0,0,1-.843-2.458c-.1-.508-.13-.558-.245-.612-.2-.057-2.516-.8-3.147-2.087a5.938,5.938,0,0,1-.471-2.8,2.767,2.767,0,0,0-.12-1.158,4.889,4.889,0,0,0-1.123-.906c-.777-.53-1.512-1.03-1.7-1.659a4.62,4.62,0,0,1-.03-2.412,4.065,4.065,0,0,0-.61-1.311l-.662-.755.693-.608.661.756a4.554,4.554,0,0,1,.849,1.912l.008.094-.03.091a3.679,3.679,0,0,0,.007,1.974c.091.312.808.8,1.33,1.156a4.919,4.919,0,0,1,1.389,1.185,3.1,3.1,0,0,1,.258,1.649,5.117,5.117,0,0,0,.377,2.383c.388.792,2.045,1.448,2.65,1.634a1.474,1.474,0,0,1,.818,1.29,7.7,7.7,0,0,0,.761,2.22c.3.582,1.249,1.177,4.094.7.139-.023.233-.037.271-.038l16.394-3.787.207.9-16.477,3.8c-.1.014-.162.024-.243.038A12.048,12.048,0,0,1,10840.335,7027.545Z" fill="#d0918d"/>
          </g>
          <g id="Grupo_1015689" data-name="Grupo 1015689">
            <path id="Trazado_718506" data-name="Trazado 718506" d="M10842.259,7008.394l-1.864-3.79-4.281-1.982a2.871,2.871,0,0,1-1.629-3.066h0a1.942,1.942,0,0,1,2.013-1.629,9.159,9.159,0,0,0,5.272.923,3.057,3.057,0,0,1,2.734.808c3.291,3.262,9.609,1.085,13.338,8.3C10852.352,7010.045,10846.266,7012.647,10842.259,7008.394Z" fill="#f1dbdb"/>
          </g>
          <g id="Grupo_1015690" data-name="Grupo 1015690">
            <path id="Trazado_718507" data-name="Trazado 718507" d="M10857.432,7008.171c-2.209-4.275-5.283-5.092-8.257-5.882-1.877-.5-3.649-.97-5-2.3a2.588,2.588,0,0,0-2.327-.683,9.615,9.615,0,0,1-5.457-.917,1.477,1.477,0,0,0-1.455,1.244l-.91-.147a2.4,2.4,0,0,1,2.489-2.016l.163.038a8.81,8.81,0,0,0,5.007.891,3.51,3.51,0,0,1,3.14.935c1.171,1.161,2.829,1.6,4.583,2.067,3.021.8,6.442,1.712,8.841,6.35Z" fill="#d0918d"/>
          </g>
          <g id="Grupo_1015691" data-name="Grupo 1015691">
            <path id="Trazado_718508" data-name="Trazado 718508" d="M10835.919,7003.04a3.343,3.343,0,0,1-1.89-3.557l.91.147a2.419,2.419,0,0,0,1.366,2.574Z" fill="#d0918d"/>
          </g>
          <g id="Grupo_1015692" data-name="Grupo 1015692">
            <rect id="Rectángulo_348159" data-name="Rectángulo 348159" width="0.922" height="5.577" transform="translate(10828.332 7010.066) rotate(-50.111)" fill="#d0918d"/>
          </g>
          <g id="Grupo_1015693" data-name="Grupo 1015693">
            <path id="Trazado_718509" data-name="Trazado 718509" d="M10857.666,7009.352a9.19,9.19,0,0,0-5.483-6.175l.39-.836a10.111,10.111,0,0,1,5.967,6.716Z" fill="#d0918d"/>
          </g>
          <g id="Grupo_1015694" data-name="Grupo 1015694">
            <rect id="Rectángulo_348160" data-name="Rectángulo 348160" width="14.415" height="0.922" transform="translate(10844.763 7025.867) rotate(-12.978)" fill="#d0918d"/>
          </g>
          <g id="Grupo_1015695" data-name="Grupo 1015695">
            <rect id="Rectángulo_348161" data-name="Rectángulo 348161" width="0.922" height="13.681" transform="matrix(0.1, -0.995, 0.995, 0.1, 10858.867, 7023.537)" fill="#d0918d"/>
          </g>
          <g id="Grupo_1015696" data-name="Grupo 1015696">
            <rect id="Rectángulo_348162" data-name="Rectángulo 348162" width="33.449" height="0.922" transform="matrix(1, -0.01, 0.01, 1, 10857.837, 7007.504)" fill="#d0918d"/>
          </g>
        </g>
        <g id="Grupo_1015698" data-name="Grupo 1015698">
          <rect id="Rectángulo_348163" data-name="Rectángulo 348163" width="0.922" height="29.093" transform="matrix(0.37, -0.929, 0.929, 0.37, 10852.207, 6991.56)" fill="#b7841d"/>
        </g>
        <g id="Grupo_1015699" data-name="Grupo 1015699">
          <path id="Trazado_718510" data-name="Trazado 718510" d="M10865.568,6993.626c-8.452-2.946-14.116-8.591-16.837-16.776l.875-.291c2.625,7.9,8.1,13.349,16.265,16.2Z" fill="#b7841d"/>
        </g>
        <g id="Grupo_1015700" data-name="Grupo 1015700">
          <path id="Trazado_718511" data-name="Trazado 718511" d="M10894.275,7004.7l-.47-.794c7.373-4.356,14.851-4.355,22.223,0l-.47.794C10908.5,7000.526,10901.337,7000.526,10894.275,7004.7Z" fill="#b7841d"/>
        </g>
        <g id="Grupo_1015701" data-name="Grupo 1015701">
          <path id="Trazado_718512" data-name="Trazado 718512" d="M10908.085,6998.754c-2.767-1.476-6.86-1.121-11.6-.71-5.76.5-12.285,1.066-19.279-1.087l.271-.882c6.821,2.1,13.253,1.543,18.928,1.051,4.884-.424,9.1-.79,12.11.815Z" fill="#b7841d"/>
        </g>
        <g id="Grupo_1015702" data-name="Grupo 1015702">
          <path id="Trazado_718513" data-name="Trazado 718513" d="M10845.488,7039.155l-.555-.737c8.391-6.3,16.116-5.769,25.062-5.155,7.852.541,16.753,1.151,28.35-2.461l.275.88c-11.763,3.663-20.755,3.046-28.688,2.5C10860.81,7033.555,10853.6,7033.061,10845.488,7039.155Z" fill="#6289ab"/>
        </g>
        <g id="Grupo_1015703" data-name="Grupo 1015703">
          <path id="Trazado_718514" data-name="Trazado 718514" d="M10845.671,7064.315l-.921-.043c.7-15.007,5.026-23,14.021-25.924l.283.877C10850.48,7042.01,10846.352,7049.748,10845.671,7064.315Z" fill="#6289ab"/>
        </g>
        <g id="Grupo_1015704" data-name="Grupo 1015704" opacity="0.5">
          <path id="Trazado_718515" data-name="Trazado 718515" d="M10834.614,6965.861c31.7-4.32,47.449,11.706,74.441,23.389-18.351-16.479-35.105-27.8-50.256-29.475C10843.331,6958.065,10837.828,6962.646,10834.614,6965.861Z" fill="#f2eecc" fill-rule="evenodd"/>
        </g>
        <g id="Grupo_1015705" data-name="Grupo 1015705">
          <path id="Trazado_718516" data-name="Trazado 718516" d="M10837.069,6959.919l-.288-.359a9.491,9.491,0,0,1,7.45-1.929,5.049,5.049,0,0,1,3.977-3.251l.112-.015,1.838,1.8c.234.232.415.322.531.274a.627.627,0,0,0,.21-.232l.062-.09c.645-.906,1.853-1.018,3.047-1.011l7.407.058,0,.461-7.407-.058c-1.079-.017-2.146.084-2.668.817l-.054.079a.975.975,0,0,1-.413.4c-.462.193-.894-.229-1.034-.369l-1.676-1.644a4.572,4.572,0,0,0-3.551,3.107l-.061.2-.205-.039A9.013,9.013,0,0,0,10837.069,6959.919Z" fill="#fff"/>
        </g>
        <g id="Grupo_1015706" data-name="Grupo 1015706">
          <path id="Trazado_718517" data-name="Trazado 718517" d="M10884.11,6966.348a12.317,12.317,0,0,0-5.39-2.33l-.219-.017c-.837-.061-1.877-.137-2.264-.977a2.252,2.252,0,0,1-.121-1.1l.21-3.267a7.96,7.96,0,0,0-4.088,2.853l-.367.5-.048-.614c-.048-.607-.652-1.04-1.3-1.417l-4.444-2.6.232-.4,4.443,2.6a3.218,3.218,0,0,1,1.4,1.29,8.3,8.3,0,0,1,4.364-2.739l.306-.076-.251,3.9a1.871,1.871,0,0,0,.08.883c.272.592,1.126.655,1.879.71l.222.017a12.66,12.66,0,0,1,5.6,2.4Z" fill="#fff"/>
        </g>
        <g id="Grupo_1015707" data-name="Grupo 1015707">
          <path id="Trazado_718518" data-name="Trazado 718518" d="M10844.432,7086.938c-5.322-13.178-7.065-28.165-5.33-45.816l.918.091c-1.722,17.5,0,32.343,5.267,45.381Z" fill="#6289ab"/>
        </g>
        <g id="Grupo_1015708" data-name="Grupo 1015708">
          <path id="Trazado_718519" data-name="Trazado 718519" d="M10831.483,6970.6l-.793-.469a22.923,22.923,0,0,1,14.468-10.58c10.1-2.579,22.526.087,34.98,7.5l-.472.792c-12.065-7.185-24.561-9.883-34.282-7.4A22.023,22.023,0,0,0,10831.483,6970.6Z" fill="#fff"/>
        </g>
        <g id="Grupo_1015709" data-name="Grupo 1015709">
          <path id="Trazado_718520" data-name="Trazado 718520" d="M10871.844,7005.568c-5.1-.032-9.046-2.043-12.522-3.817-3.786-1.931-6.777-3.457-9.937-1.787l-.431-.815c3.583-1.9,6.922-.191,10.787,1.781,3.386,1.727,7.224,3.686,12.108,3.716Z" fill="#6289ab"/>
        </g>
        <g id="Grupo_1015710" data-name="Grupo 1015710">
          <path id="Trazado_718521" data-name="Trazado 718521" d="M10849.613,6994.139l-.889-.247c1.045-3.755.082-7.772-2.944-12.282l.765-.514C10849.731,6985.843,10850.734,6990.11,10849.613,6994.139Z" fill="#b7841d"/>
        </g>
      </g>
      <g id="Grupo_1015726" data-name="Grupo 1015726">
        <g id="Grupo_1015716" data-name="Grupo 1015716">
          <g id="Grupo_1015712" data-name="Grupo 1015712">
            <rect id="Rectángulo_348164" data-name="Rectángulo 348164" width="22.111" height="40.898" transform="translate(10666.328 6927.757)" fill="#f3d3b5"/>
          </g>
          <g id="Grupo_1015713" data-name="Grupo 1015713">
            <rect id="Rectángulo_348165" data-name="Rectángulo 348165" width="11.055" height="40.898" transform="translate(10677.87 6927.757)" fill="#a15c5c"/>
          </g>
          <g id="Grupo_1015714" data-name="Grupo 1015714">
            <path id="Trazado_718522" data-name="Trazado 718522" d="M10682.968,6901.235a7.124,7.124,0,0,0-5.1-2.393c-5.116,0-9.263,6.473-9.263,14.458a21.326,21.326,0,0,0,.907,6.211Q10680.045,6915.457,10682.968,6901.235Z" fill="#f3d3b5"/>
          </g>
          <g id="Grupo_1015715" data-name="Grupo 1015715">
            <path id="Trazado_718523" data-name="Trazado 718523" d="M10682.968,6901.235q-2.915,14.231-13.453,18.276c1.49,4.872,4.666,8.246,8.355,8.246,5.116,0,9.264-6.472,9.264-14.457C10687.134,6908.256,10685.476,6903.822,10682.968,6901.235Z" fill="#a15c5c"/>
          </g>
        </g>
        <g id="Grupo_1015719" data-name="Grupo 1015719" opacity="0.29">
          <g id="Grupo_1015717" data-name="Grupo 1015717">
            <path id="Trazado_718524" data-name="Trazado 718524" d="M10688.439,6927.757h-22.111v40.9h22.6v-40.9Z" fill="#ab72ac"/>
          </g>
          <g id="Grupo_1015718" data-name="Grupo 1015718">
            <path id="Trazado_718525" data-name="Trazado 718525" d="M10677.87,6927.757c5.116,0,9.264-6.472,9.264-14.457,0-5.044-1.658-9.478-4.166-12.065a7.122,7.122,0,0,0-5.1-2.393c-5.116,0-9.263,6.473-9.263,14.458a21.326,21.326,0,0,0,.907,6.211C10671,6924.383,10674.181,6927.757,10677.87,6927.757Z" fill="#ab72ac"/>
          </g>
        </g>
        <g id="Grupo_1015725" data-name="Grupo 1015725">
          <g id="Grupo_1015720" data-name="Grupo 1015720">
            <rect id="Rectángulo_348166" data-name="Rectángulo 348166" width="7.718" height="0.922" transform="translate(10681.207 6927.296)" fill="#fff"/>
          </g>
          <g id="Grupo_1015721" data-name="Grupo 1015721">
            <rect id="Rectángulo_348167" data-name="Rectángulo 348167" width="0.922" height="40.22" transform="translate(10688.465 6928.435)" fill="#632b2b"/>
          </g>
          <g id="Grupo_1015722" data-name="Grupo 1015722">
            <path id="Trazado_718526" data-name="Trazado 718526" d="M10677.893,6928.216l-.088-.918a8.255,8.255,0,0,0,6.089-3.82c2.817-4.121,3.431-10.691,1.6-17.146l.887-.251c1.9,6.711,1.24,13.576-1.727,17.917A9.148,9.148,0,0,1,10677.893,6928.216Z" fill="#632b2b"/>
          </g>
          <g id="Grupo_1015723" data-name="Grupo 1015723">
            <rect id="Rectángulo_348168" data-name="Rectángulo 348168" width="9.23" height="0.922" transform="translate(10675.787 6927.297)" fill="#632b2b"/>
          </g>
          <g id="Grupo_1015724" data-name="Grupo 1015724">
            <rect id="Rectángulo_348169" data-name="Rectángulo 348169" width="0.922" height="37.609" transform="translate(10677.409 6933.573)" fill="#632b2b"/>
          </g>
        </g>
      </g>
      <g id="Grupo_1015741" data-name="Grupo 1015741">
        <g id="Grupo_1015739" data-name="Grupo 1015739">
          <g id="Grupo_1015729" data-name="Grupo 1015729">
            <g id="Grupo_1015727" data-name="Grupo 1015727">
              <path id="Trazado_718527" data-name="Trazado 718527" d="M10747.945,6982.094l-.535,2.693-22.011-3.059,1.036-5.22Z" fill="#db3636"/>
            </g>
            <g id="Grupo_1015728" data-name="Grupo 1015728">
              <circle id="Elipse_8425" data-name="Elipse 8425" cx="2.15" cy="2.15" r="2.15" transform="translate(10750.573 6982.293)" fill="#db3636"/>
            </g>
          </g>
          <g id="Grupo_1015732" data-name="Grupo 1015732">
            <g id="Grupo_1015730" data-name="Grupo 1015730">
              <path id="Trazado_718528" data-name="Trazado 718528" d="M10749.677,6974.183l-.8,1.809-15-5.651,1.559-3.507Z" fill="#db3636"/>
            </g>
            <g id="Grupo_1015731" data-name="Grupo 1015731">
              <path id="Trazado_718529" data-name="Trazado 718529" d="M10753.294,6975.178a1.55,1.55,0,1,1-2.046.786A1.549,1.549,0,0,1,10753.294,6975.178Z" fill="#db3636"/>
            </g>
          </g>
          <g id="Grupo_1015735" data-name="Grupo 1015735">
            <g id="Grupo_1015733" data-name="Grupo 1015733">
              <path id="Trazado_718530" data-name="Trazado 718530" d="M10754.354,6969.653l-.987,1.119-9.5-7.456,1.914-2.167Z" fill="#db3636"/>
            </g>
            <g id="Grupo_1015734" data-name="Grupo 1015734">
              <circle id="Elipse_8426" data-name="Elipse 8426" cx="1.168" cy="1.168" r="1.168" transform="translate(10754.787 6970.894)" fill="#db3636"/>
            </g>
          </g>
          <g id="Grupo_1015738" data-name="Grupo 1015738">
            <g id="Grupo_1015736" data-name="Grupo 1015736">
              <path id="Trazado_718531" data-name="Trazado 718531" d="M10821.8,6957.69l-2.742-.146-.105-22.223,5.314.283Z" fill="#fff"/>
            </g>
            <g id="Grupo_1015737" data-name="Grupo 1015737">
              <circle id="Elipse_8427" data-name="Elipse 8427" cx="2.15" cy="2.15" r="2.15" transform="translate(10818.006 6960.604)" fill="#fff"/>
            </g>
          </g>
        </g>
        <g id="Grupo_1015740" data-name="Grupo 1015740">
          <rect id="Rectángulo_348170" data-name="Rectángulo 348170" width="42.393" height="0.922" transform="translate(10688.799 7009.831)" fill="#fff"/>
        </g>
      </g>
      <g id="Grupo_1015742" data-name="Grupo 1015742">
        <path id="Trazado_718532" data-name="Trazado 718532" d="M10815.1,7031.366a210.818,210.818,0,0,1-41.36-3.954l.178-.905c19.642,3.879,39.395,4.859,62.163,3.086l.071.919C10828.856,7031.08,10821.869,7031.366,10815.1,7031.366Z" fill="#85916e"/>
      </g>
    </g>
    <g id="Grupo_1015745" data-name="Grupo 1015745" opacity="0.5">
      <g id="Grupo_1015744" data-name="Grupo 1015744">
        <path id="Trazado_718533" data-name="Trazado 718533" d="M10712.884,6938.119l2.984,2.375a1.2,1.2,0,0,0,1.685-.189l6.208-7.753Z" fill="#f2f2f2"/>
        <path id="Trazado_718534" data-name="Trazado 718534" d="M10716.613,6941.3a1.736,1.736,0,0,1-1.085-.379l-2.984-2.375a.546.546,0,0,1,.68-.854l2.984,2.375a.655.655,0,0,0,.919-.1l6.208-7.753a.546.546,0,1,1,.852.682l-6.208,7.754A1.746,1.746,0,0,1,10716.613,6941.3Z" fill="#fff"/>
      </g>
    </g>
    <path id="Trazado_718535" data-name="Trazado 718535" d="M10948.984,6967.974a170.656,170.656,0,0,1-20.1,80.359c-20.224,37.753-29.877,78.46-30.877,119.521h244.481V6833.067s-224.158-.144-259.687.077A170.133,170.133,0,0,1,10948.984,6967.974Z" fill="#cce7f8"/>
  </g>
</svg>
