<svg xmlns="http://www.w3.org/2000/svg" xmlns:xlink="http://www.w3.org/1999/xlink" width="504.251" height="493.316" viewBox="0 0 504.251 493.316">
  <defs>
    <clipPath id="clip-path">
      <path id="Trazado_720960" data-name="Trazado 720960" d="M695.735,1135.528c-9.31,10.609-20.136,60.733-20.136,60.733s-28.364,69.069-36.591,105.227c2.815,25.982,54.129.65,62.357-8.66s24.683-97.216,24.683-97.216S715.222,1145.271,695.735,1135.528Z" transform="translate(-639.008 -1135.528)" fill="#ffc6a8"/>
    </clipPath>
    <clipPath id="clip-path-2">
      <path id="Trazado_720967" data-name="Trazado 720967" d="M681.982,1500.228c-13.177-.73-36.591,4.547-43.52,29.879-3.753,20.569,25.766,38.107,50.232,35.942s64.522-13.208,88.772-18.548a310.491,310.491,0,0,1,41.138-6.5l5.413-29.519C781.507,1508.672,711.934,1501.888,681.982,1500.228Z" transform="translate(-638.137 -1500.164)" fill="#ffc6a8"/>
    </clipPath>
    <clipPath id="clip-path-3">
      <path id="Trazado_720974" data-name="Trazado 720974" d="M1058.616,1526.068c-11.4,8.516-11.512,24.953-10.646,25.964s16.058,14.452,20.317,16.69,15.661,6.063,15.661,6.063-1.876,5.7,1.155,8.733,14.146,5.846,16.744,5.629,7.578-3.609,8.011-4.258a8.991,8.991,0,0,0,.722-2.454,18.067,18.067,0,0,0,3.32-.505c1.66-.433,5.629-4.907,6.026-5.774a5.5,5.5,0,0,0,.469-1.443,7.6,7.6,0,0,0,2.418-.505c1.624-.541,7.326-3.392,7.326-3.392a4.236,4.236,0,0,0,2.706,1.462,12.441,12.441,0,0,0,8.913-2.111c1.2-.879,2.6-11.692,2.382-15.372s-6.351-16.455-7.073-17.682S1083.3,1527.367,1058.616,1526.068Z" transform="translate(-1047.649 -1526.068)" fill="#ffc6a8"/>
    </clipPath>
    <clipPath id="clip-path-4">
      <path id="Trazado_720979" data-name="Trazado 720979" d="M978.3,876.316c3.1,15.878,4.4,39.262,4.114,56.006-.794.866-2.6,1.588-3.9,2.309-3.176,13.569,14.677,26.782,23.373,28.887,11.331,2.742,30.323-2.905,45.19-17.484-3.9-34.21-2.526-70.367-2.526-70.367C1039.143,869.279,1008.228,861.912,978.3,876.316Z" transform="translate(-978.145 -868.001)" fill="#ffb791"/>
    </clipPath>
    <clipPath id="clip-path-5">
      <path id="Trazado_720986" data-name="Trazado 720986" d="M1151.593,842.847c-10.645,2.851-12.919,8.7-13.243,13.352-.467,6.7,6.605,8.863,10.429,6.64,5.088-2.959,5.125-9.238,3.825-12.341-1.793-4.284-3.464-3.9-3.464-3.9A42.4,42.4,0,0,1,1151.593,842.847Z" transform="translate(-1138.328 -842.847)" fill="#6a422f"/>
    </clipPath>
    <clipPath id="clip-path-6">
      <path id="Trazado_720991" data-name="Trazado 720991" d="M887.473,831.093s-9.815-8.372-18.765-7.506-16.127,14.562-5.7,26.559c9.094,10.465,31.4,9.238,34.138,5.485a8.646,8.646,0,0,0,1.155-7.795Z" transform="translate(-857.85 -823.525)" fill="#ffc6a8"/>
    </clipPath>
    <clipPath id="clip-path-7">
      <path id="Trazado_720997" data-name="Trazado 720997" d="M864.357,415.441c6.735-12.32,1.15-32.524-6.242-37.7-.246,4.682-1.232,10.6-1.232,10.6C849,370.1,824.112,371.829,812.778,374.047c7.885,5.175,8.131,11.827,8.131,11.827-20.7-.986-40.656,16.755-40.656,16.755a22.585,22.585,0,0,1,15.4,1.109c-26.488,14.784-38.726,32.566-46.117,47.35-2.566,5.132-1.807,17.084,2.136,23.49-2.382,4.271.123,13.675.123,13.675L780.3,466.6s-.094-8.6,13.914-17.644c7.884-5.092,58.478-20.451,58.478-20.451C858.937,424.312,864.357,415.441,864.357,415.441Z" transform="translate(-748.042 -372.706)" fill="#263142"/>
    </clipPath>
    <clipPath id="clip-path-8">
      <path id="Trazado_721003" data-name="Trazado 721003" d="M1208.108,1146.556s-22.265,10.645-44.783,54.815c0,0-24.61,51.819-30.673,66.542s-15.3,45.541,7.434,50.087c24.971,2.743,48.427-15.878,56.655-44.891,3.424-12.072,10.006-42.529,12.991-71.017C1213.617,1180.9,1215.361,1156.84,1208.108,1146.556Z" transform="translate(-1125.56 -1146.556)" fill="#ffc6a8"/>
    </clipPath>
    <clipPath id="clip-path-9">
      <path id="Trazado_721013" data-name="Trazado 721013" d="M1143.446,1012.354s-7.253-13.316-9.418-19.27a89.391,89.391,0,0,1-3.356-12.341s-6.6-1.191-8.661-2.6-5.521-19.92-5.088-21.76,4.228-6.428,5.034-7.055a4.272,4.272,0,0,1,2.707-.9s4.385-7.524,5.521-8.119a10.868,10.868,0,0,1,2.328-.866,13.47,13.47,0,0,1,.866-3.789,15.238,15.238,0,0,1,5.593-5.323c1.66-.649,11.872-.144,11.872-.144l-8.552-4.908s-13.352.505-21.579-.866-10.9-10.248-9.238-11.908,15.445.144,18.187.216,15.806-1.227,18.043-.866,17.394,10.176,19.7,11.62,6.351,3.175,7.073,4.547,4.619,44.675,3.248,71.162C1173.867,1008.132,1164.448,1018.2,1143.446,1012.354Z" transform="translate(-1111.005 -911.791)" fill="#ffc6a8"/>
    </clipPath>
  </defs>
  <g id="Grupo_1019730" data-name="Grupo 1019730" transform="translate(-386.459 -267.586)">
    <g id="Grupo_1019696" data-name="Grupo 1019696" transform="translate(386.459 268.48)">
      <path id="Trazado_720951" data-name="Trazado 720951" d="M659.039,403.894c40.409-60.121,180.363-21.19,159.173,71.456,49.28-3.45,62.708,77.492,19.835,103.364,63.2,25.133,82.421,120.858-9.979,158.188,17.371,41.026-12.936,99.791-95.726,98.313-144.882-20.7-183.32-21.437-183.32-21.437-140.078-3.7-148.578-97.943-43.613-141.186C408.2,670,399.334,547.3,472.145,535.84c-22.915-28.828,21.806-143.773,130.838-120.858C649.043,415.269,659.039,403.894,659.039,403.894Z" transform="translate(-424.041 -375.104)" fill="#ebf5ff"/>
      <path id="Trazado_720952" data-name="Trazado 720952" d="M777.614,542.76c49.28-42.38,124.678,8.87,95.11,82.79,39.424,6.407,46.815,57.534,1.355,89.32,106.814,35.481,43.982,126.772,16.632,121.6C915.1,894.494,847.838,925.54,822.7,920S643.82,891.907,643.82,891.907c-106.075-18.11-47.678-125.294-1.848-140.447-109.4-41.765-32.894-106.444-8.131-106.074-24.024-42.873,25.5-87.225,73.181-85.008C757.286,545.224,777.614,542.76,777.614,542.76Z" transform="translate(-524.383 -470.604)" fill="#deeaf6"/>
      <path id="Trazado_720953" data-name="Trazado 720953" d="M841.2,676.828c62.585-36.96,73.673,45.214,57.78,61.476,49.526,9.979,35.851,60.984,5.544,70.593,38.069-4.8,97.943,68.376,15.893,103.117,46.939,25.872-5.174,107.184-89.812,65.049l-40.655-27.719C672.79,973,653.037,861.38,740.426,851.4l15.893-12.566C678.7,804.463,695.335,759,749.3,765.655c-36.96-28.828,2.957-74.659,27.72-76.137S841.2,676.828,841.2,676.828Z" transform="translate(-588.465 -558.349)" fill="#cbdaea"/>
    </g>
    <g id="Grupo_1019729" data-name="Grupo 1019729" transform="translate(442.404 267.586)">
      <g id="Grupo_1019728" data-name="Grupo 1019728" transform="translate(0 0)">
        <g id="Grupo_1019697" data-name="Grupo 1019697" transform="translate(295.891 62.349)">
          <path id="Trazado_720954" data-name="Trazado 720954" d="M1372.953,301.34l-19.661-12.713,11.755-30.175,28.177-8.286L1383.053,226.8l-23.136,5.388.452,22.73-24.524,2.126-2.424-20.9,11.3-32.7,50.227-4.487,20.864,22.254-7.726,51.708-27.519,8.34Zm-25.8,25.709-1.54-15.531,9.712-7.319,22.624,2.853-2.21,20.855Z" transform="translate(-1333.421 -198.958)" fill="#2c4370"/>
        </g>
        <g id="Grupo_1019698" data-name="Grupo 1019698" transform="translate(0 145.289)">
          <path id="Trazado_720955" data-name="Trazado 720955" d="M535.3,835.035l-17.865,1.184-6.574-23.876,13.5-17.952-16.91-9.682-11.728,13.872,10.659,13.733L492.31,824.821l-11.035-11.714-8.005-25.213L502.024,762.2l22.96,4.118,18.88,35.241L530.8,819.243Zm-4.079,27.551-8.039-8.822,2.613-8.924,15.178-8.585,8.17,13.8Z" transform="translate(-473.27 -762.2)" fill="#2c4370"/>
        </g>
        <g id="Grupo_1019699" data-name="Grupo 1019699" transform="translate(386.33 191.297)">
          <path id="Trazado_720956" data-name="Trazado 720956" d="M1542.823,964.868,1527.1,956.3l7.241-23.682,21.013-7.928-9.091-17.235-17.335,5.43,1.643,17.307-18.58,3.022-3.042-15.8,6.749-25.579,38.044-6.29,17.181,15.778-2.939,39.871-20.509,7.932Zm-18.2,21.078-2.061-11.756,6.988-6.135,17.415.883-.494,16.029Z" transform="translate(-1508.953 -885.54)" fill="#2c4370"/>
        </g>
        <g id="Grupo_1019701" data-name="Grupo 1019701" transform="translate(61.824 284.548)">
          <path id="Trazado_720957" data-name="Trazado 720957" d="M695.735,1135.528c-9.31,10.609-20.136,60.733-20.136,60.733s-28.364,69.069-36.591,105.227c2.815,25.982,54.129.65,62.357-8.66s24.683-97.216,24.683-97.216S715.222,1145.271,695.735,1135.528Z" transform="translate(-639.008 -1135.528)" fill="#ffc6a8"/>
          <g id="Grupo_1019700" data-name="Grupo 1019700" clip-path="url(#clip-path)">
            <path id="Trazado_720958" data-name="Trazado 720958" d="M732.653,1496.622c19.342-6.5,39.839-6.928,39.839-6.928l-6.784,12.558Z" transform="translate(-697.722 -1357.583)" fill="#f1a27f"/>
            <path id="Trazado_720959" data-name="Trazado 720959" d="M825.911,1202.569c1.083,13.208,5.485,37.385,5.485,37.963s-.289,31.034-.289,31.034l11.692-39.695Z" transform="translate(-756.192 -1177.561)" fill="#f1a27f"/>
          </g>
        </g>
        <path id="Trazado_720961" data-name="Trazado 720961" d="M865.133,1040.189s54.779-.144,56.078-.144c13.64,6.712,65.929,31.178,78.162,39.081-7.145,20.785-30.854,54.237-43.52,74.049-8.011,43.628-16.888,85.416-16.888,85.416-64.305,2.273-114.7,24.206-136.406-3.572-.974-26.956,11.259-98.84,11.259-98.84-8.444-19.487-18.837-52.072-22.734-60.516Z" transform="translate(-672.533 -791.115)" fill="#3160a3"/>
        <path id="Trazado_720962" data-name="Trazado 720962" d="M704.481,1210.46c-20.681,25.045-25.748,17.166-33.88,42.052s-25.626,77.616-27.6,98.067,26.855,41.61,61.846,35.482c21.806-3.819,59.382-12.566,59.382-12.566s20.33,4.255,23.654,4.353c8.378.247,16.878-19.014,16.878-19.014-11.991-18.234-6.037-31.908-6.037-31.908a22.619,22.619,0,0,0-9.692-12.649c-3.942-2.3-33.51,2.135-33.51,2.135l-41.313-.493c2.464-20.7,9.24-72.934,9.24-72.934C715.4,1207.144,704.481,1210.46,704.481,1210.46Z" transform="translate(-579.63 -897.911)" fill="#2c4370"/>
        <path id="Trazado_720963" data-name="Trazado 720963" d="M1144.665,1208.158s12.073,5.175,16.262,13.059-8.131,31.293-8.87,34.249,1.971,38.192-4.682,68.252-34,35.482-51.251,33.018-26.611-20.944-25.872-44.105,23.654-75.4,23.654-75.4-1.478-14.127,0-18.808,22.915-16.18,36.221-15.195S1144.665,1208.158,1144.665,1208.158Z" transform="translate(-847.541 -893.391)" fill="#2c4370"/>
        <path id="Trazado_720964" data-name="Trazado 720964" d="M1258.723,1184.922c12.125-21.507,27.137-25.693,27.137-25.693l-27.714,39.695Z" transform="translate(-965.372 -865.84)" fill="#263142"/>
        <g id="Grupo_1019703" data-name="Grupo 1019703" transform="translate(61.499 420.564)">
          <path id="Trazado_720965" data-name="Trazado 720965" d="M681.982,1500.228c-13.177-.73-36.591,4.547-43.52,29.879-3.753,20.569,25.766,38.107,50.232,35.942s64.522-13.208,88.772-18.548a310.491,310.491,0,0,1,41.138-6.5l5.413-29.519C781.507,1508.672,711.934,1501.888,681.982,1500.228Z" transform="translate(-638.137 -1500.164)" fill="#ffc6a8"/>
          <g id="Grupo_1019702" data-name="Grupo 1019702" clip-path="url(#clip-path-2)">
            <path id="Trazado_720966" data-name="Trazado 720966" d="M1063.418,1607.075c-.325-.217-14.182-11.692-14.182-11.692s2.815,8.444,7.578,13.316l1.84,4.33S1063.742,1607.291,1063.418,1607.075Z" transform="translate(-895.888 -1559.865)" fill="#f1a27f"/>
          </g>
        </g>
        <g id="Grupo_1019705" data-name="Grupo 1019705" transform="translate(214.255 430.227)">
          <path id="Trazado_720968" data-name="Trazado 720968" d="M1058.616,1526.068c-11.4,8.516-11.512,24.953-10.646,25.964s16.058,14.452,20.317,16.69,15.661,6.063,15.661,6.063-1.876,5.7,1.155,8.733,14.146,5.846,16.744,5.629,7.578-3.609,8.011-4.258a8.991,8.991,0,0,0,.722-2.454,18.067,18.067,0,0,0,3.32-.505c1.66-.433,5.629-4.907,6.026-5.774a5.5,5.5,0,0,0,.469-1.443,7.6,7.6,0,0,0,2.418-.505c1.624-.541,7.326-3.392,7.326-3.392a4.236,4.236,0,0,0,2.706,1.462,12.441,12.441,0,0,0,8.913-2.111c1.2-.879,2.6-11.692,2.382-15.372s-6.351-16.455-7.073-17.682S1083.3,1527.367,1058.616,1526.068Z" transform="translate(-1047.649 -1526.068)" fill="#ffc6a8"/>
          <g id="Grupo_1019704" data-name="Grupo 1019704" clip-path="url(#clip-path-3)">
            <path id="Trazado_720969" data-name="Trazado 720969" d="M1154.8,1660.223l-14.633-3.555-2.851.956,1.895,6.929s-.109-5.413,1.624-6.063,4.33.271,12.558,3.031a13.48,13.48,0,0,0,2,4.385A22.891,22.891,0,0,1,1154.8,1660.223Z" transform="translate(-1103.87 -1607.952)" fill="#f1a27f"/>
            <path id="Trazado_720970" data-name="Trazado 720970" d="M1217.8,1654.353c-.866-1.083-2.8-15.68-2.8-15.68l.505,14.362S1218.663,1655.436,1217.8,1654.353Z" transform="translate(-1152.575 -1596.67)" fill="#f1a27f"/>
            <path id="Trazado_720971" data-name="Trazado 720971" d="M1241.7,1616.23l.361,15.012.758,1.516,1.371.361Z" transform="translate(-1169.315 -1582.598)" fill="#f1a27f"/>
            <path id="Trazado_720972" data-name="Trazado 720972" d="M1266.6,1617.367l.65-17.05,3.464,7.361c-.92-.7-1.678-1.3-1.678-1.3a111.42,111.42,0,0,0-.2,11.385,11.012,11.012,0,0,0,8.263,1.5l-11.8,2,1.3-3.9" transform="translate(-1184.115 -1572.621)" fill="#f1a27f"/>
            <path id="Trazado_720973" data-name="Trazado 720973" d="M1152.017,1543.967c-6.843,7.592-16.9,9.744-26.847,9.925-17.828.324-28.661-4.173-30.068-10.668-1.357-6.264,8.632-19.717,14.478-20.583S1152.017,1543.967,1152.017,1543.967Z" transform="translate(-1077.322 -1523.904)" fill="#f1a27f"/>
          </g>
        </g>
        <path id="Trazado_720975" data-name="Trazado 720975" d="M692.8,1135.528c-14.521,9.4-22.652,48.946-30.783,73.832s-25.626,77.615-27.6,98.067,26.855,41.609,61.846,35.481c21.806-3.819,58.314-8.049,58.314-8.049s27.188-.3,30.513-.205c8.377.246,11.088-18.973,11.088-18.973-11.991-18.234-5.421-33.017-5.421-33.017-1.524-5.484-2.464-10.02-6.406-12.32s-32.648,2.71-32.648,2.71l-46.077-.288c2.464-20.7,9.9-76.722,9.9-76.722C707.475,1160.2,692.8,1135.528,692.8,1135.528Z" transform="translate(-574.246 -850.98)" fill="#3160a3"/>
        <path id="Trazado_720976" data-name="Trazado 720976" d="M1037.852,1517.459c-7.392-2.3-22.176-3.45-22.176-3.45-11.827,8.214-10.513,40.574-4.107,44.68s25.379,3.039,25.872,2.547,1.971-1.725,1.971-1.725C1028.2,1536.472,1037.852,1517.459,1037.852,1517.459Z" transform="translate(-807.748 -1088.28)" fill="#2c4370"/>
        <g id="Grupo_1019707" data-name="Grupo 1019707" transform="translate(188.328 184.755)">
          <path id="Trazado_720977" data-name="Trazado 720977" d="M978.3,876.316c3.1,15.878,4.4,39.262,4.114,56.006-.794.866-2.6,1.588-3.9,2.309-3.176,13.569,14.677,26.782,23.373,28.887,11.331,2.742,30.323-2.905,45.19-17.484-3.9-34.21-2.526-70.367-2.526-70.367C1039.143,869.279,1008.228,861.912,978.3,876.316Z" transform="translate(-978.145 -868.001)" fill="#ffb791"/>
          <g id="Grupo_1019706" data-name="Grupo 1019706" clip-path="url(#clip-path-4)">
            <path id="Trazado_720978" data-name="Trazado 720978" d="M947.431,834.288c36.375,2.382,103.711-6.929,103.711-6.929L1029.707,726.9l-84.225,10.863Z" transform="translate(-957.666 -779.531)" fill="#f1a27f"/>
          </g>
        </g>
        <path id="Trazado_720980" data-name="Trazado 720980" d="M974.22,1040.432c4.651,27.336,26.827,28.486,46.21,23.723a48.007,48.007,0,0,0,28.254-19.548l6.078,6.9c-13.306,23.161-49.606,27.42-63.078,24.64-20.7-4.271-25.3-21.19-26.611-30.882A44.127,44.127,0,0,1,974.22,1040.432Z" transform="translate(-781.621 -791.357)" fill="#2c4370"/>
        <g id="Grupo_1019722" data-name="Grupo 1019722" transform="translate(102.496)">
          <g id="Grupo_1019717" data-name="Grupo 1019717">
            <path id="Trazado_720981" data-name="Trazado 720981" d="M1035.278,459.093s13.95,1.584,17.361,5.146,9.248,20.5,11.458,31.056-35.3-32.7-35.3-32.7Z" transform="translate(-924.069 -426.869)" fill="#263142"/>
            <path id="Trazado_720982" data-name="Trazado 720982" d="M830.934,609.6c6.464,13.865,25.061,36.661,41.354,48.067,15.156,10.609,40.6,17.421,46.984,18.4,11.259,1.732,24.466-4.33,26.848-8.011s-.65-60.841-2.6-71.667-17.1-30.1-18.837-34.21-5.846-34.859-9.96-45.9-16.888-29.446-40.489-35.725-80.727,9.249-90.287,58.351c-7.145,36.7,40.055,74.373,40.055,74.373Z" transform="translate(-770.094 -439.497)" fill="#ffc6a8"/>
            <path id="Trazado_720983" data-name="Trazado 720983" d="M1145.062,903.775c7.939,2.887,13.857-.722,15.3-3.464C1161.661,909.838,1155.166,914.89,1145.062,903.775Z" transform="translate(-996.966 -703.504)" fill="#f1a27f"/>
            <g id="Grupo_1019709" data-name="Grupo 1019709" transform="translate(145.584 175.372)">
              <path id="Trazado_720984" data-name="Trazado 720984" d="M1151.593,842.847c-10.645,2.851-12.919,8.7-13.243,13.352-.467,6.7,6.605,8.863,10.429,6.64,5.088-2.959,5.125-9.238,3.825-12.341-1.793-4.284-3.464-3.9-3.464-3.9A42.4,42.4,0,0,1,1151.593,842.847Z" transform="translate(-1138.328 -842.847)" fill="#6a422f"/>
              <g id="Grupo_1019708" data-name="Grupo 1019708" clip-path="url(#clip-path-5)">
                <path id="Trazado_720985" data-name="Trazado 720985" d="M1133.066,882.2c18.332-9.093,29.735,1.732,29.735,1.732L1134.365,890Z" transform="translate(-1135.029 -865.242)" fill="#ff8066"/>
              </g>
            </g>
            <path id="Trazado_720987" data-name="Trazado 720987" d="M1132.569,775.9c-1.516,8.228-12.45,11.042-16.239,11.584,6.712,4.871,12.558,3.789,14.29,2.057S1133.327,782.074,1132.569,775.9Z" transform="translate(-978.951 -625.503)" fill="#f1a27f"/>
            <path id="Trazado_720988" data-name="Trazado 720988" d="M824.932,706.251c-3.176-5.918-5.711-9.452-8.516-18.043-5.2-20.785-5.63-48-5.774-48.427-12.341-7.362-24.033-15.372-24.033-15.372L758.1,646.064c8.372,14.723,27.209,38.535,51.242,60.62C824.283,715.994,824.932,706.251,824.932,706.251Z" transform="translate(-754.349 -530.518)" fill="#263142"/>
            <g id="Grupo_1019710" data-name="Grupo 1019710" transform="translate(58.27 146.867)">
              <rect id="Rectángulo_348428" data-name="Rectángulo 348428" width="34.672" height="2.611" transform="translate(0 24.476) rotate(-44.904)" fill="#29140a"/>
            </g>
            <g id="Grupo_1019712" data-name="Grupo 1019712" transform="translate(40.96 168.164)">
              <path id="Trazado_720989" data-name="Trazado 720989" d="M887.473,831.093s-9.815-8.372-18.765-7.506-16.127,14.562-5.7,26.559c9.094,10.465,31.4,9.238,34.138,5.485a8.646,8.646,0,0,0,1.155-7.795Z" transform="translate(-857.85 -823.525)" fill="#ffc6a8"/>
              <g id="Grupo_1019711" data-name="Grupo 1019711" clip-path="url(#clip-path-6)">
                <path id="Trazado_720990" data-name="Trazado 720990" d="M905.9,856.747s-3.1,1.227-5.413-.144-6.207-7.578-6.857-8.661c-8.877-6.207-13.641-3.392-15.589.361s0,11.98,7.939,14.362c3.248-6.423,6.64-8.444,6.64-8.444a11.75,11.75,0,0,0,3.1,2.67c-4.042,5.918-3.609,7.578-3.609,7.578a16.086,16.086,0,0,0,9.527.433C899.909,860.5,905.9,856.747,905.9,856.747Z" transform="translate(-870.07 -836.548)" fill="#f1a27f"/>
              </g>
            </g>
            <g id="Grupo_1019713" data-name="Grupo 1019713" transform="translate(102.342 124.054)">
              <ellipse id="Elipse_8515" data-name="Elipse 8515" cx="5.744" cy="7.902" rx="5.744" ry="7.902" transform="matrix(0.98, -0.201, 0.201, 0.98, 0, 2.313)" fill="#263142"/>
              <ellipse id="Elipse_8516" data-name="Elipse 8516" cx="2.326" cy="3.2" rx="2.326" ry="3.2" transform="translate(4.176 3.894) rotate(-45)" fill="#4a608b"/>
            </g>
            <g id="Grupo_1019714" data-name="Grupo 1019714" transform="translate(134.69 109.548)">
              <ellipse id="Elipse_8517" data-name="Elipse 8517" cx="4.807" cy="7.251" rx="4.807" ry="7.251" transform="matrix(0.974, -0.228, 0.228, 0.974, 0, 2.196)" fill="#263142"/>
              <path id="Trazado_720992" data-name="Trazado 720992" d="M1124.3,671.4c1.135,1.046,1.5,2.63.824,3.539s-2.153.8-3.289-.247-1.5-2.63-.824-3.539S1123.162,670.359,1124.3,671.4Z" transform="translate(-1116.362 -668.992)" fill="#4a608b"/>
            </g>
            <path id="Trazado_720993" data-name="Trazado 720993" d="M960.657,598.094c3.32,2.6,5.341,5.052,2.887,9.671s-13.712,14.868-12.846,26.559C942.651,619.06,955.389,601.486,960.657,598.094Z" transform="translate(-873.475 -514.02)" fill="#263142"/>
            <path id="Trazado_720994" data-name="Trazado 720994" d="M1076.279,563.364c.108,4.655,2.382,6.929,7.362,6.82s12.883.108,15.156,4.439C1097.245,564.627,1085.986,562.317,1076.279,563.364Z" transform="translate(-953.84 -492.1)" fill="#263142"/>
            <g id="Grupo_1019716" data-name="Grupo 1019716">
              <path id="Trazado_720995" data-name="Trazado 720995" d="M864.357,415.441c6.735-12.32,1.15-32.524-6.242-37.7-.246,4.682-1.232,10.6-1.232,10.6C849,370.1,824.112,371.829,812.778,374.047c7.885,5.175,8.131,11.827,8.131,11.827-20.7-.986-40.656,16.755-40.656,16.755a22.585,22.585,0,0,1,15.4,1.109c-26.488,14.784-38.726,32.566-46.117,47.35-2.566,5.132-1.807,17.084,2.136,23.49-2.382,4.271.123,13.675.123,13.675L780.3,466.6s-.094-8.6,13.914-17.644c7.884-5.092,58.478-20.451,58.478-20.451C858.937,424.312,864.357,415.441,864.357,415.441Z" transform="translate(-748.042 -372.706)" fill="#263142"/>
              <g id="Grupo_1019715" data-name="Grupo 1019715" clip-path="url(#clip-path-7)">
                <path id="Trazado_720996" data-name="Trazado 720996" d="M910.922,384.908c23.285,3.08,29.814,17.618,29.568,22.915,5.667-4.928,5.914-16.508,5.914-16.508,7.392,20.2-4.435,36.1-4.558,36.467a148.3,148.3,0,0,0,4.312-20.451,46.874,46.874,0,0,1-8.87,19.466c-.493-16.263-15.893-18.4-15.893-18.4,10.6,7.31,10.349,16.057,10.349,16.057C913.016,404,884.927,406.1,884.927,406.1c25.5-11.827,44.6-5.175,44.6-5.175C921.148,387.126,910.922,384.908,910.922,384.908Z" transform="translate(-833.866 -380.356)" fill="#374559"/>
              </g>
            </g>
          </g>
          <g id="Grupo_1019721" data-name="Grupo 1019721" transform="translate(79.852 93.894)">
            <g id="Grupo_1019718" data-name="Grupo 1019718" transform="translate(0 18.341)">
              <path id="Trazado_720998" data-name="Trazado 720998" d="M987.115,722.845a25.21,25.21,0,0,1-24.551-29.886,23.737,23.737,0,0,1,10.311-15.489c11.151-7.327,26.338-3.981,33.854,7.459h0c7.516,11.439,4.559,26.706-6.592,34.033A23.62,23.62,0,0,1,987.115,722.845ZM985.9,676.2a21.11,21.11,0,0,0-20.773,17.257,22.393,22.393,0,0,0,3.337,16.615c6.725,10.236,20.29,13.246,30.238,6.71s12.569-20.181,5.844-30.417A22.375,22.375,0,0,0,985.9,676.2Z" transform="translate(-962.11 -673.587)" fill="#29140a"/>
            </g>
            <g id="Grupo_1019719" data-name="Grupo 1019719" transform="translate(50.729)">
              <path id="Trazado_720999" data-name="Trazado 720999" d="M1120.115,670.375c-8.265,0-16.707-6.641-20.314-16.772-4.342-12.2-.054-24.906,9.559-28.328s20.966,3.718,25.309,15.916h0c4.342,12.2.054,24.906-9.559,28.328A14.842,14.842,0,0,1,1120.115,670.375Zm-5.721-43.352a12.343,12.343,0,0,0-4.157.712c-8.257,2.939-11.835,14.151-7.976,24.992s13.718,17.27,21.974,14.331,11.835-14.151,7.975-24.992C1128.983,633,1121.564,627.023,1114.394,627.023Z" transform="translate(-1098.106 -624.419)" fill="#29140a"/>
            </g>
            <g id="Grupo_1019720" data-name="Grupo 1019720" transform="translate(42.382 24.746)">
              <path id="Trazado_721000" data-name="Trazado 721000" d="M1078.019,697.038l-2.291-1.254c3.1-5.67,8.33-5.444,10.66-4.532l-.951,2.431C1084.97,693.509,1080.729,692.084,1078.019,697.038Z" transform="translate(-1075.728 -690.757)" fill="#29140a"/>
            </g>
          </g>
        </g>
        <g id="Grupo_1019724" data-name="Grupo 1019724" transform="translate(243.317 288.661)">
          <path id="Trazado_721001" data-name="Trazado 721001" d="M1208.108,1146.556s-22.265,10.645-44.783,54.815c0,0-24.61,51.819-30.673,66.542s-15.3,45.541,7.434,50.087c24.971,2.743,48.427-15.878,56.655-44.891,3.424-12.072,10.006-42.529,12.991-71.017C1213.617,1180.9,1215.361,1156.84,1208.108,1146.556Z" transform="translate(-1125.56 -1146.556)" fill="#ffc6a8"/>
          <g id="Grupo_1019723" data-name="Grupo 1019723" clip-path="url(#clip-path-8)">
            <path id="Trazado_721002" data-name="Trazado 721002" d="M1263.227,1138.72s-3.464,129.693-4.33,136.838-3.825,19.2-13.568,25.26C1244.462,1276.136,1263.227,1138.72,1263.227,1138.72Z" transform="translate(-1200.634 -1141.643)" fill="#f1a27f"/>
          </g>
        </g>
        <path id="Trazado_721004" data-name="Trazado 721004" d="M1250.317,1144.815s5.3,2.923,7.9,7.578,4.222,11.078,4.367,33.885-9.337,105.206-54.3,128.121c-21.543-17.537,6.674-72.829-8.049-74.453s-6.751-7.983-6.751-7.983l19.45-49.222C1233.789,1151.635,1250.317,1144.815,1250.317,1144.815Z" transform="translate(-923.477 -856.803)" fill="#3160a3"/>
        <path id="Trazado_721005" data-name="Trazado 721005" d="M1164,1207.718s6.16,9.609,10.349,17.494-3.86,29.732-4.6,32.689,3.614,35.317-3.039,65.378-38.027,35.153-55.276,32.689-22.586-20.615-21.847-43.777,23.654-75.4,23.654-75.4-1.478-14.127,0-18.808,22.915-16.18,36.221-15.195S1164,1207.718,1164,1207.718Z" transform="translate(-859.646 -893.115)" fill="#2c4370"/>
        <path id="Trazado_721006" data-name="Trazado 721006" d="M1128.874,1159.244s-36.014,91.767-40.344,114.284,10.321,41.571,27.859,44.169,36.086-10.79,39.983-31.9,5.2-121.538,6.784-139.725Z" transform="translate(-858.545 -857.591)" fill="#ffc6a8"/>
        <path id="Trazado_721007" data-name="Trazado 721007" d="M965.991,1305.1c14.4-5.34,33.756,2.31,34.065,2.31C990.388,1296.147,978.745,1293.837,965.991,1305.1Z" transform="translate(-782.196 -952.67)" fill="#2c4370"/>
        <g id="Grupo_1019726" data-name="Grupo 1019726" transform="translate(237.888 201.089)">
          <path id="Trazado_721008" data-name="Trazado 721008" d="M1143.446,1012.354s-7.253-13.316-9.418-19.27a89.391,89.391,0,0,1-3.356-12.341s-6.6-1.191-8.661-2.6-5.521-19.92-5.088-21.76,4.228-6.428,5.034-7.055a4.272,4.272,0,0,1,2.707-.9s4.385-7.524,5.521-8.119a10.868,10.868,0,0,1,2.328-.866,13.47,13.47,0,0,1,.866-3.789,15.238,15.238,0,0,1,5.593-5.323c1.66-.649,11.872-.144,11.872-.144l-8.552-4.908s-13.352.505-21.579-.866-10.9-10.248-9.238-11.908,15.445.144,18.187.216,15.806-1.227,18.043-.866,17.394,10.176,19.7,11.62,6.351,3.175,7.073,4.547,4.619,44.675,3.248,71.162C1173.867,1008.132,1164.448,1018.2,1143.446,1012.354Z" transform="translate(-1111.005 -911.791)" fill="#ffc6a8"/>
          <g id="Grupo_1019725" data-name="Grupo 1019725" clip-path="url(#clip-path-9)">
            <path id="Trazado_721009" data-name="Trazado 721009" d="M1148.191,1047.256l-5.359-1.407,3.248,2a123.722,123.722,0,0,0,3.031,18.458l1.516-1.516C1149.273,1057.812,1148.191,1047.256,1148.191,1047.256Z" transform="translate(-1130.96 -995.842)" fill="#f1a27f"/>
            <path id="Trazado_721010" data-name="Trazado 721010" d="M1146.094,1002.161c-1.083-1.3-.253-1.876-.253-1.876l-3.735,1.624,2.057,2c4.781.415,12.558,1.516,12.558,1.516A78.715,78.715,0,0,1,1146.094,1002.161Z" transform="translate(-1130.505 -967.275)" fill="#f1a27f"/>
            <path id="Trazado_721011" data-name="Trazado 721011" d="M1163.292,980.111l2-.379,15.643,1.461c-10.23-2.165-14.074-2.653-14.886-3.356a4.746,4.746,0,0,1-1.191-1.786Z" transform="translate(-1143.788 -952.081)" fill="#f1a27f"/>
            <path id="Trazado_721012" data-name="Trazado 721012" d="M1143.557,942.236c3.9,0,21.652,2.021,21.652,2.021s-8.372-1.732-9.744-2.526-8.516-5.918-8.516-5.918-13.5.216-17.249.216-10.176-.072-13.568-3.753c.072,7.506,14.073,10.682,17.754,10.682S1143.557,942.236,1143.557,942.236Z" transform="translate(-1114.22 -924.635)" fill="#f1a27f"/>
          </g>
        </g>
        <path id="Trazado_721014" data-name="Trazado 721014" d="M1153.472,1208.158s12.073,5.175,16.262,13.059-8.131,31.293-8.87,34.249,1.971,38.192-4.681,68.252-34,35.482-51.251,33.018-26.611-20.944-25.872-44.105,23.654-75.4,23.654-75.4-1.478-14.127,0-18.808,22.915-16.18,36.221-15.195S1153.472,1208.158,1153.472,1208.158Z" transform="translate(-853.063 -893.391)" fill="#3160a3"/>
        <path id="Trazado_721015" data-name="Trazado 721015" d="M1179.371,1172.089c20.225,4.327,34.187-5.529,34.187-5.529a14.2,14.2,0,0,0,1.15,2.3c1.314,5.749.164,26.2.164,26.2-33.633,14.291-46.569.862-46.569.862,2.71-13.8,6.591-23.408,7.453-24.578a5.814,5.814,0,0,1,2.279-1.724Z" transform="translate(-909.042 -870.437)" fill="#2c4370"/>
        <path id="Trazado_721016" data-name="Trazado 721016" d="M791.793,1496.538h-20.04l21.683-4.107Z" transform="translate(-660.412 -1074.752)" fill="#2c4370"/>
        <g id="Grupo_1019727" data-name="Grupo 1019727" transform="translate(185.711 253.044)">
          <path id="Trazado_721017" data-name="Trazado 721017" d="M1282.907,1178.45a62.323,62.323,0,0,1,.875,11.677,58.218,58.218,0,0,1-1.2,11.649c.016-7.543.068-15.788.329-23.326Z" transform="translate(-1166.401 -1130.936)" fill="#3160a3"/>
          <path id="Trazado_721018" data-name="Trazado 721018" d="M1262.863,1188.138a70.133,70.133,0,0,1-.042,10.645,74.1,74.1,0,0,1-1.437,10.546c-.116-3.5.093-7.128.321-10.625.276-3.5.578-7.106,1.158-10.565Z" transform="translate(-1153.092 -1137.01)" fill="#3160a3"/>
          <path id="Trazado_721019" data-name="Trazado 721019" d="M1242.066,1190.119a72.782,72.782,0,0,1-.248,11.531,75.86,75.86,0,0,1-1.847,11.383c.062-3.792.4-7.707.733-11.487.382-3.822.743-7.627,1.361-11.428Z" transform="translate(-1139.688 -1138.252)" fill="#3160a3"/>
          <path id="Trazado_721020" data-name="Trazado 721020" d="M1222.93,1192.762a95.154,95.154,0,0,1-.986,22.545c-.21-3.715-.1-7.573.046-11.292.192-3.763.408-7.513.939-11.253Z" transform="translate(-1128.312 -1139.909)" fill="#3160a3"/>
          <path id="Trazado_721021" data-name="Trazado 721021" d="M1198.144,1192.762c-.918,6.439-2,13.128-3.449,19.465a50.279,50.279,0,0,1,.811-9.893,45.763,45.763,0,0,1,2.638-9.572Z" transform="translate(-1111.289 -1139.909)" fill="#3160a3"/>
          <path id="Trazado_721022" data-name="Trazado 721022" d="M1045.061,1525.332c-5.75-.441-11.364-1.767-17.125-2.094,5.033-1.272,12.327.244,17.125,2.094Z" transform="translate(-1006.746 -1346.817)" fill="#3160a3"/>
          <path id="Trazado_721023" data-name="Trazado 721023" d="M1023.2,1541.1a37.3,37.3,0,0,1,9.072-.422,32.834,32.834,0,0,1,8.915,1.736c-5.825-.422-12.173-.757-17.987-1.314Z" transform="translate(-1003.777 -1357.987)" fill="#3160a3"/>
          <path id="Trazado_721024" data-name="Trazado 721024" d="M1019.679,1565.717a37.29,37.29,0,0,1,8.925-.645,30.077,30.077,0,0,1,8.816,1.548c-5.653-.355-12.11-.46-17.741-.9Z" transform="translate(-1001.568 -1373.321)" fill="#3160a3"/>
          <path id="Trazado_721025" data-name="Trazado 721025" d="M1019.459,1599.624a71.9,71.9,0,0,1,9.52.017,70.317,70.317,0,0,1,9.453,1.133,70.312,70.312,0,0,1-9.52-.017,72.015,72.015,0,0,1-9.452-1.133Z" transform="translate(-1001.43 -1394.908)" fill="#3160a3"/>
          <path id="Trazado_721026" data-name="Trazado 721026" d="M1026.945,1624.762c6.318.03,13.543.534,19.876.657a36.471,36.471,0,0,1-9.976.766,47.636,47.636,0,0,1-9.9-1.423Z" transform="translate(-1006.124 -1410.765)" fill="#3160a3"/>
          <path id="Trazado_721027" data-name="Trazado 721027" d="M977.042,1051.073a15.416,15.416,0,0,1-5.914,3.45,15.419,15.419,0,0,1,5.914-3.45Z" transform="translate(-971.128 -1051.073)" fill="#3160a3"/>
          <path id="Trazado_721028" data-name="Trazado 721028" d="M983.191,1068.908a17.9,17.9,0,0,1-6.283,3.881,17.913,17.913,0,0,1,6.283-3.881Z" transform="translate(-974.752 -1062.255)" fill="#3160a3"/>
          <path id="Trazado_721029" data-name="Trazado 721029" d="M994.608,1087.073a21.108,21.108,0,0,1-5.975,5.359,21.107,21.107,0,0,1,5.975-5.359Z" transform="translate(-982.103 -1073.644)" fill="#3160a3"/>
          <path id="Trazado_721030" data-name="Trazado 721030" d="M1013.3,1102.6a18.725,18.725,0,0,1-4.189,6.284,18.71,18.71,0,0,1,4.189-6.284Z" transform="translate(-994.942 -1083.377)" fill="#3160a3"/>
          <path id="Trazado_721031" data-name="Trazado 721031" d="M1039.732,1111.514a21.974,21.974,0,0,1-2.218,7.885,21.974,21.974,0,0,1,2.218-7.885Z" transform="translate(-1012.751 -1088.968)" fill="#3160a3"/>
          <path id="Trazado_721032" data-name="Trazado 721032" d="M1065.2,1114.817a16.786,16.786,0,0,1-.082,7.145,16.777,16.777,0,0,1,.082-7.145Z" transform="translate(-1029.841 -1091.039)" fill="#3160a3"/>
          <path id="Trazado_721033" data-name="Trazado 721033" d="M1088.515,1113.716a14.537,14.537,0,0,1,.986,6.57,14.534,14.534,0,0,1-.986-6.57Z" transform="translate(-1044.697 -1090.349)" fill="#3160a3"/>
          <path id="Trazado_721034" data-name="Trazado 721034" d="M1111.991,1110.358a12.378,12.378,0,0,1,2.156,5.729,12.375,12.375,0,0,1-2.156-5.729Z" transform="translate(-1059.446 -1088.244)" fill="#3160a3"/>
          <path id="Trazado_721035" data-name="Trazado 721035" d="M1136.266,1102.266a9.467,9.467,0,0,1,2.341,4.8,9.469,9.469,0,0,1-2.341-4.8Z" transform="translate(-1074.666 -1083.17)" fill="#3160a3"/>
        </g>
      </g>
      <path id="Trazado_721036" data-name="Trazado 721036" d="M911.167,480.873c-13.47-8.542-37.452-9.856-41.231-9.363,6.078,3.285,19.219,9.035,19.219,9.035-17.905.493-32.853,10.02-32.853,10.02,17.576-3.121,30.389,0,30.389,0-5.914,1.807-16.1,6.571-16.1,6.571,24.64-3.614,34.455-6.612,34.455-6.612-10.472-3.573-23.285-4.928-23.285-4.928a177.951,177.951,0,0,1,34.988,1.6A63.348,63.348,0,0,0,911.167,480.873Z" transform="translate(-713.424 -434.597)" fill="#374559"/>
    </g>
  </g>
</svg>
