<svg xmlns="http://www.w3.org/2000/svg" xmlns:xlink="http://www.w3.org/1999/xlink" width="505" height="211.57" viewBox="0 0 505 211.57">
  <defs>
    <radialGradient id="radial-gradient" cx="0.5" cy="0.5" r="0.5" gradientUnits="objectBoundingBox">
      <stop offset="0" stop-color="#008b8a"/>
      <stop offset="1" stop-color="#004645"/>
    </radialGradient>
    <radialGradient id="radial-gradient-2" cx="0.5" cy="0.5" r="0.5" gradientUnits="objectBoundingBox">
      <stop offset="0" stop-color="#3076b6"/>
      <stop offset="1" stop-color="#183b5b"/>
    </radialGradient>
  </defs>
  <g id="Grupo_1024427" data-name="Grupo 1024427" transform="translate(-810 -11269)">
    <rect id="Rectángulo_348784" data-name="Rectángulo 348784" width="505" height="211.57" transform="translate(810 11269)" fill="#e3f4ff"/>
    <g id="Grupo_1021151" data-name="Grupo 1021151" transform="translate(-54.068 -28)">
      <g id="Grupo_1021150" data-name="Grupo 1021150" transform="translate(61.932 -29.707)">
        <ellipse id="Elipse_8540" data-name="Elipse 8540" cx="46.5" cy="51" rx="46.5" ry="51" transform="translate(943 11376)" fill="url(#radial-gradient)"/>
        <path id="Sustracción_1" data-name="Sustracción 1" d="M5278.152,11752h-87.3a42.859,42.859,0,0,1-.849-8.5,42.385,42.385,0,0,1,3.5-16.931,43.3,43.3,0,0,1,9.537-13.827,44.449,44.449,0,0,1,14.144-9.322,45.6,45.6,0,0,1,34.644,0,44.446,44.446,0,0,1,14.145,9.322,43.3,43.3,0,0,1,9.537,13.827,42.385,42.385,0,0,1,3.5,16.931,42.864,42.864,0,0,1-.849,8.5Z" transform="translate(-4853.519 -51.978) rotate(-3)" fill="url(#radial-gradient-2)"/>
        <path id="Sustracción_2" data-name="Sustracción 2" d="M88.151,0H.849A42.859,42.859,0,0,0,0,8.5,42.385,42.385,0,0,0,3.5,25.431a43.3,43.3,0,0,0,9.537,13.827A44.449,44.449,0,0,0,27.178,48.58a45.6,45.6,0,0,0,34.644,0,44.446,44.446,0,0,0,14.145-9.322A43.3,43.3,0,0,0,85.5,25.431,42.385,42.385,0,0,0,89,8.5,42.864,42.864,0,0,0,88.151,0Z" transform="translate(945.165 11409.724) rotate(47)" fill="url(#radial-gradient-2)"/>
      </g>
      <g id="Grupo_1021149" data-name="Grupo 1021149" transform="translate(61.932 -32)">
        <text id="NO" transform="translate(1125 11448)" fill="#205a8f" font-size="46" font-family="Roboto-Bold, Roboto" font-weight="700"><tspan x="0" y="0">NO</tspan></text>
        <text id="_-" data-name="-" transform="translate(1188 11425)" fill="#3076b6" font-size="23" font-family="Roboto-Bold, Roboto" font-weight="700"><tspan x="0" y="0">-</tspan></text>
        <text id="_2" data-name="2" transform="translate(1186 11462)" fill="#3076b6" font-size="23" font-family="Roboto-Bold, Roboto" font-weight="700"><tspan x="0" y="0">2</tspan></text>
      </g>
    </g>
  </g>
</svg>
