<svg xmlns="http://www.w3.org/2000/svg" width="397" height="381.771" viewBox="0 0 397 381.771">
  <g id="Grupo_1020108" data-name="Grupo 1020108" transform="translate(-34.632 -30.002)">
    <g id="Background_Complete" data-name="Background Complete" transform="translate(38.741 30.001)">
      <g id="Grupo_1019832" data-name="Grupo 1019832" transform="translate(284.153 324.898)">
        <g id="Grupo_1019810" data-name="Grupo 1019810" transform="translate(2.115 2.398)">
          <g id="Grupo_1019807" data-name="Grupo 1019807" transform="translate(0.146 0.125)">
            <path id="Trazado_721065" data-name="Trazado 721065" d="M420.209,408.882H370.815v47.577a6.626,6.626,0,0,0,6.627,6.627h30.483a6.626,6.626,0,0,0,6.627-6.627V413.846h0Z" transform="translate(-370.815 -408.882)" fill="#fff"/>
          </g>
          <g id="Grupo_1019809" data-name="Grupo 1019809">
            <g id="Grupo_1019808" data-name="Grupo 1019808">
              <path id="Trazado_721066" data-name="Trazado 721066" d="M420.186,408.862l-5.621,5.005.019-.041c.013,7.405.036,19.967.065,35.852q0,2.981.005,6.113a10.6,10.6,0,0,1-.071,1.588,4.99,4.99,0,0,1-.16.792,6.005,6.005,0,0,1-.251.773,6.814,6.814,0,0,1-1.908,2.651,6.909,6.909,0,0,1-3,1.464,8.72,8.72,0,0,1-1.694.139H405.88l-6.919,0-14.492.005c-2.485-.01-4.982.025-7.539-.023a6.769,6.769,0,0,1-5.9-4.5,7.433,7.433,0,0,1-.24-.839,8.584,8.584,0,0,1-.12-.862c-.042-.585-.022-1.143-.027-1.711v-3.379q0-3.364,0-6.661c0-4.4,0-8.7,0-12.877.005-8.364.01-16.254.015-23.488v-.125h.125l49.394.125-49.394.126.125-.126c.005,7.234.01,15.125.015,23.488,0,4.182,0,8.482,0,12.877q0,3.3,0,6.661v3.379c.005.563-.015,1.139.027,1.689a8.122,8.122,0,0,0,.114.825,6.95,6.95,0,0,0,.231.8,6.476,6.476,0,0,0,5.641,4.312c2.516.048,5.043.015,7.519.026l14.492,0,6.919,0a19.921,19.921,0,0,0,3.333-.13,6.638,6.638,0,0,0,2.88-1.4,6.557,6.557,0,0,0,1.839-2.547,5.829,5.829,0,0,0,.244-.743,4.785,4.785,0,0,0,.154-.762,10.3,10.3,0,0,0,.072-1.553q0-3.131.006-6.113c.029-15.885.051-28.447.065-35.852V413.8l.019-.016Z" transform="translate(-370.646 -408.737)" fill="#e0e0e0"/>
            </g>
          </g>
        </g>
        <g id="Grupo_1019811" data-name="Grupo 1019811" transform="translate(4.998 2.523)">
          <path id="Trazado_721067" data-name="Trazado 721067" d="M417.285,408.882h-43.3v44.642a6.023,6.023,0,0,0,5.809,6.217h26.726a6.024,6.024,0,0,0,5.809-6.217V413.54h0Z" transform="translate(-373.982 -408.882)" fill="#f5f5f5"/>
        </g>
        <g id="Grupo_1019813" data-name="Grupo 1019813" transform="translate(34.879 21.093)">
          <g id="Grupo_1019812" data-name="Grupo 1019812">
            <path id="Trazado_721068" data-name="Trazado 721068" d="M408.56,430.516a105.664,105.664,0,0,1,11.106,0,106.263,106.263,0,0,1-11.106,0Z" transform="translate(-408.56 -430.37)" fill="#e0e0e0"/>
          </g>
        </g>
        <g id="Grupo_1019815" data-name="Grupo 1019815" transform="translate(35.141 7.476)">
          <g id="Grupo_1019814" data-name="Grupo 1019814">
            <path id="Trazado_721069" data-name="Trazado 721069" d="M408.863,414.758a106.285,106.285,0,0,1,11.106,0,105.642,105.642,0,0,1-11.106,0Z" transform="translate(-408.863 -414.613)" fill="#e0e0e0"/>
          </g>
        </g>
        <g id="Grupo_1019817" data-name="Grupo 1019817" transform="translate(30.486 28.524)">
          <g id="Grupo_1019816" data-name="Grupo 1019816">
            <path id="Trazado_721070" data-name="Trazado 721070" d="M403.476,439.114c0-.08,3.47-.145,7.749-.145s7.751.065,7.751.145-3.47.145-7.751.145S403.476,439.195,403.476,439.114Z" transform="translate(-403.476 -438.969)" fill="#e0e0e0"/>
          </g>
        </g>
        <g id="Grupo_1019819" data-name="Grupo 1019819" transform="translate(35.404 35.954)">
          <g id="Grupo_1019818" data-name="Grupo 1019818">
            <path id="Trazado_721071" data-name="Trazado 721071" d="M409.167,447.712a96.469,96.469,0,0,1,10.582,0,95.9,95.9,0,0,1-10.582,0Z" transform="translate(-409.167 -447.567)" fill="#e0e0e0"/>
          </g>
        </g>
        <g id="Grupo_1019821" data-name="Grupo 1019821" transform="translate(30.486 43.385)">
          <g id="Grupo_1019820" data-name="Grupo 1019820">
            <path id="Trazado_721072" data-name="Trazado 721072" d="M403.476,456.311c0-.08,3.47-.145,7.749-.145s7.751.065,7.751.145-3.47.145-7.751.145S403.476,456.392,403.476,456.311Z" transform="translate(-403.476 -456.166)" fill="#e0e0e0"/>
          </g>
        </g>
        <g id="Grupo_1019823" data-name="Grupo 1019823" transform="translate(2.262 2.428)">
          <g id="Grupo_1019822" data-name="Grupo 1019822">
            <path id="Trazado_721073" data-name="Trazado 721073" d="M420.209,408.867c0,.08-11.057.174-24.695.207s-24.7,0-24.7-.083,11.055-.173,24.7-.207S420.209,408.787,420.209,408.867Z" transform="translate(-370.816 -408.771)" fill="#263238"/>
          </g>
        </g>
        <g id="Grupo_1019825" data-name="Grupo 1019825" transform="translate(30.486 13.663)">
          <g id="Grupo_1019824" data-name="Grupo 1019824">
            <path id="Trazado_721074" data-name="Trazado 721074" d="M403.476,421.917c0-.08,3.47-.145,7.749-.145s7.751.065,7.751.145-3.47.145-7.751.145S403.476,422,403.476,421.917Z" transform="translate(-403.476 -421.772)" fill="#e0e0e0"/>
          </g>
        </g>
        <g id="Grupo_1019829" data-name="Grupo 1019829" transform="translate(0)">
          <g id="Grupo_1019826" data-name="Grupo 1019826" transform="translate(0.144 0.145)">
            <path id="Trazado_721075" data-name="Trazado 721075" d="M420.325,408.57H369.585a1.22,1.22,0,0,1-1.22-1.22h0a1.22,1.22,0,0,1,1.22-1.22h50.739a1.221,1.221,0,0,1,1.221,1.22h0A1.221,1.221,0,0,1,420.325,408.57Z" transform="translate(-368.365 -406.13)" fill="#fff"/>
          </g>
          <g id="Grupo_1019828" data-name="Grupo 1019828">
            <g id="Grupo_1019827" data-name="Grupo 1019827">
              <path id="Trazado_721076" data-name="Trazado 721076" d="M420.3,408.548c0-.009.1,0,.276-.048a1.208,1.208,0,0,0,.663-.441,1.19,1.19,0,0,0,.126-1.233,1.174,1.174,0,0,0-.58-.563,2.149,2.149,0,0,0-.94-.1l-11.7.047-38.586.042a1.075,1.075,0,0,0-.8,1.791,1.062,1.062,0,0,0,.514.32,2.507,2.507,0,0,0,.651.041h1.381l5.419,0,10.246.009,17.347.031,11.695.046,3.179.028.827.014c.187.005.282.015.282.015s-.1.01-.282.016l-.827.014-3.179.028-11.695.046-17.347.031-10.246.009-5.419,0H369.58a1.408,1.408,0,0,1-.382-.05,1.365,1.365,0,0,1,.367-2.681l38.586.042,11.7.046a2.251,2.251,0,0,1,.982.122,1.258,1.258,0,0,1,.459,1.923,1.214,1.214,0,0,1-.7.435A.864.864,0,0,1,420.3,408.548Z" transform="translate(-368.199 -405.962)" fill="#e0e0e0"/>
            </g>
          </g>
        </g>
        <g id="Grupo_1019831" data-name="Grupo 1019831" transform="translate(11.928 53.695)">
          <g id="Grupo_1019830" data-name="Grupo 1019830">
            <path id="Trazado_721077" data-name="Trazado 721077" d="M404.211,468.241c0,.08-4.972.145-11.1.145S382,468.322,382,468.241s4.972-.145,11.106-.145S404.211,468.161,404.211,468.241Z" transform="translate(-382.002 -468.096)" fill="#e0e0e0"/>
          </g>
        </g>
      </g>
      <g id="Grupo_1019841" data-name="Grupo 1019841" transform="translate(19.439 292.119)">
        <g id="Grupo_1019840" data-name="Grupo 1019840">
          <g id="Grupo_1019839" data-name="Grupo 1019839">
            <path id="Trazado_721080" data-name="Trazado 721080" d="M67.852,371.3l2.3.867-2,.567a2.086,2.086,0,0,0-1.414,1.358l-.723,2.212-.89-2.218A2.085,2.085,0,0,0,63.9,372.9l-2.024-.735,2.192-.9a2.085,2.085,0,0,0,1.154-1.18l.792-2.057.568,1.912A2.085,2.085,0,0,0,67.852,371.3Z" transform="translate(-61.881 -368.032)" fill="#ebebeb"/>
          </g>
        </g>
      </g>
      <g id="Grupo_1019850" data-name="Grupo 1019850" transform="translate(260.508 320.76)">
        <g id="Grupo_1019849" data-name="Grupo 1019849" transform="translate(0)">
          <g id="Grupo_1019848" data-name="Grupo 1019848">
            <path id="Trazado_721083" data-name="Trazado 721083" d="M346.809,404.445l2.3.867-2,.567a2.087,2.087,0,0,0-1.413,1.358l-.724,2.212-.89-2.218a2.08,2.08,0,0,0-1.224-1.184l-2.023-.735,2.192-.9a2.088,2.088,0,0,0,1.154-1.18l.792-2.057.569,1.912A2.085,2.085,0,0,0,346.809,404.445Z" transform="translate(-340.838 -401.174)" fill="#ebebeb"/>
          </g>
        </g>
      </g>
      <g id="Grupo_1019861" data-name="Grupo 1019861" transform="translate(115.666)">
        <path id="Trazado_721088" data-name="Trazado 721088" d="M210.174,45.623a9.3,9.3,0,0,0-10.725-7.317,9.039,9.039,0,0,0-10.106-8.2c-4.839.822-8.468,5.568-7.031,10.26-5.3.994-10.461,7.527-8.744,12.637s8.368,7.859,13.191,5.451a8.07,8.07,0,0,0,15.517-2.528A9.3,9.3,0,0,0,210.174,45.623Z" transform="translate(-173.232 -30.001)" fill="#f5f5f5"/>
      </g>
      <g id="Grupo_1019862" data-name="Grupo 1019862" transform="translate(328.998 160.39)">
        <path id="Trazado_721089" data-name="Trazado 721089" d="M457.034,231.221A9.3,9.3,0,0,0,446.31,223.9a9.04,9.04,0,0,0-10.107-8.2c-4.839.822-8.468,5.567-7.031,10.26-5.3.994-10.46,7.527-8.744,12.637a9.874,9.874,0,0,0,13.191,5.451,8.07,8.07,0,0,0,15.517-2.528A9.3,9.3,0,0,0,457.034,231.221Z" transform="translate(-420.093 -215.599)" fill="#f5f5f5"/>
      </g>
      <g id="Grupo_1019863" data-name="Grupo 1019863" transform="translate(54.981 293.696)">
        <path id="Trazado_721090" data-name="Trazado 721090" d="M138.391,370.036a7.343,7.343,0,0,0-8.11,3.971l0-.019c-5-3.2-10.257.864-11.429,4.628a10.5,10.5,0,1,0,1.479,16.827,9.707,9.707,0,0,0,18.163-6.807,12.194,12.194,0,0,0,6.2-9.6C144.868,375.075,142.247,370.98,138.391,370.036Z" transform="translate(-103.009 -369.856)" fill="#f5f5f5"/>
      </g>
    </g>
    <g id="Table" transform="translate(34.632 411.289)">
      <g id="Grupo_1019865" data-name="Grupo 1019865">
        <g id="Grupo_1019864" data-name="Grupo 1019864">
          <path id="Trazado_721091" data-name="Trazado 721091" d="M431.632,471.439c0,.124-88.878.226-198.491.226-109.65,0-198.509-.1-198.509-.226s88.859-.225,198.509-.225C342.754,471.214,431.632,471.315,431.632,471.439Z" transform="translate(-34.632 -471.214)" fill="#263238"/>
        </g>
      </g>
    </g>
    <g id="Beakers" transform="translate(63.686 102.758)">
      <g id="Grupo_1019892" data-name="Grupo 1019892" transform="translate(0 0)">
        <g id="Grupo_1019879" data-name="Grupo 1019879">
          <g id="Grupo_1019869" data-name="Grupo 1019869" transform="translate(0 1.834)">
            <g id="Grupo_1019866" data-name="Grupo 1019866" transform="translate(0.194 0.245)">
              <path id="Trazado_721092" data-name="Trazado 721092" d="M114.592,161.393l13.317-38.007L108.539,116.6,95.222,154.606a27.211,27.211,0,0,0-25.26,17.954c-4.961,14.16,2.917,29.807,17.6,34.951s30.6-2.165,35.563-16.324A27.21,27.21,0,0,0,114.592,161.393Z" transform="translate(-68.477 -116.599)" fill="#fff"/>
            </g>
            <g id="Grupo_1019868" data-name="Grupo 1019868">
              <g id="Grupo_1019867" data-name="Grupo 1019867">
                <path id="Trazado_721093" data-name="Trazado 721093" d="M114.562,161.354s.18.145.507.43.83.678,1.414,1.293A27.857,27.857,0,0,1,121,168.926c.409.693.781,1.46,1.18,2.26.34.827.751,1.674,1.037,2.614a25.3,25.3,0,0,1,1.349,6.224,26.625,26.625,0,0,1-8.639,22.143,27.89,27.89,0,0,1-8.329,5.127,28.537,28.537,0,0,1-10.279,1.989,29.331,29.331,0,0,1-10.909-2.04,29.036,29.036,0,0,1-9.786-6.339,28.073,28.073,0,0,1-6.65-10.178,27.512,27.512,0,0,1-1.569-12.49c.117-1.068.353-2.127.55-3.19.325-1.033.561-2.1.964-3.114a25.679,25.679,0,0,1,3.044-5.82,25.11,25.11,0,0,1,4.444-4.947,26.859,26.859,0,0,1,5.433-3.678A29.871,29.871,0,0,1,88.89,155.2a31.758,31.758,0,0,1,6.3-.856l-.2.147c4.812-13.7,9.313-26.522,13.344-38l.063-.181.181.063,19.36,6.813.156.055-.054.154-9.808,27.742-2.695,7.563-.712,1.971c-.162.446-.258.677-.258.677s.064-.223.212-.664l.666-1.963c.6-1.742,1.478-4.289,2.605-7.564,2.291-6.6,5.6-16.114,9.679-27.87l.1.209-19.379-6.76.245-.118L95.4,154.641l-.049.142-.154.005a31.426,31.426,0,0,0-6.2.847,29.433,29.433,0,0,0-5.949,2.25,26.461,26.461,0,0,0-5.343,3.619,24.653,24.653,0,0,0-4.368,4.864,25.216,25.216,0,0,0-2.993,5.722c-.4,1-.627,2.046-.949,3.061-.193,1.046-.426,2.086-.542,3.135a27.1,27.1,0,0,0,1.537,12.285A27.659,27.659,0,0,0,76.929,200.6a28.994,28.994,0,0,0,20.39,8.289,28.191,28.191,0,0,0,10.145-1.941,27.577,27.577,0,0,0,8.234-5.038,26.379,26.379,0,0,0,8.621-21.861,25.217,25.217,0,0,0-1.3-6.178c-.277-.935-.679-1.778-1.011-2.6-.39-.8-.754-1.562-1.155-2.254a28.592,28.592,0,0,0-4.434-5.872c-.571-.621-1.088-1.033-1.391-1.338S114.562,161.354,114.562,161.354Z" transform="translate(-68.252 -116.316)" fill="#263238"/>
              </g>
            </g>
          </g>
          <g id="Grupo_1019870" data-name="Grupo 1019870" transform="translate(4.044 7.744)">
            <path id="Trazado_721094" data-name="Trazado 721094" d="M111.832,163.807l12.451-35.633-14.364-5.02-12.2,35.689a22.939,22.939,0,0,0-23.5,15.47c-4.3,12.283,2.531,25.856,15.266,30.319s26.546-1.878,30.85-14.16C123.637,181.048,119.275,170.052,111.832,163.807Z" transform="translate(-72.932 -123.154)" fill="#e0e0e0"/>
          </g>
          <g id="Grupo_1019871" data-name="Grupo 1019871" transform="translate(5.117 54.538)">
            <path id="Trazado_721095" data-name="Trazado 721095" d="M120.5,197.826a4.683,4.683,0,0,0-2.191-3.216,21.5,21.5,0,0,0-7.584-3.847c-3.718-1.028-7.675-1.044-11.328-2.285-5.456-1.855-9.635-6.212-14.634-9.072-2.065-1.181-6.012-2.388-8.359-2.043a14.457,14.457,0,0,0-2.236,6.381l19.668,12.1,14.665.766,6.882,2.412Z" transform="translate(-74.173 -177.303)" fill="#008b8a"/>
          </g>
          <g id="Grupo_1019874" data-name="Grupo 1019874" transform="translate(4.044 58.902)">
            <path id="Trazado_721097" data-name="Trazado 721097" d="M74.22,182.353c-4.3,12.283,2.531,25.856,15.266,30.319s26.546-1.878,30.85-14.16c0,0-3.61-3.071-10.552-4.609-2.754-.61-12.659-1.07-17.865-2.359-14.089-3.49-17.7-9.191-17.7-9.191" transform="translate(-72.932 -182.353)" fill="#4db1f0"/>
          </g>
          <g id="Grupo_1019878" data-name="Grupo 1019878" transform="translate(35.519)">
            <g id="Grupo_1019875" data-name="Grupo 1019875" transform="translate(0)">
              <rect id="Rectángulo_348627" data-name="Rectángulo 348627" width="6.158" height="26.998" rx="2.96" transform="matrix(0.331, -0.944, 0.944, 0.331, 0, 5.812)" fill="#fff"/>
            </g>
            <g id="Grupo_1019877" data-name="Grupo 1019877" transform="translate(0.479 0.477)">
              <g id="Grupo_1019876" data-name="Grupo 1019876">
                <path id="Trazado_721098" data-name="Trazado 721098" d="M132.493,128.161c.007-.023.213.058.618.086a2.543,2.543,0,0,0,1.651-.483,2.476,2.476,0,0,0,.787-.958c.166-.416.337-.941.492-1.447a2.45,2.45,0,0,0-.181-1.644,2.413,2.413,0,0,0-1.375-1.213l-20.678-7.175a2.346,2.346,0,0,0-2.6.752,4.272,4.272,0,0,0-.608,1.334,2.709,2.709,0,0,0-.227,1.387,2.363,2.363,0,0,0,1.665,1.965l2.682.948,9.271,3.3,6.238,2.261,1.689.637a3.348,3.348,0,0,1,.578.251,3.281,3.281,0,0,1-.608-.165l-1.716-.557-6.284-2.127-9.3-3.208-2.688-.934a2.8,2.8,0,0,1-1.96-2.315,3.152,3.152,0,0,1,.245-1.589l.26-.734a2.7,2.7,0,0,1,.416-.732,2.8,2.8,0,0,1,3.1-.9l20.636,7.3a2.694,2.694,0,0,1,1.694,3.219c-.182.554-.343,1.013-.542,1.477a2.63,2.63,0,0,1-.88,1.008,2.565,2.565,0,0,1-1.76.43A1.754,1.754,0,0,1,132.493,128.161Z" transform="translate(-109.908 -114.745)" fill="#263238"/>
              </g>
            </g>
          </g>
        </g>
        <g id="Grupo_1019881" data-name="Grupo 1019881" transform="translate(4.044 45.793)" opacity="0.2">
          <g id="Grupo_1019880" data-name="Grupo 1019880">
            <path id="Trazado_721099" data-name="Trazado 721099" d="M91.142,203.482a25.147,25.147,0,0,1-12.06-16.968,20.867,20.867,0,0,1,6.855-19.331l-.443.079A23.232,23.232,0,0,0,74.22,180.293c-4.3,12.283,2.531,25.857,15.266,30.319a24.779,24.779,0,0,0,19.612-1.3,23.5,23.5,0,0,0,2.782-2.1A31.743,31.743,0,0,1,91.142,203.482Z" transform="translate(-72.932 -167.183)"/>
          </g>
        </g>
        <g id="Grupo_1019882" data-name="Grupo 1019882" transform="translate(32.946 10.29)" opacity="0.3">
          <path id="Trazado_721100" data-name="Trazado 721100" d="M121.732,126.1,108.051,162.02s7.8,19.337-1.675,30.967l9.651,3.961a27.616,27.616,0,0,0,4.45-17.414,33.082,33.082,0,0,0-5.66-15.814l12.555-35.657Z" transform="translate(-106.376 -126.101)" fill="#fff"/>
        </g>
        <g id="Grupo_1019884" data-name="Grupo 1019884" transform="translate(3.959 44.953)">
          <g id="Grupo_1019883" data-name="Grupo 1019883">
            <path id="Trazado_721101" data-name="Trazado 721101" d="M74.592,196.437a1.16,1.16,0,0,1-.166-.329c-.089-.224-.241-.547-.381-.983a21.438,21.438,0,0,1-.929-3.767,23.37,23.37,0,0,1,9.344-22.59,21.258,21.258,0,0,1,3.318-2.01c.407-.21.743-.332.964-.427a1.127,1.127,0,0,1,.35-.116,11.084,11.084,0,0,1-1.232.7,25.492,25.492,0,0,0-3.209,2.109,23.849,23.849,0,0,0-9.219,22.291,25.506,25.506,0,0,0,.781,3.759A10.966,10.966,0,0,1,74.592,196.437Z" transform="translate(-72.833 -166.212)" fill="#263238"/>
          </g>
        </g>
        <g id="Grupo_1019886" data-name="Grupo 1019886" transform="translate(33.666 70.504)">
          <g id="Grupo_1019885" data-name="Grupo 1019885">
            <path id="Trazado_721102" data-name="Trazado 721102" d="M125.99,195.778a4.987,4.987,0,0,1-.083,1.152,19.816,19.816,0,0,1-.678,3.076,22.36,22.36,0,0,1-13.84,14.608,19.713,19.713,0,0,1-3.034.843,4.909,4.909,0,0,1-1.145.145c-.02-.087,1.615-.323,4.067-1.285a23.217,23.217,0,0,0,13.649-14.407C125.754,197.41,125.9,195.763,125.99,195.778Z" transform="translate(-107.21 -195.778)" fill="#263238"/>
          </g>
        </g>
        <g id="Grupo_1019888" data-name="Grupo 1019888" transform="translate(30.682 12.407)">
          <g id="Grupo_1019887" data-name="Grupo 1019887">
            <path id="Trazado_721103" data-name="Trazado 721103" d="M103.761,154.942c-.118-.041,1.857-5.983,4.411-13.27s4.718-13.164,4.836-13.123-1.857,5.982-4.412,13.271S103.878,154.984,103.761,154.942Z" transform="translate(-103.756 -128.55)" fill="#263238"/>
          </g>
        </g>
        <g id="Grupo_1019889" data-name="Grupo 1019889" transform="translate(16.86 71.007)" opacity="0.2">
          <path id="Trazado_721104" data-name="Trazado 721104" d="M91.1,198.648a1.718,1.718,0,1,1-1.053-2.19A1.719,1.719,0,0,1,91.1,198.648Z" transform="translate(-87.762 -196.361)"/>
        </g>
        <g id="Grupo_1019890" data-name="Grupo 1019890" transform="translate(27.642 74.786)" opacity="0.2">
          <path id="Trazado_721105" data-name="Trazado 721105" d="M103.579,203.02a1.718,1.718,0,1,1-1.053-2.19A1.719,1.719,0,0,1,103.579,203.02Z" transform="translate(-100.239 -200.733)"/>
        </g>
        <g id="Grupo_1019891" data-name="Grupo 1019891" transform="translate(19.301 76.558)" opacity="0.2">
          <path id="Trazado_721106" data-name="Trazado 721106" d="M92.257,203.927a.859.859,0,1,1-.527-1.095A.859.859,0,0,1,92.257,203.927Z" transform="translate(-90.587 -202.784)"/>
        </g>
      </g>
      <g id="Grupo_1019929" data-name="Grupo 1019929" transform="translate(249.285 159.012)">
        <g id="Grupo_1019896" data-name="Grupo 1019896" transform="translate(0.046 2.554)">
          <g id="Grupo_1019893" data-name="Grupo 1019893" transform="translate(0.184 0.196)">
            <path id="Trazado_721107" data-name="Trazado 721107" d="M359.405,306.784c.048.338-.619,13.641-1.315,27.205-.4,7.785-.809,15.655-1.1,21.209-.207,3.949,2.955,7.2,6.513,6.7l45.321-6.356c3.535-.5,5.681-4.446,4.44-8.174l-15.313-45.991Z" transform="translate(-356.982 -301.379)" fill="#fff"/>
          </g>
          <g id="Grupo_1019895" data-name="Grupo 1019895">
            <g id="Grupo_1019894" data-name="Grupo 1019894">
              <path id="Trazado_721108" data-name="Trazado 721108" d="M359.376,306.754s.219-.044.668-.113l2-.3,7.7-1.125,28.161-4.043.145-.021.047.14,9.11,27.249,5.189,15.551.671,2.015a17.642,17.642,0,0,1,.619,2.076,6.83,6.83,0,0,1-.573,4.348,5.743,5.743,0,0,1-3.293,2.961,12.312,12.312,0,0,1-2.2.416l-2.2.308-39.108,5.467-2.24.312a6.33,6.33,0,0,1-2.283.03,5.918,5.918,0,0,1-3.7-2.4,6.426,6.426,0,0,1-.986-1.958,6.594,6.594,0,0,1-.325-2.133c.037-1.413.137-2.768.2-4.12.289-5.388.558-10.407.8-14.991.979-18.134,1.536-28.438,1.6-29.664a4.265,4.265,0,0,1,.014.524c-.009.363-.022.873-.038,1.537-.054,1.366-.133,3.354-.234,5.906-.243,5.143-.593,12.557-1.026,21.713-.229,4.584-.48,9.6-.749,14.993-.06,1.343-.156,2.727-.188,4.1a6.24,6.24,0,0,0,.312,2.014,6.054,6.054,0,0,0,.934,1.843,5.519,5.519,0,0,0,3.456,2.239,5.911,5.911,0,0,0,2.153-.038l2.239-.316,39.1-5.5,2.2-.308a12.024,12.024,0,0,0,2.122-.395,5.3,5.3,0,0,0,3.037-2.735,6.386,6.386,0,0,0,.536-4.063,17.4,17.4,0,0,0-.6-2.02q-.336-1.011-.67-2.016c-1.78-5.355-3.509-10.556-5.17-15.557-3.316-10-6.369-19.207-9.043-27.271l.192.118-28.077,3.844-7.749,1.041-2.036.265C359.624,306.732,359.376,306.754,359.376,306.754Z" transform="translate(-356.769 -301.152)" fill="#263238"/>
            </g>
          </g>
        </g>
        <g id="Grupo_1019897" data-name="Grupo 1019897" transform="translate(3.589 4.632)">
          <path id="Trazado_721109" data-name="Trazado 721109" d="M362.631,308.217c.068.491-1.155,35.074-1.757,46.587a3.2,3.2,0,0,0,3.412,3.51l43.962-6.165a2.97,2.97,0,0,0,2.163-3.984l-14.557-44.608Z" transform="translate(-360.869 -303.557)" fill="#e0e0e0"/>
        </g>
        <g id="Grupo_1019898" data-name="Grupo 1019898" transform="translate(1.672 16.844)" opacity="0.3">
          <path id="Trazado_721110" data-name="Trazado 721110" d="M358.651,336.983a18.673,18.673,0,0,0,14.56-.074c8.048-3.324,18.594-14.763,32.636-10.288l-1.86-5.584a13.279,13.279,0,0,0-12.035-2.955c-7.322,1.759-12.507,13.354-18.881,14.457s-13.8-6.006-13.8-6.006Z" transform="translate(-358.651 -317.688)" fill="#fff"/>
        </g>
        <g id="Grupo_1019899" data-name="Grupo 1019899" transform="translate(3.589 34.493)">
          <path id="Trazado_721111" data-name="Trazado 721111" d="M406.652,341.338l3.759,11.52a2.97,2.97,0,0,1-2.163,3.984l-43.962,6.165a3.2,3.2,0,0,1-3.412-3.51c.155-2.971.352-7.478.557-12.538A78.352,78.352,0,0,0,380,346.277c9.632-1.6,25.6-8.166,25.6-8.166Z" transform="translate(-360.869 -338.111)" fill="#4db1f0"/>
        </g>
        <g id="Grupo_1019903" data-name="Grupo 1019903" transform="translate(0 0)">
          <g id="Grupo_1019900" data-name="Grupo 1019900" transform="translate(0.058)">
            <rect id="Rectángulo_348628" data-name="Rectángulo 348628" width="43.114" height="3.843" rx="1.49" transform="translate(0 5.988) rotate(-7.983)" fill="#fff"/>
          </g>
          <g id="Grupo_1019902" data-name="Grupo 1019902" transform="translate(0 0.066)">
            <g id="Grupo_1019901" data-name="Grupo 1019901">
              <path id="Trazado_721112" data-name="Trazado 721112" d="M398.728,302.191a1.487,1.487,0,0,0,.764-.468,1.245,1.245,0,0,0,.261-1.015,14.526,14.526,0,0,0-.267-1.5,1.236,1.236,0,0,0-1.5-.69l-2.272.337-5.539.811-32.1,4.567a1.07,1.07,0,0,0-.78.531,1.356,1.356,0,0,0-.081,1c.06.367.1.817.175,1.112a1.061,1.061,0,0,0,1.116.72l.562-.076,1.132-.158,2.237-.312,8.526-1.182,14.44-1.976,9.741-1.294,2.651-.329.69-.074a.919.919,0,0,1,.238-.01.9.9,0,0,1-.231.056l-.685.118-2.639.413-9.721,1.435-14.427,2.071-8.522,1.209-2.236.315-1.132.159-.577.079a1.506,1.506,0,0,1-1.587-1.021c-.117-.455-.126-.79-.194-1.193a3.487,3.487,0,0,1-.059-.627,1.517,1.517,0,0,1,1.3-1.414l32.113-4.437,5.55-.744,2.277-.3a1.562,1.562,0,0,1,1.047.118,1.368,1.368,0,0,1,.642.718,12.9,12.9,0,0,1,.238,1.542,1.344,1.344,0,0,1-.325,1.093A1.1,1.1,0,0,1,398.728,302.191Z" transform="translate(-356.716 -298.273)" fill="#263238"/>
            </g>
          </g>
        </g>
        <g id="Grupo_1019904" data-name="Grupo 1019904" transform="translate(4.151 33.88)">
          <path id="Trazado_721113" data-name="Trazado 721113" d="M361.52,346.862s3.6-1.55,13-3.48,30.968-5.98,30.968-5.98l.2.613s-15.917,6.687-27.216,8.413S361.52,346.862,361.52,346.862Z" transform="translate(-361.52 -337.402)" fill="#3076b6"/>
        </g>
        <g id="Grupo_1019907" data-name="Grupo 1019907" transform="translate(12.486 25.092)">
          <g id="Grupo_1019906" data-name="Grupo 1019906">
            <path id="Trazado_721115" data-name="Trazado 721115" d="M389.082,327.253c.017.123-3.98.786-8.927,1.479s-8.973,1.156-8.99,1.034,3.979-.786,8.928-1.479S389.065,327.129,389.082,327.253Z" transform="translate(-371.165 -327.233)" fill="#263238"/>
          </g>
        </g>
        <g id="Grupo_1019909" data-name="Grupo 1019909" transform="translate(14.121 36.756)">
          <g id="Grupo_1019908" data-name="Grupo 1019908">
            <path id="Trazado_721116" data-name="Trazado 721116" d="M390.975,340.75c.017.124-3.98.786-8.927,1.479s-8.974,1.156-8.991,1.034,3.98-.786,8.929-1.479S390.958,340.627,390.975,340.75Z" transform="translate(-373.057 -340.73)" fill="#263238"/>
          </g>
        </g>
        <g id="Grupo_1019911" data-name="Grupo 1019911" transform="translate(15.888 49.351)">
          <g id="Grupo_1019910" data-name="Grupo 1019910">
            <path id="Trazado_721117" data-name="Trazado 721117" d="M393.019,355.324c.017.124-3.98.786-8.927,1.479s-8.974,1.156-8.991,1.034,3.98-.786,8.928-1.479S393,355.2,393.019,355.324Z" transform="translate(-375.101 -355.304)" fill="#263238"/>
          </g>
        </g>
        <g id="Grupo_1019913" data-name="Grupo 1019913" transform="translate(10.97 14.281)">
          <g id="Grupo_1019912" data-name="Grupo 1019912">
            <path id="Trazado_721118" data-name="Trazado 721118" d="M387.328,314.742c.017.123-3.98.785-8.928,1.479s-8.973,1.157-8.99,1.034,3.98-.785,8.928-1.479S387.311,314.618,387.328,314.742Z" transform="translate(-369.41 -314.722)" fill="#263238"/>
          </g>
        </g>
        <g id="Grupo_1019915" data-name="Grupo 1019915" transform="translate(11.734 20.774)">
          <g id="Grupo_1019914" data-name="Grupo 1019914">
            <path id="Trazado_721119" data-name="Trazado 721119" d="M380.644,322.27a60.758,60.758,0,0,1-10.35,1.452,60.783,60.783,0,0,1,10.35-1.452Z" transform="translate(-370.294 -322.236)" fill="#263238"/>
          </g>
        </g>
        <g id="Grupo_1019917" data-name="Grupo 1019917" transform="translate(13.288 31.858)">
          <g id="Grupo_1019916" data-name="Grupo 1019916">
            <path id="Trazado_721120" data-name="Trazado 721120" d="M382.443,335.1a60.753,60.753,0,0,1-10.35,1.452,60.755,60.755,0,0,1,10.35-1.452Z" transform="translate(-372.093 -335.062)" fill="#263238"/>
          </g>
        </g>
        <g id="Grupo_1019919" data-name="Grupo 1019919" transform="translate(14.977 43.904)">
          <g id="Grupo_1019918" data-name="Grupo 1019918">
            <path id="Trazado_721121" data-name="Trazado 721121" d="M384.4,349.035a60.877,60.877,0,0,1-10.35,1.451,60.89,60.89,0,0,1,10.35-1.451Z" transform="translate(-374.047 -349.001)" fill="#263238"/>
          </g>
        </g>
        <g id="Grupo_1019920" data-name="Grupo 1019920" transform="translate(3.591 9.29)" opacity="0.3">
          <path id="Trazado_721122" data-name="Trazado 721122" d="M362.828,308.947l-1.954,46.642a3.2,3.2,0,0,0,3.421,3.481l29.271-4.1s-25.315,2.666-27.977-.565S362.828,308.947,362.828,308.947Z" transform="translate(-360.871 -308.947)"/>
        </g>
        <g id="Grupo_1019921" data-name="Grupo 1019921" transform="translate(27.722 4.72)" opacity="0.3">
          <path id="Trazado_721123" data-name="Trazado 721123" d="M388.8,304.927l11.7,48.855,10.864-1.307c.368-1.186-13.527-48.816-13.527-48.816Z" transform="translate(-388.795 -303.659)" fill="#fff"/>
        </g>
        <g id="Grupo_1019923" data-name="Grupo 1019923" transform="translate(11.649 54.275)">
          <g id="Grupo_1019922" data-name="Grupo 1019922">
            <path id="Trazado_721124" data-name="Trazado 721124" d="M403.646,361.013c.017.123-7.458,1.273-16.693,2.568s-16.739,2.246-16.756,2.122,7.455-1.273,16.694-2.568S403.629,360.89,403.646,361.013Z" transform="translate(-370.196 -361.003)" fill="#263238"/>
          </g>
        </g>
        <g id="Grupo_1019924" data-name="Grupo 1019924" transform="translate(30.163 45.424)" opacity="0.2">
          <path id="Trazado_721125" data-name="Trazado 721125" d="M394.041,351.931a1.221,1.221,0,1,1-1.39-1.16A1.283,1.283,0,0,1,394.041,351.931Z" transform="translate(-391.62 -350.76)"/>
        </g>
        <g id="Grupo_1019925" data-name="Grupo 1019925" transform="translate(10.916 49.888)" opacity="0.2">
          <path id="Trazado_721126" data-name="Trazado 721126" d="M371.765,357.094a1.219,1.219,0,1,1-1.387-1.158A1.282,1.282,0,0,1,371.765,357.094Z" transform="translate(-369.348 -355.925)"/>
        </g>
        <g id="Grupo_1019926" data-name="Grupo 1019926" transform="translate(36.206 47.573)" opacity="0.2">
          <path id="Trazado_721127" data-name="Trazado 721127" d="M402.922,355.331a2.174,2.174,0,1,1-2.474-2.065A2.285,2.285,0,0,1,402.922,355.331Z" transform="translate(-398.612 -353.247)"/>
        </g>
        <g id="Grupo_1019927" data-name="Grupo 1019927" transform="translate(27.049 45.651)" opacity="0.2">
          <path id="Trazado_721128" data-name="Trazado 721128" d="M389.469,351.726a.733.733,0,1,1-.834-.7A.77.77,0,0,1,389.469,351.726Z" transform="translate(-388.016 -351.023)"/>
        </g>
        <g id="Grupo_1019928" data-name="Grupo 1019928" transform="translate(47.321 39.6)" opacity="0.2">
          <path id="Trazado_721129" data-name="Trazado 721129" d="M412.928,344.724a.733.733,0,1,1-.835-.7A.771.771,0,0,1,412.928,344.724Z" transform="translate(-411.474 -344.02)"/>
        </g>
      </g>
    </g>
    <g id="Books" transform="translate(42.594 369.105)">
      <g id="Grupo_1019996" data-name="Grupo 1019996">
        <g id="Grupo_1019931" data-name="Grupo 1019931" transform="translate(11.609)">
          <g id="Grupo_1019930" data-name="Grupo 1019930">
            <path id="Trazado_721130" data-name="Trazado 721130" d="M89.045,436.618H64.182a7.008,7.008,0,0,1-6.9-7.108h0a7.009,7.009,0,0,1,6.9-7.109H89.045Z" transform="translate(-57.279 -422.401)" fill="#ffa031"/>
          </g>
        </g>
        <g id="Grupo_1019933" data-name="Grupo 1019933" transform="translate(36.459)">
          <g id="Grupo_1019932" data-name="Grupo 1019932">
            <path id="Trazado_721131" data-name="Trazado 721131" d="M141.317,424.765H86.034V422.4h55.283a1.165,1.165,0,0,1,1.148,1.182h0A1.165,1.165,0,0,1,141.317,424.765Z" transform="translate(-86.034 -422.401)" fill="#ffa031"/>
          </g>
        </g>
        <g id="Grupo_1019935" data-name="Grupo 1019935" transform="translate(36.459 11.866)">
          <g id="Grupo_1019934" data-name="Grupo 1019934">
            <path id="Trazado_721132" data-name="Trazado 721132" d="M141.317,438.483H86.034v-2.351h55.283a1.15,1.15,0,0,1,1.148,1.154v.015h0A1.165,1.165,0,0,1,141.317,438.483Z" transform="translate(-86.034 -436.132)" fill="#ffa031"/>
          </g>
        </g>
        <g id="Grupo_1019937" data-name="Grupo 1019937" transform="translate(38.173 2.364)">
          <g id="Grupo_1019936" data-name="Grupo 1019936">
            <path id="Trazado_721133" data-name="Trazado 721133" d="M141.048,434.639H92.625a4.691,4.691,0,0,1-4.607-4.757h0a4.692,4.692,0,0,1,4.607-4.744h48.423A12.146,12.146,0,0,0,141.048,434.639Z" transform="translate(-88.018 -425.137)" fill="#ebebeb"/>
          </g>
        </g>
        <g id="Grupo_1019940" data-name="Grupo 1019940" transform="translate(11.609)" opacity="0.3">
          <g id="Grupo_1019939" data-name="Grupo 1019939">
            <g id="Grupo_1019938" data-name="Grupo 1019938">
              <path id="Trazado_721134" data-name="Trazado 721134" d="M83.843,436.618H64.211a7.021,7.021,0,0,1-6.932-7.108V429.5h0a7.009,7.009,0,0,1,6.889-7.094h20.2C79.364,425.525,79.747,433,83.843,436.618Z" transform="translate(-57.279 -422.401)"/>
            </g>
          </g>
        </g>
        <g id="Grupo_1019942" data-name="Grupo 1019942" transform="translate(40.924 7.473)">
          <g id="Grupo_1019941" data-name="Grupo 1019941">
            <path id="Trazado_721135" data-name="Trazado 721135" d="M135.6,431.121s-9.923.088-22.2.088-22.2,0-22.2-.088,9.923-.073,22.2-.073S135.6,431.078,135.6,431.121Z" transform="translate(-91.201 -431.048)" fill="#263238"/>
          </g>
        </g>
        <g id="Grupo_1019944" data-name="Grupo 1019944" transform="translate(45.503 9.575)">
          <g id="Grupo_1019943" data-name="Grupo 1019943">
            <path id="Trazado_721136" data-name="Trazado 721136" d="M140.882,433.568s-9.923.088-22.184.088-22.2,0-22.2-.088,9.923-.087,22.2-.087S140.882,433.524,140.882,433.568Z" transform="translate(-96.499 -433.481)" fill="#263238"/>
          </g>
        </g>
        <g id="Grupo_1019946" data-name="Grupo 1019946" transform="translate(44.156 4.515)">
          <g id="Grupo_1019945" data-name="Grupo 1019945">
            <path id="Trazado_721137" data-name="Trazado 721137" d="M139.324,427.665s-9.923.087-22.184.087-22.2,0-22.2-.087,9.923,0,22.2,0S139.324,427.621,139.324,427.665Z" transform="translate(-94.941 -427.626)" fill="#263238"/>
          </g>
        </g>
        <g id="Grupo_1019948" data-name="Grupo 1019948" transform="translate(14.955 13.136)">
          <g id="Grupo_1019947" data-name="Grupo 1019947">
            <path id="Trazado_721138" data-name="Trazado 721138" d="M81.931,437.689s-4.649.088-10.376.088-10.4,0-10.4-.088,4.664-.087,10.4-.087S81.931,437.646,81.931,437.689Z" transform="translate(-61.15 -437.602)" fill="#263238"/>
          </g>
        </g>
        <g id="Grupo_1019950" data-name="Grupo 1019950" transform="translate(14.955 1.095)">
          <g id="Grupo_1019949" data-name="Grupo 1019949">
            <path id="Trazado_721139" data-name="Trazado 721139" d="M81.931,423.755s-4.649.088-10.376.088-10.4,0-10.4-.088,4.664-.087,10.4-.087S81.931,423.712,81.931,423.755Z" transform="translate(-61.15 -423.668)" fill="#263238"/>
          </g>
        </g>
        <g id="Grupo_1019952" data-name="Grupo 1019952" transform="translate(0 24.2)">
          <g id="Grupo_1019951" data-name="Grupo 1019951">
            <path id="Trazado_721140" data-name="Trazado 721140" d="M83.55,468.707H52.733a9.023,9.023,0,0,1-8.888-9.152h0a9.023,9.023,0,0,1,8.888-9.152H83.55a1.194,1.194,0,0,1,1.191,1.2V467.5a1.2,1.2,0,0,1-1.177,1.212Z" transform="translate(-43.845 -450.404)" fill="#008b8a"/>
          </g>
        </g>
        <g id="Grupo_1019954" data-name="Grupo 1019954" transform="translate(32.036 24.2)">
          <g id="Grupo_1019953" data-name="Grupo 1019953">
            <path id="Trazado_721141" data-name="Trazado 721141" d="M152.075,453.44H80.916V450.4h71.159a1.439,1.439,0,0,1,1.418,1.46h0a1.448,1.448,0,0,1-1.3,1.572C152.155,453.438,152.115,453.44,152.075,453.44Z" transform="translate(-80.916 -450.404)" fill="#008b8a"/>
          </g>
        </g>
        <g id="Grupo_1019956" data-name="Grupo 1019956" transform="translate(32.036 39.466)">
          <g id="Grupo_1019955" data-name="Grupo 1019955">
            <path id="Trazado_721142" data-name="Trazado 721142" d="M152.075,471.107H80.916V468.07h71.159a1.44,1.44,0,0,1,1.418,1.46h0a1.447,1.447,0,0,1-1.3,1.571C152.155,471.105,152.115,471.107,152.075,471.107Z" transform="translate(-80.916 -468.07)" fill="#008b8a"/>
          </g>
        </g>
        <g id="Grupo_1019958" data-name="Grupo 1019958" transform="translate(34.19 27.236)">
          <g id="Grupo_1019957" data-name="Grupo 1019957">
            <path id="Trazado_721143" data-name="Trazado 721143" d="M151.72,466.148H89.349a6.013,6.013,0,0,1-5.94-6.086v-.029h0a6.03,6.03,0,0,1,5.94-6.116H151.72A15.53,15.53,0,0,0,151.72,466.148Z" transform="translate(-83.409 -453.917)" fill="#ebebeb"/>
          </g>
        </g>
        <g id="Grupo_1019961" data-name="Grupo 1019961" transform="translate(0 24.2)" opacity="0.4">
          <g id="Grupo_1019960" data-name="Grupo 1019960">
            <g id="Grupo_1019959" data-name="Grupo 1019959">
              <path id="Trazado_721144" data-name="Trazado 721144" d="M78.05,468.707H52.634a8.922,8.922,0,0,1-8.789-9.05h0a9.123,9.123,0,0,1,8.987-9.254H78.716C72.281,454.448,72.762,464.036,78.05,468.707Z" transform="translate(-43.845 -450.404)"/>
            </g>
          </g>
        </g>
        <g id="Grupo_1019963" data-name="Grupo 1019963" transform="translate(37.748 33.833)">
          <g id="Grupo_1019962" data-name="Grupo 1019962">
            <path id="Trazado_721145" data-name="Trazado 721145" d="M144.695,461.639s-12.758.087-28.578.087-28.591,0-28.591-.087,12.758-.088,28.591-.088S144.695,461.6,144.695,461.639Z" transform="translate(-87.526 -461.551)" fill="#263238"/>
          </g>
        </g>
        <g id="Grupo_1019965" data-name="Grupo 1019965" transform="translate(43.632 36.548)">
          <g id="Grupo_1019964" data-name="Grupo 1019964">
            <path id="Trazado_721146" data-name="Trazado 721146" d="M151.517,464.78s-12.758.087-28.591.087-28.591,0-28.591-.087,12.757-.087,28.591-.087S151.517,464.736,151.517,464.78Z" transform="translate(-94.334 -464.693)" fill="#263238"/>
          </g>
        </g>
        <g id="Grupo_1019967" data-name="Grupo 1019967" transform="translate(41.902 31.308)">
          <g id="Grupo_1019966" data-name="Grupo 1019966">
            <path id="Trazado_721147" data-name="Trazado 721147" d="M149.5,458.717s-12.758.087-28.578.087-28.591,0-28.591-.087,12.758-.088,28.591-.088S149.5,458.673,149.5,458.717Z" transform="translate(-92.332 -458.629)" fill="#263238"/>
          </g>
        </g>
        <g id="Grupo_1019969" data-name="Grupo 1019969" transform="translate(4.309 41.144)">
          <g id="Grupo_1019968" data-name="Grupo 1019968">
            <path id="Trazado_721148" data-name="Trazado 721148" d="M75.595,470.085s-6,.088-13.382.088-13.382,0-13.382-.088,6-.073,13.382-.073S75.595,470.042,75.595,470.085Z" transform="translate(-48.831 -470.012)" fill="#263238"/>
          </g>
        </g>
        <g id="Grupo_1019971" data-name="Grupo 1019971" transform="translate(4.309 25.63)">
          <g id="Grupo_1019970" data-name="Grupo 1019970">
            <path id="Trazado_721149" data-name="Trazado 721149" d="M75.595,452.147s-6,.087-13.382.087-13.382,0-13.382-.087,6-.088,13.382-.088S75.595,452.1,75.595,452.147Z" transform="translate(-48.831 -452.059)" fill="#263238"/>
          </g>
        </g>
        <g id="Grupo_1019987" data-name="Grupo 1019987" transform="translate(18.286 13.778)">
          <g id="Grupo_1019973" data-name="Grupo 1019973">
            <g id="Grupo_1019972" data-name="Grupo 1019972">
              <path id="Trazado_721150" data-name="Trazado 721150" d="M98.232,448.84H70.094A5.182,5.182,0,0,1,65,443.585h0a5.166,5.166,0,0,1,5.089-5.24H98.232Z" transform="translate(-65.005 -438.345)" fill="#455a64"/>
            </g>
          </g>
          <g id="Grupo_1019975" data-name="Grupo 1019975" transform="translate(26.026)">
            <g id="Grupo_1019974" data-name="Grupo 1019974">
              <path id="Trazado_721151" data-name="Trazado 721151" d="M152.942,440.826H95.121v-2.481h57.821a1.223,1.223,0,0,1,1.191,1.241h0A1.223,1.223,0,0,1,152.942,440.826Z" transform="translate(-95.121 -438.345)" fill="#455a64"/>
            </g>
          </g>
          <g id="Grupo_1019977" data-name="Grupo 1019977" transform="translate(26.026 8.013)">
            <g id="Grupo_1019976" data-name="Grupo 1019976">
              <path id="Trazado_721152" data-name="Trazado 721152" d="M152.942,450.1H95.121v-2.482h57.821a1.225,1.225,0,0,1,1.191,1.241h0A1.225,1.225,0,0,1,152.942,450.1Z" transform="translate(-95.121 -447.617)" fill="#455a64"/>
            </g>
          </g>
          <g id="Grupo_1019979" data-name="Grupo 1019979" transform="translate(27.797 2.481)">
            <g id="Grupo_1019978" data-name="Grupo 1019978">
              <path id="Trazado_721153" data-name="Trazado 721153" d="M152.653,446.748H99.865a2.734,2.734,0,0,1-2.694-2.773h0a2.734,2.734,0,0,1,2.694-2.758h52.788A4.253,4.253,0,0,0,152.653,446.748Z" transform="translate(-97.171 -441.216)" fill="#fafafa"/>
            </g>
          </g>
          <g id="Grupo_1019982" data-name="Grupo 1019982" opacity="0.3">
            <g id="Grupo_1019981" data-name="Grupo 1019981">
              <g id="Grupo_1019980" data-name="Grupo 1019980">
                <path id="Trazado_721154" data-name="Trazado 721154" d="M92.8,448.84H70.051A5.139,5.139,0,0,1,65,443.629h0a5.209,5.209,0,0,1,5.132-5.284h23.2C88.111,440.651,88.507,446.154,92.8,448.84Z" transform="translate(-65.005 -438.345)"/>
              </g>
            </g>
          </g>
          <g id="Grupo_1019984" data-name="Grupo 1019984" transform="translate(30.675 4.729)">
            <g id="Grupo_1019983" data-name="Grupo 1019983">
              <path id="Trazado_721155" data-name="Trazado 721155" d="M146.953,443.9s-10.4.073-23.219.073-23.233,0-23.233-.073,10.391-.087,23.233-.087S146.953,443.846,146.953,443.9Z" transform="translate(-100.501 -443.817)" fill="#263238"/>
            </g>
          </g>
          <g id="Grupo_1019986" data-name="Grupo 1019986" transform="translate(35.452 6.218)">
            <g id="Grupo_1019985" data-name="Grupo 1019985">
              <path id="Trazado_721156" data-name="Trazado 721156" d="M152.481,445.627s-10.39.088-23.219.088-23.233,0-23.233-.088,10.4-.087,23.233-.087S152.481,445.584,152.481,445.627Z" transform="translate(-106.029 -445.54)" fill="#263238"/>
            </g>
          </g>
        </g>
        <g id="Grupo_1019989" data-name="Grupo 1019989" transform="translate(21.787 23.134)">
          <g id="Grupo_1019988" data-name="Grupo 1019988">
            <path id="Trazado_721157" data-name="Trazado 721157" d="M90.8,449.259s-4.862.087-10.872.087-10.873,0-10.873-.087,4.877-.088,10.873-.088S90.8,449.215,90.8,449.259Z" transform="translate(-69.056 -449.171)" fill="#263238"/>
          </g>
        </g>
        <g id="Grupo_1019991" data-name="Grupo 1019991" transform="translate(21.787 14.931)">
          <g id="Grupo_1019990" data-name="Grupo 1019990">
            <path id="Trazado_721158" data-name="Trazado 721158" d="M90.8,439.767s-4.862.087-10.872.087-10.873,0-10.873-.087,4.877-.088,10.873-.088S90.8,439.723,90.8,439.767Z" transform="translate(-69.056 -439.679)" fill="#263238"/>
          </g>
        </g>
        <g id="Grupo_1019993" data-name="Grupo 1019993" transform="translate(22.878 13.74)">
          <g id="Grupo_1019992" data-name="Grupo 1019992">
            <path id="Trazado_721159" data-name="Trazado 721159" d="M150.069,438.339s-17.846.087-39.875.087-39.875,0-39.875-.087,17.847,0,39.875,0S150.069,438.295,150.069,438.339Z" transform="translate(-70.319 -438.3)" fill="#263238"/>
          </g>
        </g>
        <g id="Grupo_1019995" data-name="Grupo 1019995" transform="translate(58.7 4.627)">
          <g id="Grupo_1019994" data-name="Grupo 1019994">
            <path id="Trazado_721160" data-name="Trazado 721160" d="M111.77,427.755v5.692l1.914-1.27,2.14,1.27v-5.692Z" transform="translate(-111.77 -427.755)" fill="#ffa031"/>
          </g>
        </g>
      </g>
    </g>
    <g id="Icon" transform="translate(258.079 35.605)">
      <g id="Grupo_1020004" data-name="Grupo 1020004">
        <g id="Grupo_1019997" data-name="Grupo 1019997" transform="translate(0 37.813)">
          <path id="Trazado_721161" data-name="Trazado 721161" d="M305.817,88.581a6.45,6.45,0,1,1-4.279-8.055A6.45,6.45,0,0,1,305.817,88.581Z" transform="translate(-293.197 -80.242)" fill="#afafaf"/>
        </g>
        <g id="Grupo_1019998" data-name="Grupo 1019998" transform="translate(23.067 16.59)">
          <path id="Trazado_721162" data-name="Trazado 721162" d="M338.078,67.7a9.3,9.3,0,1,1-6.168-11.611A9.3,9.3,0,0,1,338.078,67.7Z" transform="translate(-319.89 -55.683)" fill="#afafaf"/>
        </g>
        <g id="Grupo_1019999" data-name="Grupo 1019999" transform="translate(6.33 28.489)">
          <line id="Línea_2571" data-name="Línea 2571" y1="14.998" x2="21.047" transform="translate(0.252 0.349)" fill="#ff725e"/>
          <rect id="Rectángulo_348629" data-name="Rectángulo 348629" width="25.844" height="0.864" transform="matrix(0.815, -0.58, 0.58, 0.815, 0, 14.992)" fill="#afafaf"/>
        </g>
        <g id="Grupo_1020000" data-name="Grupo 1020000" transform="translate(33.067 49.877)">
          <path id="Trazado_721163" data-name="Trazado 721163" d="M342.536,96.156a6.45,6.45,0,1,1-9.121-.129A6.451,6.451,0,0,1,342.536,96.156Z" transform="translate(-331.461 -94.202)" fill="#afafaf"/>
        </g>
        <g id="Grupo_1020001" data-name="Grupo 1020001" transform="translate(34.421 27.935)">
          <line id="Línea_2572" data-name="Línea 2572" x1="3.008" y1="25.668" transform="translate(0.429 0.05)" fill="#ff725e"/>
          <rect id="Rectángulo_348630" data-name="Rectángulo 348630" width="0.865" height="25.844" transform="translate(0 0.101) rotate(-6.683)" fill="#afafaf"/>
        </g>
        <g id="Grupo_1020002" data-name="Grupo 1020002" transform="translate(13.608)">
          <path id="Trazado_721164" data-name="Trazado 721164" d="M311.719,44.475a4.105,4.105,0,1,1,5.214-2.551A4.106,4.106,0,0,1,311.719,44.475Z" transform="translate(-308.944 -36.486)" fill="#afafaf"/>
        </g>
        <g id="Grupo_1020003" data-name="Grupo 1020003" transform="translate(17.459 4.909)">
          <line id="Línea_2573" data-name="Línea 2573" x2="10.888" y2="16.412" transform="translate(0.36 0.239)" fill="#ff725e"/>
          <rect id="Rectángulo_348631" data-name="Rectángulo 348631" width="0.865" height="19.695" transform="matrix(0.833, -0.553, 0.553, 0.833, 0, 0.478)" fill="#afafaf"/>
        </g>
      </g>
    </g>
    <g id="Character" transform="translate(97.758 76.861)">
      <g id="Grupo_1020107" data-name="Grupo 1020107">
        <g id="Grupo_1020039" data-name="Grupo 1020039" transform="translate(0 59.513)">
          <g id="Grupo_1020005" data-name="Grupo 1020005" transform="translate(54.449 34.126)">
            <path id="Trazado_721165" data-name="Trazado 721165" d="M210.137,195.574,198.98,210.889c-1.39,0-28.3,12.456-28.3,12.456L183.2,322.073,170.685,432.852H299.541s-7.373-164.688-5.055-174.421l-8.85-56.871-24.586-.319-13.013-8.659Z" transform="translate(-170.685 -192.582)" fill="#e0e0e0"/>
          </g>
          <g id="Grupo_1020006" data-name="Grupo 1020006" transform="translate(89.895 34.412)">
            <path id="Trazado_721166" data-name="Trazado 721166" d="M211.733,208.486c-.78.8,13.293,16.972,13.293,16.972l28.139,45.594,9.315-68.1-9.512-10.035-38.593,1.96Z" transform="translate(-211.702 -192.913)" fill="#fff"/>
          </g>
          <g id="Grupo_1020007" data-name="Grupo 1020007" transform="translate(0 64.889)">
            <path id="Trazado_721167" data-name="Trazado 721167" d="M162.128,228.18a31.85,31.85,0,0,0-9.776,10.587c-4.043,7.077-42.794,66.086-44.479,78.87s7.588,35.929,30.5,20.428,42.433-53.185,42.433-53.185Z" transform="translate(-107.679 -228.18)" fill="#e0e0e0"/>
          </g>
          <g id="Grupo_1020008" data-name="Grupo 1020008" transform="translate(25.997 115.55)">
            <path id="Trazado_721168" data-name="Trazado 721168" d="M143.423,286.8c-.728.727-5.661,6.919-5.661,6.919l8.207,33.63,8.605-18.842Z" transform="translate(-137.762 -286.803)" fill="#ffbf9d"/>
          </g>
          <g id="Grupo_1020010" data-name="Grupo 1020010" transform="translate(3.582 118.025)">
            <g id="Grupo_1020009" data-name="Grupo 1020009">
              <path id="Trazado_721169" data-name="Trazado 721169" d="M111.825,317.946a4.25,4.25,0,0,1,.32-.614l.993-1.734c.885-1.5,2.227-3.638,4-6.239a159.662,159.662,0,0,1,15.84-19.4l.277-.29.1.393c.493,2.01,1.009,4.114,1.535,6.258,2.7,11.144,5.15,21.231,6.931,28.576.859,3.634,1.557,6.587,2.051,8.672q.338,1.5.535,2.364c.052.249.094.452.128.617a.741.741,0,0,1,.029.214.832.832,0,0,1-.073-.2l-.171-.607q-.226-.857-.617-2.343l-2.189-8.638c-1.815-7.337-4.306-17.412-7.059-28.545-.525-2.144-1.039-4.249-1.53-6.259l.374.1a170.3,170.3,0,0,0-15.915,19.258c-1.806,2.572-3.184,4.686-4.11,6.154l-1.058,1.691A4.443,4.443,0,0,1,111.825,317.946Z" transform="translate(-111.824 -289.667)" fill="#263238"/>
            </g>
          </g>
          <g id="Grupo_1020011" data-name="Grupo 1020011" transform="translate(34.166 144.613)">
            <path id="Trazado_721170" data-name="Trazado 721170" d="M152.5,320.433s.624,20.506-1.282,21.13c0,0-1.135.776-2.4-2.886-1.378-3.989-1.731-6.391-1.563-6.758Z" transform="translate(-147.214 -320.433)" fill="#263238"/>
          </g>
          <g id="Grupo_1020012" data-name="Grupo 1020012" transform="translate(158.793)">
            <path id="Trazado_721171" data-name="Trazado 721171" d="M302.035,196.2s11.295,1.744,11.817,1.744,2.607-3.824,6.779-3.3,3.3,4.171,7.3,3.3.869-4.346,5.562-4.867,10.256.347,11.3,0,23.987-40.327,24.508-39.979,23.813,29.2,23.813,29.2-14.775,39.284-21.206,48.149a27.631,27.631,0,0,1-19.467,11.646c-4.693.522-32.571.693-37.785,3.3s-4.138,12.433-4.138,12.433l-19.088-44.761Z" transform="translate(-291.429 -153.092)" fill="#e0e0e0"/>
          </g>
          <g id="Grupo_1020014" data-name="Grupo 1020014" transform="translate(178.186 63.591)">
            <g id="Grupo_1020013" data-name="Grupo 1020013">
              <path id="Trazado_721172" data-name="Trazado 721172" d="M315.978,226.678a2.507,2.507,0,0,1,0,.545l-.08,1.557c-.085,1.409-.2,3.35-.346,5.723-.291,4.832-.652,11.508-.919,18.888s-.385,14.068-.443,18.908c-.028,2.377-.05,4.321-.067,5.732-.014.638-.024,1.155-.033,1.559a2.483,2.483,0,0,1-.041.544,2.479,2.479,0,0,1-.049-.543c-.013-.4-.03-.921-.052-1.559-.038-1.353-.065-3.313-.076-5.735-.024-4.843.047-11.535.311-18.923s.679-14.065,1.052-18.894c.186-2.414.354-4.367.489-5.714.067-.635.122-1.149.164-1.551A2.438,2.438,0,0,1,315.978,226.678Z" transform="translate(-313.869 -226.678)" fill="#263238"/>
            </g>
          </g>
          <g id="Grupo_1020016" data-name="Grupo 1020016" transform="translate(131.132 112.551)">
            <g id="Grupo_1020015" data-name="Grupo 1020015">
              <path id="Trazado_721173" data-name="Trazado 721173" d="M259.646,441.849c-.124,0-.226-35.488-.226-79.254,0-43.782.1-79.262.226-79.262s.225,35.48.225,79.262C259.87,406.36,259.769,441.849,259.646,441.849Z" transform="translate(-259.42 -283.333)" fill="#263238"/>
            </g>
          </g>
          <g id="Grupo_1020018" data-name="Grupo 1020018" transform="translate(80.19 52.535)">
            <g id="Grupo_1020017" data-name="Grupo 1020017">
              <path id="Trazado_721174" data-name="Trazado 721174" d="M251.639,273.9a.8.8,0,0,1-.184-.122l-.51-.391-1.936-1.529c-1.7-1.3-4.188-3.153-7.377-5.275s-7.067-4.521-11.377-7.191-9.031-5.654-13.69-9.213l-1.729-1.337-1.664-1.372c-1.106-.9-2.159-1.834-3.185-2.761a41.181,41.181,0,0,1-5.434-5.846,19.846,19.846,0,0,1-3.313-6.421,22.408,22.408,0,0,1-.767-6.251,56.2,56.2,0,0,1,.955-9.04c.19-1.026.34-1.837.449-2.428.053-.254.1-.461.13-.628a.83.83,0,0,1,.06-.212.811.811,0,0,1-.014.219l-.087.636c-.089.594-.211,1.409-.366,2.441a61.06,61.06,0,0,0-.81,9.012,22.38,22.38,0,0,0,.807,6.147,19.572,19.572,0,0,0,3.288,6.277,41.115,41.115,0,0,0,5.4,5.768c1.021.919,2.075,1.847,3.176,2.745l1.658,1.364,1.721,1.331c4.639,3.543,9.349,6.524,13.637,9.219s8.17,5.109,11.335,7.278,5.634,4.059,7.308,5.4c.83.68,1.456,1.229,1.885,1.6l.481.425C251.592,273.842,251.644,273.894,251.639,273.9Z" transform="translate(-200.472 -213.884)" fill="#263238"/>
            </g>
          </g>
          <g id="Grupo_1020020" data-name="Grupo 1020020" transform="translate(131.356 42.784)">
            <g id="Grupo_1020019" data-name="Grupo 1020019">
              <path id="Trazado_721175" data-name="Trazado 721175" d="M259.681,272.368a.736.736,0,0,1,.078-.194l.27-.548,1.073-2.088,4-7.649,5.911-11.351c2.2-4.284,4.66-8.981,7.028-14,2.308-5.049,4.225-9.989,5.895-14.5.4-1.124.86-2.244,1.149-3.3a5.959,5.959,0,0,0-.275-3.162,16.812,16.812,0,0,0-3.041-5.012,48.031,48.031,0,0,0-6.163-5.986c-.785-.648-1.407-1.136-1.829-1.466l-.48-.377a.781.781,0,0,1-.156-.138.693.693,0,0,1,.183.1l.507.341c.44.308,1.081.773,1.885,1.4a44.745,44.745,0,0,1,6.3,5.918,16.954,16.954,0,0,1,3.15,5.1,6.319,6.319,0,0,1,.309,3.367c-.31,1.15-.75,2.206-1.148,3.356-1.651,4.529-3.558,9.481-5.875,14.548-2.38,5.039-4.85,9.72-7.069,14s-4.273,8.1-6,11.31l-4.124,7.582-1.147,2.047c-.124.213-.226.385-.309.527A.732.732,0,0,1,259.681,272.368Z" transform="translate(-259.68 -202.601)" fill="#263238"/>
            </g>
          </g>
          <g id="Grupo_1020022" data-name="Grupo 1020022" transform="translate(211.566 40.433)">
            <g id="Grupo_1020021" data-name="Grupo 1020021">
              <path id="Trazado_721176" data-name="Trazado 721176" d="M363.767,224.373a4.863,4.863,0,0,1-.669-.833c-.41-.551-.971-1.371-1.636-2.405a69.9,69.9,0,0,1-8-17.4c-.351-1.177-.609-2.137-.76-2.807a4.846,4.846,0,0,1-.2-1.051,4.846,4.846,0,0,1,.366,1c.2.654.506,1.6.9,2.758a86.957,86.957,0,0,0,7.97,17.328c.627,1.05,1.147,1.894,1.511,2.474A4.876,4.876,0,0,1,363.767,224.373Z" transform="translate(-352.495 -199.88)" fill="#263238"/>
            </g>
          </g>
          <g id="Grupo_1020024" data-name="Grupo 1020024" transform="translate(211.646 40.524)">
            <g id="Grupo_1020023" data-name="Grupo 1020023">
              <path id="Trazado_721177" data-name="Trazado 721177" d="M368.439,219.574a4.289,4.289,0,0,1-.734-.672c-.452-.451-1.089-1.121-1.862-1.961-1.549-1.678-3.629-4.052-5.822-6.761s-4.08-5.241-5.4-7.105c-.66-.932-1.181-1.7-1.529-2.231a4.228,4.228,0,0,1-.5-.857,4.219,4.219,0,0,1,.646.755l1.642,2.144c1.382,1.814,3.3,4.307,5.492,7.012s4.224,5.1,5.71,6.833l1.754,2.054A4.227,4.227,0,0,1,368.439,219.574Z" transform="translate(-352.588 -199.985)" fill="#263238"/>
            </g>
          </g>
          <g id="Grupo_1020025" data-name="Grupo 1020025" transform="translate(118.571 63.591)">
            <path id="Trazado_721178" data-name="Trazado 721178" d="M248.991,227.819l5.684-1.141,6.341,4.856-3.883,9.734-7.586.551-4.662-6.783Z" transform="translate(-244.885 -226.678)" fill="#008b8a"/>
          </g>
          <g id="Grupo_1020027" data-name="Grupo 1020027" transform="translate(89.922 44.447)">
            <g id="Grupo_1020026" data-name="Grupo 1020026">
              <path id="Trazado_721179" data-name="Trazado 721179" d="M262.484,204.525a2.867,2.867,0,0,1-.034.488c-.041.35-.094.818-.162,1.41-.16,1.267-.386,3.062-.671,5.322l-2.486,18.775-.048.357-.28-.228-12.1-9.817.336-.062-2.551,4.486-5.157,9.055-.132.232-.2-.173c-7.943-6.82-14.831-12.819-19.7-17.152-2.434-2.167-4.362-3.918-5.663-5.149a11,11,0,0,1-1.9-2,.66.66,0,0,1,.12.134c.084.084.2.213.375.372.335.324.847.787,1.511,1.387,1.332,1.193,3.287,2.911,5.746,5.049,4.918,4.273,11.842,10.229,19.8,17.03l-.334.058c1.645-2.893,3.373-5.936,5.148-9.06l2.554-4.485.13-.23.2.167,12.068,9.851-.328.13c1.085-7.68,2-14.158,2.648-18.754.332-2.253.6-4.043.783-5.306.093-.589.168-1.054.223-1.4A2.806,2.806,0,0,1,262.484,204.525Z" transform="translate(-211.733 -204.525)" fill="#263238"/>
            </g>
          </g>
          <g id="Grupo_1020028" data-name="Grupo 1020028" transform="translate(118.877 78.181)">
            <path id="Trazado_721180" data-name="Trazado 721180" d="M249.6,244.112l-4.356,13.6,12.48,20.222,3.4-24.877-3.94-9.493Z" transform="translate(-245.239 -243.561)" fill="#008b8a"/>
          </g>
          <g id="Grupo_1020032" data-name="Grupo 1020032" transform="translate(57.094 217.925)">
            <g id="Grupo_1020029" data-name="Grupo 1020029" transform="translate(0.188 0.005)">
              <path id="Trazado_721181" data-name="Trazado 721181" d="M177.125,405.273l-3.161,12.909,37.713,3.688,3.122-13.963Z" transform="translate(-173.964 -405.273)" fill="#e0e0e0"/>
            </g>
            <g id="Grupo_1020031" data-name="Grupo 1020031">
              <g id="Grupo_1020030" data-name="Grupo 1020030">
                <path id="Trazado_721182" data-name="Trazado 721182" d="M177.1,405.272a.688.688,0,0,1,.173,0l.531.022,2.08.117,7.83.486,27.075,1.8.251.016-.055.247c-.946,4.242-1.964,8.809-3.017,13.528l-.1.436-.043.2-.2-.02-37.706-3.764-.174-.017.042-.168,2.409-9.506.656-2.52c.072-.264.129-.474.175-.641a.984.984,0,0,1,.067-.207,1.568,1.568,0,0,1-.041.24c-.039.175-.087.4-.148.673-.141.614-.338,1.472-.59,2.567-.53,2.243-1.288,5.456-2.236,9.465l-.13-.185,37.721,3.613-.242.175c.032-.142.065-.289.1-.437l3.033-13.524.2.264-26.929-1.98-7.865-.612-2.118-.177-.552-.054A1.128,1.128,0,0,1,177.1,405.272Z" transform="translate(-173.746 -405.268)" fill="#263238"/>
              </g>
            </g>
          </g>
          <g id="Grupo_1020036" data-name="Grupo 1020036" transform="translate(155.149 218.403)">
            <g id="Grupo_1020033" data-name="Grupo 1020033" transform="translate(0.002 0.228)">
              <path id="Trazado_721183" data-name="Trazado 721183" d="M287.214,408.842l2.941,13.139,28.029-2.11-4.562-13.786Z" transform="translate(-287.214 -406.085)" fill="#e0e0e0"/>
            </g>
            <g id="Grupo_1020035" data-name="Grupo 1020035">
              <g id="Grupo_1020034" data-name="Grupo 1020034">
                <path id="Trazado_721184" data-name="Trazado 721184" d="M287.214,408.807a3.213,3.213,0,0,1,.472-.073l1.426-.174,5.421-.623,19.067-2.1.168-.019.054.162c1.412,4.251,2.959,8.911,4.577,13.782l.091.273-.288.022-.246.019-27.787,2.033-.144.01-.029-.14-2.075-9.683-.541-2.6c-.054-.272-.1-.492-.132-.669a.982.982,0,0,1-.032-.218,1.641,1.641,0,0,1,.072.245l.173.692q.229.957.63,2.626c.536,2.292,1.295,5.542,2.229,9.539l-.174-.13,27.777-2.15.246-.019-.2.3-4.548-13.791.221.143L294.7,408.13l-5.484.516-1.476.129A4.989,4.989,0,0,1,287.214,408.807Z" transform="translate(-287.212 -405.821)" fill="#263238"/>
              </g>
            </g>
          </g>
          <g id="Grupo_1020038" data-name="Grupo 1020038" transform="translate(107.243 138.651)">
            <g id="Grupo_1020037" data-name="Grupo 1020037">
              <path id="Trazado_721185" data-name="Trazado 721185" d="M279.44,313.535a4.84,4.84,0,0,1-.359.665q-.411.69-1.107,1.862c-.961,1.618-2.415,3.92-4.27,6.727s-4.144,6.1-6.781,9.681c-2.657,3.568-5.668,7.426-8.967,11.361-3.314,3.924-6.6,7.552-9.663,10.781-3.08,3.212-5.925,6.035-8.379,8.337s-4.469,4.134-5.9,5.358l-1.645,1.409a4.743,4.743,0,0,1-.594.468,4.659,4.659,0,0,1,.533-.536l1.588-1.471c1.392-1.263,3.377-3.123,5.794-5.457s5.24-5.17,8.3-8.392c3.04-3.239,6.311-6.868,9.619-10.786s6.309-7.77,8.979-11.319c2.651-3.564,4.97-6.825,6.849-9.611s3.38-5.055,4.386-6.642L279,314.153A4.733,4.733,0,0,1,279.44,313.535Z" transform="translate(-231.777 -313.535)" fill="#263238"/>
            </g>
          </g>
        </g>
        <g id="Grupo_1020067" data-name="Grupo 1020067" transform="translate(236.205 2.068)">
          <g id="Grupo_1020040" data-name="Grupo 1020040" transform="translate(0 50.881)">
            <path id="Trazado_721186" data-name="Trazado 721186" d="M387.687,145.5c-.583.467-6.68,16.918-6.68,16.918L404.139,181.2l3.151-25.786Z" transform="translate(-381.007 -145.497)" fill="#ffbf9d"/>
          </g>
          <g id="Grupo_1020041" data-name="Grupo 1020041" transform="translate(0 43.763)">
            <path id="Trazado_721187" data-name="Trazado 721187" d="M387.57,137.26l-1.75,3.151s-6.651.7-4.317,5.484,28.12,14.235,28.12,14.235l.933-10.968Z" transform="translate(-381.007 -137.26)" fill="#3076b6"/>
          </g>
          <g id="Grupo_1020042" data-name="Grupo 1020042" transform="translate(4.202 6.599)">
            <path id="Trazado_721188" data-name="Trazado 721188" d="M418.677,125.149s2.827-5.316-1.131-8.935c-.216-.2-.4-.364-.576-.521.339-1.39,1.333-6.08-.1-8.188-1.7-2.488-6.56-5.2-6.56-5.2s2.036-3.846-.678-6.107-9.84-1.923-9.84-1.923l-8.708,2.941c-.34,0-2.714,0-3.506,5.2s-1.81,13.572-1.7,16.06,1.81,14.364,1.81,14.364l21.828,10.292s9.953-11.2,10.292-14.137S418.677,125.149,418.677,125.149Z" transform="translate(-385.869 -94.255)" fill="#3076b6"/>
          </g>
          <g id="Grupo_1020052" data-name="Grupo 1020052" transform="translate(1.798)">
            <g id="Grupo_1020046" data-name="Grupo 1020046" transform="translate(2.331 1.362)">
              <g id="Grupo_1020043" data-name="Grupo 1020043" transform="translate(0.275 0.264)">
                <path id="Trazado_721189" data-name="Trazado 721189" d="M427.155,134.107a19.813,19.813,0,0,0-19.766-13.376L396.377,88.5,386.1,92.012l11.013,32.23a19.807,19.807,0,1,0,30.04,9.865Z" transform="translate(-386.102 -88.502)" fill="#fff"/>
              </g>
              <g id="Grupo_1020045" data-name="Grupo 1020045">
                <g id="Grupo_1020044" data-name="Grupo 1020044">
                  <path id="Trazado_721190" data-name="Trazado 721190" d="M427.112,134.066s.055.14.143.421c.09.3.216.714.38,1.254s.257,1.263.425,2.091c.063.417.082.873.129,1.358q.03.366.062.753-.007.389-.013.8a19.918,19.918,0,0,1-8.346,16.013,20.059,20.059,0,0,1-31.3-13.148,20.361,20.361,0,0,1-.207-4.317,21.748,21.748,0,0,1,.239-2.183,21.336,21.336,0,0,1,.506-2.159,19.4,19.4,0,0,1,1.709-4.145,20.208,20.208,0,0,1,2.635-3.72,21.674,21.674,0,0,1,3.465-3.069l-.084.257-2.71-7.929c-2.878-8.429-5.663-16.591-8.3-24.3l-.07-.206.2-.07,10.278-3.5.2-.067.067.2,10.96,32.248-.152-.1a19.967,19.967,0,0,1,16.58,7.535,20.605,20.605,0,0,1,2.591,4.344c.214.536.359.951.461,1.227s.141.422.141.422-.068-.136-.182-.407c-.119-.287-.284-.687-.5-1.207a21.423,21.423,0,0,0-2.643-4.275,19.847,19.847,0,0,0-16.433-7.334l-.115.006-.037-.109c-3.033-8.828-6.8-19.795-11.066-32.212l.264.13L386.13,92.176l.135-.275c2.638,7.712,5.429,15.872,8.312,24.3.927,2.716,1.846,5.4,2.708,7.93l.054.156-.138.1a21.224,21.224,0,0,0-3.389,3,19.758,19.758,0,0,0-2.579,3.636,18.962,18.962,0,0,0-1.676,4.053,20.887,20.887,0,0,0-.5,2.11,21.319,21.319,0,0,0-.237,2.135,20.008,20.008,0,0,0,.2,4.225,19.658,19.658,0,0,0,39.057-2.8c.008-.273.015-.538.022-.8q-.027-.385-.052-.748c-.041-.481-.053-.935-.109-1.351-.154-.824-.233-1.533-.382-2.088s-.258-.96-.34-1.26S427.112,134.066,427.112,134.066Z" transform="translate(-385.784 -88.196)" fill="#263238"/>
                </g>
              </g>
            </g>
            <g id="Grupo_1020047" data-name="Grupo 1020047" transform="translate(4.4 3.551)">
              <path id="Trazado_721191" data-name="Trazado 721191" d="M425.526,134.635c-1.983-7.6-11.8-12.2-19.272-11.808l-10.723-32.1-7.353,2.513,11.752,31.473c-6.658,3.674-11.583,14.655-8.486,21.877,3.869,9.019,13.963,14.139,22.946,11.069S428.13,144.622,425.526,134.635Z" transform="translate(-388.178 -90.729)" fill="#e0e0e0"/>
            </g>
            <g id="Grupo_1020051" data-name="Grupo 1020051">
              <g id="Grupo_1020048" data-name="Grupo 1020048" transform="translate(0.224 0.141)">
                <path id="Trazado_721192" data-name="Trazado 721192" d="M397.3,89.365l-12.2,4.167a1.328,1.328,0,0,1-1.685-.826h0a1.326,1.326,0,0,1,.827-1.684l12.2-4.168a1.327,1.327,0,0,1,1.685.827h0A1.327,1.327,0,0,1,397.3,89.365Z" transform="translate(-383.346 -86.782)" fill="#fff"/>
              </g>
              <g id="Grupo_1020050" data-name="Grupo 1020050">
                <g id="Grupo_1020049" data-name="Grupo 1020049">
                  <path id="Trazado_721193" data-name="Trazado 721193" d="M397.264,89.343c-.007-.019.108-.06.284-.192a1.3,1.3,0,0,0,.492-.78,1.229,1.229,0,0,0-.512-1.263,1.192,1.192,0,0,0-.84-.2,9.991,9.991,0,0,0-1.015.337c-2.907,1.037-6.934,2.44-11.39,3.962a1.1,1.1,0,0,0,.113,2.121,1.153,1.153,0,0,0,.69-.06l.767-.259,1.486-.5,5.146-1.707,3.482-1.115a7.669,7.669,0,0,1,1.3-.35,7.649,7.649,0,0,1-1.24.516l-3.435,1.25-5.115,1.8-1.48.514-.766.264a1.593,1.593,0,0,1-.928.078,1.549,1.549,0,0,1-.162-2.977c4.457-1.523,8.5-2.878,11.433-3.837a8.82,8.82,0,0,1,1.083-.321,1.453,1.453,0,0,1,1.021.274,1.419,1.419,0,0,1,.537,1.508,1.328,1.328,0,0,1-.612.816A.621.621,0,0,1,397.264,89.343Z" transform="translate(-383.087 -86.619)" fill="#263238"/>
                </g>
              </g>
            </g>
          </g>
          <g id="Grupo_1020053" data-name="Grupo 1020053" transform="translate(0.781 10.383)">
            <path id="Trazado_721194" data-name="Trazado 721194" d="M390.247,110.2c.766-2.3.191-7.47-1.053-10.247-.588-1.311-2.943-1.925-3.661-.523a62.1,62.1,0,0,0-3.617,13.93c-.192,3.256,4.877,8.567,4.877,8.567l3.713-5.6S389.48,112.5,390.247,110.2Z" transform="translate(-381.91 -98.634)" fill="#3076b6"/>
          </g>
          <g id="Grupo_1020055" data-name="Grupo 1020055" transform="translate(7.613 19.474)">
            <g id="Grupo_1020054" data-name="Grupo 1020054">
              <path id="Trazado_721195" data-name="Trazado 721195" d="M389.843,117.266a19.325,19.325,0,0,1,.684-4.1,19.429,19.429,0,0,1,1.124-4.007,19.343,19.343,0,0,1-.684,4.106A19.39,19.39,0,0,1,389.843,117.266Z" transform="translate(-389.816 -109.154)" fill="#263238"/>
            </g>
          </g>
          <g id="Grupo_1020056" data-name="Grupo 1020056" transform="translate(11.07 46.798)">
            <path id="Trazado_721196" data-name="Trazado 721196" d="M424.1,142.849a15.554,15.554,0,1,1-28.655-1.935s8.841-1.035,15.426,2.5S424.1,142.849,424.1,142.849Z" transform="translate(-393.817 -140.772)" fill="#455a64"/>
          </g>
          <g id="Grupo_1020057" data-name="Grupo 1020057" transform="translate(8.699 3.756)" opacity="0.4">
            <path id="Trazado_721197" data-name="Trazado 721197" d="M391.073,92.368c.1.23,11.093,32.511,11.093,32.511s15.909,8.777,16.635,20.65l6.695-2.3s2.612-18.878-19.6-20.167l-10.723-32.1Z" transform="translate(-391.073 -90.966)" fill="#fff"/>
          </g>
          <g id="Grupo_1020058" data-name="Grupo 1020058" transform="translate(15.436 6.599)">
            <path id="Trazado_721198" data-name="Trazado 721198" d="M400.211,94.669a1.868,1.868,0,0,0-.862,2.844,4.913,4.913,0,0,0,2.394,2.423s-3.582.575-2.749,2.777a4.344,4.344,0,0,0,2.749,2.682s-2.394,2.49,1.245,4.884l2.873,1.34a5.579,5.579,0,0,0,1.436,5.938l2.777,2.968s8.428,2.3,8.332.575-.1-3.927-2.969-5.267c0,0,2.394-5.679-.192-8.586a53.075,53.075,0,0,0-5.554-5.3s2.682-1.782-.384-4.434S402.51,93.52,400.211,94.669Z" transform="translate(-398.869 -94.255)" fill="#3076b6"/>
          </g>
          <g id="Grupo_1020060" data-name="Grupo 1020060" transform="translate(17.61 12.024)">
            <g id="Grupo_1020059" data-name="Grupo 1020059">
              <path id="Trazado_721199" data-name="Trazado 721199" d="M413.565,103.832a19.021,19.021,0,0,0-12.18-2.873,5.485,5.485,0,0,1,1.861-.372,14.64,14.64,0,0,1,8.82,2.08A5.488,5.488,0,0,1,413.565,103.832Z" transform="translate(-401.385 -100.533)" fill="#263238"/>
            </g>
          </g>
          <g id="Grupo_1020062" data-name="Grupo 1020062" transform="translate(17.949 17.706)">
            <g id="Grupo_1020061" data-name="Grupo 1020061">
              <path id="Trazado_721200" data-name="Trazado 721200" d="M415.547,110.48a69.541,69.541,0,0,0-6.746-2.22,69.083,69.083,0,0,0-7.024-1.055,7.636,7.636,0,0,1,2.1-.082,26.651,26.651,0,0,1,9.83,2.338A7.654,7.654,0,0,1,415.547,110.48Z" transform="translate(-401.777 -107.108)" fill="#263238"/>
            </g>
          </g>
          <g id="Grupo_1020064" data-name="Grupo 1020064" transform="translate(22.3 23.81)">
            <g id="Grupo_1020063" data-name="Grupo 1020063">
              <path id="Trazado_721201" data-name="Trazado 721201" d="M417.439,117.45c-.063.122-2.292-1.017-5.227-1.9-2.931-.9-5.416-1.2-5.4-1.339a5.1,5.1,0,0,1,1.647.067,23.972,23.972,0,0,1,7.576,2.31A5.115,5.115,0,0,1,417.439,117.45Z" transform="translate(-406.811 -114.172)" fill="#263238"/>
            </g>
          </g>
          <g id="Grupo_1020066" data-name="Grupo 1020066" transform="translate(21.733 24.055)">
            <g id="Grupo_1020065" data-name="Grupo 1020065">
              <path id="Trazado_721202" data-name="Trazado 721202" d="M416.425,123.148a9.323,9.323,0,0,1-2.167-.361,15.185,15.185,0,0,1-4.943-1.977c-1.753-1.154-3-2.817-3.14-4.262a2.832,2.832,0,0,1,.283-1.626c.188-.347.365-.482.384-.465a3.374,3.374,0,0,0-.351,2.047,6.642,6.642,0,0,0,3.074,3.93,17.692,17.692,0,0,0,4.775,2.045A12.383,12.383,0,0,1,416.425,123.148Z" transform="translate(-406.155 -114.455)" fill="#263238"/>
            </g>
          </g>
        </g>
        <g id="Grupo_1020087" data-name="Grupo 1020087" transform="translate(30.506 130.532)">
          <g id="Grupo_1020080" data-name="Grupo 1020080" transform="translate(18.738)">
            <g id="Grupo_1020078" data-name="Grupo 1020078">
              <g id="Grupo_1020071" data-name="Grupo 1020071" transform="translate(0 1.171)">
                <g id="Grupo_1020068" data-name="Grupo 1020068" transform="translate(0.211 0.14)">
                  <path id="Trazado_721203" data-name="Trazado 721203" d="M177.677,236.791v48.6l-12.422,29.346a4.362,4.362,0,0,0,4.017,6.062H214.3a4.362,4.362,0,0,0,3.975-6.159L205.057,285.4v-48.6Z" transform="translate(-164.905 -236.791)" fill="#fff"/>
                </g>
                <g id="Grupo_1020070" data-name="Grupo 1020070">
                  <g id="Grupo_1020069" data-name="Grupo 1020069">
                    <path id="Trazado_721204" data-name="Trazado 721204" d="M177.644,236.769s.149-.01.456-.014l1.372-.015,5.357-.035,20.194-.077h.14v.14c.017,12.609.041,29.364.067,48.6l-.018-.085,9.821,21.7,2.58,5.7.652,1.441a6.314,6.314,0,0,1,.532,1.552,4.959,4.959,0,0,1-.037,1.668,4.619,4.619,0,0,1-1.784,2.773,4.969,4.969,0,0,1-1.522.729,6.5,6.5,0,0,1-1.664.153h-8.173l-21.344,0-10.242,0c-1.683-.006-3.336.011-5-.016a4.55,4.55,0,0,1-4-2.784,4.473,4.473,0,0,1-.312-2.481,10.785,10.785,0,0,1,.823-2.294l1.839-4.335,3.552-8.37c2.311-5.441,4.5-10.6,6.547-15.415l-.014.069c.039-14.874.071-27.041.093-35.5.02-4.2.035-7.478.045-9.722.009-1.1.016-1.944.02-2.529.007-.569.019-.851.019-.851s.013.308.019.888.011,1.447.02,2.561c.01,2.254.026,5.545.045,9.762.022,8.436.054,20.565.094,35.393v.036l-.015.033-6.51,15.431q-1.725,4.085-3.537,8.377-.906,2.144-1.832,4.337a10.51,10.51,0,0,0-.792,2.2,4.046,4.046,0,0,0,.286,2.249,4.123,4.123,0,0,0,3.625,2.522c1.631.024,3.311.005,4.985.01l10.242,0,21.344,0h8.173a6.023,6.023,0,0,0,1.549-.137,4.543,4.543,0,0,0,1.371-.657,4.176,4.176,0,0,0,1.612-2.5,4.53,4.53,0,0,0,.035-1.5,16.007,16.007,0,0,0-1.149-2.883l-2.576-5.705-9.8-21.708-.018-.041v-.045c.027-19.241.05-36,.067-48.6l.139.14-20.111-.077-5.388-.035-1.4-.015C177.811,236.779,177.644,236.769,177.644,236.769Z" transform="translate(-164.662 -236.629)" fill="#263238"/>
                  </g>
                </g>
              </g>
              <g id="Grupo_1020072" data-name="Grupo 1020072" transform="translate(3.292 3.105)">
                <path id="Trazado_721205" data-name="Trazado 721205" d="M180.207,238.867v47.9l-11.572,28.286a2.119,2.119,0,0,0,1.891,2.952h43.492a2.12,2.12,0,0,0,1.871-3l-12.336-28.24v-47.9Z" transform="translate(-168.471 -238.867)" fill="#e0e0e0"/>
              </g>
              <g id="Grupo_1020073" data-name="Grupo 1020073" transform="translate(3.292 57.792)">
                <path id="Trazado_721206" data-name="Trazado 721206" d="M207.2,303.72l8.686,19.884a2.12,2.12,0,0,1-1.871,3H170.526a2.119,2.119,0,0,1-1.891-2.952l8.491-20.757s5.54-1.1,8.92-.627,6.923,2.751,11.131,2.751A40.218,40.218,0,0,0,207.2,303.72Z" transform="translate(-168.471 -302.149)" fill="#4db1f0"/>
              </g>
              <g id="Grupo_1020077" data-name="Grupo 1020077" transform="translate(10.938)">
                <g id="Grupo_1020074" data-name="Grupo 1020074" transform="translate(0.224 0.225)">
                  <path id="Trazado_721207" data-name="Trazado 721207" d="M208,238.414H179.018a1.44,1.44,0,0,1-1.441-1.441h0a1.44,1.44,0,0,1,1.441-1.44H208a1.44,1.44,0,0,1,1.441,1.44h0A1.44,1.44,0,0,1,208,238.414Z" transform="translate(-177.577 -235.534)" fill="#fff"/>
                </g>
                <g id="Grupo_1020076" data-name="Grupo 1020076">
                  <g id="Grupo_1020075" data-name="Grupo 1020075">
                    <path id="Trazado_721208" data-name="Trazado 721208" d="M207.964,238.379a2.253,2.253,0,0,0,.635-.2,1.39,1.39,0,0,0,.671-1.586,1.346,1.346,0,0,0-.872-.913,2.145,2.145,0,0,0-.762-.065l-.872.009-4.091.033-23.691.066a1.216,1.216,0,0,0-.217,2.412,6.821,6.821,0,0,0,.8.022l1.65,0,6.29.013,10.65.048,7.18.072,1.952.041a3.828,3.828,0,0,1,.68.046,3.9,3.9,0,0,1-.68.045l-1.952.042-7.18.072-10.65.048-6.29.013-1.65,0a6.537,6.537,0,0,1-.874-.027,1.663,1.663,0,0,1,.3-3.3l23.691.066,4.091.034.872.009a2.346,2.346,0,0,1,.832.1,1.532,1.532,0,0,1,.971,1.072,1.515,1.515,0,0,1-.172,1.144,1.462,1.462,0,0,1-.627.568A1.1,1.1,0,0,1,207.964,238.379Z" transform="translate(-177.318 -235.274)" fill="#263238"/>
                  </g>
                </g>
              </g>
            </g>
            <g id="Grupo_1020079" data-name="Grupo 1020079" transform="translate(26.912 3.105)" opacity="0.4">
              <path id="Trazado_721209" data-name="Trazado 721209" d="M196.1,240.74c.172,8.372-.26,42.083-.294,44.661a1.776,1.776,0,0,0,.024.317l4.809,29.153a1.837,1.837,0,0,0,1.813,1.538h10.558a1.837,1.837,0,0,0,1.7-2.535l-11.481-27.982a1.822,1.822,0,0,1-.138-.7V240.7a1.837,1.837,0,0,0-1.837-1.837h-3.318A1.835,1.835,0,0,0,196.1,240.74Z" transform="translate(-195.803 -238.867)" fill="#fff"/>
            </g>
          </g>
          <g id="Grupo_1020086" data-name="Grupo 1020086" transform="translate(0 7.769)">
            <g id="Grupo_1020081" data-name="Grupo 1020081">
              <path id="Trazado_721210" data-name="Trazado 721210" d="M144.384,279.09l7.637-9.027s8.836-18.493,11.745-20.313,7.274-5.091,13.819-5.455,18,2.546,16.91,4.728a4.319,4.319,0,0,1-3.273,2.364l8,1.688a3.259,3.259,0,0,1,2.5,3.957,4.466,4.466,0,0,1-3.591,3.613s.909,2.561-.728,4.2-10.91.909-10.91.909-7.454,6-6.909,5.819,16-4.364,17.274-2.546.181,3.091-1.273,3.818-16.184,5.456-17.456,6.365-11.638,11.943-14.911,12.608-3.636,1.392-3.636,1.392l-4.364,10.546s-6.91-6.365-10.546-13.638S144.384,279.09,144.384,279.09Z" transform="translate(-142.979 -244.264)" fill="#3076b6"/>
            </g>
            <g id="Grupo_1020083" data-name="Grupo 1020083" transform="translate(28.746 5.86)">
              <g id="Grupo_1020082" data-name="Grupo 1020082">
                <path id="Trazado_721211" data-name="Trazado 721211" d="M176.243,252.308a2.612,2.612,0,0,1,.744-.226c.485-.115,1.188-.28,2.071-.417A44.57,44.57,0,0,1,186,251.05a39.664,39.664,0,0,1,6.955.492,8.122,8.122,0,0,1,2.786.766,4.386,4.386,0,0,1-.76-.136c-.487-.089-1.193-.2-2.071-.315a52.348,52.348,0,0,0-6.9-.356,60.93,60.93,0,0,0-6.9.48A24.961,24.961,0,0,1,176.243,252.308Z" transform="translate(-176.243 -251.045)" fill="#263238"/>
              </g>
            </g>
            <g id="Grupo_1020085" data-name="Grupo 1020085" transform="translate(36.87 13.288)">
              <g id="Grupo_1020084" data-name="Grupo 1020084">
                <path id="Trazado_721212" data-name="Trazado 721212" d="M185.644,261.312c0-.024.239-.108.677-.342a9.85,9.85,0,0,1,1.964-.718,25.668,25.668,0,0,1,6.841-.6A18.39,18.39,0,0,1,201.9,260.8a4.518,4.518,0,0,1,1.719,1.221c.32.4.339.712.308.71a3.613,3.613,0,0,0-.44-.6,4.9,4.9,0,0,0-1.71-1.043,20.43,20.43,0,0,0-6.66-.99,30.331,30.331,0,0,0-6.758.457C186.672,260.916,185.691,261.467,185.644,261.312Z" transform="translate(-185.644 -259.64)" fill="#263238"/>
              </g>
            </g>
          </g>
        </g>
        <g id="Grupo_1020106" data-name="Grupo 1020106" transform="translate(55.071)">
          <g id="Grupo_1020088" data-name="Grupo 1020088" transform="translate(18.235 12.586)">
            <path id="Trazado_721213" data-name="Trazado 721213" d="M212.111,184.713l-16.926-45.142c-6.17-16.278-1.84-33.437,14.6-39.153l1.55-.44a31.12,31.12,0,0,1,37.653,19.065c5.27,14.139,10.91,29.829,13.015,37.619C266.365,172.786,251,179.843,251,179.843c-.036.012-.133-.246,1.406,4.408L244.238,206.3h0Z" transform="translate(-192.505 -98.791)" fill="#ffbf9d"/>
          </g>
          <g id="Grupo_1020089" data-name="Grupo 1020089" transform="translate(54.051 93.386)">
            <path id="Trazado_721214" data-name="Trazado 721214" d="M256.63,192.542a40.356,40.356,0,0,1-22.679-.253s8.459,10.654,24.085,4.661Z" transform="translate(-233.951 -192.289)" fill="#ff9a6c"/>
          </g>
          <g id="Grupo_1020090" data-name="Grupo 1020090" transform="translate(69.395 46.71)">
            <path id="Trazado_721215" data-name="Trazado 721215" d="M256.321,139.81a2.385,2.385,0,0,1-1.556,2.943,2.281,2.281,0,0,1-2.951-1.4,2.385,2.385,0,0,1,1.553-2.943A2.283,2.283,0,0,1,256.321,139.81Z" transform="translate(-251.706 -138.277)" fill="#263238"/>
          </g>
          <g id="Grupo_1020091" data-name="Grupo 1020091" transform="translate(64.198 39.512)">
            <path id="Trazado_721216" data-name="Trazado 721216" d="M254.811,131.34c-.2.379-2.3-.414-4.771.293-2.475.67-3.928,2.454-4.281,2.228-.169-.1-.033-.719.594-1.517a6.545,6.545,0,0,1,3.322-2.154,6.283,6.283,0,0,1,3.9.141C254.5,130.7,254.913,131.166,254.811,131.34Z" transform="translate(-245.692 -129.949)" fill="#263238"/>
          </g>
          <g id="Grupo_1020092" data-name="Grupo 1020092" transform="translate(48.907 54.331)">
            <path id="Trazado_721217" data-name="Trazado 721217" d="M232.614,148.629a2.386,2.386,0,0,1-1.557,2.943,2.281,2.281,0,0,1-2.952-1.4,2.387,2.387,0,0,1,1.554-2.943A2.284,2.284,0,0,1,232.614,148.629Z" transform="translate(-227.998 -147.096)" fill="#263238"/>
          </g>
          <g id="Grupo_1020093" data-name="Grupo 1020093" transform="translate(40.151 46.949)">
            <path id="Trazado_721218" data-name="Trazado 721218" d="M226.986,139.944c-.2.38-2.306-.412-4.772.294-2.474.671-3.927,2.455-4.281,2.229-.169-.1-.035-.718.595-1.517a6.549,6.549,0,0,1,3.322-2.154,6.3,6.3,0,0,1,3.9.14C226.675,139.3,227.087,139.772,226.986,139.944Z" transform="translate(-217.866 -138.554)" fill="#263238"/>
          </g>
          <g id="Grupo_1020094" data-name="Grupo 1020094" transform="translate(56.534 44.543)">
            <path id="Trazado_721219" data-name="Trazado 721219" d="M243.8,156.032c-.051-.137,1.409-.838,3.806-1.861.613-.244,1.174-.538,1.157-1a3.332,3.332,0,0,0-.951-1.75l-3.226-4.273c-4.528-6.1-8-11.193-7.75-11.373s4.119,4.62,8.647,10.723c1.1,1.51,2.153,2.947,3.156,4.324a3.8,3.8,0,0,1,1.029,2.382,1.646,1.646,0,0,1-.775,1.216,4.487,4.487,0,0,1-1.03.454C245.4,155.717,243.849,156.169,243.8,156.032Z" transform="translate(-236.824 -135.77)" fill="#263238"/>
          </g>
          <g id="Grupo_1020095" data-name="Grupo 1020095" transform="translate(36.42 39.05)">
            <path id="Trazado_721220" data-name="Trazado 721220" d="M225.008,130.752c-.156.726-2.741.742-5.676,1.507-2.951.705-5.239,1.906-5.719,1.339-.216-.273.115-.981,1-1.782a10.208,10.208,0,0,1,8.682-2.168C224.447,129.94,225.072,130.41,225.008,130.752Z" transform="translate(-213.549 -129.414)" fill="#263238"/>
          </g>
          <g id="Grupo_1020096" data-name="Grupo 1020096" transform="translate(61.32 32.198)">
            <path id="Trazado_721221" data-name="Trazado 721221" d="M252.413,122.9c-.344.712-2.52.732-4.936,1.427-2.435.622-4.333,1.708-4.978,1.263-.289-.221-.137-.877.6-1.672a8.08,8.08,0,0,1,3.726-2.114,7.961,7.961,0,0,1,4.261-.054C252.1,122.066,252.557,122.557,252.413,122.9Z" transform="translate(-242.362 -121.484)" fill="#263238"/>
          </g>
          <g id="Grupo_1020097" data-name="Grupo 1020097" transform="translate(16.455 64.888)">
            <path id="Trazado_721222" data-name="Trazado 721222" d="M199.591,159.318c-.307-.041-11.967-.135-8.5,10.752s14.63,5.094,14.549,4.776S199.591,159.318,199.591,159.318Z" transform="translate(-190.446 -159.313)" fill="#ffbf9d"/>
          </g>
          <g id="Grupo_1020098" data-name="Grupo 1020098" transform="translate(19.582 69.383)">
            <path id="Trazado_721223" data-name="Trazado 721223" d="M200.543,172.554c-.059-.02-.148.193-.421.442a1.988,1.988,0,0,1-1.409.48c-1.284-.055-2.835-1.574-3.512-3.519a6.581,6.581,0,0,1-.334-2.885,2.3,2.3,0,0,1,.963-1.91,1.013,1.013,0,0,1,1.285.164c.243.258.243.5.307.5.039.018.175-.257-.055-.678a1.266,1.266,0,0,0-.646-.546,1.5,1.5,0,0,0-1.137.056,2.8,2.8,0,0,0-1.444,2.319,6.765,6.765,0,0,0,.309,3.244c.768,2.172,2.544,3.867,4.263,3.821a2.131,2.131,0,0,0,1.643-.84C200.607,172.823,200.587,172.562,200.543,172.554Z" transform="translate(-194.065 -164.514)" fill="#ff9a6c"/>
          </g>
          <g id="Grupo_1020099" data-name="Grupo 1020099">
            <path id="Trazado_721224" data-name="Trazado 721224" d="M263.339,95.584a2.713,2.713,0,0,0-1.689-1.124c-1.481-.342-2.887.21-4.284.627a24.073,24.073,0,0,1-10.76.647,11.913,11.913,0,0,0,2.281-2.984c1.206-2.313,1.367-5.322-.182-7.421a1.589,1.589,0,0,0-1.184-.772c-.776.006-1.176.9-1.5,1.6-1.049,2.326-2.3,3.578-4.8,4.1a10.126,10.126,0,0,1-4.528.085c-.063-.034-.122-.075-.185-.109-.752-.405-1.481-.789-2.2-1.157l-.005,0,0,0c-5.383-2.77-9.8-4.472-13.889-4.785-6-.461-15.166,1.484-20.251,4.692s-8.644,9.282-7.619,15.207c-3.941-1.645-8.6-.148-11.91,2.573l-.108-.011c-3.743,2.837-4.731,8.052-4.616,12.748.007.257.022.513.034.771a17.539,17.539,0,0,1-3.924,7.339c-.333.366-.708.8-.609,1.289s.612.742,1.078.894a8.818,8.818,0,0,0,3.863.34,19.952,19.952,0,0,1-.461,3.407c-.221.957-.482,2.1.2,2.809a1.867,1.867,0,0,0,2.119.222,5.477,5.477,0,0,0,1.683-1.51q-.172,1.913-.343,3.826a10.448,10.448,0,0,0,4.491-1.756c2.168,3.739,5.2,10.977,7.1,13.376,2.907-.863,3.51-1.4,5.123-1.378,2.084.029,2.42,3.6,4.575,1.872,1.1-.878,1.517-6.221,1.534-7.626a65.241,65.241,0,0,0-5.631-27.183,20.965,20.965,0,0,1,4.766-6.408l-.135.229c3.965-2.955,8.523-6.07,13.409-5.315,3.792.586,6.794,3.378,10.1,5.318,6.272,3.676,12.4,4.759,19.418,2.868,2.145,4.612,4.816,12.419,6.47,16.833l.992-10.195.015.035c.143-.624.231-1.236.31-1.845l.034-.188-.006-.02a29.088,29.088,0,0,1,.455-2.953l.055.025c3.109,1.377,5.656-3.036,2.911-5.045a6.622,6.622,0,0,0-1.786-.933,4.655,4.655,0,0,0,4.572-.241,3.651,3.651,0,0,0,1.373-4.22,3.106,3.106,0,0,0-2.515-1.817,10.473,10.473,0,0,0,5.289-3.051C263.4,98.278,264.166,96.875,263.339,95.584Z" transform="translate(-171.404 -84.226)" fill="#263238"/>
          </g>
          <g id="Grupo_1020100" data-name="Grupo 1020100" transform="translate(11.561 20.211)">
            <path id="Trazado_721225" data-name="Trazado 721225" d="M199.967,107.614a14.4,14.4,0,0,0-1.137,1.969,12,12,0,0,0-.773,6.067,21.1,21.1,0,0,0,.874,4.181c.458,1.47,1.072,3,1.709,4.627a44.2,44.2,0,0,1,1.772,5.19,19.241,19.241,0,0,1,.512,2.872,6.018,6.018,0,0,1-.279,3.032,2.522,2.522,0,0,1-2.011,1.467,3.748,3.748,0,0,1-2.386-.5,8.664,8.664,0,0,1-2.818-3.568l.347-.065a13.971,13.971,0,0,1-.884,3.953,4.982,4.982,0,0,1-2.567,2.67,3.2,3.2,0,0,1-1.734.232,2.776,2.776,0,0,1-1.465-.748,2.861,2.861,0,0,1-.786-1.306,2.077,2.077,0,0,1,.12-1.4l.217.1a10.78,10.78,0,0,1-2.613,3.653,9.648,9.648,0,0,1-.931.748,1.842,1.842,0,0,1-.351.214,2.059,2.059,0,0,1,.311-.267c.207-.173.514-.427.883-.789a11.111,11.111,0,0,0,2.481-3.652l.218.1a2.145,2.145,0,0,0,.642,2.4,2.506,2.506,0,0,0,1.318.654,2.919,2.919,0,0,0,1.567-.228,4.665,4.665,0,0,0,2.371-2.516,13.814,13.814,0,0,0,.835-3.859l.068-.583.28.518a8.362,8.362,0,0,0,2.688,3.411,3.375,3.375,0,0,0,2.135.45,2.128,2.128,0,0,0,1.71-1.245,5.7,5.7,0,0,0,.248-2.832,19.14,19.14,0,0,0-.5-2.815,44.809,44.809,0,0,0-1.737-5.154c-.627-1.624-1.233-3.169-1.683-4.662a20.967,20.967,0,0,1-.839-4.25,11.829,11.829,0,0,1,.911-6.156A6.8,6.8,0,0,1,199.967,107.614Z" transform="translate(-184.783 -107.614)" fill="#455a64"/>
          </g>
          <g id="Grupo_1020101" data-name="Grupo 1020101" transform="translate(26.656 7.982)">
            <path id="Trazado_721226" data-name="Trazado 721226" d="M256.568,105.612a.605.605,0,0,1-.093.149l-.307.416a5.569,5.569,0,0,1-.538.647,9.126,9.126,0,0,1-.809.818,14.84,14.84,0,0,1-6.436,3.385,18.949,18.949,0,0,1-10.745-.512A32.8,32.8,0,0,1,226.36,103.6c-1.771-1.563-3.341-3.244-4.96-4.743a22.179,22.179,0,0,0-5.1-3.727,11.418,11.418,0,0,0-5.475-1.336,8.158,8.158,0,0,0-2.51.487,8.985,8.985,0,0,0-2.084,1.128,9.684,9.684,0,0,0-3.754,5.955,11.527,11.527,0,0,0-.067,2.65.534.534,0,0,1-.04-.171l-.08-.512a8.409,8.409,0,0,1,.036-1.992,9.527,9.527,0,0,1,1.02-2.985,9.788,9.788,0,0,1,2.719-3.168A9.21,9.21,0,0,1,208.208,94a8.434,8.434,0,0,1,2.605-.529,11.7,11.7,0,0,1,5.648,1.338,22.317,22.317,0,0,1,5.2,3.769c1.637,1.508,3.207,3.183,4.961,4.732a32.843,32.843,0,0,0,11.132,6.865,18.838,18.838,0,0,0,10.565.585,15.064,15.064,0,0,0,6.4-3.23A23.857,23.857,0,0,0,256.568,105.612Z" transform="translate(-202.249 -93.463)" fill="#455a64"/>
          </g>
          <g id="Grupo_1020102" data-name="Grupo 1020102" transform="translate(63.484 12.665)">
            <path id="Trazado_721227" data-name="Trazado 721227" d="M261.592,98.884a2.622,2.622,0,0,1-.446.579,12.862,12.862,0,0,1-1.422,1.395,17.173,17.173,0,0,1-2.4,1.728,18.2,18.2,0,0,1-6.81,2.395,17.316,17.316,0,0,1-2.955.157,12.986,12.986,0,0,1-1.982-.2,2.6,2.6,0,0,1-.71-.172c.011-.073,1.034.1,2.7.093a19.516,19.516,0,0,0,2.9-.236,19.5,19.5,0,0,0,6.681-2.35,19.712,19.712,0,0,0,2.408-1.631C260.849,99.611,261.538,98.834,261.592,98.884Z" transform="translate(-244.866 -98.881)" fill="#455a64"/>
          </g>
          <g id="Grupo_1020103" data-name="Grupo 1020103" transform="translate(58.24 69.162)">
            <path id="Trazado_721228" data-name="Trazado 721228" d="M238.928,164.265c.36-.149,1.215,2.3,3.917,3.316s5.219-.161,5.357.175c.087.143-.417.678-1.51,1.091a6.465,6.465,0,0,1-4.425-.008A5.63,5.63,0,0,1,239.141,166C238.693,165.012,238.756,164.309,238.928,164.265Z" transform="translate(-238.798 -164.259)" fill="#263238"/>
          </g>
          <g id="Grupo_1020104" data-name="Grupo 1020104" transform="translate(33.395 34.301)" opacity="0.5">
            <path id="Trazado_721229" data-name="Trazado 721229" d="M210.327,142.717a4.263,4.263,0,0,1,2.569-5.533c10.488-3.713,38-13.258,39.9-13.266.819,0,8.3,17.616,6.723,19.581-3.358,4.175-10.064,5.208-12.849,3.312s-6-6.837-8.014-4.823.1,8.8-3.3,10.75-12.977,6.169-17.438,3.218C215,154.026,212.03,147.2,210.327,142.717Z" transform="translate(-210.049 -123.918)" fill="#fff"/>
          </g>
          <g id="Grupo_1020105" data-name="Grupo 1020105" transform="translate(20.053 51.319)">
            <path id="Trazado_721230" data-name="Trazado 721230" d="M207.7,143.611c-.158.225-13.1,14.776-13.1,14.776l6.035-1.206,10.333-5.522Z" transform="translate(-194.609 -143.611)" fill="#455a64"/>
          </g>
        </g>
      </g>
    </g>
  </g>
</svg>
