<svg xmlns="http://www.w3.org/2000/svg" width="105" height="105" viewBox="0 0 105 105">
  <g id="Grupo_1022848" data-name="Grupo 1022848" transform="translate(-180 -19650)">
    <circle id="Elipse_8559" data-name="Elipse 8559" cx="52.5" cy="52.5" r="52.5" transform="translate(180 19650)" fill="#3076b6"/>
    <path id="Trazado_723225" data-name="Trazado 723225" d="M196.521-263.788A34.639,34.639,0,0,0,171.867-274a34.639,34.639,0,0,0-24.655,10.212A34.639,34.639,0,0,0,137-239.133a34.639,34.639,0,0,0,10.212,24.655,34.639,34.639,0,0,0,24.655,10.212,34.639,34.639,0,0,0,24.655-10.212,34.639,34.639,0,0,0,10.212-24.655,34.639,34.639,0,0,0-10.212-24.655Zm-24.655,54.073a29.452,29.452,0,0,1-29.419-29.419,29.452,29.452,0,0,1,29.419-29.419,29.452,29.452,0,0,1,29.419,29.419,29.452,29.452,0,0,1-29.419,29.419Zm18.349-31.533L168.7-254.916a2.724,2.724,0,0,0-2.772-.088,2.724,2.724,0,0,0-1.412,2.387v10.76H153.889a2.724,2.724,0,0,0-2.724,2.724,2.724,2.724,0,0,0,2.724,2.724h10.623v11.032a2.724,2.724,0,0,0,1.408,2.385,2.723,2.723,0,0,0,1.316.339,2.722,2.722,0,0,0,1.453-.42l21.519-13.571a2.724,2.724,0,0,0,1.271-2.3,2.724,2.724,0,0,0-1.264-2.3ZM169.96-230.316V-247.66l13.7,8.7Z" transform="translate(61 19942)" fill="#fff"/>
  </g>
</svg>
