<svg xmlns="http://www.w3.org/2000/svg" xmlns:xlink="http://www.w3.org/1999/xlink" width="505" height="255.724" viewBox="0 0 505 255.724">
  <defs>
    <clipPath id="clip-path">
      <rect id="Rectángulo_348277" data-name="Rectángulo 348277" width="486.522" height="238.652" fill="none"/>
    </clipPath>
  </defs>
  <g id="Grupo_1018555" data-name="Grupo 1018555" transform="translate(-97.387 -292.844)">
    <path id="Trazado_719865" data-name="Trazado 719865" d="M139.848,407.269s-45.514,96.444,49.62,70.116c0,0,53.248-17.667,21.057-59.97C210.525,417.415,163.829,353.949,139.848,407.269Z" transform="translate(-26.02 -76.71)" fill="#e1f1fb"/>
    <path id="Trazado_719866" data-name="Trazado 719866" d="M248,406.566c-26.294-15.3-87.251-7.481-98.759,66.124-1.923,12.3-3.668,27.844-25.27,42.815-19.458,13.485-46.549,37.463-3.99,95H539S619.81,491.347,553.38,488.355c-13.9-.626-32.719-1.995-14.453-42.425,18.1-40.066-43.265-106.33-125.018-40.139C381.6,431.953,358.391,470.788,248,406.566Z" transform="translate(0 -69.909)" fill="#e1f1fb"/>
    <path id="Trazado_719867" data-name="Trazado 719867" d="M1603.657,917.1l-3.363-3.362,3.363-3.363-1.681-1.681-3.363,3.363-3.363-3.363-1.681,1.681,3.363,3.363-1.2,1.2-2.162,2.162,1.681,1.681,2.162-2.162,1.2-1.2,3.362,3.362Z" transform="translate(-1226.714 -504.375)" fill="#fff"/>
    <path id="Trazado_719868" data-name="Trazado 719868" d="M2526.362,1494.831l-2.1-2.1,2.1-2.1-1.051-1.051-2.1,2.1-2.1-2.1-1.051,1.051,2.1,2.1-.75.75-1.352,1.351,1.051,1.051,1.352-1.351.75-.75,2.1,2.1Z" transform="translate(-1985.016 -979.312)" fill="#fff"/>
    <path id="Trazado_719869" data-name="Trazado 719869" d="M275.819,1437.257l-1.576-1.576,1.577-1.577-.788-.788-1.577,1.577-1.577-1.577-.788.788,1.577,1.577-.563.563-1.014,1.014.788.788,1.014-1.014.563-.563,1.576,1.576Z" transform="translate(-143.124 -932.956)" fill="#fff"/>
    <path id="Trazado_719870" data-name="Trazado 719870" d="M1411.084,581.76l-5.837-5.837,5.838-5.838-2.92-2.92L1402.328,573l-5.838-5.838-2.919,2.919,5.838,5.838-2.085,2.085-3.753,3.753,2.92,2.92,3.753-3.753,2.085-2.085,5.837,5.837Z" transform="translate(-1062.654 -224.622)" fill="#4db1f0" opacity="0.28"/>
    <path id="Trazado_719871" data-name="Trazado 719871" d="M2730.53,1458.253l-5.837-5.837,5.838-5.838-2.92-2.92-5.838,5.838-5.838-5.838-2.919,2.919,5.838,5.838-2.085,2.085-3.753,3.753,2.92,2.92,3.753-3.753,2.085-2.085,5.837,5.837Z" transform="translate(-2144.007 -941.477)" fill="#4db1f0" opacity="0.28"/>
    <path id="Trazado_719872" data-name="Trazado 719872" d="M157.427,1030.477l4.2-4.2,4.2,4.2,2.1-2.1-4.2-4.2,4.2-4.2-2.1-2.1-4.2,4.2-1.5-1.5-2.7-2.7-2.1,2.1,2.7,2.7,1.5,1.5-4.2,4.2Z" transform="translate(-47.741 -593.764)" fill="#4db1f0" opacity="0.39"/>
    <g id="Grupo_1018546" data-name="Grupo 1018546" transform="translate(104.665 292.844)">
      <g id="Grupo_1018545" data-name="Grupo 1018545" transform="translate(0)" clip-path="url(#clip-path)">
        <g id="Grupo_1018544" data-name="Grupo 1018544" transform="translate(28.244 36.179)">
          <g id="Grupo_1018542" data-name="Grupo 1018542" transform="translate(243.039)">
            <g id="Grupo_1018538" data-name="Grupo 1018538" transform="translate(138.016 107.557)">
              <path id="Trazado_719873" data-name="Trazado 719873" d="M2454.2,1098.423l-35.729,39.625a4.621,4.621,0,0,1-6.553.324,4.683,4.683,0,0,1-.32-6.59l35.729-39.625Z" transform="translate(-2410.399 -1091.087)" fill="#fdffff"/>
              <path id="Trazado_719874" data-name="Trazado 719874" d="M2447.281,1140.829l-28.8,31.943a4.621,4.621,0,0,1-6.553.324,4.684,4.684,0,0,1-.32-6.59l28.8-31.943Z" transform="translate(-2410.403 -1125.811)" fill="#d3334a"/>
              <path id="Trazado_719875" data-name="Trazado 719875" d="M2444.918,1138.595l-27.567,30.574a4.621,4.621,0,0,1-6.552.324c-.1-.091-.2-.185-.287-.286a4.658,4.658,0,0,1,1.183-2.7l28.8-31.943Z" transform="translate(-2410.492 -1125.811)" fill="#ec4255"/>
              <path id="Trazado_719991" data-name="Trazado 719991" d="M0,0,3.575-.01l-.025,9.3L-.025,9.3Z" transform="matrix(0.672, -0.741, 0.741, 0.672, 34.539, 3.726)" fill="#e6e8e8"/>
              <path id="Trazado_719876" data-name="Trazado 719876" d="M2616.252,1094.763a1,1,0,0,1-1.414.069l-7.489-6.826a1.012,1.012,0,0,1-.069-1.424h0a1,1,0,0,1,1.415-.069l7.488,6.827a1.01,1.01,0,0,1,.069,1.422Z" transform="translate(-2571.594 -1086.253)" fill="#fdffff"/>
              <path id="Trazado_719877" data-name="Trazado 719877" d="M2429.8,1164.844a.59.59,0,0,1-.836.041h0a.6.6,0,0,1-.041-.841l28.351-31.442a.589.589,0,0,1,.836-.041h0a.6.6,0,0,1,.041.841Z" transform="translate(-2425.458 -1124.046)" fill="#fff" opacity="0.4"/>
            </g>
            <path id="Trazado_719878" data-name="Trazado 719878" d="M2423.038,1342.978s-3.94,10.8-7.677,13.1l-11.188-5.9,10.765-12.053Z" transform="translate(-2267.279 -1184.939)" fill="#2e363f"/>
            <g id="Grupo_1018539" data-name="Grupo 1018539" transform="translate(145.92 116.741)">
              <path id="Trazado_719879" data-name="Trazado 719879" d="M2484.359,1152.7c-.265.87.356,6.668.2,7.993s-3.557,4.419-4.235,4.909-8.571,6.146-8.571,6.146l-2.153,2.3-.343,1.852c-3.938,2.527-7.3,2.626-9.844,1.94a11.287,11.287,0,0,1-5.146-3.047l8.012-8.418,1.878-4.783-1.579-6.39a5.972,5.972,0,0,1-.127-1.194,3.573,3.573,0,0,1,2.117-3.474c-1.806-.841-.963-2.831-.456-3.432.45-.531,3.577-.4,3.577-.4-2.175-1.71-1.154-3.413-1.154-3.413s2.6-.482,3.506-.706,4.365.848,4.365.848l-3-3.116c-1.577-1.862.917-3.443,2.534-3.365s7.555,5.367,7.555,5.367S2484.625,1151.832,2484.359,1152.7Z" transform="translate(-2454.269 -1136.948)" fill="#00c3ff"/>
              <path id="Trazado_719880" data-name="Trazado 719880" d="M2521.988,1219.463c-1.658-.247-1.968.268-2.392-.868s.334-2.493-.093-2.752.2,1.119-1,.977-2.06-2.776-4.506-2.681c0,0,1.674.608,2.115,1.521s1.527,3.857,1.527,3.857a36.773,36.773,0,0,0,1.524,5.027c.425.553,3.257,2.625,3.039,1.438s-3.226-1.9-2.18-2.673,1.867-.974,2.059-1.971S2523.646,1219.708,2521.988,1219.463Z" transform="translate(-2503.239 -1200.153)" fill="#0086c9"/>
              <path id="Trazado_719881" data-name="Trazado 719881" d="M2533.122,1190.946l2.832,2.073s3.172,3.451,3.373,4.569a20.543,20.543,0,0,0,1.184,4.235c.273.225,2.251,2.363,2.44,2.244s.515-.858-.369-2.1a56.63,56.63,0,0,1-2.906-6.217,17.1,17.1,0,0,0-3.681-4.346C2535.31,1190.987,2532.97,1190.326,2533.122,1190.946Z" transform="translate(-2518.908 -1180.956)" fill="#0086c9"/>
              <path id="Trazado_719882" data-name="Trazado 719882" d="M2568.717,1174.424s3.07,2.452,4.073,4.467a43.632,43.632,0,0,1,1.815,4.736c.135.259.26-1.306-.47-2.805s-1.51-3.789-2.842-4.773S2569.35,1174.339,2568.717,1174.424Z" transform="translate(-2548.096 -1167.629)" fill="#0086c9"/>
              <path id="Trazado_719883" data-name="Trazado 719883" d="M2466.853,1241.123c-1.2.736-3.507.505-2.913,1.452s1.929,1.351,1.534,2.1-1.368-.242-2.293.424-4.348.932-2.42,2.278,1.33,1.572.354,1.447-3.354-.045-1.954,1.509,1.632,2.514,3.207,2.418,7.15-.165,3.079.113-4.79.018-6.058.772c-.795.471-.268.87.025,1.336a11.287,11.287,0,0,1-5.146-3.047l8.012-8.418,1.878-4.783-1.579-6.391a5.972,5.972,0,0,1-.127-1.194,7.919,7.919,0,0,1,1.635,2.852c.49,2,.414,4.354,1.573,5.528S2468.053,1240.389,2466.853,1241.123Z" transform="translate(-2454.269 -1214.077)" fill="#0086c9"/>
            </g>
            <path id="Trazado_719884" data-name="Trazado 719884" d="M2221.974,1310.893s13.3,4.679,16.621,10.027c0,0-20.611,29.414-29.253,32.088,0,0-11.4-.693-20.973-13.486s-4.291-44-4.291-44l25.929,22.06Z" transform="translate(-2085.647 -1150.05)" fill="#e7ecf2"/>
            <path id="Trazado_719885" data-name="Trazado 719885" d="M2218.216,1107.26c.662-.38,8.674,49.427,7.47,74.381l-20.722-.484S2214.842,1109.2,2218.216,1107.26Z" transform="translate(-2103.962 -995.896)" fill="#e7ecf2"/>
            <path id="Trazado_719886" data-name="Trazado 719886" d="M1905.825,971.058c-4.035,8.116-6.256,18.056-7.473,26.539a144.421,144.421,0,0,0-1.5,18.584h-76.784V898.867c1.995-5.014,27.026-16,27.026-16l30.477,15.75,18.283,9.278,4.986,8.022C1912.806,950.007,1905.825,971.058,1905.825,971.058Z" transform="translate(-1788.414 -812.154)" fill="#f8fbff"/>
            <path id="Trazado_719887" data-name="Trazado 719887" d="M1898.352,1128.85a144.42,144.42,0,0,0-1.5,18.584h-76.784V1046.192q2.384-1.565,4.986-3.036s20.936,36.1,7.978,54.148c0,0-2.992,15.041,12.958,19.046s22.937,4.011,22.937,4.011-2.819-14.553,15.544-.762A111.9,111.9,0,0,0,1898.352,1128.85Z" transform="translate(-1788.414 -943.407)" fill="#e3eaf4"/>
            <path id="Trazado_719888" data-name="Trazado 719888" d="M2094.019,929.306l7.108,7.263-5.762,1.337,1.773,6.238s.669,14.717-7.2,18.946l-13.631-25.185S2087.8,913.131,2094.019,929.306Z" transform="translate(-1998.485 -845.693)" fill="#d6dfea"/>
            <g id="Grupo_1018540" data-name="Grupo 1018540" transform="translate(60.39)">
              <path id="Trazado_719889" data-name="Trazado 719889" d="M1995.886,624.4s-21.173,4.14-15.292,25.428c0,0,3.529,9.461,11.763,11.236S2013.53,629.72,1995.886,624.4Z" transform="translate(-1979.563 -600.512)" fill="#5b2717"/>
              <path id="Trazado_719890" data-name="Trazado 719890" d="M2016.64,739.783s-1.765,14.784-11.763,25.427c0,0,4.064,20.061,21.761,30.159,8.013-5.64,5.108-11.279,2.442-14.3a112.2,112.2,0,0,1,4.615-13.492S2040.752,735.052,2016.64,739.783Z" transform="translate(-2000.316 -694.609)" fill="#efab89"/>
              <path id="Trazado_719891" data-name="Trazado 719891" d="M2116.488,620.927s-29.191,7.574-20.717,48.286c0,0,2.583,12.069,12.94,12.069,0,0,20.584,2.957,35.876-39.62C2144.587,641.662,2149.445,620.927,2116.488,620.927Z" transform="translate(-2073.568 -597.67)" fill="#ffc19f"/>
              <path id="Trazado_719892" data-name="Trazado 719892" d="M2108.457,536.542S2091.4,519.984,2081.4,525.9c0,0-5.293-1.183-11.762,5.322,0,0-4.705,5.322-9.409,4.14,0,0-2.941-9.462-8.234-7.1,0,0-7.645-24.837,8.234-32.524,0,0,31.758-13.6,45.873,15.375C2106.1,511.114,2117.866,531.812,2108.457,536.542Z" transform="translate(-2037.437 -492.55)" fill="#6c341e"/>
              <path id="Trazado_719893" data-name="Trazado 719893" d="M2119.123,692.813s4.474-1.635,9.179,19.654" transform="translate(-2093.977 -656.509)" fill="none" stroke="#eaf5fc" stroke-miterlimit="10" stroke-width="7.476"/>
              <path id="Trazado_719894" data-name="Trazado 719894" d="M2088.071,774.917s-.8,10.888,1.274,14.891" transform="translate(-2068.397 -723.763)" fill="none" stroke="#eaf5fc" stroke-miterlimit="10" stroke-width="7.476"/>
              <path id="Trazado_719895" data-name="Trazado 719895" d="M2061.984,681.726s4.228-12.909-8.791-9.374c0,0-7.059,6.7-3.047,15.746,0,0,2.418,5.672,7.176,3.137C2060.753,689.406,2061.984,681.726,2061.984,681.726Z" transform="translate(-2036.418 -639.276)" fill="#ffc19f"/>
              <path id="Trazado_719896" data-name="Trazado 719896" d="M2206.235,742.7s7.05-4.341,11.655,5.5c0,0-1.007,1.158-1.727.868C2216.163,749.069,2212.566,741.98,2206.235,742.7Z" transform="translate(-2165.394 -696.604)" fill="#6c341e"/>
              <path id="Trazado_719897" data-name="Trazado 719897" d="M2264.649,795.731a5.125,5.125,0,0,0-3.31,1.591c-1.151,1.447-3.742,9.115-4.461,11.575s2.59-.145,2.59-.145S2260.476,798.334,2264.649,795.731Z" transform="translate(-2206.829 -740.806)" fill="#efab89"/>
              <path id="Trazado_719898" data-name="Trazado 719898" d="M2103.859,790.869s17.056,13.6,27.054,11.236c0,0-7.735,17.257-20,20.106,0,0-14.7,1.183-20-11.827l-1.176-8.278S2099.742,799.148,2103.859,790.869Z" transform="translate(-2069.892 -736.825)" fill="#eaf5fc"/>
              <path id="Trazado_719899" data-name="Trazado 719899" d="M2314.057,796.688a7.592,7.592,0,0,1,5.063.741l-.7,1.113a5.8,5.8,0,0,0-5.278.311S2311.844,797.7,2314.057,796.688Z" transform="translate(-2252.728 -741.468)" fill="#6c341e"/>
              <path id="Trazado_719900" data-name="Trazado 719900" d="M2213.922,780.819s-3.139,3.361-3.277,4.547l2.089,1.521,3.714-4.614S2216.06,780.948,2213.922,780.819Z" transform="translate(-2169.01 -728.595)" fill="#382620"/>
              <path id="Trazado_719901" data-name="Trazado 719901" d="M2303.691,815.852s-1.8,3.312-1.851,4.24l1.284.627,2.11-4.4S2304.971,815.419,2303.691,815.852Z" transform="translate(-2243.774 -757.185)" fill="#382620"/>
              <path id="Trazado_719902" data-name="Trazado 719902" d="M2121.249,861.142s4.708,7.1,7.7,9.681,11.555,5.164,11.555,5.164a10.291,10.291,0,0,1-5.136.215C2132.8,875.556,2124.031,871.254,2121.249,861.142Z" transform="translate(-2095.72 -794.367)" fill="#cee0ea"/>
              <path id="Trazado_719903" data-name="Trazado 719903" d="M2149.753,870.641s7.917,9.467,17.546,9.681l3.637-1.291S2159.382,876.881,2149.753,870.641Z" transform="translate(-2119.089 -802.145)" fill="#cee0ea"/>
              <path id="Trazado_719904" data-name="Trazado 719904" d="M2082.284,688.423a3.642,3.642,0,0,1,3.729,4.152,6.034,6.034,0,0,1-.8,3.348c-.932,1.34-1.465,2.009-.666,2.947,0,0,1.6,1.607.266,1.473s-2.93-3.081-1.865-4.687S2085.213,690.834,2082.284,688.423Z" transform="translate(-2063.776 -652.938)" fill="#efab89"/>
              <path id="Trazado_719905" data-name="Trazado 719905" d="M2150.384,538.379s0-21.349-18.313-32.825c0,0-16.722-10.407-33.708,0a40.813,40.813,0,0,1,17.252,1.6s-10.617,0-14.864,8.006a23.165,23.165,0,0,1,18.049.267s-8.228-.8-11.148,5.071c0,0,7.7-2.669,16.456,5.07C2124.108,525.569,2136.849,534.376,2150.384,538.379Z" transform="translate(-2076.958 -499.411)" fill="#7c412e"/>
            </g>
            <path id="Trazado_719906" data-name="Trazado 719906" d="M1957.942,863.92l-6.828,3.433a38.481,38.481,0,0,0-4.1,19.91l14.339-1.373-3.415,4.806s15.7,17.85,25.947,23.342c0,0,1.365-12.358-8.194-20.6A39.533,39.533,0,0,1,1957.942,863.92Z" transform="translate(-1892.437 -796.642)" fill="#e3eaf4"/>
            <path id="Trazado_719907" data-name="Trazado 719907" d="M1937.628,1512.252l13.891,4.032s1.5-4.22,2.585-8.017a12.434,12.434,0,0,0-.295-8.4l-9.215-2.746Z" transform="translate(-1884.794 -1315.13)" fill="#2e363f"/>
            <path id="Trazado_719908" data-name="Trazado 719908" d="M1684.466,953.575s-15.225-9.3-26.273,26.246c0,0-20.5,55.143-11.531,70.45,0,0,14.649,15.575,53.422,20.546,0,0,8.142-15.934,6.611-19.727l-34.668-13.652S1701.358,963.816,1684.466,953.575Z" transform="translate(-1644.392 -869.155)" fill="#f8fbff"/>
            <g id="Grupo_1018541" data-name="Grupo 1018541" transform="translate(65.458 164.755)">
              <path id="Trazado_719909" data-name="Trazado 719909" d="M2087.6,1401.981s-2.148.609-1.618,2.5l28.313,25.484,3.539,1.765.339-.34-2.842-4.1Z" transform="translate(-2071.805 -1401.981)" fill="#606c73"/>
              <path id="Trazado_719910" data-name="Trazado 719910" d="M2049.343,1473.588a4.557,4.557,0,0,1-1.821,2.112c-.023.042-.047.084-.071.12a5.3,5.3,0,0,1-3.479,2.883,3.7,3.7,0,0,1-2.035-.134c0,.036.006.07.009.1.125,1.61-1.413,2.141-2.371,2.862-.773.58-5.793,1.8-8.381,2.426-.694.17-1.213.3-1.428.356-1.012.288-10.709-1.733-12.483-1.87a24.01,24.01,0,0,0-8.15,1.852c-1.6.821-1.436-3.814-1.436-3.814a14.22,14.22,0,0,0,.74-4.329c.178-3.931-.484-8.338-.432-9.527.079-1.674,3.429-.79,3.429-.79,2.8.859,11.3-3.662,14.451-5.753a22.993,22.993,0,0,1,7.7-2.827c3.359-.4,13.8,2.328,13.8,2.328,2.5.118,3.615,4.757,3.615,4.757l.09.493.753,4.133c-.082,2.961-2.227,2.469-2.227,2.469.007.064.014.125.021.191A4.2,4.2,0,0,1,2049.343,1473.588Z" transform="translate(-2007.692 -1447.21)" fill="#00c3ff"/>
              <path id="Trazado_719911" data-name="Trazado 719911" d="M2240.367,1535.9a.535.535,0,0,1-.021-.191C2240.354,1535.772,2240.361,1535.833,2240.367,1535.9Z" transform="translate(-2198.427 -1511.482)" fill="none" stroke="#ba00ff" stroke-miterlimit="10" stroke-width="0.365"/>
              <path id="Trazado_719912" data-name="Trazado 719912" d="M2222.8,1502.439a15.1,15.1,0,0,0-.614-3.674c-.158-.153-3.243-3.687-3.243-3.687a23.5,23.5,0,0,1,3.491,1.471c.5.309,1.176-.245,1.84-.713l.753,4.133C2224.95,1502.931,2222.8,1502.439,2222.8,1502.439Z" transform="translate(-2180.885 -1478.212)" fill="#0086c9"/>
              <path id="Trazado_719913" data-name="Trazado 719913" d="M2217.074,1542.189c-.023.042-.046.084-.071.12a3.757,3.757,0,0,0-.549-1.745c-.107-.246-1.946-2.147-1.946-2.147a11.266,11.266,0,0,1,2.606,1.4,1.91,1.91,0,0,0,1.781.257A4.555,4.555,0,0,1,2217.074,1542.189Z" transform="translate(-2177.245 -1513.7)" fill="#0086c9"/>
              <path id="Trazado_719914" data-name="Trazado 719914" d="M2188.715,1566.188c0,.036.006.07.009.1-.774-.89-2-2.069-2-2.069a13.515,13.515,0,0,1,4.021,2.1A3.7,3.7,0,0,1,2188.715,1566.188Z" transform="translate(-2154.471 -1534.83)" fill="#0086c9"/>
              <path id="Trazado_719915" data-name="Trazado 719915" d="M2124.917,1464.227s-3.235-.686-2.908.484.948,4.927.593,4.349-1.47-3.857-1.333-2.342a19.884,19.884,0,0,1,.2,2.615,11.976,11.976,0,0,1-1.7,4.271c-.751.942-2.471,1.867-1.5,2.416s-.212,2.684-1.371,3.547-.879,1.172-2.255,2.292-1.7,1.162-.729,2.393,3.094,3.1,4.818,2.712,1.047-1.608,1.495-1.734,1.08,1.441,2.4.971,3.922-.141,2.084-2.388-2.444-2.512-1.2-3.934.821-1.2.7-2.483.731-1.179,2.095-2,2.034-.673,1.61-2.351-1.494-3.947-1.682-4.963.584.708,1.36-.144S2127.06,1464.978,2124.917,1464.227Z" transform="translate(-2094.319 -1452.787)" fill="#00cfff"/>
              <path id="Trazado_719916" data-name="Trazado 719916" d="M2216.682,1503.756a14,14,0,0,0-.527-5.145c-.437-.7-4.379-4.587-4.151-3.777a64.869,64.869,0,0,1,2.782,6.642C2215.207,1503.154,2216.494,1504.636,2216.682,1503.756Z" transform="translate(-2175.184 -1477.923)" fill="#00cfff"/>
              <path id="Trazado_719917" data-name="Trazado 719917" d="M2207.369,1472.033a6.486,6.486,0,0,0-1.324-3.17s-5.007-1.834-4.97-1.359,1.508,1.759,3.018,2.836S2207.227,1472.56,2207.369,1472.033Z" transform="translate(-2166.231 -1455.57)" fill="#00cfff"/>
              <path id="Trazado_719918" data-name="Trazado 719918" d="M2031.193,1533.941c-.694.17-1.213.3-1.428.356-1.012.288-10.709-1.733-12.483-1.87a24.01,24.01,0,0,0-8.15,1.852c-1.6.821-1.436-3.814-1.436-3.814a14.221,14.221,0,0,0,.74-4.329,37.234,37.234,0,0,1,1.268,6.784c.176,1.615,2.076-4.893,3.452-7.364,1.354-2.432-.606-7.152-.669-7.3,1.438,1.676,3.115,7.159,3.115,7.159l.885-2.747s1.318,4.206,1.587,5.655,3.492,2.618,6.645,3.525,4.792,1.831,6.38,2.076Z" transform="translate(-2007.692 -1497.191)" fill="#0086c9"/>
            </g>
          </g>
          <g id="Grupo_1018543" data-name="Grupo 1018543" transform="translate(0 23.666)">
            <path id="Trazado_719919" data-name="Trazado 719919" d="M912.5,1026.331l-5.346,19.263s-8.911,34.719-9.579,38.3-.223,35.614-.223,40.542,4.233,42.334,4.233,42.334h23.836l5.792-15.232-4.9-110.874S918.736,1027,912.5,1026.331Z" transform="translate(-788.79 -953.296)" fill="#cdd5e0"/>
            <path id="Trazado_719920" data-name="Trazado 719920" d="M987.925,1018.775l2.228,4.48-.223,20.831-2.9,21.5,11.584-25.087,1.114-20.159-8.689-7.616Z" transform="translate(-862.434 -942.157)" fill="#e7ecf2"/>
            <path id="Trazado_719921" data-name="Trazado 719921" d="M1010.525,867.382l8.02,16.352,16.261-46.59-.891-4.927-9.134,6.5Z" transform="translate(-881.693 -794.348)" fill="#2e363f"/>
            <path id="Trazado_719922" data-name="Trazado 719922" d="M737.6,955.234s-.534,14.756,1.067,16.365,8.271-2.415,8.271-2.415S740.273,958.454,737.6,955.234Z" transform="translate(-657.876 -895.079)" fill="#efab89"/>
            <path id="Trazado_719923" data-name="Trazado 719923" d="M958.6,825.3c-.295,0-8.269-4.157-8.86-4.6l-14.913-3.711s-11.369,41.868-7.088,40.532,15.062,4.008,15.062,4.008,2.705-8.666,6.025-16.189C953.321,835.15,958.773,825.295,958.6,825.3Z" transform="translate(-813.035 -781.872)" fill="#ffc19f"/>
            <path id="Trazado_719924" data-name="Trazado 719924" d="M735.948,661.267c-6.01,8.062-23.722-.127-23.722-.127l-3.005,2.521s-.505,11.09-.505,16.131-7.014,2.52-7.014,2.52l-22.053-12.6-11.529-2.521c-4.3.923-6.15-1.738-6.941-3.944a10.744,10.744,0,0,1-.578-2.607c-.5-30.744,30.078-37.3,30.078-37.3,19.926-1.357,28.05,6.257,32.365,14.661a86.294,86.294,0,0,1,4.488,11.825A24.379,24.379,0,0,0,735.948,661.267Z" transform="translate(-594.812 -623.185)" fill="#5b2717"/>
            <path id="Trazado_719925" data-name="Trazado 719925" d="M730.057,813.229s-10.024,5.04-3.509,14.615c0,0,1,4.031-1.5,5.039,0,0-7.017-9.575-15.036-9.575,0,0-5.51-2.374-7.017-5.04-1.834-3.244-6.516-5.543-14.535,3.024,0,0,15.036,48.379,39.094,46.868,0,0,16.039-5.544,10.526-33.261C738.076,834.9,748.6,813.229,730.057,813.229Z" transform="translate(-617.654 -778.8)" fill="#ffc19f"/>
            <path id="Trazado_719926" data-name="Trazado 719926" d="M731.367,889.668s4.261-6.2,11.461-5.023c1.028.443,2.938,1.182,1.616,1.034s-4.408-.443-5.877.591-4.7,3.4-4.849,3.841S732.983,891,731.367,889.668Z" transform="translate(-652.833 -837.156)" fill="#5b2717"/>
            <path id="Trazado_719927" data-name="Trazado 719927" d="M753.765,916.957s3.812,3.191,4.316,3.056.927-1.6.927-1.6-3.4-3.164-3.938-3.156S753.976,916.222,753.765,916.957Z" transform="translate(-671.195 -862.34)" fill="#382620"/>
            <path id="Trazado_719992" data-name="Trazado 719992" d="M0,0,13.156-.032,13.144,4.8-.012,4.836Z" transform="translate(52.703 79.957) rotate(-57.761)" fill="#092130"/>
            <path id="Trazado_719928" data-name="Trazado 719928" d="M516.369,1535.69l-.285-4.507c-.57-3.589-8.648-2.092-8.648-2.092l-31.4-.31-2.91,3.811-1.255,3.488,12.893,3.8,30.635-2.41A1.647,1.647,0,0,0,516.369,1535.69Z" transform="translate(-440.092 -1364.721)" fill="#64afbc"/>
            <path id="Trazado_719929" data-name="Trazado 719929" d="M372.768,1086.2l-3.1,6.067-4.486.52s-3.1.174-4.138-.52a16.778,16.778,0,0,0-3.447-1.386,11.482,11.482,0,0,0-2.333-.265c-6.973-.035-8.53,7.372-8.53,7.372-2.068,15.779,1.9,20.98,1.9,20.98,4.312,5.547,11.726.866,11.726.866l3.394,1.706,2.468,1.243V1150H355.007c-14.7-15.679-20.5-29.72-21.315-41.766-1.963-29.121,25.255-46.575,26.447-47.323l.041-.026h9.311C372.94,1063.836,372.768,1086.2,372.768,1086.2Z" transform="translate(-326.725 -981.593)" fill="#7ecee0"/>
            <path id="Trazado_719930" data-name="Trazado 719930" d="M591.224,1191.842l.517,2.947,13.106-1.04,8.707-8.062-.776-1.82Z" transform="translate(-537.94 -1082.292)" fill="#9ba0ae"/>
            <path id="Trazado_719931" data-name="Trazado 719931" d="M578.309,1180.515l1.984,2.514v1.647l10.173.087.087-1.734,1.293-1.994Z" transform="translate(-527.352 -1079.547)" fill="#64afbc"/>
            <rect id="Rectángulo_348260" data-name="Rectángulo 348260" width="7.933" height="32.25" transform="translate(42.076 79.121)" fill="#9ba0ae"/>
            <path id="Trazado_719932" data-name="Trazado 719932" d="M551.807,1048.655l-13.362-8.679,18.858-30.063,14.44,9.157Z" transform="translate(-494.671 -939.852)" fill="#7ecee0"/>
            <path id="Trazado_719993" data-name="Trazado 719993" d="M0,0,2.943-.007,2.9,17.091-.042,17.1Z" transform="translate(62.633 70.061) rotate(-57.759)" fill="#0b3757"/>
            <path id="Trazado_719994" data-name="Trazado 719994" d="M0,0,2.943-.007,2.9,17.091-.042,17.1Z" transform="translate(72.66 54.076) rotate(-57.76)" fill="#0b3757"/>
            <path id="Trazado_719995" data-name="Trazado 719995" d="M0,0,18.8-.046,18.774,10.03l-18.8.046Z" transform="translate(66.303 70.819) rotate(-57.759)" fill="#0b3757"/>
            <path id="Trazado_719933" data-name="Trazado 719933" d="M523.064,1079.475a7.07,7.07,0,1,1-7.07-7.109A7.09,7.09,0,0,1,523.064,1079.475Z" transform="translate(-470.468 -990.991)" fill="#0b3757"/>
            <path id="Trazado_719934" data-name="Trazado 719934" d="M536.527,1096.716a3.276,3.276,0,1,1-3.276-3.294A3.285,3.285,0,0,1,536.527,1096.716Z" transform="translate(-487.727 -1008.233)" fill="#9ba0ae"/>
            <path id="Trazado_719935" data-name="Trazado 719935" d="M482.9,1188.106a5.173,5.173,0,1,1-5.173-5.2A5.188,5.188,0,0,1,482.9,1188.106Z" transform="translate(-440.654 -1081.504)" fill="#0b3757"/>
            <path id="Trazado_719936" data-name="Trazado 719936" d="M492.754,1200.723a2.4,2.4,0,1,1-2.4-2.41A2.4,2.4,0,0,1,492.754,1200.723Z" transform="translate(-453.28 -1094.121)" fill="#9ba0ae"/>
            <path id="Trazado_719937" data-name="Trazado 719937" d="M345.269,1441.324h25.348v-19.939s1.034-8.149-6.554-8.323c0,0-3-.262-5.689,5.029Z" transform="translate(-336.3 -1269.964)" fill="#7ecee0"/>
            <path id="Trazado_719938" data-name="Trazado 719938" d="M414.329,1255.333a15.26,15.26,0,0,1-10.291,2.76c-9.182-.911-8.666-17.425-8.666-17.425-1.163-17.034,10.347-16.384,10.347-16.384.042.041.083.083.124.125-6.973-.035-8.53,7.372-8.53,7.372-2.068,15.779,1.9,20.98,1.9,20.98,4.312,5.547,11.726.866,11.726.866Z" transform="translate(-377.307 -1115.384)" fill="#64afbc"/>
            <path id="Trazado_719939" data-name="Trazado 719939" d="M604.781,1167.6l-21.21,7.022,1.466,4.681,22.071-8.582Z" transform="translate(-531.665 -1068.969)" fill="#0b3757"/>
            <path id="Trazado_719940" data-name="Trazado 719940" d="M600.885,1251.818l-.086,8.929,6.467-.087.086-8.582Z" transform="translate(-545.79 -1137.933)" fill="#0b3757"/>
            <rect id="Rectángulo_348264" data-name="Rectángulo 348264" width="9.571" height="3.121" transform="translate(53.198 111.544)" fill="#0b3757"/>
            <path id="Trazado_719941" data-name="Trazado 719941" d="M653.371,1241l3.374,8.261,5.923-2.607-3.239-7.941Z" transform="translate(-588.889 -1127.204)" fill="#0b3757"/>
            <path id="Trazado_719996" data-name="Trazado 719996" d="M0,0,9.579-.019,9.572,3.1l-9.579.019Z" transform="translate(61.828 112.384) rotate(-22.879)" fill="#0b3757"/>
            <path id="Trazado_719942" data-name="Trazado 719942" d="M697.867,1203.809l6.687,5.875,4.143-4.993-6.426-5.65Z" transform="translate(-625.369 -1094.717)" fill="#0b3757"/>
            <path id="Trazado_719997" data-name="Trazado 719997" d="M0,0,9.6-.026,9.592,3.085l-9.6.026Z" transform="matrix(0.651, -0.759, 0.759, 0.651, 69.497, 109.017)" fill="#0b3757"/>
            <path id="Trazado_719943" data-name="Trazado 719943" d="M370.342,1549.453s-10.435.637-20.937.114c-10.048-.5-20.149-2.137-21.667-3.239l-18.624-2.426s-12.932-1.041-13.622,5.2v4.681s-.345,2.08,10.52,3.121c0,0,53.327,4.85,67.639,1.21,0,0,.486-4.744-.39-7.17C372.83,1549.751,371.825,1549.568,370.342,1549.453Z" transform="translate(-295.49 -1377.05)" fill="#7ecee0"/>
            <path id="Trazado_719944" data-name="Trazado 719944" d="M565.893,1526.01h-1.464v3.9c0,1.054,4.44,1.907,9.916,1.907s9.915-.853,9.915-1.907v-3.9Z" transform="translate(-515.973 -1362.452)" fill="#0b3757"/>
            <rect id="Rectángulo_348267" data-name="Rectángulo 348267" width="15.175" height="4.177" transform="translate(50.833 141.486)" fill="#0b3757"/>
            <rect id="Rectángulo_348268" data-name="Rectángulo 348268" width="19.831" height="4.177" transform="translate(48.456 145.042)" fill="#0b3757"/>
            <rect id="Rectángulo_348269" data-name="Rectángulo 348269" width="3.838" height="5.575" transform="translate(40.222 142.058)" fill="#0b3757"/>
            <rect id="Rectángulo_348270" data-name="Rectángulo 348270" width="7.131" height="2.916" transform="translate(38.454 147.633)" fill="#0b3757"/>
            <rect id="Rectángulo_348271" data-name="Rectángulo 348271" width="7.131" height="2.916" transform="translate(38.454 157.719)" fill="#0b3757"/>
            <rect id="Rectángulo_348272" data-name="Rectángulo 348272" width="11.125" height="7.17" transform="translate(36.457 150.549)" fill="#0b3757"/>
            <rect id="Rectángulo_348273" data-name="Rectángulo 348273" width="11.125" height="7.171" transform="translate(36.457 160.476)" fill="#0b3757"/>
            <rect id="Rectángulo_348274" data-name="Rectángulo 348274" width="48.111" height="7.541" transform="translate(32.419 134.517)" fill="#0b3757"/>
            <path id="Trazado_719945" data-name="Trazado 719945" d="M440.941,1430.789a3.536,3.536,0,1,1-3.536-3.555A3.545,3.545,0,0,1,440.941,1430.789Z" transform="translate(-408.936 -1281.57)" fill="#0b3757"/>
            <ellipse id="Elipse_8437" data-name="Elipse 8437" cx="1.576" cy="1.584" rx="1.576" ry="1.584" transform="translate(26.893 147.634)" fill="#9ba0ae"/>
            <path id="Trazado_719946" data-name="Trazado 719946" d="M584.259,1517.392c0,1.053-4.439,1.907-9.915,1.907s-9.916-.854-9.916-1.907,4.44-1.907,9.916-1.907S584.259,1516.338,584.259,1517.392Z" transform="translate(-515.973 -1353.833)" fill="#9ba0ae"/>
            <path id="Trazado_719998" data-name="Trazado 719998" d="M0,0,28.824-.071l0,1.209L0,1.209Z" transform="translate(55.359 103.679) rotate(-57.772)" fill="#91dbe8"/>
            <path id="Trazado_719947" data-name="Trazado 719947" d="M361.09,1065.859s-24.306,12.731-27.4,42.5c-1.963-29.121,25.255-46.575,26.447-47.323A4.4,4.4,0,0,1,361.09,1065.859Z" transform="translate(-326.725 -981.711)" fill="#91dbe8"/>
            <path id="Trazado_719948" data-name="Trazado 719948" d="M397,1414.615s-3.464,1.243-8.472,12l-1.487-1.944S392.022,1414.843,397,1414.615Z" transform="translate(-370.543 -1271.237)" fill="#64afbc"/>
            <path id="Trazado_719999" data-name="Trazado 719999" d="M0,0,15.894-.039l0,1.792L0,1.792Z" transform="matrix(0.533, -0.846, 0.846, 0.533, 72.564, 72.875)" fill="#174968"/>
            <path id="Trazado_719949" data-name="Trazado 719949" d="M516.607,1132.8l-2.739,5.308s-8.2,10.81-8.789,10.609c-.385-.127-3.776-1.344-6.835-2.286a31.5,31.5,0,0,0-4.109-1.049c-2.739-.395-14.068-5.7-18.762-9.038a38.453,38.453,0,0,1-7.812-7.861c-.785-.789-3.131-.394-7.426-2.948s-2.347-5.308-2.347-5.308l-1.955-.782c-3.909-.788-3.517-3.737-3.517-3.737,0-3.336,2.54-2.948,3.909-2.353s11.721,1.965,14.068,1.965-8.2-4.913-8.2-4.913c-7.041-2.554-7.233-4.914-7.233-4.914,1.955-4.325,7.819-.983,7.819-.983l1.755-.788c1.955-2.354,20.909,4.131,23.841,5.114s8.989,6.678,11.136,9.627c1.622,2.22,10.558,9.232,14.866,12.554C515.69,1132.1,516.607,1132.8,516.607,1132.8Z" transform="translate(-424.051 -1016.245)" fill="#00c3ff"/>
            <path id="Trazado_719950" data-name="Trazado 719950" d="M487.907,1201.1s8.6,3.341,11.334,1.965l1.564-.2-9.185-1.572S487.32,1199.727,487.907,1201.1Z" transform="translate(-453.193 -1095.943)" fill="#0086c9"/>
            <path id="Trazado_719951" data-name="Trazado 719951" d="M524.089,1115.91a11.12,11.12,0,0,0-3.344-1.787c-1.3-.187-10.592-4.342-11.648-4.815l.271-.611c2.845,1.276,10.452,4.617,11.471,4.764a11.432,11.432,0,0,1,3.649,1.914Z" transform="translate(-470.61 -1020.74)" fill="#0086c9"/>
            <path id="Trazado_719952" data-name="Trazado 719952" d="M572.287,1137.656s.205,2.068-1.439,2.481-3.5-.207-4.112,2.274.206,2.275-.411,4.135a26.773,26.773,0,0,0-1.233,5.168c-.206,1.654-3.5.207-1.028,3.1a72.794,72.794,0,0,0,5.14,5.788c2.467,2.481,8.429,8.476,6.99,5.375s-1.234-.413-1.439-3.1-4.318-8.062,1.439-4.961a19.8,19.8,0,0,0,14.187,2.067l2.878-.827s.617-.621-1.028-2.895,8.224,4.134,4.935,0-7.2-8.889-7.608-9.51S577.839,1134.555,572.287,1137.656Z" transform="translate(-514.924 -1044.022)" fill="#00cfff"/>
            <path id="Trazado_719953" data-name="Trazado 719953" d="M725.635,1258.475l-2.739,5.307s-8.2,10.81-8.789,10.609c-.385-.127-3.776-1.344-6.835-2.286,4.016-1.424,4.608-2.841,6.715-4.552,2.746-2.246,4.807-6.217,7.9-9.159a7.891,7.891,0,0,0,1.416-1.7C724.718,1257.779,725.635,1258.475,725.635,1258.475Z" transform="translate(-633.079 -1141.922)" fill="#0086c9"/>
            <path id="Trazado_719954" data-name="Trazado 719954" d="M1026.429,904.607l8.6-1.376s18.564,9.628,24.621,18.47,16.415,32.026,16.61,44.8,8.207,52.657,7.817,60.32,6.058,40.278,6.058,40.278H989.5s-11.92-42.833-12.7-49.513-.782-32.812,0-36.349a28.8,28.8,0,0,1,2.344-6.484L993.8,949.8l13.678-33.6Z" transform="translate(-853.56 -852.497)" fill="#f8fbff"/>
            <path id="Trazado_719955" data-name="Trazado 719955" d="M757.585,1275.493l-.782-3.93-9.966-6.091s-13.679,5.9-14.656,26.721c0,0,13.092,6.681,15.242,6.877S757.585,1275.493,757.585,1275.493Z" transform="translate(-653.501 -1149.114)" fill="#2e363f"/>
            <path id="Trazado_719956" data-name="Trazado 719956" d="M1120.627,1198.248c-6.238-19.264-15.594-27.1-16.262-38.751s9.133-38.3,1.336-51.069-20.94,46.366-20.94,46.366-30.074,35.39-40.544,36.286l-15.149-.224s15.818,9.856,24.059,10.751,17.154-6.719,21.164-1.791,15.371,24.862,11.137,13.439-7.128-15.231-6.237-19.264,4.01-4.7,9.579,3.361,14.7,13.439,7.574.671-10.248-24.639-5.124-21.278S1126.865,1217.51,1120.627,1198.248Z" transform="translate(-896.896 -1019.042)" fill="#cdd5e0"/>
            <path id="Trazado_719957" data-name="Trazado 719957" d="M883.058,962.684s-12.7,5.894-15.438,28.1-5.471,38.9-10.747,42.244-43.772-12.968-44.75-12.772-16.415,24.756-12.9,36.939c0,0,64.29,23.381,70.348,22.4s15.633-5.9,18.173-11.593,30.679-56.979,31.07-64.642S914.909,946.769,883.058,962.684Z" transform="translate(-708.038 -898.589)" fill="#e7ecf2"/>
            <path id="Trazado_719958" data-name="Trazado 719958" d="M1039.835,871.78l4.1.393,8.208,3.144,11.334,2.161s-22.863,16.112-25.208,19.844A42.463,42.463,0,0,0,1033,909.308c-1.563,5.3-16.024,31.633-22.081,36.152,0,0,9.77-27.31,10.161-28.489s5.472-20.828,5.472-20.828S1036.122,874.924,1039.835,871.78Z" transform="translate(-882.012 -826.744)" fill="#e3eaf4"/>
            <path id="Trazado_719959" data-name="Trazado 719959" d="M1018.246,827.312s-23.628,68.493-26.992,85.891c0,0,17.785-18.365,20.669-40.113L1010,865.357l11.763-7.59,5.541-24.79S1023.913,831.046,1018.246,827.312Z" transform="translate(-865.894 -790.332)" fill="#596372"/>
            <path id="Trazado_719960" data-name="Trazado 719960" d="M917.471,840.38s-2.378,1.872-1.241,3.119,2.067,1.974,1.447,3.534a3.575,3.575,0,0,0,.517,3.846c.827.935-1.034-1.144-.207-2.183s1.344-1.766.62-3.43-.31-3.43.62-3.534a4.2,4.2,0,0,1,3.205,1.767C922.744,844.33,923.261,838.405,917.471,840.38Z" transform="translate(-804.136 -800.7)" fill="#efab89"/>
            <path id="Trazado_719961" data-name="Trazado 719961" d="M965.809,847.376a15.064,15.064,0,0,1-1.448,10.915s2.792,13.825-.827,24.636" transform="translate(-843.169 -806.761)" fill="none" stroke="#efab89" stroke-miterlimit="10" stroke-width="3.69"/>
            <path id="Trazado_719962" data-name="Trazado 719962" d="M698.171,635.59c7.313,2.674,3.324,10.027,3.324,10.027-8.643-2.674-21.275,2.674-21.275,2.674,7.978.668,4.654,6.685,4.654,6.685-9.734-1.7-18.662,3.643-23.7,8.269a10.744,10.744,0,0,1-.578-2.607c-.5-30.744,30.078-37.3,30.078-37.3,19.926-1.357,28.05,6.257,32.365,14.661C710.863,631.338,698.171,635.59,698.171,635.59Z" transform="translate(-594.812 -623.185)" fill="#6c341e"/>
          </g>
        </g>
      </g>
    </g>
    <path id="Trazado_719963" data-name="Trazado 719963" d="M615.693,1618.714a8.637,8.637,0,0,1-8.733,8.536H132.1a8.637,8.637,0,0,1-8.734-8.536h0a8.637,8.637,0,0,1,8.734-8.536H606.96a8.636,8.636,0,0,1,8.733,8.536Z" transform="translate(-21.41 -1078.682)" fill="#3076b6"/>
    <g id="Grupo_1018553" data-name="Grupo 1018553" transform="translate(328.869 464.765)">
      <g id="Grupo_1018551" data-name="Grupo 1018551" transform="translate(10.518 0)">
        <g id="Grupo_1018547" data-name="Grupo 1018547">
          <path id="Trazado_719964" data-name="Trazado 719964" d="M1453.5,1235.051v51.975a4.533,4.533,0,1,1-9.065,0v-51.975Z" transform="translate(-1443.047 -1234.358)" fill="#fdffff"/>
          <path id="Trazado_719965" data-name="Trazado 719965" d="M1453.5,1292.29v41.9a4.533,4.533,0,0,1-9.065,0v-41.9Z" transform="translate(-1443.047 -1281.521)" fill="#d3334a"/>
          <path id="Trazado_719966" data-name="Trazado 719966" d="M1450.264,1292.29v40.1a4.532,4.532,0,0,1-4.531,4.534,3.866,3.866,0,0,1-.394-.019,4.509,4.509,0,0,1-.907-2.72v-41.9Z" transform="translate(-1443.047 -1281.521)" fill="#ec4255"/>
          <rect id="Rectángulo_348278" data-name="Rectángulo 348278" width="9.065" height="3.483" transform="translate(1.384 0.693)" fill="#e6e8e8"/>
          <path id="Trazado_719967" data-name="Trazado 719967" d="M1448.4,1232.094a.979.979,0,0,1-.979.979h-9.875a.98.98,0,0,1-.979-.979h0a.979.979,0,0,1,.979-.978h9.875a.978.978,0,0,1,.979.978Z" transform="translate(-1436.568 -1231.116)" fill="#fdffff"/>
          <path id="Trazado_719968" data-name="Trazado 719968" d="M1452.3,1323.287a.579.579,0,0,1-.579.579h0a.58.58,0,0,1-.578-.579v-41.241a.579.579,0,0,1,.578-.578h0a.578.578,0,0,1,.579.578Z" transform="translate(-1448.576 -1272.604)" fill="#fff" opacity="0.4"/>
        </g>
        <g id="Grupo_1018548" data-name="Grupo 1018548" transform="translate(19.531)">
          <path id="Trazado_719969" data-name="Trazado 719969" d="M1564.439,1235.051v51.975a4.533,4.533,0,1,1-9.066,0v-51.975Z" transform="translate(-1553.99 -1234.358)" fill="#fdffff"/>
          <path id="Trazado_719970" data-name="Trazado 719970" d="M1564.439,1292.29v41.9a4.533,4.533,0,0,1-9.066,0v-41.9Z" transform="translate(-1553.99 -1281.521)" fill="#d3334a"/>
          <path id="Trazado_719971" data-name="Trazado 719971" d="M1561.206,1292.29v40.1a4.532,4.532,0,0,1-4.53,4.534,3.863,3.863,0,0,1-.395-.019,4.5,4.5,0,0,1-.908-2.72v-41.9Z" transform="translate(-1553.99 -1281.521)" fill="#ec4255"/>
          <rect id="Rectángulo_348279" data-name="Rectángulo 348279" width="9.066" height="3.483" transform="translate(1.383 0.693)" fill="#e6e8e8"/>
          <path id="Trazado_719972" data-name="Trazado 719972" d="M1559.347,1232.094a.979.979,0,0,1-.979.979h-9.876a.979.979,0,0,1-.978-.979h0a.978.978,0,0,1,.978-.978h9.876a.978.978,0,0,1,.979.978Z" transform="translate(-1547.514 -1231.116)" fill="#fdffff"/>
          <path id="Trazado_719973" data-name="Trazado 719973" d="M1563.246,1323.287a.58.58,0,0,1-.579.579h0a.579.579,0,0,1-.577-.579v-41.241a.577.577,0,0,1,.577-.578h0a.578.578,0,0,1,.579.578Z" transform="translate(-1559.524 -1272.604)" fill="#fff" opacity="0.4"/>
        </g>
        <g id="Grupo_1018549" data-name="Grupo 1018549" transform="translate(39.062)">
          <path id="Trazado_719974" data-name="Trazado 719974" d="M1675.38,1235.051v51.975a4.533,4.533,0,1,1-9.065,0v-51.975Z" transform="translate(-1664.931 -1234.358)" fill="#fdffff"/>
          <path id="Trazado_719975" data-name="Trazado 719975" d="M1675.38,1292.29v41.9a4.533,4.533,0,0,1-9.065,0v-41.9Z" transform="translate(-1664.931 -1281.521)" fill="#d3334a"/>
          <path id="Trazado_719976" data-name="Trazado 719976" d="M1672.147,1292.29v40.1a4.532,4.532,0,0,1-4.531,4.534,3.871,3.871,0,0,1-.395-.019,4.507,4.507,0,0,1-.907-2.72v-41.9Z" transform="translate(-1664.931 -1281.521)" fill="#ec4255"/>
          <rect id="Rectángulo_348280" data-name="Rectángulo 348280" width="9.065" height="3.483" transform="translate(1.383 0.693)" fill="#e6e8e8"/>
          <path id="Trazado_719977" data-name="Trazado 719977" d="M1670.289,1232.094a.979.979,0,0,1-.979.979h-9.875a.979.979,0,0,1-.979-.979h0a.978.978,0,0,1,.979-.978h9.875a.978.978,0,0,1,.979.978Z" transform="translate(-1658.456 -1231.116)" fill="#fdffff"/>
          <path id="Trazado_719978" data-name="Trazado 719978" d="M1674.188,1323.287a.579.579,0,0,1-.577.579h0a.579.579,0,0,1-.578-.579v-41.241a.578.578,0,0,1,.578-.578h0a.578.578,0,0,1,.577.578Z" transform="translate(-1670.466 -1272.604)" fill="#fff" opacity="0.4"/>
        </g>
        <g id="Grupo_1018550" data-name="Grupo 1018550" transform="translate(58.592)">
          <path id="Trazado_719979" data-name="Trazado 719979" d="M1786.325,1235.051v51.975a4.533,4.533,0,1,1-9.065,0v-51.975Z" transform="translate(-1775.876 -1234.358)" fill="#fdffff"/>
          <path id="Trazado_719980" data-name="Trazado 719980" d="M1786.325,1292.29v41.9a4.533,4.533,0,0,1-9.065,0v-41.9Z" transform="translate(-1775.876 -1281.521)" fill="#d3334a"/>
          <path id="Trazado_719981" data-name="Trazado 719981" d="M1783.092,1292.29v40.1a4.533,4.533,0,0,1-4.531,4.534,3.855,3.855,0,0,1-.393-.019,4.5,4.5,0,0,1-.907-2.72v-41.9Z" transform="translate(-1775.876 -1281.521)" fill="#ec4255"/>
          <rect id="Rectángulo_348281" data-name="Rectángulo 348281" width="9.065" height="3.483" transform="translate(1.384 0.693)" fill="#e6e8e8"/>
          <path id="Trazado_719982" data-name="Trazado 719982" d="M1781.23,1232.094a.979.979,0,0,1-.979.979h-9.875a.979.979,0,0,1-.979-.979h0a.978.978,0,0,1,.979-.978h9.875a.978.978,0,0,1,.979.978Z" transform="translate(-1769.397 -1231.116)" fill="#fdffff"/>
          <path id="Trazado_719983" data-name="Trazado 719983" d="M1785.127,1323.287a.58.58,0,0,1-.579.579h0a.58.58,0,0,1-.578-.579v-41.241a.578.578,0,0,1,.578-.578h0a.578.578,0,0,1,.579.578Z" transform="translate(-1781.405 -1272.604)" fill="#fff" opacity="0.4"/>
        </g>
      </g>
      <rect id="Rectángulo_348282" data-name="Rectángulo 348282" width="91.461" height="6.09" transform="translate(0 62.227)" fill="#0b3757"/>
      <g id="Grupo_1018552" data-name="Grupo 1018552" transform="translate(3.434 15.522)">
        <rect id="Rectángulo_348283" data-name="Rectángulo 348283" width="2.614" height="48.665" fill="#0b3757"/>
        <rect id="Rectángulo_348284" data-name="Rectángulo 348284" width="2.614" height="48.665" transform="translate(81.979)" fill="#0b3757"/>
      </g>
      <rect id="Rectángulo_348285" data-name="Rectángulo 348285" width="91.248" height="1.556" transform="translate(0.107 13.966)" fill="#0b3757"/>
      <rect id="Rectángulo_348286" data-name="Rectángulo 348286" width="91.248" height="1.554" transform="translate(0.107 35.744)" fill="#0b3757"/>
    </g>
    <path id="Trazado_719984" data-name="Trazado 719984" d="M241.172,523.056c0-3.548-5.914-6.249-14.12-7.863.827-1.232,1.582-2.439,2.246-3.605,2.34-4.109,4.614-9.521,2.166-11.97a4,4,0,0,0-2.949-1.046c-3.018,0-7.5,1.994-12.63,5.44-1.614-8.2-4.314-14.1-7.859-14.1s-6.245,5.9-7.859,14.1c-5.126-3.446-9.612-5.44-12.63-5.44a4,4,0,0,0-2.949,1.046c-2.449,2.449-.174,7.861,2.166,11.97.664,1.165,1.418,2.372,2.246,3.6-8.207,1.614-14.12,4.315-14.12,7.863s5.913,6.249,14.12,7.862c-.827,1.233-1.582,2.44-2.246,3.606-2.34,4.109-4.614,9.521-2.166,11.969a4,4,0,0,0,2.949,1.046c3.018,0,7.5-1.994,12.63-5.44,1.614,8.2,4.314,14.1,7.859,14.1s6.245-5.9,7.859-14.1c5.126,3.446,9.612,5.44,12.629,5.44a4.005,4.005,0,0,0,2.95-1.046c2.512-2.511.232-8.615-4.441-15.569C235.244,529.312,241.172,526.608,241.172,523.056Zm-12.658-23.185a2.776,2.776,0,0,1,2.031.665c1.416,1.416.528,5.307-2.376,10.409-.731,1.285-1.575,2.62-2.508,3.988-2.647-.467-5.5-.825-8.443-1.069-.244-2.948-.6-5.8-1.071-8.452C221.229,501.929,225.669,499.872,228.514,499.872Zm-12.219,23.185q0,1.738-.047,3.4-1.159,1.227-2.375,2.445t-2.447,2.376q-1.664.045-3.4.047t-3.4-.047q-1.227-1.158-2.447-2.376t-2.375-2.445q-.046-1.665-.047-3.4t.047-3.4q1.159-1.227,2.375-2.445t2.447-2.374q1.664-.046,3.4-.047t3.4.047q1.227,1.157,2.447,2.374t2.375,2.442Q216.294,521.318,216.295,523.056Zm-1.5-6.766c-.47-.47-.94-.93-1.411-1.386q1.352.06,2.647.15.088,1.3.15,2.65Q215.49,516.992,214.792,516.29Zm-2.821-2.731q-1.477-1.384-2.946-2.668c2.044-1.734,4.057-3.305,5.991-4.685.386,2.3.7,4.835.917,7.562C214.623,513.675,213.3,513.606,211.971,513.56ZM210,513.507c-.658-.011-1.316-.019-1.974-.019s-1.316.008-1.973.019q.989-.9,1.973-1.758Q209.01,512.605,210,513.507Zm-5.918.052c-1.329.047-2.653.115-3.961.208.22-2.727.531-5.258.917-7.562,1.934,1.38,3.946,2.952,5.991,4.685Q205.56,512.174,204.081,513.56Zm-1.41,1.345c-.471.456-.941.916-1.411,1.386s-.929.94-1.386,1.411c.04-.9.091-1.783.15-2.648Q201.321,514.966,202.671,514.9Zm-4.142,4.211q-1.378,1.471-2.668,2.945c-1.722-2.029-3.292-4.041-4.681-5.994,2.3-.386,4.831-.7,7.557-.916C198.645,516.46,198.576,517.784,198.53,519.115Zm-.052,1.969c-.011.657-.02,1.315-.02,1.972s.008,1.314.02,1.971c-.6-.657-1.189-1.315-1.76-1.971C197.289,522.4,197.877,521.742,198.477,521.084ZM198.53,527c.046,1.331.115,2.655.208,3.965-2.725-.219-5.255-.53-7.557-.916,1.39-1.953,2.96-3.965,4.682-5.995Q197.147,525.523,198.53,527Zm1.345,1.413q.685.708,1.386,1.412t1.411,1.386c-.9-.039-1.783-.09-2.648-.149Q199.935,529.761,199.874,528.41Zm4.208,4.142q1.477,1.385,2.946,2.668c-2.045,1.734-4.058,3.3-5.991,4.685-.386-2.3-.7-4.834-.917-7.562C201.429,532.437,202.752,532.506,204.082,532.552Zm1.971.053c.658.011,1.316.02,1.973.02s1.315-.008,1.973-.02q-.988.9-1.973,1.758Q207.042,533.507,206.053,532.605Zm5.917-.053c1.329-.046,2.653-.115,3.962-.208-.22,2.727-.531,5.258-.917,7.562-1.933-1.38-3.946-2.952-5.99-4.685Q210.492,533.938,211.971,532.552Zm1.41-1.345q.706-.683,1.411-1.386t1.386-1.412q-.06,1.352-.15,2.649Q214.73,531.147,213.38,531.208ZM217.523,527c.92-.982,1.814-1.967,2.672-2.951,1.773,2.084,3.343,4.095,4.7,6-2.309.387-4.845.7-7.579.919C217.407,529.652,217.476,528.328,217.523,527Zm.052-1.969c.011-.657.02-1.314.02-1.971s-.008-1.32-.02-1.98q.912,1,1.764,1.975Q218.48,524.038,217.575,525.028Zm-.052-5.9c-.046-1.334-.115-2.661-.208-3.973,2.725.22,5.254.53,7.557.916-1.392,1.956-2.966,3.972-4.692,6.006Q218.888,520.585,217.523,519.123Zm-9.5-27.914c2.513,0,5.137,5.07,6.737,13.573-2.166,1.518-4.431,3.28-6.737,5.246-2.307-1.967-4.571-3.728-6.737-5.246C202.89,496.279,205.513,491.209,208.026,491.209Zm-20.143,19.737c-2.9-5.1-3.793-8.993-2.376-10.409a2.776,2.776,0,0,1,2.03-.665c2.845,0,7.286,2.058,12.368,5.542-.468,2.648-.827,5.5-1.071,8.452-2.945.244-5.8.6-8.443,1.069C189.458,513.566,188.615,512.231,187.883,510.946Zm-11.7,12.11c0-2.514,5.076-5.14,13.59-6.74,1.531,2.19,3.291,4.455,5.237,6.74-1.946,2.285-3.705,4.55-5.237,6.741C181.256,528.2,176.179,525.571,176.179,523.056Zm11.358,23.184a2.775,2.775,0,0,1-2.03-.665c-1.417-1.416-.528-5.307,2.376-10.409.731-1.285,1.574-2.62,2.508-3.988,2.646.467,5.5.825,8.444,1.069.244,2.949.6,5.8,1.071,8.451C194.823,544.183,190.383,546.24,187.538,546.24Zm20.488,8.662c-2.513,0-5.136-5.07-6.737-13.573,2.166-1.518,4.431-3.28,6.737-5.246,2.307,1.966,4.571,3.728,6.737,5.246C213.163,549.833,210.539,554.9,208.026,554.9Zm22.519-9.328a2.776,2.776,0,0,1-2.031.665c-2.844,0-7.285-2.058-12.367-5.542.468-2.648.827-5.5,1.071-8.451,2.954-.244,5.814-.6,8.467-1.073C230.585,538.338,232.325,543.795,230.545,545.575ZM226.252,529.8c-1.541-2.2-3.305-4.475-5.217-6.733,1.95-2.289,3.714-4.559,5.248-6.753,8.513,1.6,13.59,4.226,13.59,6.74S234.784,528.2,226.252,529.8Z" transform="translate(-63.851 -162.374)" fill="#4db1f0"/>
    <path id="Trazado_719985" data-name="Trazado 719985" d="M2487.774,668.72s34.492-82.906-31.729-64.2c0,0-76.828,25.693-31.919,63.838C2424.126,668.362,2469.87,709.25,2487.774,668.72Z" transform="translate(-1894.366 -252.31)" fill="#e1f1fb"/>
    <circle id="Elipse_8438" data-name="Elipse 8438" cx="5.1" cy="5.1" r="5.1" transform="translate(531.558 377.888)" fill="#4db1f0"/>
    <circle id="Elipse_8439" data-name="Elipse 8439" cx="5.1" cy="5.1" r="5.1" transform="translate(157.035 393.857)" fill="#66c9da"/>
    <path id="Trazado_719986" data-name="Trazado 719986" d="M2686.191,1001.954a1.972,1.972,0,1,1-1.972-1.972A1.972,1.972,0,0,1,2686.191,1001.954Z" transform="translate(-2118.654 -579.225)" fill="#fff"/>
    <path id="Trazado_719987" data-name="Trazado 719987" d="M2838.723,816.909a3.139,3.139,0,1,1-3.139-3.139A3.138,3.138,0,0,1,2838.723,816.909Z" transform="translate(-2242.411 -426.672)" fill="#4db1f0"/>
    <path id="Trazado_719988" data-name="Trazado 719988" d="M348.473,662.217a3.139,3.139,0,1,1-3.139-3.139A3.139,3.139,0,0,1,348.473,662.217Z" transform="translate(-201.712 -299.969)" fill="#4db1f0"/>
    <g id="Grupo_1018554" data-name="Grupo 1018554" transform="translate(533.067 357.336)">
      <rect id="Rectángulo_348287" data-name="Rectángulo 348287" width="0.887" height="19.312" transform="translate(23.435 24.532) rotate(-46.264)" fill="#fffefd"/>
      <rect id="Rectángulo_348288" data-name="Rectángulo 348288" width="0.887" height="19.312" transform="translate(22.013 27.268) rotate(-46.262)" fill="#fffefd"/>
      <rect id="Rectángulo_348289" data-name="Rectángulo 348289" width="0.887" height="16.832" transform="translate(20.042 29.238) rotate(-46.263)" fill="#fffefd"/>
      <rect id="Rectángulo_348290" data-name="Rectángulo 348290" width="0.886" height="17.532" transform="translate(2.464 46.569) rotate(-43.609)" fill="#fffefd"/>
      <rect id="Rectángulo_348291" data-name="Rectángulo 348291" width="0.886" height="17.532" transform="matrix(0.724, -0.69, 0.69, 0.724, 4.488, 44.763)" fill="#fffefd"/>
      <rect id="Rectángulo_348292" data-name="Rectángulo 348292" width="0.886" height="17.532" transform="translate(6.129 42.356) rotate(-43.61)" fill="#fffefd"/>
      <rect id="Rectángulo_348293" data-name="Rectángulo 348293" width="0.886" height="12.195" transform="matrix(0.724, -0.69, 0.69, 0.724, 10.132, 42.347)" fill="#fffefd"/>
      <rect id="Rectángulo_348294" data-name="Rectángulo 348294" width="0.886" height="9.132" transform="translate(13.592 42.017) rotate(-43.607)" fill="#fffefd"/>
      <rect id="Rectángulo_348295" data-name="Rectángulo 348295" width="0.886" height="17.533" transform="matrix(0.724, -0.69, 0.69, 0.724, 46.439, 3.014)" fill="#fffefd"/>
      <rect id="Rectángulo_348296" data-name="Rectángulo 348296" width="0.886" height="17.532" transform="matrix(0.724, -0.69, 0.69, 0.724, 44.415, 4.82)" fill="#fffefd"/>
      <rect id="Rectángulo_348297" data-name="Rectángulo 348297" width="0.886" height="17.533" transform="translate(42.773 7.228) rotate(-43.61)" fill="#fffefd"/>
      <rect id="Rectángulo_348298" data-name="Rectángulo 348298" width="0.887" height="12.196" transform="translate(42.452 11.102) rotate(-43.609)" fill="#fffefd"/>
      <rect id="Rectángulo_348299" data-name="Rectángulo 348299" width="0.886" height="9.131" transform="matrix(0.724, -0.69, 0.69, 0.724, 41.106, 13.649)" fill="#fffefd"/>
      <rect id="Rectángulo_348300" data-name="Rectángulo 348300" width="0.887" height="16.292" transform="matrix(0.691, -0.723, 0.723, 0.691, 17.799, 30.989)" fill="#fffefd"/>
      <rect id="Rectángulo_348301" data-name="Rectángulo 348301" width="0.886" height="11.533" transform="matrix(0.691, -0.723, 0.723, 0.691, 18.288, 34.986)" fill="#fffefd"/>
      <rect id="Rectángulo_348302" data-name="Rectángulo 348302" width="0.886" height="19.312" transform="translate(25.515 22.563) rotate(-46.265)" fill="#fffefd"/>
      <rect id="Rectángulo_348303" data-name="Rectángulo 348303" width="0.887" height="18.496" transform="translate(28.305 21.195) rotate(-46.18)" fill="#fffefd"/>
      <rect id="Rectángulo_348304" data-name="Rectángulo 348304" width="0.887" height="16.097" transform="translate(30.166 18.951) rotate(-46.265)" fill="#fffefd"/>
      <rect id="Rectángulo_348305" data-name="Rectángulo 348305" width="0.886" height="10.141" transform="matrix(0.691, -0.723, 0.723, 0.691, 35.155, 19.433)" fill="#fffefd"/>
      <path id="Trazado_719989" data-name="Trazado 719989" d="M2511.27,694.273l-2.422-2.589a21.364,21.364,0,0,1,17.489-5.348l.094.02c12.36,3.033,17.622-2.579,17.838-2.819l.078-.082c6.688-6.617,5.693-11.914,4.815-16.587-.079-.416-.155-.822-.223-1.219-2.128-12.242,5.345-18.9,5.664-19.174l2.326,2.676-1.163-1.338,1.168,1.333c-.257.228-6.276,5.692-4.5,15.9.066.381.14.771.215,1.171.936,4.982,2.217,11.8-5.772,19.729-.7.753-7.218,7.286-21.227,3.872A18.084,18.084,0,0,0,2511.27,694.273Z" transform="translate(-2508.848 -646.476)" fill="#24a2d1"/>
      <path id="Trazado_719990" data-name="Trazado 719990" d="M2630.042,723.264l2.422,2.59a21.369,21.369,0,0,1-17.488,5.348l-.094-.02c-12.36-3.034-17.622,2.579-17.838,2.819l-.077.081c-6.687,6.617-5.693,11.913-4.815,16.587.079.416.155.823.223,1.219,2.128,12.242-5.345,18.9-5.664,19.175l-2.326-2.677,1.163,1.338-1.169-1.333c.257-.228,6.277-5.692,4.5-15.9-.066-.381-.14-.771-.215-1.172-.936-4.982-2.217-11.8,5.772-19.728.7-.754,7.218-7.286,21.227-3.872A18.083,18.083,0,0,0,2630.042,723.264Z" transform="translate(-2571.082 -709.746)" fill="#4db1f0"/>
    </g>
  </g>
</svg>
