<svg xmlns="http://www.w3.org/2000/svg" width="57.999" height="53.086" viewBox="0 0 57.999 53.086">
  <g id="Grupo_1022904" data-name="Grupo 1022904" transform="translate(0 -21.684)" opacity="0.5">
    <g id="Grupo_1022895" data-name="Grupo 1022895" transform="translate(22.844 27.304)">
      <g id="Grupo_1022894" data-name="Grupo 1022894" transform="translate(0 0)">
        <path id="Trazado_723227" data-name="Trazado 723227" d="M205.048,71.3a3.384,3.384,0,1,0,3.384,3.384A3.388,3.388,0,0,0,205.048,71.3Zm0,5.069a1.685,1.685,0,1,1,1.685-1.685A1.687,1.687,0,0,1,205.048,76.367Z" transform="translate(-201.664 -71.298)" fill="#008b8a"/>
      </g>
    </g>
    <g id="Grupo_1022897" data-name="Grupo 1022897" transform="translate(15.195 34.579)">
      <g id="Grupo_1022896" data-name="Grupo 1022896" transform="translate(0 0)">
        <path id="Trazado_723228" data-name="Trazado 723228" d="M136.725,135.514a2.588,2.588,0,1,0,2.588,2.588A2.591,2.591,0,0,0,136.725,135.514Zm0,3.477a.889.889,0,1,1,.889-.889A.89.89,0,0,1,136.725,138.991Z" transform="translate(-134.137 -135.514)" fill="#008b8a"/>
      </g>
    </g>
    <g id="Grupo_1022899" data-name="Grupo 1022899" transform="translate(39.002 37.258)">
      <g id="Grupo_1022898" data-name="Grupo 1022898">
        <path id="Trazado_723229" data-name="Trazado 723229" d="M346.853,159.163a2.554,2.554,0,1,0,2.554,2.554A2.556,2.556,0,0,0,346.853,159.163Zm0,3.408a.855.855,0,1,1,.855-.854A.855.855,0,0,1,346.853,162.571Z" transform="translate(-344.299 -159.163)" fill="#008b8a"/>
      </g>
    </g>
    <g id="Grupo_1022901" data-name="Grupo 1022901" transform="translate(30.146 41.464)">
      <g id="Grupo_1022900" data-name="Grupo 1022900">
        <path id="Trazado_723230" data-name="Trazado 723230" d="M269.581,196.294a3.456,3.456,0,1,0,3.456,3.456A3.46,3.46,0,0,0,269.581,196.294Zm0,5.213a1.757,1.757,0,1,1,1.757-1.757A1.759,1.759,0,0,1,269.581,201.507Z" transform="translate(-266.125 -196.294)" fill="#008b8a"/>
      </g>
    </g>
    <g id="Grupo_1022903" data-name="Grupo 1022903" transform="translate(0 21.684)">
      <g id="Grupo_1022902" data-name="Grupo 1022902" transform="translate(0 0)">
        <path id="Trazado_723231" data-name="Trazado 723231" d="M57.879,47.7A18.2,18.2,0,0,0,44.2,34.968a23.723,23.723,0,0,0-8.508-9.543.85.85,0,0,0-.918,1.43,22.032,22.032,0,0,1,7.345,7.8A18.116,18.116,0,0,0,25.9,41.849H4.215A2.665,2.665,0,0,1,2,41.11a2.306,2.306,0,0,1-.187-1.915A22.159,22.159,0,0,1,9.169,28.22a5.948,5.948,0,0,0,10.946-4.657A22.023,22.023,0,0,1,31.39,25.078a.85.85,0,0,0,.655-1.568A23.7,23.7,0,0,0,.183,38.728l0,.009-.01.032a4.038,4.038,0,0,0,.476,3.363,4.2,4.2,0,0,0,3.569,1.416H18.393A116.98,116.98,0,0,1,17.4,58.486a.85.85,0,0,0,1.684.228,118.672,118.672,0,0,0,1.005-15.166h4.671a18.333,18.333,0,0,0-1.78,4.129c-.561,1.951.374,3.721,3.023,3.881A96.987,96.987,0,0,0,27.548,63.7,11.934,11.934,0,0,0,19.1,69.183a6.364,6.364,0,0,0-1.957-.734c.381-1.349.854-3.262,1.307-5.731a.85.85,0,0,0-1.671-.307,60.158,60.158,0,0,1-1.372,5.931,6.432,6.432,0,0,0-5.686,4.477,1.5,1.5,0,0,0,1.426,1.951H52.466a1.811,1.811,0,0,0,1.724-2.359,9.132,9.132,0,0,0-8.848-6.379,81.34,81.34,0,0,1-1.3-14.47h2.967a.85.85,0,1,0,0-1.7H26.248a1.97,1.97,0,0,1-1.513-.478,1.66,1.66,0,0,1-.108-1.271,16.507,16.507,0,0,1,23-10.187,5.911,5.911,0,0,0,8.042,8.586,16.119,16.119,0,0,1,.573,1.637,1.736,1.736,0,0,1-.173,1.3c-.522.668-1.813.322-5.091.416a.85.85,0,0,0,0,1.7h3.833a3.1,3.1,0,0,0,2.6-1.069A3.319,3.319,0,0,0,57.879,47.7ZM18.372,23.858a4.248,4.248,0,1,1-7.782,3.311A21.682,21.682,0,0,1,18.372,23.858Zm-.624,49.213H11.433A4.765,4.765,0,0,1,18.3,70.683,3.82,3.82,0,0,0,17.748,73.071Zm18.891,0c-17.593-.07-16.9.166-17.153-.182a.447.447,0,0,1-.065-.4h0a10.371,10.371,0,0,1,18.528-2.564A6.887,6.887,0,0,0,36.639,73.071Zm15.932-.144a.11.11,0,0,1-.105.144c-14.977-.018-14.048.041-14.111-.045-.037-.051-.032-.075.09-.408A7.478,7.478,0,0,1,52.571,72.927ZM38.489,51.563h3.858a83.412,83.412,0,0,0,1.3,14.646,9.123,9.123,0,0,0-4.553,2.381,11.939,11.939,0,0,0-1.951-2.123A82.821,82.821,0,0,0,38.489,51.563Zm-1.7,0a82.873,82.873,0,0,1-1.172,13.805,12.081,12.081,0,0,0-6.361-1.789A94.614,94.614,0,0,1,27.71,51.563ZM52.077,46.03a4.221,4.221,0,0,1-2.924-7.251,16.567,16.567,0,0,1,5.763,6.15A4.2,4.2,0,0,1,52.077,46.03Z" transform="translate(0 -21.684)" fill="#008b8a"/>
      </g>
    </g>
  </g>
</svg>
