<svg xmlns="http://www.w3.org/2000/svg" width="610" height="541" viewBox="0 0 610 541">
  <g id="Grupo_1024383" data-name="Grupo 1024383" transform="translate(-495 -3604)">
    <g id="Grupo_1024382" data-name="Grupo 1024382" transform="translate(0 200)">
      <g id="Grupo_1024377" data-name="Grupo 1024377" transform="translate(0 148)">
        <rect id="Rectángulo_349310" data-name="Rectángulo 349310" width="610" height="103" transform="translate(495 3694)" fill="#3076b6"/>
        <rect id="Rectángulo_349311" data-name="Rectángulo 349311" width="262" height="103" transform="translate(495 3694)" fill="#4db1f0" opacity="0.56"/>
      </g>
      <g id="Grupo_1024378" data-name="Grupo 1024378" transform="translate(0 39)">
        <rect id="Rectángulo_349310-2" data-name="Rectángulo 349310" width="610" height="103" transform="translate(495 3694)" fill="#4690d5"/>
        <rect id="Rectángulo_349311-2" data-name="Rectángulo 349311" width="263" height="103" transform="translate(495 3694)" fill="#4db1f0" opacity="0.56"/>
        <path id="Polígono_18" data-name="Polígono 18" d="M42.5,0,85,40H0Z" transform="translate(843 3825) rotate(180)" fill="#4690d5"/>
      </g>
      <g id="Grupo_1024379" data-name="Grupo 1024379" transform="translate(0 -71)">
        <rect id="Rectángulo_349310-3" data-name="Rectángulo 349310" width="610" height="103" transform="translate(495 3694)" fill="#84d0ff"/>
        <rect id="Rectángulo_349311-3" data-name="Rectángulo 349311" width="263" height="103" transform="translate(495 3694)" fill="#4db1f0" opacity="0.56"/>
        <path id="Polígono_18-2" data-name="Polígono 18" d="M42.5,0,85,40H0Z" transform="translate(843 3825) rotate(180)" fill="#84d0ff"/>
      </g>
      <g id="Grupo_1024380" data-name="Grupo 1024380" transform="translate(0 -180)">
        <rect id="Rectángulo_349310-4" data-name="Rectángulo 349310" width="610" height="103" transform="translate(495 3694)" fill="#4db1f0"/>
        <rect id="Rectángulo_349311-4" data-name="Rectángulo 349311" width="263" height="103" transform="translate(495 3694)" fill="#3076b6" opacity="0.34"/>
        <path id="Polígono_18-3" data-name="Polígono 18" d="M42.5,0,85,40H0Z" transform="translate(843 3825) rotate(180)" fill="#4db1f0"/>
      </g>
      <g id="Grupo_1024381" data-name="Grupo 1024381" transform="translate(0 -290)">
        <rect id="Rectángulo_349310-5" data-name="Rectángulo 349310" width="610" height="103" transform="translate(495 3694)" fill="#008b8a"/>
        <rect id="Rectángulo_349311-5" data-name="Rectángulo 349311" width="263" height="103" transform="translate(495 3694)" fill="#ffa031" opacity="0.4"/>
        <path id="Polígono_18-4" data-name="Polígono 18" d="M42.5,0,85,40H0Z" transform="translate(843 3825) rotate(180)" fill="#008b8a"/>
      </g>
    </g>
    <text id="_100_puntos_" data-name="100 puntos
" transform="translate(790 3650)" fill="#fff" font-size="16" font-family="Roboto-Regular, Roboto"><tspan x="0" y="15">100 puntos</tspan></text>
    <text id="Escherichia_coli" data-name="Escherichia coli" transform="translate(524 3650)" fill="#fff" font-size="18" font-family="Roboto-Black, Roboto" font-weight="800"><tspan x="0" y="17">Escherichia coli</tspan></text>
    <text id="Coliformes_Totales_cloro_residual_libre_turbiedad_" data-name="Coliformes Totales, cloro residual libre, turbiedad
" transform="translate(524 3743)" fill="#fff" font-size="18" font-family="Roboto-Black, Roboto" font-weight="800"><tspan x="0" y="17">Coliformes Totales, cloro </tspan><tspan x="0" y="42">residual libre, turbiedad</tspan><tspan x="0" y="67"></tspan></text>
    <text id="_1.5_puntos" data-name="1.5 puntos" transform="translate(790 4087)" fill="#fff" font-size="16" font-family="Roboto-Regular, Roboto"><tspan x="0" y="15">1.5 puntos</tspan></text>
    <text id="_15_puntos" data-name="15 puntos" transform="translate(790 3760)" fill="#fff" font-size="16" font-family="Roboto-Regular, Roboto"><tspan x="0" y="15">15 puntos</tspan></text>
    <text id="_3_puntos" data-name="3 puntos" transform="translate(790 3980)" fill="#fff" font-size="16" font-family="Roboto-Regular, Roboto"><tspan x="0" y="15">3 puntos</tspan></text>
    <text id="_6_puntos" data-name="6 puntos" transform="translate(790 3872)" fill="#12263f" font-size="16" font-family="Roboto-Regular, Roboto"><tspan x="0" y="15">6 puntos</tspan></text>
    <text id="pH_Hierro_Total_" data-name="pH, Hierro Total
" transform="translate(524 4080)" fill="#fff" font-size="20" font-family="Roboto-Black, Roboto" font-weight="800"><tspan x="0" y="19">pH, Hierro Total</tspan></text>
    <text id="Color_aparente" data-name="Color aparente" transform="translate(524 3864)" fill="#fff" font-size="18" font-family="Roboto-Black, Roboto" font-weight="800"><tspan x="0" y="17">Color aparente</tspan></text>
    <text id="COT_Aluminio_Al3_Nitritos_" data-name="COT, Aluminio (Al3+), Nitritos)
" transform="translate(524 3964)" fill="#fff" font-size="18" font-family="Roboto-Black, Roboto" font-weight="800"><tspan x="0" y="17">COT, Aluminio (Al</tspan><tspan y="17" font-size="10.499" baseline-shift="5.999400079342301">3+</tspan><tspan y="17">), </tspan><tspan x="0" y="42">Nitritos)</tspan></text>
  </g>
</svg>
