<svg xmlns="http://www.w3.org/2000/svg" width="505.001" height="386.56" viewBox="0 0 505.001 386.56">
  <g id="Grupo_1018631" data-name="Grupo 1018631" transform="translate(0.001 0)">
    <path id="Trazado_720000" data-name="Trazado 720000" d="M478.878,431.547c19.236-19.023,38.456-38.995,49.551-63.668s12.706-55.27-2.551-77.611c-8.306-12.163-21.222-21.6-25.585-35.663-7.983-25.746,16.083-49.876,21.136-76.353a55.476,55.476,0,0,0-75.92-61.57c-11.252,4.711-20.853,13.083-32.542,16.571-24.842,7.414-50.391-9.146-68.466-27.733s-34.295-40.926-58.577-50.007c-32.634-12.206-71.164,5.087-90.981,33.745s-23.675,65.767-19.429,100.349c1.449,11.811,3.77,23.606,3.309,35.5s-4.086,24.218-12.741,32.384S143,268.282,133.416,261.232c-10.435-7.674-11.994-23.24-21.7-31.82-9.48-8.383-24.651-7.532-35.406-.863S58.5,246.471,53.133,257.932c-25.526,54.54-18.454,122.9,17.7,171.063Z" transform="translate(-34.982 -51.546)" fill="#e1f1fb"/>
    <g id="Grupo_1018630" data-name="Grupo 1018630" transform="translate(-0.001 1.812)">
      <g id="Grupo_1018596" data-name="Grupo 1018596" transform="translate(119.426 13.221)">
        <g id="Grupo_1018574" data-name="Grupo 1018574" transform="translate(25.948)">
          <g id="Grupo_1018558" data-name="Grupo 1018558" transform="translate(0 136.644)">
            <path id="Trazado_720001" data-name="Trazado 720001" d="M308.006,213.236l29.748,7.915a47.614,47.614,0,0,1,31.693,27.664l33.643,80.57-41.242,19.363,4.105,76.5H215.5l2.543-20.664a349.641,349.641,0,0,0,2.615-41.353l.555-145.57,46.667-6.825Z" transform="translate(-215.5 -210.833)" fill="#fff"/>
            <path id="Trazado_720002" data-name="Trazado 720002" d="M300.293,213.357l16.46,17.018a2.856,2.856,0,0,1-.193,4.154l-7.138,6.125L321.8,260.016a2.855,2.855,0,0,1-.332,3.5l-29.18,30.8Z" transform="translate(-207.787 -210.954)" fill="#c7d2d7"/>
            <path id="Trazado_720003" data-name="Trazado 720003" d="M341.027,210.833,324.642,230.46a3.809,3.809,0,0,0,.933,5.689L338,243.766l-11.638,16.465a3.808,3.808,0,0,0,1.093,5.429L373.151,294.2Z" transform="translate(-288.647 -210.833)" fill="#c7d2d7"/>
            <path id="Trazado_720004" data-name="Trazado 720004" d="M369.054,294.2,336.93,210.833l-12.511,18.35a3.809,3.809,0,0,0,.93,5.243l11.581,8.289L326.2,259.349a3.81,3.81,0,0,0,1,5.172Z" transform="translate(-284.55 -210.833)" fill="#fff"/>
            <path id="Trazado_720005" data-name="Trazado 720005" d="M304.306,213.357l-8,80.962,25.33-32.312a3.812,3.812,0,0,0,.312-4.235l-10.3-18.092,5.835-5.739a3.809,3.809,0,0,0,.2-5.217Z" transform="translate(-211.801 -210.954)" fill="#fff"/>
            <path id="Trazado_720006" data-name="Trazado 720006" d="M321.774,298.38l-1.463,62.009,1.463,65.228,3.281-65.387Z" transform="translate(-237.27 -215.015)" fill="#c7d2d7"/>
            <path id="Trazado_720007" data-name="Trazado 720007" d="M364.748,247.947l4.761,53.614,28.569-17.854-13.815,5.033a6.511,6.511,0,0,1-8.674-5.192h0a121.7,121.7,0,0,0-9.87-33.485Z" transform="translate(-352.607 -212.606)" fill="#c7d2d7"/>
            <path id="Trazado_720008" data-name="Trazado 720008" d="M333.013,310.56l40.1-25.06,30.628,8.162a25.012,25.012,0,0,1-8.49,9.693l-6.666,15.774c.476,12.317-2.857,26.6-2.857,26.6l-36.261,26.48a28.51,28.51,0,0,1-16.882,5.48q.19-5.443.215-10.894Z" transform="translate(-327.641 -214.4)" fill="#c7d2d7"/>
            <g id="Grupo_1018556" data-name="Grupo 1018556" transform="translate(16.796 172.283)">
              <path id="Trazado_720009" data-name="Trazado 720009" d="M352.915,394.151a315.764,315.764,0,0,0,39.859-.268c-.312,4.214-.659,8.6-.98,12.856a2.831,2.831,0,0,1-2.063,2.515c-6.849,1.941-13.855,4.249-20.686,6.148a2.838,2.838,0,0,1-1.6-.017,78.282,78.282,0,0,1-14.852-6.469,2.858,2.858,0,0,1-1.338-3.266A37.9,37.9,0,0,0,352.915,394.151Z" transform="translate(-351.147 -391.86)" fill="#c7d2d7"/>
              <path id="Trazado_720010" data-name="Trazado 720010" d="M354.5,392.026a267.489,267.489,0,0,0,36.682-.268c-.331,4.87-.707,9.968-1.038,14.838-7.106,2.112-14.433,4.79-21.539,6.9a65.274,65.274,0,0,1-15.963-7.135A49.937,49.937,0,0,0,354.5,392.026Z" transform="translate(-350.988 -391.758)" fill="#fff"/>
            </g>
            <g id="Grupo_1018557" data-name="Grupo 1018557" transform="translate(108.317 172.283)">
              <path id="Trazado_720011" data-name="Trazado 720011" d="M295.608,394.151a209.664,209.664,0,0,1-32.47-.268c.254,4.214.537,8.6.8,12.856a2.758,2.758,0,0,0,1.681,2.515c5.579,1.941,11.287,4.249,16.852,6.148a1.9,1.9,0,0,0,1.3-.017,58.4,58.4,0,0,0,12.1-6.469,3.159,3.159,0,0,0,1.09-3.266A45.983,45.983,0,0,1,295.608,394.151Z" transform="translate(-263.138 -391.86)" fill="#c7d2d7"/>
              <path id="Trazado_720012" data-name="Trazado 720012" d="M293.168,392.026a162.86,162.86,0,0,1-28.611-.268c.259,4.87.551,9.968.809,14.838,5.543,2.112,11.258,4.79,16.8,6.9a46.331,46.331,0,0,0,12.45-7.135A63.272,63.272,0,0,1,293.168,392.026Z" transform="translate(-262.057 -391.758)" fill="#fff"/>
            </g>
            <path id="Trazado_720013" data-name="Trazado 720013" d="M286.91,304.839a86.6,86.6,0,0,0-24.493.619,16.726,16.726,0,0,0-10.341,6.052,41.963,41.963,0,0,0-5.319,8.726,11.491,11.491,0,0,0,1.63,12.163c2.214,2.629,4.55,5.406,6.284,7.518a3.032,3.032,0,0,0,2.382,1.116h.1a3.164,3.164,0,0,0,2.588-4.928,51.277,51.277,0,0,1-4-7.388,58.915,58.915,0,0,0,9.558,10.046,12.245,12.245,0,0,0,8.946,2.752c4.978-.451,10.023-.873,15.026-1.313a14.8,14.8,0,0,0,12.756-10.081q.3-.9.554-1.808A18.5,18.5,0,0,0,286.91,304.839Z" transform="translate(-144.47 -215.295)" fill="#7dd3e9"/>
          </g>
          <g id="Grupo_1018561" data-name="Grupo 1018561" transform="translate(52.38 96.949)">
            <g id="Grupo_1018559" data-name="Grupo 1018559" transform="translate(3.445)">
              <path id="Trazado_720014" data-name="Trazado 720014" d="M352.082,182.814v25.234L335.418,216.3l-19.084-13.49,6.117-33.665Z" transform="translate(-316.333 -169.146)" fill="#f0bf9c"/>
              <path id="Trazado_720015" data-name="Trazado 720015" d="M329.167,201.052c-5.934-5.043-9.524-12.406-11.363-19.973a68.494,68.494,0,0,1-1.471-8.587l.608-3.346,29.632,13.668v24A23.88,23.88,0,0,1,329.167,201.052Z" transform="translate(-310.823 -169.146)" fill="#472948"/>
            </g>
            <path id="Trazado_720016" data-name="Trazado 720016" d="M356.362,217.99l-11.554,21.023-10.975-28.482,3.445-6.031Z" transform="translate(-333.833 -170.835)" fill="#c4ffff"/>
            <path id="Trazado_720017" data-name="Trazado 720017" d="M332.018,210l-16.664,8.253,15.356,17.616,2.241-22.673Z" transform="translate(-292.825 -171.097)" fill="#c4ffff"/>
            <path id="Trazado_720018" data-name="Trazado 720018" d="M329.261,218.667l15.356,17.616-5.76,58.289-21.149-54.883Z" transform="translate(-306.732 -171.511)" fill="#acefed"/>
            <g id="Grupo_1018560" data-name="Grupo 1018560" transform="translate(16.776 47.155)">
              <path id="Trazado_720019" data-name="Trazado 720019" d="M331.046,218.667l8.133,9.33-2.737,8.286-6.606.635-4.543-7.783Z" transform="translate(-325.293 -218.667)" fill="#5fa5cc"/>
              <path id="Trazado_720020" data-name="Trazado 720020" d="M329.637,237.167l7.48,25.093-3.281,33.2-13.525-35.1L323.03,237.8Z" transform="translate(-318.487 -219.55)" fill="#5fa5cc"/>
              <path id="Trazado_720021" data-name="Trazado 720021" d="M336.085,228.369l-2.737,8.286-6.606.634-1.449-2.482,2.354-.228a6.877,6.877,0,0,0,5.991-5.11l.785-3.009Z" transform="translate(-322.199 -219.039)" fill="#418aaa"/>
            </g>
          </g>
          <g id="Grupo_1018573" data-name="Grupo 1018573" transform="translate(41.549)">
            <path id="Trazado_720022" data-name="Trazado 720022" d="M347.437,158.379A47.194,47.194,0,0,0,336.115,79.8,39.3,39.3,0,0,0,314.9,76.255a29.359,29.359,0,0,0-18.788,9.988,69.072,69.072,0,0,1-1.952-18.908,14.14,14.14,0,0,0-4.092,9.118,12.57,12.57,0,0,0,3.032,8.9,17.185,17.185,0,0,0-15.16-5.174c3.548,1.951,7.133,4.2,10.681,6.155-4.919-1.63-10.91-.752-15.63,1.386A21.088,21.088,0,0,0,262.389,98.6c-1.8,4.255-2.138,8.983-2.06,13.6a81.813,81.813,0,0,0,6.7,31c2.343,5.413,8.3,9.193,13.3,12.322,4.111-6.3,10.91-11.736,16.974-16.184,11.039,2.7,22.055,5.671,32.235,10.718a77.315,77.315,0,0,1,10.486,6.276C341.879,157.659,345.709,159.877,347.437,158.379Z" transform="translate(-260.319 -67.334)" fill="#282526"/>
            <path id="Trazado_720023" data-name="Trazado 720023" d="M282.977,142.481c7.57-3.354,15.7-17.82,15.421-28.559,12.715,14.555,29.867,24.192,48.54,29.1a122.008,122.008,0,0,1-9.014,28.145c-5.24,11.621-13.885,23.148-26.392,25.614-12,2.365-24.47-4.758-31.091-15.039-4.829-7.5-6.977-16.329-7.547-25.3A35.7,35.7,0,0,0,282.977,142.481Z" transform="translate(-255.55 -69.559)" fill="#f0bf9c"/>
            <g id="Grupo_1018565" data-name="Grupo 1018565" transform="translate(36.371 67.564)">
              <g id="Grupo_1018564" data-name="Grupo 1018564">
                <g id="Grupo_1018562" data-name="Grupo 1018562" transform="translate(0)">
                  <path id="Trazado_720024" data-name="Trazado 720024" d="M318.59,138.287a13.734,13.734,0,0,0-10.916,5.509l21.9-.13A13.737,13.737,0,0,0,318.59,138.287Z" transform="translate(-307.674 -138.287)"/>
                </g>
                <path id="Trazado_720025" data-name="Trazado 720025" d="M321.758,154.963a3.713,3.713,0,1,1-3.942-3.468A3.712,3.712,0,0,1,321.758,154.963Z" transform="translate(-306.215 -138.917)"/>
                <g id="Grupo_1018563" data-name="Grupo 1018563" transform="translate(36.582 5.722)">
                  <path id="Trazado_720026" data-name="Trazado 720026" d="M284.291,144.443c3.392.645,5.934,3.305,7.129,6.889l-16.614-3.158C277.429,145.316,280.9,143.8,284.291,144.443Z" transform="translate(-274.807 -144.296)"/>
                </g>
                <path id="Trazado_720027" data-name="Trazado 720027" d="M283.738,160.085c-.532,1.98.273,3.918,1.8,4.33s3.2-.862,3.73-2.841-.273-3.917-1.8-4.329S284.27,158.1,283.738,160.085Z" transform="translate(-244.585 -139.189)"/>
              </g>
            </g>
            <g id="Grupo_1018571" data-name="Grupo 1018571" transform="translate(14.276 78.232)">
              <path id="Trazado_720028" data-name="Trazado 720028" d="M349.959,159.9,336.125,149.49v4.077l11.691,9.684Z" transform="translate(-333.057 -149.49)" fill="#fff"/>
              <path id="Trazado_720029" data-name="Trazado 720029" d="M353.487,172.147l-4.366-8.933-3.37-.59,5.277,12.419Z" transform="translate(-345.75 -150.117)" fill="#fff"/>
              <g id="Grupo_1018566" data-name="Grupo 1018566" transform="translate(5.277 7.413)">
                <path id="Trazado_720030" data-name="Trazado 720030" d="M325.258,172.334c-3.4-1.833-6.554-4.3-10.319-5.151-4.42-1-8.99.361-13.513.644a28.875,28.875,0,0,1-21.08-7.553,26.671,26.671,0,0,1,3.444-3,24.553,24.553,0,0,0,19.526,7.025c3.865-.38,7.719-1.69,11.552-1.066,3.678.6,6.81,2.892,10.076,4.689s7.217,3.144,10.66,1.719c-.635,1.565-1.259,3.145-1.932,4.752C330.863,174.743,327.824,173.719,325.258,172.334Z" transform="translate(-270.865 -157.275)" fill="#fff"/>
                <path id="Trazado_720031" data-name="Trazado 720031" d="M291.856,160.424a28.875,28.875,0,0,0,21.08,7.553c4.523-.283,9.093-1.645,13.513-.644,3.765.854,6.922,3.318,10.319,5.151,2.566,1.385,5.6,2.409,8.414,2.06a59.3,59.3,0,0,1-11.546,18.329c-8.094,8.887-37.454,17.457-51.262-17.933A53.11,53.11,0,0,1,291.856,160.424Z" transform="translate(-282.375 -157.425)" fill="#7dd3e9"/>
              </g>
              <g id="Grupo_1018570" data-name="Grupo 1018570" transform="translate(17.891 19.844)">
                <g id="Grupo_1018567" data-name="Grupo 1018567">
                  <path id="Trazado_720032" data-name="Trazado 720032" d="M287.768,170.329a70.323,70.323,0,0,0,10.5,2.466,56.038,56.038,0,0,0,11.97.532,48.719,48.719,0,0,1,6.435-.183,15.749,15.749,0,0,1,3.315.574,16.552,16.552,0,0,1,2.985,1.246c1.823.958,3.375,2,4.977,2.711a9.419,9.419,0,0,0,4.877.956,8.505,8.505,0,0,1-5.29.334,40.762,40.762,0,0,1-5.509-1.879,14.728,14.728,0,0,0-5.475-1.042c-1.93-.014-3.973.234-6.124.372a37.364,37.364,0,0,1-12.659-1.353A32.95,32.95,0,0,1,287.768,170.329Z" transform="translate(-287.768 -170.329)" fill="#5fa5cc"/>
                </g>
                <g id="Grupo_1018568" data-name="Grupo 1018568" transform="translate(9.614 8.35)">
                  <path id="Trazado_720033" data-name="Trazado 720033" d="M294.248,179.1c4.1.609,9.33,1.532,14.6,2.194,5.262.684,10.553,1.107,14.679,1.549a48.533,48.533,0,0,1-29.275-3.743Z" transform="translate(-294.248 -179.098)" fill="#5fa5cc"/>
                </g>
                <g id="Grupo_1018569" data-name="Grupo 1018569" transform="translate(14.337 14.175)">
                  <path id="Trazado_720034" data-name="Trazado 720034" d="M300.13,185.215c2.648.476,6.021,1.129,9.43,1.545,3.406.433,6.836.627,9.52.815a28.485,28.485,0,0,1-18.95-2.361Z" transform="translate(-300.13 -185.215)" fill="#5fa5cc"/>
                </g>
              </g>
            </g>
            <g id="Grupo_1018572" data-name="Grupo 1018572" transform="translate(3.269 72.625)">
              <path id="Trazado_720035" data-name="Trazado 720035" d="M358.1,145.635c-1.869-1.406-4.247-2.419-6.526-1.89-2.836.659-4.712,3.643-4.781,6.553a12.565,12.565,0,0,0,3.166,7.944,13.4,13.4,0,0,0,4.958,4.029,7.527,7.527,0,0,0,6.25.034C368.393,158.707,362.412,148.881,358.1,145.635Z" transform="translate(-346.792 -143.602)" fill="#f0bf9c"/>
              <path id="Trazado_720036" data-name="Trazado 720036" d="M352.335,151.494a5.542,5.542,0,0,1,9.65,4.934,2.63,2.63,0,0,1-1.6,1.964,2.822,2.822,0,0,1-2.633-1.054,4.077,4.077,0,0,1-1.285-2.617,2.131,2.131,0,0,1,1.622-2.194A6.574,6.574,0,0,0,352.335,151.494Z" transform="translate(-349.684 -143.884)" fill="#eba58e"/>
            </g>
          </g>
        </g>
        <g id="Grupo_1018586" data-name="Grupo 1018586" transform="translate(71.419 127.673)">
          <g id="Grupo_1018575" data-name="Grupo 1018575" transform="translate(79.919 44.312)">
            <path id="Trazado_720038" data-name="Trazado 720038" d="M236.293,372.5c36.185-22.854,12.562-93.933-31.081-102.216l-8.13-22.338c68.492,9.573,118.484,134.791,39.211,162.168Z" transform="translate(-197.082 -247.947)" fill="#99a3b0"/>
            <rect id="Rectángulo_348306" data-name="Rectángulo 348306" width="14.18" height="37.613" transform="translate(39.211 124.555)" fill="#acbbbf"/>
            <path id="Trazado_720039" data-name="Trazado 720039" d="M221.4,372.5c36.185-22.854,12.562-93.933-31.081-102.216l-8.131-22.338c68.493,9.573,118.485,134.791,39.212,162.168Z" transform="translate(-168.01 -247.947)" fill="#c7d2d7"/>
          </g>
          <path id="Trazado_720040" data-name="Trazado 720040" d="M243.891,247.947a65.952,65.952,0,0,1,15.743,4.3l-1.564-4.3a64.833,64.833,0,0,1,12.586,3.094l8.4,23.713-9.477,2.739a48.8,48.8,0,0,0-17.558-7.207Z" transform="translate(-163.972 -203.635)" fill="#21255c" opacity="0.3"/>
          <g id="Grupo_1018581" data-name="Grupo 1018581" transform="translate(47.189)">
            <g id="Grupo_1018576" data-name="Grupo 1018576" transform="translate(3.906)">
              <path id="Trazado_720041" data-name="Trazado 720041" d="M290.891,210.469c-.921-2.53,2.478-6.09,7.59-7.95s10.005-1.319,10.926,1.211l.711,1.955-.884.321c-.918,2.092-3.718,4.328-7.419,5.674s-7.282,1.435-9.329.422l-.885.322Z" transform="translate(-290.74 -201.412)" fill="#797c99"/>
              <path id="Trazado_720042" data-name="Trazado 720042" d="M290.732,212.522c.921,2.53,5.812,3.073,10.926,1.211s8.511-5.42,7.59-7.95-5.812-3.073-10.925-1.212S289.812,209.992,290.732,212.522Z" transform="translate(-289.871 -201.51)" fill="#495375"/>
            </g>
            <path id="Trazado_720043" data-name="Trazado 720043" d="M287.244,206.553c3.867-1.407,7.566-1,8.263.916l10.884,29.9-14,5.1-10.884-29.9C280.807,210.652,283.377,207.96,287.244,206.553Z" transform="translate(-274.203 -201.618)" fill="#99a3b0"/>
            <g id="Grupo_1018577" data-name="Grupo 1018577" transform="translate(0 22.491)">
              <path id="Trazado_720044" data-name="Trazado 720044" d="M263.809,247.937c-2.248-6.177,6.049-14.868,18.533-19.412s24.427-3.219,26.675,2.958l1.737,4.773-2.159.786c-2.24,5.107-9.078,10.566-18.111,13.854s-17.781,3.5-22.779,1.029l-2.159.786Z" transform="translate(-261.474 -225.069)" fill="#797c99"/>
              <ellipse id="Elipse_8440" data-name="Elipse 8440" cx="11.903" cy="24.055" rx="11.903" ry="24.055" transform="translate(8.142 38.825) rotate(-110)" fill="#495375"/>
            </g>
            <path id="Trazado_720045" data-name="Trazado 720045" d="M254.906,238.375c9.44-3.437,18.472-2.435,20.172,2.237l26.576,73.016-34.188,12.444L240.89,253.055C239.19,248.383,245.465,241.811,254.906,238.375Z" transform="translate(-230.636 -203.08)" fill="#99a3b0"/>
            <path id="Trazado_720046" data-name="Trazado 720046" d="M290.488,315.645h0a5.233,5.233,0,0,0,3.127-6.706L272.766,251.66a5.231,5.231,0,0,0-6.706-3.126h0a5.231,5.231,0,0,0-3.126,6.706l20.847,57.278A5.232,5.232,0,0,0,290.488,315.645Z" transform="translate(-243.868 -203.648)" fill="#fff" opacity="0.3"/>
            <g id="Grupo_1018580" data-name="Grupo 1018580" transform="translate(20.735 94.872)">
              <g id="Grupo_1018578" data-name="Grupo 1018578" transform="translate(0 0)">
                <path id="Trazado_720047" data-name="Trazado 720047" d="M227.334,330.5c-2.892-7.945,7.78-19.123,23.835-24.966s31.414-4.141,34.306,3.8l2.234,6.138-2.777,1.01c-2.881,6.569-11.675,13.589-23.293,17.817s-22.867,4.5-29.3,1.324l-2.776,1.01Z" transform="translate(-224.332 -301.092)" fill="#797c99"/>
                <ellipse id="Elipse_8441" data-name="Elipse 8441" cx="15.308" cy="30.936" rx="15.308" ry="30.936" transform="translate(10.471 49.931) rotate(-110)" fill="#495375"/>
              </g>
              <g id="Grupo_1018579" data-name="Grupo 1018579" transform="translate(19.434 18.185)">
                <path id="Trazado_720048" data-name="Trazado 720048" d="M232.481,335.451c-1.557-4.277,4.188-10.294,12.83-13.44s16.911-2.229,18.468,2.047l7.282,20.007-1.494.544c-1.551,3.536-6.285,7.316-12.539,9.592s-12.31,2.424-15.771.712l-1.494.544Z" transform="translate(-232.226 -320.141)" fill="#797c99"/>
                <ellipse id="Elipse_8442" data-name="Elipse 8442" cx="8.24" cy="16.654" rx="8.24" ry="16.654" transform="matrix(-0.342, -0.94, 0.94, -0.342, 10.355, 43.06)" fill="#495375"/>
              </g>
            </g>
          </g>
          <g id="Grupo_1018582" data-name="Grupo 1018582" transform="translate(41.047 135.02)">
            <path id="Trazado_720049" data-name="Trazado 720049" d="M206.25,375.124h80.475l28.138-26.374H234.388Z" transform="translate(-204.983 -343.47)" fill="#797c99"/>
            <path id="Trazado_720050" data-name="Trazado 720050" d="M287.992,348.485l-1.267-5.28H206.25l1.267,5.28Z" transform="translate(-178.112 -343.205)" fill="#21255c"/>
            <path id="Trazado_720051" data-name="Trazado 720051" d="M290.762,369.579l1.267,5.28,28.138-26.374-1.267-5.28Z" transform="translate(-290.762 -343.205)" fill="#495375"/>
          </g>
          <g id="Grupo_1018583" data-name="Grupo 1018583" transform="translate(0 213.384)">
            <rect id="Rectángulo_348307" data-name="Rectángulo 348307" width="135.217" height="9.998" transform="translate(61.655)" fill="#21255c"/>
            <rect id="Rectángulo_348308" data-name="Rectángulo 348308" width="61.655" height="9.998" transform="translate(0)" fill="#495375"/>
          </g>
          <g id="Grupo_1018585" data-name="Grupo 1018585" transform="translate(140.691 174.665)">
            <g id="Grupo_1018584" data-name="Grupo 1018584" transform="translate(0)">
              <path id="Trazado_720052" data-name="Trazado 720052" d="M186.869,384.859h0a2.976,2.976,0,0,1,.545,0h7.072l.833,9.677,20.116,29.022H184.25V387.7A2.825,2.825,0,0,1,186.869,384.859Z" transform="translate(-184.25 -384.839)" fill="#797c99"/>
              <path id="Trazado_720053" data-name="Trazado 720053" d="M176.25,423.558V387.7a2.857,2.857,0,0,1,5.2-1.626l25.981,37.484Z" transform="translate(-168.632 -384.839)" fill="#99a3b0"/>
            </g>
            <path id="Trazado_720054" data-name="Trazado 720054" d="M197.434,403.414c0,2.782,1.673,5.038,3.737,5.038s3.738-2.256,3.738-5.038-1.673-5.039-3.738-5.039S197.434,400.631,197.434,403.414Z" transform="translate(-186.277 -385.486)" fill="#495375"/>
          </g>
        </g>
        <g id="Grupo_1018595" data-name="Grupo 1018595" transform="translate(0 143.469)">
          <g id="Grupo_1018587" data-name="Grupo 1018587" transform="translate(0)">
            <path id="Trazado_720055" data-name="Trazado 720055" d="M396.839,246.517,401.6,300.13,419.931,288.7l15.95,46.9-32.743,24.43a27.778,27.778,0,0,1-28.178,2.991h0a27.777,27.777,0,0,1-16.21-25.254V262.474a46.453,46.453,0,0,1,26.055-41.734l5.607-2.74Z" transform="translate(-358.75 -218)" fill="#fff"/>
            <path id="Trazado_720056" data-name="Trazado 720056" d="M421.668,304.093l-26.918,16.78c5.969-18.447,14.463-20.148,26.642-19.893Z" transform="translate(-378.817 -221.963)" fill="#c7d2d7"/>
          </g>
          <path id="Trazado_720057" data-name="Trazado 720057" d="M374.878,339.147s-20.711-22.616-15.95-46.9C372.5,297.249,377.021,320.341,374.878,339.147Z" transform="translate(-297.748 -221.547)" fill="#99a3b0"/>
          <g id="Grupo_1018588" data-name="Grupo 1018588" transform="translate(52.232 113.852)">
            <path id="Trazado_720058" data-name="Trazado 720058" d="M384.029,338.472l.6.691-.187.161a2.773,2.773,0,0,1-1.058,2.822,2.8,2.8,0,0,1-2.734.439l-.21.182-.776-.9a2.78,2.78,0,0,1,4.37-3.393Z" transform="translate(-379.173 -337.563)" fill="#99a3b0"/>
            <path id="Trazado_720059" data-name="Trazado 720059" d="M379.8,338.918a2.517,2.517,0,1,0,3.721.281A2.646,2.646,0,0,0,379.8,338.918Z" transform="translate(-378.068 -337.598)" fill="#c7d2d7"/>
          </g>
          <g id="Grupo_1018589" data-name="Grupo 1018589" transform="translate(44.403 119.224)">
            <path id="Trazado_720060" data-name="Trazado 720060" d="M392.251,344.114l.6.692-.187.16a2.774,2.774,0,0,1-1.058,2.822,2.8,2.8,0,0,1-2.734.44l-.211.181-.776-.9a2.78,2.78,0,0,1,4.371-3.393Z" transform="translate(-387.395 -343.205)" fill="#99a3b0"/>
            <path id="Trazado_720061" data-name="Trazado 720061" d="M388.02,344.56a2.517,2.517,0,1,0,3.721.282A2.645,2.645,0,0,0,388.02,344.56Z" transform="translate(-386.29 -343.24)" fill="#c7d2d7"/>
          </g>
          <g id="Grupo_1018590" data-name="Grupo 1018590" transform="translate(60.47 64.276)">
            <path id="Trazado_720062" data-name="Trazado 720062" d="M353.961,291.928c-2.625,13.389,2.494,26.272,7.616,35.136L375.148,309.5l-10.949-24Z" transform="translate(-353.25 -285.5)" fill="#f0bf9c"/>
            <path id="Trazado_720063" data-name="Trazado 720063" d="M359.005,309.244a32.6,32.6,0,0,1-2.831-22.139l2.556-1.6,10.949,24-13.571,17.568c-.97-1.679-1.941-3.5-2.858-5.448,1.682-1.984,3.358-3.992,5.046-5.95A5.746,5.746,0,0,0,359.005,309.244Z" transform="translate(-347.781 -285.5)" fill="#eba58e"/>
          </g>
          <g id="Grupo_1018594" data-name="Grupo 1018594" transform="translate(69.395 28.517)">
            <path id="Trazado_720064" data-name="Trazado 720064" d="M283.343,282.04l16.823-12.379L327.3,250.5a13.788,13.788,0,0,1,12.988-1.6,70.664,70.664,0,0,1,19.363,11.715c1.52,1.29,3.048,2.759,3.185,4.9a3.035,3.035,0,0,1-.923,2.437c-1.484,1.348-3.405.549-4.99-.24l-21.244-10.581c6.378,4.095,13.085,8.724,19.463,12.819a11.639,11.639,0,0,1,3.737,3.239,3.513,3.513,0,0,1-3.6,5.693,11.6,11.6,0,0,1-3.593-1.475l-19.667-10.787c5.3,4.029,10.568,8.144,15.869,12.173a10.76,10.76,0,0,1,2.987,2.964,3.245,3.245,0,0,1-3.281,5.157,10.737,10.737,0,0,1-3.412-1.191l-15.59-7.512c3.715,3.336,7.738,6.136,11.453,9.473,1.22,1.1,2.564,2.623,1.9,4.175a2.5,2.5,0,0,1-1.734,1.375,5.942,5.942,0,0,1-3.759-.664,38.442,38.442,0,0,1-9.7-6.067c-11.506,7.451-21.266,6.833-21.266,6.833l-10.475,19.425C277.868,305.846,283.343,282.04,283.343,282.04Z" transform="translate(-282.511 -247.947)" fill="#7dd3e9"/>
            <g id="Grupo_1018591" data-name="Grupo 1018591" transform="translate(3.04 34.563)">
              <path id="Trazado_720065" data-name="Trazado 720065" d="M363.2,308.187a18.118,18.118,0,0,1-4.776-4.162,21.427,21.427,0,0,1-4.79-13.542,18.072,18.072,0,0,1,1.1-6.239,32.516,32.516,0,0,0,8.47,23.943Z" transform="translate(-353.635 -284.244)" fill="#5fa5cc"/>
            </g>
            <g id="Grupo_1018592" data-name="Grupo 1018592" transform="translate(7.128 38.322)">
              <path id="Trazado_720066" data-name="Trazado 720066" d="M359.089,305.18a17.712,17.712,0,0,1-5.557-16.988,33.9,33.9,0,0,0,5.557,16.988Z" transform="translate(-353.108 -288.192)" fill="#5fa5cc"/>
            </g>
            <g id="Grupo_1018593" data-name="Grupo 1018593" transform="translate(16.09 22.518)">
              <path id="Trazado_720067" data-name="Trazado 720067" d="M349.7,292.536a13.012,13.012,0,0,1-3.574-4.1,14.4,14.4,0,0,1-.892-12.257,13,13,0,0,1,2.941-4.579,19.2,19.2,0,0,0,1.525,20.941Z" transform="translate(-344.274 -271.595)" fill="#5fa5cc"/>
            </g>
          </g>
        </g>
      </g>
      <g id="Grupo_1018597" data-name="Grupo 1018597" transform="translate(0 364.36)">
        <rect id="Rectángulo_348309" data-name="Rectángulo 348309" width="346.848" height="20.387" transform="translate(158.153)" fill="#3076b6"/>
        <rect id="Rectángulo_348310" data-name="Rectángulo 348310" width="158.153" height="20.387" transform="translate(0)" fill="#3076b6"/>
      </g>
      <g id="Grupo_1018602" data-name="Grupo 1018602" transform="translate(393.114 199.655)">
        <path id="Rectángulo_348311" data-name="Rectángulo 348311" d="M0,0H37.933a5,5,0,0,1,5,5V63.878a5,5,0,0,1-5,5H0a0,0,0,0,1,0,0V0A0,0,0,0,1,0,0Z" transform="translate(81.415 114.154) rotate(90)" fill="#7dd3e9"/>
        <g id="Grupo_1018599" data-name="Grupo 1018599" transform="translate(20.953)">
          <path id="Trazado_720068" data-name="Trazado 720068" d="M63.16,308.418A21.2,21.2,0,0,1,68,300.245a20.7,20.7,0,0,1,7.521-5.1,23.1,23.1,0,0,1,18.191.627h0a22.415,22.415,0,0,1-5,7.022,25.8,25.8,0,0,1-7.28,4.721,26.334,26.334,0,0,1-18.268.908Z" transform="translate(-29.75 -264.574)" fill="#91b66a"/>
          <path id="Trazado_720069" data-name="Trazado 720069" d="M70.685,330.584a21.433,21.433,0,0,1,11.041-14.389,23.277,23.277,0,0,1,18.168-1.1h0a20.774,20.774,0,0,1-4.316,7.479,23.3,23.3,0,0,1-6.823,5.387,25.978,25.978,0,0,1-18.071,2.628Z" transform="translate(-43.099 -265.539)" fill="#638674"/>
          <path id="Trazado_720070" data-name="Trazado 720070" d="M76.313,353.22a19.381,19.381,0,0,1,1.164-4.719,23.1,23.1,0,0,1,2.066-4.214,21.526,21.526,0,0,1,6.442-6.421,21.139,21.139,0,0,1,4.027-2.043,23.047,23.047,0,0,1,4.464-1.162,24.848,24.848,0,0,1,9.508.406h0a21.132,21.132,0,0,1-1.458,4.133,20.06,20.06,0,0,1-2.143,3.719,22.572,22.572,0,0,1-2.89,3.247,24.081,24.081,0,0,1-3.39,2.756,26.585,26.585,0,0,1-8.3,3.687,25.268,25.268,0,0,1-9.494.61Z" transform="translate(-52.548 -266.524)" fill="#91b66a"/>
          <path id="Trazado_720071" data-name="Trazado 720071" d="M80.118,376.133a23.909,23.909,0,0,1,.665-4.812,21.326,21.326,0,0,1,1.714-4.385,20.584,20.584,0,0,1,5.789-7,23.144,23.144,0,0,1,17.625-4.473h0a20.225,20.225,0,0,1-2.856,8.151,23.362,23.362,0,0,1-5.665,6.563,27.4,27.4,0,0,1-7.862,4.45,25.365,25.365,0,0,1-9.41,1.5Z" transform="translate(-58.098 -267.519)" fill="#638674"/>
          <path id="Trazado_720072" data-name="Trazado 720072" d="M109.44,307.549a27.485,27.485,0,0,0,1.3-9.485,28.565,28.565,0,0,0-1.964-9.115A24.884,24.884,0,0,0,96.1,275.381h0a25.146,25.146,0,0,0-2.248,10.209,22.957,22.957,0,0,0,1.893,9.563,22.037,22.037,0,0,0,13.7,12.4Z" transform="translate(-76.03 -263.706)" fill="#638674"/>
          <path id="Trazado_720073" data-name="Trazado 720073" d="M118.362,329.885a27.05,27.05,0,0,0-2.427-18.459,24.666,24.666,0,0,0-13.91-12.3h0a26.791,26.791,0,0,0-1.264,10.366,24.9,24.9,0,0,0,2.768,9.333,22.3,22.3,0,0,0,14.833,11.065Z" transform="translate(-90.776 -264.84)" fill="#91b66a"/>
          <path id="Trazado_720074" data-name="Trazado 720074" d="M124.958,352.706a31.879,31.879,0,0,0,.2-4.863,24.555,24.555,0,0,0-.69-4.7,27.181,27.181,0,0,0-3.626-8.584,28.061,28.061,0,0,0-2.886-3.712,25.025,25.025,0,0,0-3.454-3.15,23.137,23.137,0,0,0-8.646-4.081h0a26.711,26.711,0,0,0-.719,5.3,27.509,27.509,0,0,0,.427,5.133,25.492,25.492,0,0,0,1.335,4.763,24.428,24.428,0,0,0,2.3,4.27,22.173,22.173,0,0,0,6.726,6.487,22.747,22.747,0,0,0,9.033,3.136Z" transform="translate(-101.193 -266.01)" fill="#638674"/>
          <path id="Trazado_720075" data-name="Trazado 720075" d="M129.207,375.818a24.36,24.36,0,0,0-.31-4.864,27.1,27.1,0,0,0-1.075-4.609,28.741,28.741,0,0,0-4.438-8.209,24.812,24.812,0,0,0-15.978-9.5h0a27.493,27.493,0,0,0,.68,10.42,24.834,24.834,0,0,0,4.494,8.661,21.681,21.681,0,0,0,7.355,5.831,22.688,22.688,0,0,0,9.273,2.27Z" transform="translate(-107.187 -267.205)" fill="#91b66a"/>
          <path id="Trazado_720076" data-name="Trazado 720076" d="M75.612,293.7a22.2,22.2,0,0,1-1.812-9.448A22.977,22.977,0,0,1,81.828,267.6a22.954,22.954,0,0,1,8.5-4.479h0a25.045,25.045,0,0,1,.82,9.436,25.386,25.386,0,0,1-7.665,15.9,26.055,26.055,0,0,1-7.866,5.244Z" transform="translate(-37.44 -263.12)" fill="#638674"/>
          <g id="Grupo_1018598" data-name="Grupo 1018598" transform="translate(20.664 26.991)">
            <path id="Trazado_720077" data-name="Trazado 720077" d="M91.037,403.875c.2-.021.263-1.641.2-4.541-.017-1.452-.123-3.22-.154-5.277s-.049-4.4-.077-6.983a264.554,264.554,0,0,1,2.856-40.21,271.081,271.081,0,0,1,8.888-39.322c.342-1.248.726-2.418,1.093-3.523s.7-2.156,1.01-3.134c.628-1.96,1.126-3.665,1.615-5.029.926-2.748,1.35-4.311,1.163-4.388s-.97,1.337-2.227,3.972c-.656,1.306-1.314,2.962-2.094,4.881l-1.232,3.081c-.439,1.091-.891,2.248-1.3,3.486a207.074,207.074,0,0,0-9.823,39.546,203.28,203.28,0,0,0-2.024,40.7l.514,7.022c.188,2.062.461,3.829.654,5.273C90.512,402.315,90.836,403.9,91.037,403.875Z" transform="translate(-88.668 -291.465)" fill="#456179"/>
          </g>
        </g>
        <path id="Rectángulo_348312" data-name="Rectángulo 348312" d="M0,0H84.114a0,0,0,0,1,0,0V61.478a13,13,0,0,1-13,13H13a13,13,0,0,1-13-13V0A0,0,0,0,1,0,0Z" transform="translate(4.92 90.227)" fill="#fff" opacity="0.7"/>
        <path id="Trazado_720078" data-name="Trazado 720078" d="M55.987,357.64H145.3a2.32,2.32,0,0,0,2.32-2.321h0A2.319,2.319,0,0,0,145.3,353H55.987a2.32,2.32,0,0,0-2.32,2.32h0A2.32,2.32,0,0,0,55.987,357.64Z" transform="translate(-53.667 -267.413)" fill="#fff" opacity="0.9"/>
        <rect id="Rectángulo_348313" data-name="Rectángulo 348313" width="84.114" height="3.968" transform="translate(4.92 90.227)" fill="#21255c" opacity="0.3"/>
        <g id="Grupo_1018600" data-name="Grupo 1018600" transform="translate(58.554 96.318)">
          <path id="Trazado_720079" data-name="Trazado 720079" d="M69.946,370.893H81.492a1.072,1.072,0,0,0,1.071-1.071h0a1.072,1.072,0,0,0-1.071-1.071H69.946a1.072,1.072,0,0,0-1.071,1.071h0A1.072,1.072,0,0,0,69.946,370.893Z" transform="translate(-61.646 -364.484)" fill="#99a3b0"/>
          <path id="Trazado_720080" data-name="Trazado 720080" d="M69.946,366.413H88.721a1.072,1.072,0,0,0,1.071-1.071h0a1.071,1.071,0,0,0-1.071-1.071H69.946a1.07,1.07,0,0,0-1.071,1.071h0A1.071,1.071,0,0,0,69.946,366.413Z" transform="translate(-68.875 -364.27)" fill="#99a3b0"/>
          <path id="Trazado_720081" data-name="Trazado 720081" d="M69.946,375.726H81.492a1.071,1.071,0,0,0,1.071-1.071h0a1.072,1.072,0,0,0-1.071-1.071H69.946a1.072,1.072,0,0,0-1.071,1.071h0A1.071,1.071,0,0,0,69.946,375.726Z" transform="translate(-61.646 -364.715)" fill="#99a3b0"/>
          <path id="Trazado_720082" data-name="Trazado 720082" d="M69.946,380.56H81.492a1.072,1.072,0,0,0,1.071-1.071h0a1.071,1.071,0,0,0-1.071-1.071H69.946a1.071,1.071,0,0,0-1.071,1.071h0A1.072,1.072,0,0,0,69.946,380.56Z" transform="translate(-61.646 -364.946)" fill="#99a3b0"/>
          <path id="Trazado_720083" data-name="Trazado 720083" d="M69.946,385.393H88.721a1.072,1.072,0,0,0,1.071-1.071h0a1.072,1.072,0,0,0-1.071-1.071H69.946a1.071,1.071,0,0,0-1.071,1.071h0A1.071,1.071,0,0,0,69.946,385.393Z" transform="translate(-68.875 -365.177)" fill="#99a3b0"/>
          <path id="Trazado_720084" data-name="Trazado 720084" d="M69.946,390.226H81.492a1.071,1.071,0,0,0,1.071-1.071h0a1.072,1.072,0,0,0-1.071-1.071H69.946a1.072,1.072,0,0,0-1.071,1.071h0A1.071,1.071,0,0,0,69.946,390.226Z" transform="translate(-61.646 -365.408)" fill="#99a3b0"/>
          <path id="Trazado_720085" data-name="Trazado 720085" d="M69.946,395.06H81.492a1.072,1.072,0,0,0,1.071-1.071h0a1.071,1.071,0,0,0-1.071-1.071H69.946a1.071,1.071,0,0,0-1.071,1.071h0A1.072,1.072,0,0,0,69.946,395.06Z" transform="translate(-61.646 -365.638)" fill="#99a3b0"/>
          <path id="Trazado_720086" data-name="Trazado 720086" d="M69.946,399.893H81.492a1.072,1.072,0,0,0,1.071-1.071h0a1.072,1.072,0,0,0-1.071-1.071H69.946a1.072,1.072,0,0,0-1.071,1.071h0A1.072,1.072,0,0,0,69.946,399.893Z" transform="translate(-61.646 -365.869)" fill="#99a3b0"/>
          <path id="Trazado_720087" data-name="Trazado 720087" d="M69.946,404.726H88.721a1.071,1.071,0,0,0,1.071-1.071h0a1.072,1.072,0,0,0-1.071-1.071H69.946a1.071,1.071,0,0,0-1.071,1.071h0A1.07,1.07,0,0,0,69.946,404.726Z" transform="translate(-68.875 -366.1)" fill="#99a3b0"/>
          <path id="Trazado_720088" data-name="Trazado 720088" d="M69.946,409.56H81.492a1.072,1.072,0,0,0,1.071-1.071h0a1.071,1.071,0,0,0-1.071-1.071H69.946a1.071,1.071,0,0,0-1.071,1.071h0A1.072,1.072,0,0,0,69.946,409.56Z" transform="translate(-61.646 -366.331)" fill="#99a3b0"/>
          <path id="Trazado_720089" data-name="Trazado 720089" d="M69.946,414.393H81.492a1.072,1.072,0,0,0,1.071-1.071h0a1.072,1.072,0,0,0-1.071-1.071H69.946a1.072,1.072,0,0,0-1.071,1.071h0A1.072,1.072,0,0,0,69.946,414.393Z" transform="translate(-61.646 -366.562)" fill="#99a3b0"/>
          <path id="Trazado_720090" data-name="Trazado 720090" d="M69.946,419.226H81.492a1.071,1.071,0,0,0,1.071-1.071h0a1.072,1.072,0,0,0-1.071-1.071H69.946a1.072,1.072,0,0,0-1.071,1.071h0A1.071,1.071,0,0,0,69.946,419.226Z" transform="translate(-61.646 -366.793)" fill="#99a3b0"/>
          <path id="Trazado_720091" data-name="Trazado 720091" d="M69.946,424.06H88.721a1.072,1.072,0,0,0,1.071-1.071h0a1.071,1.071,0,0,0-1.071-1.071H69.946a1.07,1.07,0,0,0-1.071,1.071h0A1.071,1.071,0,0,0,69.946,424.06Z" transform="translate(-68.875 -367.024)" fill="#99a3b0"/>
        </g>
        <g id="Grupo_1018601" data-name="Grupo 1018601" transform="translate(16.267 96.318)" opacity="0.9">
          <path id="Trazado_720092" data-name="Trazado 720092" d="M128.832,377.582h0a5.832,5.832,0,0,0,5.832-5.832V370.1a5.832,5.832,0,0,0-5.832-5.832h0A5.832,5.832,0,0,0,123,370.1v1.647A5.832,5.832,0,0,0,128.832,377.582Z" transform="translate(-123 -364.27)" fill="#fff"/>
          <path id="Trazado_720093" data-name="Trazado 720093" d="M128.832,419.608h0a5.832,5.832,0,0,0,5.832-5.832V390.207a5.832,5.832,0,0,0-5.832-5.832h0A5.832,5.832,0,0,0,123,390.207v23.568A5.832,5.832,0,0,0,128.832,419.608Z" transform="translate(-123 -365.23)" fill="#fff"/>
        </g>
      </g>
      <g id="Grupo_1018623" data-name="Grupo 1018623" transform="translate(283.079 0)">
        <ellipse id="Elipse_8443" data-name="Elipse 8443" cx="87.062" cy="87.062" rx="87.062" ry="87.062" transform="translate(12.183 41.993)" fill="#fff"/>
        <g id="Grupo_1018617" data-name="Grupo 1018617" transform="translate(35.827 65.638)">
          <g id="Grupo_1018613" data-name="Grupo 1018613" transform="translate(40.094 40.093)">
            <rect id="Rectángulo_348319" data-name="Rectángulo 348319" width="2.018" height="22.981" transform="translate(30.398 46.648) rotate(-135)" fill="#cc6164"/>
            <rect id="Rectángulo_348320" data-name="Rectángulo 348320" width="2.018" height="33.553" transform="matrix(-0.707, -0.707, 0.707, -0.707, 21.831, 45.557)" fill="#cc6164"/>
            <rect id="Rectángulo_348321" data-name="Rectángulo 348321" width="2.018" height="37.588" transform="translate(15.577 42.155) rotate(-135)" fill="#cc6164"/>
            <rect id="Rectángulo_348322" data-name="Rectángulo 348322" width="2.018" height="38.444" transform="translate(10.446 37.629) rotate(-135)" fill="#cc6164"/>
            <rect id="Rectángulo_348323" data-name="Rectángulo 348323" width="2.018" height="37.588" transform="translate(5.92 32.498) rotate(-135)" fill="#cc6164"/>
            <rect id="Rectángulo_348324" data-name="Rectángulo 348324" width="2.018" height="33.553" transform="matrix(-0.707, -0.707, 0.707, -0.707, 2.518, 26.243)" fill="#cc6164"/>
            <rect id="Rectángulo_348325" data-name="Rectángulo 348325" width="2.018" height="22.981" transform="translate(1.427 17.677) rotate(-135)" fill="#cc6164"/>
          </g>
          <g id="Grupo_1018614" data-name="Grupo 1018614" transform="translate(87.261 87.26)">
            <rect id="Rectángulo_348326" data-name="Rectángulo 348326" width="2.018" height="22.981" transform="translate(16.25 0) rotate(45)" fill="#cc6164"/>
            <rect id="Rectángulo_348327" data-name="Rectángulo 348327" width="2.017" height="33.553" transform="matrix(0.707, 0.707, -0.707, 0.707, 24.816, 1.091)" fill="#cc6164"/>
            <rect id="Rectángulo_348328" data-name="Rectángulo 348328" width="2.018" height="37.588" transform="translate(31.071 4.493) rotate(45)" fill="#cc6164"/>
          </g>
          <g id="Grupo_1018615" data-name="Grupo 1018615" transform="translate(7.076 7.076)">
            <rect id="Rectángulo_348329" data-name="Rectángulo 348329" width="2.018" height="22.981" transform="translate(16.248 32.498) rotate(-135)" fill="#cc6164"/>
            <rect id="Rectángulo_348330" data-name="Rectángulo 348330" width="2.018" height="33.553" transform="matrix(-0.707, -0.707, 0.707, -0.707, 7.681, 31.407)" fill="#cc6164"/>
            <rect id="Rectángulo_348331" data-name="Rectángulo 348331" width="2.018" height="37.588" transform="translate(1.427 28.005) rotate(-135)" fill="#cc6164"/>
          </g>
          <g id="Grupo_1018616" data-name="Grupo 1018616" transform="translate(0 27.233)">
            <path id="Trazado_720118" data-name="Trazado 720118" d="M174.542,208.026a34.784,34.784,0,0,0-40.97-40.97c.146-.712.309-1.425.5-2.135a43.392,43.392,0,0,0,1.122-5.683,42.26,42.26,0,0,1,47.167,47.167,43.585,43.585,0,0,0-5.683,1.122C175.967,207.717,175.254,207.88,174.542,208.026Z" transform="translate(-90.64 -151.357)" fill="#7dd3e9"/>
            <path id="Trazado_720119" data-name="Trazado 720119" d="M228.42,160.48c-.146.713-.309,1.425-.5,2.135A43.582,43.582,0,0,0,226.8,168.3a41.732,41.732,0,0,1-35.115-12.052l5.268-5.267A34.393,34.393,0,0,0,228.42,160.48Z" transform="translate(-191.685 -150.979)" fill="#7dd3e9"/>
            <path id="Trazado_720120" data-name="Trazado 720120" d="M133.834,217a34.391,34.391,0,0,0,9.5,31.467l-5.268,5.268a41.732,41.732,0,0,1-12.052-35.115A43.588,43.588,0,0,0,131.7,217.5C132.409,217.308,133.122,217.145,133.834,217Z" transform="translate(-43.734 -154.133)" fill="#7dd3e9"/>
          </g>
          <path id="Trazado_720121" data-name="Trazado 720121" d="M114.386,157.495a43.392,43.392,0,0,1-1.122,5.683c-.19.71-.353,1.423-.5,2.135a34.784,34.784,0,0,0,40.97,40.97c.712-.146,1.425-.309,2.135-.5a43.585,43.585,0,0,1,5.683-1.122,41.737,41.737,0,0,1,35.115,12.052l-5.267,5.268a34.394,34.394,0,0,0-31.467-9.5c-.712.146-1.425.309-2.135.5a43.587,43.587,0,0,1-5.683,1.122,42.261,42.261,0,0,1-47.168-47.168,43.582,43.582,0,0,1,1.122-5.683c.19-.71.353-1.422.5-2.135a34.391,34.391,0,0,0-9.5-31.467l5.268-5.268A41.731,41.731,0,0,1,114.386,157.495Z" transform="translate(-69.833 -122.38)" fill="#5fa5cc"/>
        </g>
        <g id="Grupo_1018618" data-name="Grupo 1018618" transform="translate(0 75.116)">
          <path id="Trazado_720122" data-name="Trazado 720122" d="M102.733,192.673a5.859,5.859,0,1,0,5.859-5.86A5.859,5.859,0,0,0,102.733,192.673Z" transform="translate(42.815 -134.935)" fill="#7dd3e9"/>
          <path id="Trazado_720123" data-name="Trazado 720123" d="M111.625,173.936a3.608,3.608,0,1,0,3.608-3.607A3.607,3.607,0,0,0,111.625,173.936Z" transform="translate(29.958 -134.148)" fill="#5fa5cc"/>
          <path id="Trazado_720124" data-name="Trazado 720124" d="M108.886,150.92a2.93,2.93,0,1,0,2.93-2.929A2.93,2.93,0,0,0,108.886,150.92Z" transform="translate(36.662 -133.081)" fill="#5fa5cc"/>
          <path id="Trazado_720125" data-name="Trazado 720125" d="M129.343,147.182a2.667,2.667,0,1,0,2.667-2.666A2.666,2.666,0,0,0,129.343,147.182Z" transform="translate(-2.75 -132.915)" fill="#7dd3e9"/>
          <path id="Trazado_720126" data-name="Trazado 720126" d="M145.833,137.7a5.366,5.366,0,1,0,5.366-5.366A5.366,5.366,0,0,0,145.833,137.7Z" transform="translate(-40.34 -132.333)" fill="#7dd3e9"/>
          <path id="Trazado_720127" data-name="Trazado 720127" d="M210.974,193.215a4.8,4.8,0,1,0,4.8-4.8A4.8,4.8,0,0,0,210.974,193.215Z" transform="translate(-166.386 -135.012)" fill="#7dd3e9"/>
          <path id="Trazado_720128" data-name="Trazado 720128" d="M222.75,221.689a3.023,3.023,0,1,0,3.023-3.022A3.023,3.023,0,0,0,222.75,221.689Z" transform="translate(-185.814 -136.457)" fill="#5fa5cc"/>
          <ellipse id="Elipse_8444" data-name="Elipse 8444" cx="3.817" cy="3.817" rx="3.817" ry="3.817" transform="translate(59.791 80.622)" fill="#5fa5cc"/>
          <ellipse id="Elipse_8445" data-name="Elipse 8445" cx="9.726" cy="9.726" rx="9.726" ry="9.726" transform="translate(4.187 84.325) rotate(-102.429)" fill="#7dd3e9"/>
          <ellipse id="Elipse_8446" data-name="Elipse 8446" cx="4.369" cy="4.369" rx="4.369" ry="4.369" transform="translate(22.817 40.938)" fill="#7dd3e9"/>
          <path id="Trazado_720129" data-name="Trazado 720129" d="M173.806,242.056A3.055,3.055,0,1,0,176.861,239,3.055,3.055,0,0,0,173.806,242.056Z" transform="translate(-90.329 -137.428)" fill="#7dd3e9"/>
        </g>
        <g id="Grupo_1018619" data-name="Grupo 1018619" transform="translate(154.251 60.881)">
          <path id="Trazado_720130" data-name="Trazado 720130" d="M73.215,149.868a1.424,1.424,0,0,0,1.01-.418l29.626-29.627a1.428,1.428,0,1,0-2.02-2.02L72.206,147.429a1.428,1.428,0,0,0,1.009,2.439Z" transform="translate(-71.788 -117.385)" fill="#7dd3e9"/>
        </g>
        <g id="Grupo_1018620" data-name="Grupo 1018620" transform="translate(115.521 20.154)">
          <path id="Trazado_720131" data-name="Trazado 720131" d="M128.8,116.426a1.43,1.43,0,0,0,1.328-.9l15.427-38.954a1.428,1.428,0,1,0-2.656-1.052l-15.427,38.955a1.429,1.429,0,0,0,1.327,1.954Z" transform="translate(-127.37 -74.614)" fill="#7dd3e9"/>
        </g>
        <g id="Grupo_1018621" data-name="Grupo 1018621" transform="translate(89.8 5.048)">
          <rect id="Rectángulo_348332" data-name="Rectángulo 348332" width="28.726" height="2.539" fill="#fff"/>
          <rect id="Rectángulo_348333" data-name="Rectángulo 348333" width="28.726" height="2.539" transform="translate(0 4.84)" fill="#fff"/>
          <rect id="Rectángulo_348334" data-name="Rectángulo 348334" width="16.664" height="2.539" transform="translate(12.062 9.681)" fill="#fff"/>
        </g>
        <g id="Grupo_1018622" data-name="Grupo 1018622" transform="translate(16.716 13.221)">
          <rect id="Rectángulo_348335" data-name="Rectángulo 348335" width="28.726" height="2.539" fill="#fff"/>
          <rect id="Rectángulo_348336" data-name="Rectángulo 348336" width="28.726" height="2.539" transform="translate(0 4.761)" fill="#fff"/>
          <rect id="Rectángulo_348337" data-name="Rectángulo 348337" width="28.726" height="2.539" transform="translate(0 9.522)" fill="#fff"/>
          <rect id="Rectángulo_348338" data-name="Rectángulo 348338" width="19.481" height="2.539" transform="translate(9.245 14.282)" fill="#fff"/>
        </g>
        <ellipse id="Elipse_8447" data-name="Elipse 8447" cx="10.396" cy="10.396" rx="10.396" ry="10.396" transform="translate(170.658 166.565)" fill="#5fa5cc"/>
        <ellipse id="Elipse_8448" data-name="Elipse 8448" cx="7.855" cy="7.855" rx="7.855" ry="7.855" transform="translate(99.245 232.024)" fill="#5fa5cc"/>
        <ellipse id="Elipse_8449" data-name="Elipse 8449" cx="3.445" cy="3.445" rx="3.445" ry="3.445" transform="translate(79.643 228.646)" fill="#7dd3e9"/>
        <ellipse id="Elipse_8450" data-name="Elipse 8450" cx="9.364" cy="9.364" rx="9.364" ry="9.364" transform="translate(182.562 46.325)" fill="#fff"/>
        <ellipse id="Elipse_8451" data-name="Elipse 8451" cx="9.364" cy="9.364" rx="9.364" ry="9.364" transform="matrix(-0.853, -0.523, 0.523, -0.853, 138.915, 25.753)" fill="#fff"/>
      </g>
      <g id="Grupo_1018628" data-name="Grupo 1018628" transform="translate(2.768 188.75)">
        <ellipse id="Elipse_8452" data-name="Elipse 8452" cx="45.953" cy="45.953" rx="45.953" ry="45.953" transform="translate(10.326)" fill="#fff"/>
        <g id="Grupo_1018624" data-name="Grupo 1018624" transform="translate(22.497 12.171)">
          <path id="Trazado_720132" data-name="Trazado 720132" d="M401.292,135.115c0-3.635,5.99-6.4,14.313-8.065-4.711-7.059-6.988-13.253-4.418-15.823s8.766-.294,15.824,4.418c1.66-8.322,4.429-14.312,8.064-14.312s6.4,5.99,8.065,14.313c7.059-4.71,13.253-6.988,15.822-4.419s.294,8.764-4.418,15.823c8.322,1.66,14.312,4.43,14.312,8.065s-5.99,6.4-14.312,8.065c4.711,7.059,6.988,13.253,4.418,15.823a4.1,4.1,0,0,1-3.022,1.072c-3.154,0-7.756-2.125-12.8-5.492-1.66,8.324-4.43,14.314-8.065,14.314s-6.4-5.99-8.065-14.313c-5.044,3.367-9.646,5.491-12.8,5.491A4.107,4.107,0,0,1,411.186,159c-2.57-2.57-.293-8.764,4.418-15.823C407.282,141.519,401.292,138.75,401.292,135.115Zm12.99-23.6a2.89,2.89,0,0,0-2.114.7c-1.81,1.81-.073,7.327,4.858,14.572,2.7-.482,5.6-.853,8.608-1.106.253-3,.623-5.909,1.106-8.605C421.37,113.415,416.946,111.511,414.282,111.511Zm12.347,23.6q0,1.776.049,3.478,1.17,1.237,2.425,2.493t2.493,2.425q1.7.047,3.478.049t3.478-.049q1.237-1.17,2.493-2.425t2.425-2.493q.047-1.7.048-3.478t-.048-3.478q-1.17-1.237-2.425-2.493c-.84-.84-1.672-1.643-2.5-2.425q-1.7-.047-3.471-.049t-3.471.049c-.828.782-1.66,1.585-2.5,2.425s-1.645,1.669-2.425,2.493Q426.63,133.339,426.628,135.115Zm1.492-6.953q.689-.689,1.393-1.367-1.332.06-2.611.149-.087,1.28-.149,2.611Q427.433,128.853,428.121,128.162Zm2.911-2.806q1.482-1.381,2.993-2.691c-2.114-1.794-4.15-3.378-6.079-4.749-.394,2.332-.713,4.894-.939,7.654C428.337,125.475,429.681,125.4,431.032,125.356Zm2.094-.056c.65-.011,1.3-.019,1.949-.019s1.3.008,1.948.019c-.655-.6-1.3-1.175-1.948-1.737C434.43,124.125,433.781,124.7,433.126,125.3Zm5.991.056c1.35.048,2.695.119,4.024.213-.226-2.759-.544-5.321-.938-7.654-1.929,1.371-3.965,2.955-6.079,4.749Q437.632,123.972,439.117,125.356Zm1.517,1.439q.7.679,1.393,1.367t1.367,1.393q-.062-1.332-.149-2.611Q441.965,126.857,440.634,126.8Zm4.2,4.278q1.382,1.483,2.695,3c1.794-2.114,3.382-4.152,4.754-6.082-2.334-.394-4.9-.714-7.662-.939C444.714,128.378,444.785,129.722,444.833,131.073Zm.055,2.091c.011.65.019,1.3.019,1.951s-.008,1.3-.019,1.951q.9-.984,1.741-1.951Q445.786,134.148,444.889,133.164Zm-.055,5.993c-.048,1.351-.119,2.7-.214,4.025,2.763-.226,5.328-.545,7.662-.939-1.372-1.93-2.959-3.968-4.754-6.082Q446.218,137.671,444.833,139.157Zm-1.439,1.518q-.679.7-1.367,1.393t-1.393,1.367q1.332-.06,2.611-.149Q443.332,142.006,443.394,140.675Zm-4.275,4.2q-1.484,1.383-3,2.695c2.113,1.794,4.152,3.382,6.081,4.753.394-2.334.714-4.9.939-7.661C441.812,144.755,440.469,144.826,439.119,144.874Zm-2.094.056c-.65.011-1.3.019-1.951.019s-1.3-.008-1.951-.019q.985.9,1.951,1.741Q436.041,145.827,437.025,144.93Zm-6-.056c-1.35-.048-2.693-.119-4.022-.214.226,2.763.545,5.328.939,7.663,1.93-1.372,3.968-2.96,6.082-4.754Q432.517,146.259,431.029,144.874Zm-1.516-1.439q-.7-.679-1.392-1.367t-1.367-1.393q.06,1.332.149,2.611Q428.183,143.373,429.513,143.435Zm-4.2-4.278q-1.382-1.483-2.695-3c-1.794,2.114-3.382,4.152-4.754,6.082,2.334.394,4.9.714,7.661.939C425.434,141.852,425.363,140.508,425.315,139.157Zm-.056-2.091c-.011-.65-.019-1.3-.019-1.951s.008-1.3.019-1.951q-.9.984-1.74,1.951Q424.361,136.082,425.259,137.066Zm.056-5.993c.048-1.351.119-2.7.213-4.025-2.763.226-5.327.545-7.661.939,1.372,1.93,2.959,3.968,4.754,6.082Q423.929,132.559,425.315,131.073Zm9.759-28.352c-2.559,0-5.233,5.13-6.869,13.739,2.248,1.565,4.566,3.359,6.869,5.305,2.3-1.946,4.62-3.739,6.868-5.3C440.307,107.852,437.634,102.721,435.074,102.721Zm22.905,9.488a2.885,2.885,0,0,0-2.113-.7c-2.664,0-7.089,1.905-12.459,5.559.482,2.7.853,5.6,1.106,8.605,3,.253,5.911.623,8.608,1.106C458.052,119.537,459.79,114.019,457.98,112.21Zm9.488,22.905c0-2.56-5.129-5.232-13.739-6.869-1.565,2.248-3.359,4.566-5.3,6.869,1.946,2.3,3.739,4.621,5.3,6.869C462.338,140.348,467.467,137.675,467.467,135.115Zm-9.488,22.905c1.81-1.81.073-7.327-4.858-14.572-2.7.482-5.6.853-8.608,1.106-.253,3-.623,5.911-1.106,8.607C450.653,158.093,456.17,159.832,457.98,158.021Zm-22.905,9.488c2.56,0,5.233-5.131,6.869-13.741-2.248-1.566-4.566-3.358-6.869-5.3-2.3,1.946-4.62,3.739-6.869,5.3C429.841,162.378,432.514,167.509,435.074,167.509Zm-22.906-9.488c1.812,1.811,7.329.074,14.572-4.857-.482-2.7-.853-5.6-1.106-8.609-3-.253-5.911-.623-8.608-1.106C412.1,150.693,410.358,156.211,412.168,158.021Zm4.252-16.037c1.565-2.248,3.359-4.566,5.3-6.869-1.946-2.3-3.739-4.621-5.3-6.869-8.609,1.636-13.739,4.309-13.739,6.869S407.81,140.348,416.42,141.984Z" transform="translate(-401.292 -101.333)" fill="#7dd3e9"/>
          <ellipse id="Elipse_8453" data-name="Elipse 8453" cx="2.777" cy="2.777" rx="2.777" ry="2.777" transform="translate(44.946 9.227)" fill="#5fa5cc"/>
          <ellipse id="Elipse_8454" data-name="Elipse 8454" cx="2.082" cy="2.082" rx="2.082" ry="2.082" transform="translate(26.204 5.582)" fill="#5fa5cc"/>
          <ellipse id="Elipse_8455" data-name="Elipse 8455" cx="3.095" cy="3.095" rx="3.095" ry="3.095" transform="translate(30.687 30.687)" fill="#5fa5cc"/>
          <path id="Trazado_720133" data-name="Trazado 720133" d="M422.939,180.511a3.947,3.947,0,1,0,3.947-3.947A3.947,3.947,0,0,0,422.939,180.511Z" transform="translate(-378.296 -124.343)" fill="#5fa5cc"/>
          <path id="Trazado_720134" data-name="Trazado 720134" d="M485.375,156.729a2.27,2.27,0,1,0,2.271-2.271A2.27,2.27,0,0,0,485.375,156.729Z" transform="translate(-480.718 -117.581)" fill="#5fa5cc"/>
        </g>
        <g id="Grupo_1018625" data-name="Grupo 1018625" transform="translate(36.468 84.267)">
          <path id="Trazado_720135" data-name="Trazado 720135" d="M445.428,228.875a1.039,1.039,0,0,0,.736-.305l21.6-21.6a1.041,1.041,0,0,0-1.472-1.472l-21.6,21.6a1.042,1.042,0,0,0,.736,1.778Z" transform="translate(-444.387 -205.196)" fill="#7dd3e9"/>
        </g>
        <g id="Grupo_1018626" data-name="Grupo 1018626" transform="translate(12.641 73.418)">
          <path id="Trazado_720136" data-name="Trazado 720136" d="M497.056,196a1.04,1.04,0,0,0,.43-.093l9.586-4.354a1.041,1.041,0,1,0-.861-1.9l-9.585,4.354a1.041,1.041,0,0,0,.431,1.989Z" transform="translate(-496.014 -189.567)" fill="#7dd3e9"/>
        </g>
        <g id="Grupo_1018627" data-name="Grupo 1018627" transform="translate(0 107.412)">
          <rect id="Rectángulo_348339" data-name="Rectángulo 348339" width="20.94" height="1.851" fill="#fff"/>
          <rect id="Rectángulo_348340" data-name="Rectángulo 348340" width="20.94" height="1.851" transform="translate(0 3.529)" fill="#fff"/>
          <rect id="Rectángulo_348341" data-name="Rectángulo 348341" width="12.148" height="1.851" transform="translate(8.793 7.057)" fill="#fff"/>
        </g>
        <ellipse id="Elipse_8456" data-name="Elipse 8456" cx="6.826" cy="6.826" rx="6.826" ry="6.826" transform="translate(25.856 104.906)" fill="#fff"/>
        <circle id="Elipse_8457" data-name="Elipse 8457" cx="4.383" cy="4.383" r="4.383" transform="matrix(-0.937, -0.35, 0.35, -0.937, 12.262, 86.267)" fill="#fff"/>
      </g>
      <g id="Grupo_1018629" data-name="Grupo 1018629" transform="translate(45.348 16.236)">
        <ellipse id="Elipse_8458" data-name="Elipse 8458" cx="5.416" cy="5.416" rx="5.416" ry="5.416" transform="translate(113.239 28.329)" fill="#7dd3e9"/>
        <ellipse id="Elipse_8459" data-name="Elipse 8459" cx="2.262" cy="2.262" rx="2.262" ry="2.262" transform="translate(93.837 10.475)" fill="#5fa5cc"/>
        <ellipse id="Elipse_8460" data-name="Elipse 8460" cx="3.809" cy="3.809" rx="3.809" ry="3.809" transform="translate(56.74)" fill="#7dd3e9"/>
        <ellipse id="Elipse_8461" data-name="Elipse 8461" cx="6.249" cy="6.249" rx="6.249" ry="6.249" transform="translate(0 27.377)" fill="#5fa5cc"/>
        <ellipse id="Elipse_8462" data-name="Elipse 8462" cx="3.409" cy="3.409" rx="3.409" ry="3.409" transform="translate(1.319 53.796)" fill="#7dd3e9"/>
        <ellipse id="Elipse_8463" data-name="Elipse 8463" cx="1.557" cy="1.557" rx="1.557" ry="1.557" transform="translate(27.518 13.569)" fill="#7dd3e9"/>
        <ellipse id="Elipse_8464" data-name="Elipse 8464" cx="5.475" cy="5.475" rx="5.475" ry="5.475" transform="translate(121.69 103.957)" fill="#7dd3e9"/>
        <path id="Trazado_720137" data-name="Trazado 720137" d="M382.667,166.838a2.7,2.7,0,1,0,2.7-2.7A2.7,2.7,0,0,0,382.667,166.838Z" transform="translate(-259.628 -74.973)" fill="#5fa5cc"/>
        <ellipse id="Elipse_8465" data-name="Elipse 8465" cx="3.007" cy="3.007" rx="3.007" ry="3.007" transform="translate(104.685 117.252)" fill="#5fa5cc"/>
      </g>
    </g>
  </g>
</svg>
