<svg xmlns="http://www.w3.org/2000/svg" xmlns:xlink="http://www.w3.org/1999/xlink" width="400" height="407.5" viewBox="0 0 400 407.5">
  <defs>
    <clipPath id="clip-path">
      <rect id="Rectángulo_33841" data-name="Rectángulo 33841" width="353.874" height="295.116" fill="none"/>
    </clipPath>
  </defs>
  <g id="Grupo_1018699" data-name="Grupo 1018699" transform="translate(-180 -3801)">
    <g id="Grupo_1009020" data-name="Grupo 1009020" transform="translate(180 3801)">
      <path id="Trazado_113636" data-name="Trazado 113636" d="M291.508,294.772A145.754,145.754,0,1,1,145.754,149.018,145.754,145.754,0,0,1,291.508,294.772" transform="translate(0 -149.018)" fill="#0078bb"/>
      <path id="Trazado_113637" data-name="Trazado 113637" d="M1199.467,544.095A105.615,105.615,0,1,1,1093.853,438.48a105.615,105.615,0,0,1,105.615,105.615" transform="translate(-820.505 -358.201)" fill="#008b8a"/>
      <path id="Trazado_113638" data-name="Trazado 113638" d="M1232.906,598.359a84.79,84.79,0,1,1-84.79-84.79,84.79,84.79,0,0,1,84.79,84.79" transform="translate(-874.769 -412.465)" fill="#fff"/>
      <path id="Trazado_113665" data-name="Trazado 113665" d="M129.99,381.385a3.257,3.257,0,1,1-3.257-3.257,3.257,3.257,0,0,1,3.257,3.257" transform="translate(-89.231 -314.587)" fill="#fff"/>
      <path id="Trazado_113666" data-name="Trazado 113666" d="M181.665,381.385a3.257,3.257,0,1,1-3.257-3.257,3.257,3.257,0,0,1,3.257,3.257" transform="translate(-126.575 -314.587)" fill="#fff"/>
      <path id="Trazado_113667" data-name="Trazado 113667" d="M233.34,381.385a3.257,3.257,0,1,1-3.257-3.257,3.257,3.257,0,0,1,3.257,3.257" transform="translate(-163.918 -314.587)" fill="#fff"/>
      <path id="Trazado_113668" data-name="Trazado 113668" d="M285.016,381.385a3.257,3.257,0,1,1-3.257-3.257,3.257,3.257,0,0,1,3.257,3.257" transform="translate(-201.262 -314.587)" fill="#fff"/>
      <path id="Trazado_113669" data-name="Trazado 113669" d="M336.69,381.385a3.257,3.257,0,1,1-3.257-3.257,3.257,3.257,0,0,1,3.257,3.257" transform="translate(-238.605 -314.587)" fill="#fff"/>
      <path id="Trazado_113670" data-name="Trazado 113670" d="M129.99,430.711a3.257,3.257,0,1,1-3.257-3.257,3.257,3.257,0,0,1,3.257,3.257" transform="translate(-89.231 -350.233)" fill="#fff"/>
      <path id="Trazado_113671" data-name="Trazado 113671" d="M181.665,430.711a3.257,3.257,0,1,1-3.257-3.257,3.257,3.257,0,0,1,3.257,3.257" transform="translate(-126.575 -350.233)" fill="#fff"/>
      <path id="Trazado_113672" data-name="Trazado 113672" d="M233.34,430.711a3.257,3.257,0,1,1-3.257-3.257,3.257,3.257,0,0,1,3.257,3.257" transform="translate(-163.918 -350.233)" fill="#fff"/>
      <path id="Trazado_113673" data-name="Trazado 113673" d="M285.016,430.711a3.257,3.257,0,1,1-3.257-3.257,3.257,3.257,0,0,1,3.257,3.257" transform="translate(-201.262 -350.233)" fill="#fff"/>
      <path id="Trazado_113674" data-name="Trazado 113674" d="M336.69,430.711a3.257,3.257,0,1,1-3.257-3.257,3.257,3.257,0,0,1,3.257,3.257" transform="translate(-238.605 -350.233)" fill="#fff"/>
      <path id="Trazado_113675" data-name="Trazado 113675" d="M129.99,480.038a3.257,3.257,0,1,1-3.257-3.257,3.257,3.257,0,0,1,3.257,3.257" transform="translate(-89.231 -385.88)" fill="#fff"/>
      <path id="Trazado_113676" data-name="Trazado 113676" d="M181.665,480.038a3.257,3.257,0,1,1-3.257-3.257,3.257,3.257,0,0,1,3.257,3.257" transform="translate(-126.575 -385.88)" fill="#fff"/>
      <path id="Trazado_113677" data-name="Trazado 113677" d="M233.34,480.038a3.257,3.257,0,1,1-3.257-3.257,3.257,3.257,0,0,1,3.257,3.257" transform="translate(-163.918 -385.88)" fill="#fff"/>
      <path id="Trazado_113678" data-name="Trazado 113678" d="M285.016,480.038a3.257,3.257,0,1,1-3.257-3.257,3.257,3.257,0,0,1,3.257,3.257" transform="translate(-201.262 -385.88)" fill="#fff"/>
      <path id="Trazado_113679" data-name="Trazado 113679" d="M336.69,480.038a3.257,3.257,0,1,1-3.257-3.257,3.257,3.257,0,0,1,3.257,3.257" transform="translate(-238.605 -385.88)" fill="#fff"/>
      <path id="Trazado_113680" data-name="Trazado 113680" d="M129.99,529.364a3.257,3.257,0,1,1-3.257-3.257,3.257,3.257,0,0,1,3.257,3.257" transform="translate(-89.231 -421.526)" fill="#fff"/>
      <path id="Trazado_113681" data-name="Trazado 113681" d="M181.665,529.364a3.257,3.257,0,1,1-3.257-3.257,3.257,3.257,0,0,1,3.257,3.257" transform="translate(-126.575 -421.526)" fill="#fff"/>
      <path id="Trazado_113682" data-name="Trazado 113682" d="M233.34,529.364a3.257,3.257,0,1,1-3.257-3.257,3.257,3.257,0,0,1,3.257,3.257" transform="translate(-163.918 -421.526)" fill="#fff"/>
      <path id="Trazado_113683" data-name="Trazado 113683" d="M285.016,529.364a3.257,3.257,0,1,1-3.257-3.257,3.257,3.257,0,0,1,3.257,3.257" transform="translate(-201.262 -421.526)" fill="#fff"/>
      <path id="Trazado_113684" data-name="Trazado 113684" d="M336.69,529.364a3.257,3.257,0,1,1-3.257-3.257,3.257,3.257,0,0,1,3.257,3.257" transform="translate(-238.605 -421.526)" fill="#fff"/>
      <path id="Trazado_113685" data-name="Trazado 113685" d="M129.99,578.69a3.257,3.257,0,1,1-3.257-3.257,3.257,3.257,0,0,1,3.257,3.257" transform="translate(-89.231 -457.172)" fill="#fff"/>
      <path id="Trazado_113686" data-name="Trazado 113686" d="M181.665,578.69a3.257,3.257,0,1,1-3.257-3.257,3.257,3.257,0,0,1,3.257,3.257" transform="translate(-126.575 -457.172)" fill="#fff"/>
      <path id="Trazado_113687" data-name="Trazado 113687" d="M233.34,578.69a3.257,3.257,0,1,1-3.257-3.257,3.257,3.257,0,0,1,3.257,3.257" transform="translate(-163.918 -457.172)" fill="#fff"/>
      <path id="Trazado_113688" data-name="Trazado 113688" d="M285.016,578.69a3.257,3.257,0,1,1-3.257-3.257,3.257,3.257,0,0,1,3.257,3.257" transform="translate(-201.262 -457.172)" fill="#fff"/>
      <path id="Trazado_113689" data-name="Trazado 113689" d="M336.69,578.69a3.257,3.257,0,1,1-3.257-3.257,3.257,3.257,0,0,1,3.257,3.257" transform="translate(-238.605 -457.172)" fill="#fff"/>
      <g id="Grupo_1002336" data-name="Grupo 1002336" transform="translate(39.426 9.84)" opacity="0.251">
        <g id="Grupo_80323" data-name="Grupo 80323" clip-path="url(#clip-path)">
          <path id="Trazado_113615" data-name="Trazado 113615" d="M226.121,290.472c-3.342-.259-6.753-.407-10.246-.38-18.481.14-36.557,5.21-55.153,5.014-39.4-.415-79.95-4.578-114-30.306C-28.722,207.8-3.993,85.7,58.547,35.57,91.779,8.934,133.171.789,172.828.036c51.05-.97,116.53,15.493,153.107,59.309C351.418,89.872,357.754,161,351.8,201.3c-4.742,32.079-22.538,62.33-45.019,79.938-28.036,21.96-51.807,11.469-80.657,9.237" transform="translate(0 0.004)" fill="#e0f4fe"/>
        </g>
      </g>
    </g>
    <g id="Grupo_1018698" data-name="Grupo 1018698" transform="translate(180 3932.948)">
      <g id="Grupo_1018635" data-name="Grupo 1018635" transform="translate(144.362 117.062)">
        <path id="Trazado_720146" data-name="Trazado 720146" d="M225.39,245.08,258.81,328.9l70.121,15.116-12.176,34.011L251.81,365.927a34.555,34.555,0,0,1-25.6-20.75l-28.678-69.25Z" transform="translate(-197.532 -245.08)" fill="#c7d2d7"/>
        <path id="Trazado_720147" data-name="Trazado 720147" d="M288.471,245.08l33.42,83.815,23.481,5.062-15.479,20.116a35.249,35.249,0,0,1-15.958,11.645,34.541,34.541,0,0,1-24.644-20.541l-28.678-69.25Z" transform="translate(-260.613 -245.08)" fill="#99a3b0"/>
      </g>
      <g id="Grupo_1018644" data-name="Grupo 1018644" transform="translate(226.174 80.408)">
        <rect id="Rectángulo_348344" data-name="Rectángulo 348344" width="118.053" height="12.816" transform="translate(0.074 160.971)" fill="#3a385f"/>
        <g id="Grupo_1018636" data-name="Grupo 1018636" transform="translate(46.161 22.708)">
          <path id="Trazado_720148" data-name="Trazado 720148" d="M93.119,244.03h27.108a32.689,32.689,0,0,1,32.689,32.689v22.786a32.689,32.689,0,0,1-32.689,32.689H109.612v17.991h11.8a48.265,48.265,0,0,0,48.265-48.265V274.483a48.265,48.265,0,0,0-48.265-48.265H77.5Z" transform="translate(-77.5 -226.218)" fill="#dfdef2"/>
          <path id="Trazado_720149" data-name="Trazado 720149" d="M163.008,279.418v25.814a37.034,37.034,0,0,1-37.034,37.034h-12.21v-5.859h10.614a32.689,32.689,0,0,0,32.689-32.689V280.933a32.689,32.689,0,0,0-32.689-32.689H97.271l-5.138-5.86h33.841A37.034,37.034,0,0,1,163.008,279.418Z" transform="translate(-81.652 -230.431)" fill="#bcbaea"/>
        </g>
        <g id="Grupo_1018639" data-name="Grupo 1018639" transform="translate(0 0)">
          <g id="Grupo_1018637" data-name="Grupo 1018637">
            <rect id="Rectángulo_348345" data-name="Rectángulo 348345" width="26.063" height="58.041" transform="matrix(-0.821, 0.571, -0.571, -0.821, 57.676, 57.199)" fill="#dfdef2"/>
            <rect id="Rectángulo_348346" data-name="Rectángulo 348346" width="20.086" height="6.1" transform="translate(22.098 11.244) rotate(145.201)" fill="#3a385f"/>
            <rect id="Rectángulo_348347" data-name="Rectángulo 348347" width="20.086" height="6.1" transform="translate(58.703 63.914) rotate(145.201)" fill="#3a385f"/>
            <rect id="Rectángulo_348348" data-name="Rectángulo 348348" width="9.672" height="11.209" transform="matrix(-0.821, 0.571, -0.571, -0.821, 14.34, 9.205)" fill="#5f6094"/>
          </g>
          <g id="Grupo_1018638" data-name="Grupo 1018638" transform="translate(27.981 14.472)">
            <path id="Trazado_720150" data-name="Trazado 720150" d="M169.475,215.078l37.686,14.956a7.393,7.393,0,0,1,.291,13.621l-13.82,6.18Z" transform="translate(-169.475 -215.078)" fill="#6c6ea3"/>
            <path id="Trazado_720151" data-name="Trazado 720151" d="M175.18,242.918a4.335,4.335,0,1,0,4.335-4.335A4.335,4.335,0,0,0,175.18,242.918Z" transform="translate(-145.715 -221.204)" fill="#3a385f"/>
          </g>
          <path id="Trazado_720152" data-name="Trazado 720152" d="M215.525,253.356l-21.871-31.469-7.061,4.907,33.124,47.66,21.4-14.874-2.1-3.018-4.488,2.034A15.4,15.4,0,0,1,215.525,253.356Z" transform="translate(-183.443 -202.381)" fill="#bcbaea"/>
        </g>
        <g id="Grupo_1018642" data-name="Grupo 1018642" transform="translate(19.037 88.019)">
          <rect id="Rectángulo_348349" data-name="Rectángulo 348349" width="74.608" height="7.332" transform="translate(0 29.452)" fill="#3a385f"/>
          <g id="Grupo_1018640" data-name="Grupo 1018640" transform="translate(3.016)">
            <rect id="Rectángulo_348350" data-name="Rectángulo 348350" width="68.577" height="4.991" fill="#3a385f"/>
            <rect id="Rectángulo_348351" data-name="Rectángulo 348351" width="60.313" height="8.189" transform="translate(4.132 4.991)" fill="#5f6094"/>
            <rect id="Rectángulo_348352" data-name="Rectángulo 348352" width="50.799" height="5.307" transform="translate(8.889 13.18)" fill="#3a385f"/>
          </g>
          <g id="Grupo_1018641" data-name="Grupo 1018641" transform="translate(11.905 5.221)">
            <path id="Trazado_720153" data-name="Trazado 720153" d="M189.017,349.293h18.062a5.915,5.915,0,0,0,5.915-5.915V325.316a3.7,3.7,0,0,0-6.311-2.614L186.4,342.982A3.7,3.7,0,0,0,189.017,349.293Z" transform="translate(-185.313 -321.612)" fill="#dfdef2"/>
            <ellipse id="Elipse_8466" data-name="Elipse 8466" cx="4.806" cy="4.806" rx="4.806" ry="4.806" transform="translate(13.84 14.619)" fill="#3a385f"/>
          </g>
        </g>
        <g id="Grupo_1018643" data-name="Grupo 1018643" transform="translate(28.416 116.082)">
          <path id="Trazado_720154" data-name="Trazado 720154" d="M166.072,400.6h35.2a7.321,7.321,0,0,0,7.321-7.321V359.842a7.322,7.322,0,0,0-12.364-5.309l-35.2,33.435A7.321,7.321,0,0,0,166.072,400.6Z" transform="translate(-158.735 -352.506)" fill="#5f6094"/>
          <ellipse id="Elipse_8467" data-name="Elipse 8467" cx="11.195" cy="11.195" rx="11.195" ry="11.195" transform="translate(40.009 46.934) rotate(-158.207)" fill="#3a385f"/>
          <ellipse id="Elipse_8468" data-name="Elipse 8468" cx="8.336" cy="8.336" rx="8.336" ry="8.336" transform="translate(27.536 42.39) rotate(-103.08)" fill="#bcbaea"/>
        </g>
      </g>
      <path id="Trazado_720225" data-name="Trazado 720225" d="M0,0H400V21.358H0Z" transform="translate(0 254.194)" fill="#3076b6"/>
      <g id="Grupo_1018648" data-name="Grupo 1018648" transform="translate(339.37 76.319)">
        <rect id="Rectángulo_348354" data-name="Rectángulo 348354" width="22.736" height="6.593" rx="3.296" transform="translate(17.007 111.948)" fill="#cfcdf2"/>
        <path id="Trazado_720155" data-name="Trazado 720155" d="M36.149,397.67l15.712-22.1a15.421,15.421,0,0,0,2.852-8.934V350.3H71.533v16.335a15.421,15.421,0,0,0,2.852,8.934L90.1,397.67a7.576,7.576,0,0,1-6.174,11.965h-41.6a7.576,7.576,0,0,1-6.174-11.965Z" transform="translate(-34.748 -231.76)" fill="#cfcdf1"/>
        <g id="Grupo_1018645" data-name="Grupo 1018645" transform="translate(2.954 152.035)">
          <path id="Trazado_720156" data-name="Trazado 720156" d="M87.019,397.862c-1.153.43-2.3.887-3.442,1.332-3.423,1.332-6.989,2.563-10.661,2.471A15.393,15.393,0,0,1,65,399.172C71.315,393.641,80.84,395.634,87.019,397.862Z" transform="translate(-55.587 -395.602)" fill="#52969e"/>
          <path id="Trazado_720157" data-name="Trazado 720157" d="M39.6,411.305,48.136,399.3l.015-.013a15.393,15.393,0,0,0,7.922,2.494c3.672.092,7.238-1.139,10.661-2.471,1.143-.445,2.288-.9,3.442-1.332a29.916,29.916,0,0,1,7.064-1.876q.318-.036.638-.058l10.85,15.262a4.619,4.619,0,0,1-3.764,7.295h-41.6a4.619,4.619,0,0,1-3.764-7.295Z" transform="translate(-38.742 -395.717)" fill="#87d38c"/>
        </g>
        <rect id="Rectángulo_348355" data-name="Rectángulo 348355" width="16.821" height="3.882" transform="translate(19.965 118.541)" fill="#888ac6"/>
        <g id="Grupo_1018646" data-name="Grupo 1018646" transform="translate(7.95 118.541)">
          <path id="Trazado_720158" data-name="Trazado 720158" d="M52.295,407.417a17.625,17.625,0,0,0,.313-9.746l-6.016-22.1a34.867,34.867,0,0,1-1.092-8.934V350.3h2.834v16.335a19.784,19.784,0,0,0,2.053,8.934L61.7,397.67a9.879,9.879,0,0,1-.589,9.746,4.833,4.833,0,0,1-3.857,2.219H50.244C51.013,409.636,51.751,408.837,52.295,407.417Z" transform="translate(-21.855 -350.301)" fill="#fff" opacity="0.5"/>
          <path id="Trazado_720159" data-name="Trazado 720159" d="M80.151,397.67l11.309-22.1a19.784,19.784,0,0,0,2.053-8.934V350.3h1.605v16.335a25.84,25.84,0,0,1-1.508,8.934L85.3,397.67a13.006,13.006,0,0,0,.433,9.746c.751,1.42,1.771,2.219,2.833,2.219H84.6a4.833,4.833,0,0,1-3.857-2.219A9.879,9.879,0,0,1,80.151,397.67Z" transform="translate(-79.142 -350.301)" fill="#fff" opacity="0.5"/>
        </g>
        <g id="Grupo_1018647" data-name="Grupo 1018647" transform="translate(4.71)">
          <path id="Trazado_720160" data-name="Trazado 720160" d="M64.169,221.519h0a23.452,23.452,0,0,1-22.257,23.575c-.07-2.277-.144-4.381-.221-6.271A23.459,23.459,0,0,1,64.169,221.519Z" transform="translate(-17.263 -198.196)" fill="#90b56a"/>
          <path id="Trazado_720161" data-name="Trazado 720161" d="M63.56,250.568h0a23.452,23.452,0,0,1-21.931,23.556c-.039-2.631-.082-5.176-.129-7.622A23.457,23.457,0,0,1,63.56,250.568Z" transform="translate(-16.512 -205.767)" fill="#638574"/>
          <path id="Trazado_720162" data-name="Trazado 720162" d="M41.308,295.129a23.461,23.461,0,0,1,21.919-15.512h0a23.451,23.451,0,0,1-21.868,23.55c-.007-1.457-.015-2.925-.024-4.412C41.328,297.536,41.318,296.33,41.308,295.129Z" transform="translate(-16.039 -213.338)" fill="#90b56a"/>
          <path id="Trazado_720163" data-name="Trazado 720163" d="M63.142,308.665a23.453,23.453,0,0,1-22.026,23.564c.017-2.507.029-5.125.035-7.837A23.459,23.459,0,0,1,63.142,308.665Z" transform="translate(-15.811 -220.909)" fill="#638574"/>
          <path id="Trazado_720164" data-name="Trazado 720164" d="M74.425,221.938h0a23.458,23.458,0,0,1,22.7,17.006c-.052,1.891-.1,3.995-.138,6.272A23.452,23.452,0,0,1,74.425,221.938Z" transform="translate(-74.425 -198.305)" fill="#638574"/>
          <path id="Trazado_720165" data-name="Trazado 720165" d="M74.822,250.987h0A23.457,23.457,0,0,1,97.09,266.627c-.015,2.447-.024,4.992-.028,7.624A23.452,23.452,0,0,1,74.822,250.987Z" transform="translate(-74.68 -205.876)" fill="#90b56a"/>
          <path id="Trazado_720166" data-name="Trazado 720166" d="M96.931,303.295a23.45,23.45,0,0,1-22.177-23.26h0a23.461,23.461,0,0,1,22.122,15.222c.007,1.2.013,2.407.021,3.627C96.907,300.37,96.918,301.837,96.931,303.295Z" transform="translate(-74.47 -213.447)" fill="#638574"/>
          <path id="Trazado_720167" data-name="Trazado 720167" d="M74.349,309.084h0a23.459,23.459,0,0,1,22.2,15.434c.041,2.712.088,5.329.138,7.837A23.454,23.454,0,0,1,74.349,309.084Z" transform="translate(-73.924 -221.018)" fill="#90b56a"/>
          <path id="Trazado_720168" data-name="Trazado 720168" d="M71.138,219.362c-.17,0-.325,1.161-.462,3.275a23.448,23.448,0,0,1,.268-32.662h0a23.448,23.448,0,0,1,.7,32.655C71.479,220.518,71.308,219.361,71.138,219.362Z" transform="translate(-47.646 -189.975)" fill="#638574"/>
          <path id="Trazado_720169" data-name="Trazado 720169" d="M71.072,355.551h2.155c-.1,6.328-.245,19.593-.426,30.416q-.551-.126-1.113-.237C71.465,374.952,71.255,361.834,71.072,355.551Z" transform="translate(-48.044 -233.129)" fill="#888ac6"/>
          <path id="Trazado_720170" data-name="Trazado 720170" d="M71.733,400.323c-.029-1.269-.057-2.594-.085-3.956q.563.111,1.113.237c-.019,1.156-.038,2.282-.058,3.37Q72.22,400.153,71.733,400.323Z" transform="translate(-48.004 -243.766)" fill="#456179"/>
          <path id="Trazado_720171" data-name="Trazado 720171" d="M72.23,414.41c-.169,0-.339-5.47-.5-12.816q.487-.17.97-.349C72.559,408.765,72.4,414.41,72.23,414.41Z" transform="translate(-47.998 -245.038)" fill="#52969e"/>
          <path id="Trazado_720172" data-name="Trazado 720172" d="M71.235,311.671c-.05-2.507-.1-5.125-.138-7.837-.067-4.336-.121-8.91-.162-13.653-.013-1.457-.024-2.925-.034-4.411-.007-1.22-.014-2.427-.021-3.627-.023-4.656-.03-9.157-.024-13.435,0-2.631.013-5.177.028-7.624.031-5.1.084-9.758.155-13.84.041-2.277.087-4.382.138-6.272.092-3.357.2-6.061.326-7.977.137-2.114.292-3.273.462-3.275s.34,1.156.5,3.268c.15,1.915.3,4.617.431,7.972.077,1.89.151,3.993.221,6.271.126,4.081.24,8.737.338,13.837.047,2.446.09,4.991.129,7.622.063,4.278.115,8.779.153,13.434.01,1.2.019,2.407.027,3.627.01,1.487.018,2.954.024,4.412.021,4.742.027,9.316.018,13.653-.006,2.712-.018,5.33-.035,7.837,0,.211,0,.418,0,.628H71.247C71.244,312.077,71.239,311.876,71.235,311.671Z" transform="translate(-48.475 -200.334)" fill="#456179"/>
          <path id="Trazado_720173" data-name="Trazado 720173" d="M71,350.3h2.314c-.017,1.34-.035,2.637-.055,3.882H71.1C71.067,352.938,71.031,351.641,71,350.3Z" transform="translate(-48.075 -231.76)" fill="#5f6094"/>
          <path id="Trazado_720174" data-name="Trazado 720174" d="M70.913,341.384h2.528q-.024,3.449-.063,6.593H71.064Q70.984,344.838,70.913,341.384Z" transform="translate(-48.14 -229.436)" fill="#888ac6"/>
        </g>
      </g>
      <g id="Grupo_1018673" data-name="Grupo 1018673" transform="translate(59.889 0)">
        <g id="Grupo_1018649" data-name="Grupo 1018649" transform="translate(93.544 78.756)">
          <path id="Trazado_720175" data-name="Trazado 720175" d="M353.3,203.006a32.694,32.694,0,0,0-6.521,7.778L325.833,193.72l10.993-13.535Z" transform="translate(-325.833 -180.185)" fill="#f2c9ad"/>
          <path id="Trazado_720176" data-name="Trazado 720176" d="M326.989,192.265a51.207,51.207,0,0,1-1.156-9.409L340.881,203.7a27.9,27.9,0,0,0-4.775,5.174C331.407,204.594,328.4,198.52,326.989,192.265Z" transform="translate(-313.415 -180.881)" fill="#422c4f"/>
        </g>
        <g id="Grupo_1018657" data-name="Grupo 1018657" transform="translate(70.434 0)">
          <g id="Grupo_1018650" data-name="Grupo 1018650">
            <ellipse id="Elipse_8469" data-name="Elipse 8469" cx="20.949" cy="20.949" rx="20.949" ry="20.949" fill="#654059"/>
            <path id="Trazado_720177" data-name="Trazado 720177" d="M362.166,89.387a20.948,20.948,0,0,1-24.594,24.62,29.652,29.652,0,0,1,24.594-24.62Z" transform="translate(-320.666 -72.503)" fill="#422c4f"/>
          </g>
          <path id="Trazado_720178" data-name="Trazado 720178" d="M322.5,141.093c6.145-3.654,12.777-7.911,14.841-14.755a14.461,14.461,0,0,0-15.051-18.585c-7.111-11.041-19.142-18.474-32.274-18.592a40.539,40.539,0,0,0-33.432,17.656c-5.252,7.843-7.577,17.78-5.508,26.988s8.77,17.44,17.671,20.579c-1.531,2.557.123,7.3,2.735,8.741s5.948.992,8.548-.465a21.375,21.375,0,0,0,6.365-6.182,72.437,72.437,0,0,0,8.364-14.491C303.6,142.565,314.879,145.624,322.5,141.093Z" transform="translate(-231.523 -72.444)" fill="#654059"/>
          <path id="Trazado_720179" data-name="Trazado 720179" d="M279.287,161.5a19.165,19.165,0,0,0,10.526-6.333,19.8,19.8,0,0,0,4.677-11.583,41.15,41.15,0,0,0,32.216-1.5c.618,4.389.2,9.4-.2,13.539a68.662,68.662,0,0,1-3.837,16.888,66.625,66.625,0,0,1-9.1,16.931,31.99,31.99,0,0,1-7.372,7.507,15.732,15.732,0,0,1-9.935,2.966c-5.3-.415-9.684-4.091-13.677-7.593-5.693-4.993-11.561-10.222-14.576-17.168-.31-.713-.581-1.437-.827-2.17a18.3,18.3,0,0,0,3.845-.971C275.406,170.363,279.309,166.182,279.287,161.5Z" transform="translate(-233.079 -86.239)" fill="#f2c9ad"/>
          <g id="Grupo_1018651" data-name="Grupo 1018651" transform="translate(71.546 63.349)">
            <path id="Trazado_720180" data-name="Trazado 720180" d="M287.139,152.339c2.692.521,4.722,2.828,5.686,5.967l-13.187-2.552C281.7,153.2,284.445,151.818,287.139,152.339Z" transform="translate(-279.637 -152.23)" fill="#654059"/>
          </g>
          <ellipse id="Elipse_8470" data-name="Elipse 8470" cx="2.819" cy="2.819" rx="2.819" ry="2.819" transform="translate(73.651 73.475)" fill="#422c4f"/>
          <g id="Grupo_1018655" data-name="Grupo 1018655" transform="translate(33.188 76.589)">
            <g id="Grupo_1018652" data-name="Grupo 1018652" transform="translate(5.406)">
              <path id="Trazado_720181" data-name="Trazado 720181" d="M335.987,181.231l.992-1.983a51.038,51.038,0,0,1-12.81-9.111l-1.548,1.588A53.248,53.248,0,0,0,335.987,181.231Z" transform="translate(-322.621 -170.137)" fill="#bbe3fb"/>
            </g>
            <g id="Grupo_1018653" data-name="Grupo 1018653" transform="translate(0 8.458)">
              <path id="Trazado_720182" data-name="Trazado 720182" d="M343.324,196.642l1.163-1.89a31.333,31.333,0,0,1-11.8-13.176l-2.005.946A33.58,33.58,0,0,0,343.324,196.642Z" transform="translate(-330.687 -181.576)" fill="#bbe3fb"/>
            </g>
            <g id="Grupo_1018654" data-name="Grupo 1018654" transform="translate(9.553 5.597)">
              <path id="Trazado_720183" data-name="Trazado 720183" d="M270.722,179.539c.241-.61.486-1.225.725-1.832,12.828,1.9,26.7,1.518,39.667,1.518a16.051,16.051,0,0,1,.854,2.749A169.089,169.089,0,0,1,270.722,179.539Z" transform="translate(-263.384 -177.707)" fill="#bbe3fb"/>
              <path id="Trazado_720184" data-name="Trazado 720184" d="M277.574,180.185a169.089,169.089,0,0,0,41.247,2.435,15.62,15.62,0,0,1-1.508,10.757,42.227,42.227,0,0,1-8.47,11.372c-5.323,4.789-12.631,7.8-19.684,6.563a24.906,24.906,0,0,1-10.413-4.812,74.313,74.313,0,0,1-8.508-7.833C272.636,192.567,275.152,186.314,277.574,180.185Z" transform="translate(-270.236 -178.353)" fill="#bbe3fb"/>
            </g>
          </g>
          <g id="Grupo_1018656" data-name="Grupo 1018656" transform="translate(24.727 66.386)">
            <path id="Trazado_720185" data-name="Trazado 720185" d="M354.725,169.591a13.4,13.4,0,0,0-3.179-9.077,10.778,10.778,0,0,0-6.714-4.12,6.5,6.5,0,0,0-6.727,3.387,9.015,9.015,0,0,0-.328,5.079,17.96,17.96,0,0,0,3.492,8.644c1.843,2.258,5.377,4.478,8.455,4.027C352.823,177.078,354.574,172.222,354.725,169.591Z" transform="translate(-337.572 -156.339)" fill="#f2c9ad"/>
            <path id="Trazado_720186" data-name="Trazado 720186" d="M343.924,162.811A9.122,9.122,0,0,1,351.1,172.7a3.042,3.042,0,0,1-1.207,2.4c-1.126.663-2.614-.1-3.363-1.174A4.955,4.955,0,0,1,347.777,167,17.552,17.552,0,0,0,343.924,162.811Z" transform="translate(-338.673 -158.026)" fill="#eba58e"/>
          </g>
        </g>
        <path id="Trazado_720187" data-name="Trazado 720187" d="M338.451,197.051l25.185,20.518-5.961,17.56-26.987-29.205Z" transform="translate(-246.214 -106.801)" fill="#d1faf5"/>
        <g id="Grupo_1018658" data-name="Grupo 1018658" transform="translate(112.331 112.806)">
          <path id="Trazado_720188" data-name="Trazado 720188" d="M326.742,228.662l6.933,4.971L322.621,240.8Z" transform="translate(-322.621 -228.662)" fill="#bcf0eb"/>
          <path id="Trazado_720189" data-name="Trazado 720189" d="M330.6,235.384l-4.1,10.351-3.88-5.176Z" transform="translate(-319.548 -230.414)" fill="#93e3ef"/>
        </g>
        <g id="Grupo_1018664" data-name="Grupo 1018664" transform="translate(0 90.423)">
          <path id="Trazado_720190" data-name="Trazado 720190" d="M358.761,344.551c-8.783,27.357-9.029,63.586-9.029,63.586H322.621C325.576,383.853,340.256,360.552,358.761,344.551Z" transform="translate(-235.375 -244.366)" fill="#c7d2d7"/>
          <path id="Trazado_720191" data-name="Trazado 720191" d="M434.952,235.69l11.054,73.546c-14.328,26.248-19.363,63.586-19.363,63.586H322.621c10.394-15.731,16.448-35.044,20.715-53.41,3.818-16.436,5.03-33.5,10.453-49.483,8.3-24.452,30.1-49.557,53.306-60.878l26.987,29.205Z" transform="translate(-322.621 -209.051)" fill="#fff"/>
          <g id="Grupo_1018659" data-name="Grupo 1018659" transform="translate(66.987 35.775)">
            <path id="Trazado_720192" data-name="Trazado 720192" d="M322.621,312.977l3.509,23.345-3.509-23.345Z" transform="translate(-269.731 -271.911)" fill="#c7d2d7"/>
            <path id="Trazado_720193" data-name="Trazado 720193" d="M330,392.364l-1.3-.464a26.744,26.744,0,0,1-6.079-3.108c3-12.976,8-30.2,15.669-44.24C333.189,360.442,330.968,379.326,330,392.364Z" transform="translate(-281.892 -280.141)" fill="#99a3b0"/>
            <path id="Trazado_720194" data-name="Trazado 720194" d="M352.929,352.072l-30.308-94.636L375.51,298.5l3.509,23.345c-7.667,14.045-12.672,31.264-15.669,44.24A26.724,26.724,0,0,1,352.929,352.072Z" transform="translate(-322.621 -257.436)" fill="#c7d2d7"/>
          </g>
          <path id="Trazado_720195" data-name="Trazado 720195" d="M327.367,209.051,342.216,233.7l20.555,52.194-7.187-47.819-.358-2.382Z" transform="translate(-242.893 -209.051)" fill="#c7d2d7"/>
          <g id="Grupo_1018663" data-name="Grupo 1018663" transform="translate(30.262 71.264)">
            <g id="Grupo_1018660" data-name="Grupo 1018660" transform="translate(16.016)">
              <path id="Trazado_720196" data-name="Trazado 720196" d="M409.679,381.025A81.358,81.358,0,0,1,391.7,368.6a96.234,96.234,0,0,1-26.95-41.674,81.362,81.362,0,0,1-3.956-21.492c2.257,6.041,4.929,12.834,8.232,19.806a175.973,175.973,0,0,0,25.965,40.152C400,371.265,405.1,376.489,409.679,381.025Z" transform="translate(-360.795 -305.435)" fill="#c7d2d7"/>
            </g>
            <g id="Grupo_1018661" data-name="Grupo 1018661" transform="translate(6.676 27.454)">
              <path id="Trazado_720197" data-name="Trazado 720197" d="M424.363,392.8a61.85,61.85,0,0,1-14.167-7.471,73.361,73.361,0,0,1-23.675-27.62,61.878,61.878,0,0,1-5.218-15.143c2.319,4.121,5,8.753,8.142,13.468A139.714,139.714,0,0,0,412.3,382.7C416.478,386.517,420.645,389.879,424.363,392.8Z" transform="translate(-381.302 -342.566)" fill="#c7d2d7"/>
            </g>
            <g id="Grupo_1018662" data-name="Grupo 1018662" transform="translate(0 71.896)">
              <path id="Trazado_720198" data-name="Trazado 720198" d="M381.509,402.674c6.854,2.656,15.558,6.169,24.481,9.068,8.909,2.941,18.006,5.257,25.1,7.17a65.7,65.7,0,0,1-12.407-.63,81.361,81.361,0,0,1-26.8-8.777A65.743,65.743,0,0,1,381.509,402.674Z" transform="translate(-381.509 -402.674)" fill="#c7d2d7"/>
            </g>
          </g>
        </g>
        <g id="Grupo_1018672" data-name="Grupo 1018672" transform="translate(66.987 103.004)">
          <g id="Grupo_1018665" data-name="Grupo 1018665">
            <path id="Trazado_720199" data-name="Trazado 720199" d="M290.018,241.026l20.16,67.469,24.645-35.736,25.139,30.067-33.369,44.089a24.312,24.312,0,0,1-19.385,9.639h0a24.31,24.31,0,0,1-22.674-15.539L250.9,254.183a20.657,20.657,0,0,1,12.993-27.135h0A20.657,20.657,0,0,1,290.018,241.026Z" transform="translate(-249.5 -226.066)" fill="#fff"/>
            <path id="Trazado_720200" data-name="Trazado 720200" d="M329.535,336.84l-12.691,18.4c-.248-15.936,3.4-19.108,12.111-20.419Z" transform="translate(-268.857 -254.411)" fill="#c7d2d7"/>
          </g>
          <g id="Grupo_1018668" data-name="Grupo 1018668" transform="translate(87.665 5.462)">
            <g id="Grupo_1018666" data-name="Grupo 1018666">
              <path id="Trazado_720201" data-name="Trazado 720201" d="M208.982,270.371l17.5,17.622,2.957-9.366c8.75-.246,19.593-5.915,19.593-5.915h0a3.171,3.171,0,0,0,5.034.081l6.819-8.618a3.949,3.949,0,0,0,.138-4.716l-6.077-8.682,5.192-4.719a2.1,2.1,0,0,0,.113-3l-1.867-1.973a2.1,2.1,0,0,0-2.292-.513l-7.184,2.811,4.916-3.524a2.314,2.314,0,0,0,.413-3.383l-1.882-2.209a2.314,2.314,0,0,0-2.671-.628l-15.32,6.545a10.348,10.348,0,0,0-4.255,3.363l-15.15,20.477Z" transform="translate(-208.982 -233.454)" fill="#7dd3e9"/>
            </g>
            <path id="Trazado_720202" data-name="Trazado 720202" d="M214,282.772c4.683-3.573,9-10.721,9-10.721C221.332,279.947,217.02,283.881,214,282.772Z" transform="translate(-173.951 -243.514)" fill="#5fa5cc"/>
            <g id="Grupo_1018667" data-name="Grupo 1018667" transform="translate(7.934 32.189)">
              <path id="Trazado_720203" data-name="Trazado 720203" d="M265.733,288.5a16.46,16.46,0,0,1-10.975-11.514A73.43,73.43,0,0,1,265.733,288.5Z" transform="translate(-254.758 -276.99)" fill="#5fa5cc"/>
            </g>
          </g>
          <path id="Trazado_720204" data-name="Trazado 720204" d="M262.37,285.642l-2.714,4.181L273.349,306.2,276,299.368Z" transform="translate(-173.048 -241.594)" fill="#f2c9ad"/>
          <path id="Trazado_720205" data-name="Trazado 720205" d="M260.213,285.642l13.63,13.726-1.057,2.725L259.657,286.5Z" transform="translate(-170.89 -241.594)" fill="#422c4f"/>
          <g id="Grupo_1018671" data-name="Grupo 1018671" transform="translate(83.203 80.721)">
            <g id="Grupo_1018669" data-name="Grupo 1018669" transform="translate(7.405)">
              <path id="Trazado_720206" data-name="Trazado 720206" d="M272.856,335.689l1.194.923-.373.481a4.394,4.394,0,0,1-3.717,4.812l-.372.482-1.194-.922c-1.193-.922-1.162-2.962.07-4.557S271.663,334.768,272.856,335.689Z" transform="translate(-267.52 -335.241)" fill="#99a3b0"/>
              <path id="Trazado_720207" data-name="Trazado 720207" d="M267.281,338.155c-1.232,1.595-1.263,3.635-.069,4.557s3.159.376,4.391-1.218,1.264-3.635.07-4.557S268.514,336.561,267.281,338.155Z" transform="translate(-265.143 -335.566)" fill="#c7d2d7"/>
            </g>
            <g id="Grupo_1018670" data-name="Grupo 1018670" transform="translate(0 9.519)">
              <path id="Trazado_720208" data-name="Trazado 720208" d="M282.872,348.564l1.194.923-.372.481a4.394,4.394,0,0,1-3.717,4.812l-.373.482-1.194-.922c-1.193-.922-1.162-2.962.07-4.557S281.679,347.643,282.872,348.564Z" transform="translate(-277.536 -348.116)" fill="#99a3b0"/>
              <path id="Trazado_720209" data-name="Trazado 720209" d="M277.3,351.03c-1.232,1.595-1.264,3.635-.07,4.557s3.159.376,4.391-1.218,1.264-3.635.07-4.557S278.529,349.436,277.3,351.03Z" transform="translate(-275.159 -348.441)" fill="#c7d2d7"/>
            </g>
          </g>
        </g>
      </g>
      <g id="Grupo_1018688" data-name="Grupo 1018688" transform="translate(19.079 192.333)">
        <g id="Grupo_1018686" data-name="Grupo 1018686" transform="translate(18.968 3.173)">
          <g id="Grupo_1018676" data-name="Grupo 1018676" transform="translate(56.192)">
            <rect id="Rectángulo_348356" data-name="Rectángulo 348356" width="15.989" height="2.033" fill="#cfcdf2"/>
            <path id="Trazado_720210" data-name="Trazado 720210" d="M429.8,400.475h0a6.874,6.874,0,0,0,6.875-6.874V353.926H422.931V393.6A6.874,6.874,0,0,0,429.8,400.475Z" transform="translate(-421.811 -351.893)" fill="#cfcdf1"/>
            <path id="Trazado_720211" data-name="Trazado 720211" d="M430.588,403.6a4.661,4.661,0,0,0,4.656-4.656V374.426h-9.312v24.518A4.661,4.661,0,0,0,430.588,403.6Z" transform="translate(-422.593 -357.236)" fill="#62b29a"/>
            <g id="Grupo_1018675" data-name="Grupo 1018675" transform="translate(2.881 2.033)" opacity="0.5">
              <path id="Trazado_720212" data-name="Trazado 720212" d="M427.111,398.678V353.926h2.915v42.2a4.352,4.352,0,0,1-4.352,4.352h-.361A1.8,1.8,0,0,0,427.111,398.678Z" transform="translate(-419.799 -353.926)" fill="#fff"/>
              <g id="Grupo_1018674" data-name="Grupo 1018674">
                <path id="Trazado_720213" data-name="Trazado 720213" d="M434.181,353.926v42.846a3.7,3.7,0,0,0,2.414,3.46,1.78,1.78,0,0,0,.889.243h-.361a4.352,4.352,0,0,1-4.352-4.352v-42.2Z" transform="translate(-432.771 -353.926)" fill="#fff"/>
              </g>
            </g>
            <rect id="Rectángulo_348357" data-name="Rectángulo 348357" width="13.748" height="2.773" transform="translate(1.12 2.033)" fill="#888ac6"/>
          </g>
          <g id="Grupo_1018679" data-name="Grupo 1018679" transform="translate(37.462)">
            <rect id="Rectángulo_348358" data-name="Rectángulo 348358" width="15.989" height="2.033" fill="#cfcdf2"/>
            <path id="Rectángulo_348359" data-name="Rectángulo 348359" d="M0,0H13.748a0,0,0,0,1,0,0V39.675A6.874,6.874,0,0,1,6.874,46.55h0A6.874,6.874,0,0,1,0,39.675V0A0,0,0,0,1,0,0Z" transform="translate(1.12 2.033)" fill="#cfcdf1"/>
            <path id="Trazado_720214" data-name="Trazado 720214" d="M455.921,403.6a4.662,4.662,0,0,0,4.656-4.656V374.426h-9.312v24.518A4.661,4.661,0,0,0,455.921,403.6Z" transform="translate(-447.926 -357.236)" fill="#87d38c"/>
            <g id="Grupo_1018678" data-name="Grupo 1018678" transform="translate(2.881 2.033)" opacity="0.5">
              <path id="Trazado_720215" data-name="Trazado 720215" d="M452.443,398.678V353.926h2.915v42.2a4.352,4.352,0,0,1-4.352,4.352h-.361A1.8,1.8,0,0,0,452.443,398.678Z" transform="translate(-445.132 -353.926)" fill="#fff"/>
              <g id="Grupo_1018677" data-name="Grupo 1018677">
                <path id="Trazado_720216" data-name="Trazado 720216" d="M459.514,353.926v42.846a3.7,3.7,0,0,0,2.414,3.46,1.778,1.778,0,0,0,.889.243h-.361a4.352,4.352,0,0,1-4.352-4.352v-42.2Z" transform="translate(-458.104 -353.926)" fill="#fff"/>
              </g>
            </g>
            <rect id="Rectángulo_348360" data-name="Rectángulo 348360" width="13.748" height="2.773" transform="translate(1.12 2.033)" fill="#888ac6"/>
          </g>
          <g id="Grupo_1018682" data-name="Grupo 1018682" transform="translate(18.731)">
            <rect id="Rectángulo_348361" data-name="Rectángulo 348361" width="15.989" height="2.033" fill="#cfcdf2"/>
            <path id="Trazado_720217" data-name="Trazado 720217" d="M480.472,400.475h0a6.874,6.874,0,0,0,6.875-6.874V353.926H473.6V393.6A6.874,6.874,0,0,0,480.472,400.475Z" transform="translate(-472.478 -351.893)" fill="#cfcdf1"/>
            <path id="Trazado_720218" data-name="Trazado 720218" d="M481.254,403.6a4.661,4.661,0,0,0,4.656-4.656V374.426H476.6v24.518A4.661,4.661,0,0,0,481.254,403.6Z" transform="translate(-473.26 -357.236)" fill="#52969e"/>
            <g id="Grupo_1018681" data-name="Grupo 1018681" transform="translate(2.881 2.033)" opacity="0.5">
              <path id="Trazado_720219" data-name="Trazado 720219" d="M477.778,398.678V353.926h2.915v42.2a4.352,4.352,0,0,1-4.351,4.352h-.362A1.8,1.8,0,0,0,477.778,398.678Z" transform="translate(-470.466 -353.926)" fill="#fff"/>
              <g id="Grupo_1018680" data-name="Grupo 1018680">
                <path id="Trazado_720220" data-name="Trazado 720220" d="M484.847,353.926v42.846a3.694,3.694,0,0,0,2.415,3.46,1.776,1.776,0,0,0,.889.243h-.362a4.352,4.352,0,0,1-4.352-4.352v-42.2Z" transform="translate(-483.437 -353.926)" fill="#fff"/>
              </g>
            </g>
            <rect id="Rectángulo_348362" data-name="Rectángulo 348362" width="13.748" height="2.773" transform="translate(1.12 2.033)" fill="#888ac6"/>
          </g>
          <g id="Grupo_1018685" data-name="Grupo 1018685">
            <rect id="Rectángulo_348363" data-name="Rectángulo 348363" width="15.989" height="2.033" fill="#cfcdf2"/>
            <path id="Trazado_720221" data-name="Trazado 720221" d="M505.8,400.475h0a6.874,6.874,0,0,0,6.875-6.874V353.926H498.931V393.6A6.874,6.874,0,0,0,505.8,400.475Z" transform="translate(-497.811 -351.893)" fill="#cfcdf1"/>
            <path id="Trazado_720222" data-name="Trazado 720222" d="M506.588,403.6a4.661,4.661,0,0,0,4.656-4.656V374.426h-9.312v24.518A4.661,4.661,0,0,0,506.588,403.6Z" transform="translate(-498.593 -357.236)" fill="#62b29a"/>
            <g id="Grupo_1018684" data-name="Grupo 1018684" transform="translate(2.881 2.033)" opacity="0.5">
              <path id="Trazado_720223" data-name="Trazado 720223" d="M503.111,398.678V353.926h2.915v42.2a4.352,4.352,0,0,1-4.352,4.352h-.361A1.8,1.8,0,0,0,503.111,398.678Z" transform="translate(-495.799 -353.926)" fill="#fff"/>
              <g id="Grupo_1018683" data-name="Grupo 1018683">
                <path id="Trazado_720224" data-name="Trazado 720224" d="M510.181,353.926v42.846a3.7,3.7,0,0,0,2.414,3.46,1.78,1.78,0,0,0,.889.243h-.361a4.352,4.352,0,0,1-4.352-4.352v-42.2Z" transform="translate(-508.771 -353.926)" fill="#fff"/>
              </g>
            </g>
            <rect id="Rectángulo_348364" data-name="Rectángulo 348364" width="13.748" height="2.773" transform="translate(1.12 2.033)" fill="#888ac6"/>
          </g>
        </g>
        <rect id="Rectángulo_348365" data-name="Rectángulo 348365" width="110.117" height="4.19" transform="translate(0 57.671)" fill="#495375"/>
        <g id="Grupo_1018687" data-name="Grupo 1018687" transform="translate(9.341)">
          <rect id="Rectángulo_348366" data-name="Rectángulo 348366" width="3.204" height="57.671" transform="translate(88.232)" fill="#797c99"/>
          <rect id="Rectángulo_348367" data-name="Rectángulo 348367" width="3.204" height="57.671" fill="#797c99"/>
          <rect id="Rectángulo_348368" data-name="Rectángulo 348368" width="85.028" height="3.204" transform="translate(3.204 9.858)" fill="#495375"/>
        </g>
      </g>
    </g>
  </g>
</svg>
