<svg xmlns="http://www.w3.org/2000/svg" xmlns:xlink="http://www.w3.org/1999/xlink" width="88" height="88" viewBox="0 0 88 88">
  <defs>
    <clipPath id="clip-path">
      <rect id="Rectángulo_349313" data-name="Rectángulo 349313" width="65.166" height="65.166" fill="none"/>
    </clipPath>
  </defs>
  <g id="Grupo_997755" data-name="Grupo 997755" transform="translate(-626 -7917)">
    <path id="Trazado_710239" data-name="Trazado 710239" d="M44,0A44,44,0,1,1,0,44,44,44,0,0,1,44,0Z" transform="translate(626 7917)" fill="#d2e1f1"/>
    <g id="g2316" transform="translate(637.5 7924.5)">
      <g id="g2318" transform="translate(0 0)">
        <g id="Grupo_1024388" data-name="Grupo 1024388" transform="translate(0 0)">
          <g id="Grupo_1024387" data-name="Grupo 1024387" clip-path="url(#clip-path)">
            <g id="g2320" transform="translate(2.151 0)">
              <g id="g2326" transform="translate(8.488 0.955)">
                <path id="path2328" d="M157.193,47.864H153V24.778A14.778,14.778,0,0,0,138.223,10h-2.075A14.777,14.777,0,0,0,121.37,24.778V47.864h-4.193a5.728,5.728,0,0,0-5.728,5.728V71.985a1.273,1.273,0,0,0,1.273,1.273h48.925a1.273,1.273,0,0,0,1.273-1.273V53.592a5.727,5.727,0,0,0-5.728-5.728" transform="translate(-111.45 -10)" fill="#f3f0f3"/>
              </g>
              <g id="g2330" transform="translate(8.488 0.955)">
                <path id="path2332" d="M115.831,71.984V57.411a5.727,5.727,0,0,1,5.728-5.728h2.284a1.909,1.909,0,0,0,1.909-1.909v-25a14.779,14.779,0,0,1,13.625-14.733Q138.806,10,138.224,10h-2.075a14.778,14.778,0,0,0-14.778,14.777V47.864h-4.193a5.727,5.727,0,0,0-5.728,5.728V71.984a1.273,1.273,0,0,0,1.273,1.273h4.38a1.273,1.273,0,0,1-1.273-1.273" transform="translate(-111.451 -10)" fill="#e2dee2"/>
              </g>
              <g id="Grupo_1024386" data-name="Grupo 1024386" transform="translate(31.077 32.52)">
                <path id="path2334" d="M362.469,350.667h-4.384V381.4h4.384Z" transform="translate(-357.13 -349.712)" fill="#e2dee2"/>
                <path id="Trazado_723768" data-name="Trazado 723768" d="M354.378,373.313h-6.293V340.666h6.293Zm-4.384-1.909h2.475V342.575h-2.475Z" transform="translate(-348.085 -340.666)"/>
              </g>
              <g id="g2336" transform="translate(7.534)">
                <path id="Trazado_723769" data-name="Trazado 723769" d="M152.6,65.166H103.677a2.23,2.23,0,0,1-2.227-2.227V44.546a6.69,6.69,0,0,1,6.682-6.682h3.238V15.732A15.75,15.75,0,0,1,127.1,0h2.075A15.75,15.75,0,0,1,144.91,15.732V37.864h3.238a6.69,6.69,0,0,1,6.682,6.682v3.183a.955.955,0,1,1-1.909,0V44.546a4.778,4.778,0,0,0-4.773-4.773h-4.193a.955.955,0,0,1-.955-.955V15.732A13.839,13.839,0,0,0,129.178,1.909H127.1A13.839,13.839,0,0,0,113.28,15.732V38.819a.955.955,0,0,1-.955.955h-4.193a4.778,4.778,0,0,0-4.773,4.773V62.939a.319.319,0,0,0,.318.318H152.6a.319.319,0,0,0,.318-.318V52.184a.955.955,0,1,1,1.909,0V62.939A2.23,2.23,0,0,1,152.6,65.166Z" transform="translate(-101.45)"/>
              </g>
              <g id="g2340" transform="translate(18.409 8.021)">
                <path id="path2342" d="M228.415,115.66a13.056,13.056,0,0,1-13.041-13.041V95.761A11.745,11.745,0,0,1,227.105,84.03h8.167A11.745,11.745,0,0,1,247,95.761v6.858a13.056,13.056,0,0,1-13.041,13.041Z" transform="translate(-215.374 -84.03)" fill="#b5adb6"/>
              </g>
              <g id="g2344" transform="translate(18.409 8.021)">
                <path id="path2346" d="M220.714,102.619V95.761A11.745,11.745,0,0,1,232.446,84.03h-5.34a11.745,11.745,0,0,0-11.732,11.731v6.858a13.055,13.055,0,0,0,13.041,13.041h5.341a13.055,13.055,0,0,1-13.041-13.041" transform="translate(-215.374 -84.03)" fill="#a79ca7"/>
              </g>
              <g id="g2348" transform="translate(17.454 7.067)">
                <path id="Trazado_723770" data-name="Trazado 723770" d="M224.918,107.569h-5.549a14.011,14.011,0,0,1-14-14V86.716A12.7,12.7,0,0,1,218.06,74.03h8.167a12.7,12.7,0,0,1,12.686,12.686v6.858A14.011,14.011,0,0,1,224.918,107.569Zm-6.858-31.63a10.789,10.789,0,0,0-10.777,10.777v6.858a12.1,12.1,0,0,0,12.086,12.086h5.549A12.1,12.1,0,0,0,237,93.574V86.716a10.789,10.789,0,0,0-10.777-10.777Z" transform="translate(-205.374 -74.03)"/>
              </g>
              <g id="g2352" transform="translate(22.147 11.759)">
                <path id="path2354" d="M269.286,147.343h-5.354a9.4,9.4,0,0,1-9.4-9.4v-6.617a8.137,8.137,0,0,1,8.137-8.137h7.88a8.137,8.137,0,0,1,8.137,8.137v6.617a9.4,9.4,0,0,1-9.4,9.4" transform="translate(-254.532 -123.189)" fill="#fed2a4"/>
              </g>
              <g id="g2356" transform="translate(22.147 21.765)">
                <path id="path2358" d="M269.472,229.692l-.954-1.208a1.272,1.272,0,0,0-1-.484H265.7a1.273,1.273,0,0,0-1,.484l-.954,1.208a1.91,1.91,0,0,1-1.5.726h-7.715v2.33a9.4,9.4,0,0,0,9.4,9.4h5.353a9.4,9.4,0,0,0,9.4-9.4v-2.33h-7.715a1.909,1.909,0,0,1-1.5-.726" transform="translate(-254.532 -228)" fill="#fff"/>
              </g>
              <g id="g2360" transform="translate(23.679 11.759)">
                <path id="path2362" d="M274.545,126.576a8.125,8.125,0,0,1,6.6-3.387h-3.958a8.124,8.124,0,0,0-6.6,3.387Z" transform="translate(-270.587 -123.189)" fill="#ffbd86"/>
              </g>
              <g id="g2364" transform="translate(22.147 25.201)">
                <path id="path2366" d="M258.49,265.312V264h-3.958v1.312a9.4,9.4,0,0,0,9.4,9.4h3.958a9.4,9.4,0,0,1-9.4-9.4" transform="translate(-254.532 -264)" fill="#f3f0f3"/>
              </g>
              <g id="g2368" transform="translate(22.147 15.146)">
                <path id="path2370" d="M277.153,158.667H256.065a8.1,8.1,0,0,0-1.533,4.75v5.3h8.64l1.909-2.418h3.055l1.909,2.418h8.641v-5.3a8.1,8.1,0,0,0-1.533-4.75" transform="translate(-254.532 -158.667)" fill="#8ac9fe"/>
              </g>
              <g id="g2372" transform="translate(22.147 15.146)">
                <path id="path2374" d="M254.533,163.417v5.3h3.958v-5.3a8.1,8.1,0,0,1,1.532-4.75h-3.958a8.1,8.1,0,0,0-1.533,4.75" transform="translate(-254.533 -158.667)" fill="#60b8fe"/>
              </g>
              <g id="g2376" transform="translate(21.192 14.192)">
                <path id="Trazado_723771" data-name="Trazado 723771" d="M270.6,160.631h-8.978a2.215,2.215,0,0,1-1.748-.847l-1.145-1.45a.316.316,0,0,0-.25-.121h-1.821a.316.316,0,0,0-.25.121l-1.145,1.45a2.214,2.214,0,0,1-1.748.847h-8.978v-6.259a9.026,9.026,0,0,1,1.713-5.308l.286-.4H268.6l.286.4a9.028,9.028,0,0,1,1.713,5.308ZM256.653,156.3h1.821a2.214,2.214,0,0,1,1.748.848l1.145,1.45a.316.316,0,0,0,.25.121h7.069v-4.35a7.124,7.124,0,0,0-1.086-3.8H247.527a7.123,7.123,0,0,0-1.086,3.8v4.35h7.069a.316.316,0,0,0,.249-.121l1.145-1.45A2.215,2.215,0,0,1,256.653,156.3Z" transform="translate(-244.532 -148.667)"/>
              </g>
              <g id="g2380" transform="translate(21.192 10.805)">
                <path id="Trazado_723772" data-name="Trazado 723772" d="M258.354,139.252h-3.468A10.367,10.367,0,0,1,244.532,128.9v-6.617a9.1,9.1,0,0,1,9.092-9.092h7.88a9.1,9.1,0,0,1,9.092,9.092V128.9a10.392,10.392,0,0,1-7.525,9.96.955.955,0,0,1-.521-1.837,8.475,8.475,0,0,0,6.137-8.124v-6.617A7.19,7.19,0,0,0,261.5,115.1h-7.88a7.191,7.191,0,0,0-7.183,7.182V128.9a8.455,8.455,0,0,0,8.446,8.446h3.468a.955.955,0,0,1,0,1.909Z" transform="translate(-244.532 -113.189)"/>
              </g>
              <g id="g2384" transform="translate(27.949 17.442)">
                <path id="Trazado_723773" data-name="Trazado 723773" d="M316.276,187.358a.955.955,0,0,1-.955-.955v-2.732a.955.955,0,0,1,1.909,0V186.4A.955.955,0,0,1,316.276,187.358Z" transform="translate(-315.321 -182.717)"/>
              </g>
              <g id="g2388" transform="translate(38.589 17.442)">
                <path id="Trazado_723774" data-name="Trazado 723774" d="M427.729,187.358a.955.955,0,0,1-.955-.955v-2.732a.955.955,0,0,1,1.909,0V186.4A.955.955,0,0,1,427.729,187.358Z" transform="translate(-426.774 -182.717)"/>
              </g>
              <g id="g2392" transform="translate(27.414 26.903)">
                <path id="Trazado_723775" data-name="Trazado 723775" d="M322.378,283.742h-11.71a.955.955,0,0,1,0-1.909h11.71a.955.955,0,0,1,0,1.909Z" transform="translate(-309.714 -281.833)"/>
              </g>
              <g id="g2396" transform="translate(27.972 30.229)">
                <path id="Trazado_723776" data-name="Trazado 723776" d="M327.1,318.576H316.51a.955.955,0,1,1,0-1.909H327.1a.955.955,0,1,1,0,1.909Z" transform="translate(-315.555 -316.667)"/>
              </g>
              <g id="g2400" transform="translate(44.279 47.984)">
                <path id="path2402" d="M494.909,505.531h-2.1a.382.382,0,0,1-.382-.382v-2.1a.382.382,0,0,0-.382-.382h-2.418a.382.382,0,0,0-.382.382v2.1a.382.382,0,0,1-.382.382h-2.1a.382.382,0,0,0-.382.382v2.418a.382.382,0,0,0,.382.382h2.1a.382.382,0,0,1,.382.382v2.1a.382.382,0,0,0,.382.382h2.418a.382.382,0,0,0,.382-.382v-2.1a.382.382,0,0,1,.382-.382h2.1a.382.382,0,0,0,.382-.382v-2.418a.382.382,0,0,0-.382-.382" transform="translate(-486.381 -502.667)" fill="#05e39c"/>
              </g>
              <g id="g2404" transform="translate(43.324 47.029)">
                <path id="Trazado_723777" data-name="Trazado 723777" d="M483,503.485h-2.418a1.338,1.338,0,0,1-1.336-1.336v-1.527h-1.527a1.338,1.338,0,0,1-1.336-1.336v-2.418a1.338,1.338,0,0,1,1.336-1.336h1.527V494a1.338,1.338,0,0,1,1.336-1.336H483A1.338,1.338,0,0,1,484.336,494v1.527h1.527a1.338,1.338,0,0,1,1.336,1.336v2.418a1.338,1.338,0,0,1-1.336,1.336h-1.527v1.527A1.338,1.338,0,0,1,483,503.485Zm-1.846-1.909h1.273v-1.527a1.338,1.338,0,0,1,1.336-1.336h1.527v-1.273h-1.527a1.338,1.338,0,0,1-1.336-1.336v-1.527h-1.273V496.1a1.338,1.338,0,0,1-1.336,1.336H478.29v1.273h1.527a1.338,1.338,0,0,1,1.336,1.336Zm4.709-4.137h0Z" transform="translate(-476.381 -492.666)"/>
              </g>
              <g id="g2408" transform="translate(0.954 32.17)">
                <path id="path2410" d="M51.822,349.815a2.093,2.093,0,0,0-2.959.008l-1.5,1.528V339.507a1.3,1.3,0,0,0-1.3-1.3l-.574,0a1.32,1.32,0,0,0-1.311,1.311V348.6l-.689,0V338.3a1.3,1.3,0,0,0-1.3-1.3l-.575,0a1.32,1.32,0,0,0-1.311,1.311v10.3l-.692,0v-10.3a1.3,1.3,0,0,0-1.3-1.3l-.575,0a1.32,1.32,0,0,0-1.311,1.311v10.3l-.7,0v-8.531a1.3,1.3,0,0,0-1.3-1.3l-.574,0a1.32,1.32,0,0,0-1.311,1.311v27.666a1.233,1.233,0,0,0,1.224,1.275H47.319V357.269l4.495-4.495a2.093,2.093,0,0,0,.008-2.959" transform="translate(-32.529 -337)" fill="#05e39c"/>
              </g>
              <g id="g2412" transform="translate(0.954 33.958)">
                <path id="path2414" d="M36.042,384.71V365.566h-.324v-8.531a1.3,1.3,0,0,0-1.3-1.3l-.574,0a1.32,1.32,0,0,0-1.311,1.311V384.71a1.233,1.233,0,0,0,1.224,1.275h3.513a1.232,1.232,0,0,1-1.224-1.275" transform="translate(-32.529 -355.731)" fill="#0ed290"/>
              </g>
              <g id="g2416" transform="translate(0 31.215)">
                <path id="Trazado_723778" data-name="Trazado 723778" d="M38.274,360.951H24.709a2.144,2.144,0,0,1-1.529-.63,2.241,2.241,0,0,1-.649-1.6V331.055a2.275,2.275,0,0,1,2.263-2.266l.574,0h.007a2.238,2.238,0,0,1,1.055.261,2.275,2.275,0,0,1,2.252-2.038l.574,0h.006a2.239,2.239,0,0,1,1.595.661l.053.055A2.264,2.264,0,0,1,32.562,327l.574,0h.006a2.263,2.263,0,0,1,2.136,1.529,2.251,2.251,0,0,1,1.162-.325l.575,0h.006a2.257,2.257,0,0,1,2.255,2.261v9.513a3.035,3.035,0,0,1,2.021-.771h.008a3.015,3.015,0,0,1,2.147.888,3.051,3.051,0,0,1-.008,4.309l-4.215,4.215v3.041a.955.955,0,1,1-1.909,0v-3.436a.955.955,0,0,1,.28-.675l4.495-4.495a1.139,1.139,0,0,0,.008-1.609,1.119,1.119,0,0,0-.8-.329h0a1.141,1.141,0,0,0-.806.334L39,342.974a.955.955,0,0,1-1.637-.668V330.461a.348.348,0,0,0-.346-.35h0l-.575,0a.365.365,0,0,0-.359.359v9.083a.955.955,0,0,1-.952.955l-.689,0h0a.955.955,0,0,1-.955-.955v-10.3a.349.349,0,0,0-.346-.35h0l-.575,0a.365.365,0,0,0-.359.359v10.3a.955.955,0,0,1-.952.955l-.692,0h0a.955.955,0,0,1-.955-.955v-10.3a.349.349,0,0,0-.346-.35h0l-.574,0a.365.365,0,0,0-.359.359v10.3a.955.955,0,0,1-.953.955l-.7,0h0a.955.955,0,0,1-.955-.955v-8.531a.346.346,0,0,0-.1-.248.367.367,0,0,0-.245-.1l-.574,0a.366.366,0,0,0-.359.359v27.664a.348.348,0,0,0,.092.251.239.239,0,0,0,.178.07H37.32v-2.927a.955.955,0,1,1,1.909,0V360A.955.955,0,0,1,38.274,360.951Z" transform="translate(-22.53 -327)"/>
              </g>
            </g>
          </g>
        </g>
      </g>
    </g>
  </g>
</svg>
